<?xml version="1.0" encoding="UTF-8"?>
<svg data-bbox="16.07 19.23 205.4 55.87" viewBox="0 0 250 100" xmlns="http://www.w3.org/2000/svg" data-type="color">
    <g>
        <path d="m81.61 30.06 2.06-5.39h1.42l-1.97 5.39zm.97-.86v-1.26h3.73v1.26zm3.18.86-1.97-5.39h1.42l2.06 5.39z" fill="#fffcef" data-color="1"/>
        <path d="M87.79 30.06v-5.39h1.5l2.1 2.96v-2.96h1.42v5.39h-1.42l-2.18-3.07v3.07z" fill="#fffcef" data-color="1"/>
        <path d="M94.93 30.06v-4.08h-1.52v-1.31h4.47v1.31h-1.52v4.08h-1.42Z" fill="#fffcef" data-color="1"/>
        <path d="M98.46 30.06v-5.39h1.42v5.39z" fill="#fffcef" data-color="1"/>
        <path d="M103.43 30.15q-.84 0-1.5-.36c-.66-.36-.77-.57-1.02-.99s-.37-.9-.37-1.44.12-1.02.37-1.44.58-.75 1.02-.99c.43-.24.93-.36 1.49-.36s1.06.12 1.49.36q.645.36 1.02.99c.25.42.37.9.37 1.44s-.12 1.02-.37 1.44c-.24.42-.58.75-1.01.99s-.93.36-1.49.36m0-1.31c.28 0 .52-.06.73-.19s.38-.3.49-.52c.12-.22.18-.48.18-.76s-.06-.54-.18-.77c-.12-.22-.29-.4-.5-.52-.21-.13-.46-.19-.74-.19s-.51.06-.73.19c-.21.13-.38.3-.5.52s-.18.48-.18.77.06.54.18.76.29.39.5.52.46.19.74.19Z" fill="#fffcef" data-color="1"/>
        <path d="m106.57 30.06 2.09-2.94 1.68-2.45h1.7l-2.03 2.77-1.72 2.62zm3.81 0-1.72-2.62-2.04-2.77h1.7l1.69 2.44 2.09 2.95z" fill="#fffcef" data-color="1"/>
        <path d="M112.64 30.06v-5.39h1.42v5.39z" fill="#fffcef" data-color="1"/>
        <path d="M114.99 30.06v-5.39h1.8c.59 0 1.11.12 1.57.35.45.23.81.55 1.07.95s.38.87.38 1.4-.13.99-.38 1.39c-.26.41-.61.72-1.07.95s-.98.35-1.57.35zm1.42-1.35h.38c.23 0 .43-.03.62-.1s.35-.16.49-.28.25-.26.32-.42c.08-.16.12-.35.12-.55a1.26 1.26 0 0 0-.44-.97c-.14-.12-.3-.21-.49-.28s-.4-.1-.62-.1h-.38v2.69Z" fill="#fffcef" data-color="1"/>
        <path d="m120.06 30.06 2.06-5.39h1.42l-1.97 5.39zm.97-.86v-1.26h3.73v1.26zm3.18.86-1.97-5.39h1.42l2.06 5.39z" fill="#fffcef" data-color="1"/>
        <path d="M126.23 30.06v-5.39h1.5l2.1 2.96v-2.96h1.42v5.39h-1.42l-2.18-3.07v3.07z" fill="#fffcef" data-color="1"/>
        <path d="M133.38 30.06v-4.08h-1.52v-1.31h4.47v1.31h-1.52v4.08h-1.42Z" fill="#fffcef" data-color="1"/>
        <path d="M136.91 30.06v-5.39h3.61v1.31h-2.19v.75h1.77V28h-1.77v.75h2.24v1.31h-3.67Z" fill="#fffcef" data-color="1"/>
        <path d="M143.31 30.15a2.64 2.64 0 0 1-1.4-.39c-.2-.12-.36-.26-.49-.42a.95.95 0 0 1-.23-.5l1.42-.39q.075.195.24.33c.11.09.26.14.44.15.14 0 .27-.03.38-.12.11-.08.17-.19.17-.32 0-.09-.03-.17-.1-.25a.52.52 0 0 0-.3-.17l-.81-.21a1.9 1.9 0 0 1-.71-.33c-.2-.15-.35-.33-.45-.55-.11-.22-.16-.46-.16-.72 0-.53.18-.94.53-1.24s.85-.44 1.48-.44c.34 0 .64.04.9.13s.48.22.67.41.34.43.47.74l-1.41.41a.7.7 0 0 0-.2-.31c-.1-.1-.25-.15-.43-.15s-.31.04-.4.12-.14.19-.14.34q0 .135.12.24c.08.07.19.12.33.16l.82.21q.615.15.96.6c.23.3.35.64.35 1.03q0 .525-.24.9c-.16.25-.39.43-.7.56-.3.13-.67.19-1.09.19Z" fill="#fffcef" data-color="1"/>
        <path d="M147.81 30.06v-5.39h1.5l2.1 2.96v-2.96h1.42v5.39h-1.42l-2.18-3.07v3.07z" fill="#fffcef" data-color="1"/>
        <path d="m153.36 30.06 2.06-5.39h1.42l-1.97 5.39zm.97-.86v-1.26h3.73v1.26zm3.18.86-1.97-5.39h1.42l2.06 5.39z" fill="#fffcef" data-color="1"/>
        <path d="M160.11 30.06v-4.08h-1.52v-1.31h4.47v1.31h-1.52v4.08h-1.42Z" fill="#fffcef" data-color="1"/>
        <path d="M165.86 30.15c-.48 0-.89-.09-1.23-.26s-.61-.42-.79-.75-.27-.71-.27-1.17v-3.3h1.42v3.3c0 .18.04.33.11.46s.17.23.3.29.29.1.47.1.34-.03.48-.1c.13-.07.23-.16.3-.29s.1-.28.1-.46v-3.3h1.42v3.3c0 .45-.09.84-.28 1.17-.18.33-.45.58-.8.75s-.76.26-1.25.26Z" fill="#fffcef" data-color="1"/>
        <path d="M169.03 30.06v-5.39h2.23c.41 0 .76.08 1.08.23.31.16.56.37.74.65.18.27.27.59.27.95s-.09.68-.27.96-.42.5-.74.65-.67.23-1.08.23h-.81v1.71h-1.42Zm1.43-3.02h.73c.13 0 .24-.02.34-.07s.17-.11.23-.19.08-.17.08-.28c0-.15-.06-.28-.18-.38a.72.72 0 0 0-.47-.15h-.73zm1.47 3.02-1.2-2.12 1.07-.8 1.76 2.92z" fill="#fffcef" data-color="1"/>
        <path d="m173.81 30.06 2.06-5.39h1.42l-1.97 5.39zm.97-.86v-1.26h3.73v1.26zm3.18.86-1.97-5.39h1.42l2.06 5.39z" fill="#fffcef" data-color="1"/>
        <path d="M179.98 30.06v-5.39h1.42v5.39z" fill="#fffcef" data-color="1"/>
        <path d="M184.22 30.15a2.64 2.64 0 0 1-1.4-.39c-.2-.12-.36-.26-.49-.42a.95.95 0 0 1-.23-.5l1.42-.39q.075.195.24.33c.11.09.26.14.44.15.14 0 .27-.03.38-.12.11-.08.17-.19.17-.32 0-.09-.03-.17-.1-.25a.52.52 0 0 0-.3-.17l-.81-.21a1.9 1.9 0 0 1-.71-.33c-.2-.15-.35-.33-.45-.55-.11-.22-.16-.46-.16-.72 0-.53.18-.94.53-1.24s.85-.44 1.48-.44c.34 0 .64.04.9.13s.48.22.67.41.34.43.47.74l-1.41.41a.7.7 0 0 0-.2-.31c-.1-.1-.25-.15-.43-.15s-.31.04-.4.12-.14.19-.14.34q0 .135.12.24c.08.07.19.12.33.16l.82.21q.615.15.96.6c.23.3.35.64.35 1.03q0 .525-.24.9c-.16.25-.39.43-.7.56-.3.13-.67.19-1.09.19Z" fill="#fffcef" data-color="1"/>
        <path d="m81.62 38.76 2.19-5.39h.66l-2.16 5.39zm1.04-1.53v-.59h3v.59zm3.35 1.53-2.16-5.39h.65l2.19 5.39H86Z" fill="#fffcef" data-color="1"/>
        <path d="M90.46 38.85c-.38 0-.72-.09-1.01-.26s-.52-.41-.68-.71c-.17-.3-.25-.65-.25-1.05s.08-.74.24-1.05c.16-.3.39-.54.68-.71s.63-.26 1-.26.7.08.99.25.52.41.67.72l-.56.25q-.15-.315-.45-.48c-.2-.12-.42-.17-.67-.17s-.47.06-.67.18c-.19.12-.34.29-.46.51s-.17.47-.17.75.05.53.17.75.26.39.46.51.42.18.67.18.48-.06.67-.19q.3-.195.45-.54l.56.25c-.15.33-.38.58-.67.77-.29.18-.63.28-1 .28Z" fill="#fffcef" data-color="1"/>
        <path d="M94.39 38.85c-.38 0-.71-.09-1-.26s-.52-.41-.68-.71c-.17-.3-.25-.65-.25-1.05s.08-.74.24-1.05c.16-.3.39-.54.68-.71s.62-.26 1-.26.71.09 1 .26.52.41.68.71q.24.45.24 1.05c0 .6-.08.74-.24 1.05-.16.3-.39.54-.67.71-.29.17-.62.26-.99.26Zm-.01-.57c.25 0 .47-.06.67-.18q.285-.18.45-.51c.165-.33.17-.47.17-.75s-.05-.53-.17-.75-.26-.39-.46-.51-.42-.18-.68-.18-.47.06-.67.18c-.19.12-.34.29-.46.51-.11.22-.17.47-.17.75s.05.53.17.75.26.39.46.51.42.18.67.18Z" fill="#fffcef" data-color="1"/>
        <path d="M96.92 38.76v-3.85h.58l.03.54c.12-.21.27-.36.45-.47s.4-.16.65-.16c.31 0 .57.07.79.22.22.14.38.36.47.65.11-.28.27-.5.47-.65s.46-.22.74-.22c.43 0 .77.14 1.02.43s.37.72.37 1.31v2.2h-.62v-1.97q0-.57-.12-.87c-.08-.2-.19-.34-.32-.41a1 1 0 0 0-.46-.11c-.3 0-.54.12-.71.36s-.25.58-.25 1.01v1.99h-.62v-1.97q0-.57-.12-.87c-.08-.2-.19-.34-.32-.41-.14-.07-.29-.11-.47-.11-.3 0-.53.12-.7.36s-.25.58-.25 1.01v1.99h-.62Z" fill="#fffcef" data-color="1"/>
        <path d="M103.24 38.76v-5.39h.62v4.67l-.03.72h-.58Zm1.92.09c-.32 0-.61-.08-.85-.25s-.43-.41-.57-.71c-.13-.31-.2-.66-.2-1.05s.07-.75.2-1.06c.13-.3.32-.54.57-.71s.53-.25.85-.25c.34 0 .65.08.91.25s.47.41.61.71c.15.3.22.65.22 1.06s-.07.75-.22 1.05c-.15.31-.35.54-.61.71s-.57.25-.91.25m-.14-.56c.24 0 .46-.06.64-.18q.285-.18.45-.51c.165-.33.17-.47.17-.76s-.05-.53-.16-.75-.25-.39-.44-.52c-.19-.12-.4-.19-.65-.19-.23 0-.43.06-.6.19q-.27.18-.42.51c-.1.22-.15.47-.15.76s.05.53.15.75.24.39.41.52c.17.12.38.18.6.18" fill="#fffcef" data-color="1"/>
        <path d="M107.87 34.02q-.15 0-.27-.12t-.12-.27c0-.15.04-.2.12-.27s.17-.11.27-.11.2.04.27.11.11.17.11.27-.04.19-.11.27q-.12.12-.27.12m-.31 4.74v-3.85h.62v3.85z" fill="#fffcef" data-color="1"/>
        <path d="M109.07 38.76v-3.85h.58l.04.71v3.14zm2.71-1.97c0-.38-.04-.67-.13-.87s-.21-.34-.36-.41a1.2 1.2 0 0 0-.52-.11c-.34 0-.6.12-.79.36s-.28.58-.28 1.01h-.3c0-.41.06-.75.18-1.05.12-.29.29-.52.52-.67s.5-.23.82-.23.57.06.79.18.4.31.52.57c.13.26.19.61.18 1.03v.18h-.62Zm0 1.97v-1.97h.62v1.97z" fill="#fffcef" data-color="1"/>
        <path d="M114.36 38.85c-.45 0-.8-.1-1.06-.31-.25-.21-.38-.5-.38-.87q0-.585.39-.9c.26-.21.62-.31 1.09-.31h1.1v.52h-.96c-.36 0-.61.06-.77.18a.62.62 0 0 0-.23.51c0 .2.07.36.22.47.15.12.36.17.62.17.22 0 .41-.05.58-.14.16-.1.29-.23.38-.41s.13-.39.13-.63h.26c0 .52-.12.94-.35 1.25s-.58.47-1.03.47Zm1.15-.09-.03-.63v-1.4c0-.3-.03-.55-.1-.75s-.17-.35-.32-.45-.33-.15-.56-.15c-.21 0-.39.04-.54.13-.15.08-.28.22-.37.4l-.55-.22c.1-.18.21-.33.35-.47s.3-.23.49-.3.4-.1.63-.1c.36 0 .66.07.89.21s.41.35.53.62.17.61.17 1.02v2.09h-.58Z" fill="#fffcef" data-color="1"/>
        <path d="M118.55 38.85c-.38 0-.72-.09-1.01-.26s-.52-.41-.68-.71c-.17-.3-.25-.65-.25-1.05s.08-.74.24-1.05c.16-.3.39-.54.68-.71s.63-.26 1-.26.7.08.99.25.52.41.67.72l-.56.25q-.15-.315-.45-.48c-.2-.12-.42-.17-.67-.17s-.47.06-.67.18c-.19.12-.34.29-.46.51s-.17.47-.17.75.05.53.17.75.26.39.46.51.42.18.67.18.48-.06.67-.19q.3-.195.45-.54l.56.25c-.15.33-.38.58-.67.77-.29.18-.63.28-1 .28Zm-.24 1.53c-.1 0-.21-.01-.32-.04-.12-.03-.26-.08-.42-.17l.15-.37c.08.04.16.07.25.11s.17.05.24.05c.09 0 .18-.02.25-.05.08-.04.11-.11.11-.22 0-.13-.05-.22-.14-.29-.09-.06-.24-.11-.44-.14l.23-.54.41.09-.08.2c.19.07.33.16.4.28.08.12.12.25.12.38 0 .2-.06.37-.18.5-.12.14-.31.2-.58.2Z" fill="#fffcef" data-color="1"/>
        <path d="M121.99 38.85c-.45 0-.8-.1-1.06-.31-.25-.21-.38-.5-.38-.87q0-.585.39-.9c.26-.21.62-.31 1.09-.31h1.1v.52h-.96c-.36 0-.61.06-.77.18a.62.62 0 0 0-.23.51c0 .2.07.36.22.47.15.12.36.17.62.17.22 0 .41-.05.58-.14.16-.1.29-.23.38-.41s.13-.39.13-.63h.26c0 .52-.12.94-.35 1.25s-.58.47-1.03.47Zm1.15-.09-.03-.63v-1.4c0-.3-.03-.55-.1-.75s-.17-.35-.32-.45-.33-.15-.56-.15c-.21 0-.39.04-.54.13-.15.08-.28.22-.37.4l-.55-.22c.1-.18.21-.33.35-.47s.3-.23.49-.3.4-.1.63-.1c.36 0 .66.07.89.21s.41.35.53.62.17.61.17 1.02v2.09h-.58Zm-.34-4.36c-.15 0-.27-.03-.36-.08s-.17-.12-.23-.19-.11-.14-.17-.19a.22.22 0 0 0-.18-.08c-.08 0-.14.02-.19.07a.45.45 0 0 0-.1.23h-.5q.03-.21.12-.39c.06-.12.15-.22.27-.29s.25-.11.4-.11.26.03.35.08c.09.06.16.12.22.19s.12.14.17.19c.05.06.12.08.2.08.09 0 .15-.03.19-.08s.07-.12.08-.22h.49c-.03.21-.1.39-.23.55q-.195.24-.54.24Z" fill="#fffcef" data-color="1"/>
        <path d="M126.17 38.85c-.38 0-.71-.09-1-.26s-.52-.41-.68-.71c-.17-.3-.25-.65-.25-1.05s.08-.74.24-1.05c.16-.3.39-.54.68-.71s.62-.26 1-.26.71.09 1 .26.52.41.68.71q.24.45.24 1.05c0 .6-.08.74-.24 1.05-.16.3-.39.54-.67.71-.29.17-.62.26-.99.26Zm-.01-.57c.25 0 .47-.06.67-.18q.285-.18.45-.51c.165-.33.17-.47.17-.75s-.05-.53-.17-.75-.26-.39-.46-.51-.42-.18-.68-.18-.47.06-.67.18c-.19.12-.34.29-.46.51-.11.22-.17.47-.17.75s.05.53.17.75.26.39.46.51.42.18.67.18Z" fill="#fffcef" data-color="1"/>
        <path d="M131.88 38.85c-.34 0-.65-.08-.91-.25s-.47-.41-.61-.71c-.15-.31-.22-.66-.22-1.05s.07-.75.22-1.06c.15-.3.35-.54.61-.71s.56-.25.91-.25c.32 0 .61.08.85.25s.43.41.57.71c.13.3.2.65.2 1.06s-.07.75-.2 1.05c-.13.31-.32.54-.57.71-.24.17-.53.25-.85.25m.14-.56q.345 0 .6-.18c.17-.12.31-.3.41-.52q.15-.33.15-.75c0-.42-.05-.53-.15-.75s-.24-.39-.41-.52c-.17-.12-.38-.19-.61-.19s-.46.06-.64.19c-.19.12-.33.29-.44.52-.11.22-.16.47-.16.75s.05.53.16.75.26.39.45.52c.19.12.41.18.65.18Zm1.19.47-.03-.72v-4.67h.62v5.39z" fill="#fffcef" data-color="1"/>
        <path d="M136.33 38.85c-.38 0-.71-.09-.99-.26-.29-.17-.51-.41-.67-.71q-.24-.45-.24-1.05c0-.6.08-.74.24-1.05.16-.3.38-.54.67-.71.28-.17.61-.26.98-.26s.67.09.93.27.46.42.61.74.22.69.22 1.12h-3.18l.15-.13c0 .31.05.57.17.79s.27.39.47.5c.2.12.43.17.69.17.27 0 .5-.06.69-.19s.33-.3.43-.51l.53.27c-.1.2-.23.37-.39.52s-.35.26-.57.35c-.22.08-.46.12-.73.12Zm-1.25-2.29-.16-.12h2.66l-.16.13c0-.25-.05-.46-.15-.64q-.15-.27-.39-.42c-.17-.1-.35-.15-.57-.15s-.41.05-.6.15-.34.23-.45.41-.17.39-.17.64Z" fill="#fffcef" data-color="1"/>
        <path d="m141.43 38.76-1.61-3.85h.64l1.57 3.85zm.04 0 1.57-3.85h.65l-1.61 3.85z" fill="#fffcef" data-color="1"/>
        <path d="M144.42 34.02q-.15 0-.27-.12t-.12-.27c0-.15.04-.2.12-.27s.17-.11.27-.11.2.04.27.11.11.17.11.27-.04.19-.11.27q-.12.12-.27.12m-.32 4.74v-3.85h.62v3.85z" fill="#fffcef" data-color="1"/>
        <path d="M145.22 35.46v-.55h2.44v.55zm1.84 3.39c-.37 0-.67-.1-.87-.29-.21-.19-.31-.47-.31-.82v-4.03h.62v3.97c0 .2.05.35.16.45.11.11.25.16.44.16.06 0 .12 0 .18-.03s.14-.06.23-.13l.24.5a1.2 1.2 0 0 1-.69.23Z" fill="#fffcef" data-color="1"/>
        <path d="M149.49 38.85c-.45 0-.8-.1-1.06-.31-.25-.21-.38-.5-.38-.87q0-.585.39-.9c.26-.21.62-.31 1.09-.31h1.1v.52h-.96c-.36 0-.61.06-.77.18a.62.62 0 0 0-.23.51c0 .2.07.36.22.47.15.12.36.17.62.17.22 0 .41-.05.58-.14.16-.1.29-.23.38-.41s.13-.39.13-.63h.26c0 .52-.12.94-.35 1.25s-.58.47-1.03.47Zm1.15-.09-.03-.63v-1.4c0-.3-.03-.55-.1-.75s-.17-.35-.32-.45-.33-.15-.56-.15c-.21 0-.39.04-.54.13-.15.08-.28.22-.37.4l-.55-.22c.1-.18.21-.33.35-.47s.3-.23.49-.3.4-.1.63-.1c.36 0 .66.07.89.21s.41.35.53.62.17.61.17 1.02v2.09h-.58Z" fill="#fffcef" data-color="1"/>
        <path d="M151.97 38.76v-3.85h.58l.03.54c.12-.21.27-.36.45-.47s.4-.16.65-.16c.31 0 .57.07.79.22.22.14.38.36.47.65.11-.28.27-.5.47-.65s.46-.22.74-.22c.43 0 .77.14 1.02.43s.37.72.37 1.31v2.2h-.62v-1.97q0-.57-.12-.87c-.08-.2-.19-.34-.32-.41a1 1 0 0 0-.46-.11c-.3 0-.54.12-.71.36s-.25.58-.25 1.01v1.99h-.62v-1.97q0-.57-.12-.87c-.08-.2-.19-.34-.32-.41-.14-.07-.29-.11-.47-.11-.3 0-.53.12-.7.36s-.25.58-.25 1.01v1.99h-.62Z" fill="#fffcef" data-color="1"/>
        <path d="M158.64 34.02q-.15 0-.27-.12t-.12-.27c0-.15.04-.2.12-.27s.17-.11.27-.11.2.04.27.11.11.17.11.27-.04.19-.11.27q-.12.12-.27.12m-.31 4.74v-3.85h.62v3.85z" fill="#fffcef" data-color="1"/>
        <path d="M159.84 38.76v-3.85h.58l.04.71v3.14zm2.71-1.97c0-.38-.04-.67-.13-.87s-.21-.34-.36-.41a1.2 1.2 0 0 0-.52-.11c-.34 0-.6.12-.79.36s-.28.58-.28 1.01h-.3c0-.41.06-.75.18-1.05.12-.29.29-.52.52-.67s.5-.23.82-.23.57.06.79.18.4.31.52.57c.13.26.19.61.18 1.03v.18h-.62Zm0 1.97v-1.97h.62v1.97z" fill="#fffcef" data-color="1"/>
        <path d="M165.13 38.85c-.45 0-.8-.1-1.06-.31-.25-.21-.38-.5-.38-.87q0-.585.39-.9c.26-.21.62-.31 1.09-.31h1.1v.52h-.96c-.36 0-.61.06-.77.18a.62.62 0 0 0-.23.51c0 .2.07.36.22.47.15.12.36.17.62.17.22 0 .41-.05.58-.14.16-.1.29-.23.38-.41s.13-.39.13-.63h.26c0 .52-.12.94-.35 1.25s-.58.47-1.03.47Zm1.15-.09-.03-.63v-1.4c0-.3-.03-.55-.1-.75s-.17-.35-.32-.45-.33-.15-.56-.15c-.21 0-.39.04-.54.13-.15.08-.28.22-.37.4l-.55-.22c.1-.18.21-.33.35-.47s.3-.23.49-.3.4-.1.63-.1c.36 0 .66.07.89.21s.41.35.53.62.17.61.17 1.02v2.09h-.58Z" fill="#fffcef" data-color="1"/>
        <path d="M171.72 38.85c-.51 0-.97-.12-1.36-.36q-.6-.36-.93-.99c-.23-.42-.34-.9-.34-1.44s.11-1.03.33-1.44c.22-.42.53-.75.92-.99s.84-.36 1.35-.36c.32 0 .63.06.93.17.3.12.56.28.8.48.24.21.42.45.55.72l-.56.28c-.1-.22-.24-.4-.42-.56s-.38-.28-.6-.37-.45-.13-.69-.13c-.38 0-.71.09-1.01.28s-.53.45-.7.77-.25.71-.25 1.14.08.81.25 1.15c.17.33.4.59.71.78.3.19.64.28 1.02.28.25 0 .48-.05.7-.15s.42-.24.6-.41q.27-.255.42-.6l.57.29c-.13.28-.32.53-.55.75s-.5.39-.8.52c-.3.12-.61.18-.94.18Z" fill="#fffcef" data-color="1"/>
        <path d="m174.37 39.64.44-1.62h.69l-.6 1.62z" fill="#fffcef" data-color="1"/>
        <path d="M177.95 38.76v-5.39h3.19v.59h-2.53v1.74h2.31v.59h-2.31v1.88h2.55v.59h-3.2Z" fill="#fffcef" data-color="1"/>
        <path d="M185.46 38.85c-.38 0-.71-.09-.99-.26-.29-.17-.51-.41-.67-.71q-.24-.45-.24-1.05c0-.6.08-.74.24-1.05.16-.3.38-.54.67-.71.28-.17.61-.26.98-.26s.67.09.93.27.46.42.61.74.22.69.22 1.12h-3.18l.15-.13c0 .31.05.57.17.79s.27.39.47.5c.2.12.43.17.69.17.27 0 .5-.06.69-.19s.33-.3.43-.51l.53.27c-.1.2-.23.37-.39.52s-.35.26-.57.35c-.22.08-.46.12-.73.12Zm-1.25-2.29-.16-.12h2.66l-.16.13c0-.25-.05-.46-.15-.64q-.15-.27-.39-.42c-.17-.1-.35-.15-.57-.15s-.41.05-.6.15-.34.23-.45.41-.17.39-.17.64Z" fill="#fffcef" data-color="1"/>
        <path d="M190.77 38.85c-.28 0-.53-.04-.74-.13-.21-.08-.39-.2-.53-.33q-.21-.21-.3-.45l.54-.22c.09.17.22.32.39.42.17.11.37.16.58.16.24 0 .44-.05.61-.14a.45.45 0 0 0 .25-.4c0-.16-.06-.29-.18-.38q-.18-.15-.54-.24l-.37-.1c-.35-.09-.62-.23-.82-.42-.19-.19-.29-.4-.29-.64 0-.36.12-.65.36-.85s.59-.3 1.07-.3c.23 0 .43.03.62.1s.34.16.48.28.23.26.29.43l-.54.24a.73.73 0 0 0-.33-.38 1.2 1.2 0 0 0-.56-.12c-.24 0-.42.05-.55.15s-.2.24-.2.42c0 .1.06.2.17.29s.27.16.49.22l.38.1q.375.09.63.27c.17.12.3.26.39.41s.13.32.13.49c0 .23-.06.43-.19.6-.12.17-.29.3-.5.39s-.45.13-.72.13Z" fill="#fffcef" data-color="1"/>
        <path d="M194.46 38.85c-.38 0-.71-.09-.99-.26-.29-.17-.51-.41-.67-.71q-.24-.45-.24-1.05c0-.6.08-.74.24-1.05.16-.3.38-.54.67-.71.28-.17.61-.26.98-.26s.67.09.93.27.46.42.61.74.22.69.22 1.12h-3.18l.15-.13c0 .31.05.57.17.79s.27.39.47.5c.2.12.43.17.69.17.27 0 .5-.06.69-.19s.33-.3.43-.51l.53.27c-.1.2-.23.37-.39.52s-.35.26-.57.35c-.22.08-.46.12-.73.12Zm-1.25-2.29-.16-.12h2.66l-.16.13c0-.25-.05-.46-.15-.64q-.15-.27-.39-.42c-.17-.1-.35-.15-.57-.15s-.41.05-.6.15-.34.23-.45.41-.17.39-.17.64Z" fill="#fffcef" data-color="1"/>
        <path d="M196.75 38.76v-5.39h.62v5.39z" fill="#fffcef" data-color="1"/>
        <path d="M199.9 38.85c-.38 0-.71-.09-.99-.26-.29-.17-.51-.41-.67-.71q-.24-.45-.24-1.05c0-.6.08-.74.24-1.05.16-.3.38-.54.67-.71.28-.17.61-.26.98-.26s.67.09.93.27.46.42.61.74.22.69.22 1.12h-3.18l.15-.13c0 .31.05.57.17.79s.27.39.47.5c.2.12.43.17.69.17.27 0 .5-.06.69-.19s.33-.3.43-.51l.53.27c-.1.2-.23.37-.39.52s-.35.26-.57.35c-.22.08-.46.12-.73.12Zm-1.25-2.29-.16-.12h2.66l-.16.13c0-.25-.05-.46-.15-.64q-.15-.27-.39-.42c-.17-.1-.35-.15-.57-.15s-.41.05-.6.15-.34.23-.45.41-.17.39-.17.64Zm-.08-2.28.93-1h.75v.02l-1.01.98h-.68Zm1.94 0-1.01-.98v-.02h.75l.93 1h-.68Z" fill="#fffcef" data-color="1"/>
        <path d="M202.19 38.76v-3.85h.58l.04.71v3.14zm2.71-1.97c0-.38-.04-.67-.13-.87s-.21-.34-.36-.41a1.2 1.2 0 0 0-.52-.11c-.34 0-.6.12-.79.36s-.28.58-.28 1.01h-.3c0-.41.06-.75.18-1.05.12-.29.29-.52.52-.67s.5-.23.82-.23.57.06.79.18.4.31.52.57c.13.26.19.61.18 1.03v.18h-.62Zm0 1.97v-1.97h.62v1.97z" fill="#fffcef" data-color="1"/>
        <path d="M206.61 34.02q-.15 0-.27-.12t-.12-.27c0-.15.04-.2.12-.27s.17-.11.27-.11.2.04.27.11.11.17.11.27-.04.19-.11.27q-.12.12-.27.12m-.31 4.74v-3.85h.62v3.85z" fill="#fffcef" data-color="1"/>
        <path d="M209.52 38.85c-.38 0-.71-.09-1-.26s-.52-.41-.68-.71c-.17-.3-.25-.65-.25-1.05s.08-.74.24-1.05c.16-.3.39-.54.68-.71s.62-.26 1-.26.71.09 1 .26.52.41.68.71q.24.45.24 1.05c0 .6-.08.74-.24 1.05-.16.3-.39.54-.67.71-.29.17-.62.26-.99.26Zm-.01-.57c.25 0 .47-.06.67-.18q.285-.18.45-.51c.165-.33.17-.47.17-.75s-.05-.53-.17-.75-.26-.39-.46-.51-.42-.18-.68-.18-.47.06-.67.18c-.19.12-.34.29-.46.51-.11.22-.17.47-.17.75s.05.53.17.75.26.39.46.51.42.18.67.18Z" fill="#fffcef" data-color="1"/>
        <path d="M83.8 47.55c-.38 0-.71-.09-1-.26s-.52-.41-.68-.71c-.17-.3-.25-.65-.25-1.05s.08-.74.24-1.05c.16-.3.39-.54.68-.71s.62-.26 1-.26.71.09 1 .26.52.41.68.71q.24.45.24 1.05c0 .6-.08.74-.24 1.05-.16.3-.39.54-.67.71-.29.17-.62.26-.99.26Zm0-.57c.25 0 .47-.06.67-.18q.285-.18.45-.51c.165-.33.17-.47.17-.75s-.05-.53-.17-.75-.26-.39-.46-.51-.42-.18-.68-.18-.47.06-.67.18c-.19.12-.34.29-.46.51-.11.22-.17.47-.17.75s.05.53.17.75.26.39.46.51.42.18.67.18Z" fill="#fffcef" data-color="1"/>
        <path d="M86.33 47.46v-3.85h.62v3.85zm.34-2.09c0-.42.08-.75.24-1.01s.36-.45.61-.58.51-.19.79-.19v.58c-.23 0-.44.04-.65.11s-.38.2-.51.37-.2.4-.2.69z" fill="#fffcef" data-color="1"/>
        <path d="M90.22 47.43a1.64 1.64 0 0 1-1.52-.94c-.14-.3-.22-.63-.22-1.01s.07-.73.22-1.03c.15-.29.35-.52.61-.69.26-.16.56-.25.91-.25.32 0 .61.08.85.25q.36.24.57.69c.14.3.2.64.2 1.03s-.07.72-.2 1.02-.32.52-.57.69c-.24.16-.52.25-.85.25Zm.02 1.66c-.25 0-.47-.02-.67-.07s-.38-.1-.52-.16q-.21-.09-.3-.15l.23-.5c.07.04.16.08.29.13.12.05.27.1.43.14.17.04.34.06.54.06.25 0 .47-.05.67-.15s.35-.26.46-.47.17-.49.17-.82v-3.49h.62v3.48c0 .44-.08.81-.25 1.11-.16.3-.39.52-.68.67s-.61.22-.98.22Zm.12-2.19c.23 0 .43-.06.6-.19.17-.12.31-.29.41-.5s.15-.46.15-.74-.05-.51-.15-.73c-.1-.21-.24-.38-.41-.5q-.255-.18-.6-.18c-.345 0-.46.06-.64.18-.19.12-.33.29-.44.5-.1.21-.16.46-.16.73s.05.53.16.74.26.38.44.5c.19.12.4.19.64.19" fill="#fffcef" data-color="1"/>
        <path d="M94.21 47.55c-.45 0-.8-.1-1.06-.31-.25-.21-.38-.5-.38-.87q0-.585.39-.9c.26-.21.62-.31 1.09-.31h1.1v.52h-.96c-.36 0-.61.06-.77.18a.62.62 0 0 0-.23.51c0 .2.07.36.22.47.15.12.36.17.62.17.22 0 .41-.05.58-.14.16-.1.29-.23.38-.41s.13-.39.13-.63h.26c0 .52-.12.94-.35 1.25s-.58.47-1.03.47Zm1.15-.09-.03-.63v-1.4c0-.3-.03-.55-.1-.75s-.17-.35-.32-.45-.33-.15-.56-.15c-.21 0-.39.04-.54.13-.15.08-.28.22-.37.4l-.55-.22c.1-.18.21-.33.35-.47s.3-.23.49-.3.4-.1.63-.1c.36 0 .66.07.89.21s.41.35.53.62.17.61.17 1.02v2.09h-.58Zm-2.29-4.48.93-1h.75V42l-1.01.98h-.68Zm1.94 0L94 42v-.02h.75l.93 1H95Z" fill="#fffcef" data-color="1"/>
        <path d="M96.68 47.46v-3.85h.58l.04.71v3.14zm2.7-1.97c0-.38-.04-.67-.13-.87s-.21-.34-.36-.41a1.2 1.2 0 0 0-.52-.11c-.34 0-.6.12-.79.36s-.28.58-.28 1.01H97c0-.41.06-.75.18-1.05.12-.29.29-.52.52-.67s.5-.23.82-.23.57.06.79.18.4.31.52.57c.13.26.19.61.18 1.03v.18h-.62Zm0 1.97v-1.97h.62v1.97z" fill="#fffcef" data-color="1"/>
        <path d="M101.1 42.72q-.15 0-.27-.12t-.12-.27c0-.15.04-.2.12-.27s.17-.11.27-.11.2.04.27.11.11.17.11.27-.04.19-.11.27q-.12.12-.27.12m-.32 4.74v-3.85h.62v3.85z" fill="#fffcef" data-color="1"/>
        <path d="M104.02 47.55c-.38 0-.72-.09-1.01-.26s-.52-.41-.68-.71c-.17-.3-.25-.65-.25-1.05s.08-.74.24-1.05c.16-.3.39-.54.68-.71s.63-.26 1-.26.7.08.99.25.52.41.67.72l-.56.25q-.15-.315-.45-.48c-.2-.12-.42-.17-.67-.17s-.47.06-.67.18c-.19.12-.34.29-.46.51s-.17.47-.17.75.05.53.17.75.26.39.46.51.42.18.67.18.48-.06.67-.19q.3-.195.45-.54l.56.25c-.15.33-.38.58-.67.77-.29.18-.63.28-1 .28Z" fill="#fffcef" data-color="1"/>
        <path d="M107.94 47.55c-.38 0-.71-.09-1-.26s-.52-.41-.68-.71c-.17-.3-.25-.65-.25-1.05s.08-.74.24-1.05c.16-.3.39-.54.68-.71s.62-.26 1-.26.71.09 1 .26.52.41.68.71q.24.45.24 1.05c0 .6-.08.74-.24 1.05-.16.3-.39.54-.67.71-.29.17-.62.26-.99.26Zm-.01-.57c.25 0 .47-.06.67-.18q.285-.18.45-.51c.165-.33.17-.47.17-.75s-.05-.53-.17-.75-.26-.39-.46-.51-.42-.18-.68-.18-.47.06-.67.18c-.19.12-.34.29-.46.51-.11.22-.17.47-.17.75s.05.53.17.75.26.39.46.51.42.18.67.18Z" fill="#fffcef" data-color="1"/>
        <path d="M113.59 47.55c-.45 0-.8-.1-1.06-.31-.25-.21-.38-.5-.38-.87q0-.585.39-.9c.26-.21.62-.31 1.09-.31h1.1v.52h-.96c-.36 0-.61.06-.77.18a.62.62 0 0 0-.23.51c0 .2.07.36.22.47.15.12.36.17.62.17.22 0 .41-.05.58-.14.16-.1.29-.23.38-.41s.13-.39.13-.63h.26c0 .52-.12.94-.35 1.25s-.58.47-1.03.47Zm1.15-.09-.03-.63v-1.4c0-.3-.03-.55-.1-.75s-.17-.35-.32-.45-.33-.15-.56-.15c-.21 0-.39.04-.54.13-.15.08-.28.22-.37.4l-.55-.22c.1-.18.21-.33.35-.47s.3-.23.49-.3.4-.1.63-.1c.36 0 .66.07.89.21s.41.35.53.62.17.61.17 1.02v2.09h-.58Z" fill="#fffcef" data-color="1"/>
        <path d="M116.2 45.58v-1.97h.62v1.97zm.61 0c0 .38.04.67.13.87s.21.34.37.41.33.11.53.11q.495 0 .78-.36c.19-.24.28-.58.28-1.01h.3c0 .41-.06.75-.18 1.05s-.29.52-.51.67-.5.23-.82.23c-.3 0-.56-.06-.79-.18s-.4-.31-.52-.58c-.12-.26-.19-.61-.19-1.03v-.19h.62Zm2.13 1.88-.04-.71v-3.14h.62v3.85z" fill="#fffcef" data-color="1"/>
        <path d="m120.13 47.46 1.57-2.21 1.11-1.64h.73l-1.46 2.08-1.2 1.77zm2.77 0-1.19-1.77-1.48-2.08h.73l1.12 1.64 1.55 2.21h-.74Z" fill="#fffcef" data-color="1"/>
        <path d="M124.61 42.72q-.15 0-.27-.12t-.12-.27c0-.15.04-.2.12-.27s.17-.11.27-.11.2.04.27.11.11.17.11.27-.04.19-.11.27q-.12.12-.27.12m-.32 4.74v-3.85h.62v3.85z" fill="#fffcef" data-color="1"/>
        <path d="M126.04 47.46v-5.39h.62v5.39z" fill="#fffcef" data-color="1"/>
        <path d="M128.09 42.72q-.15 0-.27-.12t-.12-.27c0-.15.04-.2.12-.27s.17-.11.27-.11.2.04.27.11.11.17.11.27-.04.19-.11.27q-.12.12-.27.12m-.32 4.74v-3.85h.62v3.85z" fill="#fffcef" data-color="1"/>
        <path d="M130.73 47.55c-.45 0-.8-.1-1.06-.31-.25-.21-.38-.5-.38-.87q0-.585.39-.9c.26-.21.62-.31 1.09-.31h1.1v.52h-.96c-.36 0-.61.06-.77.18a.62.62 0 0 0-.23.51c0 .2.07.36.22.47.15.12.36.17.62.17.22 0 .41-.05.58-.14.16-.1.29-.23.38-.41s.13-.39.13-.63h.26c0 .52-.12.94-.35 1.25s-.58.47-1.03.47Zm1.16-.09-.03-.63v-1.4c0-.3-.03-.55-.1-.75s-.17-.35-.32-.45-.33-.15-.56-.15c-.21 0-.39.04-.54.13-.15.08-.28.22-.37.4l-.55-.22c.1-.18.21-.33.35-.47s.3-.23.49-.3.4-.1.63-.1c.36 0 .66.07.89.21s.41.35.53.62.17.61.17 1.02v2.09h-.58Z" fill="#fffcef" data-color="1"/>
        <path d="M136.56 47.55c-.45 0-.8-.1-1.06-.31-.25-.21-.38-.5-.38-.87q0-.585.39-.9c.26-.21.62-.31 1.09-.31h1.1v.52h-.96c-.36 0-.61.06-.77.18a.62.62 0 0 0-.23.51c0 .2.07.36.22.47.15.12.36.17.62.17.22 0 .41-.05.58-.14.16-.1.29-.23.38-.41s.13-.39.13-.63h.26c0 .52-.12.94-.35 1.25s-.58.47-1.03.47Zm1.16-.09-.03-.63v-1.4c0-.3-.03-.55-.1-.75s-.17-.35-.32-.45-.33-.15-.56-.15c-.21 0-.39.04-.54.13-.15.08-.28.22-.37.4l-.55-.22c.1-.18.21-.33.35-.47s.3-.23.49-.3.4-.1.63-.1c.36 0 .66.07.89.21s.41.35.53.62.17.61.17 1.02v2.09h-.58Z" fill="#fffcef" data-color="1"/>
        <path d="M141.17 47.46v-3.85h.62v3.85zm.34-2.09c0-.42.08-.75.24-1.01s.36-.45.61-.58.51-.19.79-.19v.58c-.23 0-.44.04-.65.11s-.38.2-.51.37-.2.4-.2.69z" fill="#fffcef" data-color="1"/>
        <path d="M145.46 47.55c-.38 0-.71-.09-.99-.26-.29-.17-.51-.41-.67-.71q-.24-.45-.24-1.05c0-.6.08-.74.24-1.05.16-.3.38-.54.67-.71.28-.17.61-.26.98-.26s.67.09.93.27.46.42.61.74.22.69.22 1.12h-3.18l.15-.13c0 .31.05.57.17.79s.27.39.47.5c.2.12.43.17.69.17.27 0 .5-.06.69-.19s.33-.3.43-.51l.53.27c-.1.2-.23.37-.39.52s-.35.26-.57.35c-.22.08-.46.12-.73.12Zm-1.25-2.29-.16-.12h2.66l-.16.13c0-.25-.05-.46-.15-.64q-.15-.27-.39-.42c-.17-.1-.35-.15-.57-.15s-.41.05-.6.15-.34.23-.45.41-.17.39-.17.64Z" fill="#fffcef" data-color="1"/>
        <path d="M149.5 47.55c-.34 0-.65-.08-.91-.25s-.47-.41-.61-.71c-.15-.31-.22-.66-.22-1.05s.07-.75.22-1.06c.15-.3.35-.54.61-.71s.56-.25.91-.25c.32 0 .61.08.85.25s.43.41.57.71c.13.3.2.65.2 1.06s-.07.75-.2 1.05c-.13.31-.32.54-.57.71-.24.17-.53.25-.85.25m.14-.56q.345 0 .6-.18c.17-.12.31-.3.41-.52q.15-.33.15-.75c0-.42-.05-.53-.15-.75s-.24-.39-.41-.52c-.17-.12-.38-.19-.61-.19s-.46.06-.64.19c-.19.12-.33.29-.44.52-.11.22-.16.47-.16.75s.05.53.16.75.26.39.45.52c.19.12.41.18.65.18Zm1.19.47-.03-.72v-4.67h.62v5.39z" fill="#fffcef" data-color="1"/>
        <path d="M152.39 45.58v-1.97h.62v1.97zm.62 0c0 .38.04.67.13.87s.21.34.37.41.33.11.53.11q.495 0 .78-.36c.19-.24.28-.58.28-1.01h.3c0 .41-.06.75-.18 1.05s-.29.52-.51.67-.5.23-.82.23c-.3 0-.56-.06-.79-.18s-.4-.31-.52-.58c-.12-.26-.19-.61-.19-1.03v-.19h.62Zm2.12 1.88-.04-.71v-3.14h.62v3.85z" fill="#fffcef" data-color="1"/>
        <path d="M156.6 47.46v-.49l2.27-2.82h-2.27v-.54h3.07v.48l-2.28 2.83h2.29v.54h-3.09Z" fill="#fffcef" data-color="1"/>
        <path d="M160.92 42.72q-.15 0-.27-.12t-.12-.27c0-.15.04-.2.12-.27s.17-.11.27-.11.2.04.27.11.11.17.11.27-.04.19-.11.27q-.12.12-.27.12m-.31 4.74v-3.85h.62v3.85z" fill="#fffcef" data-color="1"/>
        <path d="M162.36 47.46v-3.85h.62v3.85zm.33-2.09c0-.42.08-.75.24-1.01s.36-.45.61-.58.51-.19.79-.19v.58c-.23 0-.44.04-.65.11s-.38.2-.51.37-.2.4-.2.69z" fill="#fffcef" data-color="1"/>
        <path d="M168.57 47.55c-.38 0-.71-.09-1-.26s-.52-.41-.68-.71c-.17-.3-.25-.65-.25-1.05s.08-.74.24-1.05c.16-.3.39-.54.68-.71s.62-.26 1-.26.71.09 1 .26.52.41.68.71q.24.45.24 1.05c0 .6-.08.74-.24 1.05-.16.3-.39.54-.67.71-.29.17-.62.26-.99.26Zm-.01-.57c.25 0 .47-.06.67-.18q.285-.18.45-.51c.165-.33.17-.47.17-.75s-.05-.53-.17-.75-.26-.39-.46-.51-.42-.18-.68-.18-.47.06-.67.18c-.19.12-.34.29-.46.51-.11.22-.17.47-.17.75s.05.53.17.75.26.39.46.51.42.18.67.18Z" fill="#fffcef" data-color="1"/>
        <path d="M174.91 47.55c-.38 0-.71-.09-.99-.26-.29-.17-.51-.41-.67-.71q-.24-.45-.24-1.05c0-.6.08-.74.24-1.05.16-.3.38-.54.67-.71.28-.17.61-.26.98-.26s.67.09.93.27.46.42.61.74.22.69.22 1.12h-3.18l.15-.13c0 .31.05.57.17.79s.27.39.47.5c.2.12.43.17.69.17.27 0 .5-.06.69-.19s.33-.3.43-.51l.53.27c-.1.2-.23.37-.39.52s-.35.26-.57.35c-.22.08-.46.12-.73.12Zm-1.24-2.29-.16-.12h2.66l-.16.13c0-.25-.05-.46-.15-.64q-.15-.27-.39-.42c-.17-.1-.35-.15-.57-.15s-.41.05-.6.15-.34.23-.45.41-.17.39-.17.64Z" fill="#fffcef" data-color="1"/>
        <path d="M178.78 47.55c-.28 0-.53-.04-.74-.13-.21-.08-.39-.2-.53-.33q-.21-.21-.3-.45l.54-.22c.09.17.22.32.39.42.17.11.37.16.58.16.24 0 .44-.05.61-.14a.45.45 0 0 0 .25-.4c0-.16-.06-.29-.18-.38q-.18-.15-.54-.24l-.37-.1c-.35-.09-.62-.23-.82-.42-.19-.19-.29-.4-.29-.64 0-.36.12-.65.36-.85s.59-.3 1.07-.3c.23 0 .43.03.62.1s.34.16.48.28.23.26.29.43l-.54.24a.73.73 0 0 0-.33-.38 1.2 1.2 0 0 0-.56-.12c-.24 0-.42.05-.55.15s-.2.24-.2.42c0 .1.06.2.17.29s.27.16.49.22l.38.1q.375.09.63.27c.17.12.3.26.39.41s.13.32.13.49c0 .23-.06.43-.19.6-.12.17-.29.3-.5.39s-.45.13-.72.13Z" fill="#fffcef" data-color="1"/>
        <path d="M180.62 44.16v-.55h2.44v.55zm1.85 3.39c-.37 0-.67-.1-.87-.29-.21-.19-.31-.47-.31-.82v-4.03h.62v3.97c0 .2.05.35.16.45.11.11.25.16.44.16.06 0 .12 0 .18-.03s.14-.06.23-.13l.24.5a1.2 1.2 0 0 1-.69.23Z" fill="#fffcef" data-color="1"/>
        <path d="M183.93 47.46v-3.85h.62v3.85zm.34-2.09c0-.42.08-.75.24-1.01s.36-.45.61-.58.51-.19.79-.19v.58c-.23 0-.44.04-.65.11s-.38.2-.51.37-.2.4-.2.69z" fill="#fffcef" data-color="1"/>
        <path d="M188.22 47.55c-.38 0-.71-.09-.99-.26-.29-.17-.51-.41-.67-.71q-.24-.45-.24-1.05c0-.6.08-.74.24-1.05.16-.3.38-.54.67-.71.28-.17.61-.26.98-.26s.67.09.93.27.46.42.61.74.22.69.22 1.12h-3.18l.15-.13c0 .31.05.57.17.79s.27.39.47.5c.2.12.43.17.69.17.27 0 .5-.06.69-.19s.33-.3.43-.51l.53.27c-.1.2-.23.37-.39.52s-.35.26-.57.35c-.22.08-.46.12-.73.12Zm-1.25-2.29-.16-.12h2.66l-.16.13c0-.25-.05-.46-.15-.64q-.15-.27-.39-.42c-.17-.1-.35-.15-.57-.15s-.41.05-.6.15-.34.23-.45.41-.17.39-.17.64Z" fill="#fffcef" data-color="1"/>
        <path d="M192.08 47.55c-.28 0-.53-.04-.74-.13-.21-.08-.39-.2-.53-.33q-.21-.21-.3-.45l.54-.22c.09.17.22.32.39.42.17.11.37.16.58.16.24 0 .44-.05.61-.14a.45.45 0 0 0 .25-.4c0-.16-.06-.29-.18-.38q-.18-.15-.54-.24l-.37-.1c-.35-.09-.62-.23-.82-.42-.19-.19-.29-.4-.29-.64 0-.36.12-.65.36-.85s.59-.3 1.07-.3c.23 0 .43.03.62.1s.34.16.48.28.23.26.29.43l-.54.24a.73.73 0 0 0-.33-.38 1.2 1.2 0 0 0-.56-.12c-.24 0-.42.05-.55.15s-.2.24-.2.42c0 .1.06.2.17.29s.27.16.49.22l.38.1q.375.09.63.27c.17.12.3.26.39.41s.13.32.13.49c0 .23-.06.43-.19.6-.12.17-.29.3-.5.39s-.45.13-.72.13Z" fill="#fffcef" data-color="1"/>
        <path d="M195.67 47.55c-.28 0-.53-.04-.74-.13-.21-.08-.39-.2-.53-.33q-.21-.21-.3-.45l.54-.22c.09.17.22.32.39.42.17.11.37.16.58.16.24 0 .44-.05.61-.14a.45.45 0 0 0 .25-.4c0-.16-.06-.29-.18-.38q-.18-.15-.54-.24l-.37-.1c-.35-.09-.62-.23-.82-.42-.19-.19-.29-.4-.29-.64 0-.36.12-.65.36-.85s.59-.3 1.07-.3c.23 0 .43.03.62.1s.34.16.48.28.23.26.29.43l-.54.24a.73.73 0 0 0-.33-.38 1.2 1.2 0 0 0-.56-.12c-.24 0-.42.05-.55.15s-.2.24-.2.42c0 .1.06.2.17.29s.27.16.49.22l.38.1q.375.09.63.27c.17.12.3.26.39.41s.13.32.13.49c0 .23-.06.43-.19.6-.12.17-.29.3-.5.39s-.45.13-.72.13Z" fill="#fffcef" data-color="1"/>
        <path d="M199.6 47.55c-.38 0-.71-.09-.99-.26-.29-.17-.51-.41-.67-.71q-.24-.45-.24-1.05c0-.6.08-.74.24-1.05.16-.3.38-.54.67-.71.28-.17.61-.26.98-.26s.67.09.93.27.46.42.61.74.22.69.22 1.12h-3.18l.15-.13c0 .31.05.57.17.79s.27.39.47.5c.2.12.43.17.69.17.27 0 .5-.06.69-.19s.33-.3.43-.51l.53.27c-.1.2-.23.37-.39.52s-.35.26-.57.35c-.22.08-.46.12-.73.12Zm-1.25-2.29-.16-.12h2.66l-.16.13c0-.25-.05-.46-.15-.64q-.15-.27-.39-.42c-.17-.1-.35-.15-.57-.15s-.41.05-.6.15-.34.23-.45.41-.17.39-.17.64Z" fill="#fffcef" data-color="1"/>
        <path d="M83.8 56.25c-.38 0-.71-.09-1-.26s-.52-.41-.68-.71c-.17-.3-.25-.65-.25-1.05s.08-.74.24-1.05c.16-.3.39-.54.68-.71s.62-.26 1-.26.71.09 1 .26.52.41.68.71q.24.45.24 1.05c0 .6-.08.74-.24 1.05-.16.3-.39.54-.67.71-.29.17-.62.26-.99.26Zm0-.57c.25 0 .47-.06.67-.18q.285-.18.45-.51c.11-.22.17-.47.17-.75s-.05-.53-.17-.75a1.2 1.2 0 0 0-.46-.51c-.2-.12-.42-.18-.68-.18s-.47.06-.67.18-.34.29-.46.51c-.11.22-.17.47-.17.75s.05.53.17.75c.11.22.26.39.46.51s.42.18.67.18Z" fill="#fffcef" data-color="1"/>
        <path d="m86.06 56.16 1.57-2.21 1.11-1.64h.73l-1.46 2.08-1.2 1.77zm2.76 0-1.19-1.77-1.48-2.08h.73L88 53.95l1.55 2.21h-.74Z" fill="#fffcef" data-color="1"/>
        <path d="M90.53 51.42q-.15 0-.27-.12c-.12-.12-.12-.17-.12-.27s.04-.2.12-.27.17-.11.27-.11.2.04.27.11.11.17.11.27-.04.19-.11.27q-.12.12-.27.12m-.31 4.74v-3.85h.62v3.85z" fill="#fffcef" data-color="1"/>
        <path d="M93.48 56.25c-.34 0-.65-.08-.91-.25s-.47-.41-.61-.71c-.15-.3-.22-.66-.22-1.05s.07-.75.22-1.05.35-.54.61-.71.56-.25.91-.25c.32 0 .61.08.85.25s.43.41.57.71.2.65.2 1.05-.07.75-.2 1.05c-.13.31-.32.54-.57.71-.24.17-.53.25-.85.25m.14-.56q.345 0 .6-.18c.255-.18.31-.29.41-.52q.15-.33.15-.75c0-.42-.05-.53-.15-.75s-.24-.39-.41-.52-.38-.18-.61-.18-.46.06-.64.18-.33.29-.44.52c-.11.22-.16.47-.16.75s.05.53.16.75.26.39.45.52c.19.12.41.18.65.18Zm1.19.47-.03-.72v-4.67h.62v5.39z" fill="#fffcef" data-color="1"/>
        <path d="M97.69 56.25c-.45 0-.8-.1-1.06-.31-.25-.21-.38-.5-.38-.87q0-.585.39-.9c.26-.21.62-.31 1.09-.31h1.1v.52h-.96c-.36 0-.61.06-.77.18a.62.62 0 0 0-.23.51c0 .2.07.36.22.47.15.12.36.17.62.17.22 0 .41-.05.58-.14.16-.09.29-.23.38-.41s.13-.39.13-.63h.26c0 .52-.12.94-.35 1.25s-.58.47-1.03.47Zm1.16-.09-.03-.63v-1.4c0-.3-.03-.55-.1-.75s-.17-.35-.32-.45-.33-.15-.56-.15c-.21 0-.39.04-.54.13s-.28.22-.37.4l-.55-.22c.1-.18.21-.33.35-.47s.3-.23.49-.3.4-.1.63-.1c.36 0 .66.07.89.21s.41.35.53.62.17.61.17 1.02v2.09h-.58Z" fill="#fffcef" data-color="1"/>
        <path d="M100 52.86v-.55h2.44v.55zm1.85 3.39c-.37 0-.67-.1-.87-.29-.21-.19-.31-.47-.31-.82v-4.03h.62v3.96c0 .2.05.35.16.45.11.11.25.16.44.16.06 0 .12 0 .18-.03.06-.02.14-.06.23-.13l.24.5a1.2 1.2 0 0 1-.69.23" fill="#fffcef" data-color="1"/>
        <path d="M103.67 51.42q-.15 0-.27-.12c-.12-.12-.12-.17-.12-.27s.04-.2.12-.27.17-.11.27-.11.2.04.27.11.11.17.11.27-.04.19-.11.27q-.12.12-.27.12m-.32 4.74v-3.85h.62v3.85z" fill="#fffcef" data-color="1"/>
        <path d="m106.24 56.16-1.61-3.85h.64l1.57 3.85zm.04 0 1.57-3.85h.65l-1.61 3.85z" fill="#fffcef" data-color="1"/>
        <path d="M110.72 56.25c-.38 0-.71-.09-1-.26s-.52-.41-.68-.71c-.17-.3-.25-.65-.25-1.05s.08-.74.24-1.05c.16-.3.39-.54.68-.71s.62-.26 1-.26.71.09 1 .26.52.41.68.71q.24.45.24 1.05c0 .6-.08.74-.24 1.05-.16.3-.39.54-.67.71-.29.17-.62.26-.99.26Zm-.01-.57c.25 0 .47-.06.67-.18q.285-.18.45-.51c.11-.22.17-.47.17-.75s-.05-.53-.17-.75a1.2 1.2 0 0 0-.46-.51c-.2-.12-.42-.18-.68-.18s-.47.06-.67.18-.34.29-.46.51c-.11.22-.17.47-.17.75s.05.53.17.75c.11.22.26.39.46.51s.42.18.67.18Z" fill="#fffcef" data-color="1"/>
        <path d="M117.1 56.25c-.38 0-.72-.09-1.01-.26s-.52-.41-.68-.71c-.17-.3-.25-.65-.25-1.05s.08-.74.24-1.05c.16-.3.39-.54.68-.71s.63-.26 1-.26.7.08.99.25.52.41.67.72l-.56.25q-.15-.315-.45-.48c-.2-.12-.42-.17-.67-.17s-.47.06-.67.18-.34.29-.46.51c-.11.22-.17.47-.17.75s.05.53.17.75c.11.22.26.39.46.51s.42.18.67.18.48-.06.67-.19q.3-.195.45-.54l.56.25c-.15.33-.38.58-.67.77-.29.18-.63.28-1 .28Z" fill="#fffcef" data-color="1"/>
        <path d="M121.23 56.25c-.38 0-.71-.09-.99-.26-.29-.17-.51-.41-.67-.71q-.24-.45-.24-1.05c0-.6.08-.74.24-1.05.16-.3.38-.54.67-.71.28-.17.61-.26.98-.26s.67.09.93.27.46.42.61.74.22.69.22 1.12h-3.18l.15-.13c0 .31.05.57.17.79s.27.39.47.5c.2.12.43.17.69.17.27 0 .5-.06.69-.19s.33-.3.43-.51l.53.27c-.1.2-.23.37-.39.52s-.35.26-.57.35c-.22.08-.46.12-.73.12Zm-1.25-2.29-.16-.12h2.66l-.16.13c0-.25-.05-.46-.15-.64q-.15-.27-.39-.42c-.17-.1-.35-.15-.57-.15s-.41.05-.6.15-.34.23-.45.41c-.12.18-.17.39-.17.63Z" fill="#fffcef" data-color="1"/>
        <path d="M123.75 56.16v-5.39h.62v5.39z" fill="#fffcef" data-color="1"/>
        <path d="M125.34 54.28v-1.97h.62v1.97zm.62 0c0 .38.04.67.13.87s.21.34.37.41.33.11.53.11q.495 0 .78-.36c.285-.36.28-.58.28-1.01h.3c0 .41-.06.75-.18 1.05-.12.29-.29.52-.51.67s-.5.23-.82.23c-.3 0-.56-.06-.79-.18s-.4-.31-.52-.58c-.12-.26-.19-.61-.19-1.03v-.19h.62Zm2.12 1.88-.04-.71v-3.14h.62v3.85z" fill="#fffcef" data-color="1"/>
        <path d="M129.74 56.16v-5.39h.62v5.39z" fill="#fffcef" data-color="1"/>
        <path d="M132.65 56.25c-.45 0-.8-.1-1.06-.31-.25-.21-.38-.5-.38-.87q0-.585.39-.9c.26-.21.62-.31 1.09-.31h1.1v.52h-.96c-.36 0-.61.06-.77.18a.62.62 0 0 0-.23.51c0 .2.07.36.22.47.15.12.36.17.62.17.22 0 .41-.05.58-.14.16-.09.29-.23.38-.41s.13-.39.13-.63h.26c0 .52-.12.94-.35 1.25s-.58.47-1.03.47Zm1.16-.09-.03-.63v-1.4c0-.3-.03-.55-.1-.75s-.17-.35-.32-.45-.33-.15-.56-.15c-.21 0-.39.04-.54.13s-.28.22-.37.4l-.55-.22c.1-.18.21-.33.35-.47s.3-.23.49-.3.4-.1.63-.1c.36 0 .66.07.89.21s.41.35.53.62.17.61.17 1.02v2.09h-.58Z" fill="#fffcef" data-color="1"/>
        <path d="M135.36 56.16v-3.85h.62v3.85zm.34-2.09c0-.42.08-.75.24-1.01s.36-.45.61-.58c.25-.12.51-.19.79-.19v.58c-.23 0-.44.04-.65.11s-.38.2-.51.37-.2.4-.2.69z" fill="#fffcef" data-color="1"/>
        <path d="m137.73 57.04.44-1.62h.69l-.6 1.62z" fill="#fffcef" data-color="1"/>
        <path d="M143.32 56.25c-.38 0-.72-.09-1.01-.26s-.52-.41-.68-.71c-.17-.3-.25-.65-.25-1.05s.08-.74.24-1.05c.16-.3.39-.54.68-.71s.63-.26 1-.26.7.08.99.25.52.41.67.72l-.56.25q-.15-.315-.45-.48c-.2-.12-.42-.17-.67-.17s-.47.06-.67.18-.34.29-.46.51c-.11.22-.17.47-.17.75s.05.53.17.75c.11.22.26.39.46.51s.42.18.67.18.48-.06.67-.19q.3-.195.45-.54l.56.25c-.15.33-.38.58-.67.77-.29.18-.63.28-1 .28Z" fill="#fffcef" data-color="1"/>
        <path d="M147.48 56.25c-.38 0-.71-.09-1-.26s-.52-.41-.68-.71c-.17-.3-.25-.65-.25-1.05s.08-.74.24-1.05c.16-.3.39-.54.68-.71s.62-.26 1-.26.71.09 1 .26.52.41.68.71q.24.45.24 1.05c0 .6-.08.74-.24 1.05-.16.3-.39.54-.67.71-.29.17-.62.26-.99.26Zm-.01-.57c.25 0 .47-.06.67-.18q.285-.18.45-.51c.11-.22.17-.47.17-.75s-.05-.53-.17-.75a1.2 1.2 0 0 0-.46-.51c-.2-.12-.42-.18-.68-.18s-.47.06-.67.18-.34.29-.46.51c-.11.22-.17.47-.17.75s.05.53.17.75c.11.22.26.39.46.51s.42.18.67.18Z" fill="#fffcef" data-color="1"/>
        <path d="M150.24 56.16v-3.85h.58l.03.54c.12-.21.27-.36.45-.47s.4-.16.65-.16c.31 0 .57.07.79.22.22.14.38.36.47.65.11-.28.27-.5.47-.65.21-.15.46-.22.74-.22.43 0 .77.14 1.02.43s.37.72.37 1.31v2.2h-.62v-1.97q0-.57-.12-.87c-.08-.2-.19-.34-.32-.41a1 1 0 0 0-.46-.11c-.3 0-.54.12-.71.36s-.25.58-.25 1.01v1.99h-.62v-1.97q0-.57-.12-.87c-.08-.2-.19-.34-.32-.41-.14-.07-.29-.11-.47-.11-.3 0-.53.12-.7.36s-.25.58-.25 1.01v1.99h-.62Z" fill="#fffcef" data-color="1"/>
        <path d="M156.79 56.16v-5.39h.62v4.67l-.03.72h-.58Zm1.92.09c-.32 0-.61-.08-.85-.25s-.43-.41-.57-.71c-.13-.3-.2-.66-.2-1.05s.07-.75.2-1.05.32-.54.57-.71c.24-.17.53-.25.85-.25.34 0 .65.08.91.25s.47.41.61.71c.15.3.22.65.22 1.05s-.07.75-.22 1.05c-.15.31-.35.54-.61.71s-.57.25-.91.25m-.14-.56c.24 0 .46-.06.64-.18s.34-.29.45-.51.17-.47.17-.76-.05-.53-.16-.75-.25-.39-.44-.52c-.19-.12-.4-.18-.65-.18q-.345 0-.6.18-.27.18-.42.51c-.1.22-.15.47-.15.76s.05.53.15.75.24.39.41.52c.17.12.38.18.6.18" fill="#fffcef" data-color="1"/>
        <path d="M162.52 56.25c-.45 0-.8-.1-1.06-.31-.25-.21-.38-.5-.38-.87q0-.585.39-.9c.26-.21.62-.31 1.09-.31h1.1v.52h-.96c-.36 0-.61.06-.77.18a.62.62 0 0 0-.23.51c0 .2.07.36.22.47.15.12.36.17.62.17.22 0 .41-.05.58-.14.16-.09.29-.23.38-.41s.13-.39.13-.63h.26c0 .52-.12.94-.35 1.25s-.58.47-1.03.47Zm1.15-.09-.03-.63v-1.4c0-.3-.03-.55-.1-.75s-.17-.35-.32-.45-.33-.15-.56-.15c-.21 0-.39.04-.54.13s-.28.22-.37.4l-.55-.22c.1-.18.21-.33.35-.47s.3-.23.49-.3.4-.1.63-.1c.36 0 .66.07.89.21s.41.35.53.62.17.61.17 1.02v2.09h-.58Z" fill="#fffcef" data-color="1"/>
        <path d="M164.83 52.86v-.55h2.44v.55zm1.85 3.39c-.37 0-.67-.1-.87-.29-.21-.19-.31-.47-.31-.82v-4.03h.62v3.96c0 .2.05.35.16.45.11.11.25.16.44.16.06 0 .12 0 .18-.03.06-.02.14-.06.23-.13l.24.5a1.2 1.2 0 0 1-.69.23" fill="#fffcef" data-color="1"/>
        <path d="M169.8 56.25c-.38 0-.71-.09-.99-.26-.29-.17-.51-.41-.67-.71q-.24-.45-.24-1.05c0-.6.08-.74.24-1.05.16-.3.38-.54.67-.71.28-.17.61-.26.98-.26s.67.09.93.27.46.42.61.74.22.69.22 1.12h-3.18l.15-.13c0 .31.05.57.17.79s.27.39.47.5c.2.12.43.17.69.17.27 0 .5-.06.69-.19s.33-.3.43-.51l.53.27c-.1.2-.23.37-.39.52s-.35.26-.57.35c-.22.08-.46.12-.73.12Zm-1.25-2.29-.16-.12h2.66l-.16.13c0-.25-.05-.46-.15-.64q-.15-.27-.39-.42c-.17-.1-.35-.15-.57-.15s-.41.05-.6.15-.34.23-.45.41c-.12.18-.17.39-.17.63Z" fill="#fffcef" data-color="1"/>
        <path d="M172.32 56.16v-3.85h.58l.04.71v3.14zm2.7-1.97c0-.38-.04-.67-.13-.87s-.21-.34-.36-.41-.33-.11-.52-.11c-.34 0-.6.12-.79.36s-.28.58-.28 1.01h-.3c0-.41.06-.75.18-1.05.12-.29.29-.52.52-.67s.5-.23.82-.23.57.06.79.18.4.31.52.57.19.61.18 1.03v.18h-.62Zm0 1.97v-1.97h.62v1.97z" fill="#fffcef" data-color="1"/>
        <path d="M178.13 56.25c-.34 0-.65-.08-.91-.25s-.47-.41-.61-.71c-.15-.3-.22-.66-.22-1.05s.07-.75.22-1.05.35-.54.61-.71.56-.25.91-.25c.32 0 .61.08.85.25s.43.41.57.71.2.65.2 1.05-.07.75-.2 1.05c-.13.31-.32.54-.57.71-.24.17-.53.25-.85.25m.14-.56q.345 0 .6-.18c.255-.18.31-.29.41-.52q.15-.33.15-.75c0-.42-.05-.53-.15-.75s-.24-.39-.41-.52-.38-.18-.61-.18-.46.06-.64.18-.33.29-.44.52c-.11.22-.16.47-.16.75s.05.53.16.75.26.39.45.52c.19.12.41.18.65.18Zm1.2.47-.03-.72v-4.67h.62v5.39z" fill="#fffcef" data-color="1"/>
        <path d="M182.84 56.25c-.38 0-.71-.09-1-.26s-.52-.41-.68-.71c-.17-.3-.25-.65-.25-1.05s.08-.74.24-1.05c.16-.3.39-.54.68-.71s.62-.26 1-.26.71.09 1 .26.52.41.68.71q.24.45.24 1.05c0 .6-.08.74-.24 1.05-.16.3-.39.54-.67.71-.29.17-.62.26-.99.26Zm-.01-.57c.25 0 .47-.06.67-.18q.285-.18.45-.51c.11-.22.17-.47.17-.75s-.05-.53-.17-.75a1.2 1.2 0 0 0-.46-.51c-.2-.12-.42-.18-.68-.18s-.47.06-.67.18-.34.29-.46.51c-.11.22-.17.47-.17.75s.05.53.17.75c.11.22.26.39.46.51s.42.18.67.18Z" fill="#fffcef" data-color="1"/>
        <path d="M188.71 56.25c-.45 0-.8-.1-1.06-.31-.25-.21-.38-.5-.38-.87q0-.585.39-.9c.26-.21.62-.31 1.09-.31h1.1v.52h-.96c-.36 0-.61.06-.77.18a.62.62 0 0 0-.23.51c0 .2.07.36.22.47.15.12.36.17.62.17.22 0 .41-.05.58-.14.16-.09.29-.23.38-.41s.13-.39.13-.63h.26c0 .52-.12.94-.35 1.25s-.58.47-1.03.47Zm1.16-.09-.03-.63v-1.4c0-.3-.03-.55-.1-.75s-.17-.35-.32-.45-.33-.15-.56-.15c-.21 0-.39.04-.54.13s-.28.22-.37.4l-.55-.22c.1-.18.21-.33.35-.47s.3-.23.49-.3.4-.1.63-.1c.36 0 .66.07.89.21s.41.35.53.62.17.61.17 1.02v2.09h-.58Z" fill="#fffcef" data-color="1"/>
        <path d="M81.77 61.54v-.53h2.44v.53zm.71 3.32v-4.29c0-.4.09-.7.28-.9s.47-.3.86-.3c.1 0 .22.02.35.05.13.04.26.09.41.15l-.23.49c-.12-.05-.22-.08-.3-.11s-.15-.04-.21-.04c-.18 0-.31.06-.4.17-.09.12-.13.29-.13.54v4.24h-.62Z" fill="#fffcef" data-color="1"/>
        <path d="M86.62 64.95c-.38 0-.71-.09-1-.26s-.52-.41-.68-.71c-.17-.3-.25-.65-.25-1.05s.08-.74.24-1.05c.16-.3.39-.54.68-.71s.62-.26 1-.26.71.09 1 .26.52.41.68.71q.24.45.24 1.05c0 .6-.08.74-.24 1.05-.16.3-.39.54-.67.71-.29.17-.62.26-.99.26Zm-.01-.57c.25 0 .47-.06.67-.18q.285-.18.45-.51c.11-.22.17-.47.17-.75s-.05-.53-.17-.75a1.2 1.2 0 0 0-.46-.51c-.2-.12-.42-.18-.68-.18s-.47.06-.67.18-.34.29-.46.51c-.11.22-.17.47-.17.75s.05.53.17.75c.11.22.26.39.46.51s.42.18.67.18Z" fill="#fffcef" data-color="1"/>
        <path d="M89.38 64.86v-3.85H90v3.85zm.34-2.09c0-.42.08-.75.24-1.01s.36-.45.61-.58c.25-.12.51-.19.79-.19v.58c-.23 0-.44.04-.65.11s-.38.2-.51.37-.2.4-.2.69z" fill="#fffcef" data-color="1"/>
        <path d="M91.98 64.86v-3.85h.58l.03.54c.12-.21.27-.36.45-.47s.4-.16.65-.16c.31 0 .57.07.79.22.22.14.38.36.47.65.11-.28.27-.5.47-.65.21-.15.46-.22.74-.22.43 0 .77.14 1.02.43s.37.72.37 1.31v2.2h-.62v-1.97q0-.57-.12-.87c-.08-.2-.19-.34-.32-.41a1 1 0 0 0-.46-.11c-.3 0-.54.12-.71.36s-.25.58-.25 1.01v1.99h-.62v-1.97q0-.57-.12-.87c-.08-.2-.19-.34-.32-.41-.14-.07-.29-.11-.47-.11-.3 0-.53.12-.7.36s-.25.58-.25 1.01v1.99h-.62Z" fill="#fffcef" data-color="1"/>
        <path d="M99.75 64.95c-.45 0-.8-.1-1.06-.31-.25-.21-.38-.5-.38-.87q0-.585.39-.9c.26-.21.62-.31 1.09-.31h1.1v.52h-.96c-.36 0-.61.06-.77.18a.62.62 0 0 0-.23.51c0 .2.07.36.22.47.15.12.36.17.62.17.22 0 .41-.05.58-.14.16-.09.29-.23.38-.41s.13-.39.13-.63h.26c0 .52-.12.94-.35 1.25s-.58.47-1.03.47Zm1.15-.09-.03-.63v-1.4c0-.3-.03-.55-.1-.75s-.17-.35-.32-.45-.33-.15-.56-.15c-.21 0-.39.04-.54.13s-.28.22-.37.4l-.55-.22c.1-.18.21-.33.35-.47s.3-.23.49-.3.4-.1.63-.1c.36 0 .66.07.89.21s.41.35.53.62.17.61.17 1.02v2.09h-.58Z" fill="#fffcef" data-color="1"/>
        <path d="M104.18 64.95c-.38 0-.72-.09-1.01-.26s-.52-.41-.68-.71c-.17-.3-.25-.65-.25-1.05s.08-.74.24-1.05c.16-.3.39-.54.68-.71s.63-.26 1-.26.7.08.99.25.52.41.67.72l-.56.25q-.15-.315-.45-.48c-.2-.12-.42-.17-.67-.17s-.47.06-.67.18-.34.29-.46.51c-.11.22-.17.47-.17.75s.05.53.17.75c.11.22.26.39.46.51s.42.18.67.18.48-.06.67-.19q.3-.195.45-.54l.56.25c-.15.33-.38.58-.67.77-.29.18-.63.28-1 .28Zm-.24 1.53c-.1 0-.21-.01-.32-.04-.12-.03-.26-.08-.42-.17l.15-.37c.08.04.16.07.25.11s.17.05.24.05c.09 0 .18-.02.25-.05.08-.04.11-.11.11-.22 0-.13-.05-.22-.14-.29-.09-.06-.24-.11-.44-.14l.23-.54.41.09-.08.2c.19.07.33.16.4.28.08.12.12.25.12.38 0 .2-.06.37-.18.5-.12.14-.31.2-.58.2Z" fill="#fffcef" data-color="1"/>
        <path d="M107.84 64.95c-.45 0-.8-.1-1.06-.31-.25-.21-.38-.5-.38-.87q0-.585.39-.9c.26-.21.62-.31 1.09-.31h1.1v.52h-.96c-.36 0-.61.06-.77.18a.62.62 0 0 0-.23.51c0 .2.07.36.22.47.15.12.36.17.62.17.22 0 .41-.05.58-.14.16-.09.29-.23.38-.41s.13-.39.13-.63h.26c0 .52-.12.94-.35 1.25s-.58.47-1.03.47Zm1.16-.09-.03-.63v-1.4c0-.3-.03-.55-.1-.75s-.17-.35-.32-.45-.33-.15-.56-.15c-.21 0-.39.04-.54.13s-.28.22-.37.4l-.55-.22c.1-.18.21-.33.35-.47s.3-.23.49-.3.4-.1.63-.1c.36 0 .66.07.89.21s.41.35.53.62.17.61.17 1.02v2.09h-.58Zm-.34-4.36c-.15 0-.27-.03-.36-.08s-.17-.12-.23-.19-.11-.14-.17-.19a.22.22 0 0 0-.18-.08c-.08 0-.14.02-.19.07s-.08.12-.1.23h-.5q.03-.21.12-.39c.06-.12.15-.22.27-.29s.25-.11.4-.11.26.03.35.08c.09.06.16.12.22.19s.12.14.17.19c.05.06.12.08.2.08.09 0 .15-.03.19-.08s.07-.12.08-.22h.49c-.03.21-.1.39-.23.55q-.195.24-.54.24Z" fill="#fffcef" data-color="1"/>
        <path d="M112.25 64.95c-.38 0-.71-.09-1-.26s-.52-.41-.68-.71c-.17-.3-.25-.65-.25-1.05s.08-.74.24-1.05c.16-.3.39-.54.68-.71s.62-.26 1-.26.71.09 1 .26.52.41.68.71q.24.45.24 1.05c0 .6-.08.74-.24 1.05-.16.3-.39.54-.67.71-.29.17-.62.26-.99.26Zm0-.57c.25 0 .47-.06.67-.18q.285-.18.45-.51c.11-.22.17-.47.17-.75s-.05-.53-.17-.75a1.2 1.2 0 0 0-.46-.51c-.2-.12-.42-.18-.68-.18s-.47.06-.67.18-.34.29-.46.51c-.11.22-.17.47-.17.75s.05.53.17.75c.11.22.26.39.46.51s.42.18.67.18Z" fill="#fffcef" data-color="1"/>
        <path d="M118.43 64.95c-.34 0-.65-.08-.91-.25s-.47-.41-.61-.71c-.15-.3-.22-.66-.22-1.05s.07-.75.22-1.05.35-.54.61-.71.56-.25.91-.25c.32 0 .61.08.85.25s.43.41.57.71.2.65.2 1.05-.07.75-.2 1.05c-.13.31-.32.54-.57.71-.24.17-.53.25-.85.25m.14-.56q.345 0 .6-.18c.255-.18.31-.29.41-.52q.15-.33.15-.75c0-.42-.05-.53-.15-.75s-.24-.39-.41-.52-.38-.18-.61-.18-.46.06-.64.18-.33.29-.44.52c-.11.22-.16.47-.16.75s.05.53.16.75.26.39.45.52c.19.12.41.18.65.18Zm1.19.47-.03-.72v-4.67h.62v5.39z" fill="#fffcef" data-color="1"/>
        <path d="M123.11 64.95c-.38 0-.71-.09-.99-.26-.29-.17-.51-.41-.67-.71q-.24-.45-.24-1.05c0-.6.08-.74.24-1.05.16-.3.38-.54.67-.71.28-.17.61-.26.98-.26s.67.09.93.27.46.42.61.74.22.69.22 1.12h-3.18l.15-.13c0 .31.05.57.17.79s.27.39.47.5c.2.12.43.17.69.17.27 0 .5-.06.69-.19s.33-.3.43-.51l.53.27c-.1.2-.23.37-.39.52s-.35.26-.57.35c-.22.08-.46.12-.73.12Zm-1.25-2.29-.16-.12h2.66l-.16.13c0-.25-.05-.46-.15-.64q-.15-.27-.39-.42c-.17-.1-.35-.15-.57-.15s-.41.05-.6.15-.34.23-.45.41c-.12.18-.17.39-.17.63Z" fill="#fffcef" data-color="1"/>
        <path d="M127.53 64.86v-3.85h.62v3.85zm.34-2.09c0-.42.08-.75.24-1.01s.36-.45.61-.58c.25-.12.51-.19.79-.19v.58c-.23 0-.44.04-.65.11s-.38.2-.51.37-.2.4-.2.69z" fill="#fffcef" data-color="1"/>
        <path d="M131.35 64.95c-.45 0-.8-.1-1.06-.31-.25-.21-.38-.5-.38-.87q0-.585.39-.9c.26-.21.62-.31 1.09-.31h1.1v.52h-.96c-.36 0-.61.06-.77.18a.62.62 0 0 0-.23.51c0 .2.07.36.22.47.15.12.36.17.62.17.22 0 .41-.05.58-.14.16-.09.29-.23.38-.41s.13-.39.13-.63h.26c0 .52-.12.94-.35 1.25s-.58.47-1.03.47Zm1.15-.09-.03-.63v-1.4c0-.3-.03-.55-.1-.75s-.17-.35-.32-.45-.33-.15-.56-.15c-.21 0-.39.04-.54.13s-.28.22-.37.4l-.55-.22c.1-.18.21-.33.35-.47s.3-.23.49-.3.4-.1.63-.1c.36 0 .66.07.89.21s.41.35.53.62.17.61.17 1.02v2.09h-.58Z" fill="#fffcef" data-color="1"/>
        <path d="M135.58 64.95c-.34 0-.65-.08-.91-.25s-.47-.41-.61-.71c-.15-.3-.22-.66-.22-1.05s.07-.75.22-1.05.35-.54.61-.71.56-.25.91-.25c.32 0 .61.08.85.25s.43.41.57.71.2.65.2 1.05-.07.75-.2 1.05c-.13.31-.32.54-.57.71-.24.17-.53.25-.85.25m.13-.56q.345 0 .6-.18c.255-.18.31-.29.41-.52q.15-.33.15-.75c0-.42-.05-.53-.15-.75s-.24-.39-.41-.52-.38-.18-.61-.18-.46.06-.64.18-.33.29-.44.52c-.11.22-.16.47-.16.75s.05.53.16.75.26.39.45.52c.19.12.41.18.65.18Zm1.2.47-.03-.72v-4.67h.62v5.39z" fill="#fffcef" data-color="1"/>
        <path d="M138.92 60.12q-.15 0-.27-.12c-.12-.12-.12-.17-.12-.27s.04-.2.12-.27.17-.11.27-.11.2.04.27.11.11.17.11.27-.04.19-.11.27q-.12.12-.27.12m-.31 4.74v-3.85h.62v3.85z" fill="#fffcef" data-color="1"/>
        <path d="M142.07 64.95c-.38 0-.72-.09-1.01-.26s-.52-.41-.68-.71c-.17-.3-.25-.65-.25-1.05s.08-.74.24-1.05c.16-.3.39-.54.68-.71s.63-.26 1-.26.7.08.99.25.52.41.67.72l-.56.25q-.15-.315-.45-.48c-.2-.12-.42-.17-.67-.17s-.47.06-.67.18-.34.29-.46.51c-.11.22-.17.47-.17.75s.05.53.17.75c.11.22.26.39.46.51s.42.18.67.18.48-.06.67-.19q.3-.195.45-.54l.56.25c-.15.33-.38.58-.67.77-.29.18-.63.28-1 .28Z" fill="#fffcef" data-color="1"/>
        <path d="M145.74 64.95c-.45 0-.8-.1-1.06-.31-.25-.21-.38-.5-.38-.87q0-.585.39-.9c.26-.21.62-.31 1.09-.31h1.1v.52h-.96c-.36 0-.61.06-.77.18a.62.62 0 0 0-.23.51c0 .2.07.36.22.47.15.12.36.17.62.17.22 0 .41-.05.58-.14.16-.09.29-.23.38-.41s.13-.39.13-.63h.26c0 .52-.12.94-.35 1.25s-.58.47-1.03.47Zm1.15-.09-.03-.63v-1.4c0-.3-.03-.55-.1-.75s-.17-.35-.32-.45-.33-.15-.56-.15c-.21 0-.39.04-.54.13s-.28.22-.37.4l-.55-.22c.1-.18.21-.33.35-.47s.3-.23.49-.3.4-.1.63-.1c.36 0 .66.07.89.21s.41.35.53.62.17.61.17 1.02v2.09h-.58Z" fill="#fffcef" data-color="1"/>
        <path d="M148.8 60.12q-.15 0-.27-.12c-.12-.12-.12-.17-.12-.27s.04-.2.12-.27.17-.11.27-.11.2.04.27.11.11.17.11.27-.04.19-.11.27q-.12.12-.27.12m-.31 4.74v-3.85h.62v3.85z" fill="#fffcef" data-color="1"/>
        <path d="M151.58 64.95c-.28 0-.53-.04-.74-.13-.21-.08-.39-.2-.53-.33q-.21-.21-.3-.45l.54-.22c.09.17.22.32.39.42.17.11.37.16.58.16.24 0 .44-.05.61-.14a.45.45 0 0 0 .25-.4c0-.16-.06-.29-.18-.38q-.18-.15-.54-.24l-.37-.1c-.35-.09-.62-.23-.82-.42-.19-.19-.29-.4-.29-.63 0-.36.12-.65.36-.85s.59-.3 1.07-.3c.23 0 .43.03.62.1.18.07.34.16.48.28.13.12.23.26.29.43l-.54.24a.73.73 0 0 0-.33-.38 1.2 1.2 0 0 0-.56-.12c-.24 0-.42.05-.55.15s-.2.24-.2.42c0 .1.06.2.17.29s.27.16.49.22l.38.1q.375.09.63.27c.17.12.3.26.39.41s.13.32.13.49c0 .23-.06.43-.19.6-.12.17-.29.3-.5.39s-.45.13-.72.13Z" fill="#fffcef" data-color="1"/>
        <path d="M155.72 64.86v-5.39h.62v5.39z" fill="#fffcef" data-color="1"/>
        <path d="M157.77 60.12q-.15 0-.27-.12c-.12-.12-.12-.17-.12-.27s.04-.2.12-.27.17-.11.27-.11.2.04.27.11.11.17.11.27-.04.19-.11.27q-.12.12-.27.12m-.31 4.74v-3.85h.62v3.85z" fill="#fffcef" data-color="1"/>
        <path d="m160.34 64.86-1.61-3.85h.64l1.57 3.85zm.04 0 1.57-3.85h.65l-1.61 3.85z" fill="#fffcef" data-color="1"/>
        <path d="M163.21 64.86v-3.85h.62v3.85zm.34-2.09c0-.42.08-.75.24-1.01s.36-.45.61-.58c.25-.12.51-.19.79-.19v.58c-.23 0-.44.04-.65.11s-.38.2-.51.37-.2.4-.2.69z" fill="#fffcef" data-color="1"/>
        <path d="M167.5 64.95c-.38 0-.71-.09-.99-.26-.29-.17-.51-.41-.67-.71q-.24-.45-.24-1.05c0-.6.08-.74.24-1.05.16-.3.38-.54.67-.71.28-.17.61-.26.98-.26s.67.09.93.27.46.42.61.74.22.69.22 1.12h-3.18l.15-.13c0 .31.05.57.17.79s.27.39.47.5c.2.12.43.17.69.17.27 0 .5-.06.69-.19s.33-.3.43-.51l.53.27c-.1.2-.23.37-.39.52s-.35.26-.57.35c-.22.08-.46.12-.73.12Zm-1.25-2.29-.16-.12h2.66l-.16.13c0-.25-.05-.46-.15-.64q-.15-.27-.39-.42c-.17-.1-.35-.15-.57-.15s-.41.05-.6.15-.34.23-.45.41c-.12.18-.17.39-.17.63Z" fill="#fffcef" data-color="1"/>
        <path d="M171.36 64.95c-.28 0-.53-.04-.74-.13-.21-.08-.39-.2-.53-.33q-.21-.21-.3-.45l.54-.22c.09.17.22.32.39.42.17.11.37.16.58.16.24 0 .44-.05.61-.14a.45.45 0 0 0 .25-.4c0-.16-.06-.29-.18-.38q-.18-.15-.54-.24l-.37-.1c-.35-.09-.62-.23-.82-.42-.19-.19-.29-.4-.29-.63 0-.36.12-.65.36-.85s.59-.3 1.07-.3c.23 0 .43.03.62.1.18.07.34.16.48.28.13.12.23.26.29.43l-.54.24a.73.73 0 0 0-.33-.38 1.2 1.2 0 0 0-.56-.12c-.24 0-.42.05-.55.15s-.2.24-.2.42c0 .1.06.2.17.29s.27.16.49.22l.38.1q.375.09.63.27c.17.12.3.26.39.41s.13.32.13.49c0 .23-.06.43-.19.6-.12.17-.29.3-.5.39s-.45.13-.72.13Z" fill="#fffcef" data-color="1"/>
        <path d="M177.19 64.95c-.38 0-.71-.09-.99-.26-.29-.17-.51-.41-.67-.71q-.24-.45-.24-1.05c0-.6.08-.74.24-1.05.16-.3.38-.54.67-.71.28-.17.61-.26.98-.26s.67.09.93.27.46.42.61.74.22.69.22 1.12h-3.18l.15-.13c0 .31.05.57.17.79s.27.39.47.5c.2.12.43.17.69.17.27 0 .5-.06.69-.19s.33-.3.43-.51l.53.27c-.1.2-.23.37-.39.52s-.35.26-.57.35c-.22.08-.46.12-.73.12Zm-1.25-2.29-.16-.12h2.66l-.16.13c0-.25-.05-.46-.15-.64q-.15-.27-.39-.42c-.17-.1-.35-.15-.57-.15s-.41.05-.6.15-.34.23-.45.41c-.12.18-.17.39-.17.63Z" fill="#fffcef" data-color="1"/>
        <path d="M181.65 66.4v-5.39h.58l.04.71v4.68zm1.92-1.45c-.32 0-.61-.08-.85-.25s-.43-.41-.57-.71c-.13-.3-.2-.66-.2-1.05s.07-.75.2-1.05.32-.54.57-.71c.24-.17.53-.25.85-.25.34 0 .65.08.91.25s.47.41.61.71.22.65.22 1.05-.07.75-.22 1.05c-.15.31-.35.54-.61.71s-.56.25-.91.25m-.14-.56c.24 0 .46-.06.64-.18s.34-.29.45-.51.17-.47.17-.76-.05-.53-.16-.75c-.1-.22-.25-.39-.44-.52s-.4-.18-.65-.18q-.345 0-.6.18-.27.18-.42.51c-.1.22-.15.47-.15.76s.05.53.15.75.24.39.41.52q.255.18.6.18" fill="#fffcef" data-color="1"/>
        <path d="M186.16 64.86v-3.85h.62v3.85zm.34-2.09c0-.42.08-.75.24-1.01s.36-.45.61-.58c.25-.12.51-.19.79-.19v.58c-.23 0-.44.04-.65.11s-.38.2-.51.37-.2.4-.2.69z" fill="#fffcef" data-color="1"/>
        <path d="M190.47 64.95c-.38 0-.71-.09-1-.26s-.52-.41-.68-.71c-.17-.3-.25-.65-.25-1.05s.08-.74.24-1.05c.16-.3.39-.54.68-.71s.62-.26 1-.26.71.09 1 .26.52.41.68.71q.24.45.24 1.05c0 .6-.08.74-.24 1.05-.16.3-.39.54-.67.71-.29.17-.62.26-.99.26Zm-.01-.57c.25 0 .47-.06.67-.18q.285-.18.45-.51c.11-.22.17-.47.17-.75s-.05-.53-.17-.75a1.2 1.2 0 0 0-.46-.51c-.2-.12-.42-.18-.68-.18s-.47.06-.67.18-.34.29-.46.51c-.11.22-.17.47-.17.75s.05.53.17.75c.11.22.26.39.46.51s.42.18.67.18Z" fill="#fffcef" data-color="1"/>
        <path d="M192.83 61.56v-.55h2.44v.55zm1.85 3.39c-.37 0-.67-.1-.87-.29-.21-.19-.31-.47-.31-.82v-4.03h.62v3.96c0 .2.05.35.16.45.11.11.25.16.44.16.06 0 .12 0 .18-.03.06-.02.14-.06.23-.13l.24.5a1.2 1.2 0 0 1-.69.23" fill="#fffcef" data-color="1"/>
        <path d="M197.8 64.95c-.38 0-.71-.09-.99-.26-.29-.17-.51-.41-.67-.71q-.24-.45-.24-1.05c0-.6.08-.74.24-1.05.16-.3.38-.54.67-.71.28-.17.61-.26.98-.26s.67.09.93.27.46.42.61.74.22.69.22 1.12h-3.18l.15-.13c0 .31.05.57.17.79s.27.39.47.5c.2.12.43.17.69.17.27 0 .5-.06.69-.19s.33-.3.43-.51l.53.27c-.1.2-.23.37-.39.52s-.35.26-.57.35c-.22.08-.46.12-.73.12Zm-1.24-2.29-.16-.12h2.66l-.16.13c0-.25-.05-.46-.15-.64q-.15-.27-.39-.42c-.17-.1-.35-.15-.57-.15s-.41.05-.6.15-.34.23-.45.41c-.12.18-.17.39-.17.63Z" fill="#fffcef" data-color="1"/>
        <path d="M201.84 64.83a1.64 1.64 0 0 1-1.52-.94c-.15-.3-.22-.63-.22-1.01s.07-.73.22-1.03c.15-.29.35-.52.61-.69s.56-.25.91-.25c.32 0 .61.08.85.25q.36.24.57.69c.14.3.2.64.2 1.03s-.07.72-.2 1.02c-.14.29-.32.52-.57.68-.24.17-.52.25-.85.25m.02 1.66c-.25 0-.47-.02-.67-.07s-.38-.1-.52-.16q-.21-.09-.3-.15l.23-.5c.07.04.16.08.29.13.12.05.27.1.43.14s.34.06.54.06c.25 0 .47-.05.67-.15s.35-.26.46-.47.17-.49.17-.82v-3.49h.62v3.48c0 .44-.08.81-.25 1.11s-.39.52-.68.67-.61.22-.98.22Zm.12-2.19c.23 0 .43-.06.6-.19.17-.12.31-.29.41-.5s.15-.46.15-.74-.05-.51-.15-.73c-.1-.21-.24-.38-.41-.5q-.255-.18-.6-.18c-.345 0-.46.06-.64.18-.19.12-.33.29-.44.5-.1.21-.16.46-.16.73s.05.53.16.74.26.38.44.5c.19.12.4.19.64.19" fill="#fffcef" data-color="1"/>
        <path d="M206.53 64.95c-.38 0-.71-.09-.99-.26-.29-.17-.51-.41-.67-.71q-.24-.45-.24-1.05c0-.6.08-.74.24-1.05.16-.3.38-.54.67-.71.28-.17.61-.26.98-.26s.67.09.93.27.46.42.61.74.22.69.22 1.12h-3.18l.15-.13c0 .31.05.57.17.79s.27.39.47.5c.2.12.43.17.69.17.27 0 .5-.06.69-.19s.33-.3.43-.51l.53.27c-.1.2-.23.37-.39.52s-.35.26-.57.35c-.22.08-.46.12-.73.12Zm-1.25-2.29-.16-.12h2.66l-.16.13c0-.25-.05-.46-.15-.64q-.15-.27-.39-.42c-.17-.1-.35-.15-.57-.15s-.41.05-.6.15-.34.23-.45.41c-.12.18-.17.39-.17.63Z" fill="#fffcef" data-color="1"/>
        <path d="M209.04 64.86v-3.85h.58l.04.71v3.14zm2.71-1.97c0-.38-.04-.67-.13-.87s-.21-.34-.36-.41-.33-.11-.52-.11c-.34 0-.6.12-.79.36s-.28.58-.28 1.01h-.3c0-.41.06-.75.18-1.05.12-.29.29-.52.52-.67s.5-.23.82-.23.57.06.79.18.4.31.52.57.19.61.18 1.03v.18h-.62Zm0 1.97v-1.97h.62v1.97z" fill="#fffcef" data-color="1"/>
        <path d="M214.86 64.95c-.34 0-.65-.08-.91-.25s-.47-.41-.61-.71c-.15-.3-.22-.66-.22-1.05s.07-.75.22-1.05.35-.54.61-.71.56-.25.91-.25c.32 0 .61.08.85.25s.43.41.57.71.2.65.2 1.05-.07.75-.2 1.05c-.13.31-.32.54-.57.71-.24.17-.53.25-.85.25m.14-.56q.345 0 .6-.18c.255-.18.31-.29.41-.52q.15-.33.15-.75c0-.42-.05-.53-.15-.75s-.24-.39-.41-.52-.38-.18-.61-.18-.46.06-.64.18-.33.29-.44.52c-.11.22-.16.47-.16.75s.05.53.16.75.26.39.45.52c.19.12.41.18.65.18Zm1.19.47-.03-.72v-4.67h.62v5.39z" fill="#fffcef" data-color="1"/>
        <path d="M219.56 64.95c-.38 0-.71-.09-1-.26s-.52-.41-.68-.71c-.17-.3-.25-.65-.25-1.05s.08-.74.24-1.05c.16-.3.39-.54.68-.71s.62-.26 1-.26.71.09 1 .26.52.41.68.71q.24.45.24 1.05c0 .6-.08.74-.24 1.05-.16.3-.39.54-.67.71-.29.17-.62.26-.99.26Zm-.01-.57c.25 0 .47-.06.67-.18q.285-.18.45-.51c.11-.22.17-.47.17-.75s-.05-.53-.17-.75a1.2 1.2 0 0 0-.46-.51c-.2-.12-.42-.18-.68-.18s-.47.06-.67.18-.34.29-.46.51c-.11.22-.17.47-.17.75s.05.53.17.75c.11.22.26.39.46.51s.42.18.67.18Z" fill="#fffcef" data-color="1"/>
        <path d="M83.81 73.65c-.38 0-.72-.09-1.01-.26s-.52-.41-.68-.71c-.17-.3-.25-.65-.25-1.05s.08-.74.24-1.05c.16-.3.39-.54.68-.71s.63-.26 1-.26.7.08.99.25.52.41.67.72l-.56.25q-.15-.315-.45-.48c-.2-.12-.42-.17-.67-.17s-.47.06-.67.18-.34.29-.46.51c-.11.22-.17.47-.17.75s.05.53.17.75c.11.22.26.39.46.51s.42.18.67.18.48-.06.67-.19q.3-.195.45-.54l.56.25c-.15.33-.38.58-.67.77-.29.18-.63.28-1 .28Z" fill="#fffcef" data-color="1"/>
        <path d="M87.97 73.65c-.38 0-.71-.09-1-.26s-.52-.41-.68-.71c-.17-.3-.25-.65-.25-1.05s.08-.74.24-1.05c.16-.3.39-.54.68-.71s.62-.26 1-.26.71.09 1 .26.52.41.68.71q.24.45.24 1.05c0 .6-.08.74-.24 1.05-.16.3-.39.54-.67.71-.29.17-.62.26-.99.26Zm-.01-.57c.25 0 .47-.06.67-.18q.285-.18.45-.51c.11-.22.17-.47.17-.75s-.05-.53-.17-.75a1.2 1.2 0 0 0-.46-.51c-.2-.12-.42-.18-.68-.18s-.47.06-.67.18-.34.29-.46.51c-.11.22-.17.47-.17.75s.05.53.17.75c.11.22.26.39.46.51s.42.18.67.18Z" fill="#fffcef" data-color="1"/>
        <path d="M90.73 73.56v-3.85h.58l.04.71v3.14zm2.7-1.97c0-.38-.04-.67-.13-.87s-.21-.34-.36-.41-.33-.11-.52-.11c-.34 0-.6.12-.79.36s-.28.58-.28 1.01h-.3c0-.41.06-.75.18-1.05.12-.29.29-.52.52-.67s.5-.23.82-.23.57.06.79.18.4.31.52.57.19.61.18 1.03v.18h-.62Zm0 1.97v-1.97h.62v1.97z" fill="#fffcef" data-color="1"/>
        <path d="M94.62 70.26v-.55h2.44v.55zm1.85 3.39c-.37 0-.67-.1-.87-.29-.21-.19-.31-.47-.31-.82v-4.03h.62v3.96c0 .2.05.35.16.45.11.11.25.16.44.16.06 0 .12 0 .18-.03.06-.02.14-.06.23-.13l.24.5a1.2 1.2 0 0 1-.69.23" fill="#fffcef" data-color="1"/>
        <path d="M97.93 73.56v-3.85h.62v3.85zm.34-2.09c0-.42.08-.75.24-1.01s.36-.45.61-.58c.25-.12.51-.19.79-.19v.58c-.23 0-.44.04-.65.11s-.38.2-.51.37-.2.4-.2.69z" fill="#fffcef" data-color="1"/>
        <path d="M101.75 73.65c-.45 0-.8-.1-1.06-.31-.25-.21-.38-.5-.38-.87q0-.585.39-.9c.26-.21.62-.31 1.09-.31h1.1v.52h-.96c-.36 0-.61.06-.77.18a.62.62 0 0 0-.23.51c0 .2.07.36.22.47.15.12.36.17.62.17.22 0 .41-.05.58-.14.16-.09.29-.23.38-.41s.13-.39.13-.63h.26c0 .52-.12.94-.35 1.25s-.58.47-1.03.47Zm1.16-.09-.03-.63v-1.4c0-.3-.03-.55-.1-.75s-.17-.35-.32-.45-.33-.15-.56-.15c-.21 0-.39.04-.54.13s-.28.22-.37.4l-.55-.22c.1-.18.21-.33.35-.47s.3-.23.49-.3.4-.1.63-.1c.36 0 .66.07.89.21s.41.35.53.62.17.61.17 1.02v2.09h-.58Z" fill="#fffcef" data-color="1"/>
        <path d="M108.07 73.65c-.38 0-.71-.09-1-.26s-.52-.41-.68-.71c-.17-.3-.25-.65-.25-1.05s.08-.74.24-1.05c.16-.3.39-.54.68-.71s.62-.26 1-.26.71.09 1 .26.52.41.68.71q.24.45.24 1.05c0 .6-.08.74-.24 1.05-.16.3-.39.54-.67.71-.29.17-.62.26-.99.26Zm0-.57c.25 0 .47-.06.67-.18q.285-.18.45-.51c.11-.22.17-.47.17-.75s-.05-.53-.17-.75a1.2 1.2 0 0 0-.46-.51c-.2-.12-.42-.18-.68-.18s-.47.06-.67.18-.34.29-.46.51c-.11.22-.17.47-.17.75s.05.53.17.75c.11.22.26.39.46.51s.42.18.67.18Z" fill="#fffcef" data-color="1"/>
        <path d="M114.42 73.65c-.38 0-.71-.09-.99-.26-.29-.17-.51-.41-.67-.71q-.24-.45-.24-1.05c0-.6.08-.74.24-1.05.16-.3.38-.54.67-.71.28-.17.61-.26.98-.26s.67.09.93.27.46.42.61.74.22.69.22 1.12h-3.18l.15-.13c0 .31.05.57.17.79s.27.39.47.5c.2.12.43.17.69.17.27 0 .5-.06.69-.19s.33-.3.43-.51l.53.27c-.1.2-.23.37-.39.52s-.35.26-.57.35c-.22.08-.46.12-.73.12Zm-1.25-2.29-.16-.12h2.66l-.16.13c0-.25-.05-.46-.15-.64q-.15-.27-.39-.42c-.17-.1-.35-.15-.57-.15s-.41.05-.6.15-.34.23-.45.41c-.12.18-.17.39-.17.63Z" fill="#fffcef" data-color="1"/>
        <path d="M116.94 73.56v-3.85h.58l.04.71v3.14zm2.7-1.97c0-.38-.04-.67-.13-.87s-.21-.34-.36-.41-.33-.11-.52-.11c-.34 0-.6.12-.79.36s-.28.58-.28 1.01h-.3c0-.41.06-.75.18-1.05.12-.29.29-.52.52-.67s.5-.23.82-.23.57.06.79.18.4.31.52.57.19.61.18 1.03v.18h-.62Zm0 1.97v-1.97h.62v1.97z" fill="#fffcef" data-color="1"/>
        <path d="m122.31 73.56-1.61-3.85h.64l1.57 3.85zm.04 0 1.57-3.85h.65l-1.61 3.85z" fill="#fffcef" data-color="1"/>
        <path d="M126.77 73.65c-.38 0-.71-.09-.99-.26-.29-.17-.51-.41-.67-.71q-.24-.45-.24-1.05c0-.6.08-.74.24-1.05.16-.3.38-.54.67-.71.28-.17.61-.26.98-.26s.67.09.93.27.46.42.61.74.22.69.22 1.12h-3.18l.15-.13c0 .31.05.57.17.79s.27.39.47.5c.2.12.43.17.69.17.27 0 .5-.06.69-.19s.33-.3.43-.51l.53.27c-.1.2-.23.37-.39.52s-.35.26-.57.35c-.22.08-.46.12-.73.12Zm-1.25-2.29-.16-.12h2.66l-.16.13c0-.25-.05-.46-.15-.64q-.15-.27-.39-.42c-.17-.1-.35-.15-.57-.15s-.41.05-.6.15-.34.23-.45.41c-.12.18-.17.39-.17.63Z" fill="#fffcef" data-color="1"/>
        <path d="M129.29 73.56v-5.39h.62v5.39z" fill="#fffcef" data-color="1"/>
        <path d="M130.98 73.56v-5.39h.62v5.39zm2.71-1.97c0-.38-.04-.67-.13-.87s-.21-.34-.37-.41-.33-.11-.52-.11c-.34 0-.6.12-.79.36s-.28.58-.28 1.01h-.3c0-.41.06-.75.18-1.05.12-.29.29-.52.52-.67s.5-.23.82-.23c.3 0 .56.06.79.18s.4.31.53.57.19.61.18 1.03v.18h-.62Zm0 1.97v-1.97h.62v1.97z" fill="#fffcef" data-color="1"/>
        <path d="M136.96 73.65c-.38 0-.71-.09-.99-.26-.29-.17-.51-.41-.67-.71q-.24-.45-.24-1.05c0-.6.08-.74.24-1.05.16-.3.38-.54.67-.71.28-.17.61-.26.98-.26s.67.09.93.27.46.42.61.74.22.69.22 1.12h-3.18l.15-.13c0 .31.05.57.17.79s.27.39.47.5c.2.12.43.17.69.17.27 0 .5-.06.69-.19s.33-.3.43-.51l.53.27c-.1.2-.23.37-.39.52s-.35.26-.57.35c-.22.08-.46.12-.73.12Zm-1.24-2.29-.16-.12h2.66l-.16.13c0-.25-.05-.46-.15-.64q-.15-.27-.39-.42c-.17-.1-.35-.15-.57-.15s-.41.05-.6.15-.34.23-.45.41c-.12.18-.17.39-.17.63Z" fill="#fffcef" data-color="1"/>
        <path d="M141.2 73.65c-.38 0-.72-.09-1.01-.26s-.52-.41-.68-.71c-.17-.3-.25-.65-.25-1.05s.08-.74.24-1.05c.16-.3.39-.54.68-.71s.63-.26 1-.26.7.08.99.25.52.41.67.72l-.56.25q-.15-.315-.45-.48c-.2-.12-.42-.17-.67-.17s-.47.06-.67.18-.34.29-.46.51c-.11.22-.17.47-.17.75s.05.53.17.75c.11.22.26.39.46.51s.42.18.67.18.48-.06.67-.19q.3-.195.45-.54l.56.25c-.15.33-.38.58-.67.77-.29.18-.63.28-1 .28Z" fill="#fffcef" data-color="1"/>
        <path d="M144 68.82q-.15 0-.27-.12c-.12-.12-.12-.17-.12-.27s.04-.2.12-.27.17-.11.27-.11.2.04.27.11.11.17.11.27-.04.19-.11.27q-.12.12-.27.12m-.31 4.74v-3.85h.62v3.85z" fill="#fffcef" data-color="1"/>
        <path d="M145.43 73.56v-3.85h.58l.03.54c.12-.21.27-.36.45-.47s.4-.16.65-.16c.31 0 .57.07.79.22.22.14.38.36.47.65.11-.28.27-.5.47-.65.21-.15.46-.22.74-.22.43 0 .77.14 1.02.43s.37.72.37 1.31v2.2h-.62v-1.97q0-.57-.12-.87c-.08-.2-.19-.34-.32-.41a1 1 0 0 0-.46-.11c-.3 0-.54.12-.71.36s-.25.58-.25 1.01v1.99h-.62v-1.97q0-.57-.12-.87c-.08-.2-.19-.34-.32-.41-.14-.07-.29-.11-.47-.11-.3 0-.53.12-.7.36s-.25.58-.25 1.01v1.99h-.62Z" fill="#fffcef" data-color="1"/>
        <path d="M153.67 73.65c-.38 0-.71-.09-.99-.26-.29-.17-.51-.41-.67-.71q-.24-.45-.24-1.05c0-.6.08-.74.24-1.05.16-.3.38-.54.67-.71.28-.17.61-.26.98-.26s.67.09.93.27.46.42.61.74.22.69.22 1.12h-3.18l.15-.13c0 .31.05.57.17.79s.27.39.47.5c.2.12.43.17.69.17.27 0 .5-.06.69-.19s.33-.3.43-.51l.53.27c-.1.2-.23.37-.39.52s-.35.26-.57.35c-.22.08-.46.12-.73.12Zm-1.25-2.29-.16-.12h2.66l-.16.13c0-.25-.05-.46-.15-.64q-.15-.27-.39-.42c-.17-.1-.35-.15-.57-.15s-.41.05-.6.15-.34.23-.45.41c-.12.18-.17.39-.17.63Z" fill="#fffcef" data-color="1"/>
        <path d="M156.19 73.56v-3.85h.58l.04.71v3.14zm2.7-1.97c0-.38-.04-.67-.13-.87s-.21-.34-.36-.41-.33-.11-.52-.11c-.34 0-.6.12-.79.36s-.28.58-.28 1.01h-.3c0-.41.06-.75.18-1.05.12-.29.29-.52.52-.67s.5-.23.82-.23.57.06.79.18.4.31.52.57.19.61.18 1.03v.18h-.62Zm0 1.97v-1.97h.62v1.97z" fill="#fffcef" data-color="1"/>
        <path d="M160.09 70.26v-.55h2.44v.55zm1.84 3.39c-.37 0-.67-.1-.87-.29-.21-.19-.31-.47-.31-.82v-4.03h.62v3.96c0 .2.05.35.16.45.11.11.25.16.44.16.06 0 .12 0 .18-.03.06-.02.14-.06.23-.13l.24.5a1.2 1.2 0 0 1-.69.23" fill="#fffcef" data-color="1"/>
        <path d="M165.08 73.65c-.38 0-.71-.09-1-.26s-.52-.41-.68-.71c-.17-.3-.25-.65-.25-1.05s.08-.74.24-1.05c.16-.3.39-.54.68-.71s.62-.26 1-.26.71.09 1 .26.52.41.68.71q.24.45.24 1.05c0 .6-.08.74-.24 1.05-.16.3-.39.54-.67.71-.29.17-.62.26-.99.26Zm0-.57c.25 0 .47-.06.67-.18q.285-.18.45-.51c.11-.22.17-.47.17-.75s-.05-.53-.17-.75a1.2 1.2 0 0 0-.46-.51c-.2-.12-.42-.18-.68-.18s-.47.06-.67.18-.34.29-.46.51c-.11.22-.17.47-.17.75s.05.53.17.75c.11.22.26.39.46.51s.42.18.67.18Z" fill="#fffcef" data-color="1"/>
        <path d="M169.78 75.1v-5.39h.58l.04.71v4.68zm1.92-1.45c-.32 0-.61-.08-.85-.25s-.43-.41-.57-.71c-.13-.3-.2-.66-.2-1.05s.07-.75.2-1.05.32-.54.57-.71c.24-.17.53-.25.85-.25.34 0 .65.08.91.25s.47.41.61.71.22.65.22 1.05-.07.75-.22 1.05c-.15.31-.35.54-.61.71s-.56.25-.91.25m-.14-.56c.24 0 .46-.06.64-.18s.34-.29.45-.51.17-.47.17-.76-.05-.53-.16-.75c-.1-.22-.25-.39-.44-.52s-.4-.18-.65-.18q-.345 0-.6.18-.27.18-.42.51c-.1.22-.15.47-.15.76s.05.53.15.75.24.39.41.52q.255.18.6.18" fill="#fffcef" data-color="1"/>
        <path d="M174.29 73.56v-3.85h.62v3.85zm.34-2.09c0-.42.08-.75.24-1.01s.36-.45.61-.58c.25-.12.51-.19.79-.19v.58c-.23 0-.44.04-.65.11s-.38.2-.51.37-.2.4-.2.69z" fill="#fffcef" data-color="1"/>
        <path d="M178.58 73.65c-.38 0-.71-.09-.99-.26-.29-.17-.51-.41-.67-.71q-.24-.45-.24-1.05c0-.6.08-.74.24-1.05.16-.3.38-.54.67-.71.28-.17.61-.26.98-.26s.67.09.93.27.46.42.61.74.22.69.22 1.12h-3.18l.15-.13c0 .31.05.57.17.79s.27.39.47.5c.2.12.43.17.69.17.27 0 .5-.06.69-.19s.33-.3.43-.51l.53.27c-.1.2-.23.37-.39.52s-.35.26-.57.35c-.22.08-.46.12-.73.12Zm-1.25-2.29-.16-.12h2.66l-.16.13c0-.25-.05-.46-.15-.64q-.15-.27-.39-.42c-.17-.1-.35-.15-.57-.15s-.41.05-.6.15-.34.23-.45.41c-.12.18-.17.39-.17.63Z" fill="#fffcef" data-color="1"/>
        <path d="M182.82 73.65c-.38 0-.72-.09-1.01-.26s-.52-.41-.68-.71c-.17-.3-.25-.65-.25-1.05s.08-.74.24-1.05c.16-.3.39-.54.68-.71s.63-.26 1-.26.7.08.99.25.52.41.67.72l-.56.25q-.15-.315-.45-.48c-.2-.12-.42-.17-.67-.17s-.47.06-.67.18-.34.29-.46.51c-.11.22-.17.47-.17.75s.05.53.17.75c.11.22.26.39.46.51s.42.18.67.18.48-.06.67-.19q.3-.195.45-.54l.56.25c-.15.33-.38.58-.67.77-.29.18-.63.28-1 .28Z" fill="#fffcef" data-color="1"/>
        <path d="M186.97 73.65c-.38 0-.71-.09-1-.26s-.52-.41-.68-.71c-.17-.3-.25-.65-.25-1.05s.08-.74.24-1.05c.16-.3.39-.54.68-.71s.62-.26 1-.26.71.09 1 .26.52.41.68.71q.24.45.24 1.05c0 .6-.08.74-.24 1.05-.16.3-.39.54-.67.71-.29.17-.62.26-.99.26Zm0-.57c.25 0 .47-.06.67-.18q.285-.18.45-.51c.11-.22.17-.47.17-.75s-.05-.53-.17-.75a1.2 1.2 0 0 0-.46-.51c-.2-.12-.42-.18-.68-.18s-.47.06-.67.18-.34.29-.46.51c-.11.22-.17.47-.17.75s.05.53.17.75c.11.22.26.39.46.51s.42.18.67.18Z" fill="#fffcef" data-color="1"/>
        <path d="M191.45 73.65c-.38 0-.72-.09-1.01-.26s-.52-.41-.68-.71c-.17-.3-.25-.65-.25-1.05s.08-.74.24-1.05c.16-.3.39-.54.68-.71s.63-.26 1-.26.7.08.99.25.52.41.67.72l-.56.25q-.15-.315-.45-.48c-.2-.12-.42-.17-.67-.17s-.47.06-.67.18-.34.29-.46.51c-.11.22-.17.47-.17.75s.05.53.17.75c.11.22.26.39.46.51s.42.18.67.18.48-.06.67-.19q.3-.195.45-.54l.56.25c-.15.33-.38.58-.67.77-.29.18-.63.28-1 .28Z" fill="#fffcef" data-color="1"/>
        <path d="M195.58 73.65c-.38 0-.71-.09-.99-.26-.29-.17-.51-.41-.67-.71q-.24-.45-.24-1.05c0-.6.08-.74.24-1.05.16-.3.38-.54.67-.71.28-.17.61-.26.98-.26s.67.09.93.27.46.42.61.74.22.69.22 1.12h-3.18l.15-.13c0 .31.05.57.17.79s.27.39.47.5c.2.12.43.17.69.17.27 0 .5-.06.69-.19s.33-.3.43-.51l.53.27c-.1.2-.23.37-.39.52s-.35.26-.57.35c-.22.08-.46.12-.73.12Zm-1.24-2.29-.16-.12h2.66l-.16.13c0-.25-.05-.46-.15-.64q-.15-.27-.39-.42c-.17-.1-.35-.15-.57-.15s-.41.05-.6.15-.34.23-.45.41c-.12.18-.17.39-.17.63Z" fill="#fffcef" data-color="1"/>
        <path d="M198.36 73.67c-.12 0-.22-.04-.3-.13s-.13-.18-.13-.3.04-.22.13-.3c.08-.08.19-.13.3-.13s.22.04.3.13c.08.08.12.19.12.3s-.04.21-.12.3c-.08.08-.18.13-.3.13" fill="#fffcef" data-color="1"/>
        <path fill="#fffcef" d="M71.17 46.78c0 15.215-12.335 27.55-27.55 27.55S16.07 61.995 16.07 46.78s12.335-27.55 27.55-27.55 27.55 12.335 27.55 27.55" data-color="1"/>
        <path d="M29.73 54.04c-.7 0-1.39-.17-2.03-.5a4.36 4.36 0 0 1-2.16-2.58c-.35-1.12-.25-2.31.29-3.35a4.41 4.41 0 0 1 5.94-1.87 4.41 4.41 0 0 1 1.87 5.94 4.36 4.36 0 0 1-2.58 2.16c-.44.14-.88.21-1.33.21Zm.01-7.62a3.22 3.22 0 0 0-3.08 4.18 3.22 3.22 0 0 0 4.03 2.11 3.22 3.22 0 0 0 1.89-1.58c.82-1.57.21-3.52-1.37-4.34a3.14 3.14 0 0 0-1.48-.36Z" fill="#00578a" data-color="2"/>
        <path d="M47 64.05a3.83 3.83 0 0 1-3.66-2.68c-.31-.98-.22-2.02.26-2.93.47-.91 1.28-1.58 2.25-1.89.98-.31 2.02-.22 2.93.26.91.47 1.58 1.28 1.89 2.25.31.98.22 2.02-.26 2.93a3.87 3.87 0 0 1-3.42 2.07Zm.01-6.51a2.63 2.63 0 0 0-2.36 1.43c-.33.63-.39 1.35-.18 2.03s.68 1.23 1.31 1.56a2.665 2.665 0 0 0 3.77-3.16c-.21-.68-.68-1.23-1.31-1.56q-.585-.3-1.23-.3" fill="#00578a" data-color="2"/>
        <path d="M44.17 53.38c-.9 0-1.81-.21-2.66-.65-2.83-1.47-3.93-4.97-2.46-7.8a5.72 5.72 0 0 1 3.39-2.84c1.47-.47 3.04-.33 4.41.39 2.83 1.47 3.93 4.97 2.46 7.8a5.78 5.78 0 0 1-5.14 3.11ZM44.18 43a4.59 4.59 0 0 0-4.09 2.47 4.613 4.613 0 0 0 1.95 6.21c2.25 1.17 5.03.29 6.21-1.95 1.17-2.25.3-5.03-1.95-6.21a4.55 4.55 0 0 0-2.12-.52" fill="#00578a" data-color="2"/>
        <path d="M36.19 41.56c-.51 0-1.03-.12-1.52-.37a3.303 3.303 0 0 1-1.4-4.45c.41-.78 1.09-1.36 1.93-1.62.84-.27 1.73-.18 2.51.22 1.61.84 2.24 2.83 1.4 4.45a3.3 3.3 0 0 1-2.93 1.77Zm0-5.41c-.21 0-.43.03-.64.1-.54.17-.98.54-1.24 1.04a2.11 2.11 0 0 0 .9 2.85c1.03.54 2.31.13 2.85-.9a2.11 2.11 0 0 0-.9-2.85c-.31-.16-.64-.24-.97-.24" fill="#00578a" data-color="2"/>
        <path d="M51.1 38.45c-.71 0-1.41-.17-2.06-.51a4.43 4.43 0 0 1-2.2-2.62 4.473 4.473 0 0 1 6.33-5.31 4.473 4.473 0 0 1 1.9 6.03 4.43 4.43 0 0 1-2.62 2.2c-.44.14-.9.21-1.35.21m.01-7.77a3.29 3.29 0 0 0-3.14 4.28c.26.84.84 1.52 1.62 1.93s1.67.49 2.51.22a3.295 3.295 0 0 0 .53-6.06c-.48-.25-1-.37-1.51-.37Z" fill="#00578a" data-color="2"/>
        <path d="M58.08 51.57c-.6 0-1.22-.14-1.79-.44a3.9 3.9 0 0 1-1.65-5.25c.99-1.9 3.34-2.64 5.25-1.65a3.9 3.9 0 0 1 1.65 5.25 3.89 3.89 0 0 1-3.46 2.09m.01-6.6c-.98 0-1.92.53-2.41 1.46a2.71 2.71 0 0 0 1.15 3.65c1.33.69 2.96.17 3.65-1.15a2.712 2.712 0 0 0-2.4-3.96Z" fill="#00578a" data-color="2"/>
        <path d="M46.33 57.62c-.27 0-.51-.19-.58-.46l-1-4.37c-.07-.32.13-.64.44-.71.32-.08.64.13.71.44l1 4.37c.07.32-.13.64-.44.71-.04.01-.09.02-.13.02" fill="#00578a" data-color="2"/>
        <path d="M33.47 49.58c-.3 0-.56-.23-.59-.54-.03-.33.21-.61.54-.64l5.6-.5c.34-.04.61.21.64.54s-.21.61-.54.64l-5.6.5z" fill="#00578a" data-color="2"/>
        <path d="M46.53 43.56a.7.7 0 0 1-.27-.06.595.595 0 0 1-.26-.8l2.82-5.53c.15-.29.5-.41.79-.26s.41.5.26.8l-2.82 5.53c-.1.2-.31.32-.53.32Z" fill="#00578a" data-color="2"/>
        <path d="M40.8 44.24c-.17 0-.33-.07-.45-.21l-2.86-3.34a.596.596 0 0 1 .06-.83c.25-.21.62-.18.83.06l2.86 3.33c.21.25.18.62-.06.83-.11.1-.25.14-.38.14Z" fill="#00578a" data-color="2"/>
        <path d="m54.78 48.25-5.42-.03c-.33 0-.59-.27-.59-.59 0-.33.25-.55.59-.59l5.42.03a.591.591 0 0 1 0 1.18" fill="#00578a" data-color="2"/>
    </g>
</svg>
