<?xml version="1.0" encoding="UTF-8"?>
<svg data-bbox="27.63 11.95 193.7 62.23" viewBox="0 0 250 100" xmlns="http://www.w3.org/2000/svg" data-type="ugc">
    <g>
        <path d="M95.29 20.44a2.64 2.64 0 0 1-1.4-.39c-.2-.12-.36-.26-.49-.42a.95.95 0 0 1-.23-.5l1.42-.39q.075.195.24.33c.11.09.26.14.44.15.14 0 .27-.03.38-.12.11-.08.17-.19.17-.32 0-.09-.03-.17-.1-.25a.52.52 0 0 0-.3-.17l-.81-.21a1.9 1.9 0 0 1-.71-.33c-.2-.15-.35-.33-.45-.55-.11-.22-.16-.46-.16-.72 0-.53.18-.94.53-1.24s.85-.44 1.48-.44c.34 0 .64.04.9.13s.48.22.67.41.34.43.47.74l-1.41.41a.7.7 0 0 0-.2-.31c-.1-.1-.25-.15-.43-.15s-.31.04-.4.12-.14.19-.14.34q0 .135.12.24c.08.07.19.12.33.16l.82.21q.615.15.96.6c.23.3.35.64.35 1.03q0 .525-.24.9c-.16.25-.39.43-.7.56-.3.13-.67.19-1.09.19Z" fill="#fffcef"/>
        <path d="M98.03 20.35v-5.39h3.61v1.31h-2.19v.75h1.77v1.27h-1.77v.75h2.24v1.31h-3.67Z" fill="#fffcef"/>
        <path d="M102.54 20.35v-5.39h1.58l1.3 1.93 1.3-1.93h1.58v5.39h-1.42v-3.19l-1.45 2.11-1.46-2.11v3.19h-1.42Z" fill="#fffcef"/>
        <path d="M113.48 20.44c-.54 0-1.02-.12-1.43-.36s-.74-.57-.97-.99c-.24-.42-.35-.9-.35-1.44s.12-1.03.35-1.44.56-.75.97-.99.89-.36 1.43-.36c.42 0 .79.07 1.12.22.33.14.62.34.86.6s.43.55.55.89l-1.36.43c-.07-.17-.16-.32-.28-.44a1.2 1.2 0 0 0-.91-.39c-.25 0-.47.06-.67.19s-.35.3-.46.52-.17.48-.17.77.06.54.17.77c.11.22.27.4.47.52.2.13.42.19.68.19.2 0 .37-.03.52-.1s.27-.17.38-.29c.11-.13.2-.27.27-.44l1.36.43c-.12.34-.31.64-.55.9s-.53.46-.87.6-.72.22-1.13.22Z" fill="#fffcef"/>
        <path d="M119.22 20.44q-.84 0-1.5-.36c-.66-.36-.77-.57-1.02-.99s-.37-.9-.37-1.44.12-1.02.37-1.44.58-.75 1.02-.99c.43-.24.93-.36 1.49-.36s1.06.12 1.49.36q.645.36 1.02.99c.25.42.37.9.37 1.44s-.12 1.02-.37 1.44c-.24.42-.58.75-1.01.99s-.93.36-1.49.36m0-1.31c.28 0 .52-.06.73-.19s.38-.3.49-.52c.12-.22.18-.48.18-.76s-.06-.54-.18-.77c-.12-.22-.29-.4-.5-.52-.21-.13-.46-.19-.74-.19s-.51.06-.73.19c-.21.13-.38.3-.5.52s-.18.48-.18.77.06.54.18.76.29.39.5.52.46.19.74.19Z" fill="#fffcef"/>
        <path d="M122.74 20.35v-5.39h2.23c.41 0 .76.08 1.08.23.31.16.56.37.74.65.18.27.27.59.27.95s-.09.68-.27.96-.42.5-.74.65c-.31.16-.67.23-1.08.23h-.81v1.71h-1.42Zm1.43-3.02h.73c.13 0 .24-.02.34-.07s.17-.11.23-.19.08-.17.08-.28c0-.15-.06-.28-.18-.38a.72.72 0 0 0-.47-.15h-.73zm1.47 3.02-1.2-2.12 1.07-.8 1.76 2.92z" fill="#fffcef"/>
        <path d="m127.52 20.35 2.06-5.39H131l-1.97 5.39zm.97-.87v-1.26h3.73v1.26zm3.18.87-1.97-5.39h1.42l2.06 5.39z" fill="#fffcef"/>
        <path d="M133.69 20.35v-5.39h1.5l2.1 2.96v-2.96h1.43v5.39h-1.43l-2.18-3.07v3.07h-1.43Z" fill="#fffcef"/>
        <path d="M140.84 20.35v-4.08h-1.53v-1.31h4.47v1.31h-1.52v4.08z" fill="#fffcef"/>
        <path d="M144.37 20.35v-5.39h3.61v1.31h-2.19v.75h1.77v1.27h-1.77v.75h2.24v1.31h-3.67Z" fill="#fffcef"/>
        <path d="M150.77 20.44a2.64 2.64 0 0 1-1.4-.39c-.2-.12-.36-.26-.49-.42a.95.95 0 0 1-.23-.5l1.42-.39q.075.195.24.33c.11.09.26.14.44.15.14 0 .27-.03.38-.12.11-.08.16-.19.16-.32 0-.09-.03-.17-.1-.25a.52.52 0 0 0-.3-.17l-.81-.21a1.9 1.9 0 0 1-.71-.33c-.2-.15-.35-.33-.46-.55s-.16-.46-.16-.72c0-.53.18-.94.53-1.24s.85-.44 1.48-.44c.34 0 .64.04.9.13s.48.22.67.41.34.43.47.74l-1.41.41c-.03-.1-.09-.21-.2-.31s-.25-.15-.43-.15-.31.04-.4.12a.43.43 0 0 0-.14.34q0 .135.12.24c.08.07.19.12.33.16l.82.21q.615.15.96.6c.23.3.35.64.35 1.03q0 .525-.24.9c-.16.25-.39.43-.7.56s-.66.19-1.09.19Z" fill="#fffcef"/>
        <path d="M155.27 20.35v-5.39h3.61v1.31h-2.19v.75h1.77v1.27h-1.77v.75h2.24v1.31h-3.67Z" fill="#fffcef"/>
        <path d="m93 29.05 2.06-5.39h1.42l-1.97 5.39zm.97-.87v-1.26h3.73v1.26zm3.18.87-1.97-5.39h1.42l2.06 5.39z" fill="#fffcef"/>
        <path d="M99.17 29.05v-5.39h2.23c.41 0 .76.08 1.08.23.31.16.56.37.74.65.18.27.27.59.27.95s-.09.68-.27.96-.42.5-.74.65-.67.23-1.08.23h-.81v1.71h-1.42Zm1.43-3.02h.73c.13 0 .24-.02.34-.07s.17-.11.23-.19.08-.17.08-.28c0-.15-.06-.28-.18-.38a.72.72 0 0 0-.47-.15h-.73zm1.47 3.02-1.2-2.12 1.07-.8 1.76 2.92z" fill="#fffcef"/>
        <path d="M106.9 29.14q-.84 0-1.5-.36c-.66-.36-.77-.57-1.02-.99s-.37-.9-.37-1.44.12-1.02.37-1.44.58-.75 1.02-.99c.43-.24.93-.36 1.49-.36s1.06.12 1.49.36q.645.36 1.02.99c.25.42.37.9.37 1.44s-.12 1.02-.37 1.44c-.24.42-.58.75-1.01.99s-.93.36-1.49.36m0-1.31c.28 0 .52-.06.73-.19s.38-.3.49-.52c.12-.22.18-.48.18-.76s-.06-.54-.18-.77c-.12-.22-.29-.4-.5-.52-.21-.13-.46-.19-.74-.19s-.51.06-.73.19c-.21.13-.38.3-.5.52s-.18.48-.18.77.06.54.18.76.29.39.5.52.46.19.74.19Z" fill="#fffcef"/>
        <path d="M110.42 29.05v-5.39H112l1.3 1.93 1.3-1.93h1.58v5.39h-1.42v-3.19l-1.45 2.11-1.46-2.11v3.19h-1.42Z" fill="#fffcef"/>
        <path d="m116.69 29.05 2.06-5.39h1.42l-1.97 5.39zm.97-.87v-1.26h3.73v1.26zm3.18.87-1.97-5.39h1.42l2.06 5.39z" fill="#fffcef"/>
        <path d="M123.44 29.05v-4.08h-1.52v-1.31h4.47v1.31h-1.52v4.08h-1.42Z" fill="#fffcef"/>
        <path d="M126.98 29.05v-5.39h1.42v5.39z" fill="#fffcef"/>
        <path d="M129.1 29.05V27.7l2.48-2.69h-2.46v-1.35h4.32v1.35l-2.48 2.69h2.46v1.35z" fill="#fffcef"/>
        <path d="m133.72 29.05 2.06-5.39h1.42l-1.97 5.39zm.97-.87v-1.26h3.73v1.26zm3.18.87-1.97-5.39h1.42l2.06 5.39z" fill="#fffcef"/>
        <path d="M139.9 29.05v-5.39h1.5l2.1 2.96v-2.96h1.43v5.39h-1.43l-2.18-3.07v3.07h-1.43Z" fill="#fffcef"/>
        <path d="M147.04 29.05v-4.08h-1.53v-1.31h4.47v1.31h-1.52v4.08z" fill="#fffcef"/>
        <path d="M150.58 29.05v-5.39h3.61v1.31H152v.75h1.77v1.27H152v.75h2.24v1.31h-3.67Z" fill="#fffcef"/>
        <path d="M156.98 29.14a2.64 2.64 0 0 1-1.4-.39c-.2-.12-.36-.26-.49-.42a.95.95 0 0 1-.23-.5l1.42-.39q.075.195.24.33c.11.09.26.14.44.15.14 0 .27-.03.38-.12.11-.08.16-.19.16-.32 0-.09-.03-.17-.1-.25a.52.52 0 0 0-.3-.17l-.81-.21a1.9 1.9 0 0 1-.71-.33c-.2-.15-.35-.33-.46-.55s-.16-.46-.16-.72c0-.53.18-.94.53-1.24s.85-.44 1.48-.44c.34 0 .64.04.9.13s.48.22.67.41.34.43.47.74l-1.41.41c-.03-.1-.09-.21-.2-.31s-.25-.15-.43-.15-.31.04-.4.12a.43.43 0 0 0-.14.34q0 .135.12.24c.08.07.19.12.33.16l.82.21q.615.15.96.6c.23.3.35.64.35 1.03q0 .525-.24.9c-.16.25-.39.43-.7.56s-.66.19-1.09.19Z" fill="#fffcef"/>
        <path d="m161.07 29.05 2.06-5.39h1.42l-1.97 5.39zm.97-.87v-1.26h3.73v1.26zm3.18.87-1.97-5.39h1.42l2.06 5.39z" fill="#fffcef"/>
        <path d="M167.25 29.05v-5.39h2.23c.4 0 .76.08 1.08.23.31.16.56.37.73.65s.27.59.27.95-.09.68-.27.96-.42.5-.73.65c-.31.16-.67.23-1.08.23h-.81v1.71h-1.43Zm1.42-3.02h.73c.13 0 .24-.02.34-.07s.17-.11.23-.19.08-.17.08-.28c0-.15-.06-.28-.18-.38a.72.72 0 0 0-.47-.15h-.73zm1.47 3.02-1.2-2.12 1.07-.8 1.76 2.92z" fill="#fffcef"/>
        <path d="M173.39 29.05v-4.08h-1.53v-1.31h4.47v1.31h-1.52v4.08z" fill="#fffcef"/>
        <path d="M176.93 29.05v-5.39h1.43v5.39z" fill="#fffcef"/>
        <path d="M179.28 29.05v-5.39h3.69v1.31h-2.26v.79h1.77v1.31h-1.77v1.99h-1.42Z" fill="#fffcef"/>
        <path d="M183.62 29.05v-5.39h1.43v5.39z" fill="#fffcef"/>
        <path d="M188.46 29.14c-.54 0-1.02-.12-1.43-.36s-.74-.57-.97-.99c-.24-.42-.35-.9-.35-1.44s.12-1.03.35-1.44.56-.75.97-.99.89-.36 1.43-.36c.42 0 .79.07 1.12.22.33.14.62.34.86.6s.43.55.55.89l-1.36.43c-.07-.17-.16-.32-.28-.44a1.2 1.2 0 0 0-.91-.39c-.25 0-.47.06-.67.19s-.35.3-.46.52-.17.48-.17.77.06.54.17.77c.11.22.27.4.46.52.2.13.43.19.68.19.2 0 .37-.03.52-.1s.27-.17.38-.29c.11-.13.2-.27.27-.44l1.36.43c-.12.34-.3.64-.55.9q-.36.39-.87.6c-.34.14-.72.22-1.13.22Z" fill="#fffcef"/>
        <path d="M191.58 29.05v-5.39H193v5.39z" fill="#fffcef"/>
        <path d="m193.52 29.05 2.06-5.39H197l-1.97 5.39zm.97-.87v-1.26h3.73v1.26zm3.18.87-1.97-5.39h1.42l2.06 5.39z" fill="#fffcef"/>
        <path d="M199.7 29.05v-5.39h1.43v5.39z" fill="#fffcef"/>
        <path d="M203.93 29.14a2.64 2.64 0 0 1-1.4-.39c-.2-.12-.36-.26-.49-.42a.95.95 0 0 1-.23-.5l1.42-.39c.05.13.12.24.24.33.11.09.26.14.44.15.14 0 .27-.03.38-.12.11-.08.17-.19.17-.32 0-.09-.03-.17-.1-.25a.5.5 0 0 0-.3-.17l-.81-.21c-.28-.07-.52-.18-.71-.33s-.35-.33-.45-.55c-.11-.22-.16-.46-.16-.72 0-.53.18-.94.53-1.24s.85-.44 1.48-.44c.34 0 .64.04.9.13s.48.22.67.41.34.43.46.74l-1.41.41a.7.7 0 0 0-.2-.31c-.1-.1-.25-.15-.43-.15s-.31.04-.4.12c-.1.08-.14.19-.14.34q0 .135.12.24c.08.07.19.12.33.16l.82.21q.615.15.96.6c.345.45.35.64.35 1.03q0 .525-.24.9c-.16.25-.39.43-.7.56-.3.13-.67.19-1.09.19Z" fill="#fffcef"/>
        <path d="M93.66 37.75v-5.39h1.76c.35 0 .66.07.93.22s.48.34.63.6.23.55.23.89-.07.62-.21.88-.33.46-.57.6c-.24.15-.52.22-.84.22h-1.27v1.98h-.65Zm.65-2.58h1.27c.28 0 .51-.1.7-.31.18-.21.27-.47.27-.8s-.11-.6-.32-.81c-.22-.21-.49-.31-.82-.31h-1.09v2.23Z" fill="#fffcef"/>
        <path d="M99.57 37.84c-.38 0-.71-.09-1-.26s-.52-.41-.68-.71c-.17-.3-.25-.65-.25-1.05s.08-.74.24-1.05c.16-.3.39-.54.68-.71s.62-.26 1-.26.71.09 1 .26.52.41.68.71q.24.45.24 1.05c0 .6-.08.74-.24 1.05-.16.3-.39.54-.67.71-.29.17-.62.26-.99.26Zm-.01-.57c.25 0 .47-.06.67-.18q.285-.18.45-.51c.165-.33.17-.47.17-.75s-.05-.53-.17-.75-.26-.39-.46-.51-.42-.18-.68-.18-.47.06-.67.18c-.19.12-.34.29-.46.51-.11.22-.17.47-.17.75s.05.53.17.75.26.39.46.51.42.18.67.18Z" fill="#fffcef"/>
        <path d="M102.33 37.75V33.9h.62v3.85zm.34-2.09c0-.42.08-.75.24-1.01s.36-.45.61-.58.51-.19.79-.19v.58c-.23 0-.44.04-.65.11s-.38.2-.51.37-.2.4-.2.69z" fill="#fffcef"/>
        <path d="M106.45 37.84c-.34 0-.65-.08-.91-.25s-.47-.41-.61-.71c-.15-.31-.22-.66-.22-1.05s.07-.75.22-1.06c.15-.3.35-.54.61-.71s.56-.25.91-.25c.32 0 .61.08.85.25s.43.41.57.71c.13.3.2.65.2 1.06s-.07.75-.2 1.05c-.13.31-.32.54-.57.71-.24.17-.53.25-.85.25m.14-.56q.345 0 .6-.18c.17-.12.31-.3.41-.52q.15-.33.15-.75c0-.42-.05-.53-.15-.75s-.24-.39-.41-.52c-.17-.12-.38-.19-.61-.19s-.46.06-.64.19c-.19.12-.33.29-.44.52-.11.22-.16.47-.16.75s.05.53.16.75.26.39.45.52c.19.12.41.18.65.18Zm1.16 2.01v-4.67l.03-.72h.59v5.39z" fill="#fffcef"/>
        <path d="M109.28 35.87V33.9h.62v1.97zm.62 0c0 .38.04.67.13.87s.21.34.37.41.33.11.53.11q.495 0 .78-.36c.19-.24.28-.58.28-1.01h.3c0 .41-.06.75-.18 1.05s-.29.52-.51.67-.5.23-.82.23c-.3 0-.56-.06-.79-.18s-.4-.31-.52-.58c-.12-.26-.19-.61-.19-1.03v-.19h.62Zm2.12 1.88-.04-.71V33.9h.62v3.85z" fill="#fffcef"/>
        <path d="M115.37 37.84c-.38 0-.71-.09-.99-.26-.29-.17-.51-.41-.67-.71q-.24-.45-.24-1.05c0-.6.08-.74.24-1.05.16-.3.38-.54.67-.71.28-.17.61-.26.98-.26s.67.09.93.27.46.42.61.74.22.69.22 1.12h-3.18l.15-.13c0 .31.05.57.17.79s.27.39.47.5c.2.12.43.17.69.17.27 0 .5-.06.69-.19s.33-.3.43-.51l.53.27c-.1.2-.23.37-.39.52s-.35.26-.57.35c-.22.08-.46.12-.73.12Zm-1.25-2.3-.16-.12h2.66l-.16.13c0-.25-.05-.46-.15-.64q-.15-.27-.39-.42c-.17-.1-.35-.15-.57-.15s-.41.05-.6.15-.34.23-.45.41-.17.39-.17.64Z" fill="#fffcef"/>
        <path d="M121 37.84c-.45 0-.8-.1-1.06-.31-.25-.21-.38-.5-.38-.87q0-.585.39-.9c.26-.21.62-.31 1.09-.31h1.1v.52h-.96c-.36 0-.61.06-.77.18a.62.62 0 0 0-.23.51c0 .2.07.36.22.47.15.12.36.17.62.17.22 0 .41-.05.58-.14.16-.1.29-.23.38-.41s.13-.39.13-.63h.26c0 .52-.12.94-.35 1.25s-.58.47-1.03.47Zm1.16-.09-.03-.63v-1.4c0-.3-.03-.55-.1-.75s-.17-.35-.32-.45-.33-.15-.56-.15c-.21 0-.39.04-.54.13-.15.08-.28.22-.37.4l-.55-.22c.1-.18.21-.33.35-.47s.3-.23.49-.3.4-.1.63-.1c.36 0 .66.07.89.21s.41.35.53.62.17.61.17 1.02v2.09h-.58Z" fill="#fffcef"/>
        <path d="M125.23 37.84c-.34 0-.65-.08-.91-.25s-.47-.41-.61-.71c-.15-.31-.22-.66-.22-1.05s.07-.75.22-1.06c.15-.3.35-.54.61-.71s.56-.25.91-.25c.32 0 .61.08.85.25s.43.41.56.71.2.65.2 1.06-.07.75-.2 1.05c-.13.31-.32.54-.56.71s-.53.25-.85.25m.14-.56q.345 0 .6-.18c.18-.12.31-.3.41-.52q.15-.33.15-.75c0-.42-.05-.53-.15-.75s-.24-.39-.41-.52c-.17-.12-.38-.19-.61-.19s-.46.06-.64.19c-.19.12-.33.29-.44.52-.11.22-.16.47-.16.75s.05.53.16.75.26.39.45.52c.19.12.41.18.65.18Zm1.16 2.01v-4.67l.03-.72h.59v5.39z" fill="#fffcef"/>
        <path d="M128.06 35.87V33.9h.62v1.97zm.62 0c0 .38.04.67.13.87s.21.34.37.41.33.11.53.11q.495 0 .78-.36c.19-.24.28-.58.28-1.01h.3c0 .41-.06.75-.18 1.05-.12.29-.29.52-.51.67s-.5.23-.82.23c-.3 0-.56-.06-.79-.18s-.4-.31-.52-.58c-.12-.26-.19-.61-.19-1.03v-.19h.62Zm2.12 1.88-.04-.71V33.9h.62v3.85z" fill="#fffcef"/>
        <path d="M132.81 33q-.15 0-.27-.12t-.12-.27c0-.15.04-.2.12-.27s.17-.11.27-.11.2.04.27.11.11.17.11.27-.04.19-.11.27-.17.12-.27.12m-.31 4.75V33.9h.62v3.85z" fill="#fffcef"/>
        <path d="M137.36 37.84c-.45 0-.8-.1-1.06-.31s-.38-.5-.38-.87q0-.585.39-.9c.26-.21.62-.31 1.09-.31h1.1v.52h-.96c-.36 0-.61.06-.77.18s-.23.29-.23.51c0 .2.07.36.22.47.15.12.36.17.62.17.22 0 .41-.05.58-.14.16-.1.29-.23.38-.41s.13-.39.13-.63h.26c0 .52-.12.94-.35 1.25s-.58.47-1.03.47Zm1.16-.09-.03-.63v-1.4c0-.3-.03-.55-.1-.75s-.17-.35-.32-.45c-.14-.1-.33-.15-.56-.15-.21 0-.39.04-.54.13-.15.08-.28.22-.38.4l-.55-.22c.1-.18.21-.33.35-.47s.3-.23.48-.3c.19-.07.4-.1.63-.1.36 0 .65.07.89.21.23.14.41.35.53.62s.17.61.17 1.02v2.09h-.58Z" fill="#fffcef"/>
        <path d="M143.32 37.84c-.28 0-.53-.04-.74-.13-.21-.08-.39-.2-.53-.33s-.24-.29-.3-.45l.54-.22a1.08 1.08 0 0 0 .97.58c.24 0 .44-.05.61-.14a.45.45 0 0 0 .25-.4c0-.16-.06-.29-.18-.38s-.3-.18-.54-.24l-.37-.1c-.35-.09-.62-.23-.82-.42s-.29-.4-.29-.64c0-.36.12-.65.36-.85s.6-.3 1.07-.3c.23 0 .43.03.62.1.18.07.34.16.48.28.13.12.23.26.29.43l-.54.24a.73.73 0 0 0-.33-.38 1.2 1.2 0 0 0-.56-.12c-.24 0-.42.05-.55.15s-.2.24-.2.42c0 .1.06.2.17.29s.27.16.49.22l.38.1q.375.09.63.27c.255.18.3.26.38.41.09.15.13.32.13.49 0 .23-.06.43-.19.6-.12.17-.29.3-.5.39s-.45.13-.72.13Z" fill="#fffcef"/>
        <path d="M146.78 37.84c-.45 0-.8-.1-1.06-.31s-.38-.5-.38-.87q0-.585.39-.9c.26-.21.62-.31 1.09-.31h1.1v.52h-.96c-.36 0-.61.06-.77.18s-.23.29-.23.51c0 .2.07.36.22.47.15.12.36.17.62.17.22 0 .41-.05.58-.14.16-.1.29-.23.38-.41s.13-.39.13-.63h.26c0 .52-.12.94-.35 1.25s-.58.47-1.03.47Zm1.15-.09-.03-.63v-1.4c0-.3-.03-.55-.1-.75s-.17-.35-.32-.45c-.14-.1-.33-.15-.56-.15-.21 0-.39.04-.54.13-.15.08-.28.22-.38.4l-.55-.22c.1-.18.21-.33.35-.47s.3-.23.48-.3c.19-.07.4-.1.63-.1.36 0 .65.07.89.21.23.14.41.35.53.62s.17.61.17 1.02v2.09h-.58Z" fill="#fffcef"/>
        <path d="M149.39 35.87V33.9h.62v1.97zm.61 0c0 .38.04.67.13.87s.21.34.37.41.33.11.53.11q.495 0 .78-.36c.19-.24.28-.58.28-1.01h.3c0 .41-.06.75-.18 1.05-.12.29-.29.52-.51.67s-.5.23-.82.23c-.3 0-.56-.06-.79-.18s-.4-.31-.52-.58c-.12-.26-.19-.61-.19-1.03v-.19h.62Zm.57-2.52.9-.99h.79l-.99.99zm1.56 4.4-.04-.71V33.9h.62v3.85z" fill="#fffcef"/>
        <path d="M155.3 37.84c-.34 0-.65-.08-.91-.25s-.47-.41-.61-.71c-.15-.31-.22-.66-.22-1.05s.07-.75.22-1.06c.15-.3.35-.54.61-.71s.56-.25.91-.25c.32 0 .61.08.85.25s.43.41.56.71.2.65.2 1.06-.07.75-.2 1.05c-.13.31-.32.54-.56.71s-.53.25-.85.25m.14-.56c.22 0 .43-.06.6-.18.18-.12.31-.3.41-.52q.15-.33.15-.75c0-.42-.05-.53-.15-.75s-.24-.39-.41-.52c-.17-.12-.38-.19-.61-.19-.24 0-.46.06-.64.19-.19.12-.34.29-.44.52s-.16.47-.16.75.05.53.16.75.26.39.45.52c.19.12.4.18.65.18Zm1.19.47-.03-.72v-4.67h.62v5.39z" fill="#fffcef"/>
        <path d="M159.98 37.84c-.38 0-.71-.09-.99-.26s-.51-.41-.67-.71q-.24-.45-.24-1.05c0-.6.08-.74.24-1.05s.38-.54.67-.71.61-.26.98-.26.67.09.93.27.46.42.61.74c.14.32.22.69.22 1.12h-3.18l.15-.13c0 .31.05.57.17.79.11.22.27.39.46.5.2.12.43.17.69.17.27 0 .5-.06.69-.19s.33-.3.44-.51l.53.27c-.1.2-.23.37-.39.52s-.35.26-.57.35-.46.12-.73.12Zm-1.24-2.3-.16-.12h2.66l-.16.13c0-.25-.05-.46-.14-.64q-.15-.27-.39-.42-.255-.15-.57-.15c-.315 0-.41.05-.6.15s-.34.23-.45.41-.17.39-.17.64Z" fill="#fffcef"/>
        <path d="m165.54 37.75-1.61-3.85h.64l1.57 3.85zm.04 0 1.57-3.85h.65l-1.61 3.85z" fill="#fffcef"/>
        <path d="M170 37.84c-.38 0-.71-.09-.99-.26s-.51-.41-.67-.71q-.24-.45-.24-1.05c0-.6.08-.74.24-1.05s.38-.54.67-.71.61-.26.98-.26.67.09.93.27.46.42.61.74c.14.32.22.69.22 1.12h-3.18l.15-.13c0 .31.05.57.17.79.11.22.27.39.46.5.2.12.43.17.69.17.27 0 .5-.06.69-.19s.33-.3.44-.51l.53.27c-.1.2-.23.37-.39.52s-.35.26-.57.35-.46.12-.73.12Zm-1.25-2.3-.16-.12h2.66l-.16.13c0-.25-.05-.46-.14-.64q-.15-.27-.39-.42-.255-.15-.57-.15c-.315 0-.41.05-.6.15s-.34.23-.45.41-.17.39-.17.64Z" fill="#fffcef"/>
        <path d="M172.52 37.75V33.9h.58l.03.54c.12-.21.27-.36.46-.47.18-.11.4-.16.65-.16.31 0 .57.07.79.22.22.14.38.36.47.65.11-.28.27-.5.47-.65.21-.15.46-.22.74-.22.43 0 .77.14 1.02.43s.37.72.37 1.31v2.2h-.62v-1.97q0-.57-.12-.87c-.08-.2-.19-.34-.32-.41a1 1 0 0 0-.46-.11c-.3 0-.54.12-.71.36s-.25.58-.25 1.01v1.99H175v-1.97q0-.57-.12-.87c-.12-.3-.19-.34-.32-.41a1 1 0 0 0-.46-.11c-.3 0-.53.12-.7.36s-.25.58-.25 1.01v1.99h-.62Z" fill="#fffcef"/>
        <path d="M182.66 37.84c-.38 0-.71-.09-.99-.26s-.51-.41-.67-.71q-.24-.45-.24-1.05c0-.6.08-.74.24-1.05s.38-.54.67-.71.61-.26.98-.26.67.09.93.27.46.42.61.74c.14.32.22.69.22 1.12h-3.18l.15-.13c0 .31.05.57.17.79.11.22.27.39.46.5.2.12.43.17.69.17.27 0 .5-.06.69-.19s.33-.3.44-.51l.53.27c-.1.2-.23.37-.39.52s-.35.26-.57.35-.46.12-.73.12Zm-1.25-2.3-.16-.12h2.66l-.16.13c0-.25-.05-.46-.14-.64q-.15-.27-.39-.42-.255-.15-.57-.15c-.315 0-.41.05-.6.15s-.34.23-.45.41-.17.39-.17.64Z" fill="#fffcef"/>
        <path d="M185.18 37.75V33.9h.58l.03.54c.12-.21.27-.36.46-.47.18-.11.4-.16.65-.16.31 0 .57.07.79.22.22.14.38.36.47.65.11-.28.27-.5.47-.65.21-.15.46-.22.74-.22.43 0 .77.14 1.02.43s.37.72.37 1.31v2.2h-.62v-1.97q0-.57-.12-.87c-.08-.2-.19-.34-.32-.41a1 1 0 0 0-.46-.11c-.3 0-.54.12-.71.36s-.25.58-.25 1.01v1.99h-.62v-1.97q0-.57-.12-.87c-.12-.3-.19-.34-.32-.41a1 1 0 0 0-.46-.11c-.3 0-.53.12-.7.36s-.25.58-.25 1.01v1.99h-.62Z" fill="#fffcef"/>
        <path d="M193.67 39.29V33.9h.58l.04.71v4.68zm1.92-1.45c-.32 0-.61-.08-.85-.25s-.43-.41-.57-.71c-.13-.31-.2-.66-.2-1.05s.07-.75.2-1.06c.13-.3.32-.54.57-.71s.53-.25.85-.25c.34 0 .65.08.91.25s.46.41.61.71.22.65.22 1.06-.07.75-.22 1.05c-.15.31-.35.54-.61.71s-.56.25-.91.25m-.14-.56c.24 0 .46-.06.64-.18q.285-.18.45-.51c.11-.22.17-.47.17-.76s-.05-.53-.16-.75c-.1-.22-.25-.39-.44-.52-.19-.12-.4-.19-.65-.19-.23 0-.43.06-.61.19q-.27.18-.42.51c-.1.22-.15.47-.15.76s.05.53.15.75.24.39.41.52c.17.12.38.18.6.18Z" fill="#fffcef"/>
        <path d="M198.18 37.75V33.9h.62v3.85zm.34-2.09c0-.42.08-.75.24-1.01s.36-.45.61-.58.51-.19.79-.19v.58c-.22 0-.44.04-.65.11s-.38.2-.51.37-.2.4-.2.69z" fill="#fffcef"/>
        <path d="M201.14 33q-.15 0-.27-.12t-.12-.27c0-.15.04-.2.12-.27s.17-.11.27-.11.2.04.27.11.11.17.11.27-.04.19-.11.27-.17.12-.27.12m-.32 4.75V33.9h.62v3.85z" fill="#fffcef"/>
        <path d="M202.57 37.75V33.9h.58l.03.54c.12-.21.27-.36.45-.47.19-.11.4-.16.65-.16.31 0 .57.07.79.22.22.14.38.36.47.65.11-.28.27-.5.47-.65.21-.15.46-.22.74-.22.43 0 .77.14 1.02.43s.37.72.37 1.31v2.2h-.62v-1.97q0-.57-.12-.87c-.12-.3-.19-.34-.32-.41a1 1 0 0 0-.46-.11c-.3 0-.54.12-.71.36s-.25.58-.25 1.01v1.99h-.62v-1.97q0-.57-.12-.87c-.08-.2-.19-.34-.32-.41-.14-.07-.29-.11-.47-.11-.3 0-.53.12-.7.36s-.25.58-.25 1.01v1.99h-.62Z" fill="#fffcef"/>
        <path d="M210.81 37.84c-.38 0-.71-.09-.99-.26s-.51-.41-.67-.71q-.24-.45-.24-1.05c0-.6.08-.74.24-1.05s.38-.54.67-.71.61-.26.98-.26.67.09.93.27.46.42.61.74c.14.32.22.69.22 1.12h-3.18l.15-.13c0 .31.05.57.17.79.11.22.27.39.46.5.2.12.43.17.69.17.27 0 .5-.06.69-.19s.33-.3.44-.51l.53.27c-.1.2-.23.37-.39.52s-.35.26-.57.35-.46.12-.73.12Zm-1.25-2.3-.16-.12h2.66l-.16.13c0-.25-.05-.46-.14-.64q-.15-.27-.39-.42-.255-.15-.57-.15c-.315 0-.41.05-.6.15s-.34.23-.45.41-.17.39-.17.64Z" fill="#fffcef"/>
        <path d="M213.68 33q-.15 0-.27-.12t-.12-.27c0-.15.04-.2.12-.27s.17-.11.27-.11.2.04.27.11.11.17.11.27-.04.19-.11.27-.17.12-.27.12m-.31 4.75V33.9h.62v3.85z" fill="#fffcef"/>
        <path d="M215.11 37.75V33.9h.62v3.85zm.34-2.09c0-.42.08-.75.24-1.01s.36-.45.61-.58.51-.19.79-.19v.58c-.22 0-.44.04-.65.11s-.38.2-.51.37-.2.4-.2.69z" fill="#fffcef"/>
        <path d="M219.43 37.84c-.38 0-.71-.09-1.01-.26-.29-.17-.52-.41-.68-.71-.17-.3-.25-.65-.25-1.05s.08-.74.24-1.05c.16-.3.39-.54.68-.71s.62-.26 1-.26.71.09 1 .26.52.41.68.71q.24.45.24 1.05c0 .6-.08.74-.24 1.05-.16.3-.39.54-.67.71-.29.17-.62.26-.99.26m-.01-.57c.25 0 .47-.06.67-.18s.34-.29.46-.51c.11-.22.16-.47.16-.75s-.05-.53-.16-.75a1.2 1.2 0 0 0-.46-.51c-.2-.12-.42-.18-.68-.18s-.47.06-.67.18c-.19.12-.34.29-.46.51-.11.22-.16.47-.16.75s.05.53.16.75.27.39.46.51.42.18.67.18Z" fill="#fffcef"/>
        <path d="M93.48 46.45v-5.39h.62v5.39z" fill="#fffcef"/>
        <path d="M95.08 44.57V42.6h.62v1.97zm.61 0c0 .38.04.67.13.87s.21.34.37.41.33.11.53.11q.495 0 .78-.36c.19-.24.28-.58.28-1.01h.3c0 .41-.06.75-.18 1.05s-.29.52-.51.67-.5.23-.82.23c-.3 0-.56-.06-.79-.18s-.4-.31-.52-.58c-.12-.26-.19-.61-.19-1.03v-.19h.62Zm2.13 1.88-.04-.71V42.6h.62v3.85z" fill="#fffcef"/>
        <path d="M100.99 46.41a1.64 1.64 0 0 1-1.52-.94c-.14-.3-.22-.63-.22-1.01s.07-.73.22-1.03c.15-.29.35-.52.61-.69.26-.16.56-.25.91-.25.32 0 .61.08.85.25q.36.24.57.69c.14.3.2.64.2 1.03s-.07.72-.2 1.02-.32.52-.57.69c-.24.16-.52.25-.85.25Zm.02 1.67c-.25 0-.47-.02-.67-.07s-.38-.1-.52-.16q-.21-.09-.3-.15l.23-.5c.07.04.16.08.29.13.12.05.27.1.43.14.17.04.34.06.54.06.25 0 .47-.05.67-.15s.35-.26.46-.47.17-.49.17-.82V42.6h.62v3.48c0 .44-.08.81-.25 1.11-.16.3-.39.52-.68.67s-.61.22-.98.22Zm.13-2.2c.23 0 .43-.06.6-.19.17-.12.31-.29.41-.5s.15-.46.15-.74-.05-.51-.15-.73c-.1-.21-.24-.38-.41-.5q-.255-.18-.6-.18c-.345 0-.46.06-.64.18-.19.12-.33.29-.44.5-.1.21-.16.46-.16.73s.05.53.16.74.26.38.44.5c.19.12.4.19.64.19" fill="#fffcef"/>
        <path d="M105.21 46.54c-.45 0-.8-.1-1.06-.31-.25-.21-.38-.5-.38-.87q0-.585.39-.9c.26-.21.62-.31 1.09-.31h1.1v.52h-.96c-.36 0-.61.06-.77.18a.62.62 0 0 0-.23.51c0 .2.07.36.22.47.15.12.36.17.62.17.22 0 .41-.05.58-.14.16-.1.29-.23.38-.41s.13-.39.13-.63h.26c0 .52-.12.94-.35 1.25s-.58.47-1.03.47Zm1.15-.09-.03-.63v-1.4c0-.3-.03-.55-.1-.75s-.17-.35-.32-.45-.33-.15-.56-.15c-.21 0-.39.04-.54.13-.15.08-.28.22-.37.4l-.55-.22c.1-.18.21-.33.35-.47s.3-.23.49-.3.4-.1.63-.1c.36 0 .66.07.89.21s.41.35.53.62.17.61.17 1.02v2.09h-.58Z" fill="#fffcef"/>
        <path d="M107.92 46.45V42.6h.62v3.85zm.34-2.09c0-.42.08-.75.24-1.01s.36-.45.61-.58.51-.19.79-.19v.58c-.23 0-.44.04-.65.11s-.38.2-.51.37-.2.4-.2.69z" fill="#fffcef"/>
        <path d="M111.13 46.55q-.18 0-.3-.12c-.08-.08-.13-.18-.13-.3s.04-.22.13-.3c.08-.08.19-.13.3-.13s.22.04.3.13c.08.08.12.19.12.3s-.04.22-.12.3q-.12.12-.3.12m-.31-1.67-.02-3.83h.67l-.02 3.83z" fill="#fffcef"/>
        <path d="M114.9 46.45v-5.39h.66l3.21 4.33v-4.33h.66v5.39h-.66l-3.22-4.35v4.35z" fill="#fffcef"/>
        <path d="M122.39 46.54c-.38 0-.71-.09-1-.26s-.52-.41-.68-.71c-.17-.3-.25-.65-.25-1.05s.08-.74.24-1.05c.16-.3.39-.54.68-.71s.62-.26 1-.26.71.09 1 .26.52.41.68.71q.24.45.24 1.05c0 .6-.08.74-.24 1.05-.16.3-.39.54-.67.71-.29.17-.62.26-.99.26Zm-.01-.57c.25 0 .47-.06.67-.18q.285-.18.45-.51c.165-.33.17-.47.17-.75s-.05-.53-.17-.75-.26-.39-.46-.51-.42-.18-.68-.18-.47.06-.67.18c-.19.12-.34.29-.46.51-.11.22-.17.47-.17.75s.05.53.17.75.26.39.46.51.42.18.67.18Z" fill="#fffcef"/>
        <path d="M126.49 46.54c-.28 0-.53-.04-.74-.13-.21-.08-.39-.2-.53-.33q-.21-.21-.3-.45l.54-.22c.09.17.22.32.39.42.17.11.37.16.58.16.24 0 .44-.05.61-.14a.45.45 0 0 0 .25-.4c0-.16-.06-.29-.18-.38q-.18-.15-.54-.24l-.37-.1c-.35-.09-.62-.23-.82-.42-.19-.19-.29-.4-.29-.64 0-.36.12-.65.36-.85s.59-.3 1.07-.3c.23 0 .43.03.62.1s.34.16.48.28c.13.12.23.26.29.43l-.54.24c-.07-.17-.18-.3-.33-.38s-.34-.12-.56-.12c-.24 0-.42.05-.55.15s-.2.24-.2.42c0 .1.06.2.17.29s.27.16.49.22l.38.1q.375.09.63.27c.17.12.3.26.39.41s.13.32.13.49c0 .23-.06.43-.19.6s-.29.3-.5.39-.45.13-.72.13Z" fill="#fffcef"/>
        <path d="M130.08 46.54c-.28 0-.53-.04-.74-.13-.21-.08-.39-.2-.53-.33q-.21-.21-.3-.45l.54-.22c.09.17.22.32.39.42.17.11.37.16.58.16.24 0 .44-.05.61-.14a.45.45 0 0 0 .25-.4c0-.16-.06-.29-.18-.38q-.18-.15-.54-.24l-.37-.1c-.35-.09-.62-.23-.82-.42-.19-.19-.29-.4-.29-.64 0-.36.12-.65.36-.85s.59-.3 1.07-.3c.23 0 .43.03.62.1s.34.16.48.28c.13.12.23.26.29.43l-.54.24c-.07-.17-.18-.3-.33-.38s-.34-.12-.56-.12c-.24 0-.42.05-.55.15s-.2.24-.2.42c0 .1.05.2.17.29.11.09.27.16.49.22l.38.1q.375.09.63.27c.17.12.3.26.39.41s.13.32.13.49c0 .23-.06.43-.19.6s-.29.3-.5.39-.45.13-.72.13Z" fill="#fffcef"/>
        <path d="M133.54 46.54c-.45 0-.8-.1-1.06-.31-.25-.21-.38-.5-.38-.87q0-.585.39-.9c.26-.21.62-.31 1.09-.31h1.1v.52h-.96c-.36 0-.62.06-.77.18a.62.62 0 0 0-.23.51c0 .2.07.36.22.47.15.12.36.17.62.17.22 0 .41-.05.58-.14.16-.1.29-.23.38-.41s.13-.39.13-.63h.26c0 .52-.12.94-.36 1.25s-.58.47-1.03.47Zm1.15-.09-.03-.63v-1.4c0-.3-.03-.55-.1-.75a.9.9 0 0 0-.31-.45c-.14-.1-.33-.15-.56-.15-.21 0-.39.04-.54.13-.15.08-.28.22-.37.4l-.55-.22c.1-.18.21-.33.35-.47s.3-.23.49-.3c.18-.07.39-.1.63-.1.36 0 .66.07.89.21s.41.35.53.62.18.61.17 1.02v2.09h-.58Z" fill="#fffcef"/>
        <path d="M137.83 43.13v-.53h2.44v.53zm.7 3.32v-4.29c0-.4.09-.7.28-.9s.47-.3.86-.3c.1 0 .22.02.35.05s.27.09.41.15l-.23.49c-.12-.05-.22-.08-.3-.11a.6.6 0 0 0-.21-.04c-.18 0-.31.06-.4.17s-.13.29-.13.54v4.24h-.62Z" fill="#fffcef"/>
        <path d="M142.68 46.54c-.38 0-.71-.09-1.01-.26-.29-.17-.52-.41-.68-.71-.17-.3-.25-.65-.25-1.05s.08-.74.24-1.05c.16-.3.39-.54.68-.71s.62-.26 1-.26.71.09 1 .26.52.41.68.71q.24.45.24 1.05c0 .6-.08.74-.24 1.05-.16.3-.39.54-.67.71-.29.17-.62.26-.99.26m-.01-.57c.25 0 .47-.06.67-.18s.34-.29.46-.51c.11-.22.16-.47.16-.75s-.05-.53-.16-.75a1.2 1.2 0 0 0-.46-.51c-.2-.12-.42-.18-.68-.18s-.47.06-.67.18c-.19.12-.34.29-.46.51-.11.22-.16.47-.16.75s.05.53.16.75.27.39.46.51.42.18.67.18Zm-.54-3.92.9-.99h.79l-.99.99z" fill="#fffcef"/>
        <path d="M145.43 46.45V42.6h.62v3.85zm.34-2.09c0-.42.08-.75.24-1.01s.36-.45.61-.58.51-.19.79-.19v.58c-.22 0-.44.04-.65.11s-.38.2-.51.37-.2.4-.2.69z" fill="#fffcef"/>
        <path d="M148.04 46.45V42.6h.58l.03.54c.12-.21.27-.36.46-.47.18-.11.4-.16.65-.16.31 0 .57.07.79.22.22.14.38.36.47.65.11-.28.27-.5.47-.65.21-.15.46-.22.74-.22.43 0 .77.14 1.02.43s.37.72.37 1.31v2.2H153v-1.97q0-.57-.12-.87c-.08-.2-.19-.34-.32-.41a1 1 0 0 0-.46-.11c-.3 0-.54.12-.71.36s-.25.58-.25 1.01v1.99h-.62v-1.97q0-.57-.12-.87c-.12-.3-.19-.34-.32-.41a1 1 0 0 0-.46-.11c-.3 0-.53.12-.7.36s-.25.58-.25 1.01v1.99h-.62Z" fill="#fffcef"/>
        <path d="M154.49 44.57V42.6h.62v1.97zm.61 0c0 .38.04.67.13.87s.21.34.37.41.33.11.53.11q.495 0 .78-.36c.19-.24.28-.58.28-1.01h.3c0 .41-.06.75-.18 1.05-.12.29-.29.52-.51.67s-.5.23-.82.23c-.3 0-.56-.06-.79-.18s-.4-.31-.52-.58c-.12-.26-.19-.61-.19-1.03v-.19h.62Zm2.13 1.88-.04-.71V42.6h.62v3.85z" fill="#fffcef"/>
        <path d="M158.88 46.45v-5.39h.62v5.39z" fill="#fffcef"/>
        <path d="M161.79 46.54c-.45 0-.8-.1-1.06-.31-.25-.21-.38-.5-.38-.87q0-.585.39-.9c.26-.21.62-.31 1.09-.31h1.1v.52h-.96c-.36 0-.62.06-.77.18a.62.62 0 0 0-.23.51c0 .2.07.36.22.47.15.12.36.17.62.17.22 0 .41-.05.58-.14.16-.1.29-.23.38-.41s.13-.39.13-.63h.26c0 .52-.12.94-.36 1.25s-.58.47-1.03.47Zm1.16-.09-.03-.63v-1.4c0-.3-.03-.55-.1-.75a.9.9 0 0 0-.31-.45c-.14-.1-.33-.15-.56-.15-.21 0-.39.04-.54.13-.15.08-.28.22-.37.4l-.55-.22c.1-.18.21-.33.35-.47s.3-.23.49-.3c.18-.07.39-.1.63-.1.36 0 .66.07.89.21s.41.35.53.62.18.61.17 1.02v2.09h-.58Z" fill="#fffcef"/>
        <path d="m169.45 46.45-1.61-3.85h.64l1.57 3.85zm.04 0 1.57-3.85h.65l-1.61 3.85z" fill="#fffcef"/>
        <path d="M173.44 46.54c-.45 0-.8-.1-1.06-.31s-.38-.5-.38-.87q0-.585.39-.9c.26-.21.62-.31 1.09-.31h1.1v.52h-.96c-.36 0-.61.06-.77.18s-.23.29-.23.51c0 .2.07.36.22.47.15.12.36.17.62.17.22 0 .41-.05.58-.14.16-.1.29-.23.38-.41s.13-.39.13-.63h.26c0 .52-.12.94-.35 1.25s-.58.47-1.03.47Zm1.15-.09-.03-.63v-1.4c0-.3-.03-.55-.1-.75s-.17-.35-.32-.45c-.14-.1-.33-.15-.56-.15-.21 0-.39.04-.54.13-.15.08-.28.22-.38.4l-.55-.22c.1-.18.21-.33.35-.47s.3-.23.48-.3c.19-.07.4-.1.63-.1.36 0 .65.07.89.21.23.14.41.35.53.62s.17.61.17 1.02v2.09h-.58Z" fill="#fffcef"/>
        <path d="M176.15 46.45v-5.39h.62v5.39z" fill="#fffcef"/>
        <path d="M179.55 46.54c-.38 0-.71-.09-1.01-.26-.29-.17-.52-.41-.68-.71-.17-.3-.25-.65-.25-1.05s.08-.74.24-1.05c.16-.3.39-.54.68-.71s.62-.26 1-.26.71.09 1 .26.52.41.68.71q.24.45.24 1.05c0 .6-.08.74-.24 1.05-.16.3-.39.54-.67.71-.29.17-.62.26-.99.26m-.01-.57c.25 0 .47-.06.67-.18s.34-.29.46-.51c.11-.22.16-.47.16-.75s-.05-.53-.16-.75a1.2 1.2 0 0 0-.46-.51c-.2-.12-.42-.18-.68-.18s-.47.06-.67.18c-.19.12-.34.29-.46.51-.11.22-.16.47-.16.75s.05.53.16.75.27.39.46.51.42.18.67.18Z" fill="#fffcef"/>
        <path d="M182.31 46.45V42.6h.62v3.85zm.34-2.09c0-.42.08-.75.24-1.01s.36-.45.61-.58.51-.19.79-.19v.58c-.22 0-.44.04-.65.11s-.38.2-.51.37-.2.4-.2.69z" fill="#fffcef"/>
        <path d="M185.26 41.7q-.15 0-.27-.12t-.12-.27c0-.15.04-.2.12-.27s.17-.11.27-.11.2.04.27.11.11.17.11.27-.04.19-.11.27-.17.12-.27.12m-.31 4.75V42.6h.62v3.85z" fill="#fffcef"/>
        <path d="M186.5 46.45v-.49l2.27-2.82h-2.27v-.54h3.07v.48l-2.28 2.83h2.29v.54h-3.09Z" fill="#fffcef"/>
        <path d="M191.69 46.54c-.45 0-.8-.1-1.06-.31s-.38-.5-.38-.87q0-.585.39-.9c.26-.21.62-.31 1.09-.31h1.1v.52h-.96c-.36 0-.61.06-.77.18s-.23.29-.23.51c0 .2.07.36.22.47.15.12.36.17.62.17.22 0 .41-.05.58-.14.16-.1.29-.23.38-.41s.13-.39.13-.63h.26c0 .52-.12.94-.35 1.25s-.58.47-1.03.47Zm1.16-.09-.03-.63v-1.4c0-.3-.03-.55-.1-.75s-.17-.35-.32-.45c-.14-.1-.33-.15-.56-.15-.21 0-.39.04-.54.13-.15.08-.28.22-.38.4l-.55-.22c.1-.18.21-.33.35-.47s.3-.23.48-.3c.19-.07.4-.1.63-.1.36 0 .65.07.89.21.23.14.41.35.53.62s.17.61.17 1.02v2.09h-.58Z" fill="#fffcef"/>
        <path d="M198.01 46.54c-.38 0-.71-.09-1.01-.26-.29-.17-.52-.41-.68-.71-.17-.3-.25-.65-.25-1.05s.08-.74.24-1.05c.16-.3.39-.54.68-.71s.62-.26 1-.26.71.09 1 .26.52.41.68.71q.24.45.24 1.05c0 .6-.08.74-.24 1.05-.16.3-.39.54-.67.71-.29.17-.62.26-.99.26m0-.57c.25 0 .47-.06.67-.18s.34-.29.46-.51c.11-.22.16-.47.16-.75s-.05-.53-.16-.75a1.2 1.2 0 0 0-.46-.51c-.2-.12-.42-.18-.68-.18s-.47.06-.67.18c-.19.12-.34.29-.46.51-.11.22-.16.47-.16.75s.05.53.16.75.27.39.46.51.42.18.67.18Z" fill="#fffcef"/>
        <path d="M204.02 46.54c-.28 0-.53-.04-.74-.13-.21-.08-.39-.2-.53-.33s-.24-.29-.3-.45l.54-.22a1.08 1.08 0 0 0 .97.58c.24 0 .44-.05.61-.14a.45.45 0 0 0 .25-.4c0-.16-.06-.29-.18-.38s-.3-.18-.54-.24l-.37-.1c-.35-.09-.62-.23-.82-.42s-.29-.4-.29-.64c0-.36.12-.65.36-.85s.6-.3 1.07-.3c.23 0 .43.03.62.1.18.07.34.16.48.28.13.12.23.26.29.43l-.54.24a.73.73 0 0 0-.33-.38 1.2 1.2 0 0 0-.56-.12c-.24 0-.42.05-.55.15s-.2.24-.2.42c0 .1.06.2.17.29s.27.16.49.22l.38.1q.375.09.63.27c.255.18.3.26.38.41.09.15.13.32.13.49 0 .23-.06.43-.19.6-.12.17-.29.3-.5.39s-.45.13-.72.13Z" fill="#fffcef"/>
        <path d="M207.48 46.54c-.45 0-.8-.1-1.06-.31s-.38-.5-.38-.87q0-.585.39-.9c.26-.21.62-.31 1.09-.31h1.1v.52h-.96c-.36 0-.61.06-.77.18s-.23.29-.23.51c0 .2.07.36.22.47.15.12.36.17.62.17.22 0 .41-.05.58-.14.16-.1.29-.23.38-.41s.13-.39.13-.63h.26c0 .52-.12.94-.35 1.25s-.58.47-1.03.47Zm1.15-.09-.03-.63v-1.4c0-.3-.03-.55-.1-.75s-.17-.35-.32-.45c-.14-.1-.33-.15-.56-.15-.21 0-.39.04-.54.13-.15.08-.28.22-.38.4l-.55-.22c.1-.18.21-.33.35-.47s.3-.23.48-.3c.19-.07.4-.1.63-.1.36 0 .65.07.89.21.23.14.41.35.53.62s.17.61.17 1.02v2.09h-.58Z" fill="#fffcef"/>
        <path d="M210.19 46.45v-5.39h.62v4.67l-.03.72zm1.91.09c-.32 0-.61-.08-.85-.25s-.43-.41-.57-.71c-.13-.31-.2-.66-.2-1.05s.07-.75.2-1.06c.13-.3.32-.54.57-.71s.53-.25.85-.25c.34 0 .65.08.91.25s.47.41.61.71c.15.3.22.65.22 1.06s-.07.75-.22 1.05a1.615 1.615 0 0 1-1.52.96m-.14-.56c.24 0 .46-.06.64-.18q.285-.18.45-.51c.11-.22.17-.47.17-.76s-.05-.53-.16-.75-.25-.39-.44-.52c-.19-.12-.4-.19-.65-.19-.23 0-.43.06-.61.19-.18.12-.31.29-.42.51-.1.22-.15.47-.15.76s.05.53.15.75.24.39.41.52q.27.18.6.18Z" fill="#fffcef"/>
        <path d="M216.41 46.54c-.38 0-.71-.09-1-.26s-.52-.41-.68-.71-.25-.65-.25-1.05.08-.74.24-1.05.39-.54.68-.71.62-.26 1-.26.71.09 1 .26.52.41.68.71.24.65.24 1.05-.08.74-.24 1.05c-.16.3-.39.54-.67.71s-.62.26-.99.26Zm-.01-.57c.25 0 .47-.06.67-.18q.285-.18.45-.51c.11-.22.17-.47.17-.75s-.05-.53-.17-.75a1.2 1.2 0 0 0-.46-.51c-.2-.12-.42-.18-.68-.18s-.47.06-.67.18c-.19.12-.35.29-.46.51s-.17.47-.17.75.05.53.17.75c.11.22.26.39.46.51s.42.18.67.18Z" fill="#fffcef"/>
        <path d="M219.16 46.45V42.6h.62v3.85zm.34-2.09c0-.42.08-.75.24-1.01s.36-.45.61-.58.51-.19.79-.19v.58c-.23 0-.44.04-.65.11s-.38.2-.51.37-.2.4-.2.69z" fill="#fffcef"/>
        <path d="M93.48 55.15V51.3h.58l.04.71v3.14zm2.71-1.98c0-.38-.04-.67-.13-.87s-.21-.34-.36-.41a1.2 1.2 0 0 0-.52-.11c-.34 0-.6.12-.79.36s-.28.58-.28 1.01h-.3c0-.41.06-.75.18-1.05.12-.29.29-.52.52-.67s.5-.23.82-.23.57.06.79.18.4.31.52.57c.13.26.19.61.18 1.03v.18h-.62Zm0 1.98v-1.97h.62v1.97z" fill="#fffcef"/>
        <path d="M99 55.24c-.45 0-.8-.1-1.06-.31-.25-.21-.38-.5-.38-.87q0-.585.39-.9c.26-.21.62-.31 1.09-.31h1.1v.52h-.96c-.36 0-.61.06-.77.18a.62.62 0 0 0-.23.51c0 .2.07.36.22.47.15.12.36.17.62.17.22 0 .41-.05.58-.14.16-.1.29-.23.38-.41s.13-.39.13-.63h.26c0 .52-.12.94-.35 1.25s-.58.47-1.03.47Zm1.15-.09-.03-.63v-1.4c0-.3-.03-.55-.1-.75s-.17-.35-.32-.45-.33-.15-.56-.15c-.21 0-.39.04-.54.13-.15.08-.28.22-.37.4l-.55-.21c.1-.18.21-.33.35-.47s.3-.23.49-.3.4-.1.63-.1c.36 0 .66.07.89.21s.41.35.53.62.17.62.17 1.02v2.09h-.58Z" fill="#fffcef"/>
        <path d="M101.31 51.84v-.55h2.44v.55zm1.84 3.4c-.37 0-.67-.1-.87-.29s-.31-.47-.31-.82V50.1h.62v3.97c0 .2.05.35.16.45s.25.16.44.16c.06 0 .12 0 .18-.03.06-.02.14-.06.23-.13l.24.5a1.2 1.2 0 0 1-.69.23Z" fill="#fffcef"/>
        <path d="M104.52 53.27V51.3h.62v1.97zm.61 0c0 .38.04.67.13.87s.21.34.37.41.33.11.53.11q.495 0 .78-.36c.19-.24.28-.58.28-1.01h.3c0 .41-.06.75-.18 1.05-.12.29-.29.52-.51.67s-.5.23-.82.23c-.3 0-.56-.06-.79-.18s-.4-.31-.52-.58-.19-.61-.19-1.03v-.18zm2.13 1.88-.04-.71V51.3h.62v3.85z" fill="#fffcef"/>
        <path d="M108.91 55.15V51.3h.62v3.85zm.34-2.09c0-.42.08-.75.24-1.01s.36-.45.61-.58.51-.19.79-.19v.58c-.23 0-.44.04-.65.11-.21.08-.38.2-.51.37s-.2.4-.2.69z" fill="#fffcef"/>
        <path d="M112.73 55.24c-.45 0-.8-.1-1.06-.31-.25-.21-.38-.5-.38-.87q0-.585.39-.9c.26-.21.62-.31 1.09-.31h1.1v.52h-.96c-.36 0-.61.06-.77.18a.62.62 0 0 0-.23.51c0 .2.07.36.22.47.15.12.36.17.62.17.22 0 .41-.05.58-.14.16-.1.29-.23.38-.41s.13-.39.13-.63h.26c0 .52-.12.94-.35 1.25s-.58.47-1.03.47Zm1.16-.09-.03-.63v-1.4c0-.3-.03-.55-.1-.75s-.17-.35-.32-.45-.33-.15-.56-.15c-.21 0-.39.04-.54.13-.15.08-.28.22-.37.4l-.55-.21c.1-.18.21-.33.35-.47s.3-.23.49-.3.4-.1.63-.1c.36 0 .66.07.89.21s.41.35.53.62.17.62.17 1.02v2.09h-.58Z" fill="#fffcef"/>
        <path d="M115.44 55.15v-5.39h.62v5.39z" fill="#fffcef"/>
        <path d="M120.56 55.24c-.34 0-.65-.08-.91-.25s-.47-.41-.61-.71-.22-.66-.22-1.05.07-.75.22-1.06c.15-.3.35-.54.61-.71s.56-.25.91-.25c.32 0 .61.08.85.25s.43.41.57.71c.13.3.2.66.2 1.06s-.07.75-.2 1.05-.32.54-.57.71c-.24.17-.53.25-.85.25m.13-.56q.345 0 .6-.18c.17-.12.31-.3.41-.52q.15-.33.15-.75c0-.42-.05-.53-.15-.75s-.24-.39-.41-.52c-.17-.12-.38-.19-.61-.19s-.46.06-.64.19c-.19.12-.33.29-.44.52-.11.22-.16.47-.16.75s.05.53.16.75.26.39.45.52c.19.12.41.18.65.18Zm1.2.47-.03-.72v-4.67h.62v5.39z" fill="#fffcef"/>
        <path d="M125.26 55.24c-.38 0-.71-.09-1-.26s-.52-.41-.68-.71c-.17-.3-.25-.65-.25-1.05s.08-.75.24-1.05.39-.54.68-.71.62-.26 1-.26.71.09 1 .26.52.41.68.71q.24.45.24 1.05c0 .6-.08.74-.24 1.05-.16.3-.39.54-.67.71-.29.17-.62.26-.99.26Zm-.01-.57c.25 0 .47-.06.67-.18q.285-.18.45-.51c.11-.22.16-.47.16-.75s-.05-.53-.16-.75a1.2 1.2 0 0 0-.46-.51c-.2-.12-.42-.18-.68-.18s-.47.06-.67.18c-.19.12-.34.29-.46.51s-.17.47-.17.75.05.53.17.75c.11.22.26.39.46.51s.42.18.67.18Z" fill="#fffcef"/>
        <path d="M129.36 55.24c-.28 0-.53-.04-.74-.13-.21-.08-.39-.2-.53-.33q-.21-.21-.3-.45l.54-.22c.09.17.22.32.39.42s.37.16.58.16c.24 0 .44-.05.61-.14s.25-.23.25-.4c0-.16-.06-.29-.18-.38q-.18-.15-.54-.24l-.37-.1c-.35-.09-.62-.23-.82-.42-.19-.19-.29-.4-.29-.64 0-.36.12-.65.36-.85s.59-.3 1.07-.3c.23 0 .43.03.62.1s.34.16.48.28c.13.12.23.26.29.43l-.54.24c-.07-.17-.18-.3-.33-.38s-.34-.12-.56-.12c-.24 0-.42.05-.55.15s-.2.24-.2.42c0 .1.05.2.17.29.11.09.27.16.49.22l.38.1q.375.09.63.27c.17.12.3.26.39.41s.13.32.13.49c0 .23-.06.43-.19.6-.12.17-.29.3-.5.39s-.45.13-.72.13Z" fill="#fffcef"/>
        <path d="M133.86 50.4q-.15 0-.27-.12t-.12-.27c0-.15.04-.2.12-.27s.17-.11.27-.11.2.04.27.11.11.17.11.27-.04.19-.11.27-.17.12-.27.12m-.32 4.75V51.3h.62v3.85z" fill="#fffcef"/>
        <path d="M135.29 55.15V51.3h.58l.04.71v3.14zm2.7-1.98c0-.38-.04-.67-.13-.87s-.21-.34-.36-.41a1.2 1.2 0 0 0-.52-.11c-.34 0-.6.12-.79.36s-.28.58-.28 1.01h-.3c0-.41.06-.75.18-1.05.12-.29.29-.52.52-.67.22-.15.5-.23.82-.23s.56.06.79.18c.22.12.4.31.52.57s.19.61.18 1.03v.18H138Zm0 1.98v-1.97h.62v1.97z" fill="#fffcef"/>
        <path d="M141.11 55.11a1.64 1.64 0 0 1-1.52-.94c-.15-.29-.22-.63-.22-1.01s.07-.73.22-1.03.35-.53.61-.69.56-.25.91-.25c.32 0 .61.08.85.25.24.16.43.39.56.69.14.29.21.64.21 1.03s-.07.72-.21 1.02c-.13.29-.32.52-.56.69-.24.16-.53.25-.85.25Zm.02 1.67c-.25 0-.47-.02-.67-.07s-.38-.1-.52-.16q-.21-.09-.3-.15l.23-.5c.07.04.16.08.29.13.12.05.27.1.44.14s.34.06.54.06c.25 0 .47-.05.67-.15s.35-.26.46-.47.17-.49.17-.82V51.3h.62v3.48c0 .44-.08.81-.25 1.11-.16.3-.39.52-.68.67s-.61.22-.98.22Zm.12-2.2c.22 0 .43-.06.6-.18.18-.12.31-.29.41-.5s.15-.46.15-.74-.05-.51-.15-.73c-.1-.21-.24-.38-.41-.5q-.255-.18-.6-.18c-.24 0-.46.06-.64.18-.19.12-.33.29-.44.5s-.16.46-.16.73.05.53.16.74.26.38.44.5c.19.12.4.18.64.18" fill="#fffcef"/>
        <path d="M144.11 55.15V51.3h.62v3.85zm.34-2.09c0-.42.08-.75.24-1.01s.36-.45.61-.58.51-.19.79-.19v.58c-.22 0-.44.04-.65.11-.21.08-.38.2-.51.37s-.2.4-.2.69z" fill="#fffcef"/>
        <path d="M148.4 55.24c-.38 0-.71-.09-.99-.26-.29-.17-.51-.41-.67-.71q-.24-.45-.24-1.05c0-.6.08-.75.24-1.05s.38-.54.67-.71c.28-.17.61-.26.98-.26s.67.09.93.27.46.42.61.74c.14.32.21.69.21 1.12h-3.18l.15-.13c0 .31.05.57.16.79s.27.39.47.5c.2.12.43.17.69.17.27 0 .5-.06.69-.19s.33-.3.43-.51l.53.27c-.1.2-.23.38-.39.52-.16.15-.35.26-.57.35-.22.08-.46.12-.73.12Zm-1.25-2.3-.16-.12h2.66l-.16.13c0-.25-.05-.46-.15-.64s-.23-.32-.39-.42q-.24-.15-.57-.15c-.33 0-.41.05-.6.15s-.34.24-.46.41c-.12.18-.17.39-.17.64" fill="#fffcef"/>
        <path d="M152.43 55.24c-.34 0-.65-.08-.91-.25s-.47-.41-.61-.71-.22-.66-.22-1.05.07-.75.22-1.06c.15-.3.35-.54.61-.71s.56-.25.91-.25c.32 0 .61.08.85.25s.43.41.56.71.2.66.2 1.06-.07.75-.2 1.05c-.13.31-.32.54-.56.71s-.53.25-.85.25m.14-.56c.22 0 .43-.06.6-.18.18-.12.31-.3.41-.52q.15-.33.15-.75c0-.42-.05-.53-.15-.75s-.24-.39-.41-.52c-.17-.12-.38-.19-.61-.19-.24 0-.46.06-.64.19-.19.12-.34.29-.44.52s-.16.47-.16.75.05.53.16.75.26.39.45.52c.19.12.4.18.65.18Zm1.19.47-.03-.72v-4.67h.62v5.39z" fill="#fffcef"/>
        <path d="M155.78 50.4q-.15 0-.27-.12t-.12-.27c0-.15.04-.2.12-.27s.17-.11.27-.11.2.04.27.11.11.17.11.27-.04.19-.11.27q-.12.12-.27.12m-.32 4.75V51.3h.62v3.85z" fill="#fffcef"/>
        <path d="M158.9 55.24c-.38 0-.71-.09-.99-.26-.29-.17-.51-.41-.67-.71q-.24-.45-.24-1.05c0-.6.08-.75.24-1.05s.38-.54.67-.71c.28-.17.61-.26.98-.26s.67.09.93.27.46.42.61.74c.14.32.21.69.21 1.12h-3.18l.15-.13c0 .31.05.57.16.79s.27.39.47.5c.2.12.43.17.69.17.27 0 .5-.06.69-.19s.33-.3.43-.51l.53.27c-.1.2-.23.38-.39.52-.16.15-.35.26-.57.35-.22.08-.46.12-.73.12Zm-1.25-2.3-.16-.12h2.66l-.16.13c0-.25-.05-.46-.15-.64s-.23-.32-.39-.42q-.24-.15-.57-.15c-.33 0-.41.05-.6.15s-.34.24-.46.41c-.12.18-.17.39-.17.64" fill="#fffcef"/>
        <path d="M161.42 55.15V51.3h.58l.04.71v3.14zm2.7-1.98c0-.38-.04-.67-.13-.87s-.21-.34-.36-.41a1.2 1.2 0 0 0-.52-.11c-.34 0-.6.12-.79.36s-.28.58-.28 1.01h-.3c0-.41.06-.75.18-1.05.12-.29.29-.52.52-.67.22-.15.5-.23.82-.23s.56.06.79.18c.22.12.4.31.52.57s.19.61.18 1.03v.18h-.62Zm0 1.98v-1.97h.62v1.97z" fill="#fffcef"/>
        <path d="M165.31 51.84v-.55h2.44v.55zm1.85 3.4c-.37 0-.66-.1-.87-.29s-.31-.47-.31-.82V50.1h.62v3.97c0 .2.05.35.16.45.11.11.25.16.44.16.06 0 .12 0 .18-.03.06-.02.14-.06.23-.13l.24.5a1.2 1.2 0 0 1-.69.23Z" fill="#fffcef"/>
        <path d="M170.29 55.24c-.38 0-.71-.09-.99-.26s-.51-.41-.67-.71-.24-.65-.24-1.05.08-.75.24-1.05.38-.54.67-.71.61-.26.98-.26.67.09.93.27.46.42.61.74c.14.32.22.69.22 1.12h-3.18l.15-.13c0 .31.05.57.17.79.11.22.27.39.46.5.2.12.43.17.69.17.27 0 .5-.06.69-.19s.33-.3.44-.51l.53.27c-.1.2-.23.38-.39.52-.16.15-.35.26-.57.35s-.46.12-.73.12Zm-1.25-2.3-.16-.12h2.66l-.16.13c0-.25-.05-.46-.14-.64q-.15-.27-.39-.42-.255-.15-.57-.15c-.315 0-.41.05-.6.15s-.34.24-.45.41c-.12.18-.17.39-.17.64Z" fill="#fffcef"/>
        <path d="M174.15 55.24c-.28 0-.53-.04-.74-.13-.21-.08-.39-.2-.53-.33s-.24-.29-.3-.45l.54-.22a1.08 1.08 0 0 0 .97.58c.24 0 .44-.05.61-.14a.45.45 0 0 0 .25-.4c0-.16-.06-.29-.18-.38s-.3-.18-.54-.24l-.37-.1c-.35-.09-.62-.23-.82-.42s-.29-.4-.29-.64c0-.36.12-.65.36-.85s.6-.3 1.07-.3c.23 0 .43.03.62.1.18.07.34.16.48.28.13.12.23.26.29.43l-.54.24a.73.73 0 0 0-.33-.38 1.2 1.2 0 0 0-.56-.12c-.24 0-.42.05-.55.15s-.2.24-.2.42c0 .1.06.2.17.29s.27.16.49.22l.38.1q.375.09.63.27c.17.12.3.26.38.41.09.15.13.32.13.49 0 .23-.06.43-.19.6-.12.17-.29.3-.5.39s-.45.13-.72.13Z" fill="#fffcef"/>
        <path d="m176.16 56.03.44-1.62h.69l-.6 1.62z" fill="#fffcef"/>
        <path d="M181.25 55.24c-.45 0-.8-.1-1.06-.31s-.38-.5-.38-.87q0-.585.39-.9c.26-.21.62-.31 1.09-.31h1.1v.52h-.96c-.36 0-.62.06-.77.18a.62.62 0 0 0-.23.51c0 .2.07.36.22.47.15.12.36.17.62.17.22 0 .41-.05.58-.14.16-.1.29-.23.38-.41s.13-.39.13-.63h.26c0 .52-.12.94-.36 1.25s-.58.47-1.03.47Zm1.15-.09-.03-.63v-1.4c0-.3-.03-.55-.1-.75a.9.9 0 0 0-.31-.45c-.14-.1-.33-.15-.56-.15-.21 0-.39.04-.54.13-.15.08-.28.22-.37.4l-.55-.21c.1-.18.21-.33.35-.47s.3-.23.49-.3c.18-.07.39-.1.63-.1.36 0 .66.07.89.21s.41.35.53.62.18.62.17 1.02v2.09h-.58Z" fill="#fffcef"/>
        <path d="M183.74 56.8c-.19 0-.43-.07-.72-.2l.23-.52c.12.05.23.08.31.11s.15.04.2.04c.35 0 .52-.22.52-.67v-4.27h.62v4.28c0 .4-.1.71-.29.91s-.48.31-.87.31Zm.85-6.41q-.15 0-.27-.12a.37.37 0 0 1-.12-.27c0-.11.04-.21.12-.28s.17-.11.27-.11.2.04.28.11.12.17.12.28q0 .15-.12.27c-.08.08-.17.12-.28.12" fill="#fffcef"/>
        <path d="M185.93 53.27V51.3h.62v1.97zm.62 0c0 .38.04.67.13.87s.21.34.37.41.33.11.53.11q.495 0 .78-.36c.19-.24.28-.58.28-1.01h.3c0 .41-.06.75-.18 1.05-.12.29-.29.52-.51.67s-.5.23-.82.23c-.3 0-.56-.06-.79-.18s-.4-.31-.52-.58-.19-.61-.19-1.03v-.18zm2.12 1.88-.04-.71V51.3h.62v3.85z" fill="#fffcef"/>
        <path d="M191.85 55.24c-.34 0-.65-.08-.91-.25s-.47-.41-.61-.71-.22-.66-.22-1.05.07-.75.22-1.06c.15-.3.35-.54.61-.71s.56-.25.91-.25c.32 0 .61.08.85.25s.43.41.56.71.2.66.2 1.06-.07.75-.2 1.05c-.13.31-.32.54-.56.71s-.53.25-.85.25m.13-.56c.22 0 .43-.06.6-.18.18-.12.31-.3.41-.52q.15-.33.15-.75c0-.42-.05-.53-.15-.75s-.24-.39-.41-.52c-.17-.12-.38-.19-.61-.19-.24 0-.46.06-.64.19-.19.12-.34.29-.44.52s-.16.47-.16.75.05.53.16.75.26.39.45.52c.19.12.4.18.65.18Zm1.2.47-.03-.72v-4.67h.62v5.39z" fill="#fffcef"/>
        <path d="M196.06 55.24c-.45 0-.8-.1-1.06-.31s-.38-.5-.38-.87q0-.585.39-.9c.26-.21.62-.31 1.09-.31h1.1v.52h-.96c-.36 0-.62.06-.77.18a.62.62 0 0 0-.23.51c0 .2.07.36.22.47.15.12.36.17.62.17.22 0 .41-.05.58-.14.16-.1.29-.23.38-.41s.13-.39.13-.63h.26c0 .52-.12.94-.36 1.25s-.58.47-1.03.47Zm1.15-.09-.03-.63v-1.4c0-.3-.03-.55-.1-.75a.9.9 0 0 0-.31-.45c-.14-.1-.33-.15-.56-.15-.21 0-.39.04-.54.13-.15.08-.28.22-.37.4l-.55-.21c.1-.18.21-.33.35-.47s.3-.23.49-.3c.18-.07.39-.1.63-.1.36 0 .66.07.89.21s.41.35.53.62.18.62.17 1.02v2.09h-.58Z" fill="#fffcef"/>
        <path d="M198.77 55.15V51.3h.58l.04.71v3.14zm2.7-1.98c0-.38-.04-.67-.13-.87s-.21-.34-.36-.41a1.2 1.2 0 0 0-.52-.11c-.34 0-.6.12-.79.36s-.28.58-.28 1.01h-.3c0-.41.06-.75.18-1.05.12-.29.29-.52.52-.67s.5-.23.82-.23.57.06.79.18.4.31.52.57c.13.26.19.61.18 1.03v.18h-.62Zm0 1.98v-1.97h.62v1.97z" fill="#fffcef"/>
        <path d="M204.58 55.24c-.34 0-.65-.08-.91-.25s-.46-.41-.61-.71-.22-.66-.22-1.05.07-.75.22-1.06c.15-.3.35-.54.61-.71s.56-.25.91-.25c.32 0 .61.08.85.25s.43.41.57.71c.13.3.2.66.2 1.06s-.07.75-.2 1.05c-.13.31-.32.54-.57.71-.24.17-.53.25-.85.25m.14-.56q.345 0 .6-.18c.17-.12.31-.3.41-.52s.15-.47.15-.75-.05-.53-.15-.75-.24-.39-.41-.52c-.18-.12-.38-.19-.61-.19s-.46.06-.64.19c-.19.12-.33.29-.44.52-.11.22-.16.47-.16.75s.05.53.16.75.26.39.45.52c.19.12.41.18.65.18Zm1.19.47-.03-.72v-4.67h.62v5.39z" fill="#fffcef"/>
        <path d="M209.29 55.24c-.38 0-.71-.09-1.01-.26-.29-.17-.52-.41-.68-.71-.17-.3-.25-.65-.25-1.05s.08-.75.24-1.05.39-.54.68-.71.62-.26 1-.26.71.09 1 .26.52.41.68.71q.24.45.24 1.05c0 .6-.08.74-.24 1.05-.16.3-.39.54-.67.71-.29.17-.62.26-.99.26m-.01-.57c.25 0 .47-.06.67-.18s.34-.29.46-.51c.11-.22.16-.47.16-.75s-.05-.53-.16-.75a1.2 1.2 0 0 0-.46-.51c-.2-.12-.42-.18-.68-.18s-.47.06-.67.18c-.19.12-.34.29-.46.51-.11.22-.16.47-.16.75s.05.53.16.75.27.39.46.51.42.18.67.18Z" fill="#fffcef"/>
        <path d="M94.7 63.94c-.45 0-.8-.1-1.06-.31-.25-.21-.38-.5-.38-.87q0-.585.39-.9c.26-.21.62-.31 1.09-.31h1.1v.52h-.96c-.36 0-.61.06-.77.18a.62.62 0 0 0-.23.51c0 .2.07.36.22.47.15.12.36.17.62.17.22 0 .41-.05.58-.14.16-.1.29-.23.38-.41s.13-.39.13-.63h.26c0 .52-.12.94-.35 1.25s-.58.47-1.03.47Zm1.15-.09-.03-.63v-1.4c0-.3-.03-.55-.1-.75s-.17-.35-.32-.45-.33-.15-.56-.15c-.21 0-.39.04-.54.13-.15.08-.28.22-.37.4l-.55-.21c.1-.18.21-.33.35-.47s.3-.23.49-.3.4-.1.63-.1c.36 0 .66.07.89.21s.41.35.53.62.17.62.17 1.02v2.09h-.58Z" fill="#fffcef"/>
        <path d="M99.35 65.39V60h.58l.04.71v4.68zm1.92-1.45c-.32 0-.61-.08-.85-.25s-.43-.41-.57-.71-.2-.66-.2-1.05.07-.75.2-1.06c.13-.3.32-.54.57-.71.24-.17.53-.25.85-.25.34 0 .65.08.91.25s.47.41.61.71c.15.3.22.66.22 1.06s-.07.75-.22 1.05-.35.54-.61.71-.56.25-.91.25m-.14-.56c.24 0 .46-.06.64-.18q.285-.18.45-.51c.11-.22.17-.47.17-.76s-.05-.53-.16-.75c-.1-.22-.25-.39-.44-.52-.19-.12-.4-.19-.65-.19-.23 0-.43.06-.6.19q-.27.18-.42.51c-.1.22-.15.47-.15.76s.05.53.15.75.24.39.41.52q.255.18.6.18" fill="#fffcef"/>
        <path d="M103.86 63.85V60h.62v3.85zm.34-2.09c0-.42.08-.75.24-1.01s.36-.45.61-.58.51-.19.79-.19v.58c-.23 0-.44.04-.65.11-.21.08-.38.2-.51.37s-.2.4-.2.69z" fill="#fffcef"/>
        <path d="M108.17 63.94c-.38 0-.71-.09-1-.26s-.52-.41-.68-.71c-.17-.3-.25-.65-.25-1.05s.08-.75.24-1.05.39-.54.68-.71.62-.26 1-.26.71.09 1 .26.52.41.68.71q.24.45.24 1.05c0 .6-.08.74-.24 1.05-.16.3-.39.54-.67.71-.29.17-.62.26-.99.26Zm0-.57c.25 0 .47-.06.67-.18q.285-.18.45-.51c.11-.22.17-.47.17-.75s-.05-.53-.17-.75a1.2 1.2 0 0 0-.46-.51c-.2-.12-.42-.18-.68-.18s-.47.06-.67.18c-.19.12-.34.29-.46.51s-.17.47-.17.75.05.53.17.75c.11.22.26.39.46.51s.42.18.67.18Z" fill="#fffcef"/>
        <path d="M110.93 63.85V60h.58l.03.54c.12-.21.27-.36.45-.47s.4-.16.65-.16c.31 0 .57.07.79.22.22.14.38.36.47.65.11-.28.27-.5.47-.65.21-.15.46-.22.74-.22.43 0 .77.14 1.02.43s.37.72.37 1.31v2.2h-.62v-1.97q0-.57-.12-.87c-.08-.2-.19-.34-.32-.41a1 1 0 0 0-.46-.11c-.3 0-.54.12-.71.36s-.25.58-.25 1.01v1.99h-.62v-1.97q0-.57-.12-.87c-.08-.2-.19-.34-.32-.41-.14-.07-.29-.11-.47-.11-.3 0-.53.12-.7.36s-.25.58-.25 1.01v1.99h-.62Z" fill="#fffcef"/>
        <path d="M119.19 63.94c-.38 0-.71-.09-1-.26s-.52-.41-.68-.71c-.17-.3-.25-.65-.25-1.05s.08-.75.24-1.05.39-.54.68-.71.62-.26 1-.26.71.09 1 .26.52.41.68.71q.24.45.24 1.05c0 .6-.08.74-.24 1.05-.16.3-.39.54-.67.71-.29.17-.62.26-.99.26Zm-.01-.57c.25 0 .47-.06.67-.18q.285-.18.45-.51c.11-.22.17-.47.17-.75s-.05-.53-.17-.75a1.2 1.2 0 0 0-.46-.51c-.2-.12-.42-.18-.68-.18s-.47.06-.67.18c-.19.12-.34.29-.46.51s-.17.47-.17.75.05.53.17.75c.11.22.26.39.46.51s.42.18.67.18Z" fill="#fffcef"/>
        <path d="M122.99 63.85 121.38 60h.64l1.57 3.85zm.04 0L124.6 60h.65l-1.61 3.85z" fill="#fffcef"/>
        <path d="M127.45 63.94c-.38 0-.71-.09-.99-.26s-.51-.41-.67-.71q-.24-.45-.24-1.05c0-.6.08-.75.24-1.05s.38-.54.67-.71.61-.26.98-.26.67.09.93.27.46.42.61.74c.14.32.22.69.22 1.12h-3.18l.15-.13c0 .31.05.57.17.79.11.22.27.39.46.5.2.12.43.17.69.17.27 0 .5-.06.69-.19s.33-.3.44-.51l.53.27c-.1.2-.23.38-.39.52-.16.15-.35.26-.57.35s-.46.12-.73.12Zm-1.25-2.3-.16-.12h2.66l-.16.13c0-.25-.05-.46-.14-.64q-.15-.27-.39-.42-.255-.15-.57-.15c-.315 0-.41.05-.6.15s-.34.24-.45.41c-.12.18-.17.39-.17.64Z" fill="#fffcef"/>
        <path d="M129.96 63.85V60h.62v3.85zm.34-2.09c0-.42.08-.75.24-1.01s.36-.45.61-.58.51-.19.79-.19v.58c-.23 0-.44.04-.65.11-.21.08-.38.2-.51.37s-.2.4-.2.69z" fill="#fffcef"/>
        <path d="M136.18 63.94c-.38 0-.71-.09-1.01-.26-.29-.17-.52-.41-.68-.71-.17-.3-.25-.65-.25-1.05s.08-.75.24-1.05.39-.54.68-.71.62-.26 1-.26.71.09 1 .26.52.41.68.71q.24.45.24 1.05c0 .6-.08.74-.24 1.05-.16.3-.39.54-.67.71-.29.17-.62.26-.99.26m-.01-.57c.25 0 .47-.06.67-.18s.34-.29.46-.51c.11-.22.16-.47.16-.75s-.05-.53-.16-.75a1.2 1.2 0 0 0-.46-.51c-.2-.12-.42-.18-.68-.18s-.47.06-.67.18c-.19.12-.34.29-.46.51-.11.22-.16.47-.16.75s.05.53.16.75.27.39.46.51.42.18.67.18Z" fill="#fffcef"/>
        <path d="M140.84 63.85v-5.39h.62v4.67l-.03.72h-.58Zm1.91.09c-.32 0-.61-.08-.85-.25s-.43-.41-.57-.71-.2-.66-.2-1.05.07-.75.2-1.06c.13-.3.32-.54.57-.71.24-.17.53-.25.85-.25.34 0 .65.08.91.25s.46.41.61.71.22.66.22 1.06-.07.75-.22 1.05-.35.54-.61.71-.57.25-.91.25m-.14-.56c.24 0 .46-.06.64-.18q.285-.18.45-.51c.11-.22.17-.47.17-.76s-.05-.53-.16-.75-.25-.39-.44-.52c-.19-.12-.4-.19-.65-.19-.22 0-.43.06-.6.19q-.27.18-.42.51c-.15.33-.15.47-.15.76s.05.53.15.75.24.39.41.52c.17.12.38.18.6.18" fill="#fffcef"/>
        <path d="M147.03 63.94c-.38 0-.71-.09-.99-.26-.29-.17-.51-.41-.67-.71q-.24-.45-.24-1.05c0-.6.08-.75.24-1.05s.38-.54.67-.71c.28-.17.61-.26.98-.26s.67.09.93.27.46.42.61.74c.14.32.21.69.21 1.12h-3.18l.15-.13c0 .31.05.57.16.79s.27.39.47.5c.2.12.43.17.69.17.27 0 .5-.06.69-.19s.33-.3.43-.51l.53.27c-.1.2-.23.38-.39.52-.16.15-.35.26-.57.35-.22.08-.46.12-.73.12Zm-1.24-2.3-.16-.12h2.66l-.16.13c0-.25-.05-.46-.15-.64s-.23-.32-.39-.42q-.24-.15-.57-.15c-.33 0-.41.05-.6.15s-.34.24-.46.41c-.12.18-.17.39-.17.64" fill="#fffcef"/>
        <path d="M149.55 63.85V60h.58l.03.54c.12-.21.27-.36.45-.47.19-.11.4-.16.65-.16.31 0 .57.07.79.22.22.14.38.36.47.65.11-.28.27-.5.47-.65.21-.15.46-.22.74-.22.43 0 .77.14 1.02.43s.37.72.37 1.31v2.2h-.62v-1.97q0-.57-.12-.87c-.12-.3-.19-.34-.32-.41a1 1 0 0 0-.46-.11c-.3 0-.54.12-.71.36s-.25.58-.25 1.01v1.99h-.62v-1.97q0-.57-.12-.87c-.08-.2-.19-.34-.32-.41-.14-.07-.29-.11-.47-.11-.3 0-.53.12-.7.36s-.25.58-.25 1.01v1.99h-.62Z" fill="#fffcef"/>
        <path d="M156.01 61.84v-.56h2.31v.56z" fill="#fffcef"/>
        <path d="M161 63.94c-.38 0-.71-.09-.99-.26s-.51-.41-.67-.71-.24-.65-.24-1.05.08-.75.24-1.05.38-.54.67-.71.61-.26.98-.26.67.09.93.27.46.42.61.74c.14.32.22.69.22 1.12h-3.18l.15-.13c0 .31.05.57.17.79.11.22.27.39.46.5.2.12.43.17.69.17.27 0 .5-.06.69-.19s.33-.3.44-.51l.53.27c-.1.2-.23.38-.39.52-.16.15-.35.26-.57.35s-.46.12-.73.12Zm-1.25-2.3-.16-.12h2.66l-.16.13c0-.25-.05-.46-.14-.64q-.15-.27-.39-.42-.255-.15-.57-.15c-.315 0-.41.05-.6.15s-.34.24-.45.41c-.12.18-.17.39-.17.64Z" fill="#fffcef"/>
        <path d="M164.87 63.94c-.28 0-.53-.04-.74-.13-.21-.08-.39-.2-.53-.33s-.24-.29-.3-.45l.54-.22a1.08 1.08 0 0 0 .97.58c.24 0 .44-.05.61-.14a.45.45 0 0 0 .25-.4c0-.16-.06-.29-.18-.38s-.3-.18-.54-.24l-.37-.1c-.35-.09-.62-.23-.82-.42s-.29-.4-.29-.64c0-.36.12-.65.36-.85s.6-.3 1.07-.3c.23 0 .43.03.62.1.18.07.34.16.48.28.13.12.23.26.29.43l-.54.24a.73.73 0 0 0-.33-.38 1.2 1.2 0 0 0-.56-.12c-.24 0-.42.05-.55.15s-.2.24-.2.42c0 .1.06.2.17.29s.27.16.49.22l.38.1q.375.09.63.27c.17.12.3.26.38.41.09.15.13.32.13.49 0 .23-.06.43-.19.6-.12.17-.29.3-.5.39s-.45.13-.72.13Z" fill="#fffcef"/>
        <path d="M166.71 60.54v-.55h2.44v.55zm1.84 3.4c-.38 0-.67-.1-.87-.29s-.31-.47-.31-.82V58.8h.62v3.97c0 .2.05.35.16.45.11.11.25.16.44.16.06 0 .12 0 .18-.03.06-.02.14-.06.23-.13l.24.5a1.2 1.2 0 0 1-.69.23Z" fill="#fffcef"/>
        <path d="M171.21 63.94c-.45 0-.8-.1-1.06-.31s-.38-.5-.38-.87q0-.585.39-.9c.26-.21.62-.31 1.09-.31h1.1v.52h-.96c-.36 0-.61.06-.77.18s-.23.29-.23.51c0 .2.07.36.22.47s.36.17.62.17c.22 0 .41-.05.58-.14.16-.1.29-.23.38-.41s.13-.39.13-.63h.26c0 .52-.12.94-.35 1.25s-.58.47-1.03.47Zm1.16-.09-.03-.63v-1.4c0-.3-.03-.55-.1-.75s-.17-.35-.32-.45c-.14-.1-.33-.15-.56-.15-.21 0-.39.04-.54.13-.15.08-.28.22-.38.4l-.55-.21c.1-.18.21-.33.35-.47s.3-.23.48-.3c.19-.07.4-.1.63-.1.36 0 .65.07.89.21.23.14.41.35.53.62s.17.62.17 1.02v2.09h-.58Z" fill="#fffcef"/>
        <path d="M173.92 63.85V60h.62v3.85zm.34-2.09c0-.42.08-.75.24-1.01s.36-.45.61-.58.51-.19.79-.19v.58c-.22 0-.44.04-.65.11-.21.08-.38.2-.51.37s-.2.4-.2.69z" fill="#fffcef"/>
        <path d="M179.94 63.94c-.34 0-.65-.08-.91-.25s-.47-.41-.61-.71-.22-.66-.22-1.05.07-.75.22-1.06c.15-.3.35-.54.61-.71s.56-.25.91-.25c.32 0 .61.08.85.25s.43.41.56.71.2.66.2 1.06-.07.75-.2 1.05c-.13.31-.32.54-.56.71s-.53.25-.85.25m.14-.56c.22 0 .43-.06.6-.18.18-.12.31-.3.41-.52q.15-.33.15-.75c0-.42-.05-.53-.15-.75s-.24-.39-.41-.52c-.17-.12-.38-.19-.61-.19-.24 0-.46.06-.64.19-.19.12-.34.29-.44.52s-.16.47-.16.75.05.53.16.75.26.39.45.52c.19.12.4.18.65.18Zm1.19.47-.03-.72v-4.67h.62v5.39z" fill="#fffcef"/>
        <path d="M184.64 63.94c-.38 0-.71-.09-1-.26s-.52-.41-.68-.71-.25-.65-.25-1.05.08-.75.24-1.05.39-.54.68-.71.62-.26 1-.26.71.09 1 .26.52.41.68.71.24.65.24 1.05-.08.74-.24 1.05-.39.54-.67.71-.62.26-.99.26Zm0-.57c.25 0 .47-.06.67-.18q.285-.18.45-.51c.11-.22.17-.47.17-.75s-.05-.53-.17-.75a1.2 1.2 0 0 0-.46-.51c-.2-.12-.42-.18-.68-.18s-.47.06-.67.18c-.19.12-.35.29-.46.51s-.17.47-.17.75.05.53.17.75c.11.22.26.39.46.51s.42.18.67.18Z" fill="#fffcef"/>
        <path d="M190.65 63.94c-.28 0-.53-.04-.74-.13-.21-.08-.39-.2-.53-.33q-.21-.21-.3-.45l.54-.22c.09.17.22.32.39.42s.37.16.58.16c.24 0 .44-.05.61-.14s.25-.23.25-.4c0-.16-.06-.29-.18-.38q-.18-.15-.54-.24l-.37-.1c-.35-.09-.62-.23-.82-.42-.19-.19-.29-.4-.29-.64 0-.36.12-.65.36-.85s.59-.3 1.07-.3c.23 0 .43.03.62.1s.34.16.48.28c.13.12.23.26.29.43l-.54.24c-.07-.17-.18-.3-.33-.38s-.34-.12-.56-.12c-.24 0-.42.05-.55.15s-.2.24-.2.42c0 .1.05.2.17.29.11.09.27.16.49.22l.38.1q.375.09.63.27c.17.12.3.26.39.41s.13.32.13.49c0 .23-.06.43-.19.6-.12.17-.29.3-.5.39s-.45.13-.72.13Z" fill="#fffcef"/>
        <path d="M194.58 63.94c-.38 0-.71-.09-.99-.26s-.51-.41-.67-.71-.24-.65-.24-1.05.08-.75.24-1.05.38-.54.67-.71.61-.26.98-.26.67.09.93.27.46.42.61.74c.14.32.22.69.22 1.12h-3.18l.15-.13c0 .31.05.57.17.79.11.22.27.39.46.5.2.12.43.17.69.17.27 0 .5-.06.69-.19s.33-.3.44-.51l.53.27c-.1.2-.23.38-.39.52-.16.15-.35.26-.57.35s-.46.12-.73.12Zm-1.25-2.3-.16-.12h2.66l-.16.13c0-.25-.05-.46-.14-.64q-.15-.27-.39-.42-.255-.15-.57-.15c-.315 0-.41.05-.6.15s-.34.24-.45.41c-.12.18-.17.39-.17.64Z" fill="#fffcef"/>
        <path d="M196.99 61.97V60h.62v1.97zm.62 0c0 .38.04.67.13.87s.21.34.37.41.33.11.53.11q.495 0 .78-.36c.19-.24.28-.58.28-1.01h.3c0 .41-.06.75-.18 1.05-.12.29-.29.52-.51.67s-.5.23-.82.23c-.3 0-.56-.06-.79-.18s-.4-.31-.52-.58-.19-.61-.19-1.03v-.18zm2.13 1.88-.04-.71V60h.62v3.85z" fill="#fffcef"/>
        <path d="M95 72.51a1.64 1.64 0 0 1-1.52-.94c-.15-.3-.22-.63-.22-1.01s.07-.73.22-1.03c.15-.29.35-.52.61-.69s.56-.25.91-.25c.32 0 .61.08.85.25q.36.24.57.69c.14.3.2.64.2 1.03s-.07.72-.2 1.02c-.14.29-.32.52-.57.68-.24.17-.52.25-.85.25m.02 1.67c-.25 0-.47-.02-.67-.07s-.38-.1-.52-.16q-.21-.09-.3-.15l.23-.5c.07.04.16.08.29.13.12.05.27.1.43.14s.34.06.54.06c.25 0 .47-.05.67-.15s.35-.26.46-.47.17-.49.17-.82V68.7h.62v3.48c0 .44-.08.81-.25 1.11s-.39.52-.68.67-.61.22-.98.22Zm.13-2.2c.23 0 .43-.06.6-.19.17-.12.31-.29.41-.5s.15-.46.15-.74-.05-.51-.15-.73c-.1-.21-.24-.38-.41-.5q-.255-.18-.6-.18c-.345 0-.46.06-.64.18-.19.12-.33.29-.44.5-.1.21-.16.46-.16.73s.05.53.16.74.26.38.44.5c.19.12.4.19.64.19" fill="#fffcef"/>
        <path d="M99.22 72.64c-.45 0-.8-.1-1.06-.31-.25-.21-.38-.5-.38-.87q0-.585.39-.9c.26-.21.62-.31 1.09-.31h1.1v.52h-.96c-.36 0-.61.06-.77.18a.62.62 0 0 0-.23.51c0 .2.07.36.22.47.15.12.36.17.62.17.22 0 .41-.05.58-.14.16-.09.29-.23.38-.41s.13-.39.13-.63h.26c0 .52-.12.94-.35 1.25s-.58.47-1.03.47Zm1.15-.1-.03-.63v-1.4c0-.3-.03-.55-.1-.75s-.17-.35-.32-.45-.33-.15-.56-.15c-.21 0-.39.04-.54.13s-.28.22-.37.4l-.55-.22c.1-.18.21-.33.35-.47s.3-.23.49-.3.4-.1.63-.1c.36 0 .66.07.89.21s.41.35.53.62.17.61.17 1.02v2.09h-.58Z" fill="#fffcef"/>
        <path d="M101.53 69.24v-.55h2.44v.55zm1.85 3.4c-.37 0-.67-.1-.87-.29-.21-.19-.31-.47-.31-.82V67.5h.62v3.96c0 .2.05.35.16.45.11.11.25.16.44.16.06 0 .12 0 .18-.03.06-.02.14-.06.23-.13l.24.5a1.2 1.2 0 0 1-.69.23" fill="#fffcef"/>
        <path d="M106.52 72.64c-.38 0-.71-.09-1-.26s-.52-.41-.68-.71c-.17-.3-.25-.65-.25-1.05s.08-.74.24-1.05c.16-.3.39-.54.68-.71s.62-.26 1-.26.71.09 1 .26.52.41.68.71q.24.45.24 1.05c0 .6-.08.74-.24 1.05-.16.3-.39.54-.67.71-.29.17-.62.26-.99.26Zm0-.57c.25 0 .47-.06.67-.18q.285-.18.45-.51c.11-.22.17-.47.17-.75s-.05-.53-.17-.75a1.2 1.2 0 0 0-.46-.51c-.2-.12-.42-.18-.68-.18s-.47.06-.67.18-.34.29-.46.51c-.11.22-.17.47-.17.75s.05.53.17.75c.11.22.26.39.46.51s.42.18.67.18Z" fill="#fffcef"/>
        <path d="M110.78 69.24v-.55h2.44v.55zm1.85 3.4c-.37 0-.67-.1-.87-.29-.21-.19-.31-.47-.31-.82V67.5h.62v3.96c0 .2.05.35.16.45.11.11.25.16.44.16.06 0 .12 0 .18-.03.06-.02.14-.06.23-.13l.24.5a1.2 1.2 0 0 1-.69.23" fill="#fffcef"/>
        <path d="M115.78 72.64c-.38 0-.71-.09-1-.26s-.52-.41-.68-.71c-.17-.3-.25-.65-.25-1.05s.08-.74.24-1.05c.16-.3.39-.54.68-.71s.62-.26 1-.26.71.09 1 .26.52.41.68.71q.24.45.24 1.05c0 .6-.08.74-.24 1.05-.16.3-.39.54-.67.71-.29.17-.62.26-.99.26Zm-.01-.57c.25 0 .47-.06.67-.18q.285-.18.45-.51c.11-.22.17-.47.17-.75s-.05-.53-.17-.75a1.2 1.2 0 0 0-.46-.51c-.2-.12-.42-.18-.68-.18s-.47.06-.67.18-.34.29-.46.51c-.11.22-.17.47-.17.75s.05.53.17.75c.11.22.26.39.46.51s.42.18.67.18Z" fill="#fffcef"/>
        <path d="M120.05 72.64c-.34 0-.65-.08-.91-.25s-.47-.41-.61-.71c-.15-.3-.22-.66-.22-1.05s.07-.75.22-1.05.35-.54.61-.71.56-.25.91-.25c.32 0 .61.08.85.25s.43.41.57.71.2.65.2 1.05-.07.75-.2 1.05c-.13.31-.32.54-.57.71-.24.17-.53.25-.85.25m.14-.56q.345 0 .6-.18c.255-.18.31-.29.41-.52q.15-.33.15-.75c0-.42-.05-.53-.15-.75s-.24-.39-.41-.52-.38-.18-.61-.18-.46.06-.64.18-.33.29-.44.52c-.11.22-.16.47-.16.75s.05.53.16.75.26.39.45.52c.19.12.41.18.65.18Zm1.2.46-.03-.72v-4.67h.62v5.39z" fill="#fffcef"/>
        <path d="M124.76 72.64c-.38 0-.71-.09-1-.26s-.52-.41-.68-.71c-.17-.3-.25-.65-.25-1.05s.08-.74.24-1.05c.16-.3.39-.54.68-.71s.62-.26 1-.26.71.09 1 .26.52.41.68.71q.24.45.24 1.05c0 .6-.08.74-.24 1.05-.16.3-.39.54-.67.71-.29.17-.62.26-.99.26Zm-.01-.57c.25 0 .47-.06.67-.18q.285-.18.45-.51c.11-.22.16-.47.16-.75s-.05-.53-.16-.75a1.2 1.2 0 0 0-.46-.51c-.2-.12-.42-.18-.68-.18s-.47.06-.67.18-.34.29-.46.51c-.11.22-.17.47-.17.75s.05.53.17.75c.11.22.26.39.46.51s.42.18.67.18Z" fill="#fffcef"/>
        <path d="M128.86 72.64c-.28 0-.53-.04-.74-.13-.21-.08-.39-.2-.53-.33q-.21-.21-.3-.45l.54-.22c.09.17.22.32.39.42.17.11.37.16.58.16.24 0 .44-.05.61-.14a.45.45 0 0 0 .25-.4c0-.16-.06-.29-.18-.38q-.18-.15-.54-.24l-.37-.1c-.35-.09-.62-.23-.82-.42-.19-.19-.29-.4-.29-.63 0-.36.12-.65.36-.85s.59-.3 1.07-.3c.23 0 .43.03.62.1s.34.16.48.28c.13.12.23.26.29.43l-.54.24c-.07-.17-.18-.3-.33-.38s-.34-.12-.56-.12c-.24 0-.42.05-.55.15s-.2.24-.2.42c0 .1.05.2.17.29.11.09.27.16.49.22l.38.1q.375.09.63.27c.17.12.3.26.39.41s.13.32.13.49c0 .23-.06.43-.19.6-.12.17-.29.3-.5.39s-.45.13-.72.13Z" fill="#fffcef"/>
        <path d="M134.71 72.64c-.38 0-.71-.09-1.01-.26-.29-.17-.52-.41-.68-.71-.17-.3-.25-.65-.25-1.05s.08-.74.24-1.05c.16-.3.39-.54.68-.71s.62-.26 1-.26.71.09 1 .26.52.41.68.71q.24.45.24 1.05c0 .6-.08.74-.24 1.05-.16.3-.39.54-.67.71-.29.17-.62.26-.99.26m0-.57c.25 0 .47-.06.67-.18s.34-.29.46-.51c.11-.22.16-.47.16-.75s-.05-.53-.16-.75-.26-.39-.46-.51-.42-.18-.68-.18-.47.06-.67.18c-.19.12-.34.29-.46.51-.11.22-.16.47-.16.75s.05.53.16.75.27.39.46.51.42.18.67.18Z" fill="#fffcef"/>
        <path d="M138.82 72.64c-.28 0-.53-.04-.74-.13-.21-.08-.39-.2-.53-.33q-.21-.21-.3-.45l.54-.22c.09.17.22.32.39.42.17.11.37.16.58.16.24 0 .44-.05.61-.14a.45.45 0 0 0 .25-.4c0-.16-.06-.29-.18-.38q-.18-.15-.54-.24l-.37-.1c-.35-.09-.62-.23-.82-.42-.19-.19-.29-.4-.29-.63 0-.36.12-.65.36-.85s.59-.3 1.07-.3c.23 0 .43.03.62.1s.34.16.48.28c.13.12.23.26.29.43l-.54.24c-.07-.17-.18-.3-.33-.38s-.34-.12-.56-.12c-.24 0-.42.05-.55.15s-.2.24-.2.42c0 .1.05.2.17.29.11.09.27.16.49.22l.38.1q.375.09.63.27c.17.12.3.26.39.41s.13.32.13.49c0 .23-.06.43-.19.6-.12.17-.29.3-.5.39s-.45.13-.72.13Z" fill="#fffcef"/>
        <path d="M144.47 72.64c-.34 0-.65-.08-.91-.25s-.46-.41-.61-.71-.22-.66-.22-1.05.07-.75.22-1.05.35-.54.61-.71.56-.25.91-.25c.32 0 .61.08.85.25s.43.41.57.71c.13.3.2.65.2 1.05s-.07.75-.2 1.05c-.13.31-.32.54-.57.71-.24.17-.53.25-.85.25m.14-.56q.345 0 .6-.18c.17-.12.31-.29.41-.52s.15-.47.15-.75-.05-.53-.15-.75-.24-.39-.41-.52c-.18-.12-.38-.18-.61-.18s-.46.06-.64.18-.33.29-.44.52c-.11.22-.16.47-.16.75s.05.53.16.75.26.39.45.52.41.18.65.18Zm1.2.46-.03-.72v-4.67h.62v5.39z" fill="#fffcef"/>
        <path d="M147.82 67.8q-.15 0-.27-.12t-.12-.27c0-.15.04-.2.12-.27s.17-.11.27-.11.2.04.27.11.11.17.11.27-.04.19-.11.27-.17.12-.27.12m-.31 4.74v-3.85h.62v3.85z" fill="#fffcef"/>
        <path d="M150.47 72.64c-.45 0-.8-.1-1.06-.31-.25-.21-.38-.5-.38-.87q0-.585.39-.9c.39-.315.62-.31 1.09-.31h1.1v.52h-.96c-.36 0-.62.06-.77.18a.62.62 0 0 0-.23.51c0 .2.07.36.22.47.15.12.36.17.62.17.22 0 .41-.05.58-.14.16-.09.29-.23.38-.41s.13-.39.13-.63h.26c0 .52-.12.94-.36 1.25s-.58.47-1.03.47Zm1.16-.1-.03-.63v-1.4c0-.3-.03-.55-.1-.75a.9.9 0 0 0-.31-.45c-.14-.1-.33-.15-.56-.15-.21 0-.39.04-.54.13-.15.08-.28.22-.37.4l-.55-.22c.1-.18.21-.33.35-.47s.3-.23.49-.3c.18-.07.39-.1.63-.1.36 0 .66.07.89.21s.41.35.53.62.18.61.17 1.02v2.09h-.58Z" fill="#fffcef"/>
        <path d="M154.53 72.64c-.28 0-.53-.04-.74-.13s-.39-.2-.53-.33-.24-.29-.3-.45l.54-.22a1.08 1.08 0 0 0 .97.58c.24 0 .44-.05.61-.14a.45.45 0 0 0 .25-.4c0-.16-.06-.29-.18-.38s-.3-.18-.54-.24l-.37-.1c-.35-.09-.62-.23-.82-.42s-.29-.4-.29-.63c0-.36.12-.65.36-.85s.6-.3 1.07-.3c.23 0 .43.03.62.1.18.07.34.16.48.28.13.12.23.26.29.43l-.54.24a.73.73 0 0 0-.33-.38 1.2 1.2 0 0 0-.56-.12c-.24 0-.42.05-.55.15s-.2.24-.2.42c0 .1.06.2.17.29s.27.16.49.22l.38.1q.375.09.63.27c.17.12.3.26.38.41s.13.32.13.49c0 .23-.06.43-.19.6-.12.17-.29.3-.5.39s-.45.13-.72.13Z" fill="#fffcef"/>
        <path d="M157.03 72.65a.38.38 0 0 1-.3-.13c-.08-.08-.13-.18-.13-.3s.04-.22.13-.3c.08-.08.19-.13.3-.13s.22.04.3.13c.08.08.12.19.12.3s-.04.21-.12.3c-.08.08-.18.13-.3.13" fill="#fffcef"/>
        <path fill="#fffcef" d="M82.73 39.5c0 15.215-12.335 27.55-27.55 27.55S27.63 54.715 27.63 39.5s12.335-27.55 27.55-27.55S82.73 24.285 82.73 39.5"/>
        <path d="M61.23 43.54c.18-.21.27-.48.23-.76a.93.93 0 0 0-.41-.67l-1.25-.85c.07-.3-.04-.63-.3-.83l-2.36-1.73-2.25-1.65-.64-.47.32-.47c.13-.19.08-.44-.11-.57a.406.406 0 0 0-.57.11l-.3.45-.27-.2-4.43-3.26c-.9-.66-2.16-.45-2.79.48-.63.92-.36 2.17.58 2.77l4.67 2.92.29.18-.3.45c-.13.19-.08.44.11.57s.44.08.57-.11l.32-.47.13.08 2.4 1.5 2.99 1.88c.28.18.63.16.88-.02l1.23.84c.17.11.37.17.56.17.27 0 .53-.11.71-.32Zm-5.97-2.96-2.4-1.5-.22-.14 1.29-1.9.56.41 2.25 1.65.59.43c-.58.76-1.38 1.06-1.87 1.17l-.19-.12Z" fill="none" stroke="#00578a" stroke-miterlimit="10"/>
        <path d="M60.52 48.94c.52.6 1.41.6 1.92 0 .5-.58.71-1.76-.96-4.08-1.68 2.32-1.47 3.5-.96 4.08Z" fill="none" stroke="#00578a" stroke-miterlimit="10"/>
        <path fill="none" stroke="#00578a" stroke-miterlimit="10" d="M72.13 39.45c0 9.361-7.589 16.95-16.95 16.95s-16.95-7.589-16.95-16.95S45.819 22.5 55.18 22.5s16.95 7.589 16.95 16.95z"/>
        <path fill="none" stroke="#00578a" stroke-miterlimit="10" d="m43.24 51.39 23.87-23.87"/>
    </g>
</svg>
