<?xml version="1.0" encoding="UTF-8"?>
<svg data-bbox="20.43 15.13 182.52 55.1" viewBox="0 0 250 100" xmlns="http://www.w3.org/2000/svg" data-type="color">
    <g>
        <path d="M87.93 30.58c-.54 0-1.02-.12-1.43-.36s-.74-.57-.97-.99c-.24-.42-.35-.9-.35-1.44s.12-1.03.35-1.44.56-.75.97-.99.89-.36 1.43-.36c.42 0 .79.07 1.12.22s.62.34.86.6.43.55.55.89l-1.36.43c-.07-.17-.16-.32-.28-.44a1.2 1.2 0 0 0-.91-.39c-.25 0-.47.06-.67.19-.2.12-.35.3-.46.52s-.17.48-.17.77.06.54.17.77c.11.22.27.4.47.52.2.13.42.19.68.19.2 0 .37-.03.52-.1s.27-.17.38-.29.2-.27.27-.44l1.36.43c-.12.34-.31.64-.55.9s-.53.46-.87.6-.72.22-1.13.22Z" fill="#fffcef" data-color="1"/>
        <path d="M93.27 30.58c-.48 0-.89-.09-1.23-.26s-.61-.42-.79-.75-.27-.71-.27-1.17v-3.3h1.42v3.3c0 .18.04.33.11.46s.17.23.3.29.29.1.47.1.34-.03.48-.1a.7.7 0 0 0 .3-.29c.07-.13.1-.28.1-.46v-3.3h1.42v3.3c0 .45-.09.84-.28 1.17-.18.33-.45.58-.8.75s-.76.26-1.25.26Z" fill="#fffcef" data-color="1"/>
        <path d="M96.44 30.49V25.1h1.42v5.39z" fill="#fffcef" data-color="1"/>
        <path d="M98.79 30.49V25.1h1.8c.59 0 1.11.12 1.57.35.45.23.81.55 1.07.95s.38.87.38 1.4-.13.99-.38 1.39c-.26.41-.61.72-1.07.96-.46.23-.98.35-1.57.35h-1.8Zm1.43-1.35h.38c.23 0 .43-.03.62-.1s.35-.16.49-.28.25-.26.32-.42c.08-.16.12-.35.12-.55s-.04-.38-.12-.55c-.08-.16-.19-.3-.32-.42-.14-.12-.3-.21-.49-.28s-.4-.1-.62-.1h-.38z" fill="#fffcef" data-color="1"/>
        <path d="m103.86 30.49 2.06-5.39h1.42l-1.97 5.39zm.97-.86v-1.25h3.73v1.25zm3.18.86-1.97-5.39h1.42l2.06 5.39z" fill="#fffcef" data-color="1"/>
        <path d="M110.03 30.49V25.1h1.8c.59 0 1.11.12 1.57.35.45.23.81.55 1.07.95s.38.87.38 1.4-.13.99-.38 1.39c-.26.41-.61.72-1.07.96-.46.23-.98.35-1.57.35h-1.8Zm1.43-1.35h.38c.23 0 .43-.03.62-.1s.35-.16.49-.28.25-.26.32-.42c.08-.16.12-.35.12-.55s-.04-.38-.12-.55c-.08-.16-.19-.3-.32-.42-.14-.12-.3-.21-.49-.28s-.4-.1-.62-.1h-.38z" fill="#fffcef" data-color="1"/>
        <path d="M118.13 30.58q-.84 0-1.5-.36c-.66-.36-.77-.57-1.02-.99s-.37-.9-.37-1.44.12-1.03.37-1.44c.25-.42.58-.75 1.02-.99.43-.24.93-.36 1.49-.36s1.06.12 1.49.36q.645.36 1.02.99c.25.42.37.9.37 1.44s-.12 1.02-.37 1.44c-.24.42-.58.75-1.01.99s-.93.36-1.49.36m0-1.31c.28 0 .52-.06.73-.19s.38-.3.49-.52c.12-.22.18-.47.18-.76s-.06-.54-.18-.77c-.12-.22-.29-.4-.5-.52-.21-.13-.46-.19-.74-.19s-.51.06-.73.19c-.21.12-.38.3-.5.52s-.18.48-.18.77.06.54.18.76.29.39.5.52.46.19.74.19Z" fill="#fffcef" data-color="1"/>
        <path d="M123.42 30.49V25.1h1.8c.59 0 1.11.12 1.57.35.45.23.81.55 1.07.95s.38.87.38 1.4-.13.99-.38 1.39c-.26.41-.61.72-1.07.96-.46.23-.98.35-1.57.35h-1.8Zm1.42-1.35h.38c.23 0 .43-.03.62-.1s.35-.16.49-.28.25-.26.32-.42c.08-.16.12-.35.12-.55s-.04-.38-.12-.55c-.08-.16-.19-.3-.32-.42-.14-.12-.3-.21-.49-.28s-.4-.1-.62-.1h-.38z" fill="#fffcef" data-color="1"/>
        <path d="M128.89 30.49V25.1h3.61v1.31h-2.19v.75h1.77v1.27h-1.77v.75h2.24v1.31h-3.67Z" fill="#fffcef" data-color="1"/>
        <path d="M133.4 30.49V25.1h1.5l2.1 2.96V25.1h1.42v5.39H137l-2.18-3.07v3.07z" fill="#fffcef" data-color="1"/>
        <path d="M140.55 30.49v-4.08h-1.52V25.1h4.47v1.31h-1.52v4.08h-1.42Z" fill="#fffcef" data-color="1"/>
        <path d="m143.21 30.49 2.06-5.39h1.42l-1.97 5.39zm.97-.86v-1.25h3.73v1.25zm3.18.86-1.97-5.39h1.42l2.06 5.39z" fill="#fffcef" data-color="1"/>
        <path d="M149.39 30.49V25.1h1.42v4.08h2.22v1.31z" fill="#fffcef" data-color="1"/>
        <path d="M87.99 39.28c-.52 0-.98-.12-1.38-.35s-.71-.56-.94-.99c-.23-.42-.34-.9-.34-1.45s.11-1.03.33-1.45.53-.75.93-.98.85-.35 1.37-.35.98.12 1.38.36q.6.36.93.99c.33.63.33.9.33 1.44s-.11 1.03-.33 1.45-.53.75-.92.99-.85.35-1.36.35Zm0-.59c.38 0 .72-.09 1.01-.28s.53-.45.69-.77c.17-.33.25-.71.25-1.14s-.08-.8-.25-1.14c-.17-.33-.4-.59-.7-.78s-.64-.28-1.02-.28-.73.09-1.02.28c-.3.19-.53.45-.7.78s-.25.71-.25 1.14.08.81.25 1.14.41.59.71.77c.3.19.65.28 1.04.28Z" fill="#fffcef" data-color="1"/>
        <path d="M93.39 39.19V33.8h.62v5.39zm2.71-1.97c0-.38-.04-.67-.13-.87s-.21-.34-.37-.41-.33-.11-.52-.11c-.34 0-.6.12-.79.36s-.28.58-.28 1.01h-.3c0-.41.06-.75.18-1.05.12-.29.29-.52.52-.67s.5-.23.82-.23c.3 0 .56.06.79.18s.4.31.53.57.19.61.18 1.03v.18h-.62Zm0 1.97v-1.97h.62v1.97z" fill="#fffcef" data-color="1"/>
        <path d="M99.38 39.28c-.38 0-.71-.09-.99-.26-.29-.17-.51-.41-.67-.71q-.24-.45-.24-1.05c0-.6.08-.74.24-1.05.16-.3.38-.54.67-.71.28-.17.61-.26.98-.26s.67.09.93.27.46.42.61.74.22.69.22 1.12h-3.18l.15-.13c0 .31.05.57.17.79s.27.39.47.5c.2.12.43.17.69.17.27 0 .5-.06.69-.19s.33-.3.43-.51l.53.27c-.1.2-.23.38-.39.52-.16.15-.35.26-.57.35-.22.08-.46.12-.73.12Zm-1.25-2.29-.16-.12h2.66l-.16.13c0-.25-.05-.46-.15-.64q-.15-.27-.39-.42c-.17-.1-.35-.15-.57-.15s-.41.05-.6.15-.34.23-.45.41c-.12.18-.17.39-.17.64Z" fill="#fffcef" data-color="1"/>
        <path d="m101.39 39.19 1.57-2.21 1.11-1.64h.73l-1.46 2.08-1.2 1.77zm2.77 0-1.19-1.77-1.48-2.08h.73l1.12 1.64 1.55 2.21h-.74Z" fill="#fffcef" data-color="1"/>
        <path d="M106.69 39.28c-.45 0-.8-.1-1.06-.31-.25-.21-.38-.5-.38-.87q0-.585.39-.9c.26-.21.62-.31 1.09-.31h1.1v.52h-.96c-.36 0-.61.06-.77.18a.62.62 0 0 0-.23.51c0 .2.07.36.22.47.15.12.36.17.62.17.22 0 .41-.05.58-.14.16-.09.29-.23.38-.41s.13-.39.13-.63h.26c0 .52-.12.94-.35 1.25s-.58.47-1.03.47Zm1.16-.09-.03-.63v-1.4c0-.3-.03-.55-.1-.75s-.17-.35-.32-.45c-.14-.1-.33-.15-.56-.15-.21 0-.39.04-.54.13s-.28.22-.37.4l-.55-.22c.1-.18.21-.33.35-.47s.3-.23.49-.3.4-.1.63-.1c.36 0 .66.07.89.21s.41.35.53.62c.12.28.17.62.17 1.02v2.09h-.58Z" fill="#fffcef" data-color="1"/>
        <path d="M109.4 39.19v-3.85h.58l.03.54c.12-.21.27-.36.45-.47s.4-.16.65-.16c.31 0 .57.07.79.22.22.14.38.36.47.65.11-.28.27-.5.47-.65.21-.15.46-.22.74-.22.43 0 .77.14 1.02.43s.37.72.37 1.31v2.2h-.62v-1.97q0-.57-.12-.87c-.08-.2-.19-.34-.32-.41a1 1 0 0 0-.46-.11c-.3 0-.54.12-.71.36s-.25.58-.25 1.01v1.99h-.62v-1.97q0-.57-.12-.87c-.08-.2-.19-.34-.32-.41-.14-.07-.29-.11-.47-.11-.3 0-.53.12-.7.36s-.25.58-.25 1.01v1.99h-.62Z" fill="#fffcef" data-color="1"/>
        <path d="M117.64 39.28c-.38 0-.71-.09-.99-.26-.29-.17-.51-.41-.67-.71q-.24-.45-.24-1.05c0-.6.08-.74.24-1.05.16-.3.38-.54.67-.71.28-.17.61-.26.98-.26s.67.09.93.27.46.42.61.74.22.69.22 1.12h-3.18l.15-.13c0 .31.05.57.17.79s.27.39.47.5c.2.12.43.17.69.17.27 0 .5-.06.69-.19s.33-.3.43-.51l.53.27c-.1.2-.23.38-.39.52-.16.15-.35.26-.57.35-.22.08-.46.12-.73.12Zm-1.25-2.29-.16-.12h2.66l-.16.13c0-.25-.05-.46-.15-.64q-.15-.27-.39-.42c-.17-.1-.35-.15-.57-.15s-.41.05-.6.15-.34.23-.45.41c-.12.18-.17.39-.17.64Z" fill="#fffcef" data-color="1"/>
        <path d="M119.76 35.88v-.55h2.44v.55zm1.85 3.4c-.37 0-.67-.1-.87-.29s-.31-.47-.31-.82v-4.03h.62v3.96c0 .2.05.35.16.45s.25.16.44.16c.06 0 .12 0 .18-.03.06-.02.14-.06.23-.13l.24.5a1.2 1.2 0 0 1-.69.23" fill="#fffcef" data-color="1"/>
        <path d="M124.26 39.28c-.45 0-.8-.1-1.06-.31-.25-.21-.38-.5-.38-.87q0-.585.39-.9c.26-.21.62-.31 1.09-.31h1.1v.52h-.96c-.36 0-.61.06-.77.18a.62.62 0 0 0-.23.51c0 .2.07.36.22.47.15.12.36.17.62.17.22 0 .41-.05.58-.14.16-.09.29-.23.38-.41s.13-.39.13-.63h.26c0 .52-.12.94-.35 1.25s-.58.47-1.03.47Zm1.16-.09-.03-.63v-1.4c0-.3-.03-.55-.1-.75s-.17-.35-.32-.45c-.14-.1-.33-.15-.56-.15-.21 0-.39.04-.54.13s-.28.22-.37.4l-.55-.22c.1-.18.21-.33.35-.47s.3-.23.49-.3.4-.1.63-.1c.36 0 .66.07.89.21s.41.35.53.62c.12.28.17.62.17 1.02v2.09h-.58Z" fill="#fffcef" data-color="1"/>
        <path d="M126.65 35.87v-.53h2.44v.53zm.71 3.32V34.9c0-.4.09-.7.28-.9s.47-.3.86-.3c.1 0 .22.02.35.05.13.04.26.09.41.15l-.23.49c-.12-.05-.22-.08-.3-.11a.6.6 0 0 0-.21-.04c-.18 0-.31.06-.4.17-.09.12-.13.29-.13.54v4.24h-.62Z" fill="#fffcef" data-color="1"/>
        <path d="M131.5 39.28c-.38 0-.71-.09-1-.26s-.52-.41-.68-.71c-.17-.3-.25-.65-.25-1.05s.08-.74.24-1.05c.16-.3.39-.54.68-.71s.62-.26 1-.26.71.09 1 .26.52.41.68.71q.24.45.24 1.05c0 .6-.08.74-.24 1.05-.16.3-.39.54-.67.71-.29.17-.62.26-.99.26Zm-.01-.57c.25 0 .47-.06.67-.18q.285-.18.45-.51c.11-.22.17-.47.17-.75s-.05-.53-.17-.75a1.2 1.2 0 0 0-.46-.51c-.2-.12-.42-.19-.68-.19s-.47.06-.67.19-.34.29-.46.51-.17.47-.17.75.05.53.17.75c.11.22.26.39.46.51s.42.18.67.18Z" fill="#fffcef" data-color="1"/>
        <path d="M135.6 39.28c-.28 0-.53-.04-.74-.13-.21-.08-.39-.2-.53-.33a1.2 1.2 0 0 1-.3-.46l.54-.22c.09.17.22.32.39.42.17.11.37.16.58.16.24 0 .44-.05.61-.14a.45.45 0 0 0 .25-.4c0-.16-.06-.29-.18-.38q-.18-.15-.54-.24l-.37-.1c-.35-.09-.62-.23-.82-.42-.19-.19-.29-.4-.29-.63 0-.36.12-.65.36-.85s.59-.3 1.07-.3c.23 0 .43.03.62.1.18.07.34.16.48.28.13.12.23.26.29.43l-.54.24a.73.73 0 0 0-.33-.38 1.2 1.2 0 0 0-.56-.12c-.24 0-.42.05-.55.15s-.2.24-.2.42c0 .1.06.2.17.29s.27.16.49.22l.38.1q.375.09.63.27c.17.12.3.26.39.41s.13.32.13.49c0 .23-.06.43-.19.6-.12.17-.29.3-.5.39s-.45.13-.72.13Z" fill="#fffcef" data-color="1"/>
        <path d="M137.52 35.87v-.53h2.44v.53zm.71 3.32V34.9c0-.4.09-.7.28-.9s.47-.3.86-.3c.1 0 .22.02.35.05.13.04.26.09.41.15l-.23.49c-.12-.05-.22-.08-.3-.11a.6.6 0 0 0-.21-.04c-.18 0-.31.06-.4.17-.09.12-.13.29-.13.54v4.24h-.62Z" fill="#fffcef" data-color="1"/>
        <path d="M141.88 39.28c-.45 0-.8-.1-1.06-.31-.25-.21-.38-.5-.38-.87q0-.585.39-.9c.26-.21.62-.31 1.09-.31h1.1v.52h-.96c-.36 0-.61.06-.77.18a.62.62 0 0 0-.23.51c0 .2.07.36.22.47.15.12.36.17.62.17.22 0 .41-.05.58-.14.16-.09.29-.23.38-.41s.13-.39.13-.63h.26c0 .52-.12.94-.35 1.25s-.58.47-1.03.47Zm1.15-.09-.03-.63v-1.4c0-.3-.03-.55-.1-.75s-.17-.35-.32-.45c-.14-.1-.33-.15-.56-.15-.21 0-.39.04-.54.13s-.28.22-.37.4l-.55-.22c.1-.18.21-.33.35-.47s.3-.23.49-.3.4-.1.63-.1c.36 0 .66.07.89.21s.41.35.53.62c.12.28.17.62.17 1.02v2.09h-.58Z" fill="#fffcef" data-color="1"/>
        <path d="M144.19 35.88v-.55h2.44v.55zm1.85 3.4c-.37 0-.67-.1-.87-.29s-.31-.47-.31-.82v-4.03h.62v3.96c0 .2.05.35.16.45s.25.16.44.16c.06 0 .12 0 .18-.03.06-.02.14-.06.23-.13l.24.5a1.2 1.2 0 0 1-.69.23" fill="#fffcef" data-color="1"/>
        <path d="M149.18 39.28c-.38 0-.71-.09-1-.26s-.52-.41-.68-.71c-.17-.3-.25-.65-.25-1.05s.08-.74.24-1.05c.16-.3.39-.54.68-.71s.62-.26 1-.26.71.09 1 .26.52.41.68.71q.24.45.24 1.05c0 .6-.08.74-.24 1.05-.16.3-.39.54-.67.71-.29.17-.62.26-.99.26Zm0-.57c.25 0 .47-.06.67-.18q.285-.18.45-.51c.11-.22.17-.47.17-.75s-.05-.53-.17-.75a1.2 1.2 0 0 0-.46-.51c-.2-.12-.42-.19-.68-.19s-.47.06-.67.19-.34.29-.46.51-.17.47-.17.75.05.53.17.75c.11.22.26.39.46.51s.42.18.67.18Z" fill="#fffcef" data-color="1"/>
        <path d="M155.36 39.28c-.34 0-.65-.08-.91-.25s-.47-.41-.61-.71-.22-.66-.22-1.05.07-.75.22-1.05.35-.54.61-.71.56-.25.91-.25c.32 0 .61.08.85.25s.43.41.57.71c.13.3.2.65.2 1.05s-.07.75-.2 1.05-.32.54-.57.71c-.24.17-.53.25-.85.25m.14-.56q.345 0 .6-.18c.255-.18.31-.29.41-.52q.15-.33.15-.75c0-.42-.05-.53-.15-.75s-.24-.39-.41-.52-.38-.18-.61-.18-.46.06-.64.18-.33.29-.44.52c-.11.22-.16.47-.16.75s.05.53.16.75.26.39.45.52c.19.12.41.18.65.18Zm1.19.47-.03-.72V33.8h.62v5.39z" fill="#fffcef" data-color="1"/>
        <path d="M160.04 39.28c-.38 0-.71-.09-.99-.26-.29-.17-.51-.41-.67-.71q-.24-.45-.24-1.05c0-.6.08-.74.24-1.05.16-.3.38-.54.67-.71.28-.17.61-.26.98-.26s.67.09.93.27.46.42.61.74.22.69.22 1.12h-3.18l.15-.13c0 .31.05.57.17.79s.27.39.47.5c.2.12.43.17.69.17.27 0 .5-.06.69-.19s.33-.3.43-.51l.53.27c-.1.2-.23.38-.39.52-.16.15-.35.26-.57.35-.22.08-.46.12-.73.12Zm-1.25-2.29-.16-.12h2.66l-.16.13c0-.25-.05-.46-.15-.64q-.15-.27-.39-.42c-.17-.1-.35-.15-.57-.15s-.41.05-.6.15-.34.23-.45.41c-.12.18-.17.39-.17.64Z" fill="#fffcef" data-color="1"/>
        <path d="M165.81 39.28c-.28 0-.53-.04-.74-.13-.21-.08-.39-.2-.53-.33a1.2 1.2 0 0 1-.3-.46l.54-.22c.09.17.22.32.39.42.17.11.37.16.58.16.24 0 .44-.05.61-.14a.45.45 0 0 0 .25-.4c0-.16-.06-.29-.18-.38q-.18-.15-.54-.24l-.37-.1c-.35-.09-.62-.23-.82-.42-.19-.19-.29-.4-.29-.63 0-.36.12-.65.36-.85s.59-.3 1.07-.3c.23 0 .43.03.62.1.18.07.34.16.48.28.13.12.23.26.29.43l-.54.24a.73.73 0 0 0-.33-.38 1.2 1.2 0 0 0-.56-.12c-.24 0-.42.05-.55.15s-.2.24-.2.42c0 .1.06.2.17.29s.27.16.49.22l.38.1q.375.09.63.27c.17.12.3.26.39.41s.13.32.13.49c0 .23-.06.43-.19.6-.12.17-.29.3-.5.39s-.45.13-.72.13Z" fill="#fffcef" data-color="1"/>
        <path d="M169.76 39.28c-.38 0-.71-.09-1-.26s-.52-.41-.68-.71c-.17-.3-.25-.65-.25-1.05s.08-.74.24-1.05c.16-.3.39-.54.68-.71s.62-.26 1-.26.71.09 1 .26.52.41.68.71q.24.45.24 1.05c0 .6-.08.74-.24 1.05-.16.3-.39.54-.67.71-.29.17-.62.26-.99.26Zm-.01-.57c.25 0 .47-.06.67-.18q.285-.18.45-.51c.11-.22.17-.47.17-.75s-.05-.53-.17-.75a1.2 1.2 0 0 0-.46-.51c-.2-.12-.42-.19-.68-.19s-.47.06-.67.19-.34.29-.46.51-.17.47-.17.75.05.53.17.75c.11.22.26.39.46.51s.42.18.67.18Zm-.54-3.92.9-.99h.79l-.99.99z" fill="#fffcef" data-color="1"/>
        <path d="M174.03 39.28c-.34 0-.65-.08-.91-.25s-.47-.41-.61-.71-.22-.66-.22-1.05.07-.75.22-1.05.35-.54.61-.71.56-.25.91-.25c.32 0 .61.08.85.25s.43.41.57.71c.13.3.2.65.2 1.05s-.07.75-.2 1.05-.32.54-.57.71c-.24.17-.53.25-.85.25m.14-.56q.345 0 .6-.18c.255-.18.31-.29.41-.52q.15-.33.15-.75c0-.42-.05-.53-.15-.75s-.24-.39-.41-.52-.38-.18-.61-.18-.46.06-.64.18-.33.29-.44.52c-.11.22-.16.47-.16.75s.05.53.16.75.26.39.45.52c.19.12.41.18.65.18Zm1.19.47-.03-.72V33.8h.62v5.39z" fill="#fffcef" data-color="1"/>
        <path d="M177.38 34.44q-.15 0-.27-.12c-.12-.12-.12-.17-.12-.27q0-.165.12-.27c.12-.105.17-.11.27-.11s.2.04.27.11.11.17.11.27-.04.19-.11.27q-.12.12-.27.12m-.32 4.75v-3.85h.62v3.85z" fill="#fffcef" data-color="1"/>
        <path d="M180.52 39.28c-.38 0-.71-.09-1-.26s-.52-.41-.68-.71c-.17-.3-.25-.65-.25-1.05s.08-.74.24-1.05c.16-.3.39-.54.68-.71s.62-.26 1-.26.71.09 1 .26.52.41.68.71q.24.45.24 1.05c0 .6-.08.74-.24 1.05-.16.3-.39.54-.67.71-.29.17-.62.26-.99.26Zm-.01-.57c.25 0 .47-.06.67-.18q.285-.18.45-.51c.11-.22.17-.47.17-.75s-.05-.53-.17-.75a1.2 1.2 0 0 0-.46-.51c-.2-.12-.42-.19-.68-.19s-.47.06-.67.19-.34.29-.46.51-.17.47-.17.75.05.53.17.75c.11.22.26.39.46.51s.42.18.67.18Z" fill="#fffcef" data-color="1"/>
        <path d="M186.4 39.28c-.45 0-.8-.1-1.06-.31-.25-.21-.38-.5-.38-.87q0-.585.39-.9c.26-.21.62-.31 1.09-.31h1.1v.52h-.96c-.36 0-.61.06-.77.18a.62.62 0 0 0-.23.51c0 .2.07.36.22.47.15.12.36.17.62.17.22 0 .41-.05.58-.14.16-.09.29-.23.38-.41s.13-.39.13-.63h.26c0 .52-.12.94-.35 1.25s-.58.47-1.03.47Zm1.15-.09-.03-.63v-1.4c0-.3-.03-.55-.1-.75s-.17-.35-.32-.45c-.14-.1-.33-.15-.56-.15-.21 0-.39.04-.54.13s-.28.22-.37.4l-.55-.22c.1-.18.21-.33.35-.47s.3-.23.49-.3.4-.1.63-.1c.36 0 .66.07.89.21s.41.35.53.62c.12.28.17.62.17 1.02v2.09h-.58Z" fill="#fffcef" data-color="1"/>
        <path d="M188.88 40.84c-.19 0-.43-.07-.72-.2l.23-.52c.12.05.23.08.31.11s.15.04.2.04c.35 0 .52-.22.52-.67v-4.27h.62v4.28c0 .4-.1.7-.29.91s-.48.31-.87.31Zm.86-6.4q-.15 0-.27-.12a.37.37 0 0 1-.12-.27c0-.11.04-.21.12-.28s.17-.11.27-.11c.11 0 .2.04.28.11s.12.17.12.28q0 .15-.12.27c-.12.12-.17.12-.28.12" fill="#fffcef" data-color="1"/>
        <path d="M191.08 37.31v-1.97h.62v1.97zm.61 0c0 .38.04.67.13.87s.21.34.37.41.33.11.53.11q.495 0 .78-.36c.285-.36.28-.58.28-1.01h.3c0 .41-.06.75-.18 1.05s-.29.52-.51.67-.5.23-.82.23c-.3 0-.56-.06-.79-.18s-.4-.31-.52-.58-.19-.61-.19-1.03v-.18zm2.13 1.88-.04-.71v-3.14h.62v3.85z" fill="#fffcef" data-color="1"/>
        <path d="M196.99 39.28c-.34 0-.65-.08-.91-.25s-.47-.41-.61-.71-.22-.66-.22-1.05.07-.75.22-1.05.35-.54.61-.71.56-.25.91-.25c.32 0 .61.08.85.25s.43.41.57.71c.13.3.2.65.2 1.05s-.07.75-.2 1.05-.32.54-.57.71c-.24.17-.53.25-.85.25m.14-.56q.345 0 .6-.18c.255-.18.31-.29.41-.52q.15-.33.15-.75c0-.42-.05-.53-.15-.75s-.24-.39-.41-.52-.38-.18-.61-.18-.46.06-.64.18-.33.29-.44.52c-.11.22-.16.47-.16.75s.05.53.16.75.26.39.45.52c.19.12.41.18.65.18Zm1.19.47-.03-.72V33.8h.62v5.39z" fill="#fffcef" data-color="1"/>
        <path d="M201.2 39.28c-.45 0-.8-.1-1.06-.31-.25-.21-.38-.5-.38-.87q0-.585.39-.9c.26-.21.62-.31 1.09-.31h1.1v.52h-.96c-.36 0-.61.06-.77.18a.62.62 0 0 0-.23.51c0 .2.07.36.22.47.15.12.36.17.62.17.22 0 .41-.05.58-.14.16-.09.29-.23.38-.41s.13-.39.13-.63h.26c0 .52-.12.94-.35 1.25s-.58.47-1.03.47Zm1.16-.09-.03-.63v-1.4c0-.3-.03-.55-.1-.75s-.17-.35-.32-.45c-.14-.1-.33-.15-.56-.15-.21 0-.39.04-.54.13s-.28.22-.37.4l-.55-.22c.1-.18.21-.33.35-.47s.3-.23.49-.3.4-.1.63-.1c.36 0 .66.07.89.21s.41.35.53.62c.12.28.17.62.17 1.02v2.09h-.58Z" fill="#fffcef" data-color="1"/>
        <path d="M86.73 47.98c-.45 0-.8-.1-1.06-.31-.25-.21-.38-.5-.38-.87q0-.585.39-.9c.26-.21.62-.31 1.09-.31h1.1v.52h-.96c-.36 0-.61.06-.77.18a.62.62 0 0 0-.23.51c0 .2.07.36.22.47.15.12.36.17.62.17.22 0 .41-.05.58-.14.16-.09.29-.23.38-.41s.13-.39.13-.63h.26c0 .52-.12.94-.35 1.25s-.58.47-1.03.47Zm1.16-.09-.03-.63v-1.4c0-.3-.03-.55-.1-.75s-.17-.35-.32-.45c-.14-.1-.33-.15-.56-.15-.21 0-.39.04-.54.13s-.28.22-.37.4l-.55-.22c.1-.18.21-.33.35-.47s.3-.23.49-.3.4-.1.63-.1c.36 0 .66.07.89.21s.41.35.53.62c.12.28.17.62.17 1.02v2.09h-.58Z" fill="#fffcef" data-color="1"/>
        <path d="M91.35 47.89v-3.85h.58l.03.54c.12-.21.27-.36.45-.47s.4-.16.65-.16c.31 0 .57.07.79.22.22.14.38.36.47.65.11-.28.27-.5.47-.65.21-.15.46-.22.74-.22.43 0 .77.14 1.02.43s.37.72.37 1.31v2.2h-.62v-1.97q0-.57-.12-.87c-.08-.2-.19-.34-.32-.41a1 1 0 0 0-.46-.11c-.3 0-.54.12-.71.36s-.25.58-.25 1.01v1.99h-.62v-1.97q0-.57-.12-.87c-.08-.2-.19-.34-.32-.41-.14-.07-.29-.11-.47-.11-.3 0-.53.12-.7.36s-.25.58-.25 1.01v1.99h-.62Z" fill="#fffcef" data-color="1"/>
        <path d="M98.25 43.15q-.15 0-.27-.12c-.12-.12-.12-.17-.12-.27q0-.165.12-.27c.12-.105.17-.11.27-.11s.2.04.27.11.11.17.11.27-.04.19-.11.27q-.12.12-.27.12m-.31 4.74v-3.85h.62v3.85z" fill="#fffcef" data-color="1"/>
        <path d="M99.68 47.89v-3.85h.58l.04.71v3.14zm2.71-1.97c0-.38-.04-.67-.13-.87s-.21-.34-.36-.41-.33-.11-.52-.11c-.34 0-.6.12-.79.36s-.28.58-.28 1.01h-.3c0-.41.06-.75.18-1.05.12-.29.29-.52.52-.67s.5-.23.82-.23.57.06.79.18.4.31.52.57.19.61.18 1.03v.18h-.62Zm0 1.97v-1.97h.62v1.97z" fill="#fffcef" data-color="1"/>
        <path d="M104.34 43.15q-.15 0-.27-.12c-.12-.12-.12-.17-.12-.27q0-.165.12-.27c.12-.105.17-.11.27-.11s.2.04.27.11.11.17.11.27-.04.19-.11.27q-.12.12-.27.12m-.32 4.74v-3.85h.62v3.85z" fill="#fffcef" data-color="1"/>
        <path d="M105.77 47.89v-3.85h.58l.03.54c.12-.21.27-.36.45-.47s.4-.16.65-.16c.31 0 .57.07.79.22.22.14.38.36.47.65.11-.28.27-.5.47-.65.21-.15.46-.22.74-.22.43 0 .77.14 1.02.43s.37.72.37 1.31v2.2h-.62v-1.97q0-.57-.12-.87c-.08-.2-.19-.34-.32-.41a1 1 0 0 0-.46-.11c-.3 0-.54.12-.71.36s-.25.58-.25 1.01v1.99h-.62v-1.97q0-.57-.12-.87c-.08-.2-.19-.34-.32-.41-.14-.07-.29-.11-.47-.11-.3 0-.53.12-.7.36s-.25.58-.25 1.01v1.99h-.62Z" fill="#fffcef" data-color="1"/>
        <path d="M112.67 43.15q-.15 0-.27-.12c-.12-.12-.12-.17-.12-.27q0-.165.12-.27c.12-.105.17-.11.27-.11s.2.04.27.11.11.17.11.27-.04.19-.11.27q-.12.12-.27.12m-.31 4.74v-3.85h.62v3.85z" fill="#fffcef" data-color="1"/>
        <path d="M113.91 47.89v-.49l2.27-2.82h-2.27v-.54h3.07v.48l-2.28 2.83h2.29v.54h-3.09Z" fill="#fffcef" data-color="1"/>
        <path d="M119.1 47.98c-.45 0-.8-.1-1.06-.31-.25-.21-.38-.5-.38-.87q0-.585.39-.9c.26-.21.62-.31 1.09-.31h1.1v.52h-.96c-.36 0-.61.06-.77.18a.62.62 0 0 0-.23.51c0 .2.07.36.22.47.15.12.36.17.62.17.22 0 .41-.05.58-.14.16-.09.29-.23.38-.41s.13-.39.13-.63h.26c0 .52-.12.94-.35 1.25s-.58.47-1.03.47Zm1.16-.09-.03-.63v-1.4c0-.3-.03-.55-.1-.75s-.17-.35-.32-.45c-.14-.1-.33-.15-.56-.15-.21 0-.39.04-.54.13s-.28.22-.37.4l-.55-.22c.1-.18.21-.33.35-.47s.3-.23.49-.3.4-.1.63-.1c.36 0 .66.07.89.21s.41.35.53.62c.12.28.17.62.17 1.02v2.09h-.58Z" fill="#fffcef" data-color="1"/>
        <path d="M121.81 47.89v-3.85h.62v3.85zm.34-2.09c0-.42.08-.75.24-1.01s.36-.45.61-.58.51-.19.79-.19v.58c-.23 0-.44.04-.65.11s-.38.2-.51.37-.2.4-.2.69z" fill="#fffcef" data-color="1"/>
        <path d="M127.53 47.98c-.45 0-.8-.1-1.06-.31-.25-.21-.38-.5-.38-.87q0-.585.39-.9c.26-.21.62-.31 1.09-.31h1.1v.52h-.96c-.36 0-.61.06-.77.18a.62.62 0 0 0-.23.51c0 .2.07.36.22.47.15.12.36.17.62.17.22 0 .41-.05.58-.14.16-.09.29-.23.38-.41s.13-.39.13-.63h.26c0 .52-.12.94-.35 1.25s-.58.47-1.03.47Zm1.16-.09-.03-.63v-1.4c0-.3-.03-.55-.1-.75s-.17-.35-.32-.45c-.14-.1-.33-.15-.56-.15-.21 0-.39.04-.54.13s-.28.22-.37.4l-.55-.22c.1-.18.21-.33.35-.47s.3-.23.49-.3.4-.1.63-.1c.36 0 .66.07.89.21s.41.35.53.62c.12.28.17.62.17 1.02v2.09h-.58Z" fill="#fffcef" data-color="1"/>
        <path d="M131.82 44.57v-.53h2.44v.53zm.71 3.32V43.6c0-.4.09-.7.28-.9s.47-.3.86-.3c.1 0 .22.02.35.05.13.04.26.09.41.15l-.23.49c-.12-.05-.22-.08-.3-.11a.6.6 0 0 0-.21-.04c-.18 0-.31.06-.4.17-.09.12-.13.29-.13.54v4.24h-.62Z" fill="#fffcef" data-color="1"/>
        <path d="M136.67 47.98c-.38 0-.71-.09-1-.26s-.52-.41-.68-.71c-.17-.3-.25-.65-.25-1.05s.08-.74.24-1.05c.16-.3.39-.54.68-.71s.62-.26 1-.26.71.09 1 .26.52.41.68.71q.24.45.24 1.05c0 .6-.08.74-.24 1.05-.16.3-.39.54-.67.71-.29.17-.62.26-.99.26Zm-.01-.57c.25 0 .47-.06.67-.18q.285-.18.45-.51c.11-.22.17-.47.17-.75s-.05-.53-.17-.75a1.2 1.2 0 0 0-.46-.51c-.2-.12-.42-.19-.68-.19s-.47.06-.67.19-.34.29-.46.51-.17.47-.17.75.05.53.17.75c.11.22.26.39.46.51s.42.18.67.18Z" fill="#fffcef" data-color="1"/>
        <path d="M139.43 47.89v-3.85h.62v3.85zm.34-2.09c0-.42.08-.75.24-1.01s.36-.45.61-.58.51-.19.79-.19v.58c-.23 0-.44.04-.65.11s-.38.2-.51.37-.2.4-.2.69z" fill="#fffcef" data-color="1"/>
        <path d="M142.03 47.89v-3.85h.58l.03.54c.12-.21.27-.36.45-.47s.4-.16.65-.16c.31 0 .57.07.79.22.22.14.38.36.47.65.11-.28.27-.5.47-.65.21-.15.46-.22.74-.22.43 0 .77.14 1.02.43s.37.72.37 1.31v2.2h-.62v-1.97q0-.57-.12-.87c-.08-.2-.19-.34-.32-.41a1 1 0 0 0-.46-.11c-.3 0-.54.12-.71.36s-.25.58-.25 1.01v1.99h-.62v-1.97q0-.57-.12-.87c-.08-.2-.19-.34-.32-.41-.14-.07-.29-.11-.47-.11-.3 0-.53.12-.7.36s-.25.58-.25 1.01v1.99h-.62Z" fill="#fffcef" data-color="1"/>
        <path d="M149.8 47.98c-.45 0-.8-.1-1.06-.31-.25-.21-.38-.5-.38-.87q0-.585.39-.9c.26-.21.62-.31 1.09-.31h1.1v.52h-.96c-.36 0-.61.06-.77.18a.62.62 0 0 0-.23.51c0 .2.07.36.22.47.15.12.36.17.62.17.22 0 .41-.05.58-.14.16-.09.29-.23.38-.41s.13-.39.13-.63h.26c0 .52-.12.94-.35 1.25s-.58.47-1.03.47Zm1.16-.09-.03-.63v-1.4c0-.3-.03-.55-.1-.75s-.17-.35-.32-.45c-.14-.1-.33-.15-.56-.15-.21 0-.39.04-.54.13s-.28.22-.37.4l-.55-.22c.1-.18.21-.33.35-.47s.3-.23.49-.3.4-.1.63-.1c.36 0 .66.07.89.21s.41.35.53.62c.12.28.17.62.17 1.02v2.09h-.58Z" fill="#fffcef" data-color="1"/>
        <path d="M154.23 47.98c-.38 0-.72-.09-1.01-.26s-.52-.41-.68-.71c-.17-.3-.25-.65-.25-1.05s.08-.74.24-1.05c.16-.3.39-.54.68-.71s.63-.26 1-.26.7.08.99.25.52.41.67.72l-.56.25q-.15-.315-.45-.48c-.2-.12-.42-.17-.67-.17s-.47.06-.67.19-.34.29-.46.51c-.11.22-.17.47-.17.75s.05.53.17.75c.11.22.26.39.46.51s.42.18.67.18.48-.06.67-.19q.3-.195.45-.54l.56.25c-.15.33-.38.59-.67.77s-.63.28-1 .28Zm-.24 1.53c-.1 0-.21-.01-.32-.04-.12-.03-.26-.08-.42-.17l.15-.37c.08.04.16.07.25.11s.17.05.24.05c.09 0 .18-.02.25-.05.08-.04.11-.11.11-.22 0-.13-.05-.22-.14-.29-.09-.06-.24-.11-.44-.14l.23-.54.41.09-.08.2c.19.07.33.16.4.28.08.12.12.25.12.38 0 .2-.06.37-.18.5-.12.14-.31.2-.58.2Z" fill="#fffcef" data-color="1"/>
        <path d="M157.89 47.98c-.45 0-.8-.1-1.06-.31-.25-.21-.38-.5-.38-.87q0-.585.39-.9c.26-.21.62-.31 1.09-.31h1.1v.52h-.96c-.36 0-.61.06-.77.18a.62.62 0 0 0-.23.51c0 .2.07.36.22.47.15.12.36.17.62.17.22 0 .41-.05.58-.14.16-.09.29-.23.38-.41s.13-.39.13-.63h.26c0 .52-.12.94-.35 1.25s-.58.47-1.03.47Zm1.16-.09-.03-.63v-1.4c0-.3-.03-.55-.1-.75s-.17-.35-.32-.45c-.14-.1-.33-.15-.56-.15-.21 0-.39.04-.54.13s-.28.22-.37.4l-.55-.22c.1-.18.21-.33.35-.47s.3-.23.49-.3.4-.1.63-.1c.36 0 .66.07.89.21s.41.35.53.62c.12.28.17.62.17 1.02v2.09h-.58Zm-.34-4.36c-.15 0-.27-.03-.36-.08a1.1 1.1 0 0 1-.23-.19c-.06-.07-.11-.14-.17-.19a.22.22 0 0 0-.18-.08c-.08 0-.14.02-.19.07s-.08.12-.1.23h-.5q.03-.21.12-.39c.06-.12.15-.22.27-.29s.25-.11.4-.11.26.03.35.08c.09.06.16.12.22.19s.12.14.17.19c.05.06.12.08.2.08.09 0 .15-.03.19-.08s.07-.12.08-.22h.49c-.03.21-.1.39-.23.55q-.195.24-.54.24Z" fill="#fffcef" data-color="1"/>
        <path d="M162.3 47.98c-.38 0-.71-.09-1-.26s-.52-.41-.68-.71c-.17-.3-.25-.65-.25-1.05s.08-.74.24-1.05c.16-.3.39-.54.68-.71s.62-.26 1-.26.71.09 1 .26.52.41.68.71q.24.45.24 1.05c0 .6-.08.74-.24 1.05-.16.3-.39.54-.67.71-.29.17-.62.26-.99.26Zm0-.57c.25 0 .47-.06.67-.18q.285-.18.45-.51c.11-.22.17-.47.17-.75s-.05-.53-.17-.75a1.2 1.2 0 0 0-.46-.51c-.2-.12-.42-.19-.68-.19s-.47.06-.67.19-.34.29-.46.51-.17.47-.17.75.05.53.17.75c.11.22.26.39.46.51s.42.18.67.18Z" fill="#fffcef" data-color="1"/>
        <path d="M168.48 47.98c-.34 0-.65-.08-.91-.25s-.47-.41-.61-.71-.22-.66-.22-1.05.07-.75.22-1.05.35-.54.61-.71.56-.25.91-.25c.32 0 .61.08.85.25s.43.41.57.71c.13.3.2.65.2 1.05s-.07.75-.2 1.05-.32.54-.57.71c-.24.17-.53.25-.85.25m.14-.56q.345 0 .6-.18c.255-.18.31-.29.41-.52q.15-.33.15-.75c0-.42-.05-.53-.15-.75s-.24-.39-.41-.52-.38-.18-.61-.18-.46.06-.64.18-.33.29-.44.52c-.11.22-.16.47-.16.75s.05.53.16.75.26.39.45.52c.19.12.41.18.65.18Zm1.19.47-.03-.72V42.5h.62v5.39z" fill="#fffcef" data-color="1"/>
        <path d="M173.16 47.98c-.38 0-.71-.09-.99-.26-.29-.17-.51-.41-.67-.71q-.24-.45-.24-1.05c0-.6.08-.74.24-1.05.16-.3.38-.54.67-.71.28-.17.61-.26.98-.26s.67.09.93.27.46.42.61.74.22.69.22 1.12h-3.18l.15-.13c0 .31.05.57.17.79s.27.39.47.5c.2.12.43.17.69.17.27 0 .5-.06.69-.19s.33-.3.43-.51l.53.27c-.1.2-.23.38-.39.52-.16.15-.35.26-.57.35-.22.08-.46.12-.73.12Zm-1.25-2.29-.16-.12h2.66l-.16.13c0-.25-.05-.46-.15-.64q-.15-.27-.39-.42c-.17-.1-.35-.15-.57-.15s-.41.05-.6.15-.34.23-.45.41c-.12.18-.17.39-.17.64Z" fill="#fffcef" data-color="1"/>
        <path d="M177.18 44.58v-.55h2.44v.55zm1.85 3.4c-.37 0-.67-.1-.87-.29s-.31-.47-.31-.82v-4.03h.62v3.96c0 .2.05.35.16.45s.25.16.44.16c.06 0 .12 0 .18-.03.06-.02.14-.06.23-.13l.24.5a1.2 1.2 0 0 1-.69.23" fill="#fffcef" data-color="1"/>
        <path d="M181.68 47.98c-.45 0-.8-.1-1.06-.31-.25-.21-.38-.5-.38-.87q0-.585.39-.9c.26-.21.62-.31 1.09-.31h1.1v.52h-.96c-.36 0-.61.06-.77.18a.62.62 0 0 0-.23.51c0 .2.07.36.22.47.15.12.36.17.62.17.22 0 .41-.05.58-.14.16-.09.29-.23.38-.41s.13-.39.13-.63h.26c0 .52-.12.94-.35 1.25s-.58.47-1.03.47Zm1.16-.09-.03-.63v-1.4c0-.3-.03-.55-.1-.75s-.17-.35-.32-.45c-.14-.1-.33-.15-.56-.15-.21 0-.39.04-.54.13s-.28.22-.37.4l-.55-.22c.1-.18.21-.33.35-.47s.3-.23.49-.3.4-.1.63-.1c.36 0 .66.07.89.21s.41.35.53.62c.12.28.17.62.17 1.02v2.09h-.58Zm-1.49-4.4.9-.99h.79l-.99.99z" fill="#fffcef" data-color="1"/>
        <path d="M184.39 47.89v-3.85h.62v3.85zm.34-2.09c0-.42.08-.75.24-1.01s.36-.45.61-.58.51-.19.79-.19v.58c-.23 0-.44.04-.65.11s-.38.2-.51.37-.2.4-.2.69z" fill="#fffcef" data-color="1"/>
        <path d="M186.59 44.58v-.55h2.44v.55zm1.85 3.4c-.37 0-.67-.1-.87-.29s-.31-.47-.31-.82v-4.03h.62v3.96c0 .2.05.35.16.45s.25.16.44.16c.06 0 .12 0 .18-.03.06-.02.14-.06.23-.13l.24.5a1.2 1.2 0 0 1-.69.23" fill="#fffcef" data-color="1"/>
        <path d="M191.09 47.98c-.45 0-.8-.1-1.06-.31-.25-.21-.38-.5-.38-.87q0-.585.39-.9c.26-.21.62-.31 1.09-.31h1.1v.52h-.96c-.36 0-.61.06-.77.18a.62.62 0 0 0-.23.51c0 .2.07.36.22.47.15.12.36.17.62.17.22 0 .41-.05.58-.14.16-.09.29-.23.38-.41s.13-.39.13-.63h.26c0 .52-.12.94-.35 1.25s-.58.47-1.03.47Zm1.16-.09-.03-.63v-1.4c0-.3-.03-.55-.1-.75s-.17-.35-.32-.45c-.14-.1-.33-.15-.56-.15-.21 0-.39.04-.54.13s-.28.22-.37.4l-.55-.22c.1-.18.21-.33.35-.47s.3-.23.49-.3.4-.1.63-.1c.36 0 .66.07.89.21s.41.35.53.62c.12.28.17.62.17 1.02v2.09h-.58Z" fill="#fffcef" data-color="1"/>
        <path d="M193.8 47.89v-3.85h.62v3.85zm.34-2.09c0-.42.08-.75.24-1.01s.36-.45.61-.58.51-.19.79-.19v.58c-.23 0-.44.04-.65.11s-.38.2-.51.37-.2.4-.2.69z" fill="#fffcef" data-color="1"/>
        <path d="M198.11 47.98c-.38 0-.71-.09-1-.26s-.52-.41-.68-.71c-.17-.3-.25-.65-.25-1.05s.08-.74.24-1.05c.16-.3.39-.54.68-.71s.62-.26 1-.26.71.09 1 .26.52.41.68.71q.24.45.24 1.05c0 .6-.08.74-.24 1.05-.16.3-.39.54-.67.71-.29.17-.62.26-.99.26Zm0-.57c.25 0 .47-.06.67-.18q.285-.18.45-.51c.11-.22.17-.47.17-.75s-.05-.53-.17-.75a1.2 1.2 0 0 0-.46-.51c-.2-.12-.42-.19-.68-.19s-.47.06-.67.19-.34.29-.46.51-.17.47-.17.75.05.53.17.75c.11.22.26.39.46.51s.42.18.67.18Z" fill="#fffcef" data-color="1"/>
        <path d="m200.64 48.77.44-1.62h.69l-.6 1.62z" fill="#fffcef" data-color="1"/>
        <path d="M87.23 56.68c-.38 0-.72-.09-1.01-.26s-.52-.41-.68-.71c-.17-.3-.25-.65-.25-1.05s.08-.74.24-1.05c.16-.3.39-.54.68-.71s.63-.26 1-.26.7.08.99.25.52.41.67.72l-.56.25q-.15-.315-.45-.48c-.2-.12-.42-.17-.67-.17s-.47.06-.67.19-.34.29-.46.51c-.11.22-.17.47-.17.75s.05.53.17.75c.11.22.26.39.46.51s.42.18.67.18.48-.06.67-.19q.3-.195.45-.54l.56.25c-.15.33-.38.59-.67.77s-.63.28-1 .28Z" fill="#fffcef" data-color="1"/>
        <path d="M91.39 56.68c-.38 0-.71-.09-1-.26s-.52-.41-.68-.71c-.17-.3-.25-.65-.25-1.05s.08-.74.24-1.05c.16-.3.39-.54.68-.71s.62-.26 1-.26.71.09 1 .26.52.41.68.71q.24.45.24 1.05c0 .6-.08.74-.24 1.05-.16.3-.39.54-.67.71-.29.17-.62.26-.99.26Zm-.01-.57c.25 0 .47-.06.67-.18q.285-.18.45-.51c.11-.22.17-.47.17-.75s-.05-.53-.17-.75a1.2 1.2 0 0 0-.46-.51c-.2-.12-.42-.19-.68-.19s-.47.06-.67.19-.34.29-.46.51-.17.47-.17.75.05.53.17.75c.11.22.26.39.46.51s.42.18.67.18Z" fill="#fffcef" data-color="1"/>
        <path d="M94.15 56.59v-3.85h.58l.04.71v3.14zm2.7-1.97c0-.38-.04-.67-.13-.87s-.21-.34-.36-.41-.33-.11-.52-.11c-.34 0-.6.12-.79.36s-.28.58-.28 1.01h-.3c0-.41.06-.75.18-1.05.12-.29.29-.52.52-.67s.5-.23.82-.23.57.06.79.18.4.31.52.57.19.61.18 1.03v.18h-.62Zm0 1.97v-1.97h.62v1.97z" fill="#fffcef" data-color="1"/>
        <path d="M98.05 53.29v-.55h2.44v.55zm1.84 3.39c-.37 0-.67-.1-.87-.29s-.31-.47-.31-.82v-4.03h.62v3.96c0 .2.05.35.16.45s.25.16.44.16c.06 0 .12 0 .18-.03.06-.02.14-.06.23-.13l.24.5a1.2 1.2 0 0 1-.69.23" fill="#fffcef" data-color="1"/>
        <path d="M101.36 56.59v-3.85h.62v3.85zm.34-2.09c0-.42.08-.75.24-1.01s.36-.45.61-.58.51-.19.79-.19v.58c-.23 0-.44.04-.65.11s-.38.2-.51.37-.2.4-.2.69z" fill="#fffcef" data-color="1"/>
        <path d="M104.31 51.85q-.15 0-.27-.12c-.12-.12-.12-.17-.12-.27q0-.165.12-.27c.12-.105.17-.11.27-.11s.2.04.27.11.11.17.11.27-.04.19-.11.27q-.12.12-.27.12m-.31 4.74v-3.85h.62v3.85z" fill="#fffcef" data-color="1"/>
        <path d="M105.75 56.59V51.2h.62v4.67l-.03.72h-.58Zm1.91.09c-.32 0-.61-.08-.85-.25s-.43-.41-.57-.71c-.13-.31-.2-.66-.2-1.05s.07-.75.2-1.05.32-.54.57-.71c.24-.17.53-.25.85-.25.34 0 .65.08.91.25s.47.41.61.71c.15.3.22.65.22 1.05s-.07.75-.22 1.05c-.15.31-.35.54-.61.71s-.57.25-.91.25m-.14-.56c.24 0 .46-.06.64-.18s.34-.29.45-.51.17-.47.17-.76-.05-.53-.16-.75-.25-.39-.44-.52c-.19-.12-.4-.18-.65-.18q-.345 0-.6.18-.27.18-.42.51c-.1.22-.15.47-.15.76s.05.53.15.75.24.39.41.52c.17.12.38.18.6.18" fill="#fffcef" data-color="1"/>
        <path d="M110.16 54.71v-1.97h.62v1.97zm.61 0c0 .38.04.67.13.87s.21.34.37.41.33.11.53.11q.495 0 .78-.36c.285-.36.28-.58.28-1.01h.3c0 .41-.06.75-.18 1.05s-.29.52-.51.67-.5.23-.82.23c-.3 0-.56-.06-.79-.18s-.4-.31-.52-.58-.19-.61-.19-1.03v-.18zm2.13 1.88-.04-.71v-3.14h.62v3.85z" fill="#fffcef" data-color="1"/>
        <path d="M114.91 51.85q-.15 0-.27-.12c-.12-.12-.12-.17-.12-.27q0-.165.12-.27c.12-.105.17-.11.27-.11s.2.04.27.11.11.17.11.27-.04.19-.11.27q-.12.12-.27.12m-.32 4.74v-3.85h.62v3.85z" fill="#fffcef" data-color="1"/>
        <path d="M116.34 56.59v-3.85h.58l.04.71v3.14zm2.7-1.97c0-.38-.04-.67-.13-.87s-.21-.34-.36-.41-.33-.11-.52-.11c-.34 0-.6.12-.79.36s-.28.58-.28 1.01h-.3c0-.41.06-.75.18-1.05.12-.29.29-.52.52-.67s.5-.23.82-.23.57.06.79.18.4.31.52.57.19.61.18 1.03v.18h-.62Zm0 1.97v-1.97h.62v1.97z" fill="#fffcef" data-color="1"/>
        <path d="M122.15 56.68c-.34 0-.65-.08-.91-.25s-.47-.41-.61-.71-.22-.66-.22-1.05.07-.75.22-1.05.35-.54.61-.71.56-.25.91-.25c.32 0 .61.08.85.25s.43.41.57.71c.13.3.2.65.2 1.05s-.07.75-.2 1.05-.32.54-.57.71c-.24.17-.53.25-.85.25m.14-.56q.345 0 .6-.18c.255-.18.31-.29.41-.52q.15-.33.15-.75c0-.42-.05-.53-.15-.75s-.24-.39-.41-.52-.38-.18-.61-.18-.46.06-.64.18-.33.29-.44.52c-.11.22-.16.47-.16.75s.05.53.16.75.26.39.45.52c.19.12.41.18.65.18Zm1.2.47-.03-.72V51.2h.62v5.39z" fill="#fffcef" data-color="1"/>
        <path d="M126.86 56.68c-.38 0-.71-.09-1-.26s-.52-.41-.68-.71c-.17-.3-.25-.65-.25-1.05s.08-.74.24-1.05c.16-.3.39-.54.68-.71s.62-.26 1-.26.71.09 1 .26.52.41.68.71q.24.45.24 1.05c0 .6-.08.74-.24 1.05-.16.3-.39.54-.67.71-.29.17-.62.26-.99.26Zm-.01-.57c.25 0 .47-.06.67-.18q.285-.18.45-.51c.11-.22.17-.47.17-.75s-.05-.53-.17-.75a1.2 1.2 0 0 0-.46-.51c-.2-.12-.42-.19-.68-.19s-.47.06-.67.19-.34.29-.46.51-.17.47-.17.75.05.53.17.75c.11.22.26.39.46.51s.42.18.67.18Z" fill="#fffcef" data-color="1"/>
        <path d="M131.55 58.13v-5.39h.58l.04.71v4.68zm1.92-1.45c-.32 0-.61-.08-.85-.25s-.43-.41-.57-.71-.2-.66-.2-1.05.07-.75.2-1.05.32-.54.57-.71c.24-.17.53-.25.85-.25.34 0 .65.08.91.25s.47.41.61.71c.15.3.22.65.22 1.05s-.07.75-.22 1.05-.35.54-.61.71-.56.25-.91.25m-.14-.56c.24 0 .46-.06.64-.18s.34-.29.45-.51.17-.47.17-.76-.05-.53-.16-.75c-.1-.22-.25-.39-.44-.52s-.4-.18-.65-.18q-.345 0-.6.18-.27.18-.42.51c-.1.22-.15.47-.15.76s.05.53.15.75.24.39.41.52q.255.18.6.18" fill="#fffcef" data-color="1"/>
        <path d="M137.28 56.68c-.45 0-.8-.1-1.06-.31-.25-.21-.38-.5-.38-.87q0-.585.39-.9c.26-.21.62-.31 1.09-.31h1.1v.52h-.96c-.36 0-.61.06-.77.18a.62.62 0 0 0-.23.51c0 .2.07.36.22.47.15.12.36.17.62.17.22 0 .41-.05.58-.14.16-.09.29-.23.38-.41s.13-.39.13-.63h.26c0 .52-.12.94-.35 1.25s-.58.47-1.03.47Zm1.16-.09-.03-.63v-1.4c0-.3-.03-.55-.1-.75s-.17-.35-.32-.45c-.14-.1-.33-.15-.56-.15-.21 0-.39.04-.54.13s-.28.22-.37.4l-.55-.22c.1-.18.21-.33.35-.47s.3-.23.49-.3.4-.1.63-.1c.36 0 .66.07.89.21s.41.35.53.62c.12.28.17.62.17 1.02v2.09h-.58Z" fill="#fffcef" data-color="1"/>
        <path d="M139.99 56.59v-3.85h.62v3.85zm.34-2.09c0-.42.08-.75.24-1.01s.36-.45.61-.58.51-.19.79-.19v.58c-.23 0-.44.04-.65.11s-.38.2-.51.37-.2.4-.2.69z" fill="#fffcef" data-color="1"/>
        <path d="M143.81 56.68c-.45 0-.8-.1-1.06-.31-.25-.21-.38-.5-.38-.87q0-.585.39-.9c.26-.21.62-.31 1.09-.31h1.1v.52h-.96c-.36 0-.61.06-.77.18a.62.62 0 0 0-.23.51c0 .2.07.36.22.47.15.12.36.17.62.17.22 0 .41-.05.58-.14.16-.09.29-.23.38-.41s.13-.39.13-.63h.26c0 .52-.12.94-.35 1.25s-.58.47-1.03.47Zm1.16-.09-.03-.63v-1.4c0-.3-.03-.55-.1-.75s-.17-.35-.32-.45c-.14-.1-.33-.15-.56-.15-.21 0-.39.04-.54.13s-.28.22-.37.4l-.55-.22c.1-.18.21-.33.35-.47s.3-.23.49-.3.4-.1.63-.1c.36 0 .66.07.89.21s.41.35.53.62c.12.28.17.62.17 1.02v2.09h-.58Z" fill="#fffcef" data-color="1"/>
        <path d="M149.64 56.68c-.45 0-.8-.1-1.06-.31-.25-.21-.38-.5-.38-.87q0-.585.39-.9c.26-.21.62-.31 1.09-.31h1.1v.52h-.96c-.36 0-.61.06-.77.18a.62.62 0 0 0-.23.51c0 .2.07.36.22.47.15.12.36.17.62.17.22 0 .41-.05.58-.14.16-.09.29-.23.38-.41s.13-.39.13-.63h.26c0 .52-.12.94-.35 1.25s-.58.47-1.03.47Zm1.15-.09-.03-.63v-1.4c0-.3-.03-.55-.1-.75s-.17-.35-.32-.45c-.14-.1-.33-.15-.56-.15-.21 0-.39.04-.54.13s-.28.22-.37.4l-.55-.22c.1-.18.21-.33.35-.47s.3-.23.49-.3.4-.1.63-.1c.36 0 .66.07.89.21s.41.35.53.62c.12.28.17.62.17 1.02v2.09h-.58Z" fill="#fffcef" data-color="1"/>
        <path d="M155.6 56.68c-.28 0-.53-.04-.74-.13-.21-.08-.39-.2-.53-.33a1.2 1.2 0 0 1-.3-.46l.54-.22c.09.17.22.32.39.42.17.11.37.16.58.16.24 0 .44-.05.61-.14a.45.45 0 0 0 .25-.4c0-.16-.06-.29-.18-.38q-.18-.15-.54-.24l-.37-.1c-.35-.09-.62-.23-.82-.42-.19-.19-.29-.4-.29-.63 0-.36.12-.65.36-.85s.59-.3 1.07-.3c.23 0 .43.03.62.1.18.07.34.16.48.28.13.12.23.26.29.43l-.54.24a.73.73 0 0 0-.33-.38 1.2 1.2 0 0 0-.56-.12c-.24 0-.42.05-.55.15s-.2.24-.2.42c0 .1.06.2.17.29s.27.16.49.22l.38.1q.375.09.63.27c.17.12.3.26.39.41s.13.32.13.49c0 .23-.06.43-.19.6-.12.17-.29.3-.5.39s-.45.13-.72.13Z" fill="#fffcef" data-color="1"/>
        <path d="M159.06 56.68c-.45 0-.8-.1-1.06-.31-.25-.21-.38-.5-.38-.87q0-.585.39-.9c.26-.21.62-.31 1.09-.31h1.1v.52h-.96c-.36 0-.61.06-.77.18a.62.62 0 0 0-.23.51c0 .2.07.36.22.47.15.12.36.17.62.17.22 0 .41-.05.58-.14.16-.09.29-.23.38-.41s.13-.39.13-.63h.26c0 .52-.12.94-.35 1.25s-.58.47-1.03.47Zm1.15-.09-.03-.63v-1.4c0-.3-.03-.55-.1-.75s-.17-.35-.32-.45c-.14-.1-.33-.15-.56-.15-.21 0-.39.04-.54.13s-.28.22-.37.4l-.55-.22c.1-.18.21-.33.35-.47s.3-.23.49-.3.4-.1.63-.1c.36 0 .66.07.89.21s.41.35.53.62c.12.28.17.62.17 1.02v2.09h-.58Z" fill="#fffcef" data-color="1"/>
        <path d="M161.67 54.71v-1.97h.62v1.97zm.61 0c0 .38.04.67.13.87s.21.34.37.41.33.11.53.11q.495 0 .78-.36c.285-.36.28-.58.28-1.01h.3c0 .41-.06.75-.18 1.05s-.29.52-.51.67-.5.23-.82.23c-.3 0-.56-.06-.79-.18s-.4-.31-.52-.58-.19-.61-.19-1.03v-.18zm.57-2.52.9-.99h.79l-.99.99zm1.56 4.4-.04-.71v-3.14h.62v3.85z" fill="#fffcef" data-color="1"/>
        <path d="M167.58 56.68c-.34 0-.65-.08-.91-.25s-.47-.41-.61-.71-.22-.66-.22-1.05.07-.75.22-1.05.35-.54.61-.71.56-.25.91-.25c.32 0 .61.08.85.25s.43.41.57.71c.13.3.2.65.2 1.05s-.07.75-.2 1.05-.32.54-.57.71c-.24.17-.53.25-.85.25m.14-.56q.345 0 .6-.18c.255-.18.31-.29.41-.52q.15-.33.15-.75c0-.42-.05-.53-.15-.75s-.24-.39-.41-.52-.38-.18-.61-.18-.46.06-.64.18-.33.29-.44.52c-.11.22-.16.47-.16.75s.05.53.16.75.26.39.45.52c.19.12.41.18.65.18Zm1.19.47-.03-.72V51.2h.62v5.39z" fill="#fffcef" data-color="1"/>
        <path d="M172.26 56.68c-.38 0-.71-.09-.99-.26-.29-.17-.51-.41-.67-.71q-.24-.45-.24-1.05c0-.6.08-.74.24-1.05.16-.3.38-.54.67-.71.28-.17.61-.26.98-.26s.67.09.93.27.46.42.61.74.22.69.22 1.12h-3.18l.15-.13c0 .31.05.57.17.79s.27.39.47.5c.2.12.43.17.69.17.27 0 .5-.06.69-.19s.33-.3.43-.51l.53.27c-.1.2-.23.38-.39.52-.16.15-.35.26-.57.35-.22.08-.46.12-.73.12Zm-1.25-2.29-.16-.12h2.66l-.16.13c0-.25-.05-.46-.15-.64q-.15-.27-.39-.42c-.17-.1-.35-.15-.57-.15s-.41.05-.6.15-.34.23-.45.41c-.12.18-.17.39-.17.64Z" fill="#fffcef" data-color="1"/>
        <path d="M178.39 56.68c-.38 0-.71-.09-1-.26s-.52-.41-.68-.71c-.17-.3-.25-.65-.25-1.05s.08-.74.24-1.05c.16-.3.39-.54.68-.71s.62-.26 1-.26.71.09 1 .26.52.41.68.71q.24.45.24 1.05c0 .6-.08.74-.24 1.05-.16.3-.39.54-.67.71-.29.17-.62.26-.99.26Zm-.01-.57c.25 0 .47-.06.67-.18q.285-.18.45-.51c.11-.22.17-.47.17-.75s-.05-.53-.17-.75a1.2 1.2 0 0 0-.46-.51c-.2-.12-.42-.19-.68-.19s-.47.06-.67.19-.34.29-.46.51-.17.47-.17.75.05.53.17.75c.11.22.26.39.46.51s.42.18.67.18Z" fill="#fffcef" data-color="1"/>
        <path d="M181.15 56.59v-3.85h.62v3.85zm.34-2.09c0-.42.08-.75.24-1.01s.36-.45.61-.58.51-.19.79-.19v.58c-.23 0-.44.04-.65.11s-.38.2-.51.37-.2.4-.2.69z" fill="#fffcef" data-color="1"/>
        <path d="M184.97 56.68c-.45 0-.8-.1-1.06-.31-.25-.21-.38-.5-.38-.87q0-.585.39-.9c.26-.21.62-.31 1.09-.31h1.1v.52h-.96c-.36 0-.61.06-.77.18a.62.62 0 0 0-.23.51c0 .2.07.36.22.47.15.12.36.17.62.17.22 0 .41-.05.58-.14.16-.09.29-.23.38-.41s.13-.39.13-.63h.26c0 .52-.12.94-.35 1.25s-.58.47-1.03.47Zm1.15-.09-.03-.63v-1.4c0-.3-.03-.55-.1-.75s-.17-.35-.32-.45c-.14-.1-.33-.15-.56-.15-.21 0-.39.04-.54.13s-.28.22-.37.4l-.55-.22c.1-.18.21-.33.35-.47s.3-.23.49-.3.4-.1.63-.1c.36 0 .66.07.89.21s.41.35.53.62c.12.28.17.62.17 1.02v2.09h-.58Z" fill="#fffcef" data-color="1"/>
        <path d="M187.68 56.59V51.2h.62v5.39z" fill="#fffcef" data-color="1"/>
        <path d="M189.63 56.7a.38.38 0 0 1-.3-.13.42.42 0 0 1-.13-.3c0-.12.04-.22.13-.3s.19-.13.3-.13.22.04.3.13c.08.08.12.19.12.3s-.04.21-.12.3c-.08.08-.18.13-.3.13" fill="#fffcef" data-color="1"/>
        <path fill="#fffcef" d="M75.53 42.68c0 15.215-12.335 27.55-27.55 27.55S20.43 57.895 20.43 42.68s12.335-27.55 27.55-27.55 27.55 12.335 27.55 27.55" data-color="1"/>
        <path d="M58.6 45.01c1.23-1.31 1.95-3.1 2.06-5 2.02-.57 2.96-1.24 2.96-2.12 0-1.01-1.28-1.76-3.99-2.37-.97-1.71-2.52-2.97-4.32-3.34-1.85-.38-3.68.1-5.16 1.36-.91.78-2.14.78-3.05 0a6.3 6.3 0 0 0-1.53-.96 5.88 5.88 0 0 0-3.64-.4c-1.83.38-3.41 1.68-4.37 3.43-2.4.58-3.58 1.32-3.58 2.28 0 .81.85 1.47 2.59 2.01.08 1.92.78 3.71 2.03 5.07.52.56.82 1.27.85 1.99.03.54.07 1.21.13 1.93-3.17-.62-3.84-1.36-3.84-1.53 0-.13.38-.62 2.1-1.12a.51.51 0 0 0 .35-.65.52.52 0 0 0-.65-.35c-1.91.57-2.85 1.26-2.85 2.12 0 1.13 1.69 2.01 5 2.62.42 3.74 1.23 6.31 2.39 7.61.34.38.78.59 1.23.59q.21 0 .42-.06c.73-.2 1.29-.88 1.46-1.79l1.11-5.68h.19c.74.03 1.5.04 2.27.04.82 0 1.62-.01 2.39-.04l.56 5.08c.11.99.68 1.78 1.46 2.01.65.19 1.32-.04 1.79-.61.72-.87 1.87-2.86 2.45-7.08 3.61-.6 5.45-1.5 5.45-2.69 0-.92-1.04-1.64-3.18-2.21a.527.527 0 0 0-.64.37c-.08.28.09.57.37.64 1.97.53 2.41 1.05 2.41 1.2 0 .19-.74.99-4.27 1.6.07-.64.12-1.31.16-2.04.04-.69.34-1.36.86-1.91Zm3.98-7.11c0 .12-.38.55-1.93 1.02-.01-.19-.02-.39-.05-.58-.08-.56-.23-1.09-.41-1.61 1.92.51 2.39 1.01 2.39 1.16Zm-27.54 0c0-.14.4-.58 1.99-1.05-.16.48-.3.97-.37 1.49-.02.16-.03.32-.04.48-1.26-.43-1.57-.81-1.57-.92Zm4.35 6.37c-1-1.08-1.6-2.53-1.73-4.07 2.73.66 6.81 1.05 11.15 1.05.32 0 .62 0 .92.01.3 0 .59.01.89.01.22 0 .43 0 .65-.01.29-.01.51-.25.5-.54 0-.29-.27-.49-.54-.51-.49.02-.98 0-1.49 0-.31 0-.62-.01-.94-.01-4.41 0-8.53-.4-11.17-1.08.01-.21.02-.42.05-.63.36-2.64 2.2-4.8 4.46-5.27 1.53-.31 3.04.09 4.27 1.13 1.3 1.11 3.11 1.11 4.41 0 1.23-1.04 2.74-1.45 4.27-1.13 2.27.47 4.1 2.64 4.47 5.28.03.24.05.47.06.71q-.6.15-1.29.27a.525.525 0 0 0 .09 1.04h.09c.38-.07.74-.14 1.07-.22-.15 1.53-.76 2.96-1.75 4.02-.68.72-1.08 1.64-1.14 2.57-.04.82-.11 1.57-.19 2.27-1.34.2-2.83.35-4.39.43l-.2-1.79c-.22-1.97-1.49-3.39-3.04-3.39-1.41 0-2.63 1.23-2.97 2.98l-.43 2.2c-1.75-.09-3.38-.25-4.82-.48-.08-.82-.12-1.56-.15-2.16-.04-.97-.44-1.91-1.13-2.65Zm4.81 11.86c-.12.61-.46.91-.71.98-.21.06-.41-.01-.6-.22-.96-1.07-1.7-3.45-2.1-6.73 1.36.21 2.88.36 4.49.44zm2.37-6.51h-.03l.4-2.05c.25-1.26 1.05-2.13 1.95-2.13.98 0 1.84 1.06 2 2.46l.19 1.73c-1.46.06-3.03.06-4.51 0Zm7.62 6.85c-.14.18-.38.37-.69.27-.3-.09-.64-.47-.71-1.12l-.55-5.01c1.46-.08 2.86-.21 4.13-.39-.55 3.74-1.55 5.49-2.18 6.25" fill="#00578a" data-color="2"/>
        <path d="M54.69 43.46c.08.19.28.27.48.27h.04c.22-.01.42-.21.49-.42.31-1.09.83-2 1.51-2.65.11-.11.17-.26.16-.41 0-.15-.08-.29-.21-.39-.74-.56-1.37-1.41-1.8-2.46l-.04-.09c-.09-.21-.3-.29-.53-.27-.22.01-.42.21-.49.42-.31 1.09-.83 2-1.51 2.65-.11.11-.17.26-.16.41 0 .15.08.29.21.39.74.56 1.37 1.41 1.84 2.54Zm.22-4.6q.51.855 1.17 1.47c-.38.46-.72.99-.99 1.6-.34-.57-.73-1.06-1.18-1.48.39-.46.73-1 .99-1.6Z" fill="#00578a" data-color="2"/>
        <path d="M36.61 34.17c.08.19.29.27.5.27s.42-.17.5-.36c.46-1.07 1.16-1.95 2.03-2.56.14-.1.22-.26.22-.43s-.08-.33-.22-.43c-.87-.61-1.58-1.49-2.03-2.55l-.04-.09c-.08-.19-.29-.27-.5-.27s-.42.17-.5.36c-.46 1.07-1.16 1.95-2.03 2.56-.14.1-.22.26-.22.43s.08.33.22.43c.87.61 1.58 1.49 2.07 2.65Zm.48-4.78c.38.65.86 1.23 1.4 1.7a6.8 6.8 0 0 0-1.4 1.71c-.38-.65-.86-1.23-1.41-1.71a6.8 6.8 0 0 0 1.4-1.7Z" fill="#00578a" data-color="2"/>
        <path d="M42.4 30.74c.08.19.29.28.49.28s.41-.16.49-.35c.32-.74.8-1.35 1.4-1.77.14-.1.22-.26.22-.43s-.08-.33-.22-.43c-.6-.42-1.09-1.03-1.4-1.77l-.03-.07c-.08-.19-.29-.28-.49-.28s-.41.16-.49.35c-.32.74-.8 1.35-1.4 1.77-.14.1-.22.26-.22.43s.08.33.22.43c.6.42 1.09 1.03 1.43 1.84m.48-3.2c.23.35.49.66.79.94-.29.27-.55.59-.78.94-.23-.35-.49-.67-.79-.94.29-.28.56-.59.78-.94" fill="#00578a" data-color="2"/>
    </g>
</svg>
