<?xml version="1.0" encoding="UTF-8"?>
<svg data-bbox="-2.13 18.93 254.36 55.1" viewBox="0 0 250 100" xmlns="http://www.w3.org/2000/svg" data-type="color">
    <g>
        <path d="M61.59 40.32v-5.39h3.61v1.31h-2.19v.75h1.77v1.27h-1.77v.75h2.24v1.31h-3.67Z" fill="#fffcef" data-color="1"/>
        <path d="M66.1 40.32v-5.39h1.5l2.1 2.96v-2.96h1.42v5.39H69.7l-2.18-3.07v3.07z" fill="#fffcef" data-color="1"/>
        <path d="M72.05 40.32v-5.39h2.23c.41 0 .76.08 1.08.23.31.16.56.37.74.65s.27.59.27.95-.09.68-.27.96-.42.5-.74.65q-.465.24-1.08.24h-.81v1.71zm1.43-3.02h.73c.13 0 .24-.02.34-.07s.17-.11.23-.19.08-.17.08-.28c0-.15-.06-.28-.18-.38a.72.72 0 0 0-.47-.15h-.73zm1.47 3.02-1.2-2.12 1.07-.8 1.76 2.92z" fill="#fffcef" data-color="1"/>
        <path d="M77.16 40.32v-5.39h1.42v5.39z" fill="#fffcef" data-color="1"/>
        <path d="M82.13 40.42q-.84 0-1.5-.36c-.66-.36-.77-.57-1.02-.99s-.37-.9-.37-1.44c0-.41.07-.79.21-1.12.14-.34.34-.63.6-.89.26-.25.56-.45.91-.58.35-.14.73-.2 1.16-.2.56 0 1.06.12 1.49.36q.645.36 1.02.99c.25.42.37.9.37 1.45s-.12 1.02-.37 1.44c-.24.42-.58.75-1.01.99s-.93.36-1.49.36Zm0-1.31c.28 0 .52-.06.73-.19s.38-.3.49-.52c.12-.22.18-.47.18-.76s-.06-.55-.18-.77-.29-.4-.5-.52c-.21-.13-.46-.19-.74-.19s-.51.06-.73.19c-.21.12-.38.3-.5.52s-.18.48-.18.77.06.54.18.76.29.39.5.52.46.19.74.19Zm1.85 1.55-2.04-2.08.9-.85 2.03 2.07z" fill="#fffcef" data-color="1"/>
        <path d="M87.86 40.42c-.48 0-.89-.09-1.23-.26s-.61-.42-.79-.75-.27-.71-.27-1.17v-3.3h1.42v3.3c0 .18.04.33.11.46s.17.23.3.29.29.1.47.1.34-.03.48-.1a.7.7 0 0 0 .3-.29c.07-.13.1-.28.1-.46v-3.3h1.42v3.3c0 .45-.09.84-.28 1.17-.18.33-.45.58-.8.75s-.76.26-1.25.26Z" fill="#fffcef" data-color="1"/>
        <path d="M91.03 40.32v-5.39h3.61v1.31h-2.19v.75h1.77v1.27h-1.77v.75h2.24v1.31h-3.67Z" fill="#fffcef" data-color="1"/>
        <path d="M98.03 40.42c-.54 0-1.02-.12-1.43-.36s-.74-.57-.97-.99c-.24-.42-.35-.9-.35-1.44s.12-1.03.35-1.44.56-.75.97-.99.89-.36 1.43-.36c.42 0 .79.07 1.12.22s.62.34.86.6.43.55.55.89l-1.36.43c-.07-.17-.16-.32-.28-.44a1.2 1.2 0 0 0-.91-.39c-.25 0-.47.06-.67.19-.2.12-.35.3-.46.52s-.17.48-.17.77.06.54.17.77c.11.22.27.4.47.52.2.13.42.19.68.19.2 0 .37-.03.52-.1s.27-.17.38-.29.2-.27.27-.44l1.36.43c-.12.34-.31.64-.55.9s-.53.46-.87.6-.72.22-1.13.22Z" fill="#fffcef" data-color="1"/>
        <path d="M101.16 40.32v-5.39h1.42v5.39z" fill="#fffcef" data-color="1"/>
        <path d="M103.51 40.32v-5.39h1.8c.59 0 1.11.12 1.57.35.45.23.81.55 1.07.95s.38.87.38 1.4-.13.99-.38 1.39c-.26.41-.61.72-1.07.96-.46.23-.98.35-1.57.35h-1.8Zm1.42-1.35h.38c.23 0 .43-.03.62-.1s.35-.16.49-.28.25-.26.32-.42c.08-.16.12-.35.12-.55s-.04-.38-.12-.55c-.08-.16-.19-.3-.32-.42-.14-.12-.3-.21-.49-.28s-.4-.1-.62-.1h-.38z" fill="#fffcef" data-color="1"/>
        <path d="M111.6 40.42q-.84 0-1.5-.36c-.66-.36-.77-.57-1.02-.99s-.37-.9-.37-1.44.12-1.03.37-1.44c.25-.42.58-.75 1.02-.99.43-.24.93-.36 1.49-.36s1.06.12 1.49.36q.645.36 1.02.99c.25.42.37.9.37 1.44s-.12 1.02-.37 1.44c-.24.42-.58.75-1.01.99s-.93.36-1.49.36m0-1.31c.28 0 .52-.06.73-.19s.38-.3.49-.52c.12-.22.18-.47.18-.76s-.06-.54-.18-.77c-.12-.22-.29-.4-.5-.52-.21-.13-.46-.19-.74-.19s-.51.06-.73.19c-.21.12-.38.3-.5.52s-.18.48-.18.77.06.54.18.76.29.39.5.52.46.19.74.19Z" fill="#fffcef" data-color="1"/>
        <path d="M119.38 40.42c-.54 0-1.02-.12-1.43-.36s-.74-.57-.97-.99c-.24-.42-.35-.9-.35-1.44s.12-1.03.35-1.44.56-.75.97-.99.89-.36 1.43-.36c.42 0 .79.07 1.12.22s.62.34.86.6.43.55.55.89l-1.36.43c-.07-.17-.16-.32-.28-.44a1.2 1.2 0 0 0-.91-.39c-.25 0-.47.06-.67.19-.2.12-.35.3-.46.52s-.17.48-.17.77.06.54.17.77c.11.22.27.4.47.52.2.13.42.19.68.19.2 0 .37-.03.52-.1s.27-.17.38-.29.2-.27.27-.44l1.36.43c-.12.34-.31.64-.55.9s-.53.46-.87.6-.72.22-1.13.22Z" fill="#fffcef" data-color="1"/>
        <path d="M125.12 40.42q-.84 0-1.5-.36c-.66-.36-.77-.57-1.02-.99s-.37-.9-.37-1.44.12-1.03.37-1.44c.25-.42.58-.75 1.02-.99.43-.24.93-.36 1.49-.36s1.06.12 1.49.36q.645.36 1.02.99c.25.42.37.9.37 1.44s-.12 1.02-.37 1.44c-.24.42-.58.75-1.01.99s-.93.36-1.49.36m0-1.31c.28 0 .52-.06.73-.19s.38-.3.49-.52c.12-.22.18-.47.18-.76s-.06-.54-.18-.77c-.12-.22-.29-.4-.5-.52-.21-.13-.46-.19-.73-.19s-.52.06-.73.19c-.21.12-.38.3-.5.52s-.18.48-.18.77.06.54.19.76.29.39.5.52.46.19.74.19Z" fill="#fffcef" data-color="1"/>
        <path d="M128.64 40.32v-5.39h1.58l1.3 1.92 1.3-1.92h1.58v5.39h-1.42v-3.19l-1.45 2.11-1.46-2.11v3.19z" fill="#fffcef" data-color="1"/>
        <path d="M137.09 40.32v-5.39h3.61v1.31h-2.19v.75h1.77v1.27h-1.77v.75h2.24v1.31z" fill="#fffcef" data-color="1"/>
        <path d="M141.61 40.32v-5.39h2.23q.615 0 1.08.24c.465.24.56.38.74.66s.27.61.27.98-.09.7-.27.98c-.18.29-.42.51-.74.67q-.465.24-1.08.24h-.81v1.62zm1.42-2.92h.77c.2 0 .35-.05.47-.16q.18-.165.18-.42c0-.255-.06-.31-.18-.42a.67.67 0 0 0-.47-.16h-.77z" fill="#fffcef" data-color="1"/>
        <path d="m146.01 40.32 2.06-5.39h1.42l-1.97 5.39zm.97-.86v-1.25h3.73v1.25zm3.18.86-1.97-5.39h1.42l2.06 5.39z" fill="#fffcef" data-color="1"/>
        <path d="m151.86 41.19.51-1.99h1.39l-.89 1.99h-1Z" fill="#fffcef" data-color="1"/>
        <path d="M156.16 40.32v-5.39h1.8c.59 0 1.11.12 1.57.35.45.23.81.55 1.07.95s.38.87.38 1.4-.13.99-.38 1.39c-.26.41-.61.72-1.07.96-.46.23-.98.35-1.57.35h-1.8Zm1.42-1.35h.38c.23 0 .43-.03.62-.1s.35-.16.49-.28.25-.26.32-.42c.08-.16.12-.35.12-.55s-.04-.38-.12-.55c-.08-.16-.19-.3-.32-.42s-.3-.21-.49-.28-.4-.1-.62-.1h-.38z" fill="#fffcef" data-color="1"/>
        <path d="M161.63 40.32v-5.4h1.42v5.4zm.98-2.08v-1.31h3.27v1.31zm2.43 2.08v-5.39h1.43v5.39z" fill="#fffcef" data-color="1"/>
        <path d="m166.98 40.32 2.06-5.39h1.42l-1.97 5.39zm.98-.86v-1.25h3.73v1.25zm3.17.86-1.97-5.39h1.42l2.06 5.39z" fill="#fffcef" data-color="1"/>
        <path d="M174.93 40.32v-5.39h3.61v1.31h-2.19v.75h1.77v1.27h-1.77v.75h2.24v1.31h-3.67Z" fill="#fffcef" data-color="1"/>
        <path d="M182.41 40.32v-4.08h-1.53v-1.31h4.47v1.31h-1.52v4.08z" fill="#fffcef" data-color="1"/>
        <path d="m185.07 40.32 2.06-5.39h1.42l-1.97 5.39zm.97-.86v-1.25h3.73v1.25zm3.18.86-1.97-5.39h1.42l2.06 5.39z" fill="#fffcef" data-color="1"/>
        <path d="M193.46 40.42c-.48 0-.89-.09-1.23-.26s-.61-.42-.79-.75-.27-.71-.27-1.17v-3.3h1.43v3.3c0 .18.04.33.11.46s.17.23.3.29.29.1.47.1.34-.03.48-.1a.7.7 0 0 0 .3-.29c.07-.13.1-.28.1-.46v-3.3h1.43v3.3c0 .45-.09.84-.28 1.17s-.45.58-.8.75-.76.26-1.25.26" fill="#fffcef" data-color="1"/>
        <path d="M196.63 40.32v-5.39h2.23c.4 0 .76.08 1.08.23.31.16.56.37.73.65.18.28.27.59.27.95s-.09.68-.27.96-.42.5-.73.65q-.465.24-1.08.24h-.81v1.71h-1.43Zm1.43-3.02h.73c.13 0 .24-.02.34-.07s.17-.11.23-.19.08-.17.08-.28c0-.15-.06-.28-.18-.38a.72.72 0 0 0-.47-.15h-.73zm1.47 3.02-1.2-2.12 1.07-.8 1.76 2.92z" fill="#fffcef" data-color="1"/>
        <path d="M201.74 40.32v-5.39h1.43v5.39z" fill="#fffcef" data-color="1"/>
        <path d="M204.09 40.32v-5.39h1.5l2.1 2.96v-2.96h1.42v5.39h-1.42l-2.18-3.07v3.07z" fill="#fffcef" data-color="1"/>
        <path d="m209.63 40.32 2.06-5.39h1.42l-1.97 5.39zm.97-.86v-1.25h3.73v1.25zm3.18.86-1.97-5.39h1.42l2.06 5.39z" fill="#fffcef" data-color="1"/>
        <path d="M61.84 49.02v-5.39h.66l3.21 4.33v-4.33h.66v5.39h-.66l-3.22-4.35v4.35z" fill="#fffcef" data-color="1"/>
        <path d="M67.53 47.14v-1.97h.62v1.97zm.61 0c0 .38.04.67.13.87s.21.34.37.41.33.11.53.11q.495 0 .78-.36c.285-.36.28-.58.28-1.01h.3c0 .41-.06.75-.18 1.05s-.29.52-.51.67-.5.23-.82.23c-.3 0-.56-.06-.79-.18s-.4-.31-.52-.58-.19-.61-.19-1.03v-.18zm2.13 1.88-.04-.71v-3.14h.62v3.85z" fill="#fffcef" data-color="1"/>
        <path d="M71.52 45.72v-.55h2.44v.55zm1.85 3.4c-.37 0-.67-.1-.87-.29s-.31-.47-.31-.82v-4.03h.62v3.96c0 .2.05.35.16.45s.25.16.44.16c.06 0 .12 0 .18-.03.06-.02.14-.06.23-.13l.24.5a1.2 1.2 0 0 1-.69.23" fill="#fffcef" data-color="1"/>
        <path d="M74.83 49.02v-3.85h.62v3.85zm.34-2.08c0-.42.08-.75.24-1.01s.36-.45.61-.58.51-.19.79-.19v.58c-.23 0-.44.04-.65.11s-.38.2-.51.37-.2.4-.2.69z" fill="#fffcef" data-color="1"/>
        <path d="M77.79 44.28q-.15 0-.27-.12c-.12-.12-.12-.17-.12-.27q0-.165.12-.27c.12-.105.17-.11.27-.11s.2.04.27.11.11.17.11.27-.04.19-.11.27q-.12.12-.27.12m-.32 4.74v-3.85h.62v3.85z" fill="#fffcef" data-color="1"/>
        <path d="M80.91 49.12c-.38 0-.71-.09-.99-.26-.29-.17-.51-.41-.67-.71q-.24-.45-.24-1.05c0-.6.08-.74.24-1.05.16-.3.38-.54.67-.71.28-.17.61-.26.98-.26s.67.09.93.27.46.42.61.74.22.69.22 1.12h-3.18l.15-.13c0 .31.05.57.17.79s.27.39.47.5c.2.12.43.17.69.17.27 0 .5-.06.69-.19s.33-.3.43-.51l.53.27c-.1.2-.23.38-.39.52-.16.15-.35.26-.57.35-.22.08-.46.12-.73.12Zm-1.25-2.3-.16-.12h2.66l-.16.13c0-.25-.05-.46-.15-.64q-.15-.27-.39-.42c-.17-.1-.35-.15-.57-.15s-.41.05-.6.15-.34.23-.45.41c-.12.18-.17.39-.17.64Z" fill="#fffcef" data-color="1"/>
        <path d="M83.43 49.02v-3.85h.58l.04.71v3.14zm2.7-1.97c0-.38-.04-.67-.13-.87s-.21-.34-.36-.41-.33-.11-.52-.11c-.34 0-.6.12-.79.36s-.28.58-.28 1.01h-.3c0-.41.06-.75.18-1.05.12-.29.29-.52.52-.67s.5-.23.82-.23.57.06.79.18.4.31.52.57.19.61.18 1.03v.18h-.62Zm0 1.97v-1.97h.62v1.97z" fill="#fffcef" data-color="1"/>
        <path d="M87.32 45.72v-.55h2.44v.55zm1.85 3.4c-.37 0-.67-.1-.87-.29s-.31-.47-.31-.82v-4.03h.62v3.96c0 .2.05.35.16.45s.25.16.44.16c.06 0 .12 0 .18-.03.06-.02.14-.06.23-.13l.24.5a1.2 1.2 0 0 1-.69.23" fill="#fffcef" data-color="1"/>
        <path d="M92.3 49.12c-.38 0-.71-.09-.99-.26-.29-.17-.51-.41-.67-.71q-.24-.45-.24-1.05c0-.6.08-.74.24-1.05.16-.3.38-.54.67-.71.28-.17.61-.26.98-.26s.67.09.93.27.46.42.61.74.22.69.22 1.12h-3.18l.15-.13c0 .31.05.57.17.79s.27.39.47.5c.2.12.43.17.69.17.27 0 .5-.06.69-.19s.33-.3.43-.51l.53.27c-.1.2-.23.38-.39.52-.16.15-.35.26-.57.35-.22.08-.46.12-.73.12Zm-1.25-2.3-.16-.12h2.66l-.16.13c0-.25-.05-.46-.15-.64q-.15-.27-.39-.42c-.17-.1-.35-.15-.57-.15s-.41.05-.6.15-.34.23-.45.41c-.12.18-.17.39-.17.64Z" fill="#fffcef" data-color="1"/>
        <path d="M96.16 49.12c-.28 0-.53-.04-.74-.13-.21-.08-.39-.2-.53-.33a1.2 1.2 0 0 1-.3-.46l.54-.22c.09.17.22.32.39.42.17.11.37.16.58.16.24 0 .44-.05.61-.14a.45.45 0 0 0 .25-.4c0-.16-.06-.29-.18-.38q-.18-.15-.54-.24l-.37-.1c-.35-.09-.62-.23-.82-.42-.19-.19-.29-.4-.29-.63 0-.36.12-.65.36-.85s.59-.3 1.07-.3c.23 0 .43.03.62.1.18.07.34.16.48.28.13.12.23.26.29.43l-.54.24a.73.73 0 0 0-.33-.38 1.2 1.2 0 0 0-.56-.12c-.24 0-.42.05-.55.15s-.2.24-.2.42c0 .1.06.2.17.29s.27.16.49.22l.38.1q.375.09.63.27c.17.12.3.26.39.41s.13.32.13.49c0 .23-.06.43-.19.6-.12.17-.29.3-.5.39s-.45.13-.72.13Z" fill="#fffcef" data-color="1"/>
        <path d="M101.99 49.12c-.38 0-.71-.09-.99-.26-.29-.17-.51-.41-.67-.71q-.24-.45-.24-1.05c0-.6.08-.74.24-1.05.16-.3.38-.54.67-.71.28-.17.61-.26.98-.26s.67.09.93.27.46.42.61.74.22.69.22 1.12h-3.18l.15-.13c0 .31.05.57.17.79s.27.39.47.5c.2.12.43.17.69.17.27 0 .5-.06.69-.19s.33-.3.43-.51l.53.27c-.1.2-.23.38-.39.52-.16.15-.35.26-.57.35-.22.08-.46.12-.73.12Zm-1.25-2.3-.16-.12h2.66l-.16.13c0-.25-.05-.46-.15-.64q-.15-.27-.39-.42c-.17-.1-.35-.15-.57-.15s-.41.05-.6.15-.34.23-.45.41c-.12.18-.17.39-.17.64Z" fill="#fffcef" data-color="1"/>
        <path d="M105.85 49.12c-.28 0-.53-.04-.74-.13-.21-.08-.39-.2-.53-.33a1.2 1.2 0 0 1-.3-.46l.54-.22c.09.17.22.32.39.42.17.11.37.16.58.16.24 0 .44-.05.61-.14a.45.45 0 0 0 .25-.4c0-.16-.06-.29-.18-.38q-.18-.15-.54-.24l-.37-.1c-.35-.09-.62-.23-.82-.42-.19-.19-.29-.4-.29-.63 0-.36.12-.65.36-.85s.59-.3 1.07-.3c.23 0 .43.03.62.1.18.07.34.16.48.28.13.12.23.26.29.43l-.54.24a.73.73 0 0 0-.33-.38 1.2 1.2 0 0 0-.56-.12c-.24 0-.42.05-.55.15s-.2.24-.2.42c0 .1.06.2.17.29s.27.16.49.22l.38.1q.375.09.63.27c.17.12.3.26.39.41s.13.32.13.49c0 .23-.06.43-.19.6-.12.17-.29.3-.5.39s-.45.13-.72.13Z" fill="#fffcef" data-color="1"/>
        <path d="M109.44 49.12c-.28 0-.53-.04-.74-.13-.21-.08-.39-.2-.53-.33a1.2 1.2 0 0 1-.3-.46l.54-.22c.09.17.22.32.39.42.17.11.37.16.58.16.24 0 .44-.05.61-.14a.45.45 0 0 0 .25-.4c0-.16-.06-.29-.18-.38q-.18-.15-.54-.24l-.37-.1c-.35-.09-.62-.23-.82-.42-.19-.19-.29-.4-.29-.63 0-.36.12-.65.36-.85s.59-.3 1.07-.3c.23 0 .43.03.62.1.18.07.34.16.48.28.13.12.23.26.29.43l-.54.24a.73.73 0 0 0-.33-.38 1.2 1.2 0 0 0-.56-.12c-.24 0-.42.05-.55.15s-.2.24-.2.42c0 .1.06.2.17.29s.27.16.49.22l.38.1q.375.09.63.27c.17.12.3.26.39.41s.13.32.13.49c0 .23-.06.43-.19.6-.12.17-.29.3-.5.39s-.45.13-.72.13Z" fill="#fffcef" data-color="1"/>
        <path d="M113.37 49.12c-.38 0-.71-.09-.99-.26-.29-.17-.51-.41-.67-.71q-.24-.45-.24-1.05c0-.6.08-.74.24-1.05.16-.3.38-.54.67-.71.28-.17.61-.26.98-.26s.67.09.93.27.46.42.61.74.22.69.22 1.12h-3.18l.15-.13c0 .31.05.57.17.79s.27.39.47.5c.2.12.43.17.69.17.27 0 .5-.06.69-.19s.33-.3.43-.51l.53.27c-.1.2-.23.38-.39.52-.16.15-.35.26-.57.35-.22.08-.46.12-.73.12Zm-1.25-2.3-.16-.12h2.66l-.16.13c0-.25-.05-.46-.15-.64q-.15-.27-.39-.42c-.17-.1-.35-.15-.57-.15s-.41.05-.6.15-.34.23-.45.41c-.12.18-.17.39-.17.64Z" fill="#fffcef" data-color="1"/>
        <path d="M115.89 49.02v-3.85h.58l.04.71v3.14zm2.7-1.97c0-.38-.04-.67-.13-.87s-.21-.34-.36-.41-.33-.11-.52-.11c-.34 0-.6.12-.79.36s-.28.58-.28 1.01h-.3c0-.41.06-.75.18-1.05.12-.29.29-.52.52-.67s.5-.23.82-.23.57.06.79.18.4.31.52.57.19.61.18 1.03v.18h-.62Zm0 1.97v-1.97h.62v1.97z" fill="#fffcef" data-color="1"/>
        <path d="M121.9 49.12c-.38 0-.72-.09-1.01-.26s-.52-.41-.68-.71c-.17-.3-.25-.65-.25-1.05s.08-.74.24-1.05c.16-.3.39-.54.68-.71s.63-.26 1-.26.7.08.99.25.52.41.67.72l-.56.25q-.15-.315-.45-.48c-.2-.12-.42-.17-.67-.17s-.47.06-.67.19-.34.29-.46.51c-.11.22-.17.47-.17.75s.05.53.17.75c.11.22.26.39.46.51s.42.18.67.18.48-.06.67-.19q.3-.195.45-.54l.56.25c-.15.33-.38.59-.67.77s-.63.28-1 .28Z" fill="#fffcef" data-color="1"/>
        <path d="M124.71 44.28q-.15 0-.27-.12a.37.37 0 0 1-.12-.27q0-.165.12-.27c.08-.07.17-.11.27-.11s.2.04.27.11.11.17.11.27-.04.19-.11.27q-.12.12-.27.12m-.32 4.74v-3.85h.62v3.85z" fill="#fffcef" data-color="1"/>
        <path d="M127.35 49.12c-.45 0-.8-.1-1.06-.31s-.38-.5-.38-.87q0-.585.39-.9c.26-.21.62-.31 1.09-.31h1.1v.52h-.96c-.36 0-.61.06-.77.18s-.23.29-.23.51c0 .2.07.36.22.47.15.12.36.17.62.17.22 0 .41-.05.58-.14s.29-.23.38-.41.13-.39.13-.63h.26c0 .52-.12.94-.35 1.25s-.58.47-1.03.47Zm1.16-.1-.03-.63v-1.4c0-.3-.03-.55-.1-.75s-.17-.35-.32-.45c-.14-.1-.33-.15-.56-.15-.21 0-.39.04-.54.13-.15.08-.28.22-.38.4l-.55-.22c.1-.18.21-.33.35-.47s.3-.23.48-.3c.19-.07.4-.1.63-.1.36 0 .65.07.89.21.23.14.41.35.53.62.12.28.17.62.17 1.02v2.09h-.58Z" fill="#fffcef" data-color="1"/>
        <path d="M130.42 44.28q-.15 0-.27-.12a.37.37 0 0 1-.12-.27q0-.165.12-.27c.08-.07.17-.11.27-.11s.2.04.27.11.11.17.11.27-.04.19-.11.27q-.12.12-.27.12m-.32 4.74v-3.85h.62v3.85z" fill="#fffcef" data-color="1"/>
        <path d="M133.2 49.12c-.28 0-.53-.04-.74-.13-.21-.08-.39-.2-.53-.33a1.2 1.2 0 0 1-.3-.46l.54-.22a1.08 1.08 0 0 0 .97.58c.24 0 .44-.05.61-.14a.45.45 0 0 0 .25-.4c0-.16-.06-.29-.18-.38s-.3-.18-.54-.24l-.37-.1c-.35-.09-.62-.23-.82-.42s-.29-.4-.29-.63c0-.36.12-.65.36-.85s.6-.3 1.07-.3c.23 0 .43.03.62.1.18.07.34.16.48.28.13.12.23.26.29.43l-.54.24a.73.73 0 0 0-.33-.38 1.2 1.2 0 0 0-.56-.12c-.24 0-.42.05-.55.15s-.2.24-.2.42c0 .1.06.2.17.29s.27.16.49.22l.38.1q.375.09.63.27c.17.12.3.26.38.41s.13.32.13.49c0 .23-.06.43-.19.6-.12.17-.29.3-.5.39s-.45.13-.72.13Z" fill="#fffcef" data-color="1"/>
        <path d="M138.86 49.12c-.34 0-.65-.08-.91-.25s-.47-.41-.61-.71-.22-.66-.22-1.05.07-.75.22-1.05.35-.54.61-.71.56-.25.91-.25c.32 0 .61.08.85.25s.43.41.56.71.2.65.2 1.05-.07.75-.2 1.05c-.13.31-.32.54-.56.71s-.53.25-.85.25m.13-.57c.22 0 .43-.06.6-.18.18-.12.31-.29.41-.52q.15-.33.15-.75c0-.42-.05-.53-.15-.75s-.24-.39-.41-.52c-.17-.12-.38-.18-.61-.18a1.14 1.14 0 0 0-1.08.7c-.1.23-.16.47-.16.75s.05.53.16.75.26.39.45.52c.19.12.4.18.65.18Zm1.17 2.01v-4.67l.03-.72h.59v5.39z" fill="#fffcef" data-color="1"/>
        <path d="M141.69 47.14v-1.97h.62v1.97zm.61 0c0 .38.04.67.13.87s.21.34.37.41.33.11.53.11q.495 0 .78-.36c.285-.36.28-.58.28-1.01h.3c0 .41-.06.75-.18 1.05-.12.29-.29.52-.51.67s-.5.23-.82.23c-.3 0-.56-.06-.79-.18s-.4-.31-.52-.58-.19-.61-.19-1.03v-.18zm2.13 1.88-.04-.71v-3.14h.62v3.85z" fill="#fffcef" data-color="1"/>
        <path d="M147.77 49.12c-.38 0-.71-.09-.99-.26-.29-.17-.51-.41-.67-.71q-.24-.45-.24-1.05c0-.6.08-.74.24-1.05.16-.3.38-.54.67-.71.28-.17.61-.26.98-.26s.67.09.93.27.46.42.61.74c.14.32.21.69.21 1.12h-3.18l.15-.13c0 .31.05.57.16.79s.27.39.47.5c.2.12.43.17.69.17.27 0 .5-.06.69-.19s.33-.3.43-.51l.53.27c-.1.2-.23.38-.39.52-.16.15-.35.26-.57.35-.22.08-.46.12-.73.12Zm-1.25-2.3-.16-.12h2.66l-.16.13c0-.25-.05-.46-.15-.64s-.23-.32-.39-.42-.35-.15-.57-.15-.41.05-.6.15-.34.23-.46.41-.17.39-.17.64" fill="#fffcef" data-color="1"/>
        <path d="M153.91 49.12c-.38 0-.72-.09-1.01-.26s-.52-.41-.68-.71c-.17-.3-.25-.65-.25-1.05s.08-.74.24-1.05c.16-.3.39-.54.68-.71s.63-.26 1-.26.7.08.99.25.52.41.67.72l-.56.25q-.15-.315-.45-.48c-.3-.165-.42-.17-.67-.17s-.47.06-.67.19c-.19.12-.34.29-.46.51-.11.22-.16.47-.16.75s.05.53.16.75.27.39.46.51.42.18.67.18.48-.06.67-.19.35-.31.45-.54l.56.25c-.15.33-.38.59-.67.77s-.62.28-1 .28Z" fill="#fffcef" data-color="1"/>
        <path d="M158.07 49.12c-.38 0-.71-.09-1.01-.26-.29-.17-.52-.41-.68-.71-.17-.3-.25-.65-.25-1.05s.08-.74.24-1.05c.16-.3.39-.54.68-.71s.62-.26 1-.26.71.09 1 .26.52.41.68.71q.24.45.24 1.05c0 .6-.08.74-.24 1.05-.16.3-.39.54-.67.71-.29.17-.62.26-.99.26m-.01-.58c.25 0 .47-.06.67-.18s.34-.29.46-.51c.11-.22.16-.47.16-.75s-.05-.53-.16-.75-.26-.39-.46-.51-.42-.19-.68-.19-.47.06-.67.19c-.19.12-.34.29-.46.51-.11.22-.16.47-.16.75s.05.53.16.75.27.39.46.51.42.18.67.18Z" fill="#fffcef" data-color="1"/>
        <path d="M160.82 49.02v-3.85h.58l.04.71v3.14zm2.71-1.97c0-.38-.04-.67-.13-.87s-.21-.34-.36-.41-.33-.11-.52-.11c-.34 0-.6.12-.79.36s-.28.58-.28 1.01h-.3c0-.41.06-.75.18-1.05.12-.29.29-.52.52-.67.22-.15.5-.23.82-.23s.56.06.79.18c.22.12.4.31.52.57s.19.61.18 1.03v.18h-.62Zm0 1.97v-1.97h.62v1.97z" fill="#fffcef" data-color="1"/>
        <path d="M164.72 45.72v-.55h2.44v.55zm1.85 3.4c-.37 0-.66-.1-.87-.29s-.31-.47-.31-.82v-4.03h.62v3.96c0 .2.05.35.16.45s.25.16.44.16c.06 0 .12 0 .18-.03.06-.02.14-.06.23-.13l.24.5a1.2 1.2 0 0 1-.69.23" fill="#fffcef" data-color="1"/>
        <path d="M168.03 49.02v-3.85h.62v3.85zm.34-2.08c0-.42.08-.75.24-1.01s.36-.45.61-.58.51-.19.79-.19v.58c-.22 0-.44.04-.65.11s-.38.2-.51.37-.2.4-.2.69z" fill="#fffcef" data-color="1"/>
        <path d="M170.99 44.28q-.15 0-.27-.12a.37.37 0 0 1-.12-.27q0-.165.12-.27c.08-.07.17-.11.27-.11s.2.04.27.11.11.17.11.27-.04.19-.11.27-.17.12-.27.12m-.32 4.74v-3.85h.62v3.85z" fill="#fffcef" data-color="1"/>
        <path d="M172.42 49.02v-5.39h.62v4.67l-.03.72zm1.92.1c-.32 0-.61-.08-.85-.25s-.43-.41-.57-.71c-.13-.31-.2-.66-.2-1.05s.07-.75.2-1.05.32-.54.57-.71c.24-.17.53-.25.85-.25.34 0 .65.08.91.25s.47.41.61.71c.15.3.22.65.22 1.05s-.07.75-.22 1.05a1.615 1.615 0 0 1-1.52.96m-.14-.57c.24 0 .46-.06.64-.18s.34-.29.45-.51.17-.47.17-.76-.05-.53-.16-.75-.25-.39-.44-.52-.4-.18-.65-.18c-.23 0-.43.06-.61.18s-.31.29-.42.51c-.1.22-.15.47-.15.76s.05.53.15.75.24.39.41.52q.27.18.6.18Z" fill="#fffcef" data-color="1"/>
        <path d="M176.83 47.14v-1.97h.62v1.97zm.62 0c0 .38.04.67.13.87s.21.34.37.41.33.11.53.11q.495 0 .78-.36c.285-.36.28-.58.28-1.01h.3c0 .41-.06.75-.18 1.05-.12.29-.29.52-.51.67s-.5.23-.82.23c-.3 0-.56-.06-.79-.18s-.4-.31-.52-.58-.19-.61-.19-1.03v-.18zm2.12 1.88-.04-.71v-3.14h.62v3.85z" fill="#fffcef" data-color="1"/>
        <path d="M182.91 49.12c-.38 0-.71-.09-.99-.26-.29-.17-.51-.41-.67-.71s-.24-.65-.24-1.05.08-.74.24-1.05c.16-.3.38-.54.67-.71s.61-.26.98-.26.67.09.93.27.46.42.61.74c.14.32.22.69.22 1.12h-3.18l.15-.13c0 .31.05.57.17.79.11.22.27.39.46.5.2.12.43.17.69.17.27 0 .5-.06.69-.19s.33-.3.44-.51l.53.27c-.1.2-.23.38-.39.52-.16.15-.35.26-.57.35s-.46.12-.73.12Zm-1.24-2.3-.16-.12h2.66l-.16.13c0-.25-.05-.46-.14-.64q-.15-.27-.39-.42-.255-.15-.57-.15c-.315 0-.41.05-.6.15s-.34.23-.45.41c-.12.18-.17.39-.17.64Z" fill="#fffcef" data-color="1"/>
        <path d="M185.43 49.02v-3.85h.58l.03.54c.12-.21.27-.36.46-.47.18-.11.4-.16.65-.16.31 0 .57.07.79.22s.38.36.47.65c.11-.28.27-.5.47-.65.21-.15.46-.22.74-.22.43 0 .77.14 1.02.43s.37.72.37 1.31v2.2h-.62v-1.97q0-.57-.12-.87c-.08-.2-.19-.34-.32-.41s-.29-.11-.46-.11c-.3 0-.54.12-.71.36s-.25.58-.25 1.01v1.99h-.62v-1.97q0-.57-.12-.87c-.12-.3-.19-.34-.32-.41a1 1 0 0 0-.46-.11c-.3 0-.53.12-.7.36s-.25.58-.25 1.01v1.99h-.62Z" fill="#fffcef" data-color="1"/>
        <path d="M193.92 50.56v-5.39h.58l.04.71v4.68zm1.92-1.44c-.32 0-.61-.08-.85-.25s-.43-.41-.57-.71c-.13-.31-.2-.66-.2-1.05s.07-.75.2-1.05.32-.54.57-.71c.24-.17.53-.25.85-.25.34 0 .65.08.91.25s.46.41.61.71.22.65.22 1.05-.07.75-.22 1.05-.35.54-.61.71-.56.25-.91.25m-.14-.57c.24 0 .46-.06.64-.18s.34-.29.45-.51.17-.47.17-.76-.05-.53-.16-.75c-.1-.22-.25-.39-.44-.52s-.4-.18-.65-.18c-.23 0-.43.06-.61.18s-.32.29-.42.51-.15.47-.15.76.05.53.15.75.24.39.41.52.38.18.6.18Z" fill="#fffcef" data-color="1"/>
        <path d="M199.65 49.12c-.45 0-.8-.1-1.06-.31s-.38-.5-.38-.87q0-.585.39-.9c.39-.315.62-.31 1.09-.31h1.1v.52h-.96c-.36 0-.62.06-.77.18a.62.62 0 0 0-.23.51c0 .2.07.36.22.47.15.12.36.17.62.17.22 0 .41-.05.58-.14.16-.09.29-.23.38-.41s.13-.39.13-.63h.26c0 .52-.12.94-.36 1.25s-.58.47-1.03.47Zm1.16-.1-.03-.63v-1.4c0-.3-.03-.55-.1-.75a.9.9 0 0 0-.31-.45c-.14-.1-.33-.15-.56-.15-.21 0-.39.04-.54.13-.15.08-.28.22-.37.4l-.55-.22c.1-.18.21-.33.35-.47s.3-.23.49-.3c.18-.07.39-.1.63-.1.36 0 .66.07.89.21s.41.35.53.62c.12.28.18.62.17 1.02v2.09h-.58Z" fill="#fffcef" data-color="1"/>
        <path d="M202.36 49.02v-3.85h.62v3.85zm.34-2.08c0-.42.08-.75.24-1.01s.36-.45.61-.58.51-.19.79-.19v.58c-.23 0-.44.04-.65.11s-.38.2-.51.37-.2.4-.2.69z" fill="#fffcef" data-color="1"/>
        <path d="M206.18 49.12c-.45 0-.8-.1-1.06-.31s-.38-.5-.38-.87q0-.585.39-.9c.39-.315.62-.31 1.09-.31h1.1v.52h-.96c-.36 0-.62.06-.77.18a.62.62 0 0 0-.23.51c0 .2.07.36.22.47.15.12.36.17.62.17.22 0 .41-.05.58-.14.16-.09.29-.23.38-.41s.13-.39.13-.63h.26c0 .52-.12.94-.36 1.25s-.58.47-1.03.47Zm1.16-.1-.03-.63v-1.4c0-.3-.03-.55-.1-.75a.9.9 0 0 0-.31-.45c-.14-.1-.33-.15-.56-.15-.21 0-.39.04-.54.13-.15.08-.28.22-.37.4l-.55-.22c.1-.18.21-.33.35-.47s.3-.23.49-.3c.18-.07.39-.1.63-.1.36 0 .66.07.89.21s.41.35.53.62c.12.28.18.62.17 1.02v2.09h-.58Z" fill="#fffcef" data-color="1"/>
        <path d="M212.5 49.12c-.38 0-.71-.09-1-.26s-.52-.41-.68-.71-.25-.65-.25-1.05.08-.74.24-1.05c.16-.3.39-.54.68-.71s.62-.26 1-.26.71.09 1 .26.52.41.68.71q.24.45.24 1.05c0 .6-.08.74-.24 1.05s-.39.54-.67.71c-.29.17-.62.26-.99.26Zm-.01-.58c.25 0 .47-.06.67-.18q.285-.18.45-.51c.11-.22.17-.47.17-.75s-.05-.53-.17-.75a1.2 1.2 0 0 0-.46-.51c-.2-.12-.42-.19-.68-.19s-.47.06-.67.19c-.19.12-.35.29-.46.51s-.17.47-.17.75.05.53.17.75c.11.22.26.39.46.51s.42.18.67.18Z" fill="#fffcef" data-color="1"/>
        <path d="M217.16 49.02v-5.39h.62v4.67l-.03.72zm1.92.1c-.32 0-.61-.08-.85-.25s-.43-.41-.57-.71c-.13-.31-.2-.66-.2-1.05s.07-.75.2-1.05.32-.54.57-.71c.24-.17.53-.25.85-.25.34 0 .65.08.91.25s.47.41.61.71c.15.3.22.65.22 1.05s-.07.75-.22 1.05a1.615 1.615 0 0 1-1.52.96m-.14-.57c.24 0 .46-.06.64-.18s.34-.29.45-.51.17-.47.17-.76-.05-.53-.16-.75-.25-.39-.44-.52-.4-.18-.65-.18c-.23 0-.43.06-.61.18s-.31.29-.42.51c-.1.22-.15.47-.15.76s.05.53.15.75.24.39.41.52q.27.18.6.18Z" fill="#fffcef" data-color="1"/>
        <path d="M223.36 49.12c-.38 0-.71-.09-.99-.26-.29-.17-.51-.41-.67-.71s-.24-.65-.24-1.05.08-.74.24-1.05c.16-.3.38-.54.67-.71s.61-.26.98-.26.67.09.93.27.46.42.61.74c.14.32.22.69.22 1.12h-3.18l.15-.13c0 .31.05.57.17.79.11.22.27.39.46.5.2.12.43.17.69.17.27 0 .5-.06.69-.19s.33-.3.44-.51l.53.27c-.1.2-.23.38-.39.52-.16.15-.35.26-.57.35s-.46.12-.73.12Zm-1.25-2.3-.16-.12h2.66l-.16.13c0-.25-.05-.46-.14-.64q-.15-.27-.39-.42-.255-.15-.57-.15c-.315 0-.41.05-.6.15s-.34.23-.45.41c-.12.18-.17.39-.17.64Z" fill="#fffcef" data-color="1"/>
        <path d="M225.88 49.02v-3.85h.58l.03.54c.12-.21.27-.36.46-.47.18-.11.4-.16.65-.16.31 0 .57.07.79.22s.38.36.47.65c.11-.28.27-.5.47-.65.21-.15.46-.22.74-.22.43 0 .77.14 1.02.43s.37.72.37 1.31v2.2h-.62v-1.97q0-.57-.12-.87c-.08-.2-.19-.34-.32-.41s-.29-.11-.46-.11c-.3 0-.54.12-.71.36s-.25.58-.25 1.01v1.99h-.62v-1.97q0-.57-.12-.87c-.12-.3-.19-.34-.32-.41a1 1 0 0 0-.46-.11c-.3 0-.53.12-.7.36s-.25.58-.25 1.01v1.99h-.62Z" fill="#fffcef" data-color="1"/>
        <path d="M232.34 47.01v-.56h2.31v.56z" fill="#fffcef" data-color="1"/>
        <path d="M237.33 49.12c-.38 0-.71-.09-.99-.26-.29-.17-.51-.41-.67-.71q-.24-.45-.24-1.05c0-.6.08-.74.24-1.05.16-.3.38-.54.67-.71.28-.17.61-.26.98-.26s.67.09.93.27.46.42.61.74c.14.32.21.69.21 1.12h-3.18l.15-.13c0 .31.05.57.16.79s.27.39.47.5c.2.12.43.17.69.17.27 0 .5-.06.69-.19s.33-.3.43-.51l.53.27c-.1.2-.23.38-.39.52-.16.15-.35.26-.57.35-.22.08-.46.12-.73.12Zm-1.25-2.3-.16-.12h2.66l-.16.13c0-.25-.05-.46-.15-.64s-.23-.32-.39-.42-.35-.15-.57-.15-.41.05-.6.15-.34.23-.46.41-.17.39-.17.64" fill="#fffcef" data-color="1"/>
        <path d="M241.19 49.12c-.28 0-.53-.04-.74-.13-.21-.08-.39-.2-.53-.33a1.2 1.2 0 0 1-.3-.46l.54-.22c.09.17.22.32.39.42.17.11.37.16.58.16.24 0 .44-.05.61-.14s.25-.23.25-.4c0-.16-.06-.29-.18-.38q-.18-.15-.54-.24l-.37-.1c-.35-.09-.62-.23-.82-.42-.19-.19-.29-.4-.29-.63 0-.36.12-.65.36-.85s.59-.3 1.07-.3c.23 0 .43.03.62.1s.34.16.48.28c.13.12.23.26.29.43l-.54.24c-.07-.17-.18-.3-.33-.38s-.34-.12-.56-.12c-.24 0-.42.05-.55.15s-.2.24-.2.42c0 .1.05.2.17.29.11.09.27.16.49.22l.38.1q.375.09.63.27c.17.12.3.26.39.41s.13.32.13.49c0 .23-.06.43-.19.6-.12.17-.29.3-.5.39s-.45.13-.72.13Z" fill="#fffcef" data-color="1"/>
        <path d="M243.03 45.72v-.55h2.44v.55zm1.85 3.4c-.37 0-.66-.1-.87-.29s-.31-.47-.31-.82v-4.03h.62v3.96c0 .2.05.35.16.45s.25.16.44.16c.06 0 .12 0 .18-.03.06-.02.14-.06.23-.13l.24.5a1.2 1.2 0 0 1-.69.23" fill="#fffcef" data-color="1"/>
        <path d="M247.54 49.12c-.45 0-.8-.1-1.06-.31s-.38-.5-.38-.87q0-.585.39-.9c.26-.21.62-.31 1.09-.31h1.1v.52h-.96c-.36 0-.61.06-.77.18s-.23.29-.23.51c0 .2.07.36.22.47.15.12.36.17.62.17.22 0 .41-.05.58-.14s.29-.23.38-.41.13-.39.13-.63h.26c0 .52-.12.94-.35 1.25s-.58.47-1.03.47Zm1.15-.1-.03-.63v-1.4c0-.3-.03-.55-.1-.75s-.17-.35-.32-.45c-.14-.1-.33-.15-.56-.15-.21 0-.39.04-.54.13-.15.08-.28.22-.38.4l-.55-.22c.1-.18.21-.33.35-.47s.3-.23.48-.3c.19-.07.4-.1.63-.1.36 0 .65.07.89.21.23.14.41.35.53.62.12.28.17.62.17 1.02v2.09h-.58Z" fill="#fffcef" data-color="1"/>
        <path d="M250.25 49.02v-3.85h.62v3.85zm.34-2.08c0-.42.08-.75.24-1.01s.36-.45.61-.58.51-.19.79-.19v.58c-.22 0-.44.04-.65.11s-.38.2-.51.37-.2.4-.2.69z" fill="#fffcef" data-color="1"/>
        <path d="M63.35 57.82c-.38 0-.71-.09-.99-.26-.29-.17-.51-.41-.67-.71q-.24-.45-.24-1.05c0-.6.08-.74.24-1.05.16-.3.38-.54.67-.71.28-.17.61-.26.98-.26s.67.09.93.27.46.42.61.74.22.69.22 1.12h-3.18l.15-.13c0 .31.05.57.17.79s.27.39.47.5c.2.12.43.17.69.17.27 0 .5-.06.69-.19s.33-.3.43-.51l.53.27c-.1.2-.23.38-.39.52-.16.15-.35.26-.57.35-.22.08-.46.12-.73.12Zm-1.25-2.3-.16-.12h2.66l-.16.13c0-.25-.05-.46-.15-.64q-.15-.27-.39-.42c-.17-.1-.35-.15-.57-.15s-.41.05-.6.15-.34.23-.45.41c-.12.18-.17.39-.17.64Z" fill="#fffcef" data-color="1"/>
        <path d="M67.81 59.26v-5.39h.58l.04.71v4.68zm1.92-1.44c-.32 0-.61-.08-.85-.25s-.43-.41-.57-.71-.2-.66-.2-1.05.07-.75.2-1.05.32-.54.57-.71c.24-.17.53-.25.85-.25.34 0 .65.08.91.25s.47.41.61.71c.15.3.22.65.22 1.05s-.07.75-.22 1.05-.35.54-.61.71-.56.25-.91.25m-.14-.57c.24 0 .46-.06.64-.18s.34-.29.45-.51.17-.47.17-.76-.05-.53-.16-.75c-.1-.22-.25-.39-.44-.52s-.4-.18-.65-.18q-.345 0-.6.18-.27.18-.42.51c-.1.22-.15.47-.15.76s.05.53.15.75.24.39.41.52q.255.18.6.18" fill="#fffcef" data-color="1"/>
        <path d="M72.32 57.72v-3.85h.62v3.85zm.34-2.08c0-.42.08-.75.24-1.01s.36-.45.61-.58.51-.19.79-.19v.58c-.23 0-.44.04-.65.11s-.38.2-.51.37-.2.4-.2.69z" fill="#fffcef" data-color="1"/>
        <path d="M76.63 57.82c-.38 0-.71-.09-1-.26s-.52-.41-.68-.71c-.17-.3-.25-.65-.25-1.05s.08-.74.24-1.05c.16-.3.39-.54.68-.71s.62-.26 1-.26.71.09 1 .26.52.41.68.71q.24.45.24 1.05c0 .6-.08.74-.24 1.05-.16.3-.39.54-.67.71-.29.17-.62.26-.99.26Zm0-.57c.25 0 .47-.06.67-.18q.285-.18.45-.51c.11-.22.17-.47.17-.75s-.05-.53-.17-.75a1.2 1.2 0 0 0-.46-.51c-.2-.12-.42-.19-.68-.19s-.47.06-.67.19-.34.29-.46.51-.17.47-.17.75.05.53.17.75c.11.22.26.39.46.51s.42.18.67.18Z" fill="#fffcef" data-color="1"/>
        <path d="M79.43 59.26v-5.39h.58l.04.71v4.68zm1.92-1.44c-.32 0-.61-.08-.85-.25s-.43-.41-.57-.71-.2-.66-.2-1.05.07-.75.2-1.05.32-.54.57-.71c.24-.17.53-.25.85-.25.34 0 .65.08.91.25s.47.41.61.71c.15.3.22.65.22 1.05s-.07.75-.22 1.05-.35.54-.61.71-.56.25-.91.25m-.14-.57c.24 0 .46-.06.64-.18s.34-.29.45-.51.17-.47.17-.76-.05-.53-.16-.75c-.1-.22-.25-.39-.44-.52s-.4-.18-.65-.18q-.345 0-.6.18-.27.18-.42.51c-.1.22-.15.47-.15.76s.05.53.15.75.24.39.41.52q.255.18.6.18" fill="#fffcef" data-color="1"/>
        <path d="M85.65 57.82c-.38 0-.71-.09-1-.26s-.52-.41-.68-.71c-.17-.3-.25-.65-.25-1.05s.08-.74.24-1.05c.16-.3.39-.54.68-.71s.62-.26 1-.26.71.09 1 .26.52.41.68.71q.24.45.24 1.05c0 .6-.08.74-.24 1.05-.16.3-.39.54-.67.71-.29.17-.62.26-.99.26Zm-.01-.57c.25 0 .47-.06.67-.18q.285-.18.45-.51c.11-.22.17-.47.17-.75s-.05-.53-.17-.75a1.2 1.2 0 0 0-.46-.51c-.2-.12-.42-.19-.68-.19s-.47.06-.67.19-.34.29-.46.51-.17.47-.17.75.05.53.17.75c.11.22.26.39.46.51s.42.18.67.18Z" fill="#fffcef" data-color="1"/>
        <path d="M88.41 57.72v-3.85h.62v3.85zm.34-2.08c0-.42.08-.75.24-1.01s.36-.45.61-.58.51-.19.79-.19v.58c-.23 0-.44.04-.65.11s-.38.2-.51.37-.2.4-.2.69z" fill="#fffcef" data-color="1"/>
        <path d="M92.73 57.82c-.38 0-.72-.09-1.01-.26s-.52-.41-.68-.71c-.17-.3-.25-.65-.25-1.05s.08-.74.24-1.05c.16-.3.39-.54.68-.71s.63-.26 1-.26.7.08.99.25.52.41.67.72l-.56.25q-.15-.315-.45-.48c-.2-.12-.42-.17-.67-.17s-.47.06-.67.19-.34.29-.46.51c-.11.22-.17.47-.17.75s.05.53.17.75c.11.22.26.39.46.51s.42.18.67.18.48-.06.67-.19q.3-.195.45-.54l.56.25c-.15.33-.38.59-.67.77s-.63.28-1 .28Z" fill="#fffcef" data-color="1"/>
        <path d="M95.53 52.98q-.15 0-.27-.12c-.12-.12-.12-.17-.12-.27q0-.165.12-.27c.12-.105.17-.11.27-.11s.2.04.27.11.11.17.11.27-.04.19-.11.27q-.12.12-.27.12m-.32 4.74v-3.85h.62v3.85z" fill="#fffcef" data-color="1"/>
        <path d="M98.67 57.82c-.38 0-.71-.09-1-.26s-.52-.41-.68-.71c-.17-.3-.25-.65-.25-1.05s.08-.74.24-1.05c.16-.3.39-.54.68-.71s.62-.26 1-.26.71.09 1 .26.52.41.68.71q.24.45.24 1.05c0 .6-.08.74-.24 1.05-.16.3-.39.54-.67.71-.29.17-.62.26-.99.26Zm-.01-.57c.25 0 .47-.06.67-.18q.285-.18.45-.51c.11-.22.17-.47.17-.75s-.05-.53-.17-.75a1.2 1.2 0 0 0-.46-.51c-.2-.12-.42-.19-.68-.19s-.47.06-.67.19-.34.29-.46.51-.17.47-.17.75.05.53.17.75c.11.22.26.39.46.51s.42.18.67.18Z" fill="#fffcef" data-color="1"/>
        <path d="M101.43 57.72v-3.85h.58l.04.71v3.14zm2.7-1.97c0-.38-.04-.67-.13-.87s-.21-.34-.36-.41-.33-.11-.52-.11c-.34 0-.6.12-.79.36s-.28.58-.28 1.01h-.3c0-.41.06-.75.18-1.05.12-.29.29-.52.52-.67s.5-.23.82-.23.57.06.79.18.4.31.52.57.19.61.18 1.03v.18h-.62Zm0 1.97v-1.97h.62v1.97z" fill="#fffcef" data-color="1"/>
        <path d="M106.94 57.82c-.45 0-.8-.1-1.06-.31-.25-.21-.38-.5-.38-.87q0-.585.39-.9c.26-.21.62-.31 1.09-.31h1.1v.52h-.96c-.36 0-.61.06-.77.18a.62.62 0 0 0-.23.51c0 .2.07.36.22.47.15.12.36.17.62.17.22 0 .41-.05.58-.14.16-.09.29-.23.38-.41s.13-.39.13-.63h.26c0 .52-.12.94-.35 1.25s-.58.47-1.03.47Zm1.16-.1-.03-.63v-1.4c0-.3-.03-.55-.1-.75s-.17-.35-.32-.45c-.14-.1-.33-.15-.56-.15-.21 0-.39.04-.54.13s-.28.22-.37.4l-.55-.22c.1-.18.21-.33.35-.47s.3-.23.49-.3.4-.1.63-.1c.36 0 .66.07.89.21s.41.35.53.62c.12.28.17.62.17 1.02v2.09h-.58Z" fill="#fffcef" data-color="1"/>
        <path d="M109.65 57.72v-3.85h.58l.03.54c.12-.21.27-.36.45-.47s.4-.16.65-.16c.31 0 .57.07.79.22.22.14.38.36.47.65.11-.28.27-.5.47-.65.21-.15.46-.22.74-.22.43 0 .77.14 1.02.43s.37.72.37 1.31v2.2h-.62v-1.97q0-.57-.12-.87c-.08-.2-.19-.34-.32-.41a1 1 0 0 0-.46-.11c-.3 0-.54.12-.71.36s-.25.58-.25 1.01v1.99h-.62v-1.97q0-.57-.12-.87c-.08-.2-.19-.34-.32-.41-.14-.07-.29-.11-.47-.11-.3 0-.53.12-.7.36s-.25.58-.25 1.01v1.99h-.62Z" fill="#fffcef" data-color="1"/>
        <path d="M118.01 55.84v-1.97h.62v1.97zm.61 0c0 .38.04.67.13.87s.21.34.37.41.33.11.53.11q.495 0 .78-.36c.285-.36.28-.58.28-1.01h.3c0 .41-.06.75-.18 1.05s-.29.52-.51.67-.5.23-.82.23c-.3 0-.56-.06-.79-.18s-.4-.31-.52-.58-.19-.61-.19-1.03v-.18zm2.13 1.88-.04-.71v-3.14h.62v3.85z" fill="#fffcef" data-color="1"/>
        <path d="M122.4 57.72v-3.85h.58l.03.54c.12-.21.27-.36.45-.47.19-.11.4-.16.65-.16.31 0 .57.07.79.22.22.14.38.36.47.65.11-.28.27-.5.47-.65.21-.15.46-.22.74-.22.43 0 .77.14 1.02.43s.37.72.37 1.31v2.2h-.62v-1.97q0-.57-.12-.87c-.12-.3-.19-.34-.32-.41a1 1 0 0 0-.46-.11c-.3 0-.54.12-.71.36s-.25.58-.25 1.01v1.99h-.62v-1.97q0-.57-.12-.87c-.08-.2-.19-.34-.32-.41s-.29-.11-.47-.11c-.3 0-.53.12-.7.36s-.25.58-.25 1.01v1.99h-.62Z" fill="#fffcef" data-color="1"/>
        <path d="M130.17 57.82c-.45 0-.8-.1-1.06-.31s-.38-.5-.38-.87q0-.585.39-.9c.39-.315.62-.31 1.09-.31h1.1v.52h-.96c-.36 0-.62.06-.77.18a.62.62 0 0 0-.23.51c0 .2.07.36.22.47.15.12.36.17.62.17.22 0 .41-.05.58-.14.16-.09.29-.23.38-.41s.13-.39.13-.63h.26c0 .52-.12.94-.36 1.25s-.58.47-1.03.47Zm1.16-.1-.03-.63v-1.4c0-.3-.03-.55-.1-.75a.9.9 0 0 0-.31-.45c-.14-.1-.33-.15-.56-.15-.21 0-.39.04-.54.13-.15.08-.28.22-.37.4l-.55-.22c.1-.18.21-.33.35-.47s.3-.23.49-.3c.18-.07.39-.1.63-.1.36 0 .66.07.89.21s.41.35.53.62c.12.28.18.62.17 1.02v2.09h-.58Z" fill="#fffcef" data-color="1"/>
        <path d="M134.78 57.72v-3.85h.58l.04.71v3.14zm2.71-1.97c0-.38-.04-.67-.13-.87s-.21-.34-.36-.41-.33-.11-.52-.11c-.34 0-.6.12-.79.36s-.28.58-.28 1.01h-.3c0-.41.06-.75.18-1.05.12-.29.29-.52.52-.67.22-.15.5-.23.82-.23s.56.06.79.18c.22.12.4.31.52.57s.19.61.18 1.03v.18h-.62Zm0 1.97v-1.97h.62v1.97z" fill="#fffcef" data-color="1"/>
        <path d="M138.98 55.84v-1.97h.62v1.97zm.62 0c0 .38.04.67.13.87s.21.34.37.41.33.11.53.11q.495 0 .78-.36c.285-.36.28-.58.28-1.01h.3c0 .41-.06.75-.18 1.05-.12.29-.29.52-.51.67s-.5.23-.82.23c-.3 0-.56-.06-.79-.18s-.4-.31-.52-.58-.19-.61-.19-1.03v-.18zm2.12 1.88-.04-.71v-3.14h.62v3.85z" fill="#fffcef" data-color="1"/>
        <path d="M142.98 54.42v-.55h2.44v.55zm1.84 3.4c-.37 0-.66-.1-.87-.29s-.31-.47-.31-.82v-4.03h.62v3.96c0 .2.05.35.16.45s.25.16.44.16c.06 0 .12 0 .18-.03.06-.02.14-.06.23-.13l.24.5a1.2 1.2 0 0 1-.69.23" fill="#fffcef" data-color="1"/>
        <path d="M146.29 57.72v-3.85h.62v3.85zm.34-2.08c0-.42.08-.75.24-1.01s.36-.45.61-.58.51-.19.79-.19v.58c-.22 0-.44.04-.65.11s-.38.2-.51.37-.2.4-.2.69z" fill="#fffcef" data-color="1"/>
        <path d="M149.24 52.98q-.15 0-.27-.12a.37.37 0 0 1-.12-.27q0-.165.12-.27c.08-.07.17-.11.27-.11s.2.04.27.11.11.17.11.27-.04.19-.11.27-.17.12-.27.12m-.31 4.74v-3.85h.62v3.85z" fill="#fffcef" data-color="1"/>
        <path d="M152.39 57.82c-.38 0-.71-.09-1.01-.26-.29-.17-.52-.41-.69-.71s-.25-.65-.25-1.05.08-.74.24-1.05c.16-.3.39-.54.68-.71s.63-.26 1-.26.7.08.99.25.52.41.67.72l-.56.25q-.15-.315-.45-.48c-.2-.12-.42-.17-.67-.17s-.47.06-.67.19c-.19.12-.35.29-.46.51s-.17.47-.17.75.05.53.17.75c.11.22.26.39.46.51s.42.18.67.18.48-.06.67-.19q.3-.195.45-.54l.56.25c-.15.33-.38.59-.67.77s-.63.28-1 .28Zm-.24 1.52c-.1 0-.21-.01-.32-.04-.12-.03-.26-.08-.42-.17l.15-.37c.08.04.16.07.25.11s.17.05.24.05c.09 0 .18-.02.25-.05s.11-.11.11-.22c0-.13-.05-.22-.14-.29-.09-.06-.24-.11-.44-.14l.23-.54.41.09-.09.2c.19.07.33.16.4.28.08.12.12.25.12.38 0 .2-.06.37-.18.5s-.31.2-.58.2Z" fill="#fffcef" data-color="1"/>
        <path d="M156.06 57.82c-.45 0-.8-.1-1.06-.31s-.38-.5-.38-.87q0-.585.39-.9c.39-.315.62-.31 1.09-.31h1.1v.52h-.96c-.36 0-.62.06-.77.18a.62.62 0 0 0-.23.51c0 .2.07.36.22.47.15.12.36.17.62.17.22 0 .41-.05.58-.14.16-.09.29-.23.38-.41s.13-.39.13-.63h.26c0 .52-.12.94-.36 1.25s-.58.47-1.03.47Zm1.15-.1-.03-.63v-1.4c0-.3-.03-.55-.1-.75a.9.9 0 0 0-.31-.45c-.14-.1-.33-.15-.56-.15-.21 0-.39.04-.54.13-.15.08-.28.22-.37.4l-.55-.22c.1-.18.21-.33.35-.47s.3-.23.49-.3c.18-.07.39-.1.63-.1.36 0 .66.07.89.21s.41.35.53.62c.12.28.18.62.17 1.02v2.09h-.58Zm-.33-4.36c-.15 0-.27-.03-.36-.08a1.1 1.1 0 0 1-.23-.19c-.06-.07-.11-.14-.16-.19a.22.22 0 0 0-.18-.08c-.08 0-.14.02-.19.07a.45.45 0 0 0-.1.23h-.5c.02-.14.05-.27.12-.39s.15-.22.27-.29.25-.11.4-.11.26.03.35.08c.09.06.16.12.22.19s.12.14.17.19c.05.06.12.08.2.08.09 0 .15-.03.19-.08s.07-.12.08-.22h.49c-.03.21-.1.39-.23.55s-.31.24-.54.24" fill="#fffcef" data-color="1"/>
        <path d="M160.47 57.82c-.38 0-.71-.09-1.01-.26-.29-.17-.52-.41-.68-.71-.17-.3-.25-.65-.25-1.05s.08-.74.24-1.05c.16-.3.39-.54.68-.71s.62-.26 1-.26.71.09 1 .26.52.41.68.71q.24.45.24 1.05c0 .6-.08.74-.24 1.05-.16.3-.39.54-.67.71-.29.17-.62.26-.99.26m-.01-.57c.25 0 .47-.06.67-.18s.34-.29.46-.51c.11-.22.16-.47.16-.75s-.05-.53-.16-.75-.26-.39-.46-.51-.42-.19-.68-.19-.47.06-.67.19c-.19.12-.34.29-.46.51-.11.22-.16.47-.16.75s.05.53.16.75.27.39.46.51.42.18.67.18Z" fill="#fffcef" data-color="1"/>
        <path d="M166.64 57.82c-.34 0-.65-.08-.91-.25s-.46-.41-.61-.71-.22-.66-.22-1.05.07-.75.22-1.05.35-.54.61-.71.56-.25.91-.25c.32 0 .61.08.85.25s.43.41.57.71c.13.3.2.65.2 1.05s-.07.75-.2 1.05c-.13.31-.32.54-.57.71-.24.17-.53.25-.85.25m.14-.57q.345 0 .6-.18c.17-.12.31-.29.41-.52s.15-.47.15-.75-.05-.53-.15-.75-.24-.39-.41-.52c-.18-.12-.38-.18-.61-.18s-.46.06-.64.18-.33.29-.44.52c-.11.22-.16.47-.16.75s.05.53.16.75.26.39.45.52.41.18.65.18Zm1.2.47-.03-.72v-4.67h.62v5.39z" fill="#fffcef" data-color="1"/>
        <path d="M171.33 57.82c-.38 0-.71-.09-.99-.26-.29-.17-.51-.41-.67-.71q-.24-.45-.24-1.05c0-.6.08-.74.24-1.05.16-.3.38-.54.67-.71.28-.17.61-.26.98-.26s.67.09.93.27.46.42.61.74c.14.32.21.69.21 1.12h-3.18l.15-.13c0 .31.05.57.16.79s.27.39.47.5c.2.12.43.17.69.17.27 0 .5-.06.69-.19s.33-.3.43-.51l.53.27c-.1.2-.23.38-.39.52-.16.15-.35.26-.57.35-.22.08-.46.12-.73.12Zm-1.25-2.3-.16-.12h2.66l-.16.13c0-.25-.05-.46-.15-.64s-.23-.32-.39-.42-.35-.15-.57-.15-.41.05-.6.15-.34.23-.46.41-.17.39-.17.64" fill="#fffcef" data-color="1"/>
        <path d="m176.88 57.72-1.61-3.85h.64l1.57 3.85zm.04 0 1.57-3.85h.65l-1.61 3.85z" fill="#fffcef" data-color="1"/>
        <path d="M181.34 57.82c-.38 0-.71-.09-.99-.26-.29-.17-.51-.41-.67-.71s-.24-.65-.24-1.05.08-.74.24-1.05c.16-.3.38-.54.67-.71s.61-.26.98-.26.67.09.93.27.46.42.61.74c.14.32.22.69.22 1.12h-3.18l.15-.13c0 .31.05.57.17.79.11.22.27.39.46.5.2.12.43.17.69.17.27 0 .5-.06.69-.19s.33-.3.44-.51l.53.27c-.1.2-.23.38-.39.52-.16.15-.35.26-.57.35s-.46.12-.73.12Zm-1.24-2.3-.16-.12h2.66l-.16.13c0-.25-.05-.46-.14-.64q-.15-.27-.39-.42-.255-.15-.57-.15c-.315 0-.41.05-.6.15s-.34.23-.45.41c-.12.18-.17.39-.17.64Z" fill="#fffcef" data-color="1"/>
        <path d="M183.86 57.72v-3.85h.62v3.85zm.34-2.08c0-.42.08-.75.24-1.01s.36-.45.61-.58.51-.19.79-.19v.58c-.23 0-.44.04-.65.11s-.38.2-.51.37-.2.4-.2.69z" fill="#fffcef" data-color="1"/>
        <path d="M187.98 57.82c-.34 0-.65-.08-.91-.25s-.47-.41-.61-.71-.22-.66-.22-1.05.07-.75.22-1.05.35-.54.61-.71.56-.25.91-.25c.32 0 .61.08.85.25s.43.41.56.71.2.65.2 1.05-.07.75-.2 1.05c-.13.31-.32.54-.56.71s-.53.25-.85.25m.14-.57c.22 0 .43-.06.6-.18.18-.12.31-.29.41-.52q.15-.33.15-.75c0-.42-.05-.53-.15-.75s-.24-.39-.41-.52c-.17-.12-.38-.18-.61-.18a1.14 1.14 0 0 0-1.08.7c-.1.23-.16.47-.16.75s.05.53.16.75.26.39.45.52c.19.12.4.18.65.18Zm1.19.47-.03-.72v-4.67h.62v5.39z" fill="#fffcef" data-color="1"/>
        <path d="M192.19 57.82c-.45 0-.8-.1-1.06-.31s-.38-.5-.38-.87q0-.585.39-.9c.39-.315.62-.31 1.09-.31h1.1v.52h-.96c-.36 0-.62.06-.77.18a.62.62 0 0 0-.23.51c0 .2.07.36.22.47.15.12.36.17.62.17.22 0 .41-.05.58-.14.16-.09.29-.23.38-.41s.13-.39.13-.63h.26c0 .52-.12.94-.36 1.25s-.58.47-1.03.47Zm1.16-.1-.03-.63v-1.4c0-.3-.03-.55-.1-.75a.9.9 0 0 0-.31-.45c-.14-.1-.33-.15-.56-.15-.21 0-.39.04-.54.13-.15.08-.28.22-.37.4l-.55-.22c.1-.18.21-.33.35-.47s.3-.23.49-.3c.18-.07.39-.1.63-.1.36 0 .66.07.89.21s.41.35.53.62c.12.28.18.62.17 1.02v2.09h-.58Z" fill="#fffcef" data-color="1"/>
        <path d="M196.42 57.82c-.34 0-.65-.08-.91-.25s-.46-.41-.61-.71-.22-.66-.22-1.05.07-.75.22-1.05.35-.54.61-.71.56-.25.91-.25c.32 0 .61.08.85.25s.43.41.57.71c.13.3.2.65.2 1.05s-.07.75-.2 1.05c-.13.31-.32.54-.57.71-.24.17-.53.25-.85.25m.14-.57q.345 0 .6-.18c.17-.12.31-.29.41-.52s.15-.47.15-.75-.05-.53-.15-.75-.24-.39-.41-.52c-.18-.12-.38-.18-.61-.18s-.46.06-.64.18-.33.29-.44.52c-.11.22-.16.47-.16.75s.05.53.16.75.26.39.45.52.41.18.65.18Zm1.19.47-.03-.72v-4.67h.62v5.39z" fill="#fffcef" data-color="1"/>
        <path d="M201.1 57.82c-.38 0-.71-.09-.99-.26-.29-.17-.51-.41-.67-.71q-.24-.45-.24-1.05c0-.6.08-.74.24-1.05.16-.3.38-.54.67-.71.28-.17.61-.26.98-.26s.67.09.93.27.46.42.61.74c.14.32.21.69.21 1.12h-3.18l.15-.13c0 .31.05.57.16.79s.27.39.47.5c.2.12.43.17.69.17.27 0 .5-.06.69-.19s.33-.3.43-.51l.53.27c-.1.2-.23.38-.39.52-.16.15-.35.26-.57.35-.22.08-.46.12-.73.12Zm-1.25-2.3-.16-.12h2.66l-.16.13c0-.25-.05-.46-.15-.64s-.23-.32-.39-.42-.35-.15-.57-.15-.41.05-.6.15-.34.23-.46.41-.17.39-.17.64" fill="#fffcef" data-color="1"/>
        <path d="M206.74 57.82c-.45 0-.8-.1-1.06-.31s-.38-.5-.38-.87q0-.585.39-.9c.26-.21.62-.31 1.09-.31h1.1v.52h-.96c-.36 0-.61.06-.77.18s-.23.29-.23.51c0 .2.07.36.22.47.15.12.36.17.62.17.22 0 .41-.05.58-.14s.29-.23.38-.41.13-.39.13-.63h.26c0 .52-.12.94-.35 1.25s-.58.47-1.03.47Zm1.15-.1-.03-.63v-1.4c0-.3-.03-.55-.1-.75s-.17-.35-.32-.45c-.14-.1-.33-.15-.56-.15-.21 0-.39.04-.54.13-.15.08-.28.22-.38.4l-.55-.22c.1-.18.21-.33.35-.47s.3-.23.48-.3c.19-.07.4-.1.63-.1.36 0 .65.07.89.21.23.14.41.35.53.62.12.28.17.62.17 1.02v2.09h-.58Z" fill="#fffcef" data-color="1"/>
        <path d="M211.15 57.82c-.38 0-.71-.09-1-.26s-.52-.41-.68-.71-.25-.65-.25-1.05.08-.74.24-1.05c.16-.3.39-.54.68-.71s.62-.26 1-.26.71.09 1 .26.52.41.68.71q.24.45.24 1.05c0 .6-.08.74-.24 1.05s-.39.54-.67.71c-.29.17-.62.26-.99.26Zm0-.57c.25 0 .47-.06.67-.18q.285-.18.45-.51c.11-.22.17-.47.17-.75s-.05-.53-.17-.75a1.2 1.2 0 0 0-.46-.51c-.2-.12-.42-.19-.68-.19s-.47.06-.67.19c-.19.12-.35.29-.46.51s-.17.47-.17.75.05.53.17.75c.11.22.26.39.46.51s.42.18.67.18Z" fill="#fffcef" data-color="1"/>
        <path d="M217.16 57.82c-.28 0-.53-.04-.74-.13-.21-.08-.39-.2-.53-.33a1.2 1.2 0 0 1-.3-.46l.54-.22c.09.17.22.32.39.42.17.11.37.16.58.16.24 0 .44-.05.61-.14s.25-.23.25-.4c0-.16-.06-.29-.18-.38q-.18-.15-.54-.24l-.37-.1c-.35-.09-.62-.23-.82-.42-.19-.19-.29-.4-.29-.63 0-.36.12-.65.36-.85s.59-.3 1.07-.3c.23 0 .43.03.62.1s.34.16.48.28c.13.12.23.26.29.43l-.54.24c-.07-.17-.18-.3-.33-.38s-.34-.12-.56-.12c-.24 0-.42.05-.55.15s-.2.24-.2.42c0 .1.05.2.17.29.11.09.27.16.49.22l.38.1q.375.09.63.27c.17.12.3.26.39.41s.13.32.13.49c0 .23-.06.43-.19.6-.12.17-.29.3-.5.39s-.45.13-.72.13Z" fill="#fffcef" data-color="1"/>
        <path d="M221.09 57.82c-.38 0-.71-.09-.99-.26-.29-.17-.51-.41-.67-.71s-.24-.65-.24-1.05.08-.74.24-1.05c.16-.3.38-.54.67-.71s.61-.26.98-.26.67.09.93.27.46.42.61.74c.14.32.22.69.22 1.12h-3.18l.15-.13c0 .31.05.57.17.79.11.22.27.39.46.5.2.12.43.17.69.17.27 0 .5-.06.69-.19s.33-.3.44-.51l.53.27c-.1.2-.23.38-.39.52-.16.15-.35.26-.57.35s-.46.12-.73.12Zm-1.25-2.3-.16-.12h2.66l-.16.13c0-.25-.05-.46-.14-.64q-.15-.27-.39-.42-.255-.15-.57-.15c-.315 0-.41.05-.6.15s-.34.23-.45.41c-.12.18-.17.39-.17.64Z" fill="#fffcef" data-color="1"/>
        <path d="M223.5 55.84v-1.97h.62v1.97zm.62 0c0 .38.04.67.13.87s.21.34.37.41.33.11.53.11q.495 0 .78-.36c.285-.36.28-.58.28-1.01h.3c0 .41-.06.75-.18 1.05-.12.29-.29.52-.51.67s-.5.23-.82.23c-.3 0-.56-.06-.79-.18s-.4-.31-.52-.58-.19-.61-.19-1.03v-.18zm2.13 1.88-.04-.71v-3.14h.62v3.85z" fill="#fffcef" data-color="1"/>
        <path d="M231.32 57.69a1.64 1.64 0 0 1-1.52-.94c-.15-.29-.22-.63-.22-1.01s.07-.73.22-1.03.35-.52.61-.69c.26-.16.56-.25.91-.25.32 0 .61.08.85.25s.43.39.56.69c.14.29.21.64.21 1.03s-.07.72-.21 1.02c-.13.29-.32.52-.56.69-.24.16-.53.25-.85.25Zm.02 1.67c-.25 0-.47-.02-.67-.07s-.38-.1-.52-.16q-.21-.09-.3-.15l.23-.5c.07.04.16.08.29.13s.27.1.44.14.34.06.54.06c.25 0 .47-.05.67-.15s.35-.26.46-.47.17-.49.17-.82v-3.49h.62v3.48c0 .44-.08.81-.25 1.11s-.39.52-.68.67-.61.22-.98.22Zm.13-2.2c.22 0 .43-.06.6-.18.18-.12.31-.29.41-.5s.15-.46.15-.74-.05-.51-.15-.73c-.1-.21-.24-.38-.41-.5q-.255-.18-.6-.18c-.24 0-.46.06-.64.18-.19.12-.33.29-.44.5s-.16.46-.16.73.05.53.16.74.26.38.44.5c.19.12.4.18.64.18" fill="#fffcef" data-color="1"/>
        <path d="M235.54 57.82c-.45 0-.8-.1-1.06-.31s-.38-.5-.38-.87q0-.585.39-.9c.39-.315.62-.31 1.09-.31h1.1v.52h-.96c-.36 0-.62.06-.77.18a.62.62 0 0 0-.23.51c0 .2.07.36.22.47.15.12.36.17.62.17.22 0 .41-.05.58-.14.16-.09.29-.23.38-.41s.13-.39.13-.63h.26c0 .52-.12.94-.36 1.25s-.58.47-1.03.47Zm1.15-.1-.03-.63v-1.4c0-.3-.03-.55-.1-.75a.9.9 0 0 0-.31-.45c-.14-.1-.33-.15-.56-.15-.21 0-.39.04-.54.13-.15.08-.28.22-.37.4l-.55-.22c.1-.18.21-.33.35-.47s.3-.23.49-.3c.18-.07.39-.1.63-.1.36 0 .66.07.89.21s.41.35.53.62c.12.28.18.62.17 1.02v2.09h-.58Z" fill="#fffcef" data-color="1"/>
        <path d="M237.85 54.42v-.55h2.44v.55zm1.85 3.4c-.38 0-.67-.1-.87-.29s-.31-.47-.31-.82v-4.03h.62v3.96c0 .2.05.35.16.45s.25.16.44.16c.06 0 .12 0 .18-.03.06-.02.14-.06.23-.13l.24.5a1.2 1.2 0 0 1-.69.23" fill="#fffcef" data-color="1"/>
        <path d="M242.85 57.82c-.38 0-.71-.09-1-.26s-.52-.41-.68-.71-.25-.65-.25-1.05.08-.74.24-1.05c.16-.3.39-.54.68-.71s.62-.26 1-.26.71.09 1 .26.52.41.68.71q.24.45.24 1.05c0 .6-.08.74-.24 1.05s-.39.54-.67.71c-.29.17-.62.26-.99.26Zm-.01-.57c.25 0 .47-.06.67-.18q.285-.18.45-.51c.11-.22.17-.47.17-.75s-.05-.53-.17-.75a1.2 1.2 0 0 0-.46-.51c-.2-.12-.42-.19-.68-.19s-.47.06-.67.19c-.19.12-.35.29-.46.51s-.17.47-.17.75.05.53.17.75c.11.22.26.39.46.51s.42.18.67.18Z" fill="#fffcef" data-color="1"/>
        <path d="M245.87 57.83a.38.38 0 0 1-.3-.13.42.42 0 0 1-.13-.3c0-.12.04-.22.13-.3.08-.08.19-.13.3-.13s.22.04.3.13c.08.08.12.19.12.3s-.04.21-.12.3c-.08.08-.18.13-.3.13" fill="#fffcef" data-color="1"/>
        <path fill="#fffcef" d="M52.97 46.48c0 15.215-12.335 27.55-27.55 27.55S-2.13 61.695-2.13 46.48s12.335-27.55 27.55-27.55 27.55 12.335 27.55 27.55" data-color="1"/>
        <path d="M25.15 59.96c-7.17 0-13.01-5.84-13.01-13.01 0-5.59 3.57-10.55 8.87-12.33a.75.75 0 0 1 .97.86c-.04.23-.07.46-.07.68 0 1.94 1.58 3.52 3.52 3.52s3.52-1.58 3.52-3.52c0-.15-.01-.3-.04-.49-.04-.27.07-.53.28-.69.21-.17.49-.21.74-.11a12.94 12.94 0 0 1 7.79 15.31.75.75 0 0 1-1.15.44c-.61-.42-1.33-.64-2.07-.64-2.03 0-3.68 1.65-3.68 3.68 0 1.17.54 2.24 1.48 2.94.19.15.31.38.3.63 0 .24-.13.47-.34.6a13 13 0 0 1-7.12 2.13Zm-4.72-23.49a11.49 11.49 0 0 0-6.79 10.49c0 6.35 5.16 11.51 11.51 11.51 1.92 0 3.79-.48 5.47-1.39a5.1 5.1 0 0 1-1.28-3.41c0-2.86 2.33-5.19 5.19-5.19.68 0 1.35.13 1.97.39.11-.64.17-1.28.17-1.91 0-4.35-2.41-8.25-6.22-10.21-.29 2.5-2.42 4.45-4.99 4.45s-4.86-2.09-5.02-4.72Z" fill="#00578a" data-color="2"/>
        <path d="M34.52 58.85c-2.86 0-5.19-2.33-5.19-5.19s2.33-5.19 5.19-5.19 5.19 2.33 5.19 5.19-2.33 5.19-5.19 5.19m0-8.87c-2.03 0-3.68 1.65-3.68 3.68s1.65 3.69 3.68 3.69 3.68-1.65 3.68-3.69-1.65-3.68-3.68-3.68" fill="#00578a" data-color="2"/>
        <path d="M25.44 41.19c-2.77 0-5.02-2.25-5.02-5.03s2.25-5.03 5.02-5.03 5.03 2.25 5.03 5.03-2.25 5.03-5.03 5.03m0-8.55c-1.94 0-3.52 1.58-3.52 3.52s1.58 3.52 3.52 3.52 3.52-1.58 3.52-3.52-1.58-3.52-3.52-3.52" fill="#00578a" data-color="2"/>
        <path d="M20.93 53.2c-2.48 0-4.5-2.02-4.5-4.5s2.02-4.5 4.5-4.5 4.5 2.02 4.5 4.5-2.02 4.5-4.5 4.5m0-7.5c-1.65 0-3 1.35-3 3s1.35 3 3 3 3-1.35 3-3-1.35-3-3-3" fill="#00578a" data-color="2"/>
    </g>
</svg>
