<?xml version="1.0" encoding="UTF-8"?>
<svg data-bbox="0 0 202.48 55.1" viewBox="0 0 202.49 55.1" xmlns="http://www.w3.org/2000/svg" data-type="ugc">
    <g>
        <path fill="#fffcef" d="M55.1 27.55c0 15.215-12.335 27.55-27.55 27.55S0 42.765 0 27.55 12.335 0 27.55 0 55.1 12.335 55.1 27.55"/>
        <path d="M34.96 25.08h-3.71c-.34 0-.62-.28-.62-.62v-3.71c0-.34-.28-.62-.62-.62h-4.94c-.34 0-.62.28-.62.62v3.71c0 .34-.28.62-.62.62h-3.71c-.34 0-.62.28-.62.62v4.94c0 .34.28.62.62.62h3.71c.34 0 .62.28.62.62v3.71c0 .34.28.62.62.62h4.94c.34 0 .62-.28.62-.62v-3.71c0-.34.28-.62.62-.62h3.71c.34 0 .62-.28.62-.62V25.7c0-.34-.28-.62-.62-.62Z" fill="none" stroke="#00578a" stroke-miterlimit="10"/>
        <path d="M28.29 8.66c4.27 3.38 10.32 5.11 13.04 5.52.6.09 1.04.62 1.04 1.23v17.6c0 8.68-12.19 12.92-14.46 13.63-.24.08-.49.08-.73 0-2.27-.71-14.46-4.95-14.46-13.63v-17.6c0-.62.44-1.14 1.04-1.23 2.72-.42 8.77-2.14 13.04-5.52.44-.35 1.05-.35 1.49 0Z" fill="none" stroke="#00578a" stroke-miterlimit="10"/>
        <path d="m63.36 12.43 2.06-5.39h1.42l-1.97 5.39zm.97-.86v-1.26h3.73v1.26zm3.18.86-1.97-5.39h1.42l2.06 5.39z" fill="#fffdf0"/>
        <path d="M69.54 12.43V7.04h2.23c.41 0 .76.08 1.08.24.31.16.56.38.74.66s.27.61.27.98-.09.7-.27.98-.42.51-.74.67q-.465.24-1.08.24h-.81v1.62zm1.42-2.93h.77c.2 0 .35-.05.47-.16q.18-.165.18-.42c0-.255-.06-.31-.18-.42a.67.67 0 0 0-.47-.16h-.77z" fill="#fffdf0"/>
        <path d="M76.97 12.52q-.84 0-1.5-.36-.645-.36-1.02-.99c-.25-.42-.37-.9-.37-1.44s.12-1.03.37-1.44c.25-.42.58-.75 1.02-.99.43-.24.93-.36 1.49-.36s1.06.12 1.49.36q.645.36 1.02.99c.25.42.37.9.37 1.44s-.12 1.02-.37 1.44c-.24.42-.58.75-1.01.99s-.93.36-1.49.36m0-1.31c.28 0 .52-.06.73-.19s.38-.3.49-.52c.12-.22.18-.48.18-.76s-.06-.54-.18-.77c-.12-.22-.29-.4-.5-.52s-.46-.19-.74-.19-.51.06-.73.19c-.21.13-.38.3-.5.52s-.18.48-.18.77.06.54.18.76.29.39.5.52.46.19.74.19Z" fill="#fffdf0"/>
        <path d="M80.49 12.43V7.04h1.42v5.39z" fill="#fffdf0"/>
        <path d="M85.45 12.52q-.84 0-1.5-.36-.645-.36-1.02-.99c-.25-.42-.37-.9-.37-1.44s.12-1.03.37-1.44c.25-.42.58-.75 1.02-.99.43-.24.93-.36 1.49-.36s1.06.12 1.49.36q.645.36 1.02.99c.25.42.37.9.37 1.44s-.12 1.02-.37 1.44c-.24.42-.58.75-1.01.99s-.93.36-1.49.36m0-1.31c.28 0 .52-.06.73-.19s.38-.3.49-.52c.12-.22.18-.48.18-.76s-.06-.54-.18-.77c-.12-.22-.29-.4-.5-.52s-.46-.19-.74-.19-.51.06-.73.19c-.21.13-.38.3-.5.52s-.18.48-.18.77.06.54.18.76.29.39.5.52.46.19.74.19Z" fill="#fffdf0"/>
        <path d="m90.34 12.43 2.06-5.39h1.42l-1.97 5.39zm.97-.86v-1.26h3.73v1.26zm1.41-4.94L91.7 5.5h1.46l.86 1.13h-1.31Zm1.77 5.8-1.97-5.39h1.42L96 12.43z" fill="#fffdf0"/>
        <path d="M98.28 12.43V7.04h1.42v5.39z" fill="#fffdf0"/>
        <path d="M100.63 12.43V7.04h1.58l1.3 1.93 1.3-1.93h1.58v5.39h-1.42V9.24l-1.45 2.11-1.46-2.11v3.19h-1.42Z" fill="#fffdf0"/>
        <path d="M109.53 12.52c-.48 0-.89-.09-1.23-.26s-.61-.42-.79-.75-.27-.71-.27-1.17v-3.3h1.42v3.3c0 .18.04.33.11.46s.17.23.3.29c.13.07.29.1.47.1s.34-.03.48-.1a.7.7 0 0 0 .3-.29c.07-.13.1-.28.1-.46v-3.3h1.42v3.3c0 .45-.09.84-.28 1.17-.18.33-.45.58-.8.75s-.76.26-1.25.26Z" fill="#fffdf0"/>
        <path d="M112.7 12.43V7.04h1.5l2.1 2.96V7.04h1.42v5.39h-1.42l-2.18-3.07v3.07z" fill="#fffdf0"/>
        <path d="M118.66 12.43V7.04h1.42v5.39z" fill="#fffdf0"/>
        <path d="M121 12.43V7.04h1.8c.59 0 1.11.12 1.57.35.45.23.81.55 1.07.95s.38.87.38 1.4-.13.99-.38 1.39c-.26.41-.61.72-1.07.96-.46.23-.98.35-1.57.35H121Zm1.43-1.35h.38c.23 0 .43-.03.62-.1s.35-.16.49-.28.25-.26.32-.42c.08-.16.12-.35.12-.55s-.04-.38-.12-.55c-.08-.16-.19-.3-.32-.42-.14-.12-.3-.21-.49-.28s-.4-.1-.62-.1h-.38z" fill="#fffdf0"/>
        <path d="m126.07 12.43 2.06-5.39h1.42l-1.97 5.39zm.97-.86v-1.26h3.73v1.26zm3.18.86-1.97-5.39h1.42l2.06 5.39z" fill="#fffdf0"/>
        <path d="M132.25 12.43V7.04h1.8c.59 0 1.11.12 1.57.35.45.23.81.55 1.07.95s.38.87.38 1.4-.13.99-.38 1.39c-.26.41-.61.72-1.07.96-.46.23-.98.35-1.57.35h-1.8Zm1.42-1.35h.38c.23 0 .43-.03.62-.1s.35-.16.49-.28.25-.26.32-.42c.08-.16.12-.35.12-.55s-.04-.38-.12-.55c-.08-.16-.19-.3-.32-.42-.14-.12-.3-.21-.49-.28s-.4-.1-.62-.1h-.38z" fill="#fffdf0"/>
        <path d="M137.72 12.43V7.04h3.61v1.31h-2.19v.75h1.77v1.27h-1.77v.75h2.24v1.31h-3.67Z" fill="#fffdf0"/>
        <path d="M66.01 21.25c-.41 0-.76-.09-1.07-.26s-.55-.41-.73-.72c-.17-.31-.26-.66-.26-1.06v-3.47h.66v3.47q0 .42.18.75c.12.22.29.39.5.51.22.12.46.18.74.18s.53-.06.75-.18q.33-.18.51-.51t.18-.75v-3.47h.65v3.47c0 .4-.09.75-.26 1.06s-.42.54-.74.72-.69.26-1.1.26Z" fill="#fffdf0"/>
        <path d="M69.29 21.13v-3.85h.58l.03.54c.12-.21.27-.36.45-.47s.4-.16.65-.16c.31 0 .57.07.79.22.22.14.38.36.47.65.11-.28.27-.5.47-.65.21-.15.46-.22.74-.22.43 0 .77.14 1.02.43s.37.72.37 1.31v2.2h-.62v-1.97q0-.57-.12-.87c-.08-.2-.19-.34-.32-.41a1 1 0 0 0-.46-.11c-.3 0-.54.12-.71.36s-.25.58-.25 1.01v1.99h-.62v-1.97q0-.57-.12-.87c-.08-.2-.19-.34-.32-.41-.14-.07-.29-.11-.47-.11-.3 0-.53.12-.7.36s-.25.58-.25 1.01v1.99h-.62Z" fill="#fffdf0"/>
        <path d="M77.06 21.22c-.45 0-.8-.1-1.06-.31-.25-.21-.38-.5-.38-.87q0-.585.39-.9c.26-.21.62-.31 1.09-.31h1.1v.52h-.96c-.36 0-.61.06-.77.18a.62.62 0 0 0-.23.51c0 .2.07.36.22.47.15.12.36.17.62.17.22 0 .41-.05.58-.14.16-.09.29-.23.38-.41s.13-.39.13-.63h.26c0 .52-.12.94-.35 1.25s-.58.47-1.03.47Zm1.16-.09-.03-.63v-1.4c0-.3-.03-.55-.1-.75s-.17-.35-.32-.45-.33-.15-.56-.15c-.21 0-.39.04-.54.13s-.28.22-.37.4l-.55-.22c.1-.18.21-.33.35-.47s.3-.23.49-.3.4-.1.63-.1c.36 0 .66.07.89.21s.41.35.53.62.17.61.17 1.02v2.09h-.58Z" fill="#fffdf0"/>
        <path d="M83.39 21.22c-.38 0-.72-.09-1.01-.26s-.52-.41-.68-.71c-.17-.3-.25-.65-.25-1.05s.08-.74.24-1.05c.16-.3.39-.54.68-.71s.63-.26 1-.26.7.08.99.25.52.41.67.72l-.56.25q-.15-.315-.45-.48c-.2-.12-.42-.17-.67-.17s-.47.06-.67.18-.34.29-.46.51c-.11.22-.17.47-.17.75s.05.53.17.75c.11.22.26.39.46.51s.42.18.67.18.48-.06.67-.19q.3-.195.45-.54l.56.25c-.15.33-.38.58-.67.77-.29.18-.63.28-1 .28Z" fill="#fffdf0"/>
        <path d="M87.55 21.22c-.38 0-.71-.09-1-.26s-.52-.41-.68-.71c-.17-.3-.25-.65-.25-1.05s.08-.74.24-1.05c.16-.3.39-.54.68-.71s.62-.26 1-.26.71.09 1 .26.52.41.68.71q.24.45.24 1.05c0 .6-.08.74-.24 1.05-.16.3-.39.54-.67.71-.29.17-.62.26-.99.26Zm-.01-.57c.25 0 .47-.06.67-.18q.285-.18.45-.51c.11-.22.17-.47.17-.75s-.05-.53-.17-.75a1.2 1.2 0 0 0-.46-.51c-.2-.12-.42-.18-.68-.18s-.47.06-.67.18-.34.29-.46.51c-.11.22-.17.47-.17.75s.05.53.17.75c.11.22.26.39.46.51s.42.18.67.18Z" fill="#fffdf0"/>
        <path d="M90.3 21.13v-3.85h.58l.03.54c.12-.21.27-.36.45-.47s.4-.16.65-.16c.31 0 .57.07.79.22.22.14.38.36.47.65.11-.28.27-.5.47-.65.21-.15.46-.22.74-.22.43 0 .77.14 1.02.43s.37.72.37 1.31v2.2h-.62v-1.97q0-.57-.12-.87c-.08-.2-.19-.34-.32-.41a1 1 0 0 0-.46-.11c-.3 0-.54.12-.71.36s-.25.58-.25 1.01v1.99h-.62v-1.97q0-.57-.12-.87c-.08-.2-.19-.34-.32-.41-.14-.07-.29-.11-.47-.11-.3 0-.53.12-.7.36s-.25.58-.25 1.01v1.99h-.62Z" fill="#fffdf0"/>
        <path d="M96.86 21.13v-5.39h.62v4.67l-.03.72h-.58Zm1.91.09c-.32 0-.61-.08-.85-.25s-.43-.41-.57-.71c-.13-.3-.2-.66-.2-1.05s.07-.75.2-1.05.32-.54.57-.71c.24-.17.53-.25.85-.25.34 0 .65.08.91.25s.47.41.61.71c.15.3.22.65.22 1.05s-.07.75-.22 1.05c-.15.31-.35.54-.61.71s-.57.25-.91.25m-.13-.56c.24 0 .46-.06.64-.18s.34-.29.45-.51.17-.47.17-.76-.05-.53-.16-.75-.25-.39-.44-.52c-.19-.12-.4-.18-.65-.18q-.345 0-.6.18-.27.18-.42.51c-.1.22-.15.47-.15.76s.05.53.15.75.24.39.41.52c.17.12.38.18.6.18" fill="#fffdf0"/>
        <path d="M101.72 16.39q-.15 0-.27-.12c-.12-.12-.12-.17-.12-.27s.04-.2.12-.27.17-.11.27-.11.2.04.27.11.11.17.11.27-.04.19-.11.27q-.12.12-.27.12m-.31 4.74v-3.85h.62v3.85z" fill="#fffdf0"/>
        <path d="M103.15 21.13v-3.85h.58l.04.71v3.14zm2.71-1.97c0-.38-.04-.67-.13-.87s-.21-.34-.36-.41-.33-.11-.52-.11c-.34 0-.6.12-.79.36s-.28.58-.28 1.01h-.3c0-.41.06-.75.18-1.05.12-.29.29-.52.52-.67s.5-.23.82-.23.57.06.79.18.4.31.52.57.19.61.18 1.03v.18h-.62Zm0 1.97v-1.97h.62v1.97z" fill="#fffdf0"/>
        <path d="M108.67 21.22c-.45 0-.8-.1-1.06-.31-.25-.21-.38-.5-.38-.87q0-.585.39-.9c.26-.21.62-.31 1.09-.31h1.1v.52h-.96c-.36 0-.61.06-.77.18a.62.62 0 0 0-.23.51c0 .2.07.36.22.47.15.12.36.17.62.17.22 0 .41-.05.58-.14.16-.09.29-.23.38-.41s.13-.39.13-.63h.26c0 .52-.12.94-.35 1.25s-.58.47-1.03.47Zm1.15-.09-.03-.63v-1.4c0-.3-.03-.55-.1-.75s-.17-.35-.32-.45-.33-.15-.56-.15c-.21 0-.39.04-.54.13s-.28.22-.37.4l-.55-.22c.1-.18.21-.33.35-.47s.3-.23.49-.3.4-.1.63-.1c.36 0 .66.07.89.21s.41.35.53.62.17.61.17 1.02v2.09h-.58Z" fill="#fffdf0"/>
        <path d="M113.1 21.22c-.38 0-.72-.09-1.01-.26s-.52-.41-.68-.71c-.17-.3-.25-.65-.25-1.05s.08-.74.24-1.05c.16-.3.39-.54.68-.71s.63-.26 1-.26.7.08.99.25.52.41.67.72l-.56.25q-.15-.315-.45-.48c-.2-.12-.42-.17-.67-.17s-.47.06-.67.18-.34.29-.46.51c-.11.22-.17.47-.17.75s.05.53.17.75c.11.22.26.39.46.51s.42.18.67.18.48-.06.67-.19q.3-.195.45-.54l.56.25c-.15.33-.38.58-.67.77-.29.18-.63.28-1 .28Zm-.24 1.53c-.1 0-.21-.01-.32-.04-.12-.03-.26-.08-.42-.17l.15-.37c.08.04.16.07.25.11s.17.05.24.05c.09 0 .18-.02.25-.05.08-.04.11-.11.11-.22 0-.13-.05-.22-.14-.29-.09-.06-.24-.11-.44-.14l.23-.54.41.09-.08.2c.19.07.33.16.4.28.08.12.12.25.12.38 0 .2-.06.37-.18.5-.12.14-.31.2-.58.2Z" fill="#fffdf0"/>
        <path d="M116.76 21.22c-.45 0-.8-.1-1.06-.31-.25-.21-.38-.5-.38-.87q0-.585.39-.9c.26-.21.62-.31 1.09-.31h1.1v.52h-.96c-.36 0-.61.06-.77.18a.62.62 0 0 0-.23.51c0 .2.07.36.22.47.15.12.36.17.62.17.22 0 .41-.05.58-.14.16-.09.29-.23.38-.41s.13-.39.13-.63h.26c0 .52-.12.94-.35 1.25s-.58.47-1.03.47Zm1.16-.09-.03-.63v-1.4c0-.3-.03-.55-.1-.75s-.17-.35-.32-.45-.33-.15-.56-.15c-.21 0-.39.04-.54.13s-.28.22-.37.4l-.55-.22c.1-.18.21-.33.35-.47s.3-.23.49-.3.4-.1.63-.1c.36 0 .66.07.89.21s.41.35.53.62.17.61.17 1.02v2.09h-.58Zm-.34-4.36c-.15 0-.27-.03-.36-.08s-.17-.12-.23-.19-.11-.14-.17-.19a.22.22 0 0 0-.18-.08c-.08 0-.14.02-.19.07s-.08.12-.1.23h-.5q.03-.21.12-.39c.06-.12.15-.22.27-.29s.25-.11.4-.11.26.03.35.08c.09.06.16.12.22.19s.12.14.17.19c.05.06.12.08.2.08.09 0 .15-.03.19-.08s.07-.12.08-.22h.49c-.03.21-.1.39-.23.55q-.195.24-.54.24Z" fill="#fffdf0"/>
        <path d="M121.17 21.22c-.38 0-.71-.09-1-.26s-.52-.41-.68-.71c-.17-.3-.25-.65-.25-1.05s.08-.74.24-1.05c.16-.3.39-.54.68-.71s.62-.26 1-.26.71.09 1 .26.52.41.68.71q.24.45.24 1.05c0 .6-.08.74-.24 1.05-.16.3-.39.54-.67.71-.29.17-.62.26-.99.26Zm-.01-.57c.25 0 .47-.06.67-.18q.285-.18.45-.51c.11-.22.17-.47.17-.75s-.05-.53-.17-.75a1.2 1.2 0 0 0-.46-.51c-.2-.12-.42-.18-.68-.18s-.47.06-.67.18-.34.29-.46.51c-.11.22-.17.47-.17.75s.05.53.17.75c.11.22.26.39.46.51s.42.18.67.18Z" fill="#fffdf0"/>
        <path d="M127.35 21.22c-.34 0-.65-.08-.91-.25s-.47-.41-.61-.71c-.15-.3-.22-.66-.22-1.05s.07-.75.22-1.05.35-.54.61-.71.56-.25.91-.25c.32 0 .61.08.85.25s.43.41.57.71.2.65.2 1.05-.07.75-.2 1.05c-.13.31-.32.54-.57.71-.24.17-.53.25-.85.25m.14-.56q.345 0 .6-.18c.255-.18.31-.29.41-.52q.15-.33.15-.75c0-.42-.05-.53-.15-.75s-.24-.39-.41-.52-.38-.18-.61-.18-.46.06-.64.18-.33.29-.44.52c-.11.22-.16.47-.16.75s.05.53.16.75.26.39.45.52c.19.12.41.18.65.18Zm1.19.47-.03-.72v-4.67h.62v5.39z" fill="#fffdf0"/>
        <path d="M132.03 21.22c-.38 0-.71-.09-.99-.26-.29-.17-.51-.41-.67-.71q-.24-.45-.24-1.05c0-.6.08-.74.24-1.05.16-.3.38-.54.67-.71.28-.17.61-.26.98-.26s.67.09.93.27.46.42.61.74.22.69.22 1.12h-3.18l.15-.13c0 .31.05.57.17.79s.27.39.47.5c.2.12.43.17.69.17.27 0 .5-.06.69-.19s.33-.3.43-.51l.53.27c-.1.2-.23.37-.39.52s-.35.26-.57.35c-.22.08-.46.12-.73.12Zm-1.25-2.29-.16-.12h2.66l-.16.13c0-.25-.05-.46-.15-.64q-.15-.27-.39-.42c-.17-.1-.35-.15-.57-.15s-.41.05-.6.15-.34.23-.45.41c-.12.18-.17.39-.17.63Z" fill="#fffdf0"/>
        <path d="m137.59 21.13-1.61-3.85h.64l1.57 3.85zm.04 0 1.57-3.85h.65l-1.61 3.85z" fill="#fffdf0"/>
        <path d="M140.81 16.39q-.15 0-.27-.12c-.12-.12-.12-.17-.12-.27s.04-.2.12-.27.17-.11.27-.11.2.04.27.11.11.17.11.27-.04.19-.11.27q-.12.12-.27.12m-.32 4.74v-3.85h.62v3.85z" fill="#fffdf0"/>
        <path d="M141.84 17.83v-.55h2.44v.55zm1.84 3.39c-.37 0-.67-.1-.87-.29-.21-.19-.31-.47-.31-.82v-4.03h.62v3.96c0 .2.05.35.16.45.11.11.25.16.44.16.06 0 .12 0 .18-.03.06-.02.14-.06.23-.13l.24.5a1.2 1.2 0 0 1-.69.23" fill="#fffdf0"/>
        <path d="M146.34 21.22c-.45 0-.8-.1-1.06-.31-.25-.21-.38-.5-.38-.87q0-.585.39-.9c.26-.21.62-.31 1.09-.31h1.1v.52h-.96c-.36 0-.61.06-.77.18a.62.62 0 0 0-.23.51c0 .2.07.36.22.47.15.12.36.17.62.17.22 0 .41-.05.58-.14.16-.09.29-.23.38-.41s.13-.39.13-.63h.26c0 .52-.12.94-.35 1.25s-.58.47-1.03.47Zm1.16-.09-.03-.63v-1.4c0-.3-.03-.55-.1-.75s-.17-.35-.32-.45-.33-.15-.56-.15c-.21 0-.39.04-.54.13s-.28.22-.37.4l-.55-.22c.1-.18.21-.33.35-.47s.3-.23.49-.3.4-.1.63-.1c.36 0 .66.07.89.21s.41.35.53.62.17.61.17 1.02v2.09h-.58Z" fill="#fffdf0"/>
        <path d="M149.05 21.13v-3.85h.58l.03.54c.12-.21.27-.36.45-.47s.4-.16.65-.16c.31 0 .57.07.79.22.22.14.38.36.47.65.11-.28.27-.5.47-.65.21-.15.46-.22.74-.22.43 0 .77.14 1.02.43s.37.72.37 1.31v2.2H154v-1.97q0-.57-.12-.87c-.08-.2-.19-.34-.32-.41a1 1 0 0 0-.46-.11c-.3 0-.54.12-.71.36s-.25.58-.25 1.01v1.99h-.62v-1.97q0-.57-.12-.87c-.08-.2-.19-.34-.32-.41-.14-.07-.29-.11-.47-.11-.3 0-.53.12-.7.36s-.25.58-.25 1.01v1.99h-.62Z" fill="#fffdf0"/>
        <path d="M155.96 16.39q-.15 0-.27-.12c-.12-.12-.12-.17-.12-.27s.04-.2.12-.27.17-.11.27-.11.2.04.27.11.11.17.11.27-.04.19-.11.27q-.12.12-.27.12m-.32 4.74v-3.85h.62v3.85z" fill="#fffdf0"/>
        <path d="M157.39 21.13v-3.85h.58l.04.71v3.14zm2.7-1.97c0-.38-.04-.67-.13-.87s-.21-.34-.36-.41-.33-.11-.52-.11c-.34 0-.6.12-.79.36s-.28.58-.28 1.01h-.3c0-.41.06-.75.18-1.05.12-.29.29-.52.52-.67s.5-.23.82-.23.57.06.79.18.4.31.52.57.19.61.18 1.03v.18h-.62Zm0 1.97v-1.97h.62v1.97z" fill="#fffdf0"/>
        <path d="M162.9 21.22c-.45 0-.8-.1-1.06-.31-.25-.21-.38-.5-.38-.87q0-.585.39-.9c.26-.21.62-.31 1.09-.31h1.1v.52h-.96c-.36 0-.61.06-.77.18a.62.62 0 0 0-.23.51c0 .2.07.36.22.47.15.12.36.17.62.17.22 0 .41-.05.58-.14.16-.09.29-.23.38-.41s.13-.39.13-.63h.26c0 .52-.12.94-.35 1.25s-.58.47-1.03.47Zm1.16-.09-.03-.63v-1.4c0-.3-.03-.55-.1-.75s-.17-.35-.32-.45-.33-.15-.56-.15c-.21 0-.39.04-.54.13s-.28.22-.37.4l-.55-.22c.1-.18.21-.33.35-.47s.3-.23.49-.3.4-.1.63-.1c.36 0 .66.07.89.21s.41.35.53.62.17.61.17 1.02v2.09h-.58Z" fill="#fffdf0"/>
        <path d="M166.96 21.22c-.28 0-.53-.04-.74-.13-.21-.08-.39-.2-.53-.33q-.21-.21-.3-.45l.54-.22c.09.17.22.32.39.42.17.11.37.16.58.16.24 0 .44-.05.61-.14a.45.45 0 0 0 .25-.4c0-.16-.06-.29-.18-.38q-.18-.15-.54-.24l-.37-.1c-.35-.09-.62-.23-.82-.42-.19-.19-.29-.4-.29-.63 0-.36.12-.65.36-.85s.59-.3 1.07-.3c.23 0 .43.03.62.1.18.07.34.16.48.28.13.12.23.26.29.43l-.54.24a.73.73 0 0 0-.33-.38 1.2 1.2 0 0 0-.56-.12c-.24 0-.42.05-.55.15s-.2.24-.2.42c0 .1.06.2.17.29s.27.16.49.22l.38.1q.375.09.63.27c.17.12.3.26.39.41s.13.32.13.49c0 .23-.06.43-.19.6-.12.17-.29.3-.5.39s-.45.13-.72.13Z" fill="#fffdf0"/>
        <path d="m168.97 22.02.44-1.62h.69l-.6 1.62z" fill="#fffdf0"/>
        <path d="M172.84 21.13v-3.85h.58l.03.54c.12-.21.27-.36.45-.47s.4-.16.65-.16c.31 0 .57.07.79.22.22.14.38.36.47.65.11-.28.27-.5.47-.65.21-.15.46-.22.74-.22.43 0 .77.14 1.02.43s.37.72.37 1.31v2.2h-.62v-1.97q0-.57-.12-.87c-.08-.2-.19-.34-.32-.41a1 1 0 0 0-.46-.11c-.3 0-.54.12-.71.36s-.25.58-.25 1.01v1.99h-.62v-1.97q0-.57-.12-.87c-.08-.2-.19-.34-.32-.41-.14-.07-.29-.11-.47-.11-.3 0-.53.12-.7.36s-.25.58-.25 1.01v1.99h-.62Z" fill="#fffdf0"/>
        <path d="M179.75 16.39q-.15 0-.27-.12c-.12-.12-.12-.17-.12-.27s.04-.2.12-.27.17-.11.27-.11.2.04.27.11.11.17.11.27-.04.19-.11.27q-.12.12-.27.12m-.32 4.74v-3.85h.62v3.85z" fill="#fffdf0"/>
        <path d="M181.18 21.13v-3.85h.58l.04.71v3.14zm2.71-1.97c0-.38-.04-.67-.13-.87s-.21-.34-.36-.41-.33-.11-.52-.11c-.34 0-.6.12-.79.36s-.28.58-.28 1.01h-.3c0-.41.06-.75.18-1.05.12-.29.29-.52.52-.67s.5-.23.82-.23.57.06.79.18.4.31.52.57.19.61.18 1.03v.18h-.62Zm0 1.97v-1.97h.62v1.97z" fill="#fffdf0"/>
        <path d="M187.17 21.22c-.38 0-.71-.09-.99-.26-.29-.17-.51-.41-.67-.71q-.24-.45-.24-1.05c0-.6.08-.74.24-1.05.16-.3.38-.54.67-.71.28-.17.61-.26.98-.26s.67.09.93.27.46.42.61.74.22.69.22 1.12h-3.18l.15-.13c0 .31.05.57.17.79s.27.39.47.5c.2.12.43.17.69.17.27 0 .5-.06.69-.19s.33-.3.43-.51l.53.27c-.1.2-.23.37-.39.52s-.35.26-.57.35c-.22.08-.46.12-.73.12Zm-1.25-2.29-.16-.12h2.66l-.16.13c0-.25-.05-.46-.15-.64q-.15-.27-.39-.42c-.17-.1-.35-.15-.57-.15s-.41.05-.6.15-.34.23-.45.41c-.12.18-.17.39-.17.63Z" fill="#fffdf0"/>
        <path d="M189.68 21.13v-3.85h.62v3.85zm.34-2.09c0-.42.08-.75.24-1.01s.36-.45.61-.58c.25-.12.51-.19.79-.19v.58c-.23 0-.44.04-.65.11s-.38.2-.51.37-.2.4-.2.69z" fill="#fffdf0"/>
        <path d="M193.5 21.22c-.45 0-.8-.1-1.06-.31-.25-.21-.38-.5-.38-.87q0-.585.39-.9c.26-.21.62-.31 1.09-.31h1.1v.52h-.96c-.36 0-.61.06-.77.18a.62.62 0 0 0-.23.51c0 .2.07.36.22.47.15.12.36.17.62.17.22 0 .41-.05.58-.14.16-.09.29-.23.38-.41s.13-.39.13-.63h.26c0 .52-.12.94-.35 1.25s-.58.47-1.03.47Zm1.16-.09-.03-.63v-1.4c0-.3-.03-.55-.1-.75s-.17-.35-.32-.45-.33-.15-.56-.15c-.21 0-.39.04-.54.13s-.28.22-.37.4l-.55-.22c.1-.18.21-.33.35-.47s.3-.23.49-.3.4-.1.63-.1c.36 0 .66.07.89.21s.41.35.53.62.17.61.17 1.02v2.09h-.58Z" fill="#fffdf0"/>
        <path d="M196.57 16.39q-.15 0-.27-.12c-.12-.12-.12-.17-.12-.27s.04-.2.12-.27.17-.11.27-.11.2.04.27.11.11.17.11.27-.04.19-.11.27q-.12.12-.27.12m-.32 4.74v-3.85h.62v3.85z" fill="#fffdf0"/>
        <path d="M199.35 21.22c-.28 0-.53-.04-.74-.13-.21-.08-.39-.2-.53-.33q-.21-.21-.3-.45l.54-.22c.09.17.22.32.39.42.17.11.37.16.58.16.24 0 .44-.05.61-.14a.45.45 0 0 0 .25-.4c0-.16-.06-.29-.18-.38q-.18-.15-.54-.24l-.37-.1c-.35-.09-.62-.23-.82-.42-.19-.19-.29-.4-.29-.63 0-.36.12-.65.36-.85s.59-.3 1.07-.3c.23 0 .43.03.62.1.18.07.34.16.48.28.13.12.23.26.29.43l-.54.24a.73.73 0 0 0-.33-.38 1.2 1.2 0 0 0-.56-.12c-.24 0-.42.05-.55.15s-.2.24-.2.42c0 .1.06.2.17.29s.27.16.49.22l.38.1q.375.09.63.27c.17.12.3.26.39.41s.13.32.13.49c0 .23-.06.43-.19.6-.12.17-.29.3-.5.39s-.45.13-.72.13Z" fill="#fffdf0"/>
        <path d="m201.35 22.02.44-1.62h.69l-.6 1.62z" fill="#fffdf0"/>
        <path d="M64.02 29.83v-5.39h3.19v.59h-2.53v1.74h2.31v.58h-2.31v1.88h2.55v.59h-3.2Z" fill="#fffdf0"/>
        <path d="M68.58 29.83v-5.39h1.76c.35 0 .66.07.93.22s.48.34.63.6.23.55.23.89-.07.62-.21.88-.33.46-.57.6-.52.22-.84.22h-1.27v1.98h-.65Zm.66-2.57h1.27c.28 0 .51-.1.7-.31.18-.21.27-.47.27-.8s-.11-.6-.32-.81c-.22-.21-.49-.31-.82-.31h-1.09v2.23Z" fill="#fffdf0"/>
        <path d="m72.39 29.83 2.19-5.39h.66l-2.16 5.39zm1.04-1.53v-.58h3v.58zm3.35 1.53-2.16-5.39h.65l2.19 5.39h-.69Z" fill="#fffdf0"/>
        <path d="m77.85 30.72.44-1.62h.69l-.6 1.62z" fill="#fffdf0"/>
        <path d="M81.9 29.83v-5.39h1.64c.51 0 .96.11 1.34.34.39.23.69.54.91.95s.33.87.33 1.4-.11.99-.33 1.39-.53.72-.91.95a2.6 2.6 0 0 1-1.34.35H81.9Zm.65-.6h.99c.27 0 .52-.05.75-.16s.44-.26.61-.45a2.16 2.16 0 0 0 .57-1.48 2.16 2.16 0 0 0-.57-1.48c-.18-.2-.38-.35-.61-.45-.23-.11-.48-.16-.75-.16h-.99v4.19Z" fill="#fffdf0"/>
        <path d="M87.19 29.83v-5.39h.65v5.39zm.58-2.48v-.59h3.26v.59zm3.13 2.48v-5.39h.65v5.39z" fill="#fffdf0"/>
        <path d="m92.33 29.83 2.19-5.39h.66l-2.16 5.39zm1.04-1.53v-.58h3v.58zm3.34 1.53-2.16-5.39h.65l2.19 5.39h-.69Z" fill="#fffdf0"/>
        <path d="M101.6 29.92c-.38 0-.71-.09-.99-.26-.29-.17-.51-.41-.67-.71q-.24-.45-.24-1.05c0-.6.08-.74.24-1.05.16-.3.38-.54.67-.71.28-.17.61-.26.98-.26s.67.09.93.27.46.42.61.74.22.69.22 1.12h-3.18l.15-.13c0 .31.05.57.17.79s.27.39.47.5c.2.12.43.17.69.17.27 0 .5-.06.69-.19s.33-.3.43-.51l.53.27c-.1.2-.23.37-.39.52s-.35.26-.57.35c-.22.08-.46.12-.73.12Zm-1.25-2.29-.16-.12h2.66l-.16.13c0-.25-.05-.46-.15-.64q-.15-.27-.39-.42c-.17-.1-.35-.15-.57-.15s-.41.05-.6.15-.34.23-.45.41c-.12.18-.17.39-.17.63Z" fill="#fffdf0"/>
        <path d="M106.06 31.37v-5.39h.58l.04.71v4.68zm1.92-1.45c-.32 0-.61-.08-.85-.25s-.43-.41-.57-.71c-.13-.3-.2-.66-.2-1.05s.07-.75.2-1.05.32-.54.57-.71c.24-.17.53-.25.85-.25.34 0 .65.08.91.25s.47.41.61.71.22.65.22 1.05-.07.75-.22 1.05c-.15.31-.35.54-.61.71s-.56.25-.91.25m-.14-.56c.24 0 .46-.06.64-.18s.34-.29.45-.51.17-.47.17-.76-.05-.53-.16-.75c-.1-.22-.25-.39-.44-.52s-.4-.18-.65-.18q-.345 0-.6.18-.27.18-.42.51c-.1.22-.15.47-.15.76s.05.53.15.75.24.39.41.52q.255.18.6.18" fill="#fffdf0"/>
        <path d="M110.57 29.83v-3.85h.62v3.85zm.34-2.09c0-.42.08-.75.24-1.01s.36-.45.61-.58c.25-.12.51-.19.79-.19v.58c-.23 0-.44.04-.65.11s-.38.2-.51.37-.2.4-.2.69z" fill="#fffdf0"/>
        <path d="M114.86 29.92c-.38 0-.71-.09-.99-.26-.29-.17-.51-.41-.67-.71q-.24-.45-.24-1.05c0-.6.08-.74.24-1.05.16-.3.38-.54.67-.71.28-.17.61-.26.98-.26s.67.09.93.27.46.42.61.74.22.69.22 1.12h-3.18l.15-.13c0 .31.05.57.17.79s.27.39.47.5c.2.12.43.17.69.17.27 0 .5-.06.69-.19s.33-.3.43-.51l.53.27c-.1.2-.23.37-.39.52s-.35.26-.57.35c-.22.08-.46.12-.73.12Zm-1.25-2.29-.16-.12h2.66l-.16.13c0-.25-.05-.46-.15-.64q-.15-.27-.39-.42c-.17-.1-.35-.15-.57-.15s-.41.05-.6.15-.34.23-.45.41c-.12.18-.17.39-.17.63Z" fill="#fffdf0"/>
        <path d="M117.38 29.83v-5.39h.62v4.67l-.03.72h-.58Zm1.91.09c-.32 0-.61-.08-.85-.25s-.43-.41-.57-.71c-.13-.3-.2-.66-.2-1.05s.07-.75.2-1.05.32-.54.57-.71c.24-.17.53-.25.85-.25.34 0 .65.08.91.25s.47.41.61.71c.15.3.22.65.22 1.05s-.07.75-.22 1.05c-.15.31-.35.54-.61.71s-.57.25-.91.25m-.14-.56c.24 0 .46-.06.64-.18s.34-.29.45-.51.17-.47.17-.76-.05-.53-.16-.75-.25-.39-.44-.52c-.19-.12-.4-.18-.65-.18q-.345 0-.6.18-.27.18-.42.51c-.1.22-.15.47-.15.76s.05.53.15.75.24.39.41.52c.17.12.38.18.6.18" fill="#fffdf0"/>
        <path d="M122.24 25.09q-.15 0-.27-.12c-.12-.12-.12-.17-.12-.27s.04-.2.12-.27.17-.11.27-.11.2.04.27.11.11.17.11.27-.04.19-.11.27q-.12.12-.27.12m-.31 4.74v-3.85h.62v3.85z" fill="#fffdf0"/>
        <path d="M125.38 29.92c-.38 0-.71-.09-1-.26s-.52-.41-.68-.71c-.17-.3-.25-.65-.25-1.05s.08-.74.24-1.05c.16-.3.39-.54.68-.71s.62-.26 1-.26.71.09 1 .26.52.41.68.71q.24.45.24 1.05c0 .6-.08.74-.24 1.05-.16.3-.39.54-.67.71-.29.17-.62.26-.99.26Zm0-.57c.25 0 .47-.06.67-.18q.285-.18.45-.51c.11-.22.17-.47.17-.75s-.05-.53-.17-.75a1.2 1.2 0 0 0-.46-.51c-.2-.12-.42-.18-.68-.18s-.47.06-.67.18-.34.29-.46.51c-.11.22-.17.47-.17.75s.05.53.17.75c.11.22.26.39.46.51s.42.18.67.18Zm-.54-3.92.9-.99h.79l-.99.99z" fill="#fffdf0"/>
        <path d="M127.74 26.53v-.55h2.44v.55zm1.85 3.39c-.37 0-.67-.1-.87-.29-.21-.19-.31-.47-.31-.82v-4.03h.62v3.96c0 .2.05.35.16.45.11.11.25.16.44.16.06 0 .12 0 .18-.03.06-.02.14-.06.23-.13l.24.5a1.2 1.2 0 0 1-.69.23" fill="#fffdf0"/>
        <path d="M131.4 25.09q-.15 0-.27-.12c-.12-.12-.12-.17-.12-.27s.04-.2.12-.27.17-.11.27-.11.2.04.27.11.11.17.11.27-.04.19-.11.27q-.12.12-.27.12m-.31 4.74v-3.85h.62v3.85z" fill="#fffdf0"/>
        <path d="M134.55 29.92c-.38 0-.72-.09-1.01-.26s-.52-.41-.68-.71c-.17-.3-.25-.65-.25-1.05s.08-.74.24-1.05c.16-.3.39-.54.68-.71s.63-.26 1-.26.7.08.99.25.52.41.67.72l-.56.25q-.15-.315-.45-.48c-.2-.12-.42-.17-.67-.17s-.47.06-.67.18-.34.29-.46.51c-.11.22-.17.47-.17.75s.05.53.17.75c.11.22.26.39.46.51s.42.18.67.18.48-.06.67-.19q.3-.195.45-.54l.56.25c-.15.33-.38.58-.67.77-.29.18-.63.28-1 .28Z" fill="#fffdf0"/>
        <path d="M138.71 29.92c-.38 0-.71-.09-1-.26s-.52-.41-.68-.71c-.17-.3-.25-.65-.25-1.05s.08-.74.24-1.05c.16-.3.39-.54.68-.71s.62-.26 1-.26.71.09 1 .26.52.41.68.71q.24.45.24 1.05c0 .6-.08.74-.24 1.05-.16.3-.39.54-.67.71-.29.17-.62.26-.99.26Zm-.01-.57c.25 0 .47-.06.67-.18q.285-.18.45-.51c.11-.22.17-.47.17-.75s-.05-.53-.17-.75a1.2 1.2 0 0 0-.46-.51c-.2-.12-.42-.18-.68-.18s-.47.06-.67.18-.34.29-.46.51c-.11.22-.17.47-.17.75s.05.53.17.75c.11.22.26.39.46.51s.42.18.67.18Z" fill="#fffdf0"/>
        <path d="M143.55 29.83v-5.39h.68l1.86 2.76 1.86-2.76h.67v5.39h-.65v-4.34l-1.89 2.81-1.89-2.79v4.33h-.65Z" fill="#fffdf0"/>
        <path d="M152.35 29.92c-.52 0-.98-.12-1.38-.35s-.71-.56-.94-.99c-.23-.42-.34-.9-.34-1.45s.11-1.03.33-1.45.53-.75.93-.98.85-.35 1.37-.35.98.12 1.38.36q.6.36.93.99t.33 1.44c0 .81-.11 1.03-.33 1.45s-.53.75-.92.99-.85.35-1.36.35Zm0-.59c.38 0 .72-.09 1.01-.28s.53-.45.69-.77c.17-.33.25-.71.25-1.14s-.08-.8-.25-1.14c-.17-.33-.4-.59-.7-.78s-.64-.28-1.02-.28-.73.09-1.02.28c-.3.19-.53.45-.7.78s-.25.71-.25 1.14.08.81.25 1.14.41.59.71.77c.3.19.65.28 1.04.28Z" fill="#fffdf0"/>
        <path d="M157.76 29.92c-.3 0-.56-.03-.79-.1q-.345-.09-.6-.27c-.17-.12-.31-.24-.42-.38q-.165-.21-.24-.45l.62-.22c.08.23.23.42.47.59s.52.25.86.25c.42 0 .74-.08.98-.25.24-.16.35-.38.35-.65 0-.25-.11-.46-.32-.61-.21-.16-.49-.28-.83-.37l-.59-.15c-.24-.06-.46-.15-.67-.27-.2-.12-.36-.27-.49-.46a1.2 1.2 0 0 1-.18-.67c0-.49.16-.87.47-1.14s.77-.41 1.37-.41c.35 0 .66.06.92.17.26.12.47.26.63.44s.28.37.34.57l-.62.21c-.1-.26-.26-.46-.49-.6-.23-.15-.51-.22-.84-.22s-.62.08-.82.25-.3.39-.3.68c0 .25.08.43.24.57s.37.23.62.29l.59.15c.52.12.93.33 1.21.61s.42.59.42.92c0 .28-.07.54-.22.77s-.36.42-.63.55c-.28.14-.63.2-1.04.2" fill="#fffdf0"/>
        <path d="M164 29.92c-.34 0-.65-.08-.91-.25s-.47-.41-.61-.71c-.15-.3-.22-.66-.22-1.05s.07-.75.22-1.05.35-.54.61-.71.56-.25.91-.25c.32 0 .61.08.85.25s.43.41.57.71.2.65.2 1.05-.07.75-.2 1.05c-.13.31-.32.54-.57.71-.24.17-.53.25-.85.25m.14-.56q.345 0 .6-.18c.255-.18.31-.29.41-.52q.15-.33.15-.75c0-.42-.05-.53-.15-.75s-.24-.39-.41-.52-.38-.18-.61-.18-.46.06-.64.18-.33.29-.44.52c-.11.22-.16.47-.16.75s.05.53.16.75.26.39.45.52c.19.12.41.18.65.18Zm1.17 2.01V26.7l.03-.72h.59v5.39z" fill="#fffdf0"/>
        <path d="M166.84 27.95v-1.97h.62v1.97zm.61 0c0 .38.04.67.13.87s.21.34.37.41.33.11.53.11q.495 0 .78-.36c.285-.36.28-.58.28-1.01h.3c0 .41-.06.75-.18 1.05-.12.29-.29.52-.51.67s-.5.23-.82.23c-.3 0-.56-.06-.79-.18s-.4-.31-.52-.58c-.12-.26-.19-.61-.19-1.03v-.19h.62Zm2.13 1.88-.04-.71v-3.14h.62v3.85z" fill="#fffdf0"/>
        <path d="M172.92 29.92c-.38 0-.71-.09-.99-.26-.29-.17-.51-.41-.67-.71q-.24-.45-.24-1.05c0-.6.08-.74.24-1.05.16-.3.38-.54.67-.71.28-.17.61-.26.98-.26s.67.09.93.27.46.42.61.74.22.69.22 1.12h-3.18l.15-.13c0 .31.05.57.17.79s.27.39.47.5c.2.12.43.17.69.17.27 0 .5-.06.69-.19s.33-.3.43-.51l.53.27c-.1.2-.23.37-.39.52s-.35.26-.57.35c-.22.08-.46.12-.73.12Zm-1.25-2.29-.16-.12h2.66l-.16.13c0-.25-.05-.46-.15-.64q-.15-.27-.39-.42c-.17-.1-.35-.15-.57-.15s-.41.05-.6.15-.34.23-.45.41c-.12.18-.17.39-.17.63Z" fill="#fffdf0"/>
        <path d="M177.12 31.49c-.19 0-.43-.07-.72-.2l.23-.52c.12.05.23.08.31.11s.15.04.2.04c.35 0 .52-.22.52-.67v-4.27h.62v4.28c0 .4-.1.7-.29.91s-.48.31-.87.31Zm.85-6.41q-.15 0-.27-.12a.37.37 0 0 1-.12-.27c0-.11.04-.21.12-.28s.17-.11.27-.11c.11 0 .2.04.28.11a.373.373 0 0 1 0 .55c-.08.08-.17.12-.28.12" fill="#fffdf0"/>
        <path d="M179.31 27.95v-1.97h.62v1.97zm.62 0c0 .38.04.67.13.87s.21.34.37.41.33.11.53.11q.495 0 .78-.36c.285-.36.28-.58.28-1.01h.3c0 .41-.06.75-.18 1.05-.12.29-.29.52-.51.67s-.5.23-.82.23c-.3 0-.56-.06-.79-.18s-.4-.31-.52-.58c-.12-.26-.19-.61-.19-1.03v-.19h.62Zm2.12 1.88-.04-.71v-3.14h.62v3.85z" fill="#fffdf0"/>
        <path d="M183.71 29.83v-3.85h.58l.04.71v3.14zm2.7-1.97c0-.38-.04-.67-.13-.87s-.21-.34-.36-.41-.33-.11-.52-.11c-.34 0-.6.12-.79.36s-.28.58-.28 1.01h-.3c0-.41.06-.75.18-1.05.12-.29.29-.52.52-.67s.5-.23.82-.23.57.06.79.18.4.31.52.57.19.61.18 1.03v.18h-.62Zm0 1.97v-1.97h.62v1.97z" fill="#fffdf0"/>
        <path d="M187.6 26.53v-.55h2.44v.55zm1.85 3.39c-.37 0-.67-.1-.87-.29-.21-.19-.31-.47-.31-.82v-4.03h.62v3.96c0 .2.05.35.16.45.11.11.25.16.44.16.06 0 .12 0 .18-.03.06-.02.14-.06.23-.13l.24.5a1.2 1.2 0 0 1-.69.23" fill="#fffdf0"/>
        <path d="M192.6 29.92c-.38 0-.71-.09-1-.26s-.52-.41-.68-.71c-.17-.3-.25-.65-.25-1.05s.08-.74.24-1.05c.16-.3.39-.54.68-.71s.62-.26 1-.26.71.09 1 .26.52.41.68.71q.24.45.24 1.05c0 .6-.08.74-.24 1.05-.16.3-.39.54-.67.71-.29.17-.62.26-.99.26Zm-.01-.57c.25 0 .47-.06.67-.18q.285-.18.45-.51c.11-.22.17-.47.17-.75s-.05-.53-.17-.75a1.2 1.2 0 0 0-.46-.51c-.2-.12-.42-.18-.68-.18s-.47.06-.67.18-.34.29-.46.51c-.11.22-.17.47-.17.75s.05.53.17.75c.11.22.26.39.46.51s.42.18.67.18Z" fill="#fffdf0"/>
        <path d="M196.7 29.92c-.28 0-.53-.04-.74-.13-.21-.08-.39-.2-.53-.33q-.21-.21-.3-.45l.54-.22c.09.17.22.32.39.42.17.11.37.16.58.16.24 0 .44-.05.61-.14a.45.45 0 0 0 .25-.4c0-.16-.06-.29-.18-.38q-.18-.15-.54-.24l-.37-.1c-.35-.09-.62-.23-.82-.42-.19-.19-.29-.4-.29-.63 0-.36.12-.65.36-.85s.59-.3 1.07-.3c.23 0 .43.03.62.1.18.07.34.16.48.28.13.12.23.26.29.43l-.54.24a.73.73 0 0 0-.33-.38 1.2 1.2 0 0 0-.56-.12c-.24 0-.42.05-.55.15s-.2.24-.2.42c0 .1.06.2.17.29s.27.16.49.22l.38.1q.375.09.63.27c.17.12.3.26.39.41s.13.32.13.49c0 .23-.06.43-.19.6-.12.17-.29.3-.5.39s-.45.13-.72.13Z" fill="#fffdf0"/>
        <path d="M65.56 38.62c-.38 0-.72-.09-1.01-.26s-.52-.41-.68-.71c-.17-.3-.25-.65-.25-1.05s.08-.75.24-1.05.39-.54.68-.71.63-.26 1-.26.7.08.99.25.52.41.67.72l-.56.25q-.15-.315-.45-.48c-.2-.12-.42-.17-.67-.17s-.47.06-.67.18c-.19.12-.34.29-.46.51-.11.22-.17.47-.17.75s.05.53.17.75c.11.22.26.39.46.51s.42.18.67.18.48-.06.67-.19q.3-.195.45-.54l.56.25c-.15.33-.38.58-.67.77-.29.18-.63.28-1 .28Z" fill="#fffdf0"/>
        <path d="M69.72 38.62c-.38 0-.71-.09-1-.26s-.52-.41-.68-.71c-.17-.3-.25-.65-.25-1.05s.08-.75.24-1.05.39-.54.68-.71.62-.26 1-.26.71.09 1 .26.52.41.68.71q.24.45.24 1.05c0 .6-.08.74-.24 1.05-.16.3-.39.54-.67.71-.29.17-.62.26-.99.26Zm0-.57c.25 0 .47-.06.67-.18q.285-.18.45-.51c.11-.22.17-.47.17-.75s-.05-.53-.17-.75a1.2 1.2 0 0 0-.46-.51c-.2-.12-.42-.18-.68-.18s-.47.06-.67.18c-.19.12-.34.29-.46.51s-.17.47-.17.75.05.53.17.75c.11.22.26.39.46.51s.42.18.67.18Z" fill="#fffdf0"/>
        <path d="M72.48 38.53v-3.85h.58l.04.71v3.14zm2.7-1.97c0-.38-.04-.67-.13-.87s-.21-.34-.36-.41a1.2 1.2 0 0 0-.52-.11c-.34 0-.6.12-.79.36s-.28.58-.28 1.01h-.3c0-.41.06-.75.18-1.05.12-.29.29-.52.52-.67s.5-.23.82-.23.57.06.79.18.4.31.52.57c.13.26.19.61.18 1.03v.18h-.62Zm0 1.97v-1.97h.62v1.97z" fill="#fffdf0"/>
        <path d="M76.38 35.23v-.55h2.44v.55zm1.84 3.39c-.37 0-.67-.1-.87-.29s-.31-.47-.31-.82v-4.03h.62v3.97c0 .2.05.35.16.45s.25.16.44.16c.06 0 .12 0 .18-.03.06-.02.14-.06.23-.13l.24.5a1.2 1.2 0 0 1-.69.23Z" fill="#fffdf0"/>
        <path d="M79.69 38.53v-3.85h.62v3.85zm.34-2.09c0-.42.08-.75.24-1.01s.36-.45.61-.58.51-.19.79-.19v.58c-.23 0-.44.04-.65.11-.21.08-.38.2-.51.37s-.2.4-.2.69z" fill="#fffdf0"/>
        <path d="M82.64 33.79q-.15 0-.27-.12t-.12-.27c0-.15.04-.2.12-.27.08-.08.17-.11.27-.11s.2.04.27.11.11.17.11.27-.04.19-.11.27q-.12.12-.27.12m-.31 4.74v-3.85h.62v3.85z" fill="#fffdf0"/>
        <path d="M84.08 38.53v-5.39h.62v4.67l-.03.72h-.58Zm1.91.09c-.32 0-.61-.08-.85-.25s-.43-.41-.57-.71c-.13-.31-.2-.66-.2-1.05s.07-.75.2-1.06c.13-.3.32-.54.57-.71.24-.17.53-.25.85-.25.34 0 .65.08.91.25s.47.41.61.71c.15.3.22.66.22 1.06s-.07.75-.22 1.05c-.15.31-.35.54-.61.71s-.57.25-.91.25m-.14-.56c.24 0 .46-.06.64-.18q.285-.18.45-.51c.11-.22.17-.47.17-.76s-.05-.53-.16-.75-.25-.39-.44-.52c-.19-.12-.4-.19-.65-.19-.23 0-.43.06-.6.19q-.27.18-.42.51c-.1.22-.15.47-.15.76s.05.53.15.75.24.39.41.52c.17.12.38.18.6.18" fill="#fffdf0"/>
        <path d="M88.49 36.65v-1.97h.62v1.97zm.61 0c0 .38.04.67.13.87s.21.34.37.41.33.11.53.11q.495 0 .78-.36c.19-.24.28-.58.28-1.01h.3c0 .41-.06.75-.18 1.05-.12.29-.29.52-.51.67s-.5.23-.82.23c-.3 0-.56-.06-.79-.18s-.4-.31-.52-.58-.19-.61-.19-1.03v-.18zm2.13 1.88-.04-.71v-3.14h.62v3.85z" fill="#fffdf0"/>
        <path d="M94.57 38.62c-.38 0-.71-.09-.99-.26-.29-.17-.51-.41-.67-.71q-.24-.45-.24-1.05c0-.6.08-.75.24-1.05s.38-.54.67-.71c.28-.17.61-.26.98-.26s.67.09.93.27.46.42.61.74.22.69.22 1.12h-3.18l.15-.13c0 .31.05.57.17.79s.27.39.47.5c.2.12.43.17.69.17.27 0 .5-.06.69-.19s.33-.3.43-.51l.53.27c-.1.2-.23.38-.39.52-.16.15-.35.26-.57.35-.22.08-.46.12-.73.12Zm-1.25-2.29-.16-.12h2.66l-.16.13c0-.25-.05-.46-.15-.64q-.15-.27-.39-.42c-.17-.1-.35-.15-.57-.15s-.41.05-.6.15-.34.24-.45.41c-.12.18-.17.39-.17.64Z" fill="#fffdf0"/>
        <path d="M97.09 38.53v-3.85h.58l.03.54c.12-.21.27-.36.45-.47s.4-.16.65-.16c.31 0 .57.07.79.22.22.14.38.36.47.65.11-.28.27-.5.47-.65.21-.15.46-.22.74-.22.43 0 .77.14 1.02.43s.37.72.37 1.31v2.2h-.62v-1.97q0-.57-.12-.87c-.08-.2-.19-.34-.32-.41a1 1 0 0 0-.46-.11c-.3 0-.54.12-.71.36s-.25.58-.25 1.01v1.99h-.62v-1.97q0-.57-.12-.87c-.08-.2-.19-.34-.32-.41-.14-.07-.29-.11-.47-.11-.3 0-.53.12-.7.36s-.25.58-.25 1.01v1.99h-.62Z" fill="#fffdf0"/>
        <path d="M105.58 40.07v-5.39h.58l.04.71v4.68zm1.92-1.45c-.32 0-.61-.08-.85-.25s-.43-.41-.57-.71-.2-.66-.2-1.05.07-.75.2-1.06c.13-.3.32-.54.57-.71.24-.17.53-.25.85-.25.34 0 .65.08.91.25s.47.41.61.71c.15.3.22.66.22 1.06s-.07.75-.22 1.05-.35.54-.61.71-.56.25-.91.25m-.14-.56c.24 0 .46-.06.64-.18q.285-.18.45-.51c.11-.22.17-.47.17-.76s-.05-.53-.16-.75c-.1-.22-.25-.39-.44-.52-.19-.12-.4-.19-.65-.19-.23 0-.43.06-.6.19q-.27.18-.42.51c-.1.22-.15.47-.15.76s.05.53.15.75.24.39.41.52q.255.18.6.18" fill="#fffdf0"/>
        <path d="M111.31 38.62c-.45 0-.8-.1-1.06-.31-.25-.21-.38-.5-.38-.87q0-.585.39-.9c.26-.21.62-.31 1.09-.31h1.1v.52h-.96c-.36 0-.61.06-.77.18a.62.62 0 0 0-.23.51c0 .2.07.36.22.47.15.12.36.17.62.17.22 0 .41-.05.58-.14.16-.1.29-.23.38-.41s.13-.39.13-.63h.26c0 .52-.12.94-.35 1.25s-.58.47-1.03.47Zm1.15-.09-.03-.63v-1.4c0-.3-.03-.55-.1-.75s-.17-.35-.32-.45-.33-.15-.56-.15c-.21 0-.39.04-.54.13-.15.08-.28.22-.37.4l-.55-.21c.1-.18.21-.33.35-.47s.3-.23.49-.3.4-.1.63-.1c.36 0 .66.07.89.21s.41.35.53.62.17.62.17 1.02v2.09h-.58Z" fill="#fffdf0"/>
        <path d="M114.02 38.53v-3.85h.62v3.85zm.34-2.09c0-.42.08-.75.24-1.01s.36-.45.61-.58.51-.19.79-.19v.58c-.23 0-.44.04-.65.11-.21.08-.38.2-.51.37s-.2.4-.2.69z" fill="#fffdf0"/>
        <path d="M117.84 38.62c-.45 0-.8-.1-1.06-.31-.25-.21-.38-.5-.38-.87q0-.585.39-.9c.26-.21.62-.31 1.09-.31h1.1v.52h-.96c-.36 0-.61.06-.77.18a.62.62 0 0 0-.23.51c0 .2.07.36.22.47.15.12.36.17.62.17.22 0 .41-.05.58-.14.16-.1.29-.23.38-.41s.13-.39.13-.63h.26c0 .52-.12.94-.35 1.25s-.58.47-1.03.47Zm1.15-.09-.03-.63v-1.4c0-.3-.03-.55-.1-.75s-.17-.35-.32-.45-.33-.15-.56-.15c-.21 0-.39.04-.54.13-.15.08-.28.22-.37.4l-.55-.21c.1-.18.21-.33.35-.47s.3-.23.49-.3.4-.1.63-.1c.36 0 .66.07.89.21s.41.35.53.62.17.62.17 1.02v2.09H119Z" fill="#fffdf0"/>
        <path d="M123.67 38.62c-.45 0-.8-.1-1.06-.31-.25-.21-.38-.5-.38-.87q0-.585.39-.9c.26-.21.62-.31 1.09-.31h1.1v.52h-.96c-.36 0-.61.06-.77.18a.62.62 0 0 0-.23.51c0 .2.07.36.22.47.15.12.36.17.62.17.22 0 .41-.05.58-.14.16-.1.29-.23.38-.41s.13-.39.13-.63h.26c0 .52-.12.94-.35 1.25s-.58.47-1.03.47Zm1.15-.09-.03-.63v-1.4c0-.3-.03-.55-.1-.75s-.17-.35-.32-.45-.33-.15-.56-.15c-.21 0-.39.04-.54.13-.15.08-.28.22-.37.4l-.55-.21c.1-.18.21-.33.35-.47s.3-.23.49-.3.4-.1.63-.1c.36 0 .66.07.89.21s.41.35.53.62.17.62.17 1.02v2.09h-.58Z" fill="#fffdf0"/>
        <path d="M128.28 38.53v-3.85h.58l.03.54c.12-.21.27-.36.45-.47s.4-.16.65-.16c.31 0 .57.07.79.22.22.14.38.36.47.65.11-.28.27-.5.47-.65.21-.15.46-.22.74-.22.43 0 .77.14 1.02.43s.37.72.37 1.31v2.2h-.62v-1.97q0-.57-.12-.87c-.08-.2-.19-.34-.32-.41a1 1 0 0 0-.46-.11c-.3 0-.54.12-.71.36s-.25.58-.25 1.01v1.99h-.62v-1.97q0-.57-.12-.87c-.08-.2-.19-.34-.32-.41-.14-.07-.29-.11-.47-.11-.3 0-.53.12-.7.36s-.25.58-.25 1.01v1.99h-.62Z" fill="#fffdf0"/>
        <path d="M136.05 38.62c-.45 0-.8-.1-1.06-.31-.25-.21-.38-.5-.38-.87q0-.585.39-.9c.26-.21.62-.31 1.09-.31h1.1v.52h-.96c-.36 0-.61.06-.77.18a.62.62 0 0 0-.23.51c0 .2.07.36.22.47.15.12.36.17.62.17.22 0 .41-.05.58-.14.16-.1.29-.23.38-.41s.13-.39.13-.63h.26c0 .52-.12.94-.35 1.25s-.58.47-1.03.47Zm1.15-.09-.03-.63v-1.4c0-.3-.03-.55-.1-.75s-.17-.35-.32-.45-.33-.15-.56-.15c-.21 0-.39.04-.54.13-.15.08-.28.22-.37.4l-.55-.21c.1-.18.21-.33.35-.47s.3-.23.49-.3.4-.1.63-.1c.36 0 .66.07.89.21s.41.35.53.62.17.62.17 1.02v2.09h-.58Z" fill="#fffdf0"/>
        <path d="M138.76 38.53v-3.85h.58l.04.71v3.14zm2.7-1.97c0-.38-.04-.67-.13-.87s-.21-.34-.36-.41a1.2 1.2 0 0 0-.52-.11c-.34 0-.6.12-.79.36s-.28.58-.28 1.01h-.3c0-.41.06-.75.18-1.05.12-.29.29-.52.52-.67s.5-.23.82-.23.57.06.79.18.4.31.52.57c.13.26.19.61.18 1.03v.18h-.62Zm0 1.97v-1.97h.62v1.97z" fill="#fffdf0"/>
        <path d="M142.95 36.65v-1.97h.62v1.97zm.62 0c0 .38.04.67.13.87s.21.34.37.41.33.11.53.11q.495 0 .78-.36c.19-.24.28-.58.28-1.01h.3c0 .41-.06.75-.18 1.05-.12.29-.29.52-.51.67s-.5.23-.82.23c-.3 0-.56-.06-.79-.18s-.4-.31-.52-.58-.19-.61-.19-1.03v-.18zm2.13 1.88-.04-.71v-3.14h.62v3.85z" fill="#fffdf0"/>
        <path d="M146.95 35.23v-.55h2.44v.55zm1.85 3.39c-.37 0-.67-.1-.87-.29s-.31-.47-.31-.82v-4.03h.62v3.97c0 .2.05.35.16.45s.25.16.44.16c.06 0 .12 0 .18-.03.06-.02.14-.06.23-.13l.24.5a1.2 1.2 0 0 1-.69.23Z" fill="#fffdf0"/>
        <path d="M151.93 38.62c-.38 0-.71-.09-.99-.26-.29-.17-.51-.41-.67-.71q-.24-.45-.24-1.05c0-.6.08-.75.24-1.05s.38-.54.67-.71c.28-.17.61-.26.98-.26s.67.09.93.27.46.42.61.74.22.69.22 1.12h-3.18l.15-.13c0 .31.05.57.17.79s.27.39.47.5c.2.12.43.17.69.17.27 0 .5-.06.69-.19s.33-.3.43-.51l.53.27c-.1.2-.23.38-.39.52-.16.15-.35.26-.57.35-.22.08-.46.12-.73.12Zm-1.25-2.29-.16-.12h2.66l-.16.13c0-.25-.05-.46-.15-.64q-.15-.27-.39-.42c-.17-.1-.35-.15-.57-.15s-.41.05-.6.15-.34.24-.45.41c-.12.18-.17.39-.17.64Z" fill="#fffdf0"/>
        <path d="M154.44 38.53v-3.85h.58l.04.71v3.14zm2.71-1.97c0-.38-.04-.67-.13-.87s-.21-.34-.36-.41a1.2 1.2 0 0 0-.52-.11c-.34 0-.6.12-.79.36s-.28.58-.28 1.01h-.3c0-.41.06-.75.18-1.05.12-.29.29-.52.52-.67s.5-.23.82-.23.57.06.79.18.4.31.52.57c.13.26.19.61.18 1.03v.18h-.62Zm0 1.97v-1.97h.62v1.97z" fill="#fffdf0"/>
        <path d="M160.46 38.62c-.38 0-.72-.09-1.01-.26s-.52-.41-.68-.71c-.17-.3-.25-.65-.25-1.05s.08-.75.24-1.05.39-.54.68-.71.63-.26 1-.26.7.08.99.25.52.41.67.72l-.56.25q-.15-.315-.45-.48c-.2-.12-.42-.17-.67-.17s-.47.06-.67.18c-.19.12-.34.29-.46.51-.11.22-.17.47-.17.75s.05.53.17.75c.11.22.26.39.46.51s.42.18.67.18.48-.06.67-.19q.3-.195.45-.54l.56.25c-.15.33-.38.58-.67.77-.29.18-.63.28-1 .28Zm-.24 1.53c-.1 0-.21-.01-.32-.04s-.26-.08-.42-.17l.15-.37c.08.04.16.07.25.11s.17.05.24.05c.09 0 .18-.02.25-.05.08-.04.11-.11.11-.22 0-.13-.05-.22-.14-.29s-.24-.11-.44-.14l.23-.54.41.09-.08.2c.19.07.33.16.4.28.08.12.12.25.12.38 0 .2-.06.37-.18.5-.12.14-.31.2-.58.2Z" fill="#fffdf0"/>
        <path d="M164.12 38.62c-.45 0-.8-.1-1.06-.31-.25-.21-.38-.5-.38-.87q0-.585.39-.9c.26-.21.62-.31 1.09-.31h1.1v.52h-.96c-.36 0-.61.06-.77.18a.62.62 0 0 0-.23.51c0 .2.07.36.22.47.15.12.36.17.62.17.22 0 .41-.05.58-.14.16-.1.29-.23.38-.41s.13-.39.13-.63h.26c0 .52-.12.94-.35 1.25s-.58.47-1.03.47Zm1.16-.09-.03-.63v-1.4c0-.3-.03-.55-.1-.75s-.17-.35-.32-.45-.33-.15-.56-.15c-.21 0-.39.04-.54.13-.15.08-.28.22-.37.4l-.55-.21c.1-.18.21-.33.35-.47s.3-.23.49-.3.4-.1.63-.1c.36 0 .66.07.89.21s.41.35.53.62.17.62.17 1.02v2.09h-.58Zm-.34-4.36c-.15 0-.27-.03-.36-.08s-.17-.12-.23-.19-.11-.14-.17-.19a.22.22 0 0 0-.18-.08c-.08 0-.14.02-.19.07a.45.45 0 0 0-.1.23h-.5q.03-.21.12-.39c.06-.12.15-.22.27-.29s.25-.11.4-.11.26.03.35.08c.09.06.16.12.22.19s.12.14.17.19c.05.06.12.08.2.08.09 0 .15-.03.19-.08s.07-.12.08-.21h.49c-.03.21-.1.39-.23.55q-.195.24-.54.24Z" fill="#fffdf0"/>
        <path d="M168.53 38.62c-.38 0-.71-.09-1-.26s-.52-.41-.68-.71c-.17-.3-.25-.65-.25-1.05s.08-.75.24-1.05.39-.54.68-.71.62-.26 1-.26.71.09 1 .26.52.41.68.71q.24.45.24 1.05c0 .6-.08.74-.24 1.05-.16.3-.39.54-.67.71-.29.17-.62.26-.99.26Zm0-.57c.25 0 .47-.06.67-.18q.285-.18.45-.51c.11-.22.17-.47.17-.75s-.05-.53-.17-.75a1.2 1.2 0 0 0-.46-.51c-.2-.12-.42-.18-.68-.18s-.47.06-.67.18c-.19.12-.34.29-.46.51s-.17.47-.17.75.05.53.17.75c.11.22.26.39.46.51s.42.18.67.18Z" fill="#fffdf0"/>
        <path d="M174.71 38.62c-.34 0-.65-.08-.91-.25s-.47-.41-.61-.71-.22-.66-.22-1.05.07-.75.22-1.06c.15-.3.35-.54.61-.71s.56-.25.91-.25c.32 0 .61.08.85.25s.43.41.57.71c.13.3.2.66.2 1.06s-.07.75-.2 1.05-.32.54-.57.71c-.24.17-.53.25-.85.25m.14-.56q.345 0 .6-.18c.17-.12.31-.3.41-.52q.15-.33.15-.75c0-.42-.05-.53-.15-.75s-.24-.39-.41-.52c-.17-.12-.38-.19-.61-.19s-.46.06-.64.19c-.19.12-.33.29-.44.52-.11.22-.16.47-.16.75s.05.53.16.75.26.39.45.52c.19.12.41.18.65.18Zm1.19.47-.03-.72v-4.67h.62v5.39z" fill="#fffdf0"/>
        <path d="M179.41 38.62c-.38 0-.71-.09-1-.26s-.52-.41-.68-.71c-.17-.3-.25-.65-.25-1.05s.08-.75.24-1.05.39-.54.68-.71.62-.26 1-.26.71.09 1 .26.52.41.68.71q.24.45.24 1.05c0 .6-.08.74-.24 1.05-.16.3-.39.54-.67.71-.29.17-.62.26-.99.26Zm-.01-.57c.25 0 .47-.06.67-.18q.285-.18.45-.51c.11-.22.17-.47.17-.75s-.05-.53-.17-.75a1.2 1.2 0 0 0-.46-.51c-.2-.12-.42-.18-.68-.18s-.47.06-.67.18c-.19.12-.34.29-.46.51s-.17.47-.17.75.05.53.17.75c.11.22.26.39.46.51s.42.18.67.18Z" fill="#fffdf0"/>
        <path d="M65.2 47.32c-.28 0-.53-.04-.74-.13-.21-.08-.39-.2-.53-.33q-.21-.21-.3-.45l.54-.22c.09.17.22.32.39.42.17.11.37.16.58.16.24 0 .44-.05.61-.14a.45.45 0 0 0 .25-.4c0-.16-.06-.29-.18-.38q-.18-.15-.54-.24l-.37-.1c-.35-.09-.62-.23-.82-.42-.19-.19-.29-.4-.29-.64 0-.36.12-.65.36-.85s.59-.3 1.07-.3c.23 0 .43.03.62.1.18.07.34.16.48.28.13.12.23.26.29.43l-.54.24a.73.73 0 0 0-.33-.38 1.2 1.2 0 0 0-.56-.12c-.24 0-.42.05-.55.15s-.2.24-.2.42c0 .1.06.2.17.29s.27.16.49.22l.38.1q.375.09.63.27c.17.12.3.26.39.41s.13.32.13.49c0 .23-.06.43-.19.6-.12.17-.29.3-.5.39s-.45.13-.72.13Z" fill="#fffdf0"/>
        <path d="M67.79 42.49q-.15 0-.27-.12t-.12-.27c0-.15.04-.2.12-.27.08-.08.17-.11.27-.11s.2.04.27.11.11.17.11.27-.04.19-.11.27q-.12.12-.27.12m-.32 4.74v-3.85h.62v3.85z" fill="#fffdf0"/>
        <path d="M70.57 47.32c-.28 0-.53-.04-.74-.13-.21-.08-.39-.2-.53-.33q-.21-.21-.3-.45l.54-.22c.09.17.22.32.39.42.17.11.37.16.58.16.24 0 .44-.05.61-.14a.45.45 0 0 0 .25-.4c0-.16-.06-.29-.18-.38q-.18-.15-.54-.24l-.37-.1c-.35-.09-.62-.23-.82-.42-.19-.19-.29-.4-.29-.64 0-.36.12-.65.36-.85s.59-.3 1.07-.3c.23 0 .43.03.62.1.18.07.34.16.48.28.13.12.23.26.29.43l-.54.24a.73.73 0 0 0-.33-.38 1.2 1.2 0 0 0-.56-.12c-.24 0-.42.05-.55.15s-.2.24-.2.42c0 .1.06.2.17.29s.27.16.49.22l.38.1q.375.09.63.27c.17.12.3.26.39.41s.13.32.13.49c0 .23-.06.43-.19.6-.12.17-.29.3-.5.39s-.45.13-.72.13Z" fill="#fffdf0"/>
        <path d="M72.41 43.93v-.55h2.44v.55zm1.85 3.39c-.37 0-.67-.1-.87-.29s-.31-.47-.31-.82v-4.03h.62v3.97c0 .2.05.35.16.45s.25.16.44.16c.06 0 .12 0 .18-.03.06-.02.14-.06.23-.13l.24.5a1.2 1.2 0 0 1-.69.23Z" fill="#fffdf0"/>
        <path d="M77.38 47.32c-.38 0-.71-.09-.99-.26-.29-.17-.51-.41-.67-.71q-.24-.45-.24-1.05c0-.6.08-.75.24-1.05s.38-.54.67-.71c.28-.17.61-.26.98-.26s.67.09.93.27.46.42.61.74.22.69.22 1.12h-3.18l.15-.13c0 .31.05.57.17.79s.27.39.47.5c.2.12.43.17.69.17.27 0 .5-.06.69-.19s.33-.3.43-.51l.53.27c-.1.2-.23.38-.39.52-.16.15-.35.26-.57.35-.22.08-.46.12-.73.12Zm-1.24-2.29-.16-.12h2.66l-.16.13c0-.25-.05-.46-.15-.64q-.15-.27-.39-.42c-.17-.1-.35-.15-.57-.15s-.41.05-.6.15-.34.24-.45.41c-.12.18-.17.39-.17.64Z" fill="#fffdf0"/>
        <path d="M79.9 47.23v-3.85h.58l.03.54c.12-.21.27-.36.45-.47s.4-.16.65-.16c.31 0 .57.07.79.22.22.14.38.36.47.65.11-.28.27-.5.47-.65.21-.15.46-.22.74-.22.43 0 .77.14 1.02.43s.37.72.37 1.31v2.2h-.62v-1.97q0-.57-.12-.87c-.08-.2-.19-.34-.32-.41a1 1 0 0 0-.46-.11c-.3 0-.54.12-.71.36s-.25.58-.25 1.01v1.99h-.62v-1.97q0-.57-.12-.87c-.08-.2-.19-.34-.32-.41-.14-.07-.29-.11-.47-.11-.3 0-.53.12-.7.36s-.25.58-.25 1.01v1.99h-.62Z" fill="#fffdf0"/>
        <path d="M87.67 47.32c-.45 0-.8-.1-1.06-.31-.25-.21-.38-.5-.38-.87q0-.585.39-.9c.26-.21.62-.31 1.09-.31h1.1v.52h-.96c-.36 0-.61.06-.77.18a.62.62 0 0 0-.23.51c0 .2.07.36.22.47.15.12.36.17.62.17.22 0 .41-.05.58-.14.16-.1.29-.23.38-.41s.13-.39.13-.63h.26c0 .52-.12.94-.35 1.25s-.58.47-1.03.47Zm1.15-.09-.03-.63v-1.4c0-.3-.03-.55-.1-.75s-.17-.35-.32-.45-.33-.15-.56-.15c-.21 0-.39.04-.54.13-.15.08-.28.22-.37.4l-.55-.21c.1-.18.21-.33.35-.47s.3-.23.49-.3.4-.1.63-.1c.36 0 .66.07.89.21s.41.35.53.62.17.62.17 1.02v2.09h-.58Z" fill="#fffdf0"/>
        <path d="M92.64 42.49q-.15 0-.27-.12t-.12-.27c0-.15.04-.2.12-.27.08-.08.17-.11.27-.11s.2.04.27.11.11.17.11.27-.04.19-.11.27q-.12.12-.27.12m-.32 4.74v-3.85h.62v3.85z" fill="#fffdf0"/>
        <path d="M94.07 47.23v-3.85h.58l.03.54c.12-.21.27-.36.45-.47s.4-.16.65-.16c.31 0 .57.07.79.22.22.14.38.36.47.65.11-.28.27-.5.47-.65.21-.15.46-.22.74-.22.43 0 .77.14 1.02.43s.37.72.37 1.31v2.2h-.62v-1.97q0-.57-.12-.87c-.08-.2-.19-.34-.32-.41a1 1 0 0 0-.46-.11c-.3 0-.54.12-.71.36s-.25.58-.25 1.01v1.99h-.62v-1.97q0-.57-.12-.87c-.08-.2-.19-.34-.32-.41-.14-.07-.29-.11-.47-.11-.3 0-.53.12-.7.36s-.25.58-.25 1.01v1.99h-.62Z" fill="#fffdf0"/>
        <path d="M100.52 45.35v-1.97h.62v1.97zm.62 0c0 .38.04.67.13.87s.21.34.37.41.33.11.53.11q.495 0 .78-.36c.19-.24.28-.58.28-1.01h.3c0 .41-.06.75-.18 1.05-.12.29-.29.52-.51.67s-.5.23-.82.23c-.3 0-.56-.06-.79-.18s-.4-.31-.52-.58-.19-.61-.19-1.03v-.18zm2.12 1.88-.04-.71v-3.14h.62v3.85z" fill="#fffdf0"/>
        <path d="M104.92 47.23v-3.85h.58l.04.71v3.14zm2.7-1.97c0-.38-.04-.67-.13-.87s-.21-.34-.36-.41a1.2 1.2 0 0 0-.52-.11c-.34 0-.6.12-.79.36s-.28.58-.28 1.01h-.3c0-.41.06-.75.18-1.05.12-.29.29-.52.52-.67s.5-.23.82-.23.57.06.79.18.4.31.52.57c.13.26.19.61.18 1.03v.18h-.62Zm0 1.97v-1.97h.62v1.97z" fill="#fffdf0"/>
        <path d="M110.92 47.32c-.38 0-.71-.09-1-.26s-.52-.41-.68-.71c-.17-.3-.25-.65-.25-1.05s.08-.75.24-1.05.39-.54.68-.71.62-.26 1-.26.71.09 1 .26.52.41.68.71q.24.45.24 1.05c0 .6-.08.74-.24 1.05-.16.3-.39.54-.67.71-.29.17-.62.26-.99.26Zm0-.57c.25 0 .47-.06.67-.18q.285-.18.45-.51c.11-.22.17-.47.17-.75s-.05-.53-.17-.75a1.2 1.2 0 0 0-.46-.51c-.2-.12-.42-.18-.68-.18s-.47.06-.67.18c-.19.12-.34.29-.46.51s-.17.47-.17.75.05.53.17.75c.11.22.26.39.46.51s.42.18.67.18Z" fill="#fffdf0"/>
        <path d="M113.68 47.23v-5.39h.62v5.39z" fill="#fffdf0"/>
        <path d="M117.08 47.32c-.38 0-.71-.09-1-.26s-.52-.41-.68-.71c-.17-.3-.25-.65-.25-1.05s.08-.75.24-1.05.39-.54.68-.71.62-.26 1-.26.71.09 1 .26.52.41.68.71q.24.45.24 1.05c0 .6-.08.74-.24 1.05-.16.3-.39.54-.67.71-.29.17-.62.26-.99.26Zm0-.57c.25 0 .47-.06.67-.18q.285-.18.45-.51c.11-.22.17-.47.17-.75s-.05-.53-.17-.75a1.2 1.2 0 0 0-.46-.51c-.2-.12-.42-.18-.68-.18s-.47.06-.67.18c-.19.12-.34.29-.46.51s-.17.47-.17.75.05.53.17.75c.11.22.26.39.46.51s.42.18.67.18Zm-.54-3.92.9-.99h.79l-.99.99z" fill="#fffdf0"/>
        <path d="M121.36 47.2a1.64 1.64 0 0 1-1.52-.94c-.15-.29-.22-.63-.22-1.01s.07-.73.22-1.03.35-.53.61-.69.56-.25.91-.25c.32 0 .61.08.85.25q.36.24.57.69c.21.45.2.64.2 1.03s-.07.72-.2 1.02c-.14.29-.32.52-.57.69-.24.16-.52.25-.85.25Zm.02 1.66c-.25 0-.47-.02-.67-.07s-.38-.1-.52-.16q-.21-.09-.3-.15l.23-.5c.07.04.16.08.29.13.12.05.27.1.43.14.17.04.34.06.54.06.25 0 .47-.05.67-.15s.35-.26.46-.47.17-.49.17-.82v-3.49h.62v3.48c0 .44-.08.81-.25 1.11-.16.3-.39.52-.68.67s-.61.22-.98.22Zm.12-2.19q.345 0 .6-.18c.255-.18.31-.29.41-.5s.15-.46.15-.74-.05-.51-.15-.73c-.1-.21-.24-.38-.41-.5q-.255-.18-.6-.18c-.345 0-.46.06-.64.18-.19.12-.33.29-.44.5-.1.21-.16.46-.16.73s.05.53.16.74.26.38.44.5c.19.12.4.18.64.18" fill="#fffdf0"/>
        <path d="M124.71 42.49q-.15 0-.27-.12t-.12-.27c0-.15.04-.2.12-.27.08-.08.17-.11.27-.11s.2.04.27.11.11.17.11.27-.04.19-.11.27q-.12.12-.27.12m-.31 4.74v-3.85h.62v3.85z" fill="#fffdf0"/>
        <path d="M127.86 47.32c-.38 0-.72-.09-1.01-.26s-.52-.41-.68-.71c-.17-.3-.25-.65-.25-1.05s.08-.75.24-1.05.39-.54.68-.71.63-.26 1-.26.7.08.99.25.52.41.67.72l-.56.25q-.15-.315-.45-.48c-.2-.12-.42-.17-.67-.17s-.47.06-.67.18c-.19.12-.34.29-.46.51-.11.22-.17.47-.17.75s.05.53.17.75c.11.22.26.39.46.51s.42.18.67.18.48-.06.67-.19q.3-.195.45-.54l.56.25c-.15.33-.38.58-.67.77-.29.18-.63.28-1 .28Z" fill="#fffdf0"/>
        <path d="M132.02 47.32c-.38 0-.71-.09-1-.26s-.52-.41-.68-.71c-.17-.3-.25-.65-.25-1.05s.08-.75.24-1.05.39-.54.68-.71.62-.26 1-.26.71.09 1 .26.52.41.68.71q.24.45.24 1.05c0 .6-.08.74-.24 1.05-.16.3-.39.54-.67.71-.29.17-.62.26-.99.26Zm-.01-.57c.25 0 .47-.06.67-.18q.285-.18.45-.51c.11-.22.17-.47.17-.75s-.05-.53-.17-.75a1.2 1.2 0 0 0-.46-.51c-.2-.12-.42-.18-.68-.18s-.47.06-.67.18c-.19.12-.34.29-.46.51s-.17.47-.17.75.05.53.17.75c.11.22.26.39.46.51s.42.18.67.18Z" fill="#fffdf0"/>
        <path d="M138.2 47.32c-.34 0-.65-.08-.91-.25s-.47-.41-.61-.71-.22-.66-.22-1.05.07-.75.22-1.06c.15-.3.35-.54.61-.71s.56-.25.91-.25c.32 0 .61.08.85.25s.43.41.57.71c.13.3.2.66.2 1.06s-.07.75-.2 1.05-.32.54-.57.71c-.24.17-.53.25-.85.25m.13-.56q.345 0 .6-.18c.17-.12.31-.3.41-.52q.15-.33.15-.75c0-.42-.05-.53-.15-.75s-.24-.39-.41-.52c-.17-.12-.38-.19-.61-.19s-.46.06-.64.19c-.19.12-.33.29-.44.52-.11.22-.16.47-.16.75s.05.53.16.75.26.39.45.52c.19.12.41.18.65.18Zm1.2.47-.03-.72v-4.67h.62v5.39z" fill="#fffdf0"/>
        <path d="M142.9 47.32c-.38 0-.71-.09-1-.26s-.52-.41-.68-.71c-.17-.3-.25-.65-.25-1.05s.08-.75.24-1.05.39-.54.68-.71.62-.26 1-.26.71.09 1 .26.52.41.68.71q.24.45.24 1.05c0 .6-.08.74-.24 1.05-.16.3-.39.54-.67.71-.29.17-.62.26-.99.26Zm-.01-.57c.25 0 .47-.06.67-.18q.285-.18.45-.51c.11-.22.17-.47.17-.75s-.05-.53-.17-.75a1.2 1.2 0 0 0-.46-.51c-.2-.12-.42-.18-.68-.18s-.47.06-.67.18c-.19.12-.34.29-.46.51s-.17.47-.17.75.05.53.17.75c.11.22.26.39.46.51s.42.18.67.18Z" fill="#fffdf0"/>
        <path d="M148.91 47.32c-.28 0-.53-.04-.74-.13-.21-.08-.39-.2-.53-.33q-.21-.21-.3-.45l.54-.22c.09.17.22.32.39.42.17.11.37.16.58.16.24 0 .44-.05.61-.14a.45.45 0 0 0 .25-.4c0-.16-.06-.29-.18-.38q-.18-.15-.54-.24l-.37-.1c-.35-.09-.62-.23-.82-.42-.19-.19-.29-.4-.29-.64 0-.36.12-.65.36-.85s.59-.3 1.07-.3c.23 0 .43.03.62.1.18.07.34.16.48.28.13.12.23.26.29.43l-.54.24a.73.73 0 0 0-.33-.38 1.2 1.2 0 0 0-.56-.12c-.24 0-.42.05-.55.15s-.2.24-.2.42c0 .1.06.2.17.29s.27.16.49.22l.38.1q.375.09.63.27c.17.12.3.26.39.41s.13.32.13.49c0 .23-.06.43-.19.6-.12.17-.29.3-.5.39s-.45.13-.72.13Z" fill="#fffdf0"/>
        <path d="M152.83 47.32c-.38 0-.71-.09-.99-.26-.29-.17-.51-.41-.67-.71q-.24-.45-.24-1.05c0-.6.08-.75.24-1.05s.38-.54.67-.71c.28-.17.61-.26.98-.26s.67.09.93.27.46.42.61.74.22.69.22 1.12h-3.18l.15-.13c0 .31.05.57.17.79s.27.39.47.5c.2.12.43.17.69.17.27 0 .5-.06.69-.19s.33-.3.43-.51l.53.27c-.1.2-.23.38-.39.52-.16.15-.35.26-.57.35-.22.08-.46.12-.73.12Zm-1.25-2.29-.16-.12h2.66l-.16.13c0-.25-.05-.46-.15-.64q-.15-.27-.39-.42c-.17-.1-.35-.15-.57-.15s-.41.05-.6.15-.34.24-.45.41c-.12.18-.17.39-.17.64Z" fill="#fffdf0"/>
        <path d="M155.25 45.35v-1.97h.62v1.97zm.62 0c0 .38.04.67.13.87s.21.34.37.41.33.11.53.11q.495 0 .78-.36c.19-.24.28-.58.28-1.01h.3c0 .41-.06.75-.18 1.05-.12.29-.29.52-.51.67s-.5.23-.82.23c-.3 0-.56-.06-.79-.18s-.4-.31-.52-.58-.19-.61-.19-1.03v-.18zm2.12 1.88-.04-.71v-3.14h.62v3.85z" fill="#fffdf0"/>
        <path d="M161.59 48.77v-5.39h.58l.04.71v4.68zm1.91-1.45c-.32 0-.61-.08-.85-.25s-.43-.41-.57-.71-.2-.66-.2-1.05.07-.75.2-1.06c.13-.3.32-.54.57-.71.24-.17.53-.25.85-.25.34 0 .65.08.91.25s.47.41.61.71c.15.3.22.66.22 1.06s-.07.75-.22 1.05-.35.54-.61.71-.56.25-.91.25m-.13-.56c.24 0 .46-.06.64-.18q.285-.18.45-.51c.11-.22.17-.47.17-.76s-.05-.53-.16-.75c-.1-.22-.25-.39-.44-.52-.19-.12-.4-.19-.65-.19-.23 0-.43.06-.6.19q-.27.18-.42.51c-.1.22-.15.47-.15.76s.05.53.15.75.24.39.41.52q.255.18.6.18" fill="#fffdf0"/>
        <path d="M167.79 47.32c-.38 0-.71-.09-.99-.26-.29-.17-.51-.41-.67-.71q-.24-.45-.24-1.05c0-.6.08-.75.24-1.05s.38-.54.67-.71c.28-.17.61-.26.98-.26s.67.09.93.27.46.42.61.74.22.69.22 1.12h-3.18l.15-.13c0 .31.05.57.17.79s.27.39.47.5c.2.12.43.17.69.17.27 0 .5-.06.69-.19s.33-.3.43-.51l.53.27c-.1.2-.23.38-.39.52-.16.15-.35.26-.57.35-.22.08-.46.12-.73.12Zm-1.25-2.29-.16-.12h2.66l-.16.13c0-.25-.05-.46-.15-.64q-.15-.27-.39-.42c-.17-.1-.35-.15-.57-.15s-.41.05-.6.15-.34.24-.45.41c-.12.18-.17.39-.17.64Z" fill="#fffdf0"/>
        <path d="M169.9 43.93v-.55h2.44v.55zm1.85 3.39c-.37 0-.67-.1-.87-.29s-.31-.47-.31-.82v-4.03h.62v3.97c0 .2.05.35.16.45s.25.16.44.16c.06 0 .12 0 .18-.03.06-.02.14-.06.23-.13l.24.5a1.2 1.2 0 0 1-.69.23Z" fill="#fffdf0"/>
        <path d="M173.48 47.34a.38.38 0 0 1-.3-.13c-.08-.08-.13-.18-.13-.3s.04-.22.13-.3c.08-.08.19-.13.3-.13s.22.04.3.13c.08.08.12.19.12.3s-.04.21-.12.3c-.08.08-.18.13-.3.13" fill="#fffdf0"/>
    </g>
</svg>
