<?xml version="1.0" encoding="UTF-8"?>
<svg data-bbox="-14.45 18.22 278.72 55.1" viewBox="0 0 250 100" xmlns="http://www.w3.org/2000/svg" data-type="ugc">
    <g>
        <path d="M52.49 30.61v-5.39h3.69v1.31h-2.26v.79h1.77v1.31h-1.77v1.99H52.5Z" fill="#fffcef"/>
        <path d="M59.46 30.71q-.84 0-1.5-.36c-.66-.36-.77-.57-1.02-.99s-.37-.9-.37-1.44.12-1.03.37-1.44c.25-.42.58-.75 1.02-.99.43-.24.93-.36 1.49-.36s1.06.12 1.49.36q.645.36 1.02.99c.25.42.37.9.37 1.44s-.12 1.02-.37 1.44c-.24.42-.58.75-1.01.99s-.93.36-1.49.36m0-1.31c.28 0 .52-.06.73-.19s.38-.3.49-.52c.12-.22.18-.47.18-.76s-.06-.54-.18-.77c-.12-.22-.29-.4-.5-.52-.21-.13-.46-.19-.74-.19s-.51.06-.73.19c-.21.12-.38.3-.5.52s-.18.48-.18.77.06.54.18.76.29.39.5.52.46.19.74.19Zm-.77-4.57.85-1.07H61l-1 1.07z" fill="#fffcef"/>
        <path d="M62.97 30.61v-5.39h2.23c.41 0 .76.08 1.08.23.31.16.56.37.74.65s.27.59.27.95-.09.68-.27.96-.42.5-.74.65q-.465.24-1.08.24h-.81v1.71zm1.43-3.01h.73c.13 0 .24-.02.34-.07s.17-.11.23-.19.08-.17.08-.28c0-.15-.06-.28-.18-.38a.72.72 0 0 0-.47-.15h-.73zm1.47 3.01-1.2-2.12 1.07-.8 1.76 2.92z" fill="#fffcef"/>
        <path d="M68.08 30.61v-5.39h1.58l1.3 1.92 1.3-1.92h1.58v5.39h-1.42v-3.19l-1.45 2.11-1.46-2.11v3.19h-1.42Z" fill="#fffcef"/>
        <path d="M76.98 30.71c-.48 0-.89-.09-1.23-.26s-.61-.42-.79-.75-.27-.71-.27-1.17v-3.3h1.42v3.3c0 .18.04.33.11.46s.17.23.3.29.29.1.47.1.34-.03.48-.1a.7.7 0 0 0 .3-.29c.07-.13.1-.28.1-.46v-3.3h1.42v3.3c0 .45-.09.84-.28 1.17-.18.33-.45.58-.8.75s-.76.26-1.25.26Z" fill="#fffcef"/>
        <path d="M80.15 30.61v-5.39h1.42v4.08h2.22v1.31z" fill="#fffcef"/>
        <path d="m84 30.61 2.06-5.39h1.42l-1.97 5.39zm.97-.86V28.5h3.73v1.25zm3.18.86-1.97-5.39h1.42l2.06 5.39z" fill="#fffcef"/>
        <path d="M91.95 30.61v-5.39h1.42v5.39z" fill="#fffcef"/>
        <path d="M94.3 30.61v-5.39h1.5l2.1 2.96v-2.96h1.42v5.39H97.9l-2.18-3.07v3.07z" fill="#fffcef"/>
        <path d="M100.25 30.61v-5.39h1.8c.59 0 1.11.12 1.57.35.45.23.81.55 1.07.95s.38.87.38 1.4-.13.99-.38 1.39c-.26.41-.61.72-1.07.96-.46.23-.98.35-1.57.35h-1.8Zm1.42-1.34h.38c.23 0 .43-.03.62-.1s.35-.16.49-.28.25-.26.32-.42c.08-.16.12-.35.12-.55s-.04-.38-.12-.55c-.08-.16-.19-.3-.32-.42-.14-.12-.3-.21-.49-.28s-.4-.1-.62-.1h-.38z" fill="#fffcef"/>
        <path d="M108.34 30.71q-.84 0-1.5-.36c-.66-.36-.77-.57-1.02-.99s-.37-.9-.37-1.44.12-1.03.37-1.44c.25-.42.58-.75 1.02-.99.43-.24.93-.36 1.49-.36s1.06.12 1.49.36q.645.36 1.02.99c.25.42.37.9.37 1.44s-.12 1.02-.37 1.44c-.24.42-.58.75-1.01.99s-.93.36-1.49.36m0-1.31c.28 0 .52-.06.73-.19s.38-.3.49-.52c.12-.22.18-.47.18-.76s-.06-.54-.18-.77c-.12-.22-.29-.4-.5-.52-.21-.13-.46-.19-.74-.19s-.51.06-.73.19c-.21.12-.38.3-.5.52s-.18.48-.18.77.06.54.18.76.29.39.5.52.46.19.74.19Z" fill="#fffcef"/>
        <path d="M114.48 30.71q-.84 0-1.5-.36c-.66-.36-.77-.57-1.02-.99s-.37-.9-.37-1.44.12-1.03.37-1.44c.25-.42.58-.75 1.02-.99.43-.24.93-.36 1.49-.36s1.06.12 1.49.36q.645.36 1.02.99c.25.42.37.9.37 1.44s-.12 1.02-.37 1.44c-.24.42-.58.75-1.01.99s-.93.36-1.49.36m0-1.31c.28 0 .52-.06.73-.19s.38-.3.49-.52c.12-.22.18-.47.18-.76s-.06-.54-.18-.77c-.12-.22-.29-.4-.5-.52-.21-.13-.46-.19-.74-.19s-.51.06-.73.19c-.21.12-.38.3-.5.52s-.18.48-.18.77.06.54.18.76.29.39.5.52.46.19.74.19Z" fill="#fffcef"/>
        <path d="M118 30.61v-5.39h2.23c.41 0 .76.08 1.08.23.31.16.56.37.74.65s.27.59.27.95-.09.68-.27.96-.42.5-.74.65q-.465.24-1.08.24h-.81v1.71zm1.42-3.01h.73c.13 0 .24-.02.34-.07s.17-.11.23-.19.08-.17.08-.28c0-.15-.06-.28-.18-.38a.72.72 0 0 0-.47-.15h-.73zm1.47 3.01-1.2-2.12 1.07-.8 1.76 2.92z" fill="#fffcef"/>
        <path d="M52.75 39.31v-5.39h1.76q.525 0 .93.21t.63.6c.15.26.23.55.23.89s-.07.62-.21.88-.33.46-.57.6-.52.22-.84.22h-1.27v1.98h-.65Zm.65-2.57h1.27c.28 0 .51-.1.7-.31s.27-.47.27-.8-.11-.6-.32-.81-.49-.31-.82-.31h-1.09v2.22Z" fill="#fffcef"/>
        <path d="M58.48 39.41c-.38 0-.71-.09-.99-.26-.29-.17-.51-.41-.67-.71q-.24-.45-.24-1.05c0-.6.08-.74.24-1.05.16-.3.38-.54.67-.71.28-.17.61-.26.98-.26s.67.09.93.27.46.42.61.74.22.69.22 1.12h-3.18l.15-.13c0 .31.05.57.17.79s.27.39.47.5c.2.12.43.17.69.17.27 0 .5-.06.69-.19s.33-.3.43-.51l.53.27c-.1.2-.23.38-.39.52-.16.15-.35.26-.57.35-.22.08-.46.12-.73.12Zm-1.24-2.3-.16-.12h2.66l-.16.13c0-.25-.05-.46-.15-.64q-.15-.27-.39-.42c-.17-.1-.35-.15-.57-.15s-.41.05-.6.15-.34.23-.45.41c-.12.18-.17.39-.17.64Z" fill="#fffcef"/>
        <path d="M60.85 39.31v-3.85h.58l.04.71v3.14zm2.7-1.97c0-.38-.04-.67-.13-.87s-.21-.34-.36-.41-.33-.11-.52-.11c-.34 0-.6.12-.79.36s-.28.58-.28 1.01h-.3c0-.41.06-.75.18-1.05.12-.29.29-.52.52-.67s.5-.23.82-.23.57.06.79.18.4.31.52.57.19.61.18 1.03v.18h-.62Zm0 1.97v-1.97h.62v1.97z" fill="#fffcef"/>
        <path d="M66.34 39.41c-.28 0-.53-.04-.74-.13-.21-.08-.39-.2-.53-.33a1.2 1.2 0 0 1-.3-.46l.54-.22c.09.17.22.32.39.42.17.11.37.16.58.16.24 0 .44-.05.61-.14a.45.45 0 0 0 .25-.4c0-.16-.06-.29-.18-.38q-.18-.15-.54-.24l-.37-.1c-.35-.09-.62-.23-.82-.42-.19-.19-.29-.4-.29-.63 0-.36.12-.65.36-.85s.59-.3 1.07-.3c.23 0 .43.03.62.1.18.07.34.16.48.28.13.12.23.26.29.43l-.54.24a.73.73 0 0 0-.33-.38 1.2 1.2 0 0 0-.56-.12c-.24 0-.42.05-.55.15s-.2.24-.2.42c0 .1.06.2.17.29s.27.16.49.22l.38.1q.375.09.63.27c.17.12.3.26.39.41s.13.32.13.49c0 .23-.06.43-.19.6-.12.17-.29.3-.5.39s-.45.13-.72.13Z" fill="#fffcef"/>
        <path d="M69.64 39.41c-.45 0-.8-.1-1.06-.31-.25-.21-.38-.5-.38-.87q0-.585.39-.9c.26-.21.62-.31 1.09-.31h1.1v.52h-.96c-.36 0-.61.06-.77.18a.62.62 0 0 0-.23.51c0 .2.07.36.22.47.15.12.36.17.62.17.22 0 .41-.05.58-.14.16-.09.29-.23.38-.41s.13-.39.13-.63h.26c0 .52-.12.94-.35 1.25s-.58.47-1.03.47Zm1.16-.1-.03-.63v-1.4c0-.3-.03-.55-.1-.75s-.17-.35-.32-.45c-.14-.1-.33-.15-.56-.15-.21 0-.39.04-.54.13s-.28.22-.37.4l-.55-.22c.1-.18.21-.33.35-.47s.3-.23.49-.3.4-.1.63-.1c.36 0 .66.07.89.21s.41.35.53.62c.12.28.17.62.17 1.02v2.09h-.58Z" fill="#fffcef"/>
        <path d="M73.72 39.41c-.34 0-.65-.08-.91-.25s-.47-.41-.61-.71-.22-.66-.22-1.05.07-.75.22-1.05.35-.54.61-.71.56-.25.91-.25c.32 0 .61.08.85.25s.43.41.57.71c.13.3.2.65.2 1.05s-.07.75-.2 1.05-.32.54-.57.71c-.24.17-.53.25-.85.25m.13-.56q.345 0 .6-.18c.255-.18.31-.29.41-.52q.15-.33.15-.75c0-.42-.05-.53-.15-.75s-.24-.39-.41-.52-.38-.18-.61-.18-.46.06-.64.18-.33.29-.44.52c-.11.22-.16.47-.16.75s.05.53.16.75.26.39.45.52c.19.12.41.18.65.18Zm1.2.46-.03-.72v-4.67h.62v5.39z" fill="#fffcef"/>
        <path d="M77.77 39.41c-.45 0-.8-.1-1.06-.31-.25-.21-.38-.5-.38-.87q0-.585.39-.9c.26-.21.62-.31 1.09-.31h1.1v.52h-.96c-.36 0-.61.06-.77.18a.62.62 0 0 0-.23.51c0 .2.07.36.22.47.15.12.36.17.62.17.22 0 .41-.05.58-.14.16-.09.29-.23.38-.41s.13-.39.13-.63h.26c0 .52-.12.94-.35 1.25s-.58.47-1.03.47Zm1.16-.1-.03-.63v-1.4c0-.3-.03-.55-.1-.75s-.17-.35-.32-.45c-.14-.1-.33-.15-.56-.15-.21 0-.39.04-.54.13s-.28.22-.37.4l-.55-.22c.1-.18.21-.33.35-.47s.3-.23.49-.3.4-.1.63-.1c.36 0 .66.07.89.21s.41.35.53.62c.12.28.17.62.17 1.02v2.09h-.58Z" fill="#fffcef"/>
        <path d="M83.76 39.41c-.38 0-.71-.09-.99-.26-.29-.17-.51-.41-.67-.71q-.24-.45-.24-1.05c0-.6.08-.74.24-1.05.16-.3.38-.54.67-.71.28-.17.61-.26.98-.26s.67.09.93.27.46.42.61.74.22.69.22 1.12h-3.18l.15-.13c0 .31.05.57.17.79s.27.39.47.5c.2.12.43.17.69.17.27 0 .5-.06.69-.19s.33-.3.43-.51l.53.27c-.1.2-.23.38-.39.52-.16.15-.35.26-.57.35-.22.08-.46.12-.73.12Zm-1.25-2.3-.16-.12h2.66l-.16.13c0-.25-.05-.46-.15-.64q-.15-.27-.39-.42c-.17-.1-.35-.15-.57-.15s-.41.05-.6.15-.34.23-.45.41c-.12.18-.17.39-.17.64Z" fill="#fffcef"/>
        <path d="M87.47 39.41c-.28 0-.53-.04-.74-.13-.21-.08-.39-.2-.53-.33a1.2 1.2 0 0 1-.3-.46l.54-.22c.09.17.22.32.39.42.17.11.37.16.58.16.24 0 .44-.05.61-.14a.45.45 0 0 0 .25-.4c0-.16-.06-.29-.18-.38q-.18-.15-.54-.24l-.37-.1c-.35-.09-.62-.23-.82-.42-.19-.19-.29-.4-.29-.63 0-.36.12-.65.36-.85s.59-.3 1.07-.3c.23 0 .43.03.62.1.18.07.34.16.48.28.13.12.23.26.29.43l-.54.24a.73.73 0 0 0-.33-.38 1.2 1.2 0 0 0-.56-.12c-.24 0-.42.05-.55.15s-.2.24-.2.42c0 .1.06.2.17.29s.27.16.49.22l.38.1q.375.09.63.27c.17.12.3.26.39.41s.13.32.13.49c0 .23-.06.43-.19.6-.12.17-.29.3-.5.39s-.45.13-.72.13Z" fill="#fffcef"/>
        <path d="M89.6 40.85v-5.39h.58l.04.71v4.68zm1.92-1.44c-.32 0-.61-.08-.85-.25s-.43-.41-.57-.71-.2-.66-.2-1.05.07-.75.2-1.05.32-.54.57-.71c.24-.17.53-.25.85-.25.34 0 .65.08.91.25s.47.41.61.71c.15.3.22.65.22 1.05s-.07.75-.22 1.05-.35.54-.61.71-.56.25-.91.25m-.14-.56c.24 0 .46-.06.64-.18s.34-.29.45-.51.17-.47.17-.76-.05-.53-.16-.75c-.1-.22-.25-.39-.44-.52s-.4-.18-.65-.18q-.345 0-.6.18-.27.18-.42.51c-.1.22-.15.47-.15.76s.05.53.15.75.24.39.41.52q.255.18.6.18" fill="#fffcef"/>
        <path d="M95.64 39.41c-.38 0-.71-.09-.99-.26-.29-.17-.51-.41-.67-.71q-.24-.45-.24-1.05c0-.6.08-.74.24-1.05.16-.3.38-.54.67-.71.28-.17.61-.26.98-.26s.67.09.93.27.46.42.61.74.22.69.22 1.12h-3.18l.15-.13c0 .31.05.57.17.79s.27.39.47.5c.2.12.43.17.69.17.27 0 .5-.06.69-.19s.33-.3.43-.51l.53.27c-.1.2-.23.38-.39.52-.16.15-.35.26-.57.35-.22.08-.46.12-.73.12Zm-1.24-2.3-.16-.12h2.66l-.16.13c0-.25-.05-.46-.15-.64q-.15-.27-.39-.42c-.17-.1-.35-.15-.57-.15s-.41.05-.6.15-.34.23-.45.41c-.12.18-.17.39-.17.64Z" fill="#fffcef"/>
        <path d="M99.72 39.41c-.38 0-.72-.09-1.01-.26s-.52-.41-.68-.71c-.17-.3-.25-.65-.25-1.05s.08-.74.24-1.05c.16-.3.39-.54.68-.71s.63-.26 1-.26.7.08.99.25.52.41.67.72l-.56.25q-.15-.315-.45-.48c-.2-.12-.42-.17-.67-.17s-.47.06-.67.19-.34.29-.46.51c-.11.22-.17.47-.17.75s.05.53.17.75c.11.22.26.39.46.51s.42.18.67.18.48-.06.67-.19q.3-.195.45-.54l.56.25c-.15.33-.38.59-.67.77s-.63.28-1 .28Z" fill="#fffcef"/>
        <path d="M102.37 34.57q-.15 0-.27-.12c-.12-.12-.12-.17-.12-.27q0-.165.12-.27c.12-.105.17-.11.27-.11s.2.04.27.11.11.17.11.27-.04.19-.11.27q-.12.12-.27.12m-.31 4.74v-3.85h.62v3.85z" fill="#fffcef"/>
        <path d="M104.87 39.41c-.45 0-.8-.1-1.06-.31-.25-.21-.38-.5-.38-.87q0-.585.39-.9c.26-.21.62-.31 1.09-.31h1.1v.52h-.96c-.36 0-.61.06-.77.18a.62.62 0 0 0-.23.51c0 .2.07.36.22.47.15.12.36.17.62.17.22 0 .41-.05.58-.14.16-.09.29-.23.38-.41s.13-.39.13-.63h.26c0 .52-.12.94-.35 1.25s-.58.47-1.03.47Zm1.15-.1-.03-.63v-1.4c0-.3-.03-.55-.1-.75s-.17-.35-.32-.45c-.14-.1-.33-.15-.56-.15-.21 0-.39.04-.54.13s-.28.22-.37.4l-.55-.22c.1-.18.21-.33.35-.47s.3-.23.49-.3.4-.1.63-.1c.36 0 .66.07.89.21s.41.35.53.62c.12.28.17.62.17 1.02v2.09h-.58Z" fill="#fffcef"/>
        <path d="M107.42 39.31v-5.39h.62v5.39z" fill="#fffcef"/>
        <path d="M108.96 39.31v-3.85h.58l.03.54c.12-.21.27-.36.45-.47s.4-.16.65-.16c.31 0 .57.07.79.22.22.14.38.36.47.65.11-.28.27-.5.47-.65.21-.15.46-.22.74-.22.43 0 .77.14 1.02.43s.37.72.37 1.31v2.2h-.62v-1.97q0-.57-.12-.87c-.08-.2-.19-.34-.32-.41a1 1 0 0 0-.46-.11c-.3 0-.54.12-.71.36s-.25.58-.25 1.01v1.99h-.62v-1.97q0-.57-.12-.87c-.08-.2-.19-.34-.32-.41-.14-.07-.29-.11-.47-.11-.3 0-.53.12-.7.36s-.25.58-.25 1.01v1.99h-.62Z" fill="#fffcef"/>
        <path d="M117.05 39.41c-.38 0-.71-.09-.99-.26-.29-.17-.51-.41-.67-.71q-.24-.45-.24-1.05c0-.6.08-.74.24-1.05.16-.3.38-.54.67-.71.28-.17.61-.26.98-.26s.67.09.93.27.46.42.61.74.22.69.22 1.12h-3.18l.15-.13c0 .31.05.57.17.79s.27.39.47.5c.2.12.43.17.69.17.27 0 .5-.06.69-.19s.33-.3.43-.51l.53.27c-.1.2-.23.38-.39.52-.16.15-.35.26-.57.35-.22.08-.46.12-.73.12Zm-1.25-2.3-.16-.12h2.66l-.16.13c0-.25-.05-.46-.15-.64q-.15-.27-.39-.42c-.17-.1-.35-.15-.57-.15s-.41.05-.6.15-.34.23-.45.41c-.12.18-.17.39-.17.64Z" fill="#fffcef"/>
        <path d="M119.41 39.31v-3.85h.58l.04.71v3.14zm2.71-1.97c0-.38-.04-.67-.13-.87s-.21-.34-.36-.41-.33-.11-.52-.11c-.34 0-.6.12-.79.36s-.28.58-.28 1.01h-.3c0-.41.06-.75.18-1.05.12-.29.29-.52.52-.67s.5-.23.82-.23.57.06.79.18.4.31.52.57.19.61.18 1.03v.18h-.62Zm0 1.97v-1.97h.62v1.97z" fill="#fffcef"/>
        <path d="M123.16 36.01v-.55h2.44v.55zm1.84 3.4c-.37 0-.67-.1-.87-.29s-.31-.47-.31-.82v-4.03h.62v3.96c0 .2.05.35.16.45s.25.16.44.16c.06 0 .12 0 .18-.03.06-.02.14-.06.23-.13l.24.5a1.2 1.2 0 0 1-.69.23" fill="#fffcef"/>
        <path d="M127.98 39.41c-.38 0-.71-.09-.99-.26-.29-.17-.51-.41-.67-.71s-.24-.65-.24-1.05.08-.74.24-1.05c.16-.3.38-.54.67-.71s.61-.26.98-.26.67.09.93.27.46.42.61.74c.14.32.22.69.22 1.12h-3.18l.15-.13c0 .31.05.57.17.79.11.22.27.39.46.5.2.12.43.17.69.17.27 0 .5-.06.69-.19s.33-.3.44-.51l.53.27c-.1.2-.23.38-.39.52-.16.15-.35.26-.57.35s-.46.12-.73.12Zm-1.25-2.3-.16-.12h2.66l-.16.13c0-.25-.05-.46-.14-.64q-.15-.27-.39-.42-.255-.15-.57-.15c-.315 0-.41.05-.6.15s-.34.23-.45.41c-.12.18-.17.39-.17.64Z" fill="#fffcef"/>
        <path d="M132.12 40.85v-5.39h.58l.04.71v4.68zm1.92-1.44c-.32 0-.61-.08-.85-.25s-.43-.41-.56-.71c-.13-.31-.2-.66-.2-1.05s.07-.75.2-1.05.32-.54.56-.71.53-.25.85-.25c.34 0 .65.08.91.25s.47.41.61.71c.15.3.22.65.22 1.05s-.07.75-.22 1.05-.35.54-.61.71-.56.25-.91.25m-.14-.56c.24 0 .46-.06.64-.18s.34-.29.45-.51.17-.47.17-.76-.05-.53-.16-.75-.25-.39-.44-.52-.4-.18-.65-.18q-.345 0-.6.18-.27.18-.42.51c-.1.22-.15.47-.15.76s.05.53.15.75.24.39.41.52q.255.18.6.18" fill="#fffcef"/>
        <path d="M137.7 39.41c-.45 0-.8-.1-1.06-.31s-.38-.5-.38-.87q0-.585.39-.9c.26-.21.62-.31 1.09-.31h1.1v.52h-.96c-.36 0-.61.06-.77.18s-.23.29-.23.51c0 .2.07.36.22.47.15.12.36.17.62.17.22 0 .41-.05.58-.14s.29-.23.38-.41.13-.39.13-.63h.26c0 .52-.12.94-.35 1.25s-.58.47-1.03.47Zm1.16-.1-.03-.63v-1.4c0-.3-.03-.55-.1-.75s-.17-.35-.32-.45c-.14-.1-.33-.15-.56-.15-.21 0-.39.04-.54.13-.15.08-.28.22-.38.4l-.55-.22c.1-.18.21-.33.35-.47s.3-.23.48-.3c.19-.07.4-.1.63-.1.36 0 .65.07.89.21.23.14.41.35.53.62.12.28.17.62.17 1.02v2.09h-.58Z" fill="#fffcef"/>
        <path d="M140.26 39.31v-3.85h.62v3.85zm.34-2.08c0-.42.08-.75.24-1.01s.36-.45.61-.58.51-.19.79-.19v.58c-.22 0-.44.04-.65.11s-.38.2-.51.37-.2.4-.2.69z" fill="#fffcef"/>
        <path d="M143.92 39.41c-.45 0-.8-.1-1.06-.31s-.38-.5-.38-.87q0-.585.39-.9c.39-.315.62-.31 1.09-.31h1.1v.52h-.96c-.36 0-.62.06-.77.18a.62.62 0 0 0-.23.51c0 .2.07.36.22.47.15.12.36.17.62.17.22 0 .41-.05.58-.14.16-.09.29-.23.38-.41s.13-.39.13-.63h.26c0 .52-.12.94-.36 1.25s-.58.47-1.03.47Zm1.16-.1-.03-.63v-1.4c0-.3-.03-.55-.1-.75a.9.9 0 0 0-.31-.45c-.14-.1-.33-.15-.56-.15-.21 0-.39.04-.54.13-.15.08-.28.22-.37.4l-.55-.22c.1-.18.21-.33.35-.47s.3-.23.49-.3c.18-.07.39-.1.63-.1.36 0 .66.07.89.21s.41.35.53.62c.12.28.18.62.17 1.02v2.09h-.58Z" fill="#fffcef"/>
        <path d="M149.74 39.28a1.64 1.64 0 0 1-1.52-.94c-.15-.29-.22-.63-.22-1.01s.07-.73.22-1.03.35-.52.61-.69c.26-.16.56-.25.91-.25.32 0 .61.08.85.25s.43.39.56.69c.14.29.21.64.21 1.03s-.07.72-.21 1.02c-.13.29-.32.52-.56.69-.24.16-.53.25-.85.25Zm.03 1.67c-.25 0-.47-.02-.67-.07s-.38-.1-.52-.16q-.21-.09-.3-.15l.23-.5c.07.04.16.08.29.13s.27.1.44.14.34.06.54.06c.25 0 .47-.05.67-.15s.35-.26.46-.47.17-.49.17-.82v-3.49h.62v3.48c0 .44-.08.81-.25 1.11s-.39.52-.68.67-.61.22-.98.22Zm.12-2.2c.22 0 .43-.06.6-.18.18-.12.31-.29.41-.5s.15-.46.15-.74-.05-.51-.15-.73c-.1-.21-.24-.38-.41-.5q-.255-.18-.6-.18c-.24 0-.46.06-.64.18-.19.12-.33.29-.44.5s-.16.46-.16.73.05.53.16.74.26.38.44.5c.19.12.4.18.64.18" fill="#fffcef"/>
        <path d="M153.81 39.41c-.45 0-.8-.1-1.06-.31s-.38-.5-.38-.87q0-.585.39-.9c.26-.21.62-.31 1.09-.31h1.1v.52h-.96c-.36 0-.61.06-.77.18s-.23.29-.23.51c0 .2.07.36.22.47.15.12.36.17.62.17.22 0 .41-.05.58-.14s.29-.23.38-.41.13-.39.13-.63h.26c0 .52-.12.94-.35 1.25s-.58.47-1.03.47Zm1.15-.1-.03-.63v-1.4c0-.3-.03-.55-.1-.75s-.17-.35-.32-.45c-.14-.1-.33-.15-.56-.15-.21 0-.39.04-.54.13-.15.08-.28.22-.38.4l-.55-.22c.1-.18.21-.33.35-.47s.3-.23.48-.3c.19-.07.4-.1.63-.1.36 0 .65.07.89.21.23.14.41.35.53.62.12.28.17.62.17 1.02v2.09h-.58Z" fill="#fffcef"/>
        <path d="M155.96 36.01v-.55h2.44v.55zm1.85 3.4c-.37 0-.66-.1-.87-.29s-.31-.47-.31-.82v-4.03h.62v3.96c0 .2.05.35.16.45s.25.16.44.16c.06 0 .12 0 .18-.03.06-.02.14-.06.23-.13l.24.5a1.2 1.2 0 0 1-.69.23" fill="#fffcef"/>
        <path d="M160.8 39.41c-.38 0-.71-.09-1-.26s-.52-.41-.68-.71-.25-.65-.25-1.05.08-.74.24-1.05c.16-.3.39-.54.68-.71s.62-.26 1-.26.71.09 1 .26.52.41.68.71q.24.45.24 1.05c0 .6-.08.74-.24 1.05s-.39.54-.67.71c-.29.17-.62.26-.99.26Zm0-.57c.25 0 .47-.06.67-.18q.285-.18.45-.51c.11-.22.17-.47.17-.75s-.05-.53-.17-.75a1.2 1.2 0 0 0-.46-.51c-.2-.12-.42-.19-.68-.19s-.47.06-.67.19c-.19.12-.35.29-.46.51s-.17.47-.17.75.05.53.17.75c.11.22.26.39.46.51s.42.18.67.18Z" fill="#fffcef"/>
        <path d="M164.76 39.41c-.28 0-.53-.04-.74-.13-.21-.08-.39-.2-.53-.33a1.2 1.2 0 0 1-.3-.46l.54-.22a1.08 1.08 0 0 0 .97.58c.24 0 .44-.05.61-.14a.45.45 0 0 0 .25-.4c0-.16-.06-.29-.18-.38s-.3-.18-.54-.24l-.37-.1c-.35-.09-.62-.23-.82-.42s-.29-.4-.29-.63c0-.36.12-.65.36-.85s.6-.3 1.07-.3c.23 0 .43.03.62.1.18.07.34.16.48.28.13.12.23.26.29.43l-.54.24a.73.73 0 0 0-.33-.38 1.2 1.2 0 0 0-.56-.12c-.24 0-.42.05-.55.15s-.2.24-.2.42c0 .1.06.2.17.29s.27.16.49.22l.38.1q.375.09.63.27c.17.12.3.26.38.41s.13.32.13.49c0 .23-.06.43-.19.6-.12.17-.29.3-.5.39s-.45.13-.72.13Z" fill="#fffcef"/>
        <path d="M170.11 39.41c-.34 0-.65-.08-.91-.25s-.46-.41-.61-.71-.22-.66-.22-1.05.07-.75.22-1.05.35-.54.61-.71.56-.25.91-.25c.32 0 .61.08.85.25s.43.41.57.71c.13.3.2.65.2 1.05s-.07.75-.2 1.05c-.13.31-.32.54-.57.71-.24.17-.53.25-.85.25m.13-.56q.345 0 .6-.18c.17-.12.31-.29.41-.52s.15-.47.15-.75-.05-.53-.15-.75-.24-.39-.41-.52c-.18-.12-.38-.18-.61-.18s-.46.06-.64.18-.33.29-.44.52c-.11.22-.16.47-.16.75s.05.53.16.75.26.39.45.52.41.18.65.18Zm1.17 2v-4.67l.03-.72h.59v5.39z" fill="#fffcef"/>
        <path d="M172.79 37.44v-1.97h.62v1.97zm.61 0c0 .38.04.67.13.87s.21.34.37.41.33.11.53.11q.495 0 .78-.36c.285-.36.28-.58.28-1.01h.3c0 .41-.06.75-.18 1.05-.12.29-.29.52-.51.67s-.5.23-.82.23c-.3 0-.56-.06-.79-.18s-.4-.31-.52-.58-.19-.61-.19-1.03v-.18zm2.13 1.87-.04-.71v-3.14h.62v3.85z" fill="#fffcef"/>
        <path d="M178.71 39.41c-.38 0-.71-.09-.99-.26-.29-.17-.51-.41-.67-.71q-.24-.45-.24-1.05c0-.6.08-.74.24-1.05.16-.3.38-.54.67-.71.28-.17.61-.26.98-.26s.67.09.93.27.46.42.61.74c.14.32.21.69.21 1.12h-3.18l.15-.13c0 .31.05.57.16.79s.27.39.47.5c.2.12.43.17.69.17.27 0 .5-.06.69-.19s.33-.3.43-.51l.53.27c-.1.2-.23.38-.39.52-.16.15-.35.26-.57.35-.22.08-.46.12-.73.12Zm-1.24-2.3-.16-.12h2.66l-.16.13c0-.25-.05-.46-.15-.64s-.23-.32-.39-.42-.35-.15-.57-.15-.41.05-.6.15-.34.23-.46.41-.17.39-.17.64" fill="#fffcef"/>
        <path d="m183.96 39.31-1.61-3.85h.64l1.57 3.85zm.04 0 1.57-3.85h.65l-1.61 3.85z" fill="#fffcef"/>
        <path d="M187.03 34.57q-.15 0-.27-.12a.37.37 0 0 1-.12-.27q0-.165.12-.27c.08-.07.17-.11.27-.11s.2.04.27.11.11.17.11.27-.04.19-.11.27q-.12.12-.27.12m-.32 4.74v-3.85h.62v3.85z" fill="#fffcef"/>
        <path d="m189.45 39.31-1.61-3.85h.64l1.57 3.85zm.04 0 1.57-3.85h.65l-1.61 3.85z" fill="#fffcef"/>
        <path d="M193.75 39.41c-.38 0-.71-.09-.99-.26-.29-.17-.51-.41-.67-.71s-.24-.65-.24-1.05.08-.74.24-1.05c.16-.3.38-.54.67-.71s.61-.26.98-.26.67.09.93.27.46.42.61.74c.14.32.22.69.22 1.12h-3.18l.15-.13c0 .31.05.57.17.79.11.22.27.39.46.5.2.12.43.17.69.17.27 0 .5-.06.69-.19s.33-.3.44-.51l.53.27c-.1.2-.23.38-.39.52-.16.15-.35.26-.57.35s-.46.12-.73.12Zm-1.25-2.3-.16-.12H195l-.16.13c0-.25-.05-.46-.14-.64q-.15-.27-.39-.42-.255-.15-.57-.15c-.315 0-.41.05-.6.15s-.34.23-.45.41c-.12.18-.17.39-.17.64Z" fill="#fffcef"/>
        <path d="M196.12 39.31v-3.85h.58l.03.54c.12-.21.27-.36.46-.47.18-.11.4-.16.65-.16.31 0 .57.07.79.22s.38.36.47.65c.11-.28.27-.5.47-.65.21-.15.46-.22.74-.22.43 0 .77.14 1.02.43s.37.72.37 1.31v2.2h-.62v-1.97q0-.57-.12-.87c-.08-.2-.19-.34-.32-.41s-.29-.11-.46-.11c-.3 0-.54.12-.71.36s-.25.58-.25 1.01v1.99h-.62v-1.97q0-.57-.12-.87c-.12-.3-.19-.34-.32-.41a1 1 0 0 0-.46-.11c-.3 0-.53.12-.7.36s-.25.58-.25 1.01v1.99h-.62Z" fill="#fffcef"/>
        <path d="M205.78 39.41c-.34 0-.65-.08-.91-.25s-.46-.41-.61-.71-.22-.66-.22-1.05.07-.75.22-1.05.35-.54.61-.71.56-.25.91-.25c.32 0 .61.08.85.25s.43.41.57.71c.13.3.2.65.2 1.05s-.07.75-.2 1.05c-.13.31-.32.54-.57.71-.24.17-.53.25-.85.25m.14-.56q.345 0 .6-.18c.17-.12.31-.29.41-.52s.15-.47.15-.75-.05-.53-.15-.75-.24-.39-.41-.52c-.18-.12-.38-.18-.61-.18s-.46.06-.64.18-.33.29-.44.52c-.11.22-.16.47-.16.75s.05.53.16.75.26.39.45.52.41.18.65.18Zm1.19.46-.03-.72v-4.67h.62v5.39z" fill="#fffcef"/>
        <path d="M210.3 39.41c-.38 0-.71-.09-.99-.26-.29-.17-.51-.41-.67-.71q-.24-.45-.24-1.05c0-.6.08-.74.24-1.05.16-.3.38-.54.67-.71.28-.17.61-.26.98-.26s.67.09.93.27.46.42.61.74c.14.32.21.69.21 1.12h-3.18l.15-.13c0 .31.05.57.16.79s.27.39.47.5c.2.12.43.17.69.17.27 0 .5-.06.69-.19s.33-.3.43-.51l.53.27c-.1.2-.23.38-.39.52-.16.15-.35.26-.57.35-.22.08-.46.12-.73.12Zm-1.24-2.3-.16-.12h2.66l-.16.13c0-.25-.05-.46-.15-.64s-.23-.32-.39-.42-.35-.15-.57-.15-.41.05-.6.15-.34.23-.46.41-.17.39-.17.64" fill="#fffcef"/>
        <path d="M212.67 39.31v-3.85h.58l.04.71v3.14zm2.7-1.97c0-.38-.04-.67-.13-.87s-.21-.34-.36-.41-.33-.11-.52-.11c-.34 0-.6.12-.79.36s-.28.58-.28 1.01h-.3c0-.41.06-.75.18-1.05.12-.29.29-.52.52-.67s.5-.23.82-.23.57.06.79.18.4.31.52.57c.13.26.19.61.18 1.03v.18h-.62Zm0 1.97v-1.97h.62v1.97z" fill="#fffcef"/>
        <path d="M216.41 36.01v-.55h2.44v.55zm1.85 3.4c-.38 0-.67-.1-.87-.29s-.31-.47-.31-.82v-4.03h.62v3.96c0 .2.05.35.16.45s.25.16.44.16c.06 0 .12 0 .18-.03.06-.02.14-.06.23-.13l.24.5a1.2 1.2 0 0 1-.69.23" fill="#fffcef"/>
        <path d="M219.57 39.31v-3.85h.62v3.85zm.34-2.08c0-.42.08-.75.24-1.01s.36-.45.61-.58.51-.19.79-.19v.58c-.23 0-.44.04-.65.11s-.38.2-.51.37-.2.4-.2.69z" fill="#fffcef"/>
        <path d="M223.73 39.41c-.38 0-.71-.09-1.01-.26-.29-.17-.52-.41-.68-.71-.17-.3-.25-.65-.25-1.05s.08-.74.24-1.05c.16-.3.39-.54.68-.71s.62-.26 1-.26.71.09 1 .26.52.41.68.71q.24.45.24 1.05c0 .6-.08.74-.24 1.05-.16.3-.39.54-.67.71-.29.17-.62.26-.99.26m-.01-.57c.25 0 .47-.06.67-.18s.34-.29.46-.51c.11-.22.16-.47.16-.75s-.05-.53-.16-.75-.26-.39-.46-.51-.42-.19-.68-.19-.47.06-.67.19c-.19.12-.34.29-.46.51-.11.22-.16.47-.16.75s.05.53.16.75.27.39.46.51.42.18.67.18Z" fill="#fffcef"/>
        <path d="M229.59 39.41c-.34 0-.65-.08-.91-.25s-.46-.41-.61-.71-.22-.66-.22-1.05.07-.75.22-1.05.35-.54.61-.71.56-.25.91-.25c.32 0 .61.08.85.25s.43.41.57.71c.13.3.2.65.2 1.05s-.07.75-.2 1.05c-.13.31-.32.54-.57.71-.24.17-.53.25-.85.25m.14-.56q.345 0 .6-.18c.17-.12.31-.29.41-.52s.15-.47.15-.75-.05-.53-.15-.75-.24-.39-.41-.52c-.18-.12-.38-.18-.61-.18s-.46.06-.64.18-.33.29-.44.52c-.11.22-.16.47-.16.75s.05.53.16.75.26.39.45.52.41.18.65.18Zm1.19.46-.03-.72v-4.67h.62v5.39z" fill="#fffcef"/>
        <path d="M234.12 39.41c-.38 0-.71-.09-.99-.26-.29-.17-.51-.41-.67-.71s-.24-.65-.24-1.05.08-.74.24-1.05c.16-.3.38-.54.67-.71s.61-.26.98-.26.67.09.93.27.46.42.61.74c.14.32.22.69.22 1.12h-3.18l.15-.13c0 .31.05.57.17.79.11.22.27.39.46.5.2.12.43.17.69.17.27 0 .5-.06.69-.19s.33-.3.44-.51l.53.27c-.1.2-.23.38-.39.52-.16.15-.35.26-.57.35s-.46.12-.73.12Zm-1.25-2.3-.16-.12h2.66l-.16.13c0-.25-.05-.46-.14-.64q-.15-.27-.39-.42-.255-.15-.57-.15c-.315 0-.41.05-.6.15s-.34.23-.45.41c-.12.18-.17.39-.17.64Z" fill="#fffcef"/>
        <path d="M239.95 39.41c-.38 0-.71-.09-1.01-.26-.29-.17-.52-.41-.69-.71s-.25-.65-.25-1.05.08-.74.24-1.05c.16-.3.39-.54.68-.71s.63-.26 1-.26.7.08.99.25.52.41.67.72l-.56.25q-.15-.315-.45-.48c-.2-.12-.42-.17-.67-.17s-.47.06-.67.19c-.19.12-.35.29-.46.51s-.17.47-.17.75.05.53.17.75c.11.22.26.39.46.51s.42.18.67.18.48-.06.67-.19q.3-.195.45-.54l.56.25c-.15.33-.38.59-.67.77s-.63.28-1 .28Z" fill="#fffcef"/>
        <path d="M243.46 39.41c-.45 0-.8-.1-1.06-.31s-.38-.5-.38-.87q0-.585.39-.9c.39-.315.62-.31 1.09-.31h1.1v.52h-.96c-.36 0-.62.06-.77.18a.62.62 0 0 0-.23.51c0 .2.07.36.22.47.15.12.36.17.62.17.22 0 .41-.05.58-.14.16-.09.29-.23.38-.41s.13-.39.13-.63h.26c0 .52-.12.94-.36 1.25s-.58.47-1.03.47Zm1.15-.1-.03-.63v-1.4c0-.3-.03-.55-.1-.75a.9.9 0 0 0-.31-.45c-.14-.1-.33-.15-.56-.15-.21 0-.39.04-.54.13-.15.08-.28.22-.37.4l-.55-.22c.1-.18.21-.33.35-.47s.3-.23.49-.3c.18-.07.39-.1.63-.1.36 0 .66.07.89.21s.41.35.53.62c.12.28.18.62.17 1.02v2.09h-.58Z" fill="#fffcef"/>
        <path d="M247.36 39.41c-.28 0-.53-.04-.74-.13-.21-.08-.39-.2-.53-.33a1.2 1.2 0 0 1-.3-.46l.54-.22c.09.17.22.32.39.42.17.11.37.16.58.16.24 0 .44-.05.61-.14s.25-.23.25-.4c0-.16-.06-.29-.18-.38q-.18-.15-.54-.24l-.37-.1c-.35-.09-.62-.23-.82-.42-.19-.19-.29-.4-.29-.63 0-.36.12-.65.36-.85s.59-.3 1.07-.3c.23 0 .43.03.62.1s.34.16.48.28c.13.12.23.26.29.43l-.54.24c-.07-.17-.18-.3-.33-.38s-.34-.12-.56-.12c-.24 0-.42.05-.55.15s-.2.24-.2.42c0 .1.05.2.17.29.11.09.27.16.49.22l.38.1q.375.09.63.27c.17.12.3.26.39.41s.13.32.13.49c0 .23-.06.43-.19.6-.12.17-.29.3-.5.39s-.45.13-.72.13Z" fill="#fffcef"/>
        <path d="M250.67 39.41c-.45 0-.8-.1-1.06-.31s-.38-.5-.38-.87q0-.585.39-.9c.39-.315.62-.31 1.09-.31h1.1v.52h-.96c-.36 0-.62.06-.77.18a.62.62 0 0 0-.23.51c0 .2.07.36.22.47.15.12.36.17.62.17.22 0 .41-.05.58-.14.16-.09.29-.23.38-.41s.13-.39.13-.63h.26c0 .52-.12.94-.36 1.25s-.58.47-1.03.47Zm1.15-.1-.03-.63v-1.4c0-.3-.03-.55-.1-.75a.9.9 0 0 0-.31-.45c-.14-.1-.33-.15-.56-.15-.21 0-.39.04-.54.13-.15.08-.28.22-.37.4l-.55-.22c.1-.18.21-.33.35-.47s.3-.23.49-.3c.18-.07.39-.1.63-.1.36 0 .66.07.89.21s.41.35.53.62c.12.28.18.62.17 1.02v2.09h-.58Z" fill="#fffcef"/>
        <path d="m252.99 40.2.44-1.62h.69l-.6 1.62z" fill="#fffcef"/>
        <path d="M52.57 48.02v-3.85h.58l.04.71v3.14zm2.7-1.98c0-.38-.04-.67-.13-.87s-.21-.34-.36-.41-.33-.11-.52-.11c-.34 0-.6.12-.79.36s-.28.58-.28 1.01h-.3c0-.41.06-.75.18-1.05.12-.29.29-.52.52-.67s.5-.23.82-.23.57.06.79.18.4.31.52.57.19.61.18 1.03v.18h-.62Zm0 1.98v-1.97h.62v1.97z" fill="#fffcef"/>
        <path d="M58.42 48.11c-.38 0-.71-.09-1-.26s-.52-.41-.68-.71c-.17-.3-.25-.65-.25-1.05s.08-.74.24-1.05c.16-.3.39-.54.68-.71s.62-.26 1-.26.71.09 1 .26.52.41.68.71q.24.45.24 1.05c0 .6-.08.74-.24 1.05-.16.3-.39.54-.67.71-.29.17-.62.26-.99.26Zm0-.57c.25 0 .47-.06.67-.18q.285-.18.45-.51c.11-.22.17-.47.17-.75s-.05-.53-.17-.75a1.2 1.2 0 0 0-.46-.51c-.2-.12-.42-.19-.68-.19s-.47.06-.67.19-.34.29-.46.51-.17.47-.17.75.05.53.17.75c.11.22.26.39.46.51s.42.18.67.18Z" fill="#fffcef"/>
        <path d="M62.37 48.11c-.28 0-.53-.04-.74-.13-.21-.08-.39-.2-.53-.33a1.2 1.2 0 0 1-.3-.46l.54-.22c.09.17.22.32.39.42.17.11.37.16.58.16.24 0 .44-.05.61-.14a.45.45 0 0 0 .25-.4c0-.16-.06-.29-.18-.38q-.18-.15-.54-.24l-.37-.1c-.35-.09-.62-.23-.82-.42-.19-.19-.29-.4-.29-.63 0-.36.12-.65.36-.85s.59-.3 1.07-.3c.23 0 .43.03.62.1.18.07.34.16.48.28.13.12.23.26.29.43l-.54.24a.73.73 0 0 0-.33-.38 1.2 1.2 0 0 0-.56-.12c-.24 0-.42.05-.55.15s-.2.24-.2.42c0 .1.06.2.17.29s.27.16.49.22l.38.1q.375.09.63.27c.17.12.3.26.39.41s.13.32.13.49c0 .23-.06.43-.19.6-.12.17-.29.3-.5.39s-.45.13-.72.13Z" fill="#fffcef"/>
        <path d="M65.81 48.11c-.28 0-.53-.04-.74-.13-.21-.08-.39-.2-.53-.33a1.2 1.2 0 0 1-.3-.46l.54-.22c.09.17.22.32.39.42.17.11.37.16.58.16.24 0 .44-.05.61-.14a.45.45 0 0 0 .25-.4c0-.16-.06-.29-.18-.38q-.18-.15-.54-.24l-.37-.1c-.35-.09-.62-.23-.82-.42-.19-.19-.29-.4-.29-.63 0-.36.12-.65.36-.85s.59-.3 1.07-.3c.23 0 .43.03.62.1.18.07.34.16.48.28.13.12.23.26.29.43l-.54.24a.73.73 0 0 0-.33-.38 1.2 1.2 0 0 0-.56-.12c-.24 0-.42.05-.55.15s-.2.24-.2.42c0 .1.06.2.17.29s.27.16.49.22l.38.1q.375.09.63.27c.17.12.3.26.39.41s.13.32.13.49c0 .23-.06.43-.19.6-.12.17-.29.3-.5.39s-.45.13-.72.13Z" fill="#fffcef"/>
        <path d="M69.6 48.11c-.38 0-.71-.09-1-.26s-.52-.41-.68-.71c-.17-.3-.25-.65-.25-1.05s.08-.74.24-1.05c.16-.3.39-.54.68-.71s.62-.26 1-.26.71.09 1 .26.52.41.68.71q.24.45.24 1.05c0 .6-.08.74-.24 1.05-.16.3-.39.54-.67.71-.29.17-.62.26-.99.26Zm0-.57c.25 0 .47-.06.67-.18q.285-.18.45-.51c.11-.22.17-.47.17-.75s-.05-.53-.17-.75a1.2 1.2 0 0 0-.46-.51c-.2-.12-.42-.19-.68-.19s-.47.06-.67.19-.34.29-.46.51-.17.47-.17.75.05.53.17.75c.11.22.26.39.46.51s.42.18.67.18Z" fill="#fffcef"/>
        <path d="M75.17 48.11c-.45 0-.8-.1-1.06-.31-.25-.21-.38-.5-.38-.87q0-.585.39-.9c.26-.21.62-.31 1.09-.31h1.1v.52h-.96c-.36 0-.61.06-.77.18a.62.62 0 0 0-.23.51c0 .2.07.36.22.47.15.12.36.17.62.17.22 0 .41-.05.58-.14.16-.09.29-.23.38-.41s.13-.39.13-.63h.26c0 .52-.12.94-.35 1.25s-.58.47-1.03.47Zm1.15-.09-.03-.63v-1.4c0-.3-.03-.55-.1-.75s-.17-.35-.32-.45c-.14-.1-.33-.15-.56-.15-.21 0-.39.04-.54.13s-.28.22-.37.4l-.55-.22c.1-.18.21-.33.35-.47s.3-.23.49-.3.4-.1.63-.1c.36 0 .66.07.89.21s.41.35.53.62c.12.28.17.62.17 1.02v2.09h-.58Z" fill="#fffcef"/>
        <path d="M77.73 48.02v-5.39h.62v5.39z" fill="#fffcef"/>
        <path d="M79.62 43.27q-.15 0-.27-.12c-.12-.12-.12-.17-.12-.27q0-.165.12-.27c.12-.105.17-.11.27-.11s.2.04.27.11.11.17.11.27-.04.19-.11.27q-.12.12-.27.12m-.32 4.75v-3.85h.62v3.85z" fill="#fffcef"/>
        <path d="M80.9 48.02v-3.85h.58l.03.54c.12-.21.27-.36.45-.47s.4-.16.65-.16c.31 0 .57.07.79.22.22.14.38.36.47.65.11-.28.27-.5.47-.65.21-.15.46-.22.74-.22.43 0 .77.14 1.02.43s.37.72.37 1.31v2.2h-.62v-1.97q0-.57-.12-.87c-.08-.2-.19-.34-.32-.41a1 1 0 0 0-.46-.11c-.3 0-.54.12-.71.36s-.25.58-.25 1.01v1.99h-.62v-1.97q0-.57-.12-.87c-.08-.2-.19-.34-.32-.41-.14-.07-.29-.11-.47-.11-.3 0-.53.12-.7.36s-.25.58-.25 1.01v1.99h-.62Z" fill="#fffcef"/>
        <path d="M88.98 48.11c-.38 0-.71-.09-.99-.26-.29-.17-.51-.41-.67-.71q-.24-.45-.24-1.05c0-.6.08-.74.24-1.05.16-.3.38-.54.67-.71.28-.17.61-.26.98-.26s.67.09.93.27.46.42.61.74.22.69.22 1.12h-3.18l.15-.13c0 .31.05.57.17.79s.27.39.47.5c.2.12.43.17.69.17.27 0 .5-.06.69-.19s.33-.3.43-.51l.53.27c-.1.2-.23.38-.39.52-.16.15-.35.26-.57.35-.22.08-.46.12-.73.12Zm-1.24-2.3-.16-.12h2.66l-.16.13c0-.25-.05-.46-.15-.64q-.15-.27-.39-.42c-.17-.1-.35-.15-.57-.15s-.41.05-.6.15-.34.23-.45.41c-.12.18-.17.39-.17.64Z" fill="#fffcef"/>
        <path d="M91.35 48.02v-3.85h.58l.04.71v3.14zm2.7-1.98c0-.38-.04-.67-.13-.87s-.21-.34-.36-.41-.33-.11-.52-.11c-.34 0-.6.12-.79.36s-.28.58-.28 1.01h-.3c0-.41.06-.75.18-1.05.12-.29.29-.52.52-.67s.5-.23.82-.23.57.06.79.18.4.31.52.57.19.61.18 1.03v.18h-.62Zm0 1.98v-1.97h.62v1.97z" fill="#fffcef"/>
        <path d="M95.09 44.71v-.55h2.44v.55zm1.85 3.4c-.37 0-.67-.1-.87-.29s-.31-.47-.31-.82v-4.03h.62v3.96c0 .2.05.35.16.45s.25.16.44.16c.06 0 .12 0 .18-.03.06-.02.14-.06.23-.13l.24.5a1.2 1.2 0 0 1-.69.23" fill="#fffcef"/>
        <path d="M99.93 48.11c-.38 0-.71-.09-1-.26s-.52-.41-.68-.71c-.17-.3-.25-.65-.25-1.05s.08-.74.24-1.05c.16-.3.39-.54.68-.71s.62-.26 1-.26.71.09 1 .26.52.41.68.71q.24.45.24 1.05c0 .6-.08.74-.24 1.05-.16.3-.39.54-.67.71-.29.17-.62.26-.99.26Zm-.01-.57c.25 0 .47-.06.67-.18q.285-.18.45-.51c.11-.22.17-.47.17-.75s-.05-.53-.17-.75a1.2 1.2 0 0 0-.46-.51c-.2-.12-.42-.19-.68-.19s-.47.06-.67.19-.34.29-.46.51-.17.47-.17.75.05.53.17.75c.11.22.26.39.46.51s.42.18.67.18Z" fill="#fffcef"/>
        <path d="M106 48.11c-.38 0-.72-.09-1.01-.26s-.52-.41-.68-.71c-.17-.3-.25-.65-.25-1.05s.08-.74.24-1.05c.16-.3.39-.54.68-.71s.63-.26 1-.26.7.08.99.25.52.41.67.72l-.56.25q-.15-.315-.45-.48c-.2-.12-.42-.17-.67-.17s-.47.06-.67.19-.34.29-.46.51c-.11.22-.17.47-.17.75s.05.53.17.75c.11.22.26.39.46.51s.42.18.67.18.48-.06.67-.19q.3-.195.45-.54l.56.25c-.15.33-.38.59-.67.77s-.63.28-1 .28Z" fill="#fffcef"/>
        <path d="M110 48.11c-.38 0-.71-.09-1-.26s-.52-.41-.68-.71c-.17-.3-.25-.65-.25-1.05s.08-.74.24-1.05c.16-.3.39-.54.68-.71s.62-.26 1-.26.71.09 1 .26.52.41.68.71q.24.45.24 1.05c0 .6-.08.74-.24 1.05-.16.3-.39.54-.67.71-.29.17-.62.26-.99.26Zm0-.57c.25 0 .47-.06.67-.18q.285-.18.45-.51c.11-.22.17-.47.17-.75s-.05-.53-.17-.75a1.2 1.2 0 0 0-.46-.51c-.2-.12-.42-.19-.68-.19s-.47.06-.67.19-.34.29-.46.51-.17.47-.17.75.05.53.17.75c.11.22.26.39.46.51s.42.18.67.18Z" fill="#fffcef"/>
        <path d="M112.61 48.02v-3.85h.58l.03.54c.12-.21.27-.36.45-.47s.4-.16.65-.16c.31 0 .57.07.79.22.22.14.38.36.47.65.11-.28.27-.5.47-.65.21-.15.46-.22.74-.22.43 0 .77.14 1.02.43s.37.72.37 1.31v2.2h-.62v-1.97q0-.57-.12-.87c-.08-.2-.19-.34-.32-.41a1 1 0 0 0-.46-.11c-.3 0-.54.12-.71.36s-.25.58-.25 1.01v1.99h-.62v-1.97q0-.57-.12-.87c-.08-.2-.19-.34-.32-.41-.14-.07-.29-.11-.47-.11-.3 0-.53.12-.7.36s-.25.58-.25 1.01v1.99h-.62Z" fill="#fffcef"/>
        <path d="M119 48.02v-5.39h.62v4.67l-.03.72h-.58Zm1.92.09c-.32 0-.61-.08-.85-.25s-.43-.41-.57-.71c-.13-.31-.2-.66-.2-1.05s.07-.75.2-1.05.32-.54.57-.71c.24-.17.53-.25.85-.25.34 0 .65.08.91.25s.47.41.61.71c.15.3.22.65.22 1.05s-.07.75-.22 1.05c-.15.31-.35.54-.61.71s-.57.25-.91.25m-.14-.56c.24 0 .46-.06.64-.18s.34-.29.45-.51.17-.47.17-.76-.05-.53-.16-.75-.25-.39-.44-.52c-.19-.12-.4-.18-.65-.18q-.345 0-.6.18-.27.18-.42.51c-.1.22-.15.47-.15.76s.05.53.15.75.24.39.41.52c.17.12.38.18.6.18" fill="#fffcef"/>
        <path d="M123.72 43.27q-.15 0-.27-.12c-.12-.12-.12-.17-.12-.27q0-.165.12-.27c.12-.105.17-.11.27-.11s.2.04.27.11.11.17.11.27-.04.19-.11.27q-.12.12-.27.12m-.32 4.75v-3.85h.62v3.85z" fill="#fffcef"/>
        <path d="M124.99 48.02v-3.85h.58l.04.71v3.14zm2.71-1.98c0-.38-.04-.67-.13-.87s-.21-.34-.36-.41-.33-.11-.52-.11c-.34 0-.6.12-.79.36s-.28.58-.28 1.01h-.3c0-.41.06-.75.18-1.05.12-.29.29-.52.52-.67.22-.15.5-.23.82-.23s.56.06.79.18c.22.12.4.31.52.57s.19.61.18 1.03v.18h-.62Zm0 1.98v-1.97h.62v1.97z" fill="#fffcef"/>
        <path d="M130.35 48.11c-.45 0-.8-.1-1.06-.31s-.38-.5-.38-.87q0-.585.39-.9c.39-.315.62-.31 1.09-.31h1.1v.52h-.96c-.36 0-.62.06-.77.18a.62.62 0 0 0-.23.51c0 .2.07.36.22.47.15.12.36.17.62.17.22 0 .41-.05.58-.14.16-.09.29-.23.38-.41s.13-.39.13-.63h.26c0 .52-.12.94-.36 1.25s-.58.47-1.03.47Zm1.16-.09-.03-.63v-1.4c0-.3-.03-.55-.1-.75a.9.9 0 0 0-.31-.45c-.14-.1-.33-.15-.56-.15-.21 0-.39.04-.54.13-.15.08-.28.22-.37.4l-.55-.22c.1-.18.21-.33.35-.47s.3-.23.49-.3c.18-.07.39-.1.63-.1.36 0 .66.07.89.21s.41.35.53.62c.12.28.18.62.17 1.02v2.09h-.58Z" fill="#fffcef"/>
        <path d="M135.01 43.27q-.15 0-.27-.12a.37.37 0 0 1-.12-.27q0-.165.12-.27c.08-.07.17-.11.27-.11s.2.04.27.11.11.17.11.27-.04.19-.11.27-.17.12-.27.12m-.31 4.75v-3.85h.62v3.85z" fill="#fffcef"/>
        <path d="M136.29 48.02v-3.85h.58l.04.71v3.14zm2.7-1.98c0-.38-.04-.67-.13-.87s-.21-.34-.36-.41-.33-.11-.52-.11c-.34 0-.6.12-.79.36s-.28.58-.28 1.01h-.3c0-.41.06-.75.18-1.05.12-.29.29-.52.52-.67.22-.15.5-.23.82-.23s.56.06.79.18c.22.12.4.31.52.57s.19.61.18 1.03v.18H139Zm0 1.98v-1.97h.62v1.97z" fill="#fffcef"/>
        <path d="M141.95 47.98c-.34 0-.65-.08-.91-.25s-.46-.39-.61-.69c-.15-.29-.22-.63-.22-1.01s.07-.73.22-1.03.35-.52.61-.69c.26-.16.56-.25.91-.25.32 0 .61.08.85.25s.43.39.57.69c.13.29.2.64.2 1.03s-.07.72-.2 1.02c-.14.29-.32.52-.57.69s-.52.25-.85.25Zm.02 1.67c-.25 0-.47-.02-.67-.07s-.38-.1-.52-.16-.24-.11-.3-.15l.23-.5c.07.04.16.08.29.13.12.05.27.1.43.14q.255.06.54.06c.25 0 .47-.05.67-.15s.35-.26.46-.47.17-.49.17-.82v-3.49h.62v3.48c0 .44-.08.81-.25 1.11s-.39.52-.68.67-.61.22-.98.22Zm.13-2.2q.345 0 .6-.18c.17-.12.31-.29.41-.5s.15-.46.15-.74-.05-.51-.15-.73-.24-.38-.41-.5-.37-.18-.61-.18-.46.06-.64.18c-.19.12-.33.29-.44.5-.1.21-.16.46-.16.73s.05.53.16.74.26.38.44.5.4.18.64.18Z" fill="#fffcef"/>
        <path d="M144.8 48.02v-3.85h.62v3.85zm.34-2.09c0-.42.08-.75.24-1.01s.36-.45.61-.58.51-.19.79-.19v.58c-.23 0-.44.04-.65.11s-.38.2-.51.37-.2.4-.2.69z" fill="#fffcef"/>
        <path d="M148.93 48.11c-.38 0-.71-.09-.99-.26-.29-.17-.51-.41-.67-.71s-.24-.65-.24-1.05.08-.74.24-1.05c.16-.3.38-.54.67-.71s.61-.26.98-.26.67.09.93.27.46.42.61.74c.14.32.22.69.22 1.12h-3.18l.15-.13c0 .31.05.57.17.79.11.22.27.39.46.5.2.12.43.17.69.17.27 0 .5-.06.69-.19s.33-.3.44-.51l.53.27c-.1.2-.23.38-.39.52-.16.15-.35.26-.57.35s-.46.12-.73.12Zm-1.24-2.3-.16-.12h2.66l-.16.13c0-.25-.05-.46-.14-.64q-.15-.27-.39-.42-.255-.15-.57-.15c-.315 0-.41.05-.6.15s-.34.23-.45.41c-.12.18-.17.39-.17.64Z" fill="#fffcef"/>
        <path d="M152.81 48.11c-.34 0-.65-.08-.91-.25s-.47-.41-.61-.71-.22-.66-.22-1.05.07-.75.22-1.05.35-.54.61-.71.56-.25.91-.25c.32 0 .61.08.85.25s.43.41.56.71.2.65.2 1.05-.07.75-.2 1.05c-.13.31-.32.54-.56.71s-.53.25-.85.25m.14-.56c.22 0 .43-.06.6-.18.18-.12.31-.29.41-.52q.15-.33.15-.75c0-.42-.05-.53-.15-.75s-.24-.39-.41-.52c-.17-.12-.38-.18-.61-.18a1.14 1.14 0 0 0-1.08.7c-.1.23-.16.47-.16.75s.05.53.16.75.26.39.45.52c.19.12.4.18.65.18Zm1.2.47-.03-.72v-4.67h.62v5.39z" fill="#fffcef"/>
        <path d="M156.01 43.27q-.15 0-.27-.12a.37.37 0 0 1-.12-.27q0-.165.12-.27c.08-.07.17-.11.27-.11s.2.04.27.11.11.17.11.27-.04.19-.11.27q-.12.12-.27.12m-.32 4.75v-3.85h.62v3.85z" fill="#fffcef"/>
        <path d="M158.97 48.11c-.38 0-.71-.09-.99-.26-.29-.17-.51-.41-.67-.71q-.24-.45-.24-1.05c0-.6.08-.74.24-1.05.16-.3.38-.54.67-.71.28-.17.61-.26.98-.26s.67.09.93.27.46.42.61.74c.14.32.21.69.21 1.12h-3.18l.15-.13c0 .31.05.57.16.79s.27.39.47.5c.2.12.43.17.69.17.27 0 .5-.06.69-.19s.33-.3.43-.51l.53.27c-.1.2-.23.38-.39.52-.16.15-.35.26-.57.35-.22.08-.46.12-.73.12Zm-1.25-2.3-.16-.12h2.66l-.16.13c0-.25-.05-.46-.15-.64s-.23-.32-.39-.42-.35-.15-.57-.15-.41.05-.6.15-.34.23-.46.41-.17.39-.17.64" fill="#fffcef"/>
        <path d="M161.34 48.02v-3.85h.58l.04.71v3.14zm2.7-1.98c0-.38-.04-.67-.13-.87s-.21-.34-.36-.41-.33-.11-.52-.11c-.34 0-.6.12-.79.36s-.28.58-.28 1.01h-.3c0-.41.06-.75.18-1.05.12-.29.29-.52.52-.67.22-.15.5-.23.82-.23s.56.06.79.18c.22.12.4.31.52.57s.19.61.18 1.03v.18h-.62Zm0 1.98v-1.97h.62v1.97z" fill="#fffcef"/>
        <path d="M165.08 44.71v-.55h2.44v.55zm1.85 3.4c-.38 0-.67-.1-.87-.29s-.31-.47-.31-.82v-4.03h.62v3.96c0 .2.05.35.16.45s.25.16.44.16c.06 0 .12 0 .18-.03.06-.02.14-.06.23-.13l.24.5a1.2 1.2 0 0 1-.69.23" fill="#fffcef"/>
        <path d="M169.9 48.11c-.38 0-.71-.09-.99-.26-.29-.17-.51-.41-.67-.71s-.24-.65-.24-1.05.08-.74.24-1.05c.16-.3.38-.54.67-.71s.61-.26.98-.26.67.09.93.27.46.42.61.74c.14.32.22.69.22 1.12h-3.18l.15-.13c0 .31.05.57.17.79.11.22.27.39.46.5.2.12.43.17.69.17.27 0 .5-.06.69-.19s.33-.3.44-.51l.53.27c-.1.2-.23.38-.39.52-.16.15-.35.26-.57.35s-.46.12-.73.12Zm-1.25-2.3-.16-.12h2.66l-.16.13c0-.25-.05-.46-.14-.64q-.15-.27-.39-.42-.255-.15-.57-.15c-.315 0-.41.05-.6.15s-.34.23-.45.41c-.12.18-.17.39-.17.64Z" fill="#fffcef"/>
        <path d="M173.61 48.11c-.28 0-.53-.04-.74-.13-.21-.08-.39-.2-.53-.33a1.2 1.2 0 0 1-.3-.46l.54-.22a1.08 1.08 0 0 0 .97.58c.24 0 .44-.05.61-.14a.45.45 0 0 0 .25-.4c0-.16-.06-.29-.18-.38s-.3-.18-.54-.24l-.37-.1c-.35-.09-.62-.23-.82-.42s-.29-.4-.29-.63c0-.36.12-.65.36-.85s.6-.3 1.07-.3c.23 0 .43.03.62.1.18.07.34.16.48.28.13.12.23.26.29.43l-.54.24a.73.73 0 0 0-.33-.38 1.2 1.2 0 0 0-.56-.12c-.24 0-.42.05-.55.15s-.2.24-.2.42c0 .1.06.2.17.29s.27.16.49.22l.38.1q.375.09.63.27c.17.12.3.26.38.41s.13.32.13.49c0 .23-.06.43-.19.6-.12.17-.29.3-.5.39s-.45.13-.72.13Z" fill="#fffcef"/>
        <path d="M178.96 48.11c-.34 0-.65-.08-.91-.25s-.46-.41-.61-.71-.22-.66-.22-1.05.07-.75.22-1.05.35-.54.61-.71.56-.25.91-.25c.32 0 .61.08.85.25s.43.41.57.71c.13.3.2.65.2 1.05s-.07.75-.2 1.05c-.13.31-.32.54-.57.71-.24.17-.53.25-.85.25m.14-.56q.345 0 .6-.18c.17-.12.31-.29.41-.52s.15-.47.15-.75-.05-.53-.15-.75-.24-.39-.41-.52c-.18-.12-.38-.18-.61-.18s-.46.06-.64.18-.33.29-.44.52c-.11.22-.16.47-.16.75s.05.53.16.75.26.39.45.52.41.18.65.18Zm1.19.47-.03-.72v-4.67h.62v5.39z" fill="#fffcef"/>
        <path d="M182.16 43.27q-.15 0-.27-.12a.37.37 0 0 1-.12-.27q0-.165.12-.27c.08-.07.17-.11.27-.11s.2.04.27.11.11.17.11.27-.04.19-.11.27-.17.12-.27.12m-.32 4.75v-3.85h.62v3.85z" fill="#fffcef"/>
        <path d="M184.95 47.98c-.34 0-.65-.08-.91-.25s-.46-.39-.61-.69c-.15-.29-.22-.63-.22-1.01s.07-.73.22-1.03.35-.52.61-.69c.26-.16.56-.25.91-.25.32 0 .61.08.85.25s.43.39.57.69c.13.29.2.64.2 1.03s-.07.72-.2 1.02c-.14.29-.32.52-.57.69s-.52.25-.85.25Zm.02 1.67c-.25 0-.47-.02-.67-.07s-.38-.1-.52-.16-.24-.11-.3-.15l.23-.5c.07.04.16.08.29.13.12.05.27.1.43.14q.255.06.54.06c.25 0 .47-.05.67-.15s.35-.26.46-.47.17-.49.17-.82v-3.49h.62v3.48c0 .44-.08.81-.25 1.11s-.39.52-.68.67-.61.22-.98.22Zm.13-2.2q.345 0 .6-.18c.17-.12.31-.29.41-.5s.15-.46.15-.74-.05-.51-.15-.73-.24-.38-.41-.5-.37-.18-.61-.18-.46.06-.64.18c-.19.12-.33.29-.44.5-.1.21-.16.46-.16.73s.05.53.16.74.26.38.44.5.4.18.64.18Z" fill="#fffcef"/>
        <path d="M189.49 48.11c-.38 0-.71-.09-.99-.26-.29-.17-.51-.41-.67-.71q-.24-.45-.24-1.05c0-.6.08-.74.24-1.05.16-.3.38-.54.67-.71.28-.17.61-.26.98-.26s.67.09.93.27.46.42.61.74c.14.32.21.69.21 1.12h-3.18l.15-.13c0 .31.05.57.16.79s.27.39.47.5c.2.12.43.17.69.17.27 0 .5-.06.69-.19s.33-.3.43-.51l.53.27c-.1.2-.23.38-.39.52-.16.15-.35.26-.57.35-.22.08-.46.12-.73.12Zm-1.25-2.3-.16-.12h2.66l-.16.13c0-.25-.05-.46-.15-.64s-.23-.32-.39-.42-.35-.15-.57-.15-.41.05-.6.15-.34.23-.46.41-.17.39-.17.64" fill="#fffcef"/>
        <path d="M193.2 48.11c-.28 0-.53-.04-.74-.13-.21-.08-.39-.2-.53-.33a1.2 1.2 0 0 1-.3-.46l.54-.22c.09.17.22.32.39.42.17.11.37.16.58.16.24 0 .44-.05.61-.14s.25-.23.25-.4c0-.16-.06-.29-.18-.38q-.18-.15-.54-.24l-.37-.1c-.35-.09-.62-.23-.82-.42-.19-.19-.29-.4-.29-.63 0-.36.12-.65.36-.85s.59-.3 1.07-.3c.23 0 .43.03.62.1s.34.16.48.28c.13.12.23.26.29.43l-.54.24c-.07-.17-.18-.3-.33-.38s-.34-.12-.56-.12c-.24 0-.42.05-.55.15s-.2.24-.2.42c0 .1.05.2.17.29.11.09.27.16.49.22l.38.1q.375.09.63.27c.17.12.3.26.39.41s.13.32.13.49c0 .23-.06.43-.19.6-.12.17-.29.3-.5.39s-.45.13-.72.13Z" fill="#fffcef"/>
        <path d="M194.88 44.71v-.55h2.44v.55zm1.85 3.4c-.37 0-.66-.1-.87-.29s-.31-.47-.31-.82v-4.03h.62v3.96c0 .2.05.35.16.45s.25.16.44.16c.06 0 .12 0 .18-.03.06-.02.14-.06.23-.13l.24.5a1.2 1.2 0 0 1-.69.23" fill="#fffcef"/>
        <path d="m197.87 43.62.9-.99h.79l-.99.99zm.21 4.4v-3.85h.62v3.85z" fill="#fffcef"/>
        <path d="m200.81 48.02-1.61-3.85h.64l1.57 3.85zm.04 0 1.57-3.85h.65l-1.61 3.85z" fill="#fffcef"/>
        <path d="M205.12 48.11c-.38 0-.71-.09-.99-.26-.29-.17-.51-.41-.67-.71q-.24-.45-.24-1.05c0-.6.08-.74.24-1.05.16-.3.38-.54.67-.71.28-.17.61-.26.98-.26s.67.09.93.27.46.42.61.74c.14.32.21.69.21 1.12h-3.18l.15-.13c0 .31.05.57.16.79s.27.39.47.5c.2.12.43.17.69.17.27 0 .5-.06.69-.19s.33-.3.43-.51l.53.27c-.1.2-.23.38-.39.52-.16.15-.35.26-.57.35-.22.08-.46.12-.73.12Zm-1.25-2.3-.16-.12h2.66l-.16.13c0-.25-.05-.46-.15-.64s-.23-.32-.39-.42-.35-.15-.57-.15-.41.05-.6.15-.34.23-.46.41-.17.39-.17.64" fill="#fffcef"/>
        <path d="M207.83 43.27q-.15 0-.27-.12a.37.37 0 0 1-.12-.27q0-.165.12-.27c.08-.07.17-.11.27-.11s.2.04.27.11.11.17.11.27-.04.19-.11.27-.17.12-.27.12m-.31 4.75v-3.85h.62v3.85z" fill="#fffcef"/>
        <path d="M210.46 48.11c-.28 0-.53-.04-.74-.13-.21-.08-.39-.2-.53-.33a1.2 1.2 0 0 1-.3-.46l.54-.22c.09.17.22.32.39.42.17.11.37.16.58.16.24 0 .44-.05.61-.14s.25-.23.25-.4c0-.16-.06-.29-.18-.38q-.18-.15-.54-.24l-.37-.1c-.35-.09-.62-.23-.82-.42-.19-.19-.29-.4-.29-.63 0-.36.12-.65.36-.85s.59-.3 1.07-.3c.23 0 .43.03.62.1s.34.16.48.28c.13.12.23.26.29.43l-.54.24c-.07-.17-.18-.3-.33-.38s-.34-.12-.56-.12c-.24 0-.42.05-.55.15s-.2.24-.2.42c0 .1.05.2.17.29.11.09.27.16.49.22l.38.1q.375.09.63.27c.17.12.3.26.39.41s.13.32.13.49c0 .23-.06.43-.19.6-.12.17-.29.3-.5.39s-.45.13-.72.13Z" fill="#fffcef"/>
        <path d="m212.31 48.9.44-1.62h.69l-.6 1.62z" fill="#fffcef"/>
        <path d="M217.1 48.11c-.45 0-.8-.1-1.06-.31s-.38-.5-.38-.87q0-.585.39-.9c.39-.315.62-.31 1.09-.31h1.1v.52h-.96c-.36 0-.62.06-.77.18a.62.62 0 0 0-.23.51c0 .2.07.36.22.47.15.12.36.17.62.17.22 0 .41-.05.58-.14.16-.09.29-.23.38-.41s.13-.39.13-.63h.26c0 .52-.12.94-.36 1.25s-.58.47-1.03.47Zm1.15-.09-.03-.63v-1.4c0-.3-.03-.55-.1-.75a.9.9 0 0 0-.31-.45c-.14-.1-.33-.15-.56-.15-.21 0-.39.04-.54.13-.15.08-.28.22-.37.4l-.55-.22c.1-.18.21-.33.35-.47s.3-.23.49-.3c.18-.07.39-.1.63-.1.36 0 .66.07.89.21s.41.35.53.62c.12.28.18.62.17 1.02v2.09h-.58Z" fill="#fffcef"/>
        <path d="M219.65 48.02v-5.39h.62v5.39z" fill="#fffcef"/>
        <path d="M222.88 48.11c-.38 0-.71-.09-.99-.26-.29-.17-.51-.41-.67-.71q-.24-.45-.24-1.05c0-.6.08-.74.24-1.05.16-.3.38-.54.67-.71.28-.17.61-.26.98-.26s.67.09.93.27.46.42.61.74c.14.32.21.69.21 1.12h-3.18l.15-.13c0 .31.05.57.16.79s.27.39.47.5c.2.12.43.17.69.17.27 0 .5-.06.69-.19s.33-.3.43-.51l.53.27c-.1.2-.23.38-.39.52-.16.15-.35.26-.57.35-.22.08-.46.12-.73.12Zm-1.25-2.3-.16-.12h2.66l-.16.13c0-.25-.05-.46-.15-.64s-.23-.32-.39-.42-.35-.15-.57-.15-.41.05-.6.15-.34.23-.46.41-.17.39-.17.64m.72-2.19.9-.99h.79l-.99.99z" fill="#fffcef"/>
        <path d="M225.25 48.02v-3.85h.58l.03.54c.12-.21.27-.36.45-.47.19-.11.4-.16.65-.16.31 0 .57.07.79.22.22.14.38.36.47.65.11-.28.27-.5.47-.65.21-.15.46-.22.74-.22.43 0 .77.14 1.02.43s.37.72.37 1.31v2.2h-.62v-1.97q0-.57-.12-.87c-.12-.3-.19-.34-.32-.41a1 1 0 0 0-.46-.11c-.3 0-.54.12-.71.36s-.25.58-.25 1.01v1.99h-.62v-1.97q0-.57-.12-.87c-.08-.2-.19-.34-.32-.41s-.29-.11-.47-.11c-.3 0-.53.12-.7.36s-.25.58-.25 1.01v1.99h-.62Z" fill="#fffcef"/>
        <path d="M234.91 48.11c-.34 0-.65-.08-.91-.25s-.46-.41-.61-.71-.22-.66-.22-1.05.07-.75.22-1.05.35-.54.61-.71.56-.25.91-.25c.32 0 .61.08.85.25s.43.41.57.71c.13.3.2.65.2 1.05s-.07.75-.2 1.05c-.13.31-.32.54-.57.71-.24.17-.53.25-.85.25m.14-.56q.345 0 .6-.18c.17-.12.31-.29.41-.52s.15-.47.15-.75-.05-.53-.15-.75-.24-.39-.41-.52c-.18-.12-.38-.18-.61-.18s-.46.06-.64.18-.33.29-.44.52c-.11.22-.16.47-.16.75s.05.53.16.75.26.39.45.52.41.18.65.18Zm1.19.47-.03-.72v-4.67h.62v5.39z" fill="#fffcef"/>
        <path d="M239.44 48.11c-.38 0-.71-.09-.99-.26-.29-.17-.51-.41-.67-.71s-.24-.65-.24-1.05.08-.74.24-1.05c.16-.3.38-.54.67-.71s.61-.26.98-.26.67.09.93.27.46.42.61.74c.14.32.22.69.22 1.12h-3.18l.15-.13c0 .31.05.57.17.79.11.22.27.39.46.5.2.12.43.17.69.17.27 0 .5-.06.69-.19s.33-.3.44-.51l.53.27c-.1.2-.23.38-.39.52-.16.15-.35.26-.57.35s-.46.12-.73.12Zm-1.25-2.3-.16-.12h2.66l-.16.13c0-.25-.05-.46-.14-.64q-.15-.27-.39-.42-.255-.15-.57-.15c-.315 0-.41.05-.6.15s-.34.23-.45.41c-.12.18-.17.39-.17.64Z" fill="#fffcef"/>
        <path d="m244.74 48.02-1.66-3.85h.65l1.43 3.43.19.42zm-.84 1.63c-.1 0-.21-.02-.34-.06s-.26-.09-.41-.15l.23-.52c.12.05.22.09.31.12s.16.04.21.04c.14 0 .25-.04.34-.11s.17-.18.23-.32l.44-1.05 1.42-3.43h.66l-1.85 4.39c-.1.23-.2.42-.3.58-.11.16-.23.29-.38.38s-.34.13-.57.13Z" fill="#fffcef"/>
        <path d="M247.35 46.14v-1.97h.62v1.97zm.61 0c0 .38.04.67.13.87s.21.34.37.41.33.11.53.11q.495 0 .78-.36c.285-.36.28-.58.28-1.01h.3c0 .41-.06.75-.18 1.05-.12.29-.29.52-.51.67s-.5.23-.82.23c-.3 0-.56-.06-.79-.18s-.4-.31-.52-.58-.19-.61-.19-1.03v-.18zm2.13 1.88-.04-.71v-3.14h.62v3.85z" fill="#fffcef"/>
        <path d="M253.31 48.11c-.38 0-.71-.09-1.01-.26-.29-.17-.52-.41-.69-.71s-.25-.65-.25-1.05.08-.74.24-1.05c.16-.3.39-.54.68-.71s.63-.26 1-.26.7.08.99.25.52.41.67.72l-.56.25q-.15-.315-.45-.48c-.2-.12-.42-.17-.67-.17s-.47.06-.67.19c-.19.12-.35.29-.46.51s-.17.47-.17.75.05.53.17.75c.11.22.26.39.46.51s.42.18.67.18.48-.06.67-.19q.3-.195.45-.54l.56.25c-.15.33-.38.59-.67.77s-.63.28-1 .28Z" fill="#fffcef"/>
        <path d="M257.32 48.11c-.38 0-.71-.09-1.01-.26-.29-.17-.52-.41-.69-.71s-.25-.65-.25-1.05.08-.74.24-1.05c.16-.3.39-.54.68-.71s.63-.26 1-.26.7.08.99.25.52.41.67.72l-.56.25q-.15-.315-.45-.48c-.2-.12-.42-.17-.67-.17s-.47.06-.67.19c-.19.12-.35.29-.46.51s-.17.47-.17.75.05.53.17.75c.11.22.26.39.46.51s.42.18.67.18.48-.06.67-.19q.3-.195.45-.54l.56.25c-.15.33-.38.59-.67.77s-.63.28-1 .28Z" fill="#fffcef"/>
        <path d="M260.83 48.11c-.45 0-.8-.1-1.06-.31s-.38-.5-.38-.87q0-.585.39-.9c.26-.21.62-.31 1.09-.31h1.1v.52h-.96c-.36 0-.61.06-.77.18s-.23.29-.23.51c0 .2.07.36.22.47.15.12.36.17.62.17.22 0 .41-.05.58-.14s.29-.23.38-.41.13-.39.13-.63h.26c0 .52-.12.94-.35 1.25s-.58.47-1.03.47Zm1.16-.09-.03-.63v-1.4c0-.3-.03-.55-.1-.75s-.17-.35-.32-.45c-.14-.1-.33-.15-.56-.15-.21 0-.39.04-.54.13-.15.08-.28.22-.38.4l-.55-.22c.1-.18.21-.33.35-.47s.3-.23.48-.3c.19-.07.4-.1.63-.1.36 0 .65.07.89.21.23.14.41.35.53.62.12.28.17.62.17 1.02v2.09h-.58Z" fill="#fffcef"/>
        <path d="M54.26 56.81c-.38 0-.71-.09-.99-.26-.29-.17-.51-.41-.67-.71q-.24-.45-.24-1.05c0-.6.08-.74.24-1.05.16-.3.38-.54.67-.71.28-.17.61-.26.98-.26s.67.09.93.27.46.42.61.74.22.69.22 1.12h-3.18l.15-.13c0 .31.05.57.17.79s.27.39.47.5c.2.12.43.17.69.17.27 0 .5-.06.69-.19s.33-.3.43-.51l.53.27c-.1.2-.23.38-.39.52-.16.15-.35.26-.57.35-.22.08-.46.12-.73.12Zm-1.25-2.3-.16-.12h2.66l-.16.13c0-.25-.05-.46-.15-.64q-.15-.27-.39-.42c-.17-.1-.35-.15-.57-.15s-.41.05-.6.15-.34.23-.45.41c-.12.18-.17.39-.17.64Z" fill="#fffcef"/>
        <path d="M58.18 56.71v-.49l2.27-2.82h-2.27v-.54h3.07v.48l-2.28 2.83h2.29v.54h-3.09Z" fill="#fffcef"/>
        <path d="M63.68 56.81c-.38 0-.71-.09-.99-.26-.29-.17-.51-.41-.67-.71q-.24-.45-.24-1.05c0-.6.08-.74.24-1.05.16-.3.38-.54.67-.71.28-.17.61-.26.98-.26s.67.09.93.27.46.42.61.74.22.69.22 1.12h-3.18l.15-.13c0 .31.05.57.17.79s.27.39.47.5c.2.12.43.17.69.17.27 0 .5-.06.69-.19s.33-.3.43-.51l.53.27c-.1.2-.23.38-.39.52-.16.15-.35.26-.57.35-.22.08-.46.12-.73.12Zm-1.25-2.3-.16-.12h2.66l-.16.13c0-.25-.05-.46-.15-.64q-.15-.27-.39-.42c-.17-.1-.35-.15-.57-.15s-.41.05-.6.15-.34.23-.45.41c-.12.18-.17.39-.17.64Z" fill="#fffcef"/>
        <path d="M67.75 56.81c-.38 0-.71-.09-1-.26s-.52-.41-.68-.71c-.17-.3-.25-.65-.25-1.05s.08-.74.24-1.05c.16-.3.39-.54.68-.71s.62-.26 1-.26.71.09 1 .26.52.41.68.71q.24.45.24 1.05c0 .6-.08.74-.24 1.05-.16.3-.39.54-.67.71-.29.17-.62.26-.99.26Zm0-.57c.25 0 .47-.06.67-.18q.285-.18.45-.51c.11-.22.17-.47.17-.75s-.05-.53-.17-.75a1.2 1.2 0 0 0-.46-.51c-.2-.12-.42-.19-.68-.19s-.47.06-.67.19-.34.29-.46.51-.17.47-.17.75.05.53.17.75c.11.22.26.39.46.51s.42.18.67.18Zm-.54-3.92.9-.99h.79l-.99.99z" fill="#fffcef"/>
        <path d="M70.36 56.71v-5.39h.62v5.39z" fill="#fffcef"/>
        <path d="M72.25 51.97q-.15 0-.27-.12c-.12-.12-.12-.17-.12-.27q0-.165.12-.27c.12-.105.17-.11.27-.11s.2.04.27.11.11.17.11.27-.04.19-.11.27q-.12.12-.27.12m-.31 4.74v-3.85h.62v3.85z" fill="#fffcef"/>
        <path d="M73.13 53.41v-.55h2.44v.55zm1.85 3.4c-.37 0-.67-.1-.87-.29s-.31-.47-.31-.82v-4.03h.62v3.96c0 .2.05.35.16.45s.25.16.44.16c.06 0 .12 0 .18-.03.06-.02.14-.06.23-.13l.24.5a1.2 1.2 0 0 1-.69.23" fill="#fffcef"/>
        <path d="M77.48 56.81c-.45 0-.8-.1-1.06-.31-.25-.21-.38-.5-.38-.87q0-.585.39-.9c.26-.21.62-.31 1.09-.31h1.1v.52h-.96c-.36 0-.61.06-.77.18a.62.62 0 0 0-.23.51c0 .2.07.36.22.47.15.12.36.17.62.17.22 0 .41-.05.58-.14.16-.09.29-.23.38-.41s.13-.39.13-.63h.26c0 .52-.12.94-.35 1.25s-.58.47-1.03.47Zm1.15-.1-.03-.63v-1.4c0-.3-.03-.55-.1-.75s-.17-.35-.32-.45c-.14-.1-.33-.15-.56-.15-.21 0-.39.04-.54.13s-.28.22-.37.4l-.55-.22c.1-.18.21-.33.35-.47s.3-.23.49-.3.4-.1.63-.1c.36 0 .66.07.89.21s.41.35.53.62c.12.28.17.62.17 1.02v2.09h-.58Z" fill="#fffcef"/>
        <path d="m79.8 57.6.44-1.62h.69l-.6 1.62z" fill="#fffcef"/>
        <path d="M84.59 56.81c-.45 0-.8-.1-1.06-.31-.25-.21-.38-.5-.38-.87q0-.585.39-.9c.26-.21.62-.31 1.09-.31h1.1v.52h-.96c-.36 0-.61.06-.77.18a.62.62 0 0 0-.23.51c0 .2.07.36.22.47.15.12.36.17.62.17.22 0 .41-.05.58-.14.16-.09.29-.23.38-.41s.13-.39.13-.63h.26c0 .52-.12.94-.35 1.25s-.58.47-1.03.47Zm1.15-.1-.03-.63v-1.4c0-.3-.03-.55-.1-.75s-.17-.35-.32-.45c-.14-.1-.33-.15-.56-.15-.21 0-.39.04-.54.13s-.28.22-.37.4l-.55-.22c.1-.18.21-.33.35-.47s.3-.23.49-.3.4-.1.63-.1c.36 0 .66.07.89.21s.41.35.53.62c.12.28.17.62.17 1.02v2.09h-.58Z" fill="#fffcef"/>
        <path d="M86.92 58.37c-.19 0-.43-.07-.72-.2l.23-.52c.12.05.23.08.31.11s.15.04.2.04c.35 0 .52-.22.52-.67v-4.27h.62v4.28c0 .4-.1.7-.29.91s-.48.31-.87.31Zm.85-6.41q-.15 0-.27-.12a.37.37 0 0 1-.12-.27c0-.11.04-.21.12-.28s.17-.11.27-.11c.11 0 .2.04.28.11s.12.17.12.28q0 .15-.12.27c-.12.12-.17.12-.28.12" fill="#fffcef"/>
        <path d="M88.96 54.84v-1.97h.62v1.97zm.61 0c0 .38.04.67.13.87s.21.34.37.41.33.11.53.11q.495 0 .78-.36c.285-.36.28-.58.28-1.01h.3c0 .41-.06.75-.18 1.05s-.29.52-.51.67-.5.23-.82.23c-.3 0-.56-.06-.79-.18s-.4-.31-.52-.58-.19-.61-.19-1.03v-.18zm2.13 1.87-.04-.71v-3.14h.62v3.85z" fill="#fffcef"/>
        <path d="M94.72 56.81c-.34 0-.65-.08-.91-.25s-.47-.41-.61-.71-.22-.66-.22-1.05.07-.75.22-1.05.35-.54.61-.71.56-.25.91-.25c.32 0 .61.08.85.25s.43.41.57.71c.13.3.2.65.2 1.05s-.07.75-.2 1.05-.32.54-.57.71c-.24.17-.53.25-.85.25m.14-.56q.345 0 .6-.18c.255-.18.31-.29.41-.52q.15-.33.15-.75c0-.42-.05-.53-.15-.75s-.24-.39-.41-.52-.38-.18-.61-.18-.46.06-.64.18-.33.29-.44.52c-.11.22-.16.47-.16.75s.05.53.16.75.26.39.45.52c.19.12.41.18.65.18Zm1.19.46-.03-.72v-4.67h.62v5.39z" fill="#fffcef"/>
        <path d="M98.78 56.81c-.45 0-.8-.1-1.06-.31-.25-.21-.38-.5-.38-.87q0-.585.39-.9c.26-.21.62-.31 1.09-.31h1.1v.52h-.96c-.36 0-.61.06-.77.18a.62.62 0 0 0-.23.51c0 .2.07.36.22.47.15.12.36.17.62.17.22 0 .41-.05.58-.14.16-.09.29-.23.38-.41s.13-.39.13-.63h.26c0 .52-.12.94-.35 1.25s-.58.47-1.03.47Zm1.15-.1-.03-.63v-1.4c0-.3-.03-.55-.1-.75s-.17-.35-.32-.45c-.14-.1-.33-.15-.56-.15-.21 0-.39.04-.54.13s-.28.22-.37.4l-.55-.22c.1-.18.21-.33.35-.47s.3-.23.49-.3.4-.1.63-.1c.36 0 .66.07.89.21s.41.35.53.62c.12.28.17.62.17 1.02v2.09h-.58Z" fill="#fffcef"/>
        <path d="M101.33 56.71v-3.85h.58l.04.71v3.14zm2.71-1.97c0-.38-.04-.67-.13-.87s-.21-.34-.36-.41-.33-.11-.52-.11c-.34 0-.6.12-.79.36s-.28.58-.28 1.01h-.3c0-.41.06-.75.18-1.05.12-.29.29-.52.52-.67s.5-.23.82-.23.57.06.79.18.4.31.52.57.19.61.18 1.03v.18h-.62Zm0 1.97v-1.97h.62v1.97z" fill="#fffcef"/>
        <path d="M106.99 56.81c-.34 0-.65-.08-.91-.25s-.47-.41-.61-.71-.22-.66-.22-1.05.07-.75.22-1.05.35-.54.61-.71.56-.25.91-.25c.32 0 .61.08.85.25s.43.41.57.71c.13.3.2.65.2 1.05s-.07.75-.2 1.05-.32.54-.57.71c-.24.17-.53.25-.85.25m.14-.56q.345 0 .6-.18c.255-.18.31-.29.41-.52q.15-.33.15-.75c0-.42-.05-.53-.15-.75s-.24-.39-.41-.52-.38-.18-.61-.18-.46.06-.64.18-.33.29-.44.52c-.11.22-.16.47-.16.75s.05.53.16.75.26.39.45.52c.19.12.41.18.65.18Zm1.19.46-.03-.72v-4.67h.62v5.39z" fill="#fffcef"/>
        <path d="M111.54 56.81c-.38 0-.71-.09-1-.26s-.52-.41-.68-.71c-.17-.3-.25-.65-.25-1.05s.08-.74.24-1.05c.16-.3.39-.54.68-.71s.62-.26 1-.26.71.09 1 .26.52.41.68.71q.24.45.24 1.05c0 .6-.08.74-.24 1.05-.16.3-.39.54-.67.71-.29.17-.62.26-.99.26Zm-.01-.57c.25 0 .47-.06.67-.18q.285-.18.45-.51c.11-.22.17-.47.17-.75s-.05-.53-.17-.75a1.2 1.2 0 0 0-.46-.51c-.2-.12-.42-.19-.68-.19s-.47.06-.67.19-.34.29-.46.51-.17.47-.17.75.05.53.17.75c.11.22.26.39.46.51s.42.18.67.18Z" fill="#fffcef"/>
        <path d="M117.11 56.81c-.45 0-.8-.1-1.06-.31-.25-.21-.38-.5-.38-.87q0-.585.39-.9c.26-.21.62-.31 1.09-.31h1.1v.52h-.96c-.36 0-.61.06-.77.18a.62.62 0 0 0-.23.51c0 .2.07.36.22.47.15.12.36.17.62.17.22 0 .41-.05.58-.14.16-.09.29-.23.38-.41s.13-.39.13-.63h.26c0 .52-.12.94-.35 1.25s-.58.47-1.03.47Zm1.15-.1-.03-.63v-1.4c0-.3-.03-.55-.1-.75s-.17-.35-.32-.45c-.14-.1-.33-.15-.56-.15-.21 0-.39.04-.54.13s-.28.22-.37.4l-.55-.22c.1-.18.21-.33.35-.47s.3-.23.49-.3.4-.1.63-.1c.36 0 .66.07.89.21s.41.35.53.62c.12.28.17.62.17 1.02v2.09h-.58Z" fill="#fffcef"/>
        <path d="M121.09 53.4v-.53h2.44v.53zm.71 3.31v-4.29c0-.4.09-.7.28-.9s.47-.3.86-.3c.1 0 .22.02.35.05.13.04.26.09.41.15l-.23.49c-.12-.05-.22-.08-.3-.11a.6.6 0 0 0-.21-.04c-.18 0-.31.06-.4.17-.09.12-.13.29-.13.54v4.24h-.62Z" fill="#fffcef"/>
        <path d="M125.79 56.81c-.38 0-.71-.09-1-.26s-.52-.41-.68-.71c-.17-.3-.25-.65-.25-1.05s.08-.74.24-1.05c.16-.3.39-.54.68-.71s.62-.26 1-.26.71.09 1 .26.52.41.68.71q.24.45.24 1.05c0 .6-.08.74-.24 1.05s-.39.54-.67.71c-.29.17-.62.26-.99.26Zm-.01-.57c.25 0 .47-.06.67-.18q.285-.18.45-.51c.11-.22.17-.47.17-.75s-.05-.53-.17-.75a1.2 1.2 0 0 0-.46-.51c-.2-.12-.42-.19-.68-.19s-.47.06-.67.19-.34.29-.46.51-.17.47-.17.75.05.53.17.75c.11.22.26.39.46.51s.42.18.67.18Z" fill="#fffcef"/>
        <path d="M128.39 56.71v-3.85h.62v3.85zm.34-2.08c0-.42.08-.75.24-1.01s.36-.45.61-.58.51-.19.79-.19v.58c-.23 0-.44.04-.65.11s-.38.2-.51.37-.2.4-.2.69z" fill="#fffcef"/>
        <path d="M130.84 56.71v-3.85h.58l.03.54c.12-.21.27-.36.46-.47.18-.11.4-.16.65-.16.31 0 .57.07.79.22s.38.36.47.65c.11-.28.27-.5.47-.65.21-.15.46-.22.74-.22.43 0 .77.14 1.02.43s.37.72.37 1.31v2.2h-.62v-1.97q0-.57-.12-.87c-.08-.2-.19-.34-.32-.41s-.29-.11-.46-.11c-.3 0-.54.12-.71.36s-.25.58-.25 1.01v1.99h-.62v-1.97q0-.57-.12-.87c-.12-.3-.19-.34-.32-.41a1 1 0 0 0-.46-.11c-.3 0-.53.12-.7.36s-.25.58-.25 1.01v1.99h-.62Z" fill="#fffcef"/>
        <path d="M138.45 56.81c-.45 0-.8-.1-1.06-.31s-.38-.5-.38-.87q0-.585.39-.9c.26-.21.62-.31 1.09-.31h1.1v.52h-.96c-.36 0-.61.06-.77.18s-.23.29-.23.51c0 .2.07.36.22.47.15.12.36.17.62.17.22 0 .41-.05.58-.14s.29-.23.38-.41.13-.39.13-.63h.26c0 .52-.12.94-.35 1.25s-.58.47-1.03.47Zm1.16-.1-.03-.63v-1.4c0-.3-.03-.55-.1-.75s-.17-.35-.32-.45c-.14-.1-.33-.15-.56-.15-.21 0-.39.04-.54.13-.15.08-.28.22-.38.4l-.55-.22c.1-.18.21-.33.35-.47s.3-.23.48-.3c.19-.07.4-.1.63-.1.36 0 .65.07.89.21.23.14.41.35.53.62.12.28.17.62.17 1.02v2.09h-.58Z" fill="#fffcef"/>
        <path d="M141.01 56.71v-3.85h.62v3.85zm.34-2.08c0-.42.08-.75.24-1.01s.36-.45.61-.58.51-.19.79-.19v.58c-.22 0-.44.04-.65.11s-.38.2-.51.37-.2.4-.2.69z" fill="#fffcef"/>
        <path d="M144.88 53.4v-.53h2.44v.53zm.71 3.31v-4.29c0-.4.09-.7.28-.9s.47-.3.86-.3c.1 0 .22.02.35.05.13.04.26.09.41.15l-.23.49c-.12-.05-.22-.08-.3-.11a.6.6 0 0 0-.21-.04c-.18 0-.31.06-.4.17-.09.12-.13.29-.13.54v4.24h-.62Z" fill="#fffcef"/>
        <path d="M149.55 56.81c-.38 0-.71-.09-.99-.26-.29-.17-.51-.41-.67-.71s-.24-.65-.24-1.05.08-.74.24-1.05c.16-.3.38-.54.67-.71s.61-.26.98-.26.67.09.93.27.46.42.61.74c.14.32.22.69.22 1.12h-3.18l.15-.13c0 .31.05.57.17.79.11.22.27.39.46.5.2.12.43.17.69.17.27 0 .5-.06.69-.19s.33-.3.44-.51l.53.27c-.1.2-.23.38-.39.52-.16.15-.35.26-.57.35s-.46.12-.73.12Zm-1.24-2.3-.16-.12h2.66l-.16.13c0-.25-.05-.46-.14-.64q-.15-.27-.39-.42-.255-.15-.57-.15c-.315 0-.41.05-.6.15s-.34.23-.45.41c-.12.18-.17.39-.17.64Z" fill="#fffcef"/>
        <path d="M151.72 56.71v-.49l2.27-2.82h-2.27v-.54h3.07v.48l-2.28 2.83h2.29v.54h-3.09Z" fill="#fffcef"/>
        <path d="M157.23 56.81c-.38 0-.71-.09-.99-.26-.29-.17-.51-.41-.67-.71q-.24-.45-.24-1.05c0-.6.08-.74.24-1.05.16-.3.38-.54.67-.71.28-.17.61-.26.98-.26s.67.09.93.27.46.42.61.74c.14.32.21.69.21 1.12h-3.18l.15-.13c0 .31.05.57.16.79s.27.39.47.5c.2.12.43.17.69.17.27 0 .5-.06.69-.19s.33-.3.43-.51l.53.27c-.1.2-.23.38-.39.52-.16.15-.35.26-.57.35-.22.08-.46.12-.73.12Zm-1.25-2.3-.16-.12h2.66l-.16.13c0-.25-.05-.46-.15-.64s-.23-.32-.39-.42-.35-.15-.57-.15-.41.05-.6.15-.34.23-.46.41-.17.39-.17.64" fill="#fffcef"/>
        <path d="M160.94 56.81c-.28 0-.53-.04-.74-.13-.21-.08-.39-.2-.53-.33a1.2 1.2 0 0 1-.3-.46l.54-.22c.09.17.22.32.39.42.17.11.37.16.58.16.24 0 .44-.05.61-.14s.25-.23.25-.4c0-.16-.06-.29-.18-.38q-.18-.15-.54-.24l-.37-.1c-.35-.09-.62-.23-.82-.42-.19-.19-.29-.4-.29-.63 0-.36.12-.65.36-.85s.59-.3 1.07-.3c.23 0 .43.03.62.1s.34.16.48.28c.13.12.23.26.29.43l-.54.24c-.07-.17-.18-.3-.33-.38s-.34-.12-.56-.12c-.24 0-.42.05-.55.15s-.2.24-.2.42c0 .1.05.2.17.29.11.09.27.16.49.22l.38.1q.375.09.63.27c.17.12.3.26.39.41s.13.32.13.49c0 .23-.06.43-.19.6-.12.17-.29.3-.5.39s-.45.13-.72.13Z" fill="#fffcef"/>
        <path d="M164.78 56.71v-3.85h.58l.03.54c.12-.21.27-.36.45-.47.19-.11.4-.16.65-.16.31 0 .57.07.79.22.22.14.38.36.47.65.11-.28.27-.5.47-.65.21-.15.46-.22.74-.22.43 0 .77.14 1.02.43s.37.72.37 1.31v2.2h-.62v-1.97q0-.57-.12-.87c-.12-.3-.19-.34-.32-.41a1 1 0 0 0-.46-.11c-.3 0-.54.12-.71.36s-.25.58-.25 1.01v1.99h-.62v-1.97q0-.57-.12-.87c-.08-.2-.19-.34-.32-.41s-.29-.11-.47-.11c-.3 0-.53.12-.7.36s-.25.58-.25 1.01v1.99h-.62Z" fill="#fffcef"/>
        <path d="M172.86 56.81c-.38 0-.71-.09-.99-.26-.29-.17-.51-.41-.67-.71s-.24-.65-.24-1.05.08-.74.24-1.05c.16-.3.38-.54.67-.71s.61-.26.98-.26.67.09.93.27.46.42.61.74c.14.32.22.69.22 1.12h-3.18l.15-.13c0 .31.05.57.17.79.11.22.27.39.46.5.2.12.43.17.69.17.27 0 .5-.06.69-.19s.33-.3.44-.51l.53.27c-.1.2-.23.38-.39.52-.16.15-.35.26-.57.35s-.46.12-.73.12Zm-1.25-2.3-.16-.12h2.66l-.16.13c0-.25-.05-.46-.14-.64q-.15-.27-.39-.42-.255-.15-.57-.15c-.315 0-.41.05-.6.15s-.34.23-.45.41c-.12.18-.17.39-.17.64Z" fill="#fffcef"/>
        <path d="M175.22 56.71v-3.85h.58l.04.71v3.14zm2.71-1.97c0-.38-.04-.67-.13-.87s-.21-.34-.36-.41-.33-.11-.52-.11c-.34 0-.6.12-.79.36s-.28.58-.28 1.01h-.3c0-.41.06-.75.18-1.05.12-.29.29-.52.52-.67s.5-.23.82-.23.57.06.79.18.4.31.52.57c.13.26.19.61.18 1.03v.18h-.62Zm0 1.97v-1.97h.62v1.97z" fill="#fffcef"/>
        <path d="M181.08 56.81c-.38 0-.71-.09-1-.26s-.52-.41-.68-.71-.25-.65-.25-1.05.08-.74.24-1.05c.16-.3.39-.54.68-.71s.62-.26 1-.26.71.09 1 .26.52.41.68.71q.24.45.24 1.05c0 .6-.08.74-.24 1.05s-.39.54-.67.71c-.29.17-.62.26-.99.26Zm-.01-.57c.25 0 .47-.06.67-.18q.285-.18.45-.51c.11-.22.17-.47.17-.75s-.05-.53-.17-.75a1.2 1.2 0 0 0-.46-.51c-.2-.12-.42-.19-.68-.19s-.47.06-.67.19c-.19.12-.35.29-.46.51s-.17.47-.17.75.05.53.17.75c.11.22.26.39.46.51s.42.18.67.18Z" fill="#fffcef"/>
        <path d="M185.03 56.81c-.28 0-.53-.04-.74-.13-.21-.08-.39-.2-.53-.33a1.2 1.2 0 0 1-.3-.46l.54-.22a1.08 1.08 0 0 0 .97.58c.24 0 .44-.05.61-.14a.45.45 0 0 0 .25-.4c0-.16-.06-.29-.18-.38s-.3-.18-.54-.24l-.37-.1c-.35-.09-.62-.23-.82-.42s-.29-.4-.29-.63c0-.36.12-.65.36-.85s.6-.3 1.07-.3c.23 0 .43.03.62.1.18.07.34.16.48.28.13.12.23.26.29.43l-.54.24a.73.73 0 0 0-.33-.38 1.2 1.2 0 0 0-.56-.12c-.24 0-.42.05-.55.15s-.2.24-.2.42c0 .1.06.2.17.29s.27.16.49.22l.38.1q.375.09.63.27c.17.12.3.26.38.41s.13.32.13.49c0 .23-.06.43-.19.6-.12.17-.29.3-.5.39s-.45.13-.72.13Z" fill="#fffcef"/>
        <path d="m190 56.71-1.61-3.85h.64l1.57 3.85zm.04 0 1.57-3.85h.65l-1.61 3.85z" fill="#fffcef"/>
        <path d="M194.33 56.81c-.38 0-.71-.09-1.01-.26-.29-.17-.52-.41-.68-.71-.17-.3-.25-.65-.25-1.05s.08-.74.24-1.05c.16-.3.39-.54.68-.71s.62-.26 1-.26.71.09 1 .26.52.41.68.71q.24.45.24 1.05c0 .6-.08.74-.24 1.05-.16.3-.39.54-.67.71-.29.17-.62.26-.99.26m-.01-.57c.25 0 .47-.06.67-.18s.34-.29.46-.51c.11-.22.16-.47.16-.75s-.05-.53-.16-.75-.26-.39-.46-.51-.42-.19-.68-.19-.47.06-.67.19c-.19.12-.34.29-.46.51-.11.22-.16.47-.16.75s.05.53.16.75.27.39.46.51.42.18.67.18Z" fill="#fffcef"/>
        <path d="M196.93 56.71v-5.39h.62v5.39z" fill="#fffcef"/>
        <path d="M198.37 54.84v-1.97h.62v1.97zm.62 0c0 .38.04.67.13.87s.21.34.37.41.33.11.53.11q.495 0 .78-.36c.285-.36.28-.58.28-1.01h.3c0 .41-.06.75-.18 1.05-.12.29-.29.52-.51.67s-.5.23-.82.23c-.3 0-.56-.06-.79-.18s-.4-.31-.52-.58-.19-.61-.19-1.03v-.18zm2.12 1.87-.04-.71v-3.14h.62v3.85z" fill="#fffcef"/>
        <path d="M202.61 56.71v-3.85h.58l.03.54c.12-.21.27-.36.45-.47.19-.11.4-.16.65-.16.31 0 .57.07.79.22.22.14.38.36.47.65.11-.28.27-.5.47-.65.21-.15.46-.22.74-.22.43 0 .77.14 1.02.43s.37.72.37 1.31v2.2h-.62v-1.97q0-.57-.12-.87c-.12-.3-.19-.34-.32-.41a1 1 0 0 0-.46-.11c-.3 0-.54.12-.71.36s-.25.58-.25 1.01v1.99h-.62v-1.97q0-.57-.12-.87c-.08-.2-.19-.34-.32-.41s-.29-.11-.47-.11c-.3 0-.53.12-.7.36s-.25.58-.25 1.01v1.99h-.62Z" fill="#fffcef"/>
        <path d="M210.72 56.81c-.38 0-.71-.09-1-.26s-.52-.41-.68-.71-.25-.65-.25-1.05.08-.74.24-1.05c.16-.3.39-.54.68-.71s.62-.26 1-.26.71.09 1 .26.52.41.68.71q.24.45.24 1.05c0 .6-.08.74-.24 1.05s-.39.54-.67.71c-.29.17-.62.26-.99.26Zm-.01-.57c.25 0 .47-.06.67-.18q.285-.18.45-.51c.11-.22.17-.47.17-.75s-.05-.53-.17-.75a1.2 1.2 0 0 0-.46-.51c-.2-.12-.42-.19-.68-.19s-.47.06-.67.19c-.19.12-.35.29-.46.51s-.17.47-.17.75.05.53.17.75c.11.22.26.39.46.51s.42.18.67.18Z" fill="#fffcef"/>
        <path d="M214.67 56.81c-.28 0-.53-.04-.74-.13-.21-.08-.39-.2-.53-.33a1.2 1.2 0 0 1-.3-.46l.54-.22a1.08 1.08 0 0 0 .97.58c.24 0 .44-.05.61-.14a.45.45 0 0 0 .25-.4c0-.16-.06-.29-.18-.38s-.3-.18-.54-.24l-.37-.1c-.35-.09-.62-.23-.82-.42s-.29-.4-.29-.63c0-.36.12-.65.36-.85s.6-.3 1.07-.3c.23 0 .43.03.62.1.18.07.34.16.48.28.13.12.23.26.29.43l-.54.24a.73.73 0 0 0-.33-.38 1.2 1.2 0 0 0-.56-.12c-.24 0-.42.05-.55.15s-.2.24-.2.42c0 .1.06.2.17.29s.27.16.49.22l.38.1q.375.09.63.27c.17.12.3.26.38.41s.13.32.13.49c0 .23-.06.43-.19.6-.12.17-.29.3-.5.39s-.45.13-.72.13Z" fill="#fffcef"/>
        <path d="M217.97 56.81c-.45 0-.8-.1-1.06-.31s-.38-.5-.38-.87q0-.585.39-.9c.39-.315.62-.31 1.09-.31h1.1v.52h-.96c-.36 0-.62.06-.77.18a.62.62 0 0 0-.23.51c0 .2.07.36.22.47.15.12.36.17.62.17.22 0 .41-.05.58-.14.16-.09.29-.23.38-.41s.13-.39.13-.63h.26c0 .52-.12.94-.36 1.25s-.58.47-1.03.47Zm1.16-.1-.03-.63v-1.4c0-.3-.03-.55-.1-.75a.9.9 0 0 0-.31-.45c-.14-.1-.33-.15-.56-.15-.21 0-.39.04-.54.13-.15.08-.28.22-.37.4l-.55-.22c.1-.18.21-.33.35-.47s.3-.23.49-.3c.18-.07.39-.1.63-.1.36 0 .66.07.89.21s.41.35.53.62c.12.28.18.62.17 1.02v2.09h-.58Z" fill="#fffcef"/>
        <path d="M221.88 56.81c-.28 0-.53-.04-.74-.13-.21-.08-.39-.2-.53-.33a1.2 1.2 0 0 1-.3-.46l.54-.22a1.08 1.08 0 0 0 .97.58c.24 0 .44-.05.61-.14a.45.45 0 0 0 .25-.4c0-.16-.06-.29-.18-.38s-.3-.18-.54-.24l-.37-.1c-.35-.09-.62-.23-.82-.42s-.29-.4-.29-.63c0-.36.12-.65.36-.85s.6-.3 1.07-.3c.23 0 .43.03.62.1.18.07.34.16.48.28.13.12.23.26.29.43l-.54.24a.73.73 0 0 0-.33-.38 1.2 1.2 0 0 0-.56-.12c-.24 0-.42.05-.55.15s-.2.24-.2.42c0 .1.06.2.17.29s.27.16.49.22l.38.1q.375.09.63.27c.17.12.3.26.38.41s.13.32.13.49c0 .23-.06.43-.19.6-.12.17-.29.3-.5.39s-.45.13-.72.13Z" fill="#fffcef"/>
        <path d="m223.73 57.6.44-1.62h.69l-.6 1.62z" fill="#fffcef"/>
        <path d="M227.3 56.71v-3.85h.58l.03.54c.12-.21.27-.36.46-.47.18-.11.4-.16.65-.16.31 0 .57.07.79.22s.38.36.47.65c.11-.28.27-.5.47-.65.21-.15.46-.22.74-.22.43 0 .77.14 1.02.43s.37.72.37 1.31v2.2h-.62v-1.97q0-.57-.12-.87c-.08-.2-.19-.34-.32-.41s-.29-.11-.46-.11c-.3 0-.54.12-.71.36s-.25.58-.25 1.01v1.99h-.62v-1.97q0-.57-.12-.87c-.12-.3-.19-.34-.32-.41a1 1 0 0 0-.46-.11c-.3 0-.53.12-.7.36s-.25.58-.25 1.01v1.99h-.62Z" fill="#fffcef"/>
        <path d="M234.91 56.81c-.45 0-.8-.1-1.06-.31s-.38-.5-.38-.87q0-.585.39-.9c.26-.21.62-.31 1.09-.31h1.1v.52h-.96c-.36 0-.61.06-.77.18s-.23.29-.23.51c0 .2.07.36.22.47.15.12.36.17.62.17.22 0 .41-.05.58-.14s.29-.23.38-.41.13-.39.13-.63h.26c0 .52-.12.94-.35 1.25s-.58.47-1.03.47Zm1.16-.1-.03-.63v-1.4c0-.3-.03-.55-.1-.75s-.17-.35-.32-.45c-.14-.1-.33-.15-.56-.15-.21 0-.39.04-.54.13-.15.08-.28.22-.38.4l-.55-.22c.1-.18.21-.33.35-.47s.3-.23.48-.3c.19-.07.4-.1.63-.1.36 0 .65.07.89.21.23.14.41.35.53.62.12.28.17.62.17 1.02v2.09h-.58Z" fill="#fffcef"/>
        <path d="M237.82 51.97q-.15 0-.27-.12a.37.37 0 0 1-.12-.27q0-.165.12-.27c.08-.07.17-.11.27-.11s.2.04.27.11.11.17.11.27-.04.19-.11.27q-.12.12-.27.12m-.31 4.74v-3.85h.62v3.85z" fill="#fffcef"/>
        <path d="M240.45 56.81c-.28 0-.53-.04-.74-.13-.21-.08-.39-.2-.53-.33a1.2 1.2 0 0 1-.3-.46l.54-.22c.09.17.22.32.39.42.17.11.37.16.58.16.24 0 .44-.05.61-.14s.25-.23.25-.4c0-.16-.06-.29-.18-.38q-.18-.15-.54-.24l-.37-.1c-.35-.09-.62-.23-.82-.42-.19-.19-.29-.4-.29-.63 0-.36.12-.65.36-.85s.59-.3 1.07-.3c.23 0 .43.03.62.1s.34.16.48.28c.13.12.23.26.29.43l-.54.24c-.07-.17-.18-.3-.33-.38s-.34-.12-.56-.12c-.24 0-.42.05-.55.15s-.2.24-.2.42c0 .1.05.2.17.29.11.09.27.16.49.22l.38.1q.375.09.63.27c.17.12.3.26.39.41s.13.32.13.49c0 .23-.06.43-.19.6-.12.17-.29.3-.5.39s-.45.13-.72.13Z" fill="#fffcef"/>
        <path d="M243.96 53.4v-.53h2.44v.53zm.71 3.31v-4.29c0-.4.09-.7.28-.9s.47-.3.86-.3c.1 0 .22.02.35.05.13.04.26.09.41.15l-.23.49c-.12-.05-.22-.08-.3-.11a.6.6 0 0 0-.21-.04c-.18 0-.31.06-.4.17-.09.12-.13.29-.13.54v4.24h-.62Z" fill="#fffcef"/>
        <path d="M247.32 51.97q-.15 0-.27-.12a.37.37 0 0 1-.12-.27q0-.165.12-.27c.08-.07.17-.11.27-.11s.2.04.27.11.11.17.11.27-.04.19-.11.27-.17.12-.27.12m-.31 4.74v-3.85h.62v3.85z" fill="#fffcef"/>
        <path d="M248.6 56.71v-3.85h.62v3.85zm.34-2.08c0-.42.08-.75.24-1.01s.36-.45.61-.58.51-.19.79-.19v.58c-.22 0-.44.04-.65.11s-.38.2-.51.37-.2.4-.2.69z" fill="#fffcef"/>
        <path d="M251.05 56.71v-3.85h.58l.03.54c.12-.21.27-.36.46-.47.18-.11.4-.16.65-.16.31 0 .57.07.79.22s.38.36.47.65c.11-.28.27-.5.47-.65.21-.15.46-.22.74-.22.43 0 .77.14 1.02.43s.37.72.37 1.31v2.2h-.62v-1.97q0-.57-.12-.87c-.08-.2-.19-.34-.32-.41s-.29-.11-.46-.11c-.3 0-.54.12-.71.36s-.25.58-.25 1.01v1.99h-.62v-1.97q0-.57-.12-.87c-.12-.3-.19-.34-.32-.41a1 1 0 0 0-.46-.11c-.3 0-.53.12-.7.36s-.25.58-.25 1.01v1.99h-.62Z" fill="#fffcef"/>
        <path d="M259.14 56.81c-.38 0-.71-.09-.99-.26-.29-.17-.51-.41-.67-.71s-.24-.65-.24-1.05.08-.74.24-1.05c.16-.3.38-.54.67-.71s.61-.26.98-.26.67.09.93.27.46.42.61.74c.14.32.22.69.22 1.12h-3.18l.15-.13c0 .31.05.57.17.79.11.22.27.39.46.5.2.12.43.17.69.17.27 0 .5-.06.69-.19s.33-.3.44-.51l.53.27c-.1.2-.23.38-.39.52-.16.15-.35.26-.57.35s-.46.12-.73.12Zm-1.25-2.3-.16-.12h2.66l-.16.13c0-.25-.05-.46-.14-.64q-.15-.27-.39-.42-.255-.15-.57-.15c-.315 0-.41.05-.6.15s-.34.23-.45.41c-.12.18-.17.39-.17.64Z" fill="#fffcef"/>
        <path d="M262.85 56.81c-.28 0-.53-.04-.74-.13-.21-.08-.39-.2-.53-.33a1.2 1.2 0 0 1-.3-.46l.54-.22a1.08 1.08 0 0 0 .97.58c.24 0 .44-.05.61-.14a.45.45 0 0 0 .25-.4c0-.16-.06-.29-.18-.38s-.3-.18-.54-.24l-.37-.1c-.35-.09-.62-.23-.82-.42s-.29-.4-.29-.63c0-.36.12-.65.36-.85s.6-.3 1.07-.3c.23 0 .43.03.62.1.18.07.34.16.48.28.13.12.23.26.29.43l-.54.24a.73.73 0 0 0-.33-.38 1.2 1.2 0 0 0-.56-.12c-.24 0-.42.05-.55.15s-.2.24-.2.42c0 .1.06.2.17.29s.27.16.49.22l.38.1q.375.09.63.27c.17.12.3.26.38.41s.13.32.13.49c0 .23-.06.43-.19.6-.12.17-.29.3-.5.39s-.45.13-.72.13Z" fill="#fffcef"/>
        <path d="M54.26 65.51c-.38 0-.71-.09-.99-.26-.29-.17-.51-.41-.67-.71q-.24-.45-.24-1.05c0-.6.08-.74.24-1.05.16-.3.38-.54.67-.71.28-.17.61-.26.98-.26s.67.09.93.27.46.42.61.74.22.69.22 1.12h-3.18l.15-.13c0 .31.05.57.17.79s.27.39.47.5c.2.12.43.17.69.17.27 0 .5-.06.69-.19s.33-.3.43-.51l.53.27c-.1.2-.23.38-.39.52-.16.15-.35.26-.57.35-.22.08-.46.12-.73.12Zm-1.25-2.3-.16-.12h2.66l-.16.13c0-.25-.05-.46-.15-.64q-.15-.27-.39-.42c-.17-.1-.35-.15-.57-.15s-.41.05-.6.15-.34.23-.45.41c-.12.18-.17.39-.17.64Z" fill="#fffcef"/>
        <path d="M60.09 65.51c-.38 0-.72-.09-1.01-.26s-.52-.41-.68-.71c-.17-.3-.25-.65-.25-1.05s.08-.74.24-1.05c.16-.3.39-.54.68-.71s.63-.26 1-.26.7.08.99.25.52.41.67.72l-.56.25q-.15-.315-.45-.48c-.2-.12-.42-.17-.67-.17s-.47.06-.67.19-.34.29-.46.51c-.11.22-.17.47-.17.75s.05.53.17.75c.11.22.26.39.46.51s.42.18.67.18.48-.06.67-.19q.3-.195.45-.54l.56.25c-.15.33-.38.59-.67.77s-.63.28-1 .28Z" fill="#fffcef"/>
        <path d="M64.09 65.51c-.38 0-.71-.09-1-.26s-.52-.41-.68-.71c-.17-.3-.25-.65-.25-1.05s.08-.74.24-1.05c.16-.3.39-.54.68-.71s.62-.26 1-.26.71.09 1 .26.52.41.68.71q.24.45.24 1.05c0 .6-.08.74-.24 1.05-.16.3-.39.54-.67.71-.29.17-.62.26-.99.26Zm-.01-.57c.25 0 .47-.06.67-.18q.285-.18.45-.51c.11-.22.17-.47.17-.75s-.05-.53-.17-.75a1.2 1.2 0 0 0-.46-.51c-.2-.12-.42-.19-.68-.19s-.47.06-.67.19-.34.29-.46.51-.17.47-.17.75.05.53.17.75c.11.22.26.39.46.51s.42.18.67.18Z" fill="#fffcef"/>
        <path d="M66.69 65.42v-3.85h.58l.03.54c.12-.21.27-.36.45-.47s.4-.16.65-.16c.31 0 .57.07.79.22.22.14.38.36.47.65.11-.28.27-.5.47-.65.21-.15.46-.22.74-.22.43 0 .77.14 1.02.43s.37.72.37 1.31v2.2h-.62v-1.97q0-.57-.12-.87c-.08-.2-.19-.34-.32-.41a1 1 0 0 0-.46-.11c-.3 0-.54.12-.71.36s-.25.58-.25 1.01v1.99h-.62v-1.97q0-.57-.12-.87c-.08-.2-.19-.34-.32-.41-.14-.07-.29-.11-.47-.11-.3 0-.53.12-.7.36s-.25.58-.25 1.01v1.99h-.62Z" fill="#fffcef"/>
        <path d="M74.84 65.42v-3.85h.58l.03.54c.12-.21.27-.36.45-.47s.4-.16.65-.16c.31 0 .57.07.79.22.22.14.38.36.47.65.11-.28.27-.5.47-.65.21-.15.46-.22.74-.22.43 0 .77.14 1.02.43s.37.72.37 1.31v2.2h-.62v-1.97q0-.57-.12-.87c-.08-.2-.19-.34-.32-.41a1 1 0 0 0-.46-.11c-.3 0-.54.12-.71.36s-.25.58-.25 1.01v1.99h-.62v-1.97q0-.57-.12-.87c-.08-.2-.19-.34-.32-.41-.14-.07-.29-.11-.47-.11-.3 0-.53.12-.7.36s-.25.58-.25 1.01v1.99h-.62Z" fill="#fffcef"/>
        <path d="M82.92 65.51c-.38 0-.71-.09-.99-.26-.29-.17-.51-.41-.67-.71q-.24-.45-.24-1.05c0-.6.08-.74.24-1.05.16-.3.38-.54.67-.71.28-.17.61-.26.98-.26s.67.09.93.27.46.42.61.74.22.69.22 1.12h-3.18l.15-.13c0 .31.05.57.17.79s.27.39.47.5c.2.12.43.17.69.17.27 0 .5-.06.69-.19s.33-.3.43-.51l.53.27c-.1.2-.23.38-.39.52-.16.15-.35.26-.57.35-.22.08-.46.12-.73.12Zm-1.24-2.3-.16-.12h2.66l-.16.13c0-.25-.05-.46-.15-.64q-.15-.27-.39-.42c-.17-.1-.35-.15-.57-.15s-.41.05-.6.15-.34.23-.45.41c-.12.18-.17.39-.17.64Z" fill="#fffcef"/>
        <path d="M85.29 65.42v-3.85h.58l.04.71v3.14zm2.7-1.98c0-.38-.04-.67-.13-.87s-.21-.34-.36-.41-.33-.11-.52-.11c-.34 0-.6.12-.79.36s-.28.58-.28 1.01h-.3c0-.41.06-.75.18-1.05.12-.29.29-.52.52-.67s.5-.23.82-.23.57.06.79.18.4.31.52.57.19.61.18 1.03v.18H88Zm0 1.98v-1.97h.62v1.97z" fill="#fffcef"/>
        <path d="M91.14 65.51c-.38 0-.71-.09-1-.26s-.52-.41-.68-.71c-.17-.3-.25-.65-.25-1.05s.08-.74.24-1.05c.16-.3.39-.54.68-.71s.62-.26 1-.26.71.09 1 .26.52.41.68.71q.24.45.24 1.05c0 .6-.08.74-.24 1.05-.16.3-.39.54-.67.71-.29.17-.62.26-.99.26Zm-.01-.57c.25 0 .47-.06.67-.18q.285-.18.45-.51c.11-.22.17-.47.17-.75s-.05-.53-.17-.75a1.2 1.2 0 0 0-.46-.51c-.2-.12-.42-.19-.68-.19s-.47.06-.67.19-.34.29-.46.51-.17.47-.17.75.05.53.17.75c.11.22.26.39.46.51s.42.18.67.18Z" fill="#fffcef"/>
        <path d="M95.09 65.51c-.28 0-.53-.04-.74-.13-.21-.08-.39-.2-.53-.33a1.2 1.2 0 0 1-.3-.46l.54-.22c.09.17.22.32.39.42.17.11.37.16.58.16.24 0 .44-.05.61-.14a.45.45 0 0 0 .25-.4c0-.16-.06-.29-.18-.38q-.18-.15-.54-.24l-.37-.1c-.35-.09-.62-.23-.82-.42-.19-.19-.29-.4-.29-.63 0-.36.12-.65.36-.85s.59-.3 1.07-.3c.23 0 .43.03.62.1.18.07.34.16.48.28.13.12.23.26.29.43l-.54.24a.73.73 0 0 0-.33-.38 1.2 1.2 0 0 0-.56-.12c-.24 0-.42.05-.55.15s-.2.24-.2.42c0 .1.06.2.17.29s.27.16.49.22l.38.1q.375.09.63.27c.17.12.3.26.39.41s.13.32.13.49c0 .23-.06.43-.19.6-.12.17-.29.3-.5.39s-.45.13-.72.13Z" fill="#fffcef"/>
        <path d="M100.63 65.51c-.38 0-.71-.09-1-.26s-.52-.41-.68-.71c-.17-.3-.25-.65-.25-1.05s.08-.74.24-1.05c.16-.3.39-.54.68-.71s.62-.26 1-.26.71.09 1 .26.52.41.68.71q.24.45.24 1.05c0 .6-.08.74-.24 1.05-.16.3-.39.54-.67.71-.29.17-.62.26-.99.26Zm0-.57c.25 0 .47-.06.67-.18q.285-.18.45-.51c.11-.22.17-.47.17-.75s-.05-.53-.17-.75a1.2 1.2 0 0 0-.46-.51c-.2-.12-.42-.19-.68-.19s-.47.06-.67.19-.34.29-.46.51-.17.47-.17.75.05.53.17.75c.11.22.26.39.46.51s.42.18.67.18Z" fill="#fffcef"/>
        <path d="M104.75 65.51c-.34 0-.65-.08-.91-.25s-.47-.41-.61-.71-.22-.66-.22-1.05.07-.75.22-1.05.35-.54.61-.71.56-.25.91-.25c.32 0 .61.08.85.25s.43.41.57.71c.13.3.2.65.2 1.05s-.07.75-.2 1.05-.32.54-.57.71c-.24.17-.53.25-.85.25m.14-.56q.345 0 .6-.18c.255-.18.31-.29.41-.52q.15-.33.15-.75c0-.42-.05-.53-.15-.75s-.24-.39-.41-.52-.38-.18-.61-.18-.46.06-.64.18-.33.29-.44.52c-.11.22-.16.47-.16.75s.05.53.16.75.26.39.45.52c.19.12.41.18.65.18Zm1.19.47-.03-.72v-4.67h.62v5.39z" fill="#fffcef"/>
        <path d="M109.3 65.51c-.38 0-.71-.09-1-.26s-.52-.41-.68-.71c-.17-.3-.25-.65-.25-1.05s.08-.74.24-1.05c.16-.3.39-.54.68-.71s.62-.26 1-.26.71.09 1 .26.52.41.68.71q.24.45.24 1.05c0 .6-.08.74-.24 1.05-.16.3-.39.54-.67.71-.29.17-.62.26-.99.26Zm-.01-.57c.25 0 .47-.06.67-.18q.285-.18.45-.51c.11-.22.17-.47.17-.75s-.05-.53-.17-.75a1.2 1.2 0 0 0-.46-.51c-.2-.12-.42-.19-.68-.19s-.47.06-.67.19-.34.29-.46.51-.17.47-.17.75.05.53.17.75c.11.22.26.39.46.51s.42.18.67.18Z" fill="#fffcef"/>
        <path d="M111.91 65.42v-3.85h.62v3.85zm.33-2.09c0-.42.08-.75.24-1.01s.36-.45.61-.58.51-.19.79-.19v.58c-.23 0-.44.04-.65.11s-.38.2-.51.37-.2.4-.2.69z" fill="#fffcef"/>
        <path d="m114.12 66.3.44-1.62h.69l-.6 1.62z" fill="#fffcef"/>
        <path d="M117.29 62.11v-.55h2.44v.55zm1.84 3.4c-.37 0-.67-.1-.87-.29s-.31-.47-.31-.82v-4.03h.62v3.96c0 .2.05.35.16.45s.25.16.44.16c.06 0 .12 0 .18-.03.06-.02.14-.06.23-.13l.24.5a1.2 1.2 0 0 1-.69.23" fill="#fffcef"/>
        <path d="M122.13 65.51c-.38 0-.71-.09-1-.26s-.52-.41-.68-.71c-.17-.3-.25-.65-.25-1.05s.08-.74.24-1.05c.16-.3.39-.54.68-.71s.62-.26 1-.26.71.09 1 .26.52.41.68.71q.24.45.24 1.05c0 .6-.08.74-.24 1.05-.16.3-.39.54-.67.71-.29.17-.62.26-.99.26Zm-.01-.57c.25 0 .47-.06.67-.18q.285-.18.45-.51c.11-.22.17-.47.17-.75s-.05-.53-.17-.75a1.2 1.2 0 0 0-.46-.51c-.2-.12-.42-.19-.68-.19s-.47.06-.67.19-.34.29-.46.51-.17.47-.17.75.05.53.17.75c.11.22.26.39.46.51s.42.18.67.18Z" fill="#fffcef"/>
        <path d="M124.73 65.42v-3.85h.62v3.85zm.34-2.09c0-.42.08-.75.24-1.01s.36-.45.61-.58.51-.19.79-.19v.58c-.23 0-.44.04-.65.11s-.38.2-.51.37-.2.4-.2.69z" fill="#fffcef"/>
        <path d="M127.18 65.42v-3.85h.58l.04.71v3.14zm2.7-1.98c0-.38-.04-.67-.13-.87s-.21-.34-.36-.41-.33-.11-.52-.11c-.34 0-.6.12-.79.36s-.28.58-.28 1.01h-.3c0-.41.06-.75.18-1.05.12-.29.29-.52.52-.67.22-.15.5-.23.82-.23s.56.06.79.18c.22.12.4.31.52.57s.19.61.18 1.03v.18h-.62Zm0 1.98v-1.97h.62v1.97z" fill="#fffcef"/>
        <path d="M132.54 65.51c-.45 0-.8-.1-1.06-.31s-.38-.5-.38-.87q0-.585.39-.9c.26-.21.62-.31 1.09-.31h1.1v.52h-.96c-.36 0-.61.06-.77.18s-.23.29-.23.51c0 .2.07.36.22.47.15.12.36.17.62.17.22 0 .41-.05.58-.14s.29-.23.38-.41.13-.39.13-.63h.26c0 .52-.12.94-.35 1.25s-.58.47-1.03.47Zm1.16-.09-.03-.63v-1.4c0-.3-.03-.55-.1-.75s-.17-.35-.32-.45c-.14-.1-.33-.15-.56-.15-.21 0-.39.04-.54.13-.15.08-.28.22-.38.4l-.55-.22c.1-.18.21-.33.35-.47s.3-.23.48-.3c.19-.07.4-.1.63-.1.36 0 .65.07.89.21.23.14.41.35.53.62.12.28.17.62.17 1.02v2.09h-.58Z" fill="#fffcef"/>
        <path d="M135.1 65.42v-3.85h.58l.04.71v3.14zm2.7-1.98c0-.38-.04-.67-.13-.87s-.21-.34-.36-.41-.33-.11-.52-.11c-.34 0-.6.12-.79.36s-.28.58-.28 1.01h-.3c0-.41.06-.75.18-1.05.12-.29.29-.52.52-.67.22-.15.5-.23.82-.23s.56.06.79.18c.22.12.4.31.52.57s.19.61.18 1.03v.18h-.62Zm0 1.98v-1.97h.62v1.97z" fill="#fffcef"/>
        <path d="M140.76 65.51c-.34 0-.65-.08-.91-.25s-.47-.41-.61-.71-.22-.66-.22-1.05.07-.75.22-1.05.35-.54.61-.71.56-.25.91-.25c.32 0 .61.08.85.25s.43.41.56.71.2.65.2 1.05-.07.75-.2 1.05c-.13.31-.32.54-.56.71s-.53.25-.85.25m.13-.56c.22 0 .43-.06.6-.18.18-.12.31-.29.41-.52q.15-.33.15-.75c0-.42-.05-.53-.15-.75s-.24-.39-.41-.52c-.17-.12-.38-.18-.61-.18a1.14 1.14 0 0 0-1.08.7c-.1.23-.16.47-.16.75s.05.53.16.75.26.39.45.52c.19.12.4.18.65.18Zm1.2.47-.03-.72v-4.67h.62v5.39z" fill="#fffcef"/>
        <path d="M145.31 65.51c-.38 0-.71-.09-1.01-.26-.29-.17-.52-.41-.68-.71-.17-.3-.25-.65-.25-1.05s.08-.74.24-1.05c.16-.3.39-.54.68-.71s.62-.26 1-.26.71.09 1 .26.52.41.68.71q.24.45.24 1.05c0 .6-.08.74-.24 1.05-.16.3-.39.54-.67.71-.29.17-.62.26-.99.26m-.01-.57c.25 0 .47-.06.67-.18s.34-.29.46-.51c.11-.22.16-.47.16-.75s-.05-.53-.16-.75-.26-.39-.46-.51-.42-.19-.68-.19-.47.06-.67.19c-.19.12-.34.29-.46.51-.11.22-.16.47-.16.75s.05.53.16.75.27.39.46.51.42.18.67.18Z" fill="#fffcef"/>
        <path d="M150.87 65.51c-.45 0-.8-.1-1.06-.31s-.38-.5-.38-.87q0-.585.39-.9c.26-.21.62-.31 1.09-.31h1.1v.52h-.96c-.36 0-.61.06-.77.18s-.23.29-.23.51c0 .2.07.36.22.47.15.12.36.17.62.17.22 0 .41-.05.58-.14s.29-.23.38-.41.13-.39.13-.63h.26c0 .52-.12.94-.35 1.25s-.58.47-1.03.47Zm1.16-.09-.03-.63v-1.4c0-.3-.03-.55-.1-.75s-.17-.35-.32-.45c-.14-.1-.33-.15-.56-.15-.21 0-.39.04-.54.13-.15.08-.28.22-.38.4l-.55-.22c.1-.18.21-.33.35-.47s.3-.23.48-.3c.19-.07.4-.1.63-.1.36 0 .65.07.89.21.23.14.41.35.53.62.12.28.17.62.17 1.02v2.09h-.58Z" fill="#fffcef"/>
        <path d="M155.18 65.42v-5.39h.62v5.39z" fill="#fffcef"/>
        <path d="M157.07 60.67q-.15 0-.27-.12a.37.37 0 0 1-.12-.27q0-.165.12-.27c.08-.07.17-.11.27-.11s.2.04.27.11.11.17.11.27-.04.19-.11.27-.17.12-.27.12m-.32 4.75v-3.85h.62v3.85z" fill="#fffcef"/>
        <path d="M158.35 65.42v-3.85h.58l.03.54c.12-.21.27-.36.45-.47.19-.11.4-.16.65-.16.31 0 .57.07.79.22.22.14.38.36.47.65.11-.28.27-.5.47-.65.21-.15.46-.22.74-.22.43 0 .77.14 1.02.43s.37.72.37 1.31v2.2h-.62v-1.97q0-.57-.12-.87c-.12-.3-.19-.34-.32-.41a1 1 0 0 0-.46-.11c-.3 0-.54.12-.71.36s-.25.58-.25 1.01v1.99h-.62v-1.97q0-.57-.12-.87c-.08-.2-.19-.34-.32-.41s-.29-.11-.47-.11c-.3 0-.53.12-.7.36s-.25.58-.25 1.01v1.99h-.62Z" fill="#fffcef"/>
        <path d="M164.79 66.96v-5.39h.58l.04.71v4.68zm1.91-1.45c-.32 0-.61-.08-.85-.25s-.43-.41-.56-.71c-.13-.31-.2-.66-.2-1.05s.07-.75.2-1.05.32-.54.56-.71.53-.25.85-.25c.34 0 .65.08.91.25s.47.41.61.71c.15.3.22.65.22 1.05s-.07.75-.22 1.05-.35.54-.61.71-.56.25-.91.25m-.14-.56c.24 0 .46-.06.64-.18s.34-.29.45-.51.17-.47.17-.76-.05-.53-.16-.75-.25-.39-.44-.52-.4-.18-.65-.18q-.345 0-.6.18-.27.18-.42.51c-.1.22-.15.47-.15.76s.05.53.15.75.24.39.41.52q.255.18.6.18" fill="#fffcef"/>
        <path d="M170.83 65.51c-.38 0-.71-.09-.99-.26-.29-.17-.51-.41-.67-.71q-.24-.45-.24-1.05c0-.6.08-.74.24-1.05.16-.3.38-.54.67-.71.28-.17.61-.26.98-.26s.67.09.93.27.46.42.61.74c.14.32.21.69.21 1.12h-3.18l.15-.13c0 .31.05.57.16.79s.27.39.47.5c.2.12.43.17.69.17.27 0 .5-.06.69-.19s.33-.3.43-.51l.53.27c-.1.2-.23.38-.39.52-.16.15-.35.26-.57.35-.22.08-.46.12-.73.12Zm-1.25-2.3-.16-.12h2.66l-.16.13c0-.25-.05-.46-.15-.64s-.23-.32-.39-.42-.35-.15-.57-.15-.41.05-.6.15-.34.23-.46.41-.17.39-.17.64" fill="#fffcef"/>
        <path d="M173 65.42v-.49l2.27-2.82H173v-.54h3.07v.48l-2.28 2.83h2.29v.54h-3.09Z" fill="#fffcef"/>
        <path d="M178.04 65.51c-.45 0-.8-.1-1.06-.31s-.38-.5-.38-.87q0-.585.39-.9c.39-.315.62-.31 1.09-.31h1.1v.52h-.96c-.36 0-.62.06-.77.18a.62.62 0 0 0-.23.51c0 .2.07.36.22.47.15.12.36.17.62.17.22 0 .41-.05.58-.14.16-.09.29-.23.38-.41s.13-.39.13-.63h.26c0 .52-.12.94-.36 1.25s-.58.47-1.03.47Zm1.15-.09-.03-.63v-1.4c0-.3-.03-.55-.1-.75a.9.9 0 0 0-.31-.45c-.14-.1-.33-.15-.56-.15-.21 0-.39.04-.54.13-.15.08-.28.22-.37.4l-.55-.22c.1-.18.21-.33.35-.47s.3-.23.49-.3c.18-.07.39-.1.63-.1.36 0 .66.07.89.21s.41.35.53.62c.12.28.18.62.17 1.02v2.09h-.58Z" fill="#fffcef"/>
        <path d="M182.34 65.42v-3.85h.58l.03.54c.12-.21.27-.36.45-.47.19-.11.4-.16.65-.16.31 0 .57.07.79.22.22.14.38.36.47.65.11-.28.27-.5.47-.65.21-.15.46-.22.74-.22.43 0 .77.14 1.02.43s.37.72.37 1.31v2.2h-.62v-1.97q0-.57-.12-.87c-.12-.3-.19-.34-.32-.41a1 1 0 0 0-.46-.11c-.3 0-.54.12-.71.36s-.25.58-.25 1.01v1.99h-.62v-1.97q0-.57-.12-.87c-.08-.2-.19-.34-.32-.41s-.29-.11-.47-.11c-.3 0-.53.12-.7.36s-.25.58-.25 1.01v1.99h-.62Z" fill="#fffcef"/>
        <path d="M188.64 63.54v-1.97h.62v1.97zm.62 0c0 .38.04.67.13.87s.21.34.37.41.33.11.53.11q.495 0 .78-.36c.285-.36.28-.58.28-1.01h.3c0 .41-.06.75-.18 1.05-.12.29-.29.52-.51.67s-.5.23-.82.23c-.3 0-.56-.06-.79-.18s-.4-.31-.52-.58-.19-.61-.19-1.03v-.18zm2.12 1.88-.04-.71v-3.14h.62v3.85z" fill="#fffcef"/>
        <path d="M193.24 60.67q-.15 0-.27-.12a.37.37 0 0 1-.12-.27q0-.165.12-.27c.08-.07.17-.11.27-.11s.2.04.27.11.11.17.11.27-.04.19-.11.27-.17.12-.27.12m-.32 4.75v-3.85h.62v3.85z" fill="#fffcef"/>
        <path d="M194.11 62.11v-.55h2.44v.55zm1.85 3.4c-.37 0-.66-.1-.87-.29s-.31-.47-.31-.82v-4.03h.62v3.96c0 .2.05.35.16.45s.25.16.44.16c.06 0 .12 0 .18-.03.06-.02.14-.06.23-.13l.24.5a1.2 1.2 0 0 1-.69.23" fill="#fffcef"/>
        <path d="M198.96 65.51c-.38 0-.71-.09-1.01-.26-.29-.17-.52-.41-.68-.71-.17-.3-.25-.65-.25-1.05s.08-.74.24-1.05c.16-.3.39-.54.68-.71s.62-.26 1-.26.71.09 1 .26.52.41.68.71q.24.45.24 1.05c0 .6-.08.74-.24 1.05-.16.3-.39.54-.67.71-.29.17-.62.26-.99.26m-.01-.57c.25 0 .47-.06.67-.18s.34-.29.46-.51c.11-.22.16-.47.16-.75s-.05-.53-.16-.75-.26-.39-.46-.51-.42-.19-.68-.19-.47.06-.67.19c-.19.12-.34.29-.46.51-.11.22-.16.47-.16.75s.05.53.16.75.27.39.46.51.42.18.67.18Z" fill="#fffcef"/>
        <path d="M203.31 65.42v-3.85h.58l.03.54c.12-.21.27-.36.45-.47.19-.11.4-.16.65-.16.31 0 .57.07.79.22.22.14.38.36.47.65.11-.28.27-.5.47-.65.21-.15.46-.22.74-.22.43 0 .77.14 1.02.43s.37.72.37 1.31v2.2h-.62v-1.97q0-.57-.12-.87c-.12-.3-.19-.34-.32-.41a1 1 0 0 0-.46-.11c-.3 0-.54.12-.71.36s-.25.58-.25 1.01v1.99h-.62v-1.97q0-.57-.12-.87c-.08-.2-.19-.34-.32-.41s-.29-.11-.47-.11c-.3 0-.53.12-.7.36s-.25.58-.25 1.01v1.99h-.62Z" fill="#fffcef"/>
        <path d="M210.92 65.51c-.45 0-.8-.1-1.06-.31s-.38-.5-.38-.87q0-.585.39-.9c.39-.315.62-.31 1.09-.31h1.1v.52h-.96c-.36 0-.62.06-.77.18a.62.62 0 0 0-.23.51c0 .2.07.36.22.47.15.12.36.17.62.17.22 0 .41-.05.58-.14.16-.09.29-.23.38-.41s.13-.39.13-.63h.26c0 .52-.12.94-.36 1.25s-.58.47-1.03.47Zm1.16-.09-.03-.63v-1.4c0-.3-.03-.55-.1-.75a.9.9 0 0 0-.31-.45c-.14-.1-.33-.15-.56-.15-.21 0-.39.04-.54.13-.15.08-.28.22-.37.4l-.55-.22c.1-.18.21-.33.35-.47s.3-.23.49-.3c.18-.07.39-.1.63-.1.36 0 .66.07.89.21s.41.35.53.62c.12.28.18.62.17 1.02v2.09h-.58Z" fill="#fffcef"/>
        <path d="M213.83 60.67q-.15 0-.27-.12a.37.37 0 0 1-.12-.27q0-.165.12-.27c.08-.07.17-.11.27-.11s.2.04.27.11.11.17.11.27-.04.19-.11.27q-.12.12-.27.12m-.31 4.75v-3.85h.62v3.85z" fill="#fffcef"/>
        <path d="M216.46 65.51c-.28 0-.53-.04-.74-.13-.21-.08-.39-.2-.53-.33a1.2 1.2 0 0 1-.3-.46l.54-.22a1.08 1.08 0 0 0 .97.58c.24 0 .44-.05.61-.14a.45.45 0 0 0 .25-.4c0-.16-.06-.29-.18-.38s-.3-.18-.54-.24l-.37-.1c-.35-.09-.62-.23-.82-.42s-.29-.4-.29-.63c0-.36.12-.65.36-.85s.6-.3 1.07-.3c.23 0 .43.03.62.1.18.07.34.16.48.28.13.12.23.26.29.43l-.54.24a.73.73 0 0 0-.33-.38 1.2 1.2 0 0 0-.56-.12c-.24 0-.42.05-.55.15s-.2.24-.2.42c0 .1.06.2.17.29s.27.16.49.22l.38.1q.375.09.63.27c.17.12.3.26.38.41s.13.32.13.49c0 .23-.06.43-.19.6-.12.17-.29.3-.5.39s-.45.13-.72.13Z" fill="#fffcef"/>
        <path d="M219.97 62.1v-.53h2.44v.53zm.71 3.32v-4.29c0-.4.09-.7.28-.9s.47-.3.86-.3c.1 0 .22.02.35.05.13.04.26.09.41.15l-.23.49c-.12-.05-.22-.08-.3-.11a.6.6 0 0 0-.21-.04c-.18 0-.31.06-.4.17-.09.12-.13.29-.13.54v4.24h-.62Z" fill="#fffcef"/>
        <path d="M224.17 65.51c-.45 0-.8-.1-1.06-.31s-.38-.5-.38-.87q0-.585.39-.9c.39-.315.62-.31 1.09-.31h1.1v.52h-.96c-.36 0-.62.06-.77.18a.62.62 0 0 0-.23.51c0 .2.07.36.22.47.15.12.36.17.62.17.22 0 .41-.05.58-.14.16-.09.29-.23.38-.41s.13-.39.13-.63h.26c0 .52-.12.94-.36 1.25s-.58.47-1.03.47Zm1.16-.09-.03-.63v-1.4c0-.3-.03-.55-.1-.75a.9.9 0 0 0-.31-.45c-.14-.1-.33-.15-.56-.15-.21 0-.39.04-.54.13-.15.08-.28.22-.37.4l-.55-.22c.1-.18.21-.33.35-.47s.3-.23.49-.3c.18-.07.39-.1.63-.1.36 0 .66.07.89.21s.41.35.53.62c.12.28.18.62.17 1.02v2.09h-.58Zm-1.5-4.4.9-.99h.79l-.99.99z" fill="#fffcef"/>
        <path d="M228.44 65.51c-.38 0-.72-.09-1.01-.26s-.52-.41-.68-.71c-.17-.3-.25-.65-.25-1.05s.08-.74.24-1.05c.16-.3.39-.54.68-.71s.63-.26 1-.26.7.08.99.25.52.41.67.72l-.56.25q-.15-.315-.45-.48c-.3-.165-.42-.17-.67-.17s-.47.06-.67.19c-.19.12-.34.29-.46.51-.11.22-.16.47-.16.75s.05.53.16.75.27.39.46.51.42.18.67.18.48-.06.67-.19.35-.31.45-.54l.56.25c-.15.33-.38.59-.67.77s-.62.28-1 .28Z" fill="#fffcef"/>
        <path d="M231.09 60.67q-.15 0-.27-.12a.37.37 0 0 1-.12-.27q0-.165.12-.27c.08-.07.17-.11.27-.11s.2.04.27.11.11.17.11.27-.04.19-.11.27q-.12.12-.27.12m-.32 4.75v-3.85h.62v3.85z" fill="#fffcef"/>
        <path d="M232.37 65.42v-5.39h.62v5.39z" fill="#fffcef"/>
        <path d="M234.17 65.52a.38.38 0 0 1-.3-.13.38.38 0 0 1-.13-.3c0-.12.04-.22.13-.3.08-.08.19-.13.3-.13s.22.04.3.13c.08.08.12.19.12.3s-.04.21-.12.3c-.08.08-.18.13-.3.13" fill="#fffcef"/>
        <path fill="#fffcef" d="M40.65 45.77c0 15.215-12.335 27.55-27.55 27.55s-27.55-12.335-27.55-27.55S-2.115 18.22 13.1 18.22s27.55 12.335 27.55 27.55"/>
        <path d="M25.98 46.03v14.06c0 .28-.23.5-.5.5H.72c-.28 0-.5-.23-.5-.5V46.03" fill="none" stroke="#00578a" stroke-miterlimit="10"/>
        <path d="M28.73 47.56c-.8 0-1.59-.34-2.14-.99L13.1 34.1-.39 46.57c-1 1.18-2.77 1.33-3.95.33s-1.33-2.77-.33-3.95l15.63-15c.53-.63 1.32-.99 2.14-.99s1.61.36 2.14.99l15.63 15c1 1.18.85 2.95-.33 3.95-.53.45-1.17.66-1.81.66Z" fill="none" stroke="#00578a" stroke-miterlimit="10"/>
        <path d="M14.66 60.57v-7.94c0-1.67 1.35-3.02 3.02-3.02s3.02 1.35 3.02 3.02v7.94" fill="none" stroke="#00578a" stroke-miterlimit="10"/>
        <path fill="none" stroke="#00578a" stroke-miterlimit="10" d="M10.52 47.85v4.73a.57.57 0 0 1-.57.57H5.22a.57.57 0 0 1-.57-.57v-4.73a.57.57 0 0 1 .57-.57h4.73a.57.57 0 0 1 .57.57z"/>
        <path d="M20.83 33.31v-3.1c0-.22.18-.4.4-.4h3.94c.22 0 .4.18.4.4v7.65" fill="none" stroke="#00578a" stroke-miterlimit="10"/>
    </g>
</svg>
