<?xml version="1.0" encoding="UTF-8"?>
<svg data-bbox="17.03 14.61 194.69 55.1" viewBox="0 0 250 100" xmlns="http://www.w3.org/2000/svg" data-type="color">
    <g>
        <path d="M83.97 27.01v-5.39h2.23c.41 0 .76.08 1.08.24.31.16.56.38.74.66s.27.61.27.98-.09.7-.27.98-.42.51-.74.67q-.465.24-1.08.24h-.81v1.62zm1.43-2.93h.77c.2 0 .35-.05.47-.16q.18-.165.18-.42c0-.255-.06-.31-.18-.42a.67.67 0 0 0-.47-.16h-.77z" fill="#fffcef" data-color="1"/>
        <path d="m88.38 27.01 2.06-5.39h1.42l-1.97 5.39zm.97-.87v-1.26h3.73v1.26zm3.18.87-1.97-5.39h1.42l2.06 5.39z" fill="#fffcef" data-color="1"/>
        <path d="M94.55 27.01v-5.39h1.42v4.08h2.22v1.31z" fill="#fffcef" data-color="1"/>
        <path d="m98.4 27.01 2.06-5.39h1.42l-1.97 5.39zm.97-.87v-1.26h3.73v1.26zm3.18.87-1.97-5.39H102l2.06 5.39z" fill="#fffcef" data-color="1"/>
        <path d="M104.58 27.01v-5.39h1.8c.59 0 1.11.12 1.57.35.45.23.81.55 1.07.95s.38.87.38 1.4-.13.99-.38 1.39c-.26.41-.61.72-1.07.95s-.98.35-1.57.35zm1.42-1.35h.38c.23 0 .43-.03.62-.1s.35-.16.49-.28.25-.26.32-.42c.08-.16.12-.35.12-.55a1.26 1.26 0 0 0-.44-.97c-.14-.12-.3-.21-.49-.28s-.4-.1-.62-.1H106v2.69Z" fill="#fffcef" data-color="1"/>
        <path d="m109.64 27.01 2.06-5.39h1.42l-1.97 5.39zm.98-.87v-1.26h3.73v1.26zm3.17.87-1.97-5.39h1.42l2.06 5.39z" fill="#fffcef" data-color="1"/>
        <path d="M115.82 27.01v-5.39h2.23c.41 0 .76.08 1.08.23.31.16.56.37.74.65.18.27.27.59.27.95s-.09.68-.27.96-.42.5-.74.65-.67.23-1.08.23h-.81V27h-1.42Zm1.43-3.02h.73c.13 0 .24-.02.34-.07s.17-.11.23-.19.08-.17.08-.28c0-.15-.06-.28-.18-.38a.72.72 0 0 0-.47-.15h-.73zm1.47 3.02-1.2-2.12 1.07-.8 1.76 2.92z" fill="#fffcef" data-color="1"/>
        <path d="M120.93 27.01v-5.39h3.61v1.31h-2.19v.75h1.77v1.27h-1.77v.75h2.24v1.31h-3.67Z" fill="#fffcef" data-color="1"/>
        <path d="M127.32 27.1a2.64 2.64 0 0 1-1.4-.39c-.2-.12-.36-.26-.49-.42a.95.95 0 0 1-.23-.5l1.42-.39q.075.195.24.33c.11.09.26.14.44.15.14 0 .27-.03.38-.12.11-.08.17-.19.17-.32 0-.09-.03-.17-.1-.25a.52.52 0 0 0-.3-.17l-.81-.21a1.9 1.9 0 0 1-.71-.33c-.2-.15-.35-.33-.45-.55-.11-.22-.16-.46-.16-.72 0-.53.18-.94.53-1.24s.85-.44 1.48-.44c.34 0 .64.04.9.13s.48.22.67.41.34.43.47.74l-1.41.41a.7.7 0 0 0-.2-.31c-.1-.1-.25-.15-.43-.15s-.31.04-.4.12-.14.19-.14.34q0 .135.12.24c.08.07.19.12.33.16l.82.21q.615.15.96.6c.23.3.35.64.35 1.03q0 .525-.24.9c-.16.25-.39.43-.7.56-.3.13-.67.19-1.09.19Z" fill="#fffcef" data-color="1"/>
        <path d="M131.83 27.01v-5.39h3.61v1.31h-2.19v.75h1.77v1.27h-1.77v.75h2.24v1.31h-3.67Z" fill="#fffcef" data-color="1"/>
        <path d="m135.96 27.01 2.09-2.94 1.68-2.45h1.7l-2.03 2.77-1.72 2.62zm3.81 0-1.72-2.62-2.04-2.77h1.7l1.69 2.44 2.09 2.95z" fill="#fffcef" data-color="1"/>
        <path d="M142.03 27.01v-5.39h1.42v5.39z" fill="#fffcef" data-color="1"/>
        <path d="M146.94 27.1q-.825 0-1.47-.36c-.43-.24-.76-.57-1-.99q-.36-.63-.36-1.44c0-.81.12-1.03.36-1.44s.57-.75 1-.99q.645-.36 1.47-.36c.36 0 .69.05.97.15s.52.24.73.42.38.38.52.61l-1.19.7q-.105-.165-.27-.3c-.11-.09-.23-.16-.36-.2s-.26-.07-.4-.07a1.3 1.3 0 0 0-1.19.71c-.12.22-.18.48-.18.77s.06.54.17.77.28.4.49.53.46.19.75.19c.21 0 .39-.04.55-.11s.29-.18.38-.32.14-.29.14-.47l1.36-.25c0 .54-.11 1-.32 1.36s-.5.64-.87.82-.79.27-1.27.27Zm-.1-2.03v-1.08h2.56v.79l-.81.28h-1.75Z" fill="#fffcef" data-color="1"/>
        <path d="M149.98 27.01v-5.39h3.61v1.31h-2.19v.75h1.77v1.27h-1.77v.75h2.24v1.31h-3.67Z" fill="#fffcef" data-color="1"/>
        <path d="M154.49 27.01v-5.39h1.5l2.1 2.96v-2.96h1.42v5.39h-1.42l-2.18-3.07v3.07z" fill="#fffcef" data-color="1"/>
        <path d="M161.63 27.01v-4.08h-1.52v-1.31h4.47v1.31h-1.52v4.08h-1.42Z" fill="#fffcef" data-color="1"/>
        <path d="M165.17 27.01v-5.39h3.61v1.31h-2.19v.75h1.77v1.27h-1.77v.75h2.24v1.31h-3.67Z" fill="#fffcef" data-color="1"/>
        <path d="M171.57 27.1a2.64 2.64 0 0 1-1.4-.39c-.2-.12-.36-.26-.49-.42a.95.95 0 0 1-.23-.5l1.42-.39q.075.195.24.33c.11.09.26.14.44.15.14 0 .27-.03.38-.12.11-.08.17-.19.17-.32 0-.09-.03-.17-.1-.25a.52.52 0 0 0-.3-.17l-.81-.21a1.9 1.9 0 0 1-.71-.33c-.2-.15-.35-.33-.45-.55-.11-.22-.16-.46-.16-.72 0-.53.18-.94.53-1.24s.85-.44 1.48-.44c.34 0 .64.04.9.13s.48.22.67.41.34.43.47.74l-1.41.41a.7.7 0 0 0-.2-.31c-.1-.1-.25-.15-.43-.15s-.31.04-.4.12-.14.19-.14.34q0 .135.12.24c.08.07.19.12.33.16l.82.21q.615.15.96.6c.23.3.35.64.35 1.03q0 .525-.24.9c-.16.25-.39.43-.7.56-.3.13-.67.19-1.09.19Z" fill="#fffcef" data-color="1"/>
        <path d="M86.5 35.8c-.51 0-.97-.12-1.36-.36q-.6-.36-.93-.99c-.23-.42-.34-.9-.34-1.44s.11-1.03.33-1.44c.22-.42.53-.75.92-.99s.84-.36 1.35-.36c.32 0 .63.06.93.17.3.12.56.28.8.48.24.21.42.45.55.72l-.56.28c-.1-.22-.24-.4-.42-.56s-.38-.28-.6-.37-.45-.13-.69-.13c-.38 0-.71.09-1.01.28s-.53.45-.7.77-.25.71-.25 1.14.08.81.25 1.15c.17.33.4.59.71.78.3.19.64.28 1.02.28.25 0 .48-.05.7-.15s.42-.24.6-.41q.27-.255.42-.6l.57.29c-.13.28-.32.53-.55.75s-.5.39-.8.52c-.3.12-.61.18-.94.18Z" fill="#fffcef" data-color="1"/>
        <path d="M91.31 35.8c-.38 0-.71-.09-1-.26s-.52-.41-.68-.71c-.17-.3-.25-.65-.25-1.05s.08-.74.24-1.05c.16-.3.39-.54.68-.71s.62-.26 1-.26.71.09 1 .26.52.41.68.71q.24.45.24 1.05c0 .6-.08.74-.24 1.05-.16.3-.39.54-.67.71-.29.17-.62.26-.99.26Zm-.01-.57c.25 0 .47-.06.67-.18q.285-.18.45-.51c.165-.33.17-.47.17-.75s-.05-.53-.17-.75-.26-.39-.46-.51-.42-.18-.68-.18-.47.06-.67.18c-.19.12-.34.29-.46.51-.11.22-.17.47-.17.75s.05.53.17.75.26.39.46.51.42.18.67.18Z" fill="#fffcef" data-color="1"/>
        <path d="M94.07 35.71v-3.85h.58l.03.54c.12-.21.27-.36.45-.47s.4-.16.65-.16c.31 0 .57.07.79.22.22.14.38.36.47.65.11-.28.27-.5.47-.65s.46-.22.74-.22c.43 0 .77.14 1.02.43s.37.72.37 1.31v2.2h-.62v-1.97q0-.57-.12-.87c-.08-.2-.19-.34-.32-.41a1 1 0 0 0-.46-.11c-.3 0-.54.12-.71.36s-.25.58-.25 1.01v1.99h-.62v-1.97q0-.57-.12-.87c-.08-.2-.19-.34-.32-.41-.14-.07-.29-.11-.47-.11-.3 0-.53.12-.7.36s-.25.58-.25 1.01v1.99h-.62Z" fill="#fffcef" data-color="1"/>
        <path d="M102.42 33.83v-1.97h.62v1.97zm.62 0c0 .38.04.67.13.87s.21.34.37.41.33.11.53.11q.495 0 .78-.36c.19-.24.28-.58.28-1.01h.3c0 .41-.06.75-.18 1.05s-.29.52-.51.67-.5.23-.82.23c-.3 0-.56-.06-.79-.18s-.4-.31-.52-.58c-.12-.26-.19-.61-.19-1.03v-.19h.62Zm2.12 1.88-.04-.71v-3.14h.62v3.85z" fill="#fffcef" data-color="1"/>
        <path d="M106.82 35.71v-3.85h.58l.03.54c.12-.21.27-.36.45-.47s.4-.16.65-.16c.31 0 .57.07.79.22.22.14.38.36.47.65.11-.28.27-.5.47-.65s.46-.22.74-.22c.43 0 .77.14 1.02.43s.37.72.37 1.31v2.2h-.62v-1.97q0-.57-.12-.87c-.08-.2-.19-.34-.32-.41a1 1 0 0 0-.46-.11c-.3 0-.54.12-.71.36s-.25.58-.25 1.01v1.99h-.62v-1.97q0-.57-.12-.87c-.08-.2-.19-.34-.32-.41-.14-.07-.29-.11-.47-.11-.3 0-.53.12-.7.36s-.25.58-.25 1.01v1.99h-.62Z" fill="#fffcef" data-color="1"/>
        <path d="M116.62 35.8c-.28 0-.53-.04-.74-.13-.21-.08-.39-.2-.53-.33q-.21-.21-.3-.45l.54-.22c.09.17.22.32.39.42.17.11.37.16.58.16.24 0 .44-.05.61-.14a.45.45 0 0 0 .25-.4c0-.16-.06-.29-.18-.38q-.18-.15-.54-.24l-.37-.1c-.35-.09-.62-.23-.82-.42-.19-.19-.29-.4-.29-.64 0-.36.12-.65.36-.85s.59-.3 1.07-.3c.23 0 .43.03.62.1s.34.16.48.28.23.26.29.43l-.54.24a.73.73 0 0 0-.33-.38 1.2 1.2 0 0 0-.56-.12c-.24 0-.42.05-.55.15s-.2.24-.2.42c0 .1.06.2.17.29s.27.16.49.22l.38.1q.375.09.63.27c.17.12.3.26.39.41s.13.32.13.49c0 .23-.06.43-.19.6-.12.17-.29.3-.5.39s-.45.13-.72.13Z" fill="#fffcef" data-color="1"/>
        <path d="M120.08 35.8c-.45 0-.8-.1-1.06-.31-.25-.21-.38-.5-.38-.87q0-.585.39-.9c.26-.21.62-.31 1.09-.31h1.1v.52h-.96c-.36 0-.61.06-.77.18a.62.62 0 0 0-.23.51c0 .2.07.36.22.47.15.12.36.17.62.17.22 0 .41-.05.58-.14.16-.1.29-.23.38-.41s.13-.39.13-.63h.26c0 .52-.12.94-.35 1.25s-.58.47-1.03.47Zm1.15-.09-.03-.63v-1.4c0-.3-.03-.55-.1-.75s-.17-.35-.32-.45-.33-.15-.56-.15c-.21 0-.39.04-.54.13-.15.08-.28.22-.37.4l-.55-.22c.1-.18.21-.33.35-.47s.3-.23.49-.3.4-.1.63-.1c.36 0 .66.07.89.21s.41.35.53.62.17.61.17 1.02v2.09h-.58Z" fill="#fffcef" data-color="1"/>
        <path d="M122.79 35.71v-5.39h.62v4.67l-.03.72h-.58Zm1.91.09c-.32 0-.61-.08-.85-.25s-.43-.41-.57-.71c-.13-.31-.2-.66-.2-1.05s.07-.75.2-1.06c.13-.3.32-.54.57-.71s.53-.25.85-.25c.34 0 .65.08.91.25s.47.41.61.71c.15.3.22.65.22 1.06s-.07.75-.22 1.05c-.15.31-.35.54-.61.71s-.57.25-.91.25m-.13-.56c.24 0 .46-.06.64-.18q.285-.18.45-.51c.165-.33.17-.47.17-.76s-.05-.53-.16-.75-.25-.39-.44-.52c-.19-.12-.4-.19-.65-.19-.23 0-.43.06-.6.19q-.27.18-.42.51c-.1.22-.15.47-.15.76s.05.53.15.75.24.39.41.52c.17.12.38.18.6.18" fill="#fffcef" data-color="1"/>
        <path d="M129.01 35.8c-.38 0-.71-.09-1-.26s-.52-.41-.68-.71c-.17-.3-.25-.65-.25-1.05s.08-.74.24-1.05c.16-.3.39-.54.68-.71s.62-.26 1-.26.71.09 1 .26.52.41.68.71q.24.45.24 1.05c0 .6-.08.74-.24 1.05-.16.3-.39.54-.67.71-.29.17-.62.26-.99.26Zm-.01-.57c.25 0 .47-.06.67-.18q.285-.18.45-.51c.165-.33.17-.47.17-.75s-.05-.53-.17-.75-.26-.39-.46-.51-.42-.18-.68-.18-.47.06-.67.18c-.19.12-.34.29-.46.51-.11.22-.17.47-.17.75s.05.53.17.75.26.39.46.51.42.18.67.18Z" fill="#fffcef" data-color="1"/>
        <path d="M131.76 35.71v-3.85h.62v3.85zm.34-2.09c0-.42.08-.75.24-1.01s.36-.45.61-.58.51-.19.79-.19v.58c-.23 0-.44.04-.65.11s-.38.2-.51.37-.2.4-.2.69z" fill="#fffcef" data-color="1"/>
        <path d="M136.62 30.96q-.15 0-.27-.12t-.12-.27c0-.15.04-.2.12-.27s.17-.11.27-.11.2.04.27.11.11.17.11.27-.04.19-.11.27q-.12.12-.27.12m-.31 4.75v-3.85h.62v3.85z" fill="#fffcef" data-color="1"/>
        <path d="M138.05 35.71v-3.85h.62v3.85zm.34-2.09c0-.42.08-.75.24-1.01s.36-.45.61-.58.51-.19.79-.19v.58c-.23 0-.44.04-.65.11s-.38.2-.51.37-.2.4-.2.69z" fill="#fffcef" data-color="1"/>
        <path d="M140.66 35.71v-3.85h.62v3.85zm.34-2.09c0-.42.08-.75.24-1.01s.36-.45.61-.58.51-.19.79-.19v.58c-.23 0-.44.04-.65.11s-.38.2-.51.37-.2.4-.2.69z" fill="#fffcef" data-color="1"/>
        <path d="M144.95 35.8c-.38 0-.71-.09-.99-.26-.29-.17-.51-.41-.67-.71q-.24-.45-.24-1.05c0-.6.08-.74.24-1.05.16-.3.38-.54.67-.71.28-.17.61-.26.98-.26s.67.09.93.27.46.42.61.74.22.69.22 1.12h-3.18l.15-.13c0 .31.05.57.17.79s.27.39.47.5c.2.12.43.17.69.17.27 0 .5-.06.69-.19s.33-.3.43-.51l.53.27c-.1.2-.23.37-.39.52s-.35.26-.57.35c-.22.08-.46.12-.73.12Zm-1.25-2.3-.16-.12h2.66l-.16.13c0-.25-.05-.46-.15-.64q-.15-.27-.39-.42c-.17-.1-.35-.15-.57-.15s-.41.05-.6.15-.34.23-.45.41-.17.39-.17.64Z" fill="#fffcef" data-color="1"/>
        <path d="M148.81 35.8c-.28 0-.53-.04-.74-.13-.21-.08-.39-.2-.53-.33q-.21-.21-.3-.45l.54-.22c.09.17.22.32.39.42.17.11.37.16.58.16.24 0 .44-.05.61-.14a.45.45 0 0 0 .25-.4c0-.16-.06-.29-.18-.38q-.18-.15-.54-.24l-.37-.1c-.35-.09-.62-.23-.82-.42-.19-.19-.29-.4-.29-.64 0-.36.12-.65.36-.85s.59-.3 1.07-.3c.23 0 .43.03.62.1s.34.16.48.28.23.26.29.43l-.54.24a.73.73 0 0 0-.33-.38 1.2 1.2 0 0 0-.56-.12c-.24 0-.42.05-.55.15s-.2.24-.2.42c0 .1.06.2.17.29s.27.16.49.22l.38.1q.375.09.63.27c.17.12.3.26.39.41s.13.32.13.49c0 .23-.06.43-.19.6-.12.17-.29.3-.5.39s-.45.13-.72.13Z" fill="#fffcef" data-color="1"/>
        <path d="M151.41 30.96q-.15 0-.27-.12t-.12-.27c0-.15.04-.2.12-.27s.17-.11.27-.11.2.04.27.11.11.17.11.27-.04.19-.11.27q-.12.12-.27.12m-.32 4.75v-3.85h.62v3.85z" fill="#fffcef" data-color="1"/>
        <path d="M154.19 35.8c-.28 0-.53-.04-.74-.13-.21-.08-.39-.2-.53-.33q-.21-.21-.3-.45l.54-.22c.09.17.22.32.39.42.17.11.37.16.58.16.24 0 .44-.05.61-.14a.45.45 0 0 0 .25-.4c0-.16-.06-.29-.18-.38q-.18-.15-.54-.24l-.37-.1c-.35-.09-.62-.23-.82-.42-.19-.19-.29-.4-.29-.64 0-.36.12-.65.36-.85s.59-.3 1.07-.3c.23 0 .43.03.62.1s.34.16.48.28.23.26.29.43l-.54.24a.73.73 0 0 0-.33-.38 1.2 1.2 0 0 0-.56-.12c-.24 0-.42.05-.55.15s-.2.24-.2.42c0 .1.06.2.17.29s.27.16.49.22l.38.1q.375.09.63.27c.17.12.3.26.39.41s.13.32.13.49c0 .23-.06.43-.19.6-.12.17-.29.3-.5.39s-.45.13-.72.13Z" fill="#fffcef" data-color="1"/>
        <path d="M156.03 32.4v-.55h2.44v.55zm1.84 3.4c-.37 0-.67-.1-.87-.29-.21-.19-.31-.47-.31-.82v-4.03h.62v3.97c0 .2.05.35.16.45.11.11.25.16.44.16.06 0 .12 0 .18-.03s.14-.06.23-.13l.24.5a1.2 1.2 0 0 1-.69.23Z" fill="#fffcef" data-color="1"/>
        <path d="m159.17 31.31.9-.99h.79l-.99.99zm.2 4.4v-3.85h.62v3.85z" fill="#fffcef" data-color="1"/>
        <path d="m162.26 35.71-1.61-3.85h.64l1.57 3.85zm.04 0 1.57-3.85h.65l-1.61 3.85z" fill="#fffcef" data-color="1"/>
        <path d="M166.72 35.8c-.38 0-.71-.09-.99-.26-.29-.17-.51-.41-.67-.71q-.24-.45-.24-1.05c0-.6.08-.74.24-1.05.16-.3.38-.54.67-.71.28-.17.61-.26.98-.26s.67.09.93.27.46.42.61.74.22.69.22 1.12h-3.18l.15-.13c0 .31.05.57.17.79s.27.39.47.5c.2.12.43.17.69.17.27 0 .5-.06.69-.19s.33-.3.43-.51l.53.27c-.1.2-.23.37-.39.52s-.35.26-.57.35c-.22.08-.46.12-.73.12Zm-1.25-2.3-.16-.12h2.66l-.16.13c0-.25-.05-.46-.15-.64q-.15-.27-.39-.42c-.17-.1-.35-.15-.57-.15s-.41.05-.6.15-.34.23-.45.41-.17.39-.17.64Z" fill="#fffcef" data-color="1"/>
        <path d="M169.24 35.71v-5.39h.62v5.39z" fill="#fffcef" data-color="1"/>
        <path d="M174.35 35.8c-.34 0-.65-.08-.91-.25s-.47-.41-.61-.71c-.15-.31-.22-.66-.22-1.05s.07-.75.22-1.06c.15-.3.35-.54.61-.71s.56-.25.91-.25c.32 0 .61.08.85.25s.43.41.57.71c.13.3.2.65.2 1.06s-.07.75-.2 1.05c-.13.31-.32.54-.57.71-.24.17-.53.25-.85.25m.14-.56q.345 0 .6-.18c.17-.12.31-.3.41-.52q.15-.33.15-.75c0-.42-.05-.53-.15-.75s-.24-.39-.41-.52c-.17-.12-.38-.19-.61-.19s-.46.06-.64.19c-.19.12-.33.29-.44.52-.11.22-.16.47-.16.75s.05.53.16.75.26.39.45.52c.19.12.41.18.65.18Zm1.16 2.01v-4.67l.03-.72h.59v5.39z" fill="#fffcef" data-color="1"/>
        <path d="M177.18 33.83v-1.97h.62v1.97zm.62 0c0 .38.04.67.13.87s.21.34.37.41.33.11.53.11q.495 0 .78-.36c.19-.24.28-.58.28-1.01h.3c0 .41-.06.75-.18 1.05s-.29.52-.51.67-.5.23-.82.23c-.3 0-.56-.06-.79-.18s-.4-.31-.52-.58c-.12-.26-.19-.61-.19-1.03v-.19h.62Zm2.12 1.88-.04-.71v-3.14h.62v3.85z" fill="#fffcef" data-color="1"/>
        <path d="M183.27 35.8c-.38 0-.71-.09-.99-.26-.29-.17-.51-.41-.67-.71q-.24-.45-.24-1.05c0-.6.08-.74.24-1.05.16-.3.38-.54.67-.71.28-.17.61-.26.98-.26s.67.09.93.27.46.42.61.74.22.69.22 1.12h-3.18l.15-.13c0 .31.05.57.17.79s.27.39.47.5c.2.12.43.17.69.17.27 0 .5-.06.69-.19s.33-.3.43-.51l.53.27c-.1.2-.23.37-.39.52s-.35.26-.57.35c-.22.08-.46.12-.73.12Zm-1.25-2.3-.16-.12h2.66l-.16.13c0-.25-.05-.46-.15-.64q-.15-.27-.39-.42c-.17-.1-.35-.15-.57-.15s-.41.05-.6.15-.34.23-.45.41-.17.39-.17.64Z" fill="#fffcef" data-color="1"/>
        <path d="M188.9 35.8c-.45 0-.8-.1-1.06-.31-.25-.21-.38-.5-.38-.87q0-.585.39-.9c.26-.21.62-.31 1.09-.31h1.1v.52h-.96c-.36 0-.61.06-.77.18a.62.62 0 0 0-.23.51c0 .2.07.36.22.47.15.12.36.17.62.17.22 0 .41-.05.58-.14.16-.1.29-.23.38-.41s.13-.39.13-.63h.26c0 .52-.12.94-.35 1.25s-.58.47-1.03.47Zm1.16-.09-.03-.63v-1.4c0-.3-.03-.55-.1-.75s-.17-.35-.32-.45-.33-.15-.56-.15c-.21 0-.39.04-.54.13-.15.08-.28.22-.37.4l-.55-.22c.1-.18.21-.33.35-.47s.3-.23.49-.3.4-.1.63-.1c.36 0 .66.07.89.21s.41.35.53.62.17.61.17 1.02v2.09h-.58Z" fill="#fffcef" data-color="1"/>
        <path d="M193.13 35.68a1.64 1.64 0 0 1-1.52-.94c-.14-.3-.22-.63-.22-1.01s.07-.73.22-1.03c.15-.29.35-.52.61-.69.26-.16.56-.25.91-.25.32 0 .61.08.85.25q.36.24.57.69c.14.3.2.64.2 1.03s-.07.72-.2 1.02-.32.52-.57.69c-.24.16-.52.25-.85.25Zm.02 1.66c-.25 0-.47-.02-.67-.07s-.38-.1-.52-.16q-.21-.09-.3-.15l.23-.5c.07.04.16.08.29.13.12.05.27.1.43.14.17.04.34.06.54.06.25 0 .47-.05.67-.15s.35-.26.46-.47.17-.49.17-.82v-3.49h.62v3.48c0 .44-.08.81-.25 1.11-.16.3-.39.52-.68.67s-.61.22-.98.22Zm.13-2.2c.23 0 .43-.06.6-.19.17-.12.31-.29.41-.5s.15-.46.15-.74-.05-.51-.15-.73c-.1-.21-.24-.38-.41-.5q-.255-.18-.6-.18c-.345 0-.46.06-.64.18-.19.12-.33.29-.44.5-.1.21-.16.46-.16.73s.05.53.16.74.26.38.44.5c.19.12.4.19.64.19" fill="#fffcef" data-color="1"/>
        <path d="M196.13 35.71v-3.85h.62v3.85zm.34-2.09c0-.42.08-.75.24-1.01s.36-.45.61-.58.51-.19.79-.19v.58c-.23 0-.44.04-.65.11s-.38.2-.51.37-.2.4-.2.69z" fill="#fffcef" data-color="1"/>
        <path d="M199.95 35.8c-.45 0-.8-.1-1.06-.31-.25-.21-.38-.5-.38-.87q0-.585.39-.9c.26-.21.62-.31 1.09-.31h1.1v.52h-.96c-.36 0-.61.06-.77.18a.62.62 0 0 0-.23.51c0 .2.07.36.22.47.15.12.36.17.62.17.22 0 .41-.05.58-.14.16-.1.29-.23.38-.41s.13-.39.13-.63h.26c0 .52-.12.94-.35 1.25s-.58.47-1.03.47Zm1.16-.09-.03-.63v-1.4c0-.3-.03-.55-.1-.75s-.17-.35-.32-.45-.33-.15-.56-.15c-.21 0-.39.04-.54.13-.15.08-.28.22-.37.4l-.55-.22c.1-.18.21-.33.35-.47s.3-.23.49-.3.4-.1.63-.1c.36 0 .66.07.89.21s.41.35.53.62.17.61.17 1.02v2.09h-.58Z" fill="#fffcef" data-color="1"/>
        <path d="M204.18 35.8c-.34 0-.65-.08-.91-.25s-.47-.41-.61-.71c-.15-.31-.22-.66-.22-1.05s.07-.75.22-1.06c.15-.3.35-.54.61-.71s.56-.25.91-.25c.32 0 .61.08.85.25s.43.41.57.71c.13.3.2.65.2 1.06s-.07.75-.2 1.05c-.13.31-.32.54-.57.71-.24.17-.53.25-.85.25m.14-.56q.345 0 .6-.18c.17-.12.31-.3.41-.52q.15-.33.15-.75c0-.42-.05-.53-.15-.75s-.24-.39-.41-.52c-.17-.12-.38-.19-.61-.19s-.46.06-.64.19c-.19.12-.33.29-.44.52-.11.22-.16.47-.16.75s.05.53.16.75.26.39.45.52c.19.12.41.18.65.18Zm1.19.47-.03-.72v-4.67h.62v5.39z" fill="#fffcef" data-color="1"/>
        <path d="M208.39 35.8c-.45 0-.8-.1-1.06-.31-.25-.21-.38-.5-.38-.87q0-.585.39-.9c.26-.21.62-.31 1.09-.31h1.1v.52h-.96c-.36 0-.61.06-.77.18a.62.62 0 0 0-.23.51c0 .2.07.36.22.47.15.12.36.17.62.17.22 0 .41-.05.58-.14.16-.1.29-.23.38-.41s.13-.39.13-.63h.26c0 .52-.12.94-.35 1.25s-.58.47-1.03.47Zm1.15-.09-.03-.63v-1.4c0-.3-.03-.55-.1-.75s-.17-.35-.32-.45-.33-.15-.56-.15c-.21 0-.39.04-.54.13-.15.08-.28.22-.37.4l-.55-.22c.1-.18.21-.33.35-.47s.3-.23.49-.3.4-.1.63-.1c.36 0 .66.07.89.21s.41.35.53.62.17.61.17 1.02v2.09h-.58Z" fill="#fffcef" data-color="1"/>
        <path d="M85.27 44.5c-.45 0-.8-.1-1.06-.31-.25-.21-.38-.5-.38-.87q0-.585.39-.9c.26-.21.62-.31 1.09-.31h1.1v.52h-.96c-.36 0-.61.06-.77.18a.62.62 0 0 0-.23.51c0 .2.07.36.22.47.15.12.36.17.62.17.22 0 .41-.05.58-.14.16-.1.29-.23.38-.41s.13-.39.13-.63h.26c0 .52-.12.94-.35 1.25s-.58.47-1.03.47Zm1.15-.09-.03-.63v-1.4c0-.3-.03-.55-.1-.75s-.17-.35-.32-.45-.33-.15-.56-.15c-.21 0-.39.04-.54.13-.15.08-.28.22-.37.4l-.55-.22c.1-.18.21-.33.35-.47s.3-.23.49-.3.4-.1.63-.1c.36 0 .66.07.89.21s.41.35.53.62.17.61.17 1.02v2.09h-.58Z" fill="#fffcef" data-color="1"/>
        <path d="M87.58 41.1v-.55h2.44v.55zm1.84 3.4c-.37 0-.67-.1-.87-.29-.21-.19-.31-.47-.31-.82v-4.03h.62v3.97c0 .2.05.35.16.45.11.11.25.16.44.16.06 0 .12 0 .18-.03s.14-.06.23-.13l.24.5a1.2 1.2 0 0 1-.69.23Z" fill="#fffcef" data-color="1"/>
        <path d="M92.55 44.5c-.38 0-.71-.09-.99-.26-.29-.17-.51-.41-.67-.71q-.24-.45-.24-1.05c0-.6.08-.74.24-1.05.16-.3.38-.54.67-.71.28-.17.61-.26.98-.26s.67.09.93.27.46.42.61.74.22.69.22 1.12h-3.18l.15-.13c0 .31.05.57.17.79s.27.39.47.5c.2.12.43.17.69.17.27 0 .5-.06.69-.19s.33-.3.43-.51l.53.27c-.1.2-.23.37-.39.52s-.35.26-.57.35c-.22.08-.46.12-.73.12Zm-1.25-2.3-.16-.12h2.66l-.16.13c0-.25-.05-.46-.15-.64q-.15-.27-.39-.42c-.17-.1-.35-.15-.57-.15s-.41.05-.6.15-.34.23-.45.41-.17.39-.17.64Zm.72-2.19.9-.99h.79l-.99.99z" fill="#fffcef" data-color="1"/>
        <path d="M98.69 44.5c-.38 0-.71-.09-1-.26s-.52-.41-.68-.71c-.17-.3-.25-.65-.25-1.05s.08-.74.24-1.05c.16-.3.39-.54.68-.71s.62-.26 1-.26.71.09 1 .26.52.41.68.71q.24.45.24 1.05c0 .6-.08.74-.24 1.05-.16.3-.39.54-.67.71-.29.17-.62.26-.99.26Zm-.01-.57c.25 0 .47-.06.67-.18q.285-.18.45-.51c.165-.33.17-.47.17-.75s-.05-.53-.17-.75-.26-.39-.46-.51-.42-.18-.68-.18-.47.06-.67.18c-.19.12-.34.29-.46.51-.11.22-.17.47-.17.75s.05.53.17.75.26.39.46.51.42.18.67.18Z" fill="#fffcef" data-color="1"/>
        <path d="M102.79 44.5c-.28 0-.53-.04-.74-.13-.21-.08-.39-.2-.53-.33q-.21-.21-.3-.45l.54-.22c.09.17.22.32.39.42.17.11.37.16.58.16.24 0 .44-.05.61-.14a.45.45 0 0 0 .25-.4c0-.16-.06-.29-.18-.38q-.18-.15-.54-.24l-.37-.1c-.35-.09-.62-.23-.82-.42-.19-.19-.29-.4-.29-.64 0-.36.12-.65.36-.85s.59-.3 1.07-.3c.23 0 .43.03.62.1s.34.16.48.28.23.26.29.43l-.54.24a.73.73 0 0 0-.33-.38 1.2 1.2 0 0 0-.56-.12c-.24 0-.42.05-.55.15s-.2.24-.2.42c0 .1.06.2.17.29s.27.16.49.22l.38.1q.375.09.63.27c.17.12.3.26.39.41s.13.32.13.49c0 .23-.06.43-.19.6-.12.17-.29.3-.5.39s-.45.13-.72.13Z" fill="#fffcef" data-color="1"/>
        <path d="M108.45 44.38a1.64 1.64 0 0 1-1.52-.94c-.14-.3-.22-.63-.22-1.01s.07-.73.22-1.03c.15-.29.35-.52.61-.69.26-.16.56-.25.91-.25.32 0 .61.08.85.25q.36.24.57.69c.14.3.2.64.2 1.03s-.07.72-.2 1.02-.32.52-.57.69c-.24.16-.52.25-.85.25Zm.02 1.66c-.25 0-.47-.02-.67-.07s-.38-.1-.52-.16q-.21-.09-.3-.15l.23-.5c.07.04.16.08.29.13.12.05.27.1.43.14.17.04.34.06.54.06.25 0 .47-.05.67-.15s.35-.26.46-.47.17-.49.17-.82v-3.49h.62v3.48c0 .44-.08.81-.25 1.11-.16.3-.39.52-.68.67s-.61.22-.98.22Zm.12-2.2c.23 0 .43-.06.6-.19.17-.12.31-.29.41-.5s.15-.46.15-.74-.05-.51-.15-.73c-.1-.21-.24-.38-.41-.5q-.255-.18-.6-.18c-.345 0-.46.06-.64.18-.19.12-.33.29-.44.5-.1.21-.16.46-.16.73s.05.53.16.74.26.38.44.5c.19.12.4.19.64.19" fill="#fffcef" data-color="1"/>
        <path d="M112.67 44.5c-.45 0-.8-.1-1.06-.31-.25-.21-.38-.5-.38-.87q0-.585.39-.9c.26-.21.62-.31 1.09-.31h1.1v.52h-.96c-.36 0-.61.06-.77.18a.62.62 0 0 0-.23.51c0 .2.07.36.22.47.15.12.36.17.62.17.22 0 .41-.05.58-.14.16-.1.29-.23.38-.41s.13-.39.13-.63h.26c0 .52-.12.94-.35 1.25s-.58.47-1.03.47Zm1.15-.09-.03-.63v-1.4c0-.3-.03-.55-.1-.75s-.17-.35-.32-.45-.33-.15-.56-.15c-.21 0-.39.04-.54.13-.15.08-.28.22-.37.4l-.55-.22c.1-.18.21-.33.35-.47s.3-.23.49-.3.4-.1.63-.1c.36 0 .66.07.89.21s.41.35.53.62.17.61.17 1.02v2.09h-.58Z" fill="#fffcef" data-color="1"/>
        <path d="M114.98 41.1v-.55h2.44v.55zm1.85 3.4c-.37 0-.67-.1-.87-.29-.21-.19-.31-.47-.31-.82v-4.03h.62v3.97c0 .2.05.35.16.45.11.11.25.16.44.16.06 0 .12 0 .18-.03s.14-.06.23-.13l.24.5a1.2 1.2 0 0 1-.69.23Z" fill="#fffcef" data-color="1"/>
        <path d="M119.97 44.5c-.38 0-.71-.09-1-.26s-.52-.41-.68-.71c-.17-.3-.25-.65-.25-1.05s.08-.74.24-1.05c.16-.3.39-.54.68-.71s.62-.26 1-.26.71.09 1 .26.52.41.68.71q.24.45.24 1.05c0 .6-.08.74-.24 1.05-.16.3-.39.54-.67.71-.29.17-.62.26-.99.26Zm0-.57c.25 0 .47-.06.67-.18q.285-.18.45-.51c.165-.33.17-.47.17-.75s-.05-.53-.17-.75-.26-.39-.46-.51-.42-.18-.68-.18-.47.06-.67.18c-.19.12-.34.29-.46.51-.11.22-.17.47-.17.75s.05.53.17.75.26.39.46.51.42.18.67.18Z" fill="#fffcef" data-color="1"/>
        <path d="M124.08 44.5c-.28 0-.53-.04-.74-.13-.21-.08-.39-.2-.53-.33q-.21-.21-.3-.45l.54-.22c.09.17.22.32.39.42.17.11.37.16.58.16.24 0 .44-.05.61-.14a.45.45 0 0 0 .25-.4c0-.16-.06-.29-.18-.38q-.18-.15-.54-.24l-.37-.1c-.35-.09-.62-.23-.82-.42-.19-.19-.29-.4-.29-.64 0-.36.12-.65.36-.85s.59-.3 1.07-.3c.23 0 .43.03.62.1s.34.16.48.28.23.26.29.43l-.54.24a.73.73 0 0 0-.33-.38 1.2 1.2 0 0 0-.56-.12c-.24 0-.42.05-.55.15s-.2.24-.2.42c0 .1.06.2.17.29s.27.16.49.22l.38.1q.375.09.63.27c.17.12.3.26.39.41s.13.32.13.49c0 .23-.06.43-.19.6-.12.17-.29.3-.5.39s-.45.13-.72.13Z" fill="#fffcef" data-color="1"/>
        <path d="M128.22 44.41v-3.85h.58l.03.54c.12-.21.27-.36.45-.47s.4-.16.65-.16c.31 0 .57.07.79.22.22.14.38.36.47.65.11-.28.27-.5.47-.65s.46-.22.74-.22c.43 0 .77.14 1.02.43s.37.72.37 1.31v2.2h-.62v-1.97q0-.57-.12-.87c-.08-.2-.19-.34-.32-.41a1 1 0 0 0-.46-.11c-.3 0-.54.12-.71.36s-.25.58-.25 1.01v1.99h-.62v-1.97q0-.57-.12-.87c-.08-.2-.19-.34-.32-.41-.14-.07-.29-.11-.47-.11-.3 0-.53.12-.7.36s-.25.58-.25 1.01v1.99h-.62Z" fill="#fffcef" data-color="1"/>
        <path d="M135.99 44.5c-.45 0-.8-.1-1.06-.31-.25-.21-.38-.5-.38-.87q0-.585.39-.9c.26-.21.62-.31 1.09-.31h1.1v.52h-.96c-.36 0-.61.06-.77.18a.62.62 0 0 0-.23.51c0 .2.07.36.22.47.15.12.36.17.62.17.22 0 .41-.05.58-.14.16-.1.29-.23.38-.41s.13-.39.13-.63h.26c0 .52-.12.94-.35 1.25s-.58.47-1.03.47Zm1.15-.09-.03-.63v-1.4c0-.3-.03-.55-.1-.75s-.17-.35-.32-.45-.33-.15-.56-.15c-.21 0-.39.04-.54.13-.15.08-.28.22-.37.4l-.55-.22c.1-.18.21-.33.35-.47s.3-.23.49-.3.4-.1.63-.1c.36 0 .66.07.89.21s.41.35.53.62.17.61.17 1.02v2.09h-.58Z" fill="#fffcef" data-color="1"/>
        <path d="M139.05 39.66q-.15 0-.27-.12t-.12-.27c0-.15.04-.2.12-.27s.17-.11.27-.11.2.04.27.11.11.17.11.27-.04.19-.11.27q-.12.12-.27.12m-.31 4.75v-3.85h.62v3.85z" fill="#fffcef" data-color="1"/>
        <path d="M141.83 44.5c-.28 0-.53-.04-.74-.13-.21-.08-.39-.2-.53-.33q-.21-.21-.3-.45l.54-.22c.09.17.22.32.39.42.17.11.37.16.58.16.24 0 .44-.05.61-.14a.45.45 0 0 0 .25-.4c0-.16-.06-.29-.18-.38q-.18-.15-.54-.24l-.37-.1c-.35-.09-.62-.23-.82-.42-.19-.19-.29-.4-.29-.64 0-.36.12-.65.36-.85s.59-.3 1.07-.3c.23 0 .43.03.62.1s.34.16.48.28.23.26.29.43l-.54.24a.73.73 0 0 0-.33-.38 1.2 1.2 0 0 0-.56-.12c-.24 0-.42.05-.55.15s-.2.24-.2.42c0 .1.06.2.17.29s.27.16.49.22l.38.1q.375.09.63.27c.17.12.3.26.39.41s.13.32.13.49c0 .23-.06.43-.19.6-.12.17-.29.3-.5.39s-.45.13-.72.13Z" fill="#fffcef" data-color="1"/>
        <path d="M147.66 44.5c-.38 0-.71-.09-.99-.26-.29-.17-.51-.41-.67-.71q-.24-.45-.24-1.05c0-.6.08-.74.24-1.05.16-.3.38-.54.67-.71.28-.17.61-.26.98-.26s.67.09.93.27.46.42.61.74.22.69.22 1.12h-3.18l.15-.13c0 .31.05.57.17.79s.27.39.47.5c.2.12.43.17.69.17.27 0 .5-.06.69-.19s.33-.3.43-.51l.53.27c-.1.2-.23.37-.39.52s-.35.26-.57.35c-.22.08-.46.12-.73.12Zm-1.25-2.3-.16-.12h2.66l-.16.13c0-.25-.05-.46-.15-.64q-.15-.27-.39-.42c-.17-.1-.35-.15-.57-.15s-.41.05-.6.15-.34.23-.45.41-.17.39-.17.64Z" fill="#fffcef" data-color="1"/>
        <path d="m149.68 44.41 1.57-2.21 1.11-1.64h.73l-1.46 2.08-1.2 1.77zm2.76 0-1.19-1.77-1.48-2.08h.73l1.12 1.64 1.55 2.21h-.74Z" fill="#fffcef" data-color="1"/>
        <path d="M154.15 39.66q-.15 0-.27-.12t-.12-.27c0-.15.04-.2.12-.27s.17-.11.27-.11.2.04.27.11.11.17.11.27-.04.19-.11.27q-.12.12-.27.12m-.31 4.75v-3.85h.62v3.85z" fill="#fffcef" data-color="1"/>
        <path d="M157.1 44.38a1.64 1.64 0 0 1-1.52-.94c-.14-.3-.22-.63-.22-1.01s.07-.73.22-1.03c.15-.29.35-.52.61-.69.26-.16.56-.25.91-.25.32 0 .61.08.85.25q.36.24.57.69c.14.3.2.64.2 1.03s-.07.72-.2 1.02-.32.52-.57.69c-.24.16-.52.25-.85.25Zm.02 1.66c-.25 0-.47-.02-.67-.07s-.38-.1-.52-.16q-.21-.09-.3-.15l.23-.5c.07.04.16.08.29.13.12.05.27.1.43.14.17.04.34.06.54.06.25 0 .47-.05.67-.15s.35-.26.46-.47.17-.49.17-.82v-3.49h.62v3.48c0 .44-.08.81-.25 1.11-.16.3-.39.52-.68.67s-.61.22-.98.22Zm.13-2.2c.23 0 .43-.06.6-.19.17-.12.31-.29.41-.5s.15-.46.15-.74-.05-.51-.15-.73c-.1-.21-.24-.38-.41-.5q-.255-.18-.6-.18c-.345 0-.46.06-.64.18-.19.12-.33.29-.44.5-.1.21-.16.46-.16.73s.05.53.16.74.26.38.44.5c.19.12.4.19.64.19" fill="#fffcef" data-color="1"/>
        <path d="M161.79 44.5c-.38 0-.71-.09-.99-.26-.29-.17-.51-.41-.67-.71q-.24-.45-.24-1.05c0-.6.08-.74.24-1.05.16-.3.38-.54.67-.71.28-.17.61-.26.98-.26s.67.09.93.27.46.42.61.74.22.69.22 1.12h-3.18l.15-.13c0 .31.05.57.17.79s.27.39.47.5c.2.12.43.17.69.17.27 0 .5-.06.69-.19s.33-.3.43-.51l.53.27c-.1.2-.23.37-.39.52s-.35.26-.57.35c-.22.08-.46.12-.73.12Zm-1.25-2.3-.16-.12h2.66l-.16.13c0-.25-.05-.46-.15-.64q-.15-.27-.39-.42c-.17-.1-.35-.15-.57-.15s-.41.05-.6.15-.34.23-.45.41-.17.39-.17.64Z" fill="#fffcef" data-color="1"/>
        <path d="M164.31 44.41v-3.85h.58l.04.71v3.14zm2.7-1.97c0-.38-.04-.67-.13-.87s-.21-.34-.36-.41a1.2 1.2 0 0 0-.52-.11c-.34 0-.6.12-.79.36s-.28.58-.28 1.01h-.3c0-.41.06-.75.18-1.05.12-.29.29-.52.52-.67s.5-.23.82-.23.57.06.79.18.4.31.52.57c.13.26.19.61.18 1.03v.18h-.62Zm0 1.97v-1.97h.62v1.97z" fill="#fffcef" data-color="1"/>
        <path d="M168.21 41.1v-.55h2.44v.55zm1.84 3.4c-.37 0-.67-.1-.87-.29-.21-.19-.31-.47-.31-.82v-4.03h.62v3.97c0 .2.05.35.16.45.11.11.25.16.44.16.06 0 .12 0 .18-.03s.14-.06.23-.13l.24.5a1.2 1.2 0 0 1-.69.23Z" fill="#fffcef" data-color="1"/>
        <path d="M173.18 44.5c-.38 0-.71-.09-.99-.26-.29-.17-.51-.41-.67-.71q-.24-.45-.24-1.05c0-.6.08-.74.24-1.05.16-.3.38-.54.67-.71.28-.17.61-.26.98-.26s.67.09.93.27.46.42.61.74.22.69.22 1.12h-3.18l.15-.13c0 .31.05.57.17.79s.27.39.47.5c.2.12.43.17.69.17.27 0 .5-.06.69-.19s.33-.3.43-.51l.53.27c-.1.2-.23.37-.39.52s-.35.26-.57.35c-.22.08-.46.12-.73.12Zm-1.25-2.3-.16-.12h2.66l-.16.13c0-.25-.05-.46-.15-.64q-.15-.27-.39-.42c-.17-.1-.35-.15-.57-.15s-.41.05-.6.15-.34.23-.45.41-.17.39-.17.64Z" fill="#fffcef" data-color="1"/>
        <path d="M177.04 44.5c-.28 0-.53-.04-.74-.13-.21-.08-.39-.2-.53-.33q-.21-.21-.3-.45l.54-.22c.09.17.22.32.39.42.17.11.37.16.58.16.24 0 .44-.05.61-.14a.45.45 0 0 0 .25-.4c0-.16-.06-.29-.18-.38q-.18-.15-.54-.24l-.37-.1c-.35-.09-.62-.23-.82-.42-.19-.19-.29-.4-.29-.64 0-.36.12-.65.36-.85s.59-.3 1.07-.3c.23 0 .43.03.62.1s.34.16.48.28.23.26.29.43l-.54.24a.73.73 0 0 0-.33-.38 1.2 1.2 0 0 0-.56-.12c-.24 0-.42.05-.55.15s-.2.24-.2.42c0 .1.06.2.17.29s.27.16.49.22l.38.1q.375.09.63.27c.17.12.3.26.39.41s.13.32.13.49c0 .23-.06.43-.19.6-.12.17-.29.3-.5.39s-.45.13-.72.13Z" fill="#fffcef" data-color="1"/>
        <path d="m179.05 45.29.44-1.62h.69l-.6 1.62z" fill="#fffcef" data-color="1"/>
        <path d="M184.64 44.5c-.38 0-.72-.09-1.01-.26s-.52-.41-.68-.71c-.17-.3-.25-.65-.25-1.05s.08-.74.24-1.05c.16-.3.39-.54.68-.71s.63-.26 1-.26.7.08.99.25.52.41.67.72l-.56.25q-.15-.315-.45-.48c-.2-.12-.42-.17-.67-.17s-.47.06-.67.18c-.19.12-.34.29-.46.51s-.17.47-.17.75.05.53.17.75.26.39.46.51.42.18.67.18.48-.06.67-.19q.3-.195.45-.54l.56.25c-.15.33-.38.58-.67.77-.29.18-.63.28-1 .28Z" fill="#fffcef" data-color="1"/>
        <path d="M188.8 44.5c-.38 0-.71-.09-1-.26s-.52-.41-.68-.71c-.17-.3-.25-.65-.25-1.05s.08-.74.24-1.05c.16-.3.39-.54.68-.71s.62-.26 1-.26.71.09 1 .26.52.41.68.71q.24.45.24 1.05c0 .6-.08.74-.24 1.05-.16.3-.39.54-.67.71-.29.17-.62.26-.99.26Zm-.01-.57c.25 0 .47-.06.67-.18q.285-.18.45-.51c.165-.33.17-.47.17-.75s-.05-.53-.17-.75-.26-.39-.46-.51-.42-.18-.68-.18-.47.06-.67.18c-.19.12-.34.29-.46.51-.11.22-.17.47-.17.75s.05.53.17.75.26.39.46.51.42.18.67.18Z" fill="#fffcef" data-color="1"/>
        <path d="M191.56 44.41v-5.39h.62v5.39z" fill="#fffcef" data-color="1"/>
        <path d="M194.47 44.5c-.45 0-.8-.1-1.06-.31-.25-.21-.38-.5-.38-.87q0-.585.39-.9c.26-.21.62-.31 1.09-.31h1.1v.52h-.96c-.36 0-.61.06-.77.18a.62.62 0 0 0-.23.51c0 .2.07.36.22.47.15.12.36.17.62.17.22 0 .41-.05.58-.14.16-.1.29-.23.38-.41s.13-.39.13-.63h.26c0 .52-.12.94-.35 1.25s-.58.47-1.03.47Zm1.15-.09-.03-.63v-1.4c0-.3-.03-.55-.1-.75s-.17-.35-.32-.45-.33-.15-.56-.15c-.21 0-.39.04-.54.13-.15.08-.28.22-.37.4l-.55-.22c.1-.18.21-.33.35-.47s.3-.23.49-.3.4-.1.63-.1c.36 0 .66.07.89.21s.41.35.53.62.17.61.17 1.02v2.09h-.58Z" fill="#fffcef" data-color="1"/>
        <path d="M197.18 44.41v-5.39h.62v4.67l-.03.72h-.58Zm1.92.09c-.32 0-.61-.08-.85-.25s-.43-.41-.57-.71c-.13-.31-.2-.66-.2-1.05s.07-.75.2-1.06c.13-.3.32-.54.57-.71s.53-.25.85-.25c.34 0 .65.08.91.25s.47.41.61.71c.15.3.22.65.22 1.06s-.07.75-.22 1.05c-.15.31-.35.54-.61.71s-.57.25-.91.25m-.14-.56c.24 0 .46-.06.64-.18q.285-.18.45-.51c.165-.33.17-.47.17-.76s-.05-.53-.16-.75-.25-.39-.44-.52c-.19-.12-.4-.19-.65-.19-.23 0-.43.06-.6.19q-.27.18-.42.51c-.1.22-.15.47-.15.76s.05.53.15.75.24.39.41.52c.17.12.38.18.6.18" fill="#fffcef" data-color="1"/>
        <path d="M203.4 44.5c-.38 0-.71-.09-1-.26s-.52-.41-.68-.71c-.17-.3-.25-.65-.25-1.05s.08-.74.24-1.05c.16-.3.39-.54.68-.71s.62-.26 1-.26.71.09 1 .26.52.41.68.71q.24.45.24 1.05c0 .6-.08.74-.24 1.05-.16.3-.39.54-.67.71-.29.17-.62.26-.99.26Zm-.01-.57c.25 0 .47-.06.67-.18q.285-.18.45-.51c.165-.33.17-.47.17-.75s-.05-.53-.17-.75-.26-.39-.46-.51-.42-.18-.68-.18-.47.06-.67.18c-.19.12-.34.29-.46.51-.11.22-.17.47-.17.75s.05.53.17.75.26.39.46.51.42.18.67.18Z" fill="#fffcef" data-color="1"/>
        <path d="M206.16 44.41v-3.85h.62v3.85zm.34-2.09c0-.42.08-.75.24-1.01s.36-.45.61-.58.51-.19.79-.19v.58c-.23 0-.44.04-.65.11s-.38.2-.51.37-.2.4-.2.69z" fill="#fffcef" data-color="1"/>
        <path d="M209.98 44.5c-.45 0-.8-.1-1.06-.31-.25-.21-.38-.5-.38-.87q0-.585.39-.9c.26-.21.62-.31 1.09-.31h1.1v.52h-.96c-.36 0-.61.06-.77.18a.62.62 0 0 0-.23.51c0 .2.07.36.22.47.15.12.36.17.62.17.22 0 .41-.05.58-.14.16-.1.29-.23.38-.41s.13-.39.13-.63h.26c0 .52-.12.94-.35 1.25s-.58.47-1.03.47Zm1.15-.09-.03-.63v-1.4c0-.3-.03-.55-.1-.75s-.17-.35-.32-.45-.33-.15-.56-.15c-.21 0-.39.04-.54.13-.15.08-.28.22-.37.4l-.55-.22c.1-.18.21-.33.35-.47s.3-.23.49-.3.4-.1.63-.1c.36 0 .66.07.89.21s.41.35.53.62.17.61.17 1.02v2.09h-.58Z" fill="#fffcef" data-color="1"/>
        <path d="M84.09 54.65v-5.39h.58l.04.71v4.68zm1.92-1.45c-.32 0-.61-.08-.85-.25s-.43-.41-.57-.71c-.13-.3-.2-.66-.2-1.05s.07-.75.2-1.06c.13-.3.32-.54.57-.71.24-.17.53-.25.85-.25.34 0 .65.08.91.25s.47.41.61.71c.15.3.22.65.22 1.06s-.07.75-.22 1.05c-.15.31-.35.54-.61.71s-.56.25-.91.25m-.14-.56c.24 0 .46-.06.64-.18s.34-.29.45-.51.17-.47.17-.76-.05-.53-.16-.75c-.1-.22-.25-.39-.44-.52-.19-.12-.4-.19-.65-.19-.23 0-.43.06-.6.19q-.27.18-.42.51c-.1.22-.15.47-.15.76s.05.53.15.75.24.39.41.52q.255.18.6.18" fill="#fffcef" data-color="1"/>
        <path d="M89.82 53.2c-.45 0-.8-.1-1.06-.31-.25-.21-.38-.5-.38-.87q0-.585.39-.9c.26-.21.62-.31 1.09-.31h1.1v.52H90c-.36 0-.61.06-.77.18a.62.62 0 0 0-.23.51c0 .2.07.36.22.47.15.12.36.17.62.17.22 0 .41-.05.58-.14.16-.09.29-.23.38-.41s.13-.39.13-.63h.26c0 .52-.12.94-.35 1.25s-.58.47-1.03.47Zm1.15-.09-.03-.63v-1.4c0-.3-.03-.55-.1-.75s-.17-.35-.32-.45-.33-.15-.56-.15c-.21 0-.39.04-.54.13-.15.08-.28.22-.37.4l-.55-.22c.1-.18.21-.33.35-.47s.3-.23.49-.3.4-.1.63-.1c.36 0 .66.07.89.21s.41.35.53.62.17.61.17 1.02v2.09h-.58Z" fill="#fffcef" data-color="1"/>
        <path d="M92.53 53.11v-3.85h.62v3.85zm.34-2.09c0-.42.08-.75.24-1.01s.36-.45.61-.58.51-.19.79-.19v.58c-.23 0-.44.04-.65.11s-.38.2-.51.37-.2.4-.2.69z" fill="#fffcef" data-color="1"/>
        <path d="M96.35 53.2c-.45 0-.8-.1-1.06-.31-.25-.21-.38-.5-.38-.87q0-.585.39-.9c.26-.21.62-.31 1.09-.31h1.1v.52h-.96c-.36 0-.61.06-.77.18a.62.62 0 0 0-.23.51c0 .2.07.36.22.47.15.12.36.17.62.17.22 0 .41-.05.58-.14.16-.09.29-.23.38-.41s.13-.39.13-.63h.26c0 .52-.12.94-.35 1.25s-.58.47-1.03.47Zm1.15-.09-.03-.63v-1.4c0-.3-.03-.55-.1-.75s-.17-.35-.32-.45-.33-.15-.56-.15c-.21 0-.39.04-.54.13-.15.08-.28.22-.37.4l-.55-.22c.1-.18.21-.33.35-.47s.3-.23.49-.3.4-.1.63-.1c.36 0 .66.07.89.21s.41.35.53.62.17.61.17 1.02v2.09h-.58Z" fill="#fffcef" data-color="1"/>
        <path d="M102.47 53.2c-.34 0-.65-.08-.91-.25s-.47-.41-.61-.71c-.15-.3-.22-.66-.22-1.05s.07-.75.22-1.06c.15-.3.35-.54.61-.71s.56-.25.91-.25c.32 0 .61.08.85.25s.43.41.57.71c.13.3.2.65.2 1.06s-.07.75-.2 1.05c-.13.31-.32.54-.57.71-.24.17-.53.25-.85.25m.14-.56q.345 0 .6-.18c.255-.18.31-.29.41-.52q.15-.33.15-.75c0-.42-.05-.53-.15-.75s-.24-.39-.41-.52c-.17-.12-.38-.19-.61-.19s-.46.06-.64.19c-.19.12-.33.29-.44.52-.11.22-.16.47-.16.75s.05.53.16.75.26.39.45.52c.19.12.41.18.65.18Zm1.17 2.01v-4.67l.03-.72h.59v5.39z" fill="#fffcef" data-color="1"/>
        <path d="M105.31 51.23v-1.97h.62v1.97zm.61 0c0 .38.04.67.13.87s.21.34.37.41.33.11.53.11q.495 0 .78-.36c.285-.36.28-.58.28-1.01h.3c0 .41-.06.75-.18 1.05-.12.29-.29.52-.51.67s-.5.23-.82.23c-.3 0-.56-.06-.79-.18s-.4-.31-.52-.58c-.12-.26-.19-.61-.19-1.03v-.19h.62Zm2.13 1.88-.04-.71v-3.14h.62v3.85z" fill="#fffcef" data-color="1"/>
        <path d="M111.39 53.2c-.38 0-.71-.09-.99-.26-.29-.17-.51-.41-.67-.71q-.24-.45-.24-1.05c0-.6.08-.74.24-1.05.16-.3.38-.54.67-.71.28-.17.61-.26.98-.26s.67.09.93.27.46.42.61.74.22.69.22 1.12h-3.18l.15-.13c0 .31.05.57.17.79s.27.39.47.5c.2.12.43.17.69.17.27 0 .5-.06.69-.19s.33-.3.43-.51l.53.27c-.1.2-.23.37-.39.52s-.35.26-.57.35c-.22.08-.46.12-.73.12Zm-1.25-2.3-.16-.12h2.66l-.16.13c0-.25-.05-.46-.15-.64q-.15-.27-.39-.42c-.17-.1-.35-.15-.57-.15s-.41.05-.6.15-.34.23-.45.41-.17.39-.17.64Z" fill="#fffcef" data-color="1"/>
        <path d="M117.53 53.2c-.38 0-.72-.09-1.01-.26s-.52-.41-.68-.71c-.17-.3-.25-.65-.25-1.05s.08-.74.24-1.05c.16-.3.39-.54.68-.71s.63-.26 1-.26.7.08.99.25.52.41.67.72l-.56.25q-.15-.315-.45-.48c-.2-.12-.42-.17-.67-.17s-.47.06-.67.18c-.19.12-.34.29-.46.51s-.17.47-.17.75.05.53.17.75c.11.22.26.39.46.51s.42.18.67.18.48-.06.67-.19q.3-.195.45-.54l.56.25c-.15.33-.38.58-.67.77-.29.18-.63.28-1 .28Z" fill="#fffcef" data-color="1"/>
        <path d="M121.19 53.2c-.45 0-.8-.1-1.06-.31-.25-.21-.38-.5-.38-.87q0-.585.39-.9c.26-.21.62-.31 1.09-.31h1.1v.52h-.96c-.36 0-.61.06-.77.18a.62.62 0 0 0-.23.51c0 .2.07.36.22.47.15.12.36.17.62.17.22 0 .41-.05.58-.14.16-.09.29-.23.38-.41s.13-.39.13-.63h.26c0 .52-.12.94-.35 1.25s-.58.47-1.03.47Zm1.16-.09-.03-.63v-1.4c0-.3-.03-.55-.1-.75s-.17-.35-.32-.45-.33-.15-.56-.15c-.21 0-.39.04-.54.13-.15.08-.28.22-.37.4l-.55-.22c.1-.18.21-.33.35-.47s.3-.23.49-.3.4-.1.63-.1c.36 0 .66.07.89.21s.41.35.53.62.17.61.17 1.02v2.09h-.58Z" fill="#fffcef" data-color="1"/>
        <path d="M125.42 53.2c-.34 0-.65-.08-.91-.25s-.47-.41-.61-.71c-.15-.3-.22-.66-.22-1.05s.07-.75.22-1.06c.15-.3.35-.54.61-.71s.56-.25.91-.25c.32 0 .61.08.85.25s.43.41.57.71c.13.3.2.65.2 1.06s-.07.75-.2 1.05c-.13.31-.32.54-.57.71-.24.17-.53.25-.85.25m.14-.56q.345 0 .6-.18c.255-.18.31-.29.41-.52q.15-.33.15-.75c0-.42-.05-.53-.15-.75s-.24-.39-.41-.52c-.17-.12-.38-.19-.61-.19s-.46.06-.64.19c-.19.12-.33.29-.44.52-.11.22-.16.47-.16.75s.05.53.16.75.26.39.45.52c.19.12.41.18.65.18Zm1.19.47-.03-.72v-4.67h.62v5.39z" fill="#fffcef" data-color="1"/>
        <path d="M129.63 53.2c-.45 0-.8-.1-1.06-.31-.25-.21-.38-.5-.38-.87q0-.585.39-.9c.26-.21.62-.31 1.09-.31h1.1v.52h-.96c-.36 0-.61.06-.77.18a.62.62 0 0 0-.23.51c0 .2.07.36.22.47.15.12.36.17.62.17.22 0 .41-.05.58-.14.16-.09.29-.23.38-.41s.13-.39.13-.63h.26c0 .52-.12.94-.35 1.25s-.58.47-1.03.47Zm1.16-.09-.03-.63v-1.4c0-.3-.03-.55-.1-.75s-.17-.35-.32-.45-.33-.15-.56-.15c-.21 0-.39.04-.54.13-.15.08-.28.22-.37.4l-.55-.22c.1-.18.21-.33.35-.47s.3-.23.49-.3.4-.1.63-.1c.36 0 .66.07.89.21s.41.35.53.62.17.61.17 1.02v2.09h-.58Z" fill="#fffcef" data-color="1"/>
        <path d="M134.24 53.11v-3.85h.62v3.85zm.34-2.09c0-.42.08-.75.24-1.01s.36-.45.61-.58.51-.19.79-.19v.58c-.23 0-.44.04-.65.11s-.38.2-.51.37-.2.4-.2.69z" fill="#fffcef" data-color="1"/>
        <path d="M138.53 53.2c-.38 0-.71-.09-.99-.26-.29-.17-.51-.41-.67-.71q-.24-.45-.24-1.05c0-.6.08-.74.24-1.05.16-.3.38-.54.67-.71.28-.17.61-.26.98-.26s.67.09.93.27.46.42.61.74.22.69.22 1.12h-3.18l.15-.13c0 .31.05.57.17.79s.27.39.47.5c.2.12.43.17.69.17.27 0 .5-.06.69-.19s.33-.3.43-.51l.53.27c-.1.2-.23.37-.39.52s-.35.26-.57.35c-.22.08-.46.12-.73.12Zm-1.25-2.3-.16-.12h2.66l-.16.13c0-.25-.05-.46-.15-.64q-.15-.27-.39-.42c-.17-.1-.35-.15-.57-.15s-.41.05-.6.15-.34.23-.45.41-.17.39-.17.64Z" fill="#fffcef" data-color="1"/>
        <path d="M140.73 49.79v-.53h2.44v.53zm.7 3.32v-4.29c0-.4.09-.7.28-.9s.47-.3.86-.3c.1 0 .22.02.35.05.13.04.26.09.41.15l-.23.49c-.12-.05-.22-.08-.3-.11a.6.6 0 0 0-.21-.04c-.18 0-.31.06-.4.17s-.13.29-.13.54v4.24h-.62Z" fill="#fffcef" data-color="1"/>
        <path d="M145.55 53.2c-.38 0-.71-.09-.99-.26-.29-.17-.51-.41-.67-.71q-.24-.45-.24-1.05c0-.6.08-.74.24-1.05.16-.3.38-.54.67-.71.28-.17.61-.26.98-.26s.67.09.93.27.46.42.61.74.22.69.22 1.12h-3.18l.15-.13c0 .31.05.57.17.79s.27.39.47.5c.2.12.43.17.69.17.27 0 .5-.06.69-.19s.33-.3.43-.51l.53.27c-.1.2-.23.37-.39.52s-.35.26-.57.35c-.22.08-.46.12-.73.12Zm-1.24-2.3-.16-.12h2.66l-.16.13c0-.25-.05-.46-.15-.64q-.15-.27-.39-.42c-.17-.1-.35-.15-.57-.15s-.41.05-.6.15-.34.23-.45.41-.17.39-.17.64Z" fill="#fffcef" data-color="1"/>
        <path d="M148.43 48.36q-.15 0-.27-.12t-.12-.27c0-.15.04-.2.12-.27s.17-.11.27-.11.2.04.27.11.11.17.11.27-.04.19-.11.27q-.12.12-.27.12m-.32 4.75v-3.85h.62v3.85z" fill="#fffcef" data-color="1"/>
        <path d="M151.57 53.2c-.38 0-.72-.09-1.01-.26s-.52-.41-.68-.71c-.17-.3-.25-.65-.25-1.05s.08-.74.24-1.05c.16-.3.39-.54.68-.71s.63-.26 1-.26.7.08.99.25.52.41.67.72l-.56.25q-.15-.315-.45-.48c-.2-.12-.42-.17-.67-.17s-.47.06-.67.18c-.19.12-.34.29-.46.51s-.17.47-.17.75.05.53.17.75c.11.22.26.39.46.51s.42.18.67.18.48-.06.67-.19q.3-.195.45-.54l.56.25c-.15.33-.38.58-.67.77-.29.18-.63.28-1 .28Zm-.23 1.52c-.1 0-.21-.01-.32-.04-.12-.03-.26-.08-.42-.17l.15-.37c.08.04.16.07.25.11s.17.05.24.05c.09 0 .18-.02.25-.05.08-.04.11-.11.11-.22 0-.13-.05-.22-.14-.29-.09-.06-.24-.11-.44-.14l.23-.54.41.09-.08.2c.19.07.33.16.4.28.08.12.12.25.12.38 0 .2-.06.37-.18.5-.12.14-.31.2-.58.2Z" fill="#fffcef" data-color="1"/>
        <path d="M155.24 53.2c-.45 0-.8-.1-1.06-.31-.25-.21-.38-.5-.38-.87q0-.585.39-.9c.26-.21.62-.31 1.09-.31h1.1v.52h-.96c-.36 0-.61.06-.77.18a.62.62 0 0 0-.23.51c0 .2.07.36.22.47.15.12.36.17.62.17.22 0 .41-.05.58-.14.16-.09.29-.23.38-.41s.13-.39.13-.63h.26c0 .52-.12.94-.35 1.25s-.58.47-1.03.47Zm1.15-.09-.03-.63v-1.4c0-.3-.03-.55-.1-.75s-.17-.35-.32-.45-.33-.15-.56-.15c-.21 0-.39.04-.54.13-.15.08-.28.22-.37.4l-.55-.22c.1-.18.21-.33.35-.47s.3-.23.49-.3.4-.1.63-.1c.36 0 .66.07.89.21s.41.35.53.62.17.61.17 1.02v2.09h-.58Zm-.33-4.36c-.15 0-.27-.03-.36-.08s-.17-.12-.23-.19-.11-.14-.17-.19a.22.22 0 0 0-.18-.08c-.08 0-.14.02-.19.07a.45.45 0 0 0-.1.23h-.5q.03-.21.12-.39c.06-.12.15-.22.27-.29s.25-.11.4-.11.26.03.35.08c.09.06.16.12.22.19s.12.14.17.19c.05.06.12.08.2.08.09 0 .15-.03.19-.08s.07-.12.08-.22h.49c-.03.21-.1.39-.23.55q-.195.24-.54.24Z" fill="#fffcef" data-color="1"/>
        <path d="M159.65 53.2c-.38 0-.71-.09-1-.26s-.52-.41-.68-.71c-.17-.3-.25-.65-.25-1.05s.08-.74.24-1.05c.16-.3.39-.54.68-.71s.62-.26 1-.26.71.09 1 .26.52.41.68.71q.24.45.24 1.05c0 .6-.08.74-.24 1.05-.16.3-.39.54-.67.71-.29.17-.62.26-.99.26Zm-.01-.57c.25 0 .47-.06.67-.18q.285-.18.45-.51c.11-.22.17-.47.17-.75s-.05-.53-.17-.75-.26-.39-.46-.51-.42-.18-.68-.18-.47.06-.67.18c-.19.12-.34.29-.46.51-.11.22-.17.47-.17.75s.05.53.17.75c.11.22.26.39.46.51s.42.18.67.18Z" fill="#fffcef" data-color="1"/>
        <path d="M165.66 53.2c-.28 0-.53-.04-.74-.13-.21-.08-.39-.2-.53-.33q-.21-.21-.3-.45l.54-.22c.09.17.22.32.39.42.17.11.37.16.58.16.24 0 .44-.05.61-.14a.45.45 0 0 0 .25-.4c0-.16-.06-.29-.18-.38q-.18-.15-.54-.24l-.37-.1c-.35-.09-.62-.23-.82-.42-.19-.19-.29-.4-.29-.64 0-.36.12-.65.36-.85s.59-.3 1.07-.3c.23 0 .43.03.62.1s.34.16.48.28.23.26.29.43l-.54.24a.73.73 0 0 0-.33-.38 1.2 1.2 0 0 0-.56-.12c-.24 0-.42.05-.55.15s-.2.24-.2.42c0 .1.06.2.17.29s.27.16.49.22l.38.1q.375.09.63.27c.17.12.3.26.39.41s.13.32.13.49c0 .23-.06.43-.19.6-.12.17-.29.3-.5.39s-.45.13-.72.13Z" fill="#fffcef" data-color="1"/>
        <path d="M169.58 53.2c-.38 0-.71-.09-.99-.26-.29-.17-.51-.41-.67-.71q-.24-.45-.24-1.05c0-.6.08-.74.24-1.05.16-.3.38-.54.67-.71.28-.17.61-.26.98-.26s.67.09.93.27.46.42.61.74.22.69.22 1.12h-3.18l.15-.13c0 .31.05.57.17.79s.27.39.47.5c.2.12.43.17.69.17.27 0 .5-.06.69-.19s.33-.3.43-.51l.53.27c-.1.2-.23.37-.39.52s-.35.26-.57.35c-.22.08-.46.12-.73.12Zm-1.24-2.3-.16-.12h2.66l-.16.13c0-.25-.05-.46-.15-.64q-.15-.27-.39-.42c-.17-.1-.35-.15-.57-.15s-.41.05-.6.15-.34.23-.45.41-.17.39-.17.64Z" fill="#fffcef" data-color="1"/>
        <path d="M171.88 54.76c-.19 0-.43-.07-.72-.2l.23-.52c.12.05.23.08.31.11s.15.04.2.04c.35 0 .52-.22.52-.67v-4.27h.62v4.28c0 .4-.1.7-.29.91s-.48.31-.87.31Zm.85-6.4q-.15 0-.27-.12a.37.37 0 0 1-.12-.27c0-.11.04-.21.12-.28s.17-.11.27-.11c.11 0 .2.04.28.11s.12.17.12.28q0 .15-.12.27c-.08.08-.17.12-.28.12" fill="#fffcef" data-color="1"/>
        <path d="M175.39 53.2c-.45 0-.8-.1-1.06-.31-.25-.21-.38-.5-.38-.87q0-.585.39-.9c.26-.21.62-.31 1.09-.31h1.1v.52h-.96c-.36 0-.61.06-.77.18a.62.62 0 0 0-.23.51c0 .2.07.36.22.47.15.12.36.17.62.17.22 0 .41-.05.58-.14.16-.09.29-.23.38-.41s.13-.39.13-.63h.26c0 .52-.12.94-.35 1.25s-.58.47-1.03.47Zm1.15-.09-.03-.63v-1.4c0-.3-.03-.55-.1-.75s-.17-.35-.32-.45-.33-.15-.56-.15c-.21 0-.39.04-.54.13-.15.08-.28.22-.37.4l-.55-.22c.1-.18.21-.33.35-.47s.3-.23.49-.3.4-.1.63-.1c.36 0 .66.07.89.21s.41.35.53.62.17.61.17 1.02v2.09h-.58Z" fill="#fffcef" data-color="1"/>
        <path d="M179.9 51.23v-1.97h.62v1.97zm.62 0c0 .38.04.67.13.87s.21.34.37.41.33.11.53.11q.495 0 .78-.36c.285-.36.28-.58.28-1.01h.3c0 .41-.06.75-.18 1.05-.12.29-.29.52-.51.67s-.5.23-.82.23c-.3 0-.56-.06-.79-.18s-.4-.31-.52-.58c-.12-.26-.19-.61-.19-1.03v-.19h.62Zm2.12 1.88-.04-.71v-3.14h.62v3.85z" fill="#fffcef" data-color="1"/>
        <path d="M184.3 53.11v-3.85h.58l.03.54c.12-.21.27-.36.45-.47s.4-.16.65-.16c.31 0 .57.07.79.22.22.14.38.36.47.65.11-.28.27-.5.47-.65s.46-.22.74-.22c.43 0 .77.14 1.02.43s.37.72.37 1.31v2.2h-.62v-1.97q0-.57-.12-.87c-.08-.2-.19-.34-.32-.41a1 1 0 0 0-.46-.11c-.3 0-.54.12-.71.36s-.25.58-.25 1.01v1.99h-.62v-1.97q0-.57-.12-.87c-.08-.2-.19-.34-.32-.41-.14-.07-.29-.11-.47-.11-.3 0-.53.12-.7.36s-.25.58-.25 1.01v1.99h-.62Z" fill="#fffcef" data-color="1"/>
        <path d="M192.07 53.2c-.45 0-.8-.1-1.06-.31-.25-.21-.38-.5-.38-.87q0-.585.39-.9c.26-.21.62-.31 1.09-.31h1.1v.52h-.96c-.36 0-.61.06-.77.18a.62.62 0 0 0-.23.51c0 .2.07.36.22.47.15.12.36.17.62.17.22 0 .41-.05.58-.14.16-.09.29-.23.38-.41s.13-.39.13-.63h.26c0 .52-.12.94-.35 1.25s-.58.47-1.03.47Zm1.15-.09-.03-.63v-1.4c0-.3-.03-.55-.1-.75s-.17-.35-.32-.45-.33-.15-.56-.15c-.21 0-.39.04-.54.13-.15.08-.28.22-.37.4l-.55-.22c.1-.18.21-.33.35-.47s.3-.23.49-.3.4-.1.63-.1c.36 0 .66.07.89.21s.41.35.53.62.17.61.17 1.02v2.09h-.58Z" fill="#fffcef" data-color="1"/>
        <path d="M85.74 61.9c-.38 0-.71-.09-.99-.26-.29-.17-.51-.41-.67-.71q-.24-.45-.24-1.05c0-.6.08-.74.24-1.05.16-.3.38-.54.67-.71.28-.17.61-.26.98-.26s.67.09.93.27.46.42.61.74.22.69.22 1.12h-3.18l.15-.13c0 .31.05.57.17.79s.27.39.47.5c.2.12.43.17.69.17.27 0 .5-.06.69-.19s.33-.3.43-.51l.53.27c-.1.2-.23.37-.39.52s-.35.26-.57.35c-.22.08-.46.12-.73.12Zm-1.25-2.3-.16-.12h2.66l-.16.13c0-.25-.05-.46-.15-.64q-.15-.27-.39-.42c-.17-.1-.35-.15-.57-.15s-.41.05-.6.15-.34.23-.45.41c-.12.18-.17.39-.17.63Z" fill="#fffcef" data-color="1"/>
        <path d="m87.75 61.81 1.57-2.21 1.11-1.64h.73l-1.46 2.08-1.2 1.77zm2.77 0-1.19-1.77-1.48-2.08h.73l1.12 1.64 1.55 2.21h-.74Z" fill="#fffcef" data-color="1"/>
        <path d="M91.91 63.35v-5.39h.58l.04.71v4.68zm1.92-1.45c-.32 0-.61-.08-.85-.25s-.43-.41-.57-.71c-.13-.3-.2-.66-.2-1.05s.07-.75.2-1.05.32-.54.57-.71c.24-.17.53-.25.85-.25.34 0 .65.08.91.25s.47.41.61.71.22.65.22 1.05-.07.75-.22 1.05c-.15.31-.35.54-.61.71s-.56.25-.91.25m-.14-.56c.24 0 .46-.06.64-.18s.34-.29.45-.51.17-.47.17-.76-.05-.53-.16-.75c-.1-.22-.25-.39-.44-.52s-.4-.18-.65-.18q-.345 0-.6.18-.27.18-.42.51c-.1.22-.15.47-.15.76s.05.53.15.75.24.39.41.52q.255.18.6.18" fill="#fffcef" data-color="1"/>
        <path d="M98.11 61.9c-.38 0-.71-.09-.99-.26-.29-.17-.51-.41-.67-.71q-.24-.45-.24-1.05c0-.6.08-.74.24-1.05.16-.3.38-.54.67-.71.28-.17.61-.26.98-.26s.67.09.93.27.46.42.61.74.22.69.22 1.12h-3.18l.15-.13c0 .31.05.57.17.79s.27.39.47.5c.2.12.43.17.69.17.27 0 .5-.06.69-.19s.33-.3.43-.51l.53.27c-.1.2-.23.37-.39.52s-.35.26-.57.35c-.22.08-.46.12-.73.12Zm-1.25-2.3-.16-.12h2.66l-.16.13c0-.25-.05-.46-.15-.64q-.15-.27-.39-.42c-.17-.1-.35-.15-.57-.15s-.41.05-.6.15-.34.23-.45.41c-.12.18-.17.39-.17.63Z" fill="#fffcef" data-color="1"/>
        <path d="M100.63 61.81v-3.85h.62v3.85zm.34-2.09c0-.42.08-.75.24-1.01s.36-.45.61-.58c.25-.12.51-.19.79-.19v.58c-.23 0-.44.04-.65.11s-.38.2-.51.37-.2.4-.2.69z" fill="#fffcef" data-color="1"/>
        <path d="M103.58 57.06q-.15 0-.27-.12c-.12-.12-.12-.17-.12-.27s.04-.2.12-.27.17-.11.27-.11.2.04.27.11.11.17.11.27-.04.19-.11.27q-.12.12-.27.12m-.31 4.75v-3.85h.62v3.85z" fill="#fffcef" data-color="1"/>
        <path d="M106.7 61.9c-.38 0-.71-.09-.99-.26-.29-.17-.51-.41-.67-.71q-.24-.45-.24-1.05c0-.6.08-.74.24-1.05.16-.3.38-.54.67-.71.28-.17.61-.26.98-.26s.67.09.93.27.46.42.61.74.22.69.22 1.12h-3.18l.15-.13c0 .31.05.57.17.79s.27.39.47.5c.2.12.43.17.69.17.27 0 .5-.06.69-.19s.33-.3.43-.51l.53.27c-.1.2-.23.37-.39.52s-.35.26-.57.35c-.22.08-.46.12-.73.12Zm-1.24-2.3-.16-.12h2.66l-.16.13c0-.25-.05-.46-.15-.64q-.15-.27-.39-.42c-.17-.1-.35-.15-.57-.15s-.41.05-.6.15-.34.23-.45.41c-.12.18-.17.39-.17.63Zm-.09-2.27.93-1h.75v.02l-1.01.98h-.68Zm1.95 0-1.01-.98v-.02h.75l.93 1h-.68Z" fill="#fffcef" data-color="1"/>
        <path d="M109.23 61.81v-3.85h.58l.04.71v3.14zm2.7-1.97c0-.38-.04-.67-.13-.87s-.21-.34-.36-.41-.33-.11-.52-.11c-.34 0-.6.12-.79.36s-.28.58-.28 1.01h-.3c0-.41.06-.75.18-1.05.12-.29.29-.52.52-.67s.5-.23.82-.23.57.06.79.18.4.31.52.57.19.61.18 1.03v.18h-.62Zm0 1.97v-1.97h.62v1.97z" fill="#fffcef" data-color="1"/>
        <path d="M115.24 61.9c-.38 0-.72-.09-1.01-.26s-.52-.41-.68-.71c-.17-.3-.25-.65-.25-1.05s.08-.74.24-1.05c.16-.3.39-.54.68-.71s.63-.26 1-.26.7.08.99.25.52.41.67.72l-.56.25q-.15-.315-.45-.48c-.2-.12-.42-.17-.67-.17s-.47.06-.67.18-.34.29-.46.51c-.11.22-.17.47-.17.75s.05.53.17.75c.11.22.26.39.46.51s.42.18.67.18.48-.06.67-.19q.3-.195.45-.54l.56.25c-.15.33-.38.58-.67.77-.29.18-.63.28-1 .28Z" fill="#fffcef" data-color="1"/>
        <path d="M118.05 57.06q-.15 0-.27-.12c-.12-.12-.12-.17-.12-.27s.04-.2.12-.27.17-.11.27-.11.2.04.27.11.11.17.11.27-.04.19-.11.27q-.12.12-.27.12m-.32 4.75v-3.85h.62v3.85z" fill="#fffcef" data-color="1"/>
        <path d="M120.69 61.9c-.45 0-.8-.1-1.06-.31-.25-.21-.38-.5-.38-.87q0-.585.39-.9c.26-.21.62-.31 1.09-.31h1.1v.52h-.96c-.36 0-.61.06-.77.18a.62.62 0 0 0-.23.51c0 .2.07.36.22.47.15.12.36.17.62.17.22 0 .41-.05.58-.14.16-.09.29-.23.38-.41s.13-.39.13-.63h.26c0 .52-.12.94-.35 1.25s-.58.47-1.03.47Zm1.16-.09-.03-.63v-1.4c0-.3-.03-.55-.1-.75s-.17-.35-.32-.45-.33-.15-.56-.15c-.21 0-.39.04-.54.13s-.28.22-.37.4l-.55-.22c.1-.18.21-.33.35-.47s.3-.23.49-.3.4-.1.63-.1c.36 0 .66.07.89.21s.41.35.53.62.17.61.17 1.02v2.09h-.58Z" fill="#fffcef" data-color="1"/>
        <path d="M126.82 61.9c-.34 0-.65-.08-.91-.25s-.47-.41-.61-.71c-.15-.3-.22-.66-.22-1.05s.07-.75.22-1.05.35-.54.61-.71.56-.25.91-.25c.32 0 .61.08.85.25s.43.41.57.71.2.65.2 1.05-.07.75-.2 1.05c-.13.31-.32.54-.57.71-.24.17-.53.25-.85.25m.14-.56q.345 0 .6-.18c.255-.18.31-.29.41-.52q.15-.33.15-.75c0-.42-.05-.53-.15-.75s-.24-.39-.41-.52-.38-.18-.61-.18-.46.06-.64.18-.33.29-.44.52c-.11.22-.16.47-.16.75s.05.53.16.75.26.39.45.52c.19.12.41.18.65.18Zm1.19.47-.03-.72v-4.67h.62v5.39z" fill="#fffcef" data-color="1"/>
        <path d="M131.5 61.9c-.38 0-.71-.09-.99-.26-.29-.17-.51-.41-.67-.71q-.24-.45-.24-1.05c0-.6.08-.74.24-1.05.16-.3.38-.54.67-.71.28-.17.61-.26.98-.26s.67.09.93.27.46.42.61.74.22.69.22 1.12h-3.18l.15-.13c0 .31.05.57.17.79s.27.39.47.5c.2.12.43.17.69.17.27 0 .5-.06.69-.19s.33-.3.43-.51l.53.27c-.1.2-.23.37-.39.52s-.35.26-.57.35c-.22.08-.46.12-.73.12Zm-1.24-2.3-.16-.12h2.66l-.16.13c0-.25-.05-.46-.15-.64q-.15-.27-.39-.42c-.17-.1-.35-.15-.57-.15s-.41.05-.6.15-.34.23-.45.41c-.12.18-.17.39-.17.63Z" fill="#fffcef" data-color="1"/>
        <path d="M137.14 61.9c-.45 0-.8-.1-1.06-.31-.25-.21-.38-.5-.38-.87q0-.585.39-.9c.26-.21.62-.31 1.09-.31h1.1v.52h-.96c-.36 0-.61.06-.77.18a.62.62 0 0 0-.23.51c0 .2.07.36.22.47.15.12.36.17.62.17.22 0 .41-.05.58-.14.16-.09.29-.23.38-.41s.13-.39.13-.63h.26c0 .52-.12.94-.35 1.25s-.58.47-1.03.47Zm1.15-.09-.03-.63v-1.4c0-.3-.03-.55-.1-.75s-.17-.35-.32-.45-.33-.15-.56-.15c-.21 0-.39.04-.54.13s-.28.22-.37.4l-.55-.22c.1-.18.21-.33.35-.47s.3-.23.49-.3.4-.1.63-.1c.36 0 .66.07.89.21s.41.35.53.62.17.61.17 1.02v2.09h-.58Z" fill="#fffcef" data-color="1"/>
        <path d="M139.85 61.81v-3.85h.58l.03.54c.12-.21.27-.36.45-.47s.4-.16.65-.16c.31 0 .57.07.79.22.22.14.38.36.47.65.11-.28.27-.5.47-.65.21-.15.46-.22.74-.22.43 0 .77.14 1.02.43s.37.72.37 1.31v2.2h-.62v-1.97q0-.57-.12-.87c-.08-.2-.19-.34-.32-.41a1 1 0 0 0-.46-.11c-.3 0-.54.12-.71.36s-.25.58-.25 1.01v1.99h-.62v-1.97q0-.57-.12-.87c-.08-.2-.19-.34-.32-.41-.14-.07-.29-.11-.47-.11-.3 0-.53.12-.7.36s-.25.58-.25 1.01v1.99h-.62Z" fill="#fffcef" data-color="1"/>
        <path d="M148.11 61.9c-.38 0-.71-.09-1-.26s-.52-.41-.68-.71c-.17-.3-.25-.65-.25-1.05s.08-.74.24-1.05c.16-.3.39-.54.68-.71s.62-.26 1-.26.71.09 1 .26.52.41.68.71q.24.45.24 1.05c0 .6-.08.74-.24 1.05-.16.3-.39.54-.67.71-.29.17-.62.26-.99.26Zm-.01-.57c.25 0 .47-.06.67-.18q.285-.18.45-.51c.11-.22.17-.47.17-.75s-.05-.53-.17-.75a1.2 1.2 0 0 0-.46-.51c-.2-.12-.42-.18-.68-.18s-.47.06-.67.18-.34.29-.46.51c-.11.22-.17.47-.17.75s.05.53.17.75c.11.22.26.39.46.51s.42.18.67.18Z" fill="#fffcef" data-color="1"/>
        <path d="M150.87 61.81v-3.85h.62v3.85zm.34-2.09c0-.42.08-.75.24-1.01s.36-.45.61-.58c.25-.12.51-.19.79-.19v.58c-.23 0-.44.04-.65.11s-.38.2-.51.37-.2.4-.2.69z" fill="#fffcef" data-color="1"/>
        <path d="M157.06 61.9c-.38 0-.71-.09-.99-.26-.29-.17-.51-.41-.67-.71q-.24-.45-.24-1.05c0-.6.08-.74.24-1.05.16-.3.38-.54.67-.71.28-.17.61-.26.98-.26s.67.09.93.27.46.42.61.74.22.69.22 1.12h-3.18l.15-.13c0 .31.05.57.17.79s.27.39.47.5c.2.12.43.17.69.17.27 0 .5-.06.69-.19s.33-.3.43-.51l.53.27c-.1.2-.23.37-.39.52s-.35.26-.57.35c-.22.08-.46.12-.73.12Zm-1.25-2.3-.16-.12h2.66l-.16.13c0-.25-.05-.46-.15-.64q-.15-.27-.39-.42c-.17-.1-.35-.15-.57-.15s-.41.05-.6.15-.34.23-.45.41c-.12.18-.17.39-.17.63Z" fill="#fffcef" data-color="1"/>
        <path d="M162.69 61.9c-.45 0-.8-.1-1.06-.31-.25-.21-.38-.5-.38-.87q0-.585.39-.9c.26-.21.62-.31 1.09-.31h1.1v.52h-.96c-.36 0-.61.06-.77.18a.62.62 0 0 0-.23.51c0 .2.07.36.22.47.15.12.36.17.62.17.22 0 .41-.05.58-.14.16-.09.29-.23.38-.41s.13-.39.13-.63h.26c0 .52-.12.94-.35 1.25s-.58.47-1.03.47Zm1.16-.09-.03-.63v-1.4c0-.3-.03-.55-.1-.75s-.17-.35-.32-.45-.33-.15-.56-.15c-.21 0-.39.04-.54.13s-.28.22-.37.4l-.55-.22c.1-.18.21-.33.35-.47s.3-.23.49-.3.4-.1.63-.1c.36 0 .66.07.89.21s.41.35.53.62.17.61.17 1.02v2.09h-.58Z" fill="#fffcef" data-color="1"/>
        <path d="M165.4 61.81v-5.39h.62v5.39z" fill="#fffcef" data-color="1"/>
        <path d="M168.79 61.9c-.38 0-.71-.09-.99-.26-.29-.17-.51-.41-.67-.71q-.24-.45-.24-1.05c0-.6.08-.74.24-1.05.16-.3.38-.54.67-.71.28-.17.61-.26.98-.26s.67.09.93.27.46.42.61.74.22.69.22 1.12h-3.18l.15-.13c0 .31.05.57.17.79s.27.39.47.5c.2.12.43.17.69.17.27 0 .5-.06.69-.19s.33-.3.43-.51l.53.27c-.1.2-.23.37-.39.52s-.35.26-.57.35c-.22.08-.46.12-.73.12Zm-1.25-2.3-.16-.12h2.66l-.16.13c0-.25-.05-.46-.15-.64q-.15-.27-.39-.42c-.17-.1-.35-.15-.57-.15s-.41.05-.6.15-.34.23-.45.41c-.12.18-.17.39-.17.63Z" fill="#fffcef" data-color="1"/>
        <path d="M172.82 61.78a1.64 1.64 0 0 1-1.52-.94c-.15-.3-.22-.63-.22-1.01s.07-.73.22-1.03c.15-.29.35-.52.61-.69s.56-.25.91-.25c.32 0 .61.08.85.25q.36.24.57.69c.14.3.2.64.2 1.03s-.07.72-.2 1.02c-.14.29-.32.52-.57.68-.24.17-.52.25-.85.25m.02 1.66c-.25 0-.47-.02-.67-.07s-.38-.1-.52-.16q-.21-.09-.3-.15l.23-.5c.07.04.16.08.29.13.12.05.27.1.43.14s.34.06.54.06c.25 0 .47-.05.67-.15s.35-.26.46-.47.17-.49.17-.82v-3.49h.62v3.48c0 .44-.08.81-.25 1.11s-.39.52-.68.67-.61.22-.98.22Zm.13-2.19c.23 0 .43-.06.6-.19.17-.12.31-.29.41-.5s.15-.46.15-.74-.05-.51-.15-.73c-.1-.21-.24-.38-.41-.5q-.255-.18-.6-.18c-.345 0-.46.06-.64.18-.19.12-.33.29-.44.5-.1.21-.16.46-.16.73s.05.53.16.74.26.38.44.5c.19.12.4.19.64.19" fill="#fffcef" data-color="1"/>
        <path d="M175.82 61.81v-3.85h.62v3.85zm.34-2.09c0-.42.08-.75.24-1.01s.36-.45.61-.58c.25-.12.51-.19.79-.19v.58c-.23 0-.44.04-.65.11s-.38.2-.51.37-.2.4-.2.69z" fill="#fffcef" data-color="1"/>
        <path d="M178.78 57.06q-.15 0-.27-.12c-.12-.12-.12-.17-.12-.27s.04-.2.12-.27.17-.11.27-.11.2.04.27.11.11.17.11.27-.04.19-.11.27q-.12.12-.27.12m-.32 4.75v-3.85h.62v3.85z" fill="#fffcef" data-color="1"/>
        <path d="M181.43 61.9c-.45 0-.8-.1-1.06-.31-.25-.21-.38-.5-.38-.87q0-.585.39-.9c.26-.21.62-.31 1.09-.31h1.1v.52h-.96c-.36 0-.61.06-.77.18a.62.62 0 0 0-.23.51c0 .2.07.36.22.47.15.12.36.17.62.17.22 0 .41-.05.58-.14.16-.09.29-.23.38-.41s.13-.39.13-.63h.26c0 .52-.12.94-.35 1.25s-.58.47-1.03.47Zm1.15-.09-.03-.63v-1.4c0-.3-.03-.55-.1-.75s-.17-.35-.32-.45-.33-.15-.56-.15c-.21 0-.39.04-.54.13s-.28.22-.37.4l-.55-.22c.1-.18.21-.33.35-.47s.3-.23.49-.3.4-.1.63-.1c.36 0 .66.07.89.21s.41.35.53.62.17.61.17 1.02v2.09h-.58Z" fill="#fffcef" data-color="1"/>
        <path d="M184.4 61.92c-.12 0-.22-.04-.3-.13s-.13-.18-.13-.3.04-.22.13-.3c.08-.08.19-.13.3-.13s.22.04.3.13c.08.08.12.19.12.3s-.04.21-.12.3c-.08.08-.18.13-.3.13" fill="#fffcef" data-color="1"/>
        <path fill="#fffcef" d="M72.13 42.16c0 15.215-12.335 27.55-27.55 27.55S17.03 57.375 17.03 42.16s12.335-27.55 27.55-27.55 27.55 12.335 27.55 27.55" data-color="1"/>
        <path d="M44.54 34.59c4.22 0 6.58 2.3 6.55 4.36-.04 2.06-3.05 2.41-6.55 5.92-3.49-3.51-6.51-3.86-6.55-5.92s2.33-4.36 6.55-4.36" fill="#00578a" data-color="2"/>
        <path d="M49.84 51.23c.5 0 1-.06 1.49-.21 2.59-.79 3.33-2.55 3.88-3.83.24-.58.45-1.08.75-1.3a.687.687 0 0 0-.82-1.1c-.6.45-.89 1.14-1.2 1.87-.51 1.2-1.03 2.45-3.01 3.05-2.63.8-5.92-1.76-5.95-1.78-.25-.2-.6-.2-.85 0-.03.03-3.32 2.58-5.95 1.78-1.98-.6-2.5-1.85-3.01-3.05-.31-.73-.6-1.42-1.2-1.87a.676.676 0 0 0-.96.14c-.23.31-.17.74.14.96.3.22.51.72.75 1.3.54 1.28 1.28 3.04 3.88 3.83 2.71.82 5.69-.95 6.78-1.71.89.62 3.05 1.92 5.29 1.92Z" fill="#00578a" data-color="2"/>
        <path fill="#00578a" d="M45.2 39.73v8.73h-1.31v-8.73z" data-color="2"/>
        <path d="M24.32 40.93h8.85c.38 0 .69-.31.69-.69s-.31-.69-.69-.69h-8.85c-.38 0-.69.31-.69.69s.31.69.69.69" fill="#00578a" data-color="2"/>
        <path d="m25.88 44.8 7.06-2.57c.36-.13.75.05.88.41s-.05.75-.41.88l-7.06 2.57a.68.68 0 0 1-.88-.41c-.13-.36.05-.75.41-.88" fill="#00578a" data-color="2"/>
        <path d="m26.35 34.41 7.06 2.57a.686.686 0 1 1-.47 1.29l-7.06-2.57a.686.686 0 1 1 .47-1.29" fill="#00578a" data-color="2"/>
        <path d="M64.77 40.93h-8.85c-.38 0-.69-.31-.69-.69s.31-.69.69-.69h8.85c.38 0 .69.31.69.69s-.31.69-.69.69" fill="#00578a" data-color="2"/>
        <path d="m63.21 44.81-7.06-2.57a.68.68 0 0 0-.88.41c-.13.36.05.75.41.88l7.06 2.57c.36.13.75-.05.88-.41a.68.68 0 0 0-.41-.88" fill="#00578a" data-color="2"/>
        <path d="m62.74 34.39-7.06 2.57a.686.686 0 1 0 .47 1.29l7.06-2.57a.686.686 0 1 0-.47-1.29" fill="#00578a" data-color="2"/>
        <path d="m45.72 35.4-2.35-.06c-.38 0-.69.3-.69.68s.3.69.68.69l2.35.06c.38 0 .69-.3.69-.68s-.3-.69-.68-.69" fill="#00578a" data-color="2"/>
    </g>
</svg>
