<?xml version="1.0" encoding="UTF-8"?>
<svg data-bbox="0 0 195.38 55.1" viewBox="0 0 195.39 55.1" xmlns="http://www.w3.org/2000/svg" data-type="ugc">
    <g>
        <path fill="#fffcef" d="M55.1 27.55c0 15.215-12.335 27.55-27.55 27.55S0 42.765 0 27.55 12.335 0 27.55 0 55.1 12.335 55.1 27.55"/>
        <path d="M22.56 35.47c.14-5.56 1.56-10.28 4.14-14.66 2.16-3.68 4.97-6.78 8.45-9.27.35-.25.7-.26.98-.02.25.22.33.58.19.88-.05.11-.13.21-.24.29-2 1.47-3.17 3.52-3.98 5.81-.66 1.88-1.03 3.82-1.25 5.8-.37 3.33-.31 6.66-.06 10 .08 1.13.06 2.26-.38 3.32-.65 1.54-1.78 2.49-3.49 2.53s-2.97-.8-3.78-2.28c-.49-.89-.6-1.86-.57-2.39Z" fill="#00578a"/>
        <path d="M36.41 31.97h3.62c.62 0 .98.57.71 1.09-.16.3-.43.4-.76.4h-6.2c-.24 0-.32.05-.29.3.09.78.13 1.57.04 2.36-.23 2.14-.98 4.03-2.7 5.41-2.73 2.2-6.85 1.75-9.17-.97-1.22-1.44-1.82-3.12-1.85-5 0-.63.02-1.25.06-1.88 0-.2-.04-.23-.22-.23h-6.28c-.46-.02-.78-.33-.78-.75s.34-.73.79-.73h7.19c.59 0 .87.33.83.92-.08 1.12-.18 2.25-.07 3.38.23 2.4 2.02 4.54 4.22 5.03 2.64.59 5.03-.7 6.03-3.28.46-1.19.56-2.43.47-3.69-.04-.51-.07-1.02-.1-1.53s.28-.83.79-.83z" fill="#00578a"/>
        <path d="M36.29 25.05c-1.09 0-1.98-.87-1.99-1.96 0-1.08.87-1.97 1.95-1.97s1.99.86 2 1.95-.87 1.98-1.96 1.99Z" fill="none" stroke="#00578a" stroke-miterlimit="10"/>
        <path d="M18.67 25.75c-1.08 0-1.98-.86-1.99-1.93 0-1.09.86-1.99 1.95-2 1.11 0 1.99.87 2 1.98 0 1.07-.88 1.95-1.96 1.96Z" fill="none" stroke="#00578a" stroke-miterlimit="10"/>
        <path d="M25.29 17.57a1.97 1.97 0 1 1 0-3.94c1.08 0 1.96.88 1.97 1.96 0 1.09-.88 1.98-1.97 1.99Z" fill="none" stroke="#00578a" stroke-miterlimit="10"/>
        <path d="M65.64 14.41V9.02h2.23c.41 0 .76.08 1.08.24.31.16.56.38.74.66s.27.61.27.98-.09.7-.27.98c-.18.29-.42.51-.74.67q-.465.24-1.08.24h-.81v1.62zm1.42-2.93h.77c.2 0 .35-.05.47-.16q.18-.165.18-.42c0-.255-.06-.31-.18-.42a.67.67 0 0 0-.47-.16h-.77z" fill="#fffdf0"/>
        <path d="M70.45 14.41V9.02h3.61v1.31h-2.19v.75h1.77v1.27h-1.77v.75h2.24v1.31h-3.67Z" fill="#fffdf0"/>
        <path d="M74.96 14.41V9.02h1.42v4.08h2.22v1.31z" fill="#fffdf0"/>
        <path d="M79.22 14.41V9.02h3.61v1.31h-2.19v.75h1.77v1.27h-1.77v.75h2.24v1.31h-3.67Z" fill="#fffdf0"/>
        <path d="M85.5 14.41V9.02h3.61v1.31h-2.19v.75h1.77v1.27h-1.77v.75h2.24v1.31h-3.67Z" fill="#fffdf0"/>
        <path d="M91.79 14.41V9.02h2.23c.41 0 .76.08 1.08.24.31.16.56.38.74.66s.27.61.27.98-.09.7-.27.98c-.18.29-.42.51-.74.67q-.465.24-1.08.24h-.81v1.62zm1.42-2.93h.77c.2 0 .35-.05.47-.16q.18-.165.18-.42c0-.255-.06-.31-.18-.42a.67.67 0 0 0-.47-.16h-.77z" fill="#fffdf0"/>
        <path d="M96.6 14.41V9.02h3.61v1.31h-2.19v.75h1.77v1.27h-1.77v.75h2.24v1.31h-3.67Z" fill="#fffdf0"/>
        <path d="M101.11 14.41V9.02h1.42v4.08h2.22v1.31z" fill="#fffdf0"/>
        <path d="m104.96 14.41 2.06-5.39h1.42l-1.97 5.39zm.97-.87v-1.25h3.73v1.25zm3.18.87-1.97-5.39h1.42l2.06 5.39z" fill="#fffdf0"/>
        <path d="M113.32 14.5q-.825 0-1.47-.36c-.43-.24-.76-.57-1-.99s-.36-.9-.36-1.44.12-1.03.36-1.44c.24-.42.57-.75 1-.99q.645-.36 1.47-.36c.36 0 .69.05.97.15s.52.24.73.42.38.38.52.61l-1.19.7q-.105-.165-.27-.3c-.11-.09-.23-.16-.36-.2s-.26-.07-.4-.07a1.3 1.3 0 0 0-1.19.71c-.12.22-.18.48-.18.77s.06.54.17.77.28.4.49.53.46.19.75.19c.21 0 .39-.04.55-.11s.29-.18.38-.32.14-.29.14-.47l1.36-.25c0 .54-.11 1-.32 1.36s-.5.64-.87.82-.79.27-1.27.27Zm-.11-2.03v-1.08h2.56v.79l-.81.28h-1.75Z" fill="#fffdf0"/>
        <path d="M116.35 14.41V9.02h3.61v1.31h-2.19v.75h1.77v1.27h-1.77v.75h2.24v1.31h-3.67Z" fill="#fffdf0"/>
        <path d="M120.86 14.41V9.02h1.58l1.3 1.92 1.3-1.92h1.58v5.39h-1.42v-3.19l-1.45 2.11-1.46-2.11v3.19h-1.42Z" fill="#fffdf0"/>
        <path d="M131.2 14.5c-.25 0-.5-.04-.74-.1s-.46-.17-.66-.29-.36-.26-.49-.42-.21-.32-.23-.5l1.42-.39q.075.195.24.33c.11.09.26.14.44.15.14 0 .27-.03.38-.12.11-.08.17-.19.17-.32 0-.09-.03-.17-.1-.25a.52.52 0 0 0-.3-.17l-.81-.21a1.9 1.9 0 0 1-.71-.33c-.2-.15-.35-.33-.45-.55-.11-.21-.16-.46-.16-.72 0-.53.18-.94.53-1.24s.85-.44 1.48-.44c.34 0 .64.04.9.13s.48.22.67.41.34.43.47.74l-1.41.41a.7.7 0 0 0-.2-.31c-.1-.1-.25-.15-.43-.15s-.31.04-.4.12-.14.19-.14.34q0 .135.12.24c.08.07.19.12.33.16l.82.21q.615.15.96.6c.23.3.35.64.35 1.03q0 .525-.24.9c-.16.25-.39.43-.7.56-.3.13-.67.19-1.09.19Z" fill="#fffdf0"/>
        <path d="m133.53 14.41 2.06-5.39h1.42l-1.97 5.39zm.97-.87v-1.25h3.73v1.25zm3.18.87-1.97-5.39h1.42l2.06 5.39z" fill="#fffdf0"/>
        <path d="M141.92 14.5c-.48 0-.89-.09-1.23-.26s-.61-.42-.79-.75-.27-.71-.27-1.17v-3.3h1.42v3.3c0 .18.04.33.11.46s.17.23.3.29c.13.07.29.1.47.1s.34-.03.48-.1a.7.7 0 0 0 .3-.29c.07-.13.1-.28.1-.46v-3.3h1.42v3.3c0 .45-.09.84-.28 1.17-.18.33-.45.58-.8.75s-.76.26-1.25.26Z" fill="#fffdf0"/>
        <path d="M145.09 14.41V9.02h1.8c.59 0 1.11.12 1.57.35.45.23.81.55 1.07.95s.38.87.38 1.4-.13.99-.38 1.39-.61.72-1.07.95-.98.35-1.57.35zm1.43-1.35h.38c.23 0 .43-.03.62-.1s.35-.16.49-.28.25-.26.32-.42c.08-.16.12-.35.12-.55a1.26 1.26 0 0 0-.44-.97c-.14-.12-.3-.21-.49-.28s-.4-.1-.62-.1h-.38v2.69Z" fill="#fffdf0"/>
        <path d="m150.16 14.41 2.06-5.39h1.42l-1.97 5.39zm.97-.87v-1.25h3.73v1.25zm1.1-4.92.85-1.07h1.46l-1 1.07zm2.08 5.79-1.97-5.39h1.42l2.06 5.39z" fill="#fffdf0"/>
        <path d="m158 14.41-2.07-5.39h1.54l1.91 5.39zm.16 0 1.89-5.39h1.54l-2.06 5.39h-1.38Z" fill="#fffdf0"/>
        <path d="M162.11 14.41V9.02h3.61v1.31h-2.19v.75h1.77v1.27h-1.77v.75h2.24v1.31h-3.67Z" fill="#fffdf0"/>
        <path d="M166.62 14.41V9.02h1.42v5.39z" fill="#fffdf0"/>
        <path d="M170.86 14.5c-.25 0-.5-.04-.74-.1s-.46-.17-.66-.29-.36-.26-.49-.42-.21-.32-.23-.5l1.42-.39q.075.195.24.33c.11.09.26.14.44.15.14 0 .27-.03.38-.12.11-.08.17-.19.17-.32 0-.09-.03-.17-.1-.25a.52.52 0 0 0-.3-.17l-.81-.21a1.9 1.9 0 0 1-.71-.33c-.2-.15-.35-.33-.45-.55-.11-.21-.16-.46-.16-.72 0-.53.18-.94.53-1.24s.85-.44 1.48-.44c.34 0 .64.04.9.13s.48.22.67.41.34.43.47.74l-1.41.41a.7.7 0 0 0-.2-.31c-.1-.1-.25-.15-.43-.15s-.31.04-.4.12-.14.19-.14.34q0 .135.12.24c.08.07.19.12.33.16l.82.21q.615.15.96.6c.23.3.35.64.35 1.03q0 .525-.24.9c-.16.25-.39.43-.7.56-.3.13-.67.19-1.09.19Z" fill="#fffdf0"/>
        <path d="M68.16 23.2c-.51 0-.97-.12-1.36-.36q-.6-.36-.93-.99c-.23-.42-.34-.9-.34-1.44s.11-1.03.33-1.44c.22-.42.53-.75.92-.99q.585-.36 1.35-.36c.32 0 .63.06.93.17s.56.28.8.49.42.45.55.72l-.56.29c-.1-.22-.24-.4-.42-.56s-.38-.28-.6-.37-.45-.13-.69-.13c-.38 0-.71.09-1.01.28s-.53.45-.7.77c-.17.33-.25.71-.25 1.14s.08.81.25 1.15c.17.33.4.59.71.78.3.19.64.28 1.02.28.25 0 .48-.05.7-.15s.42-.24.6-.41q.27-.255.42-.6l.57.29c-.13.28-.32.53-.55.75s-.5.39-.8.52c-.3.12-.61.18-.94.18Z" fill="#fffdf0"/>
        <path d="M72.98 23.2c-.38 0-.71-.09-1-.26s-.52-.41-.68-.71c-.17-.3-.25-.65-.25-1.05s.08-.75.24-1.05.39-.54.68-.71.62-.26 1-.26.71.09 1 .26.52.41.68.71q.24.45.24 1.05c0 .6-.08.74-.24 1.05-.16.3-.39.54-.67.71-.29.17-.62.26-.99.26Zm-.01-.57c.25 0 .47-.06.67-.18q.285-.18.45-.51c.11-.22.17-.47.17-.75s-.05-.53-.17-.75a1.2 1.2 0 0 0-.46-.51c-.2-.12-.42-.18-.68-.18s-.47.06-.67.18c-.19.12-.34.29-.46.51s-.17.47-.17.75.05.53.17.75c.11.22.26.39.46.51s.42.18.67.18Z" fill="#fffdf0"/>
        <path d="M75.73 23.11v-3.85h.58l.03.54c.12-.21.27-.36.45-.47s.4-.16.65-.16c.31 0 .57.07.79.22.22.14.38.36.47.65.11-.28.27-.5.47-.65.21-.15.46-.22.74-.22.43 0 .77.14 1.02.43s.37.72.37 1.31v2.2h-.62v-1.97q0-.57-.12-.87c-.08-.2-.19-.34-.32-.41a1 1 0 0 0-.46-.11c-.3 0-.54.12-.71.36s-.25.58-.25 1.01v1.99h-.62v-1.97q0-.57-.12-.87c-.08-.2-.19-.34-.32-.41-.14-.07-.29-.11-.47-.11-.3 0-.53.12-.7.36s-.25.58-.25 1.01v1.99h-.62Z" fill="#fffdf0"/>
        <path d="M85.41 23.2c-.45 0-.8-.1-1.06-.31-.25-.21-.38-.5-.38-.87q0-.585.39-.9c.26-.21.62-.31 1.09-.31h1.1v.52h-.96c-.36 0-.61.06-.77.18a.62.62 0 0 0-.23.51c0 .2.07.36.22.47.15.12.36.17.62.17.22 0 .41-.05.58-.14.16-.1.29-.23.38-.41s.13-.39.13-.63h.26c0 .52-.12.94-.35 1.25s-.58.47-1.03.47Zm1.15-.09-.03-.63v-1.4c0-.3-.03-.55-.1-.75s-.17-.35-.32-.45-.33-.15-.56-.15c-.21 0-.39.04-.54.13-.15.08-.28.22-.37.4l-.55-.21c.1-.18.21-.33.35-.47s.3-.23.49-.3.4-.1.63-.1c.36 0 .66.07.89.21s.41.35.53.62.17.62.17 1.02v2.09h-.58Z" fill="#fffdf0"/>
        <path d="M91.23 23.2c-.45 0-.8-.1-1.06-.31-.25-.21-.38-.5-.38-.87q0-.585.39-.9c.26-.21.62-.31 1.09-.31h1.1v.52h-.96c-.36 0-.61.06-.77.18a.62.62 0 0 0-.23.51c0 .2.07.36.22.47.15.12.36.17.62.17.22 0 .41-.05.58-.14.16-.1.29-.23.38-.41s.13-.39.13-.63h.26c0 .52-.12.94-.35 1.25s-.58.47-1.03.47Zm1.16-.09-.03-.63v-1.4c0-.3-.03-.55-.1-.75s-.17-.35-.32-.45-.33-.15-.56-.15c-.21 0-.39.04-.54.13-.15.08-.28.22-.37.4l-.55-.21c.1-.18.21-.33.35-.47s.3-.23.49-.3.4-.1.63-.1c.36 0 .66.07.89.21s.41.35.53.62.17.62.17 1.02v2.09h-.58Z" fill="#fffdf0"/>
        <path d="M95.46 23.2c-.34 0-.65-.08-.91-.25s-.47-.41-.61-.71-.22-.66-.22-1.05.07-.75.22-1.06c.15-.3.35-.54.61-.71s.56-.25.91-.25c.32 0 .61.08.85.25s.43.41.57.71c.13.3.2.66.2 1.06s-.07.75-.2 1.05-.32.54-.57.71c-.24.17-.53.25-.85.25m.14-.56q.345 0 .6-.18c.17-.12.31-.3.41-.52q.15-.33.15-.75c0-.42-.05-.53-.15-.75s-.24-.39-.41-.52c-.17-.12-.38-.19-.61-.19s-.46.06-.64.19c-.19.12-.33.29-.44.52-.11.22-.16.47-.16.75s.05.53.16.75.26.39.45.52c.19.12.41.18.65.18Zm1.19.47-.03-.72v-4.67h.62v5.39z" fill="#fffdf0"/>
        <path d="M98.81 18.36q-.15 0-.27-.12t-.12-.27c0-.15.04-.2.12-.27.08-.08.17-.11.27-.11s.2.04.27.11.11.17.11.27-.04.19-.11.27q-.12.12-.27.12m-.32 4.75v-3.85h.62v3.85z" fill="#fffdf0"/>
        <path d="M101.96 23.2c-.38 0-.72-.09-1.01-.26s-.52-.41-.68-.71c-.17-.3-.25-.65-.25-1.05s.08-.75.24-1.05.39-.54.68-.71.63-.26 1-.26.7.08.99.25.52.41.67.72l-.56.25q-.15-.315-.45-.48c-.2-.12-.42-.17-.67-.17s-.47.06-.67.18c-.19.12-.34.29-.46.51-.11.22-.17.47-.17.75s.05.53.17.75c.11.22.26.39.46.51s.42.18.67.18.48-.06.67-.19q.3-.195.45-.54l.56.25c-.15.33-.38.58-.67.77-.29.18-.63.28-1 .28Zm-.24 1.52c-.1 0-.21-.01-.32-.04s-.26-.08-.42-.17l.15-.37c.08.04.16.07.25.11s.17.05.24.05c.09 0 .18-.02.25-.05.08-.04.11-.11.11-.22 0-.13-.05-.22-.14-.29s-.24-.11-.44-.14l.23-.54.41.09-.08.2c.19.07.33.16.4.28.08.12.12.25.12.38 0 .2-.06.37-.18.5-.12.14-.31.2-.58.2Z" fill="#fffdf0"/>
        <path d="M105.62 23.2c-.45 0-.8-.1-1.06-.31-.25-.21-.38-.5-.38-.87q0-.585.39-.9c.26-.21.62-.31 1.09-.31h1.1v.52h-.96c-.36 0-.61.06-.77.18a.62.62 0 0 0-.23.51c0 .2.07.36.22.47.15.12.36.17.62.17.22 0 .41-.05.58-.14.16-.1.29-.23.38-.41s.13-.39.13-.63h.26c0 .52-.12.94-.35 1.25s-.58.47-1.03.47Zm1.16-.09-.03-.63v-1.4c0-.3-.03-.55-.1-.75s-.17-.35-.32-.45-.33-.15-.56-.15c-.21 0-.39.04-.54.13-.15.08-.28.22-.37.4l-.55-.21c.1-.18.21-.33.35-.47s.3-.23.49-.3.4-.1.63-.1c.36 0 .66.07.89.21s.41.35.53.62.17.62.17 1.02v2.09h-.58Zm-.34-4.36c-.15 0-.27-.03-.36-.08s-.17-.12-.23-.19-.11-.14-.17-.19a.22.22 0 0 0-.18-.08c-.08 0-.14.02-.19.07a.45.45 0 0 0-.1.23h-.5q.03-.21.12-.39c.06-.12.15-.22.27-.29s.25-.11.4-.11.26.03.35.08c.09.06.16.12.22.19s.12.14.17.19c.05.06.12.08.2.08.09 0 .15-.03.19-.08s.07-.12.08-.21h.49c-.03.21-.1.39-.23.55q-.195.24-.54.24Z" fill="#fffdf0"/>
        <path d="M110.03 23.2c-.38 0-.71-.09-1-.26s-.52-.41-.68-.71c-.17-.3-.25-.65-.25-1.05s.08-.75.24-1.05.39-.54.68-.71.62-.26 1-.26.71.09 1 .26.52.41.68.71q.24.45.24 1.05c0 .6-.08.74-.24 1.05-.16.3-.39.54-.67.71-.29.17-.62.26-.99.26Zm0-.57c.25 0 .47-.06.67-.18q.285-.18.45-.51c.11-.22.17-.47.17-.75s-.05-.53-.17-.75a1.2 1.2 0 0 0-.46-.51c-.2-.12-.42-.18-.68-.18s-.47.06-.67.18c-.19.12-.34.29-.46.51s-.17.47-.17.75.05.53.17.75c.11.22.26.39.46.51s.42.18.67.18Z" fill="#fffdf0"/>
        <path d="M116.21 23.2c-.34 0-.65-.08-.91-.25s-.47-.41-.61-.71-.22-.66-.22-1.05.07-.75.22-1.06c.15-.3.35-.54.61-.71s.56-.25.91-.25c.32 0 .61.08.85.25s.43.41.57.71c.13.3.2.66.2 1.06s-.07.75-.2 1.05-.32.54-.57.71c-.24.17-.53.25-.85.25m.14-.56q.345 0 .6-.18c.17-.12.31-.3.41-.52q.15-.33.15-.75c0-.42-.05-.53-.15-.75s-.24-.39-.41-.52c-.17-.12-.38-.19-.61-.19s-.46.06-.64.19c-.19.12-.33.29-.44.52-.11.22-.16.47-.16.75s.05.53.16.75.26.39.45.52c.19.12.41.18.65.18Zm1.19.47-.03-.72v-4.67h.62v5.39z" fill="#fffdf0"/>
        <path d="M120.89 23.2c-.38 0-.71-.09-.99-.26-.29-.17-.51-.41-.67-.71q-.24-.45-.24-1.05c0-.6.08-.75.24-1.05s.38-.54.67-.71c.28-.17.61-.26.98-.26s.67.09.93.27.46.42.61.74.22.69.22 1.12h-3.18l.15-.13c0 .31.05.57.17.79s.27.39.47.5c.2.12.43.17.69.17.27 0 .5-.06.69-.19s.33-.3.43-.51l.53.27c-.1.2-.23.38-.39.52-.16.15-.35.26-.57.35-.22.08-.46.12-.73.12Zm-1.25-2.3-.16-.12h2.66l-.16.13c0-.25-.05-.46-.15-.64q-.15-.27-.39-.42c-.17-.1-.35-.15-.57-.15s-.41.05-.6.15-.34.24-.45.41c-.12.18-.17.39-.17.64Z" fill="#fffdf0"/>
        <path d="M126.53 23.2c-.45 0-.8-.1-1.06-.31-.25-.21-.38-.5-.38-.87q0-.585.39-.9c.26-.21.62-.31 1.09-.31h1.1v.52h-.96c-.36 0-.61.06-.77.18a.62.62 0 0 0-.23.51c0 .2.07.36.22.47.15.12.36.17.62.17.22 0 .41-.05.58-.14.16-.1.29-.23.38-.41s.13-.39.13-.63h.26c0 .52-.12.94-.35 1.25s-.58.47-1.03.47Zm1.15-.09-.03-.63v-1.4c0-.3-.03-.55-.1-.75s-.17-.35-.32-.45-.33-.15-.56-.15c-.21 0-.39.04-.54.13-.15.08-.28.22-.37.4l-.55-.21c.1-.18.21-.33.35-.47s.3-.23.49-.3.4-.1.63-.1c.36 0 .66.07.89.21s.41.35.53.62.17.62.17 1.02v2.09h-.58Zm-1.49-4.4.9-.99h.79l-.99.99z" fill="#fffdf0"/>
        <path d="M130.95 23.2c-.38 0-.72-.09-1.01-.26s-.52-.41-.68-.71c-.17-.3-.25-.65-.25-1.05s.08-.75.24-1.05.39-.54.68-.71.63-.26 1-.26.7.08.99.25.52.41.67.72l-.56.25q-.15-.315-.45-.48c-.2-.12-.42-.17-.67-.17s-.47.06-.67.18c-.19.12-.34.29-.46.51-.11.22-.17.47-.17.75s.05.53.17.75c.11.22.26.39.46.51s.42.18.67.18.48-.06.67-.19q.3-.195.45-.54l.56.25c-.15.33-.38.58-.67.77-.29.18-.63.28-1 .28Z" fill="#fffdf0"/>
        <path d="M133.75 18.36q-.15 0-.27-.12t-.12-.27c0-.15.04-.2.12-.27.08-.08.17-.11.27-.11s.2.04.27.11.11.17.11.27-.04.19-.11.27q-.12.12-.27.12m-.32 4.75v-3.85h.62v3.85z" fill="#fffdf0"/>
        <path d="M136.7 23.2c-.34 0-.65-.08-.91-.25s-.47-.41-.61-.71-.22-.66-.22-1.05.07-.75.22-1.06c.15-.3.35-.54.61-.71s.56-.25.91-.25c.32 0 .61.08.85.25s.43.41.57.71c.13.3.2.66.2 1.06s-.07.75-.2 1.05-.32.54-.57.71c-.24.17-.53.25-.85.25m.14-.56q.345 0 .6-.18c.17-.12.31-.3.41-.52q.15-.33.15-.75c0-.42-.05-.53-.15-.75s-.24-.39-.41-.52c-.17-.12-.38-.19-.61-.19s-.46.06-.64.19c-.19.12-.33.29-.44.52-.11.22-.16.47-.16.75s.05.53.16.75.26.39.45.52c.19.12.41.18.65.18Zm1.19.47-.03-.72v-4.67h.62v5.39z" fill="#fffdf0"/>
        <path d="M141.4 23.2c-.38 0-.71-.09-1-.26s-.52-.41-.68-.71c-.17-.3-.25-.65-.25-1.05s.08-.75.24-1.05.39-.54.68-.71.62-.26 1-.26.71.09 1 .26.52.41.68.71q.24.45.24 1.05c0 .6-.08.74-.24 1.05-.16.3-.39.54-.67.71-.29.17-.62.26-.99.26Zm-.01-.57c.25 0 .47-.06.67-.18q.285-.18.45-.51c.11-.22.17-.47.17-.75s-.05-.53-.17-.75a1.2 1.2 0 0 0-.46-.51c-.2-.12-.42-.18-.68-.18s-.47.06-.67.18c-.19.12-.34.29-.46.51s-.17.47-.17.75.05.53.17.75c.11.22.26.39.46.51s.42.18.67.18Z" fill="#fffdf0"/>
        <path d="M145.51 23.2c-.28 0-.53-.04-.74-.13-.21-.08-.39-.2-.53-.33q-.21-.21-.3-.45l.54-.22c.09.17.22.32.39.42.17.11.37.16.58.16.24 0 .44-.05.61-.14a.45.45 0 0 0 .25-.4c0-.16-.06-.29-.18-.38q-.18-.15-.54-.24l-.37-.1c-.35-.09-.62-.23-.82-.42-.19-.19-.29-.4-.29-.64 0-.36.12-.65.36-.85s.59-.3 1.07-.3c.23 0 .43.03.62.1.18.07.34.16.48.28.13.12.23.26.29.43l-.54.24a.73.73 0 0 0-.33-.38 1.2 1.2 0 0 0-.56-.12c-.24 0-.42.05-.55.15s-.2.24-.2.42c0 .1.06.2.17.29s.27.16.49.22l.38.1q.375.09.63.27c.17.12.3.26.39.41s.13.32.13.49c0 .23-.06.43-.19.6-.12.17-.29.3-.5.39s-.45.13-.72.13Z" fill="#fffdf0"/>
        <path d="M151.16 23.07a1.64 1.64 0 0 1-1.52-.94c-.15-.29-.22-.63-.22-1.01s.07-.73.22-1.03.35-.53.61-.69.56-.25.91-.25c.32 0 .61.08.85.25q.36.24.57.69c.21.45.2.64.2 1.03s-.07.72-.2 1.02c-.14.29-.32.52-.57.69-.24.16-.52.25-.85.25Zm.03 1.67c-.25 0-.47-.02-.67-.07s-.38-.1-.52-.16q-.21-.09-.3-.15l.23-.5c.07.04.16.08.29.13.12.05.27.1.43.14.17.04.34.06.54.06.25 0 .47-.05.67-.15s.35-.26.46-.47.17-.49.17-.82v-3.49h.62v3.48c0 .44-.08.81-.25 1.11-.16.3-.39.52-.68.67s-.61.22-.98.22Zm.12-2.2q.345 0 .6-.18c.255-.18.31-.29.41-.5s.15-.46.15-.74-.05-.51-.15-.73c-.1-.21-.24-.38-.41-.5q-.255-.18-.6-.18c-.345 0-.46.06-.64.18-.19.12-.33.29-.44.5-.1.21-.16.46-.16.73s.05.53.16.74.26.38.44.5c.19.12.4.18.64.18" fill="#fffdf0"/>
        <path d="M154.17 23.11v-3.85h.62v3.85zm.34-2.09c0-.42.08-.75.24-1.01s.36-.45.61-.58.51-.19.79-.19v.58c-.23 0-.44.04-.65.11-.21.08-.38.2-.51.37s-.2.4-.2.69z" fill="#fffdf0"/>
        <path d="M157.99 23.2c-.45 0-.8-.1-1.06-.31-.25-.21-.38-.5-.38-.87q0-.585.39-.9c.26-.21.62-.31 1.09-.31h1.1v.52h-.96c-.36 0-.61.06-.77.18a.62.62 0 0 0-.23.51c0 .2.07.36.22.47.15.12.36.17.62.17.22 0 .41-.05.58-.14.16-.1.29-.23.38-.41s.13-.39.13-.63h.26c0 .52-.12.94-.35 1.25s-.58.47-1.03.47Zm1.15-.09-.03-.63v-1.4c0-.3-.03-.55-.1-.75s-.17-.35-.32-.45-.33-.15-.56-.15c-.21 0-.39.04-.54.13-.15.08-.28.22-.37.4l-.55-.21c.1-.18.21-.33.35-.47s.3-.23.49-.3.4-.1.63-.1c.36 0 .66.07.89.21s.41.35.53.62.17.62.17 1.02v2.09h-.58Z" fill="#fffdf0"/>
        <path d="m160.24 23.11 1.57-2.21 1.11-1.64h.73l-1.46 2.08-1.2 1.77zm2.76 0-1.19-1.77-1.48-2.08h.73l1.12 1.64 1.55 2.21h-.74Z" fill="#fffdf0"/>
        <path d="M166.03 23.2c-.38 0-.71-.09-1-.26s-.52-.41-.68-.71c-.17-.3-.25-.65-.25-1.05s.08-.75.24-1.05.39-.54.68-.71.62-.26 1-.26.71.09 1 .26.52.41.68.71q.24.45.24 1.05c0 .6-.08.74-.24 1.05-.16.3-.39.54-.67.71-.29.17-.62.26-.99.26Zm-.01-.57c.25 0 .47-.06.67-.18q.285-.18.45-.51c.11-.22.17-.47.17-.75s-.05-.53-.17-.75a1.2 1.2 0 0 0-.46-.51c-.2-.12-.42-.18-.68-.18s-.47.06-.67.18c-.19.12-.34.29-.46.51s-.17.47-.17.75.05.53.17.75c.11.22.26.39.46.51s.42.18.67.18Z" fill="#fffdf0"/>
        <path d="M170.13 23.2c-.28 0-.53-.04-.74-.13-.21-.08-.39-.2-.53-.33q-.21-.21-.3-.45l.54-.22c.09.17.22.32.39.42.17.11.37.16.58.16.24 0 .44-.05.61-.14a.45.45 0 0 0 .25-.4c0-.16-.06-.29-.18-.38q-.18-.15-.54-.24l-.37-.1c-.35-.09-.62-.23-.82-.42-.19-.19-.29-.4-.29-.64 0-.36.12-.65.36-.85s.59-.3 1.07-.3c.23 0 .43.03.62.1.18.07.34.16.48.28.13.12.23.26.29.43l-.54.24a.73.73 0 0 0-.33-.38 1.2 1.2 0 0 0-.56-.12c-.24 0-.42.05-.55.15s-.2.24-.2.42c0 .1.06.2.17.29s.27.16.49.22l.38.1q.375.09.63.27c.17.12.3.26.39.41s.13.32.13.49c0 .23-.06.43-.19.6-.12.17-.29.3-.5.39s-.45.13-.72.13Z" fill="#fffdf0"/>
        <path d="M67.43 31.9c-.38 0-.71-.09-1-.26s-.52-.41-.68-.71c-.17-.3-.25-.65-.25-1.05s.08-.75.24-1.05.39-.54.68-.71.62-.26 1-.26.71.09 1 .26.52.41.68.71q.24.45.24 1.05c0 .6-.08.74-.24 1.05-.16.3-.39.54-.67.71-.29.17-.62.26-.99.26Zm-1.35-4.58.93-1h.75v.02l-1.01.98h-.68Zm1.34 4.01c.25 0 .47-.06.67-.18q.285-.18.45-.51c.11-.22.17-.47.17-.75s-.05-.53-.17-.75a1.2 1.2 0 0 0-.46-.51c-.2-.12-.42-.18-.68-.18s-.47.06-.67.18c-.19.12-.34.29-.46.51s-.17.47-.17.75.05.53.17.75c.11.22.26.39.46.51s.42.18.67.18Zm.61-4.01-1.01-.98v-.02h.75l.93 1h-.68Z" fill="#fffdf0"/>
        <path d="M70.18 31.81v-3.85h.58l.03.54c.12-.21.27-.36.45-.47s.4-.16.65-.16c.31 0 .57.07.79.22.22.14.38.36.47.65.11-.28.27-.5.47-.65.21-.15.46-.22.74-.22.43 0 .77.14 1.02.43s.37.72.37 1.31v2.2h-.62v-1.97q0-.57-.12-.87c-.08-.2-.19-.34-.32-.41a1 1 0 0 0-.46-.11c-.3 0-.54.12-.71.36s-.25.58-.25 1.01v1.99h-.62v-1.97q0-.57-.12-.87c-.08-.2-.19-.34-.32-.41-.14-.07-.29-.11-.47-.11-.3 0-.53.12-.7.36s-.25.58-.25 1.01v1.99h-.62Z" fill="#fffdf0"/>
        <path d="M78.42 31.9c-.38 0-.71-.09-.99-.26-.29-.17-.51-.41-.67-.71q-.24-.45-.24-1.05c0-.6.08-.75.24-1.05s.38-.54.67-.71c.28-.17.61-.26.98-.26s.67.09.93.27.46.42.61.74.22.69.22 1.12h-3.18l.15-.13c0 .31.05.57.17.79.11.22.27.39.47.5.2.12.43.17.69.17.27 0 .5-.06.69-.19s.33-.3.43-.51l.53.27c-.1.2-.23.38-.39.52-.16.15-.35.26-.57.35-.22.08-.46.12-.73.12Zm-1.25-2.3-.16-.12h2.66l-.16.13c0-.25-.05-.46-.15-.64q-.15-.27-.39-.42c-.17-.1-.35-.15-.57-.15s-.41.05-.6.15-.34.24-.45.41c-.12.18-.17.39-.17.64Z" fill="#fffdf0"/>
        <path d="M82.46 31.78a1.64 1.64 0 0 1-1.52-.94c-.15-.29-.22-.63-.22-1.01s.07-.73.22-1.03.35-.53.61-.69.56-.25.91-.25c.32 0 .61.08.85.25q.36.24.57.69c.21.45.2.64.2 1.03s-.07.72-.2 1.02c-.14.29-.32.52-.57.69-.24.16-.52.25-.85.25Zm.02 1.66c-.25 0-.47-.02-.67-.07s-.38-.1-.52-.16q-.21-.09-.3-.15l.23-.5c.07.04.16.08.29.13.12.05.27.1.43.14.17.04.34.06.54.06.25 0 .47-.05.67-.15s.35-.26.46-.47.17-.49.17-.82v-3.49h.62v3.48c0 .44-.08.81-.25 1.11-.16.3-.39.52-.68.67s-.61.22-.98.22Zm.12-2.2q.345 0 .6-.18c.255-.18.31-.29.41-.5s.15-.46.15-.74-.05-.51-.15-.73c-.1-.21-.24-.38-.41-.5q-.255-.18-.6-.18c-.345 0-.46.06-.64.18-.19.12-.33.29-.44.5-.1.21-.16.46-.16.73s.05.53.16.74.26.38.44.5c.19.12.4.18.64.18" fill="#fffdf0"/>
        <path d="M86.68 31.9c-.45 0-.8-.1-1.06-.31-.25-.21-.38-.5-.38-.87q0-.585.39-.9c.26-.21.62-.31 1.09-.31h1.1v.52h-.96c-.36 0-.61.06-.77.18a.62.62 0 0 0-.23.51c0 .2.07.36.22.47.15.12.36.17.62.17.22 0 .41-.05.58-.14.16-.1.29-.23.38-.41s.13-.39.13-.63h.26c0 .52-.12.94-.35 1.25s-.58.47-1.03.47Zm1.15-.09-.03-.63v-1.4c0-.3-.03-.55-.1-.75s-.17-.35-.32-.45-.33-.15-.56-.15c-.21 0-.39.04-.54.13-.15.08-.28.22-.37.4l-.55-.21c.1-.18.21-.33.35-.47s.3-.23.49-.3.4-.1.63-.1c.36 0 .66.07.89.21s.41.35.53.62.17.62.17 1.02v2.09h-.58Z" fill="#fffdf0"/>
        <path d="M92.82 31.9c-.26 0-.5-.04-.71-.12s-.4-.18-.55-.31-.27-.26-.36-.41l.54-.3.21.24c.08.09.19.17.33.23s.3.09.49.09q.525 0 .84-.3c.21-.2.32-.45.32-.75 0-.23-.06-.43-.19-.58s-.31-.28-.54-.36a2.7 2.7 0 0 0-.85-.12h-.15v-.51h.13c.32 0 .62.04.89.11s.51.18.71.32.36.31.47.51.17.43.17.69q0 .48-.24.84c-.16.24-.37.42-.63.55-.27.13-.56.2-.89.2Zm-.62-2.76v-.5h.15c.44 0 .79-.08 1.05-.23s.39-.37.39-.65a.82.82 0 0 0-.48-.75 1.2 1.2 0 0 0-.54-.12q-.21 0-.39.06c-.12.04-.23.1-.33.17s-.19.17-.27.28l-.51-.29c.1-.16.22-.3.37-.42s.32-.21.52-.28.41-.1.64-.1q.465 0 .84.18c.375.18.45.29.59.5s.22.45.22.72c0 .23-.05.43-.16.6q-.165.255-.45.45c-.285.195-.42.21-.67.27s-.53.09-.83.09h-.13Z" fill="#fffdf0"/>
        <path d="M99.06 31.9c-.38 0-.71-.09-.99-.26-.29-.17-.51-.41-.67-.71q-.24-.45-.24-1.05c0-.6.08-.75.24-1.05s.38-.54.67-.71c.28-.17.61-.26.98-.26s.67.09.93.27.46.42.61.74.22.69.22 1.12h-3.18l.15-.13c0 .31.05.57.17.79s.27.39.47.5c.2.12.43.17.69.17.27 0 .5-.06.69-.19s.33-.3.43-.51l.53.27c-.1.2-.23.38-.39.52-.16.15-.35.26-.57.35-.22.08-.46.12-.73.12Zm-1.24-2.3-.16-.12h2.66l-.16.13c0-.25-.05-.46-.15-.64q-.15-.27-.39-.42c-.17-.1-.35-.15-.57-.15s-.41.05-.6.15-.34.24-.45.41c-.12.18-.17.39-.17.64Z" fill="#fffdf0"/>
        <path d="M105.24 31.9q-.555 0-.93-.21t-.6-.57c-.15-.24-.26-.52-.32-.83-.06-.32-.1-.65-.1-1 0-.46.05-.88.14-1.24s.23-.67.41-.93c.18-.25.4-.45.65-.58s.55-.2.87-.2c.27 0 .53.04.8.13.26.08.5.2.7.35l-.36.46c-.17-.11-.34-.2-.53-.27-.19-.06-.37-.1-.55-.1-.52 0-.92.22-1.19.66q-.405.66-.36 2.01l-.14-.14c.12-.31.32-.56.59-.74q.405-.27.96-.27c.34 0 .65.08.92.22.27.15.48.36.63.62s.23.57.23.9-.08.63-.23.9c-.15.26-.37.47-.64.62s-.59.22-.96.22Zm0-.57c.23 0 .43-.05.61-.15q.27-.15.42-.42c.1-.18.15-.38.15-.61s-.05-.44-.15-.61c-.1-.18-.24-.31-.42-.41s-.38-.15-.61-.15-.43.05-.61.15-.32.23-.42.41-.15.38-.15.61.05.43.15.61q.15.27.42.42c.18.1.38.15.61.15" fill="#fffdf0"/>
        <path d="m107.61 32.69.44-1.62h.69l-.6 1.62z" fill="#fffdf0"/>
        <path d="M112.7 31.9c-.45 0-.8-.1-1.06-.31-.25-.21-.38-.5-.38-.87q0-.585.39-.9c.26-.21.62-.31 1.09-.31h1.1v.52h-.96c-.36 0-.61.06-.77.18a.62.62 0 0 0-.23.51c0 .2.07.36.22.47.15.12.36.17.62.17.22 0 .41-.05.58-.14.16-.1.29-.23.38-.41s.13-.39.13-.63h.26c0 .52-.12.94-.35 1.25s-.58.47-1.03.47Zm1.15-.09-.03-.63v-1.4c0-.3-.03-.55-.1-.75s-.17-.35-.32-.45c-.14-.1-.33-.15-.56-.15-.21 0-.39.04-.54.13-.15.08-.28.22-.37.4l-.55-.21c.1-.18.21-.33.35-.47s.3-.23.49-.3.4-.1.63-.1c.36 0 .66.07.89.21s.41.35.53.62.17.62.17 1.02v2.09h-.58Z" fill="#fffdf0"/>
        <path d="M115.41 31.81v-5.39h.62v5.39z" fill="#fffdf0"/>
        <path d="M118.79 31.9c-.38 0-.71-.09-.99-.26-.29-.17-.51-.41-.67-.71q-.24-.45-.24-1.05c0-.6.08-.75.24-1.05s.38-.54.67-.71c.28-.17.61-.26.98-.26s.67.09.93.27.46.42.61.74.22.69.22 1.12h-3.18l.15-.13c0 .31.05.57.17.79s.27.39.47.5c.2.12.43.17.69.17.27 0 .5-.06.69-.19s.33-.3.43-.51l.53.27c-.1.2-.23.38-.39.52-.16.15-.35.26-.57.35-.22.08-.46.12-.73.12Zm-1.25-2.3-.16-.12h2.66l-.16.13c0-.25-.05-.46-.15-.64q-.15-.27-.39-.42c-.17-.1-.35-.15-.57-.15s-.41.05-.6.15-.34.24-.45.41c-.12.18-.17.39-.17.64Zm.72-2.19.9-.99h.79l-.99.99z" fill="#fffdf0"/>
        <path d="M121.32 31.81v-3.85h.58l.03.54c.12-.21.27-.36.45-.47s.4-.16.65-.16c.31 0 .57.07.79.22.22.14.38.36.47.65.11-.28.27-.5.47-.65.21-.15.46-.22.74-.22.43 0 .77.14 1.02.43s.37.72.37 1.31v2.2h-.62v-1.97q0-.57-.12-.87c-.08-.2-.19-.34-.32-.41a1 1 0 0 0-.46-.11c-.3 0-.54.12-.71.36s-.25.58-.25 1.01v1.99h-.62v-1.97q0-.57-.12-.87c-.08-.2-.19-.34-.32-.41-.14-.07-.29-.11-.47-.11-.3 0-.53.12-.7.36s-.25.58-.25 1.01v1.99h-.62Z" fill="#fffdf0"/>
        <path d="M131.29 31.9c-.34 0-.65-.08-.91-.25s-.47-.41-.61-.71-.22-.66-.22-1.05.07-.75.22-1.06c.15-.3.35-.54.61-.71s.56-.25.91-.25c.32 0 .61.08.85.25s.43.41.57.71c.13.3.2.66.2 1.06s-.07.75-.2 1.05-.32.54-.57.71c-.24.17-.53.25-.85.25m.13-.56q.345 0 .6-.18c.17-.12.31-.3.41-.52q.15-.33.15-.75c0-.42-.05-.53-.15-.75s-.24-.39-.41-.52c-.17-.12-.38-.19-.61-.19s-.46.06-.64.19c-.19.12-.33.29-.44.52-.11.22-.16.47-.16.75s.05.53.16.75.26.39.45.52c.19.12.41.18.65.18Zm1.2.47-.03-.72v-4.67h.62v5.39z" fill="#fffdf0"/>
        <path d="M135.97 31.9c-.38 0-.71-.09-.99-.26-.29-.17-.51-.41-.67-.71q-.24-.45-.24-1.05c0-.6.08-.75.24-1.05s.38-.54.67-.71c.28-.17.61-.26.98-.26s.67.09.93.27.46.42.61.74.22.69.22 1.12h-3.18l.15-.13c0 .31.05.57.17.79s.27.39.47.5c.2.12.43.17.69.17.27 0 .5-.06.69-.19s.33-.3.43-.51l.53.27c-.1.2-.23.38-.39.52-.16.15-.35.26-.57.35-.22.08-.46.12-.73.12Zm-1.25-2.3-.16-.12h2.66l-.16.13c0-.25-.05-.46-.15-.64q-.15-.27-.39-.42c-.17-.1-.35-.15-.57-.15s-.41.05-.6.15-.34.24-.45.41c-.12.18-.17.39-.17.64Z" fill="#fffdf0"/>
        <path d="M140.19 31.81v-.49l2.27-2.82h-2.27v-.54h3.07v.48l-2.28 2.83h2.29v.54h-3.09Z" fill="#fffdf0"/>
        <path d="M144.52 27.06q-.15 0-.27-.12t-.12-.27c0-.15.04-.2.12-.27.08-.08.17-.11.27-.11s.2.04.27.11.11.17.11.27-.04.19-.11.27q-.12.12-.27.12m-.32 4.75v-3.85h.62v3.85z" fill="#fffdf0"/>
        <path d="M145.95 31.81v-3.85h.58l.04.71v3.14zm2.71-1.98c0-.38-.04-.67-.13-.87s-.21-.34-.36-.41a1.2 1.2 0 0 0-.52-.11c-.34 0-.6.12-.79.36s-.28.58-.28 1.01h-.3c0-.41.06-.75.18-1.05.12-.29.29-.52.52-.67s.5-.23.82-.23.57.06.79.18.4.31.52.57c.13.26.19.61.18 1.03v.18h-.62Zm0 1.98v-1.97h.62v1.97z" fill="#fffdf0"/>
        <path d="M151.97 31.9c-.38 0-.72-.09-1.01-.26s-.52-.41-.68-.71c-.17-.3-.25-.65-.25-1.05s.08-.75.24-1.05.39-.54.68-.71.63-.26 1-.26.7.08.99.25.52.41.67.72l-.56.25q-.15-.315-.45-.48c-.2-.12-.42-.17-.67-.17s-.47.06-.67.18c-.19.12-.34.29-.46.51-.11.22-.17.47-.17.75s.05.53.17.75c.11.22.26.39.46.51s.42.18.67.18.48-.06.67-.19q.3-.195.45-.54l.56.25c-.15.33-.38.58-.67.77-.29.18-.63.28-1 .28Z" fill="#fffdf0"/>
        <path d="M156.12 31.9c-.38 0-.71-.09-1-.26s-.52-.41-.68-.71c-.17-.3-.25-.65-.25-1.05s.08-.75.24-1.05.39-.54.68-.71.62-.26 1-.26.71.09 1 .26.52.41.68.71q.24.45.24 1.05c0 .6-.08.74-.24 1.05-.16.3-.39.54-.67.71-.29.17-.62.26-.99.26Zm0-.57c.25 0 .47-.06.67-.18q.285-.18.45-.51c.11-.22.17-.47.17-.75s-.05-.53-.17-.75a1.2 1.2 0 0 0-.46-.51c-.2-.12-.42-.18-.68-.18s-.47.06-.67.18c-.19.12-.34.29-.46.51s-.17.47-.17.75.05.53.17.75c.11.22.26.39.46.51s.42.18.67.18Z" fill="#fffdf0"/>
        <path d="M162.49 31.9c-.38 0-.71-.09-1-.26s-.52-.41-.68-.71c-.17-.3-.25-.65-.25-1.05s.08-.75.24-1.05.39-.54.68-.71.62-.26 1-.26.71.09 1 .26.52.41.68.71q.24.45.24 1.05c0 .6-.08.74-.24 1.05-.16.3-.39.54-.67.71-.29.17-.62.26-.99.26Zm-.01-.57c.25 0 .47-.06.67-.18q.285-.18.45-.51c.11-.22.17-.47.17-.75s-.05-.53-.17-.75a1.2 1.2 0 0 0-.46-.51c-.2-.12-.42-.18-.68-.18s-.47.06-.67.18c-.19.12-.34.29-.46.51s-.17.47-.17.75.05.53.17.75c.11.22.26.39.46.51s.42.18.67.18Z" fill="#fffdf0"/>
        <path d="M165.25 31.81v-3.85h.62v3.85zm.34-2.09c0-.42.08-.75.24-1.01s.36-.45.61-.58.51-.19.79-.19v.58c-.23 0-.44.04-.65.11-.21.08-.38.2-.51.37s-.2.4-.2.69z" fill="#fffdf0"/>
        <path d="M169.37 31.78a1.64 1.64 0 0 1-1.52-.94c-.15-.29-.22-.63-.22-1.01s.07-.73.22-1.03.35-.53.61-.69.56-.25.91-.25c.32 0 .61.08.85.25q.36.24.57.69c.21.45.2.64.2 1.03s-.07.72-.2 1.02c-.14.29-.32.52-.57.69-.24.16-.52.25-.85.25Zm.02 1.66c-.25 0-.47-.02-.67-.07s-.38-.1-.52-.16q-.21-.09-.3-.15l.23-.5c.07.04.16.08.29.13.12.05.27.1.43.14.17.04.34.06.54.06.25 0 .47-.05.67-.15s.35-.26.46-.47.17-.49.17-.82v-3.49h.62v3.48c0 .44-.08.81-.25 1.11-.16.3-.39.52-.68.67s-.61.22-.98.22Zm.12-2.2q.345 0 .6-.18c.255-.18.31-.29.41-.5s.15-.46.15-.74-.05-.51-.15-.73c-.1-.21-.24-.38-.41-.5q-.255-.18-.6-.18c-.345 0-.46.06-.64.18-.19.12-.33.29-.44.5-.1.21-.16.46-.16.73s.05.53.16.74.26.38.44.5c.19.12.4.18.64.18" fill="#fffdf0"/>
        <path d="M173.59 31.9c-.45 0-.8-.1-1.06-.31-.25-.21-.38-.5-.38-.87q0-.585.39-.9c.26-.21.62-.31 1.09-.31h1.1v.52h-.96c-.36 0-.61.06-.77.18a.62.62 0 0 0-.23.51c0 .2.07.36.22.47.15.12.36.17.62.17.22 0 .41-.05.58-.14.16-.1.29-.23.38-.41s.13-.39.13-.63h.26c0 .52-.12.94-.35 1.25s-.58.47-1.03.47Zm1.15-.09-.03-.63v-1.4c0-.3-.03-.55-.1-.75s-.17-.35-.32-.45-.33-.15-.56-.15c-.21 0-.39.04-.54.13-.15.08-.28.22-.37.4l-.55-.21c.1-.18.21-.33.35-.47s.3-.23.49-.3.4-.1.63-.1c.36 0 .66.07.89.21s.41.35.53.62.17.62.17 1.02v2.09h-.58Zm-2.29-4.49.93-1h.75v.02l-1.01.98h-.68Zm1.95 0-1.01-.98v-.02h.75l.93 1h-.68Z" fill="#fffdf0"/>
        <path d="M176.29 31.81v-3.85h.58l.04.71v3.14zm2.7-1.98c0-.38-.04-.67-.13-.87s-.21-.34-.36-.41a1.2 1.2 0 0 0-.52-.11c-.34 0-.6.12-.79.36s-.28.58-.28 1.01h-.3c0-.41.06-.75.18-1.05.12-.29.29-.52.52-.67s.5-.23.82-.23.57.06.79.18.4.31.52.57c.13.26.19.61.18 1.03v.18H179Zm0 1.98v-1.97h.62v1.97z" fill="#fffdf0"/>
        <path d="M180.94 27.06q-.15 0-.27-.12t-.12-.27c0-.15.04-.2.12-.27.08-.08.17-.11.27-.11s.2.04.27.11.11.17.11.27-.04.19-.11.27q-.12.12-.27.12m-.32 4.75v-3.85h.62v3.85z" fill="#fffdf0"/>
        <path d="M184.09 31.9c-.38 0-.72-.09-1.01-.26s-.52-.41-.68-.71c-.17-.3-.25-.65-.25-1.05s.08-.75.24-1.05.39-.54.68-.71.63-.26 1-.26.7.08.99.25.52.41.67.72l-.56.25q-.15-.315-.45-.48c-.2-.12-.42-.17-.67-.17s-.47.06-.67.18c-.19.12-.34.29-.46.51-.11.22-.17.47-.17.75s.05.53.17.75c.11.22.26.39.46.51s.42.18.67.18.48-.06.67-.19q.3-.195.45-.54l.56.25c-.15.33-.38.58-.67.77-.29.18-.63.28-1 .28Z" fill="#fffdf0"/>
        <path d="M188.25 31.9c-.38 0-.71-.09-1-.26s-.52-.41-.68-.71c-.17-.3-.25-.65-.25-1.05s.08-.75.24-1.05.39-.54.68-.71.62-.26 1-.26.71.09 1 .26.52.41.68.71q.24.45.24 1.05c0 .6-.08.74-.24 1.05-.16.3-.39.54-.67.71-.29.17-.62.26-.99.26Zm-.01-.57c.25 0 .47-.06.67-.18q.285-.18.45-.51c.11-.22.17-.47.17-.75s-.05-.53-.17-.75a1.2 1.2 0 0 0-.46-.51c-.2-.12-.42-.18-.68-.18s-.47.06-.67.18c-.19.12-.34.29-.46.51s-.17.47-.17.75.05.53.17.75c.11.22.26.39.46.51s.42.18.67.18Z" fill="#fffdf0"/>
        <path d="m190.77 32.69.44-1.62h.69l-.6 1.62z" fill="#fffdf0"/>
        <path d="M65.72 40.51v-3.85h.58l.04.71v3.14zm2.7-1.98c0-.38-.04-.67-.13-.87s-.21-.34-.36-.41-.33-.11-.52-.11c-.34 0-.6.12-.79.36s-.28.58-.28 1.01h-.3c0-.41.06-.75.18-1.05.12-.29.29-.52.52-.67s.5-.23.82-.23.57.06.79.18.4.31.52.57.19.61.18 1.03v.18h-.62Zm0 1.98v-1.97h.62v1.97z" fill="#fffdf0"/>
        <path d="M71.72 40.6c-.38 0-.71-.09-1-.26s-.52-.41-.68-.71c-.17-.3-.25-.65-.25-1.05s.08-.74.24-1.05c.16-.3.39-.54.68-.71s.62-.26 1-.26.71.09 1 .26.52.41.68.71q.24.45.24 1.05c0 .6-.08.74-.24 1.05-.16.3-.39.54-.67.71-.29.17-.62.26-.99.26Zm-.01-.57c.25 0 .47-.06.67-.18q.285-.18.45-.51c.11-.22.17-.47.17-.75s-.05-.53-.17-.75a1.2 1.2 0 0 0-.46-.51c-.2-.12-.42-.18-.68-.18s-.47.06-.67.18-.34.29-.46.51c-.11.22-.17.47-.17.75s.05.53.17.75c.11.22.26.39.46.51s.42.18.67.18Z" fill="#fffdf0"/>
        <path d="M75.83 40.6c-.28 0-.53-.04-.74-.13-.21-.08-.39-.2-.53-.33q-.21-.21-.3-.45l.54-.22c.09.17.22.32.39.42.17.11.37.16.58.16.24 0 .44-.05.61-.14a.45.45 0 0 0 .25-.4c0-.16-.06-.29-.18-.38q-.18-.15-.54-.24l-.37-.1c-.35-.09-.62-.23-.82-.42-.19-.19-.29-.4-.29-.63 0-.36.12-.65.36-.85s.59-.3 1.07-.3c.23 0 .43.03.62.1.18.07.34.16.48.28.13.12.23.26.29.43l-.54.24a.73.73 0 0 0-.33-.38 1.2 1.2 0 0 0-.56-.12c-.24 0-.42.05-.55.15s-.2.24-.2.42c0 .1.06.2.17.29s.27.16.49.22l.38.1q.375.09.63.27c.17.12.3.26.39.41s.13.32.13.49c0 .23-.06.43-.19.6-.12.17-.29.3-.5.39s-.45.13-.72.13Z" fill="#fffdf0"/>
        <path d="M79.41 40.6c-.28 0-.53-.04-.74-.13-.21-.08-.39-.2-.53-.33q-.21-.21-.3-.45l.54-.22c.09.17.22.32.39.42.17.11.37.16.58.16.24 0 .44-.05.61-.14a.45.45 0 0 0 .25-.4c0-.16-.06-.29-.18-.38q-.18-.15-.54-.24l-.37-.1c-.35-.09-.62-.23-.82-.42-.19-.19-.29-.4-.29-.63 0-.36.12-.65.36-.85s.59-.3 1.07-.3c.23 0 .43.03.62.1.18.07.34.16.48.28.13.12.23.26.29.43l-.54.24a.73.73 0 0 0-.33-.38 1.2 1.2 0 0 0-.56-.12c-.24 0-.42.05-.55.15s-.2.24-.2.42c0 .1.06.2.17.29s.27.16.49.22l.38.1q.375.09.63.27c.17.12.3.26.39.41s.13.32.13.49c0 .23-.06.43-.19.6-.12.17-.29.3-.5.39s-.45.13-.72.13Z" fill="#fffdf0"/>
        <path d="M83.36 40.6c-.38 0-.71-.09-1-.26s-.52-.41-.68-.71c-.17-.3-.25-.65-.25-1.05s.08-.74.24-1.05c.16-.3.39-.54.68-.71s.62-.26 1-.26.71.09 1 .26.52.41.68.71q.24.45.24 1.05c0 .6-.08.74-.24 1.05-.16.3-.39.54-.67.71-.29.17-.62.26-.99.26Zm0-.57c.25 0 .47-.06.67-.18q.285-.18.45-.51c.11-.22.17-.47.17-.75s-.05-.53-.17-.75a1.2 1.2 0 0 0-.46-.51c-.2-.12-.42-.18-.68-.18s-.47.06-.67.18c-.19.12-.34.29-.46.51-.11.22-.17.47-.17.75s.05.53.17.75c.11.22.26.39.46.51s.42.18.67.18Z" fill="#fffdf0"/>
        <path d="M89.24 40.6c-.45 0-.8-.1-1.06-.31-.25-.21-.38-.5-.38-.87q0-.585.39-.9c.26-.21.62-.31 1.09-.31h1.1v.52h-.96c-.36 0-.61.06-.77.18a.62.62 0 0 0-.23.51c0 .2.07.36.22.47.15.12.36.17.62.17.22 0 .41-.05.58-.14.16-.09.29-.23.38-.41s.13-.39.13-.63h.26c0 .52-.12.94-.35 1.25s-.58.47-1.03.47Zm1.15-.09-.03-.63v-1.4c0-.3-.03-.55-.1-.75s-.17-.35-.32-.45-.33-.15-.56-.15c-.21 0-.39.04-.54.13s-.28.22-.37.4l-.55-.22c.1-.18.21-.33.35-.47s.3-.23.49-.3.4-.1.63-.1c.36 0 .66.07.89.21s.41.35.53.62.17.61.17 1.02v2.09h-.58Z" fill="#fffdf0"/>
        <path d="M91.95 40.51v-5.39h.62v5.39z" fill="#fffdf0"/>
        <path d="M94 35.76q-.15 0-.27-.12c-.12-.12-.12-.17-.12-.27s.04-.2.12-.27.17-.11.27-.11.2.04.27.11.11.17.11.27-.04.19-.11.27q-.12.12-.27.12m-.32 4.75v-3.85h.62v3.85z" fill="#fffdf0"/>
        <path d="M95.43 40.51v-3.85h.58l.03.54c.12-.21.27-.36.45-.47s.4-.16.65-.16c.31 0 .57.07.79.22.22.14.38.36.47.65.11-.28.27-.5.47-.65.21-.15.46-.22.74-.22.43 0 .77.14 1.02.43s.37.72.37 1.31v2.2h-.62v-1.97q0-.57-.12-.87c-.08-.2-.19-.34-.32-.41a1 1 0 0 0-.46-.11c-.3 0-.54.12-.71.36s-.25.58-.25 1.01v1.99h-.62v-1.97q0-.57-.12-.87c-.08-.2-.19-.34-.32-.41-.14-.07-.29-.11-.47-.11-.3 0-.53.12-.7.36s-.25.58-.25 1.01v1.99h-.62Z" fill="#fffdf0"/>
        <path d="M103.67 40.6c-.38 0-.71-.09-.99-.26-.29-.17-.51-.41-.67-.71q-.24-.45-.24-1.05c0-.6.08-.74.24-1.05.16-.3.38-.54.67-.71.28-.17.61-.26.98-.26s.67.09.93.27.46.42.61.74.22.69.22 1.12h-3.18l.15-.13c0 .31.05.57.17.79s.27.39.47.5c.2.12.43.17.69.17.27 0 .5-.06.69-.19s.33-.3.43-.51l.53.27c-.1.2-.23.37-.39.52s-.35.26-.57.35c-.22.08-.46.12-.73.12Zm-1.25-2.3-.16-.12h2.66l-.16.13c0-.25-.05-.46-.15-.64q-.15-.27-.39-.42c-.17-.1-.35-.15-.57-.15s-.41.05-.6.15-.34.23-.45.41c-.12.18-.17.39-.17.63Z" fill="#fffdf0"/>
        <path d="M106.19 40.51v-3.85h.58l.04.71v3.14zm2.7-1.98c0-.38-.04-.67-.13-.87s-.21-.34-.36-.41a1.2 1.2 0 0 0-.52-.11c-.34 0-.6.12-.79.36s-.28.58-.28 1.01h-.3c0-.41.06-.75.18-1.05.12-.29.29-.52.52-.67s.5-.23.82-.23.57.06.79.18.4.31.52.57.19.61.18 1.03v.18h-.62Zm0 1.98v-1.97h.62v1.97z" fill="#fffdf0"/>
        <path d="M110.08 37.2v-.55h2.44v.55zm1.85 3.4c-.37 0-.67-.1-.87-.29-.21-.19-.31-.47-.31-.82v-4.03h.62v3.96c0 .2.05.35.16.45.11.11.25.16.44.16.06 0 .12 0 .18-.03.06-.02.14-.06.23-.13l.24.5a1.2 1.2 0 0 1-.69.23" fill="#fffdf0"/>
        <path d="M115.08 40.6c-.38 0-.71-.09-1-.26s-.52-.41-.68-.71c-.17-.3-.25-.65-.25-1.05s.08-.74.24-1.05c.16-.3.39-.54.68-.71s.62-.26 1-.26.71.09 1 .26.52.41.68.71q.24.45.24 1.05c0 .6-.08.74-.24 1.05-.16.3-.39.54-.67.71-.29.17-.62.26-.99.26Zm-.01-.57c.25 0 .47-.06.67-.18q.285-.18.45-.51c.11-.22.17-.47.17-.75s-.05-.53-.17-.75a1.2 1.2 0 0 0-.46-.51c-.2-.12-.42-.18-.68-.18s-.47.06-.67.18-.34.29-.46.51c-.11.22-.17.47-.17.75s.05.53.17.75c.11.22.26.39.46.51s.42.18.67.18Z" fill="#fffdf0"/>
        <path d="M120.95 40.6c-.45 0-.8-.1-1.06-.31-.25-.21-.38-.5-.38-.87q0-.585.39-.9c.26-.21.62-.31 1.09-.31h1.1v.52h-.96c-.36 0-.61.06-.77.18a.62.62 0 0 0-.23.51c0 .2.07.36.22.47.15.12.36.17.62.17.22 0 .41-.05.58-.14.16-.09.29-.23.38-.41s.13-.39.13-.63h.26c0 .52-.12.94-.35 1.25s-.58.47-1.03.47Zm1.16-.09-.03-.63v-1.4c0-.3-.03-.55-.1-.75s-.17-.35-.32-.45-.33-.15-.56-.15c-.21 0-.39.04-.54.13s-.28.22-.37.4l-.55-.22c.1-.18.21-.33.35-.47s.3-.23.49-.3.4-.1.63-.1c.36 0 .66.07.89.21s.41.35.53.62.17.61.17 1.02v2.09h-.58Z" fill="#fffdf0"/>
        <path d="M123.44 42.16c-.19 0-.43-.07-.72-.2l.23-.52c.12.05.23.08.31.11s.15.04.2.04c.35 0 .52-.22.52-.67v-4.27h.62v4.28c0 .4-.1.7-.29.91s-.48.31-.87.31Zm.85-6.41q-.15 0-.27-.12a.37.37 0 0 1-.12-.27c0-.11.04-.21.12-.28s.17-.11.27-.11c.11 0 .2.04.28.11a.373.373 0 0 1 0 .55c-.08.08-.17.12-.28.12" fill="#fffdf0"/>
        <path d="M125.63 38.63v-1.97h.62v1.97zm.62 0c0 .38.04.67.13.87s.21.34.37.41.33.11.53.11q.495 0 .78-.36c.285-.36.28-.58.28-1.01h.3c0 .41-.06.75-.18 1.05-.12.29-.29.52-.51.67s-.5.23-.82.23c-.3 0-.56-.06-.79-.18s-.4-.31-.52-.58c-.12-.26-.19-.61-.19-1.03v-.19h.62Zm2.13 1.88-.04-.71v-3.14h.62v3.85z" fill="#fffdf0"/>
        <path d="M131.55 40.6c-.34 0-.65-.08-.91-.25s-.47-.41-.61-.71c-.15-.3-.22-.66-.22-1.05s.07-.75.22-1.05.35-.54.61-.71.56-.25.91-.25c.32 0 .61.08.85.25s.43.41.57.71.2.65.2 1.05-.07.75-.2 1.05c-.13.31-.32.54-.57.71-.24.17-.53.25-.85.25m.14-.56q.345 0 .6-.18c.255-.18.31-.29.41-.52q.15-.33.15-.75c0-.42-.05-.53-.15-.75s-.24-.39-.41-.52-.38-.18-.61-.18-.46.06-.64.18-.33.29-.44.52c-.11.22-.16.47-.16.75s.05.53.16.75.26.39.45.52c.19.12.41.18.65.18Zm1.19.47-.03-.72v-4.67h.62v5.39z" fill="#fffdf0"/>
        <path d="M135.76 40.6c-.45 0-.8-.1-1.06-.31-.25-.21-.38-.5-.38-.87q0-.585.39-.9c.26-.21.62-.31 1.09-.31h1.1v.52h-.96c-.36 0-.61.06-.77.18a.62.62 0 0 0-.23.51c0 .2.07.36.22.47.15.12.36.17.62.17.22 0 .41-.05.58-.14.16-.09.29-.23.38-.41s.13-.39.13-.63h.26c0 .52-.12.94-.35 1.25s-.58.47-1.03.47Zm1.15-.09-.03-.63v-1.4c0-.3-.03-.55-.1-.75s-.17-.35-.32-.45-.33-.15-.56-.15c-.21 0-.39.04-.54.13s-.28.22-.37.4l-.55-.22c.1-.18.21-.33.35-.47s.3-.23.49-.3.4-.1.63-.1c.36 0 .66.07.89.21s.41.35.53.62.17.61.17 1.02v2.09h-.58Z" fill="#fffdf0"/>
        <path d="M141.59 40.6c-.45 0-.8-.1-1.06-.31-.25-.21-.38-.5-.38-.87q0-.585.39-.9c.26-.21.62-.31 1.09-.31h1.1v.52h-.96c-.36 0-.61.06-.77.18a.62.62 0 0 0-.23.51c0 .2.07.36.22.47.15.12.36.17.62.17.22 0 .41-.05.58-.14.16-.09.29-.23.38-.41s.13-.39.13-.63h.26c0 .52-.12.94-.35 1.25s-.58.47-1.03.47Zm1.15-.09-.03-.63v-1.4c0-.3-.03-.55-.1-.75s-.17-.35-.32-.45-.33-.15-.56-.15c-.21 0-.39.04-.54.13s-.28.22-.37.4l-.55-.22c.1-.18.21-.33.35-.47s.3-.23.49-.3.4-.1.63-.1c.36 0 .66.07.89.21s.41.35.53.62.17.61.17 1.02v2.09h-.58Z" fill="#fffdf0"/>
        <path d="M146.2 40.51v-3.85h.58l.03.54c.12-.21.27-.36.45-.47s.4-.16.65-.16c.31 0 .57.07.79.22.22.14.38.36.47.65.11-.28.27-.5.47-.65.21-.15.46-.22.74-.22.43 0 .77.14 1.02.43s.37.72.37 1.31v2.2h-.62v-1.97q0-.57-.12-.87c-.08-.2-.19-.34-.32-.41a1 1 0 0 0-.46-.11c-.3 0-.54.12-.71.36s-.25.58-.25 1.01v1.99h-.62v-1.97q0-.57-.12-.87c-.08-.2-.19-.34-.32-.41-.14-.07-.29-.11-.47-.11-.3 0-.53.12-.7.36s-.25.58-.25 1.01v1.99h-.62Z" fill="#fffdf0"/>
        <path d="M153.97 40.6c-.45 0-.8-.1-1.06-.31-.25-.21-.38-.5-.38-.87q0-.585.39-.9c.26-.21.62-.31 1.09-.31h1.1v.52h-.96c-.36 0-.61.06-.77.18a.62.62 0 0 0-.23.51c0 .2.07.36.22.47.15.12.36.17.62.17.22 0 .41-.05.58-.14.16-.09.29-.23.38-.41s.13-.39.13-.63h.26c0 .52-.12.94-.35 1.25s-.58.47-1.03.47Zm1.15-.09-.03-.63v-1.4c0-.3-.03-.55-.1-.75s-.17-.35-.32-.45-.33-.15-.56-.15c-.21 0-.39.04-.54.13s-.28.22-.37.4l-.55-.22c.1-.18.21-.33.35-.47s.3-.23.49-.3.4-.1.63-.1c.36 0 .66.07.89.21s.41.35.53.62.17.61.17 1.02v2.09h-.58Z" fill="#fffdf0"/>
        <path d="M156.68 40.51v-3.85h.58l.04.71v3.14zm2.7-1.98c0-.38-.04-.67-.13-.87s-.21-.34-.36-.41-.33-.11-.52-.11c-.34 0-.6.12-.79.36s-.28.58-.28 1.01h-.3c0-.41.06-.75.18-1.05.12-.29.29-.52.52-.67s.5-.23.82-.23.57.06.79.18.4.31.52.57.19.61.18 1.03v.18h-.62Zm0 1.98v-1.97h.62v1.97z" fill="#fffdf0"/>
        <path d="M160.58 37.2v-.55h2.44v.55zm1.84 3.4c-.37 0-.67-.1-.87-.29-.21-.19-.31-.47-.31-.82v-4.03h.62v3.96c0 .2.05.35.16.45.11.11.25.16.44.16.06 0 .12 0 .18-.03.06-.02.14-.06.23-.13l.24.5a1.2 1.2 0 0 1-.69.23" fill="#fffdf0"/>
        <path d="M165.55 40.6c-.37 0-.71-.09-.99-.26-.29-.17-.51-.41-.67-.71q-.24-.45-.24-1.05c0-.6.08-.74.24-1.05.16-.3.38-.54.67-.71.28-.17.61-.26.98-.26s.67.09.93.27.46.42.61.74.22.69.22 1.12h-3.18l.15-.13c0 .31.05.57.17.79s.27.39.47.5c.2.12.43.17.69.17.27 0 .5-.06.69-.19s.33-.3.43-.51l.53.27c-.1.2-.23.37-.39.52s-.35.26-.57.35c-.22.08-.46.12-.73.12Zm-1.25-2.3-.16-.12h2.66l-.16.13c0-.25-.05-.46-.15-.64q-.15-.27-.39-.42c-.17-.1-.35-.15-.57-.15s-.41.05-.6.15-.34.23-.45.41c-.12.18-.17.39-.17.63Z" fill="#fffdf0"/>
        <path d="M168.07 40.51v-3.85h.62v3.85zm.34-2.09c0-.42.08-.75.24-1.01s.36-.45.61-.58c.25-.12.51-.19.79-.19v.58c-.23 0-.44.04-.65.11s-.38.2-.51.37-.2.4-.2.69z" fill="#fffdf0"/>
        <path d="M173.79 40.6c-.45 0-.8-.1-1.06-.31-.25-.21-.38-.5-.38-.87q0-.585.39-.9c.26-.21.62-.31 1.09-.31h1.1v.52h-.96c-.36 0-.61.06-.77.18a.62.62 0 0 0-.23.51c0 .2.07.36.22.47.15.12.36.17.62.17.22 0 .41-.05.58-.14.16-.09.29-.23.38-.41s.13-.39.13-.63h.26c0 .52-.12.94-.35 1.25s-.58.47-1.03.47Zm1.15-.09-.03-.63v-1.4c0-.3-.03-.55-.1-.75s-.17-.35-.32-.45-.33-.15-.56-.15c-.21 0-.39.04-.54.13s-.28.22-.37.4l-.55-.22c.1-.18.21-.33.35-.47s.3-.23.49-.3.4-.1.63-.1c.36 0 .66.07.89.21s.41.35.53.62.17.61.17 1.02v2.09h-.58Z" fill="#fffdf0"/>
        <path d="M178.44 42.05v-5.39h.58l.04.71v4.68zm1.92-1.45c-.32 0-.61-.08-.85-.25s-.43-.41-.57-.71c-.13-.3-.2-.66-.2-1.05s.07-.75.2-1.05.32-.54.57-.71c.24-.17.53-.25.85-.25.34 0 .65.08.91.25s.47.41.61.71.22.65.22 1.05-.07.75-.22 1.05c-.15.31-.35.54-.61.71s-.56.25-.91.25m-.14-.56c.24 0 .46-.06.64-.18s.34-.29.45-.51.17-.47.17-.76-.05-.53-.16-.75c-.1-.22-.25-.39-.44-.52s-.4-.18-.65-.18q-.345 0-.6.18-.27.18-.42.51c-.1.22-.15.47-.15.76s.05.53.15.75.24.39.41.52q.255.18.6.18" fill="#fffdf0"/>
        <path d="M184.64 40.6c-.38 0-.71-.09-.99-.26-.29-.17-.51-.41-.67-.71q-.24-.45-.24-1.05c0-.6.08-.74.24-1.05.16-.3.38-.54.67-.71.28-.17.61-.26.98-.26s.67.09.93.27.46.42.61.74.22.69.22 1.12h-3.18l.15-.13c0 .31.05.57.17.79s.27.39.47.5c.2.12.43.17.69.17.27 0 .5-.06.69-.19s.33-.3.43-.51l.53.27c-.1.2-.23.37-.39.52s-.35.26-.57.35c-.22.08-.46.12-.73.12Zm-1.25-2.3-.16-.12h2.66l-.16.13c0-.25-.05-.46-.15-.64q-.15-.27-.39-.42c-.17-.1-.35-.15-.57-.15s-.41.05-.6.15-.34.23-.45.41c-.12.18-.17.39-.17.63Z" fill="#fffdf0"/>
        <path d="M187.16 40.51v-5.39h.62v5.39z" fill="#fffdf0"/>
        <path d="M190.54 40.6c-.38 0-.71-.09-.99-.26-.29-.17-.51-.41-.67-.71q-.24-.45-.24-1.05c0-.6.08-.74.24-1.05.16-.3.38-.54.67-.71.28-.17.61-.26.98-.26s.67.09.93.27.46.42.61.74.22.69.22 1.12h-3.18l.15-.13c0 .31.05.57.17.79s.27.39.47.5c.2.12.43.17.69.17.27 0 .5-.06.69-.19s.33-.3.43-.51l.53.27c-.1.2-.23.37-.39.52s-.35.26-.57.35c-.22.08-.46.12-.73.12Zm-1.25-2.3-.16-.12h2.66l-.16.13c0-.25-.05-.46-.15-.64q-.15-.27-.39-.42c-.17-.1-.35-.15-.57-.15s-.41.05-.6.15-.34.23-.45.41c-.12.18-.17.39-.17.63Z" fill="#fffdf0"/>
        <path d="M65.72 49.21v-3.85h.58l.04.71v3.14zm2.7-1.97c0-.38-.04-.67-.13-.87s-.21-.34-.36-.41-.33-.11-.52-.11c-.34 0-.6.12-.79.36s-.28.58-.28 1.01h-.3c0-.41.06-.75.18-1.05.12-.29.29-.52.52-.67s.5-.23.82-.23.57.06.79.18.4.31.52.57.19.61.18 1.03v.18h-.62Zm0 1.97v-1.97h.62v1.97z" fill="#fffdf0"/>
        <path d="M69.91 47.33v-1.97h.62v1.97zm.62 0c0 .38.04.67.13.87s.21.34.37.41.33.11.53.11q.495 0 .78-.36c.285-.36.28-.58.28-1.01h.3c0 .41-.06.75-.18 1.05-.12.29-.29.52-.51.67s-.5.23-.82.23c-.3 0-.56-.06-.79-.18s-.4-.31-.52-.58c-.12-.26-.19-.61-.19-1.03v-.19h.62Zm2.12 1.88-.04-.71v-3.14h.62v3.85z" fill="#fffdf0"/>
        <path d="M73.91 45.9v-.55h2.44v.55zm1.85 3.4c-.37 0-.67-.1-.87-.29-.21-.19-.31-.47-.31-.82v-4.03h.62v3.96c0 .2.05.35.16.45.11.11.25.16.44.16.06 0 .12 0 .18-.03.06-.02.14-.06.23-.13l.24.5a1.2 1.2 0 0 1-.69.23" fill="#fffdf0"/>
        <path d="M77.22 49.21v-3.85h.62v3.85zm.34-2.09c0-.42.08-.75.24-1.01s.36-.45.61-.58c.25-.12.51-.19.79-.19v.58c-.23 0-.44.04-.65.11s-.38.2-.51.37-.2.4-.2.69z" fill="#fffdf0"/>
        <path d="M80.18 44.46q-.15 0-.27-.12c-.12-.12-.12-.17-.12-.27s.04-.2.12-.27.17-.11.27-.11.2.04.27.11.11.17.11.27-.04.19-.11.27q-.12.12-.27.12m-.32 4.75v-3.85h.62v3.85z" fill="#fffdf0"/>
        <path d="M83.13 49.3c-.34 0-.65-.08-.91-.25s-.47-.41-.61-.71c-.15-.3-.22-.66-.22-1.05s.07-.75.22-1.05.35-.54.61-.71.56-.25.91-.25c.32 0 .61.08.85.25s.43.41.57.71.2.65.2 1.05-.07.75-.2 1.05c-.13.31-.32.54-.57.71-.24.17-.53.25-.85.25m.13-.56q.345 0 .6-.18c.255-.18.31-.29.41-.52q.15-.33.15-.75c0-.42-.05-.53-.15-.75s-.24-.39-.41-.52-.38-.18-.61-.18-.46.06-.64.18-.33.29-.44.52c-.11.22-.16.47-.16.75s.05.53.16.75.26.39.45.52c.19.12.41.18.65.18Zm1.2.47-.03-.72v-4.67h.62v5.39z" fill="#fffdf0"/>
        <path d="M87.34 49.3c-.45 0-.8-.1-1.06-.31-.25-.21-.38-.5-.38-.87q0-.585.39-.9c.26-.21.62-.31 1.09-.31h1.1v.52h-.96c-.36 0-.61.06-.77.18a.62.62 0 0 0-.23.51c0 .2.07.36.22.47.15.12.36.17.62.17.22 0 .41-.05.58-.14.16-.09.29-.23.38-.41s.13-.39.13-.63h.26c0 .52-.12.94-.35 1.25s-.58.47-1.03.47Zm1.15-.09-.03-.63v-1.4c0-.3-.03-.55-.1-.75s-.17-.35-.32-.45-.33-.15-.56-.15c-.21 0-.39.04-.54.13s-.28.22-.37.4l-.55-.22c.1-.18.21-.33.35-.47s.3-.23.49-.3.4-.1.63-.1c.36 0 .66.07.89.21s.41.35.53.62.17.61.17 1.02v2.09h-.58Z" fill="#fffdf0"/>
        <path d="M93.64 49.3c-.38 0-.71-.09-.99-.26-.29-.17-.51-.41-.67-.71q-.24-.45-.24-1.05c0-.6.08-.74.24-1.05.16-.3.38-.54.67-.71.28-.17.61-.26.98-.26s.67.09.93.27.46.42.61.74.22.69.22 1.12h-3.18l.15-.13c0 .31.05.57.17.79s.27.39.47.5c.2.12.43.17.69.17.27 0 .5-.06.69-.19s.33-.3.43-.51l.53.27c-.1.2-.23.37-.39.52s-.35.26-.57.35c-.22.08-.46.12-.73.12ZM92.39 47l-.16-.12h2.66l-.16.13c0-.25-.05-.46-.15-.64q-.15-.27-.39-.42c-.17-.1-.35-.15-.57-.15s-.41.05-.6.15-.34.23-.45.41c-.12.18-.17.39-.17.63Z" fill="#fffdf0"/>
        <path d="M99.76 49.3c-.38 0-.71-.09-1-.26s-.52-.41-.68-.71c-.17-.3-.25-.65-.25-1.05s.08-.74.24-1.05c.16-.3.39-.54.68-.71s.62-.26 1-.26.71.09 1 .26.52.41.68.71q.24.45.24 1.05c0 .6-.08.74-.24 1.05-.16.3-.39.54-.67.71-.29.17-.62.26-.99.26Zm0-.57c.25 0 .47-.06.67-.18q.285-.18.45-.51c.11-.22.17-.47.17-.75s-.05-.53-.17-.75a1.2 1.2 0 0 0-.46-.51c-.2-.12-.42-.18-.68-.18s-.47.06-.67.18-.34.29-.46.51c-.11.22-.17.47-.17.75s.05.53.17.75c.11.22.26.39.46.51s.42.18.67.18Z" fill="#fffdf0"/>
        <path d="M103.87 49.3c-.28 0-.53-.04-.74-.13-.21-.08-.39-.2-.53-.33q-.21-.21-.3-.45l.54-.22c.09.17.22.32.39.42.17.11.37.16.58.16.24 0 .44-.05.61-.14a.45.45 0 0 0 .25-.4c0-.16-.06-.29-.18-.38q-.18-.15-.54-.24l-.37-.1c-.35-.09-.62-.23-.82-.42-.19-.19-.29-.4-.29-.63 0-.36.12-.65.36-.85s.59-.3 1.07-.3c.23 0 .43.03.62.1.18.07.34.16.48.28.13.12.23.26.29.43l-.54.24a.73.73 0 0 0-.33-.38 1.2 1.2 0 0 0-.56-.12c-.24 0-.42.05-.55.15s-.2.24-.2.42c0 .1.06.2.17.29s.27.16.49.22l.38.1q.375.09.63.27c.17.12.3.26.39.41s.13.32.13.49c0 .23-.06.43-.19.6-.12.17-.29.3-.5.39s-.45.13-.72.13Z" fill="#fffdf0"/>
        <path d="M108.05 50.75v-5.39h.58l.04.71v4.68zm1.92-1.45c-.32 0-.61-.08-.85-.25s-.43-.41-.57-.71c-.13-.3-.2-.66-.2-1.05s.07-.75.2-1.05.32-.54.57-.71c.24-.17.53-.25.85-.25.34 0 .65.08.91.25s.47.41.61.71.22.65.22 1.05-.07.75-.22 1.05c-.15.31-.35.54-.61.71s-.56.25-.91.25m-.14-.56c.24 0 .46-.06.64-.18s.34-.29.45-.51.17-.47.17-.76-.05-.53-.16-.75c-.1-.22-.25-.39-.44-.52s-.4-.18-.65-.18q-.345 0-.6.18-.27.18-.42.51c-.1.22-.15.47-.15.76s.05.53.15.75.24.39.41.52q.255.18.6.18" fill="#fffdf0"/>
        <path d="M114.25 49.3c-.38 0-.71-.09-.99-.26-.29-.17-.51-.41-.67-.71q-.24-.45-.24-1.05c0-.6.08-.74.24-1.05.16-.3.38-.54.67-.71.28-.17.61-.26.98-.26s.67.09.93.27.46.42.61.74.22.69.22 1.12h-3.18l.15-.13c0 .31.05.57.17.79s.27.39.47.5c.2.12.43.17.69.17.27 0 .5-.06.69-.19s.33-.3.43-.51l.53.27c-.1.2-.23.37-.39.52s-.35.26-.57.35c-.22.08-.46.12-.73.12ZM113 47l-.16-.12h2.66l-.16.13c0-.25-.05-.46-.15-.64q-.15-.27-.39-.42c-.17-.1-.35-.15-.57-.15s-.41.05-.6.15-.34.23-.45.41c-.12.18-.17.39-.17.63Z" fill="#fffdf0"/>
        <path d="M116.76 49.21v-5.39h.62v5.39z" fill="#fffdf0"/>
        <path d="M120.17 49.3c-.38 0-.71-.09-1-.26s-.52-.41-.68-.71c-.17-.3-.25-.65-.25-1.05s.08-.74.24-1.05c.16-.3.39-.54.68-.71s.62-.26 1-.26.71.09 1 .26.52.41.68.71q.24.45.24 1.05c0 .6-.08.74-.24 1.05-.16.3-.39.54-.67.71-.29.17-.62.26-.99.26Zm-.01-.57c.25 0 .47-.06.67-.18q.285-.18.45-.51c.11-.22.17-.47.17-.75s-.05-.53-.17-.75a1.2 1.2 0 0 0-.46-.51c-.2-.12-.42-.18-.68-.18s-.47.06-.67.18-.34.29-.46.51c-.11.22-.17.47-.17.75s.05.53.17.75c.11.22.26.39.46.51s.42.18.67.18Z" fill="#fffdf0"/>
        <path d="M124.27 49.3c-.28 0-.53-.04-.74-.13-.21-.08-.39-.2-.53-.33q-.21-.21-.3-.45l.54-.22c.09.17.22.32.39.42.17.11.37.16.58.16.24 0 .44-.05.61-.14a.45.45 0 0 0 .25-.4c0-.16-.06-.29-.18-.38q-.18-.15-.54-.24l-.37-.1c-.35-.09-.62-.23-.82-.42-.19-.19-.29-.4-.29-.63 0-.36.12-.65.36-.85s.59-.3 1.07-.3c.23 0 .43.03.62.1.18.07.34.16.48.28.13.12.23.26.29.43l-.54.24a.73.73 0 0 0-.33-.38 1.2 1.2 0 0 0-.56-.12c-.24 0-.42.05-.55.15s-.2.24-.2.42c0 .1.06.2.17.29s.27.16.49.22l.38.1q.375.09.63.27c.17.12.3.26.39.41s.13.32.13.49c0 .23-.06.43-.19.6-.12.17-.29.3-.5.39s-.45.13-.72.13Z" fill="#fffdf0"/>
        <path d="M128.41 49.21v-3.85h.58l.03.54c.12-.21.27-.36.45-.47s.4-.16.65-.16c.31 0 .57.07.79.22.22.14.38.36.47.65.11-.28.27-.5.47-.65.21-.15.46-.22.74-.22.43 0 .77.14 1.02.43s.37.72.37 1.31v2.2h-.62v-1.97q0-.57-.12-.87c-.08-.2-.19-.34-.32-.41a1 1 0 0 0-.46-.11c-.3 0-.54.12-.71.36s-.25.58-.25 1.01v1.99h-.62v-1.97q0-.57-.12-.87c-.08-.2-.19-.34-.32-.41-.14-.07-.29-.11-.47-.11-.3 0-.53.12-.7.36s-.25.58-.25 1.01v1.99h-.62Z" fill="#fffdf0"/>
        <path d="M136.18 49.3c-.45 0-.8-.1-1.06-.31-.25-.21-.38-.5-.38-.87q0-.585.39-.9c.26-.21.62-.31 1.09-.31h1.1v.52h-.96c-.36 0-.61.06-.77.18a.62.62 0 0 0-.23.51c0 .2.07.36.22.47.15.12.36.17.62.17.22 0 .41-.05.58-.14.16-.09.29-.23.38-.41s.13-.39.13-.63h.26c0 .52-.12.94-.35 1.25s-.58.47-1.03.47Zm1.16-.09-.03-.63v-1.4c0-.3-.03-.55-.1-.75s-.17-.35-.32-.45-.33-.15-.56-.15c-.21 0-.39.04-.54.13s-.28.22-.37.4l-.55-.22c.1-.18.21-.33.35-.47s.3-.23.49-.3.4-.1.63-.1c.36 0 .66.07.89.21s.41.35.53.62.17.61.17 1.02v2.09h-.58Z" fill="#fffdf0"/>
        <path d="M140.61 49.3c-.38 0-.72-.09-1.01-.26s-.52-.41-.68-.71c-.17-.3-.25-.65-.25-1.05s.08-.74.24-1.05c.16-.3.39-.54.68-.71s.63-.26 1-.26.7.08.99.25.52.41.67.72l-.56.25q-.15-.315-.45-.48c-.2-.12-.42-.17-.67-.17s-.47.06-.67.18-.34.29-.46.51c-.11.22-.17.47-.17.75s.05.53.17.75c.11.22.26.39.46.51s.42.18.67.18.48-.06.67-.19q.3-.195.45-.54l.56.25c-.15.33-.38.58-.67.77-.29.18-.63.28-1 .28Z" fill="#fffdf0"/>
        <path d="M143.41 44.46q-.15 0-.27-.12c-.12-.12-.12-.17-.12-.27s.04-.2.12-.27.17-.11.27-.11.2.04.27.11.11.17.11.27-.04.19-.11.27q-.12.12-.27.12m-.31 4.75v-3.85h.62v3.85z" fill="#fffdf0"/>
        <path d="M146.55 49.3c-.38 0-.71-.09-1-.26s-.52-.41-.68-.71c-.17-.3-.25-.65-.25-1.05s.08-.74.24-1.05c.16-.3.39-.54.68-.71s.62-.26 1-.26.71.09 1 .26.52.41.68.71q.24.45.24 1.05c0 .6-.08.74-.24 1.05-.16.3-.39.54-.67.71-.29.17-.62.26-.99.26Zm0-.57c.25 0 .47-.06.67-.18q.285-.18.45-.51c.11-.22.17-.47.17-.75s-.05-.53-.17-.75a1.2 1.2 0 0 0-.46-.51c-.2-.12-.42-.18-.68-.18s-.47.06-.67.18-.34.29-.46.51c-.11.22-.17.47-.17.75s.05.53.17.75c.11.22.26.39.46.51s.42.18.67.18Z" fill="#fffdf0"/>
        <path d="M150.66 49.3c-.28 0-.53-.04-.74-.13-.21-.08-.39-.2-.53-.33q-.21-.21-.3-.45l.54-.22c.09.17.22.32.39.42.17.11.37.16.58.16.24 0 .44-.05.61-.14a.45.45 0 0 0 .25-.4c0-.16-.06-.29-.18-.38q-.18-.15-.54-.24l-.37-.1c-.35-.09-.62-.23-.82-.42-.19-.19-.29-.4-.29-.63 0-.36.12-.65.36-.85s.59-.3 1.07-.3c.23 0 .43.03.62.1.18.07.34.16.48.28.13.12.23.26.29.43l-.54.24a.73.73 0 0 0-.33-.38 1.2 1.2 0 0 0-.56-.12c-.24 0-.42.05-.55.15s-.2.24-.2.42c0 .1.06.2.17.29s.27.16.49.22l.38.1q.375.09.63.27c.17.12.3.26.39.41s.13.32.13.49c0 .23-.06.43-.19.6-.12.17-.29.3-.5.39s-.45.13-.72.13Z" fill="#fffdf0"/>
        <path d="M156.49 49.3c-.38 0-.71-.09-.99-.26-.29-.17-.51-.41-.67-.71q-.24-.45-.24-1.05c0-.6.08-.74.24-1.05.16-.3.38-.54.67-.71.28-.17.61-.26.98-.26s.67.09.93.27.46.42.61.74.22.69.22 1.12h-3.18l.15-.13c0 .31.05.57.17.79s.27.39.47.5c.2.12.43.17.69.17.27 0 .5-.06.69-.19s.33-.3.43-.51l.53.27c-.1.2-.23.37-.39.52s-.35.26-.57.35c-.22.08-.46.12-.73.12Zm-1.25-2.3-.16-.12h2.66l-.16.13c0-.25-.05-.46-.15-.64q-.15-.27-.39-.42c-.17-.1-.35-.15-.57-.15s-.41.05-.6.15-.34.23-.45.41c-.12.18-.17.39-.17.63Z" fill="#fffdf0"/>
        <path d="M160.91 49.21v-5.39h.62v4.67l-.03.72h-.58Zm1.91.09c-.32 0-.61-.08-.85-.25s-.43-.41-.57-.71c-.13-.3-.2-.66-.2-1.05s.07-.75.2-1.05.32-.54.57-.71c.24-.17.53-.25.85-.25.34 0 .65.08.91.25s.47.41.61.71c.15.3.22.65.22 1.05s-.07.75-.22 1.05c-.15.31-.35.54-.61.71s-.57.25-.91.25m-.14-.56c.24 0 .46-.06.64-.18s.34-.29.45-.51.17-.47.17-.76-.05-.53-.16-.75-.25-.39-.44-.52c-.19-.12-.4-.18-.65-.18q-.345 0-.6.18-.27.18-.42.51c-.1.22-.15.47-.15.76s.05.53.15.75.24.39.41.52c.17.12.38.18.6.18" fill="#fffdf0"/>
        <path d="M165.42 49.21v-3.85h.62v3.85zm.34-2.09c0-.42.08-.75.24-1.01s.36-.45.61-.58c.25-.12.51-.19.79-.19v.58c-.23 0-.44.04-.65.11s-.38.2-.51.37-.2.4-.2.69z" fill="#fffdf0"/>
        <path d="M168.37 44.46q-.15 0-.27-.12c-.12-.12-.12-.17-.12-.27s.04-.2.12-.27.17-.11.27-.11.2.04.27.11.11.17.11.27-.04.19-.11.27q-.12.12-.27.12m-.31 4.75v-3.85h.62v3.85z" fill="#fffdf0"/>
        <path d="M169.81 49.21v-5.39h.62v5.39z" fill="#fffdf0"/>
        <path d="M171.5 49.21v-5.39h.62v5.39zm2.71-1.97c0-.38-.04-.67-.13-.87s-.21-.34-.37-.41-.33-.11-.52-.11c-.34 0-.6.12-.79.36s-.28.58-.28 1.01h-.3c0-.41.06-.75.18-1.05.12-.29.29-.52.52-.67s.5-.23.82-.23c.3 0 .56.06.79.18s.4.31.53.57.19.61.18 1.03v.18h-.62Zm0 1.97v-1.97h.62v1.97z" fill="#fffdf0"/>
        <path d="M177.01 49.3c-.45 0-.8-.1-1.06-.31-.25-.21-.38-.5-.38-.87q0-.585.39-.9c.26-.21.62-.31 1.09-.31h1.1v.52h-.96c-.36 0-.61.06-.77.18a.62.62 0 0 0-.23.51c0 .2.07.36.22.47.15.12.36.17.62.17.22 0 .41-.05.58-.14.16-.09.29-.23.38-.41s.13-.39.13-.63h.26c0 .52-.12.94-.35 1.25s-.58.47-1.03.47Zm1.16-.09-.03-.63v-1.4c0-.3-.03-.55-.1-.75s-.17-.35-.32-.45-.33-.15-.56-.15c-.21 0-.39.04-.54.13s-.28.22-.37.4l-.55-.22c.1-.18.21-.33.35-.47s.3-.23.49-.3.4-.1.63-.1c.36 0 .66.07.89.21s.41.35.53.62.17.61.17 1.02v2.09h-.58Z" fill="#fffdf0"/>
        <path d="M179.72 49.21v-3.85h.58l.04.71v3.14zm2.71-1.97c0-.38-.04-.67-.13-.87s-.21-.34-.36-.41-.33-.11-.52-.11c-.34 0-.6.12-.79.36s-.28.58-.28 1.01h-.3c0-.41.06-.75.18-1.05.12-.29.29-.52.52-.67s.5-.23.82-.23.57.06.79.18.4.31.52.57.19.61.18 1.03v.18h-.62Zm0 1.97v-1.97h.62v1.97z" fill="#fffdf0"/>
        <path d="M183.62 45.9v-.55h2.44v.55zm1.85 3.4c-.37 0-.67-.1-.87-.29-.21-.19-.31-.47-.31-.82v-4.03h.62v3.96c0 .2.05.35.16.45.11.11.25.16.44.16.06 0 .12 0 .18-.03.06-.02.14-.06.23-.13l.24.5a1.2 1.2 0 0 1-.69.23" fill="#fffdf0"/>
        <path d="M188.59 49.3c-.38 0-.71-.09-.99-.26-.29-.17-.51-.41-.67-.71q-.24-.45-.24-1.05c0-.6.08-.74.24-1.05.16-.3.38-.54.67-.71.28-.17.61-.26.98-.26s.67.09.93.27.46.42.61.74.22.69.22 1.12h-3.18l.15-.13c0 .31.05.57.17.79s.27.39.47.5c.2.12.43.17.69.17.27 0 .5-.06.69-.19s.33-.3.43-.51l.53.27c-.1.2-.23.37-.39.52s-.35.26-.57.35c-.22.08-.46.12-.73.12Zm-1.24-2.3-.16-.12h2.66l-.16.13c0-.25-.05-.46-.15-.64q-.15-.27-.39-.42c-.17-.1-.35-.15-.57-.15s-.41.05-.6.15-.34.23-.45.41c-.12.18-.17.39-.17.63Z" fill="#fffdf0"/>
        <path d="M192.46 49.3c-.28 0-.53-.04-.74-.13-.21-.08-.39-.2-.53-.33q-.21-.21-.3-.45l.54-.22c.09.17.22.32.39.42.17.11.37.16.58.16.24 0 .44-.05.61-.14a.45.45 0 0 0 .25-.4c0-.16-.06-.29-.18-.38q-.18-.15-.54-.24l-.37-.1c-.35-.09-.62-.23-.82-.42-.19-.19-.29-.4-.29-.63 0-.36.12-.65.36-.85s.59-.3 1.07-.3c.23 0 .43.03.62.1.18.07.34.16.48.28.13.12.23.26.29.43l-.54.24a.73.73 0 0 0-.33-.38 1.2 1.2 0 0 0-.56-.12c-.24 0-.42.05-.55.15s-.2.24-.2.42c0 .1.06.2.17.29s.27.16.49.22l.38.1q.375.09.63.27c.17.12.3.26.39.41s.13.32.13.49c0 .23-.06.43-.19.6-.12.17-.29.3-.5.39s-.45.13-.72.13Z" fill="#fffdf0"/>
        <path d="M194.96 49.31c-.12 0-.22-.04-.3-.13s-.13-.18-.13-.3.04-.22.13-.3c.08-.08.19-.13.3-.13s.22.04.3.13c.08.08.12.19.12.3s-.04.21-.12.3c-.08.08-.18.13-.3.13" fill="#fffdf0"/>
    </g>
</svg>
