<?xml version="1.0" encoding="UTF-8"?>
<svg data-bbox="29.22 15.95 199.11 55.1" viewBox="0 0 250 100" xmlns="http://www.w3.org/2000/svg" data-type="ugc">
    <g>
        <path d="M94.11 32.34v-5.39h1.58l1.3 1.92 1.3-1.92h1.58v5.39h-1.42v-3.19L97 31.26l-1.46-2.11v3.19h-1.42Z" fill="#fffcef"/>
        <path d="m100.38 32.34 2.06-5.39h1.42l-1.97 5.39zm.97-.86v-1.25h3.73v1.25zm3.18.86-1.97-5.39h1.42l2.06 5.39z" fill="#fffcef"/>
        <path d="M106.56 32.34v-5.39h1.5l2.1 2.96v-2.96h1.42v5.39h-1.42l-2.18-3.07v3.07z" fill="#fffcef"/>
        <path d="M114.73 32.43c-.48 0-.89-.09-1.23-.26s-.61-.42-.79-.75-.27-.71-.27-1.17v-3.3h1.42v3.3c0 .18.04.33.11.46s.17.23.3.29.29.1.47.1.34-.03.48-.1a.7.7 0 0 0 .3-.29c.07-.13.1-.28.1-.46v-3.3h1.42v3.3c0 .45-.09.84-.28 1.17-.18.33-.45.58-.8.75s-.76.26-1.25.26Z" fill="#fffcef"/>
        <path d="M118.86 32.34v-4.08h-1.52v-1.31h4.47v1.31h-1.52v4.08h-1.42Z" fill="#fffcef"/>
        <path d="M122.4 32.34v-5.39h3.61v1.31h-2.19v.75h1.77v1.27h-1.77v.75h2.24v1.31h-3.67Z" fill="#fffcef"/>
        <path d="M126.91 32.34v-5.39h1.5l2.1 2.96v-2.96h1.43v5.39h-1.43l-2.18-3.07v3.07h-1.43Z" fill="#fffcef"/>
        <path d="M135.35 32.43c-.54 0-1.02-.12-1.43-.36s-.74-.57-.97-.99c-.24-.42-.35-.9-.35-1.44s.12-1.03.35-1.44.56-.75.97-.99.89-.36 1.43-.36c.42 0 .79.07 1.12.22s.62.34.86.6.43.55.55.89l-1.36.43c-.07-.17-.16-.32-.28-.44a1.2 1.2 0 0 0-.91-.39c-.25 0-.47.06-.67.19-.2.12-.35.3-.46.52s-.17.48-.17.77.06.54.17.77c.11.22.27.4.46.52s.43.19.68.19c.2 0 .37-.03.52-.1s.27-.17.38-.29.2-.27.27-.44l1.36.43c-.12.34-.3.64-.55.9q-.36.39-.87.6c-.34.14-.72.22-1.13.22Zm-.42 1.53c-.12 0-.25-.02-.38-.07-.13-.04-.25-.1-.36-.17l.16-.58c.07.04.14.06.2.08s.12.03.16.03c.09 0 .16-.01.21-.04s.08-.06.08-.11c0-.07-.04-.13-.11-.17a.7.7 0 0 0-.31-.06l.23-.58h.75l-.12.25c.18.06.31.14.41.25s.15.24.15.38c0 .25-.09.44-.28.58s-.45.21-.78.21Z" fill="#fffcef"/>
        <path d="m138.07 32.34 2.06-5.39h1.42l-1.97 5.39zm.97-.86v-1.25h3.73v1.25zm2.48-4.79c-.2 0-.35-.03-.45-.08s-.19-.12-.24-.19c-.06-.07-.11-.14-.16-.19-.05-.06-.12-.08-.21-.08-.04 0-.08.02-.12.05s-.09.12-.12.25h-.86c.03-.27.09-.49.17-.65s.2-.28.35-.35.32-.11.53-.11.37.03.49.08c.12.06.2.12.27.19.06.07.12.14.16.19.05.06.11.08.19.08s.12-.03.15-.09.04-.13.05-.21h.85c-.05.36-.15.64-.31.83s-.41.29-.73.29Zm.7 5.65-1.97-5.39h1.42l2.06 5.39z" fill="#fffcef"/>
        <path d="M146.86 32.43q-.84 0-1.5-.36c-.66-.36-.77-.57-1.02-.99s-.37-.9-.37-1.44.12-1.03.37-1.44q.375-.63 1.02-.99c.43-.24.93-.36 1.49-.36s1.06.12 1.49.36q.645.36 1.02.99c.25.42.37.9.37 1.44s-.12 1.02-.37 1.44c-.24.42-.58.75-1.01.99s-.93.36-1.49.36m0-1.31c.28 0 .52-.06.73-.19s.38-.3.49-.52.18-.47.18-.76-.06-.54-.18-.77c-.12-.22-.29-.4-.5-.52-.21-.13-.46-.19-.74-.19s-.51.06-.73.19c-.21.12-.38.3-.5.52s-.18.48-.18.77.06.54.18.76.29.39.51.52.46.19.73.19Z" fill="#fffcef"/>
        <path d="M152.15 32.34v-5.39h1.8c.59 0 1.11.12 1.57.35s.81.55 1.07.95.38.87.38 1.4-.13.99-.38 1.39c-.26.41-.61.72-1.07.96-.46.23-.98.35-1.57.35h-1.8Zm1.42-1.35h.38c.22 0 .43-.03.62-.1s.36-.16.49-.28c.14-.12.25-.26.32-.42s.12-.35.12-.55-.04-.38-.12-.55c-.08-.16-.19-.3-.32-.42-.14-.12-.3-.21-.49-.28s-.4-.1-.62-.1h-.38z" fill="#fffcef"/>
        <path d="M160.24 32.43q-.84 0-1.5-.36c-.66-.36-.77-.57-1.02-.99s-.37-.9-.37-1.44.12-1.03.37-1.44c.25-.42.58-.75 1.02-.99.43-.24.93-.36 1.49-.36s1.06.12 1.49.36q.645.36 1.02.99c.25.42.37.9.37 1.44s-.12 1.02-.37 1.44c-.24.42-.58.75-1.01.99s-.93.36-1.49.36m0-1.31c.28 0 .52-.06.73-.19s.38-.3.49-.52c.12-.22.18-.47.18-.76s-.06-.54-.18-.77c-.12-.22-.29-.4-.5-.52-.21-.13-.46-.19-.73-.19s-.52.06-.73.19c-.21.12-.38.3-.5.52s-.18.48-.18.77.06.54.19.76.29.39.5.52.46.19.74.19Z" fill="#fffcef"/>
        <path d="M165.53 32.34v-5.39h2.23q.615 0 1.08.24c.465.24.56.38.74.66s.27.61.27.98-.09.7-.27.98c-.18.29-.42.51-.74.67q-.465.24-1.08.24h-.81v1.62zm1.43-2.92h.77c.2 0 .35-.05.47-.16q.18-.165.18-.42c0-.255-.06-.31-.18-.42a.67.67 0 0 0-.47-.16h-.77z" fill="#fffcef"/>
        <path d="M170.34 32.34v-5.39h3.61v1.31h-2.19v.75h1.77v1.27h-1.77v.75H174v1.31z" fill="#fffcef"/>
        <path d="M176.74 32.43c-.25 0-.5-.04-.74-.1a2.8 2.8 0 0 1-.66-.29c-.2-.12-.36-.26-.49-.42a.95.95 0 0 1-.23-.5l1.42-.39c.05.13.12.24.24.33s.26.14.44.15c.14 0 .27-.03.38-.12.11-.08.17-.19.17-.32 0-.09-.03-.17-.1-.25a.5.5 0 0 0-.3-.17l-.81-.21c-.28-.07-.52-.18-.71-.33s-.35-.33-.45-.55c-.11-.22-.16-.46-.16-.72 0-.53.18-.94.53-1.24.35-.29.85-.44 1.48-.44.34 0 .64.04.9.13s.48.22.67.41.34.43.46.74l-1.41.41a.7.7 0 0 0-.2-.31c-.1-.1-.25-.15-.43-.15s-.31.04-.4.12c-.1.08-.14.19-.14.34q0 .135.12.24c.08.07.19.12.33.16l.82.21q.615.15.96.6c.23.3.35.64.35 1.03 0 .35-.08.66-.24.9-.16.25-.39.43-.7.56-.3.13-.67.19-1.09.19Z" fill="#fffcef"/>
        <path d="M182.09 32.43q-.84 0-1.5-.36c-.66-.36-.77-.57-1.02-.99s-.37-.9-.37-1.44.12-1.03.37-1.44c.25-.42.58-.75 1.02-.99.43-.24.93-.36 1.49-.36s1.06.12 1.49.36q.645.36 1.02.99c.25.42.37.9.37 1.44s-.12 1.02-.37 1.44c-.24.42-.58.75-1.01.99s-.93.36-1.49.36m0-1.31c.28 0 .52-.06.73-.19s.38-.3.49-.52c.12-.22.18-.47.18-.76s-.06-.54-.18-.77c-.12-.22-.29-.4-.5-.52-.21-.13-.46-.19-.73-.19s-.52.06-.73.19c-.21.12-.38.3-.5.52s-.18.48-.18.77.06.54.19.76.29.39.5.52.46.19.74.19Z" fill="#fffcef"/>
        <path d="M189.27 32.43c-.25 0-.5-.04-.74-.1a2.8 2.8 0 0 1-.66-.29c-.2-.12-.36-.26-.49-.42a.95.95 0 0 1-.23-.5l1.42-.39c.05.13.12.24.24.33s.26.14.44.15c.14 0 .27-.03.38-.12.11-.08.17-.19.17-.32 0-.09-.03-.17-.1-.25a.5.5 0 0 0-.3-.17l-.81-.21c-.28-.07-.52-.18-.71-.33s-.35-.33-.45-.55c-.11-.22-.16-.46-.16-.72 0-.53.18-.94.53-1.24.35-.29.85-.44 1.48-.44.34 0 .64.04.9.13s.48.22.67.41.34.43.46.74l-1.41.41a.7.7 0 0 0-.2-.31c-.1-.1-.25-.15-.43-.15s-.31.04-.4.12c-.1.08-.14.19-.14.34q0 .135.12.24c.08.07.19.12.33.16l.82.21q.615.15.96.6c.23.3.35.64.35 1.03 0 .35-.08.66-.24.9-.16.25-.39.43-.7.56-.3.13-.67.19-1.09.19Z" fill="#fffcef"/>
        <path d="m191.59 32.34 2.06-5.39h1.42l-1.97 5.39zm.97-.86v-1.25h3.73v1.25zm3.18.86-1.97-5.39h1.42l2.06 5.39z" fill="#fffcef"/>
        <path d="M199.99 32.43c-.48 0-.89-.09-1.23-.26s-.61-.42-.79-.75-.27-.71-.27-1.17v-3.3h1.42v3.3c0 .18.04.33.11.46s.17.23.3.29.29.1.47.1.34-.03.48-.1.23-.16.3-.29.1-.28.1-.46v-3.3h1.42v3.3c0 .45-.09.84-.28 1.17-.18.33-.45.58-.8.75s-.76.26-1.25.26Z" fill="#fffcef"/>
        <path d="M203.16 32.34v-5.39h1.8c.59 0 1.11.12 1.57.35.45.23.81.55 1.07.95s.38.87.38 1.4-.13.99-.38 1.39c-.26.41-.61.72-1.07.96-.46.23-.98.35-1.57.35h-1.8Zm1.42-1.35h.38c.23 0 .43-.03.62-.1s.35-.16.49-.28.25-.26.32-.42c.08-.16.12-.35.12-.55s-.04-.38-.12-.55c-.08-.16-.19-.3-.32-.42s-.3-.21-.49-.28-.4-.1-.62-.1h-.38z" fill="#fffcef"/>
        <path d="m208.23 32.34 2.06-5.39h1.42l-1.97 5.39zm.97-.86v-1.25h3.73v1.25zm1.1-4.92.85-1.07h1.46l-1 1.07zm2.08 5.78-1.97-5.39h1.42l2.06 5.39z" fill="#fffcef"/>
        <path d="m216.06 32.34-2.07-5.39h1.54l1.91 5.39zm.17 0 1.89-5.39h1.54l-2.05 5.39z" fill="#fffcef"/>
        <path d="M220.18 32.34v-5.39h3.61v1.31h-2.19v.75h1.77v1.27h-1.77v.75h2.24v1.31z" fill="#fffcef"/>
        <path d="M224.69 32.34v-5.39h1.42v4.08h2.22v1.31z" fill="#fffcef"/>
        <path d="M95.45 41.04v-4.8h-1.72v-.59h4.08v.59h-1.72v4.8h-.65Z" fill="#fffcef"/>
        <path d="M99.64 41.13c-.38 0-.71-.09-.99-.26-.29-.17-.51-.41-.67-.71q-.24-.45-.24-1.05c0-.6.08-.74.24-1.05.16-.3.38-.54.67-.71.28-.17.61-.26.98-.26s.67.09.93.27.46.42.61.74.22.69.22 1.12h-3.18l.15-.13c0 .31.05.57.17.79s.27.39.47.5c.2.12.43.17.69.17.27 0 .5-.06.69-.19s.33-.3.43-.51l.53.27c-.1.2-.23.38-.39.52-.16.15-.35.26-.57.35-.22.08-.46.12-.73.12Zm-1.24-2.29-.16-.12h2.66l-.16.13c0-.25-.05-.46-.15-.64q-.15-.27-.39-.42c-.17-.1-.35-.15-.57-.15s-.41.05-.6.15-.34.23-.45.41c-.12.18-.17.39-.17.64Z" fill="#fffcef"/>
        <path d="M103.87 41.13c-.38 0-.71-.09-1-.26s-.52-.41-.68-.71c-.17-.3-.25-.65-.25-1.05s.08-.74.24-1.05c.16-.3.39-.54.68-.71s.62-.26 1-.26.71.09 1 .26.52.41.68.71q.24.45.24 1.05c0 .6-.08.74-.24 1.05-.16.3-.39.54-.67.71-.29.17-.62.26-.99.26Zm-.01-.57c.25 0 .47-.06.67-.18q.285-.18.45-.51c.11-.22.17-.47.17-.75s-.05-.53-.17-.75a1.2 1.2 0 0 0-.46-.51c-.2-.12-.42-.19-.68-.19s-.47.06-.67.19-.34.29-.46.51-.17.47-.17.75.05.53.17.75c.11.22.26.39.46.51s.42.18.67.18Z" fill="#fffcef"/>
        <path d="M106.63 41.04v-3.85h.62v3.85zm.34-2.09c0-.42.08-.75.24-1.01s.36-.45.61-.58.51-.19.79-.19v.58c-.23 0-.44.04-.65.11s-.38.2-.51.37-.2.4-.2.69z" fill="#fffcef"/>
        <path d="M110.92 41.13c-.38 0-.71-.09-.99-.26-.29-.17-.51-.41-.67-.71q-.24-.45-.24-1.05c0-.6.08-.74.24-1.05.16-.3.38-.54.67-.71.28-.17.61-.26.98-.26s.67.09.93.27.46.42.61.74.22.69.22 1.12h-3.18l.15-.13c0 .31.05.57.17.79s.27.39.47.5c.2.12.43.17.69.17.27 0 .5-.06.69-.19s.33-.3.43-.51l.53.27c-.1.2-.23.38-.39.52-.16.15-.35.26-.57.35-.22.08-.46.12-.73.12Zm-1.25-2.29-.16-.12h2.66l-.16.13c0-.25-.05-.46-.15-.64q-.15-.27-.39-.42c-.17-.1-.35-.15-.57-.15s-.41.05-.6.15-.34.23-.45.41c-.12.18-.17.39-.17.64Z" fill="#fffcef"/>
        <path d="M114.78 41.13c-.28 0-.53-.04-.74-.13-.21-.08-.39-.2-.53-.33a1.2 1.2 0 0 1-.3-.46l.54-.22c.09.17.22.32.39.42.17.11.37.16.58.16.24 0 .44-.05.61-.14a.45.45 0 0 0 .25-.4c0-.16-.06-.29-.18-.38q-.18-.15-.54-.24l-.37-.1c-.35-.09-.62-.23-.82-.42-.19-.19-.29-.4-.29-.63 0-.36.12-.65.36-.85s.59-.3 1.07-.3c.23 0 .43.03.62.1.18.07.34.16.48.28.13.12.23.26.29.43l-.54.24a.73.73 0 0 0-.33-.38 1.2 1.2 0 0 0-.56-.12c-.24 0-.42.05-.55.15s-.2.24-.2.42c0 .1.06.2.17.29s.27.16.49.22l.38.1q.375.09.63.27c.17.12.3.26.39.41s.13.32.13.49c0 .23-.06.43-.19.6-.12.17-.29.3-.5.39s-.45.13-.72.13Z" fill="#fffcef"/>
        <path d="M120.44 41.13c-.34 0-.65-.08-.91-.25s-.47-.41-.61-.71-.22-.66-.22-1.05.07-.75.22-1.05.35-.54.61-.71.56-.25.91-.25c.32 0 .61.08.85.25s.43.41.57.71c.13.3.2.65.2 1.05s-.07.75-.2 1.05-.32.54-.57.71c-.24.17-.53.25-.85.25m.14-.56q.345 0 .6-.18c.255-.18.31-.29.41-.52q.15-.33.15-.75c0-.42-.05-.53-.15-.75s-.24-.39-.41-.52-.38-.18-.61-.18-.46.06-.64.18-.33.29-.44.52c-.11.22-.16.47-.16.75s.05.53.16.75.26.39.45.52c.19.12.41.18.65.18Zm1.19.47-.03-.72v-4.67h.62v5.39z" fill="#fffcef"/>
        <path d="M125.12 41.13c-.38 0-.71-.09-.99-.26-.29-.17-.51-.41-.67-.71q-.24-.45-.24-1.05c0-.6.08-.74.24-1.05.16-.3.38-.54.67-.71.28-.17.61-.26.98-.26s.67.09.93.27.46.42.61.74c.14.32.21.69.21 1.12h-3.18l.15-.13c0 .31.05.57.17.79s.27.39.47.5c.2.12.43.17.69.17.27 0 .5-.06.69-.19s.33-.3.43-.51l.53.27c-.1.2-.23.38-.39.52-.16.15-.35.26-.57.35-.22.08-.46.12-.73.12Zm-1.25-2.29-.16-.12h2.66l-.16.13c0-.25-.05-.46-.15-.64q-.15-.27-.39-.42c-.17-.1-.35-.15-.57-.15s-.41.05-.6.15-.34.23-.45.41c-.12.18-.17.39-.17.64Z" fill="#fffcef"/>
        <path d="M131.26 41.13c-.38 0-.72-.09-1.01-.26s-.52-.41-.68-.71c-.17-.3-.25-.65-.25-1.05s.08-.74.24-1.05c.16-.3.39-.54.68-.71s.63-.26 1-.26.7.08.99.25.52.41.67.72l-.56.25q-.15-.315-.45-.48c-.3-.165-.42-.17-.67-.17s-.47.06-.67.19c-.19.12-.34.29-.46.51-.11.22-.16.47-.16.75s.05.53.16.75.27.39.46.51.42.18.67.18.48-.06.67-.19.35-.31.45-.54l.56.25c-.15.33-.38.59-.67.77s-.62.28-1 .28Z" fill="#fffcef"/>
        <path d="M134.92 41.13c-.45 0-.8-.1-1.06-.31s-.38-.5-.38-.87q0-.585.39-.9c.26-.21.62-.31 1.09-.31h1.1v.52h-.96c-.36 0-.61.06-.77.18s-.23.29-.23.51c0 .2.07.36.22.47.15.12.36.17.62.17.22 0 .41-.05.58-.14s.29-.23.38-.41.13-.39.13-.63h.26c0 .52-.12.94-.35 1.25s-.58.47-1.03.47Zm1.16-.09-.03-.63v-1.4c0-.3-.03-.55-.1-.75s-.17-.35-.32-.45c-.14-.1-.33-.15-.56-.15-.21 0-.39.04-.54.13-.15.08-.28.22-.38.4l-.55-.22c.1-.18.21-.33.35-.47s.3-.23.48-.3c.19-.07.4-.1.63-.1.36 0 .65.07.89.21.23.14.41.35.53.62.12.28.17.62.17 1.02v2.09h-.58Z" fill="#fffcef"/>
        <path d="M137.63 41.04v-5.39h.62v5.39z" fill="#fffcef"/>
        <path d="M141.04 41.13c-.38 0-.71-.09-1.01-.26-.29-.17-.52-.41-.68-.71-.17-.3-.25-.65-.25-1.05s.08-.74.24-1.05c.16-.3.39-.54.68-.71s.62-.26 1-.26.71.09 1 .26.52.41.68.71q.24.45.24 1.05c0 .6-.08.74-.24 1.05-.16.3-.39.54-.67.71-.29.17-.62.26-.99.26m-.01-.57c.25 0 .47-.06.67-.18s.34-.29.46-.51c.11-.22.16-.47.16-.75s-.05-.53-.16-.75-.26-.39-.46-.51-.42-.19-.68-.19-.47.06-.67.19c-.19.12-.34.29-.46.51-.11.22-.16.47-.16.75s.05.53.16.75.27.39.46.51.42.18.67.18Z" fill="#fffcef"/>
        <path d="M143.79 41.04v-3.85h.62v3.85zm.34-2.09c0-.42.08-.75.24-1.01s.36-.45.61-.58.51-.19.79-.19v.58c-.22 0-.44.04-.65.11s-.38.2-.51.37-.2.4-.2.69z" fill="#fffcef"/>
        <path d="M146.75 36.3q-.15 0-.27-.12a.37.37 0 0 1-.12-.27q0-.165.12-.27c.08-.07.17-.11.27-.11s.2.04.27.11.11.17.11.27-.04.19-.11.27-.17.12-.27.12m-.32 4.74v-3.85h.62v3.85z" fill="#fffcef"/>
        <path d="M149.4 41.13c-.45 0-.8-.1-1.06-.31s-.38-.5-.38-.87q0-.585.39-.9c.39-.315.62-.31 1.09-.31h1.1v.52h-.96c-.36 0-.62.06-.77.18a.62.62 0 0 0-.23.51c0 .2.07.36.22.47.15.12.36.17.62.17.22 0 .41-.05.58-.14.16-.09.29-.23.38-.41s.13-.39.13-.63h.26c0 .52-.12.94-.36 1.25s-.58.47-1.03.47Zm1.15-.09-.03-.63v-1.4c0-.3-.03-.55-.1-.75a.9.9 0 0 0-.31-.45c-.14-.1-.33-.15-.56-.15-.21 0-.39.04-.54.13-.15.08-.28.22-.37.4l-.55-.22c.1-.18.21-.33.35-.47s.3-.23.49-.3c.18-.07.39-.1.63-.1.36 0 .66.07.89.21s.41.35.53.62c.12.28.18.62.17 1.02v2.09h-.58Z" fill="#fffcef"/>
        <path d="M153.46 41.13c-.28 0-.53-.04-.74-.13-.21-.08-.39-.2-.53-.33a1.2 1.2 0 0 1-.3-.46l.54-.22a1.08 1.08 0 0 0 .97.58c.24 0 .44-.05.61-.14a.45.45 0 0 0 .25-.4c0-.16-.06-.29-.18-.38s-.3-.18-.54-.24l-.37-.1c-.35-.09-.62-.23-.82-.42s-.29-.4-.29-.63c0-.36.12-.65.36-.85s.6-.3 1.07-.3c.23 0 .43.03.62.1.18.07.34.16.48.28.13.12.23.26.29.43l-.54.24a.73.73 0 0 0-.33-.38 1.2 1.2 0 0 0-.56-.12c-.24 0-.42.05-.55.15s-.2.24-.2.42c0 .1.06.2.17.29s.27.16.49.22l.38.1q.375.09.63.27c.17.12.3.26.38.41s.13.32.13.49c0 .23-.06.43-.19.6-.12.17-.29.3-.5.39s-.45.13-.72.13Z" fill="#fffcef"/>
        <path d="M157.6 41.04v-3.85h.62v3.85zm.34-2.09c0-.42.08-.75.24-1.01s.36-.45.61-.58.51-.19.79-.19v.58c-.22 0-.44.04-.65.11s-.38.2-.51.37-.2.4-.2.69z" fill="#fffcef"/>
        <path d="M161.89 41.13c-.38 0-.71-.09-.99-.26-.29-.17-.51-.41-.67-.71q-.24-.45-.24-1.05c0-.6.08-.74.24-1.05.16-.3.38-.54.67-.71.28-.17.61-.26.98-.26s.67.09.93.27.46.42.61.74c.14.32.21.69.21 1.12h-3.18l.15-.13c0 .31.05.57.16.79s.27.39.47.5c.2.12.43.17.69.17.27 0 .5-.06.69-.19s.33-.3.43-.51l.53.27c-.1.2-.23.38-.39.52-.16.15-.35.26-.57.35-.22.08-.46.12-.73.12Zm-1.25-2.29-.16-.12h2.66l-.16.13c0-.25-.05-.46-.15-.64s-.23-.32-.39-.42-.35-.15-.57-.15-.41.05-.6.15-.34.23-.46.41-.17.39-.17.64" fill="#fffcef"/>
        <path d="M165.92 41.13c-.34 0-.65-.08-.91-.25s-.47-.41-.61-.71-.22-.66-.22-1.05.07-.75.22-1.05.35-.54.61-.71.56-.25.91-.25c.32 0 .61.08.85.25s.43.41.56.71.2.65.2 1.05-.07.75-.2 1.05c-.13.31-.32.54-.56.71s-.53.25-.85.25m.14-.56c.22 0 .43-.06.6-.18.18-.12.31-.29.41-.52q.15-.33.15-.75c0-.42-.05-.53-.15-.75s-.24-.39-.41-.52c-.17-.12-.38-.18-.61-.18a1.14 1.14 0 0 0-1.08.7c-.1.23-.16.47-.16.75s.05.53.16.75.26.39.45.52c.19.12.4.18.65.18Zm1.19.47-.03-.72v-4.67h.62v5.39z" fill="#fffcef"/>
        <path d="M168.82 39.16v-1.97h.62v1.97zm.61 0c0 .38.04.67.13.87s.21.34.37.41.33.11.53.11q.495 0 .78-.36c.285-.36.28-.58.28-1.01h.3c0 .41-.06.75-.18 1.05-.12.29-.29.52-.51.67s-.5.23-.82.23c-.3 0-.56-.06-.79-.18s-.4-.31-.52-.58-.19-.61-.19-1.03v-.18zm2.13 1.88-.04-.71v-3.14h.62v3.85z" fill="#fffcef"/>
        <path d="M173.02 41.04v-.49l2.27-2.82h-2.27v-.54h3.07v.48l-2.28 2.83h2.29v.54h-3.09Z" fill="#fffcef"/>
        <path d="M177.35 36.3q-.15 0-.27-.12a.37.37 0 0 1-.12-.27q0-.165.12-.27c.08-.07.17-.11.27-.11s.2.04.27.11.11.17.11.27-.04.19-.11.27-.17.12-.27.12m-.32 4.74v-3.85h.62v3.85z" fill="#fffcef"/>
        <path d="M180.3 41.13c-.34 0-.65-.08-.91-.25s-.47-.41-.61-.71-.22-.66-.22-1.05.07-.75.22-1.05.35-.54.61-.71.56-.25.91-.25c.32 0 .61.08.85.25s.43.41.56.71.2.65.2 1.05-.07.75-.2 1.05c-.13.31-.32.54-.56.71s-.53.25-.85.25m.14-.56c.22 0 .43-.06.6-.18.18-.12.31-.29.41-.52q.15-.33.15-.75c0-.42-.05-.53-.15-.75s-.24-.39-.41-.52c-.17-.12-.38-.18-.61-.18a1.14 1.14 0 0 0-1.08.7c-.1.23-.16.47-.16.75s.05.53.16.75.26.39.45.52c.19.12.4.18.65.18Zm1.19.47-.03-.72v-4.67h.62v5.39z" fill="#fffcef"/>
        <path d="M184.51 41.13c-.45 0-.8-.1-1.06-.31s-.38-.5-.38-.87q0-.585.39-.9c.39-.315.62-.31 1.09-.31h1.1v.52h-.96c-.36 0-.62.06-.77.18a.62.62 0 0 0-.23.51c0 .2.07.36.22.47.15.12.36.17.62.17.22 0 .41-.05.58-.14.16-.09.29-.23.38-.41s.13-.39.13-.63h.26c0 .52-.12.94-.36 1.25s-.58.47-1.03.47Zm1.15-.09-.03-.63v-1.4c0-.3-.03-.55-.1-.75a.9.9 0 0 0-.31-.45c-.14-.1-.33-.15-.56-.15-.21 0-.39.04-.54.13-.15.08-.28.22-.37.4l-.55-.22c.1-.18.21-.33.35-.47s.3-.23.49-.3c.18-.07.39-.1.63-.1.36 0 .66.07.89.21s.41.35.53.62c.12.28.18.62.17 1.02v2.09h-.58Z" fill="#fffcef"/>
        <path d="M188.57 41.13c-.28 0-.53-.04-.74-.13-.21-.08-.39-.2-.53-.33a1.2 1.2 0 0 1-.3-.46l.54-.22a1.08 1.08 0 0 0 .97.58c.24 0 .44-.05.61-.14a.45.45 0 0 0 .25-.4c0-.16-.06-.29-.18-.38s-.3-.18-.54-.24l-.37-.1c-.35-.09-.62-.23-.82-.42s-.29-.4-.29-.63c0-.36.12-.65.36-.85s.6-.3 1.07-.3c.23 0 .43.03.62.1.18.07.34.16.48.28.13.12.23.26.29.43l-.54.24a.73.73 0 0 0-.33-.38 1.2 1.2 0 0 0-.56-.12c-.24 0-.42.05-.55.15s-.2.24-.2.42c0 .1.06.2.17.29s.27.16.49.22l.38.1q.375.09.63.27c.17.12.3.26.38.41s.13.32.13.49c0 .23-.06.43-.19.6-.12.17-.29.3-.5.39s-.45.13-.72.13Z" fill="#fffcef"/>
        <path d="M194.39 41.13c-.38 0-.71-.09-.99-.26-.29-.17-.51-.41-.67-.71s-.24-.65-.24-1.05.08-.74.24-1.05c.16-.3.38-.54.67-.71s.61-.26.98-.26.67.09.93.27.46.42.61.74c.14.32.22.69.22 1.12h-3.18l.15-.13c0 .31.05.57.17.79.11.22.27.39.46.5.2.12.43.17.69.17.27 0 .5-.06.69-.19s.33-.3.44-.51l.53.27c-.1.2-.23.38-.39.52-.16.15-.35.26-.57.35s-.46.12-.73.12Zm-1.24-2.29-.16-.12h2.66l-.16.13c0-.25-.05-.46-.14-.64q-.15-.27-.39-.42-.255-.15-.57-.15c-.315 0-.41.05-.6.15s-.34.23-.45.41c-.12.18-.17.39-.17.64Z" fill="#fffcef"/>
        <path d="M200.03 41.13c-.45 0-.8-.1-1.06-.31s-.38-.5-.38-.87q0-.585.39-.9c.39-.315.62-.31 1.09-.31h1.1v.52h-.96c-.36 0-.62.06-.77.18a.62.62 0 0 0-.23.51c0 .2.07.36.22.47.15.12.36.17.62.17.22 0 .41-.05.58-.14.16-.09.29-.23.38-.41s.13-.39.13-.63h.26c0 .52-.12.94-.36 1.25s-.58.47-1.03.47Zm1.15-.09-.03-.63v-1.4c0-.3-.03-.55-.1-.75a.9.9 0 0 0-.31-.45c-.14-.1-.33-.15-.56-.15-.21 0-.39.04-.54.13-.15.08-.28.22-.37.4l-.55-.22c.1-.18.21-.33.35-.47s.3-.23.49-.3c.18-.07.39-.1.63-.1.36 0 .66.07.89.21s.41.35.53.62c.12.28.18.62.17 1.02v2.09h-.58Z" fill="#fffcef"/>
        <path d="M94.22 51.28v-5.39h.58l.04.71v4.68zm1.92-1.45c-.32 0-.61-.08-.85-.25s-.43-.41-.57-.71-.2-.66-.2-1.05.07-.75.2-1.05.32-.54.57-.71c.24-.17.53-.25.85-.25.34 0 .65.08.91.25s.47.41.61.71c.15.3.22.65.22 1.05s-.07.75-.22 1.05-.35.54-.61.71-.56.25-.91.25m-.14-.56c.24 0 .46-.06.64-.18s.34-.29.45-.51.17-.47.17-.76-.05-.53-.16-.75c-.1-.22-.25-.39-.44-.52s-.4-.18-.65-.18q-.345 0-.6.18-.27.18-.42.51c-.1.22-.15.47-.15.76s.05.53.15.75.24.39.41.52q.255.18.6.18" fill="#fffcef"/>
        <path d="M98.74 49.74v-3.85h.62v3.85zm.33-2.09c0-.42.08-.75.24-1.01s.36-.45.61-.58.51-.19.79-.19v.58c-.23 0-.44.04-.65.11s-.38.2-.51.37-.2.4-.2.69z" fill="#fffcef"/>
        <path d="M103.02 49.83c-.38 0-.71-.09-.99-.26-.29-.17-.51-.41-.67-.71q-.24-.45-.24-1.05c0-.6.08-.74.24-1.05.16-.3.38-.54.67-.71.28-.17.61-.26.98-.26s.67.09.93.27.46.42.61.74.22.69.22 1.12h-3.18l.15-.13c0 .31.05.57.17.79s.27.39.47.5c.2.12.43.17.69.17.27 0 .5-.06.69-.19s.33-.3.43-.51l.53.27c-.1.2-.23.38-.39.52-.16.15-.35.26-.57.35-.22.08-.46.12-.73.12Zm-1.24-2.29-.16-.12h2.66l-.16.13c0-.25-.05-.46-.15-.64q-.15-.27-.39-.42c-.17-.1-.35-.15-.57-.15s-.41.05-.6.15-.34.23-.45.41c-.12.18-.17.39-.17.64Z" fill="#fffcef"/>
        <path d="M106.89 49.83c-.28 0-.53-.04-.74-.13-.21-.08-.39-.2-.53-.33a1.2 1.2 0 0 1-.3-.46l.54-.22c.09.17.22.32.39.42.17.11.37.16.58.16.24 0 .44-.05.61-.14a.45.45 0 0 0 .25-.4c0-.16-.06-.29-.18-.38q-.18-.15-.54-.24l-.37-.1c-.35-.09-.62-.23-.82-.42-.19-.19-.29-.4-.29-.63 0-.36.12-.65.36-.85s.59-.3 1.07-.3c.23 0 .43.03.62.1.18.07.34.16.48.28.13.12.23.26.29.43l-.54.24a.73.73 0 0 0-.33-.38 1.2 1.2 0 0 0-.56-.12c-.24 0-.42.05-.55.15s-.2.24-.2.42c0 .1.06.2.17.29s.27.16.49.22l.38.1q.375.09.63.27c.17.12.3.26.39.41s.13.32.13.49c0 .23-.06.43-.19.6-.12.17-.29.3-.5.39s-.45.13-.72.13Z" fill="#fffcef"/>
        <path d="M110.82 49.83c-.38 0-.71-.09-.99-.26-.29-.17-.51-.41-.67-.71q-.24-.45-.24-1.05c0-.6.08-.74.24-1.05.16-.3.38-.54.67-.71.28-.17.61-.26.98-.26s.67.09.93.27.46.42.61.74.22.69.22 1.12h-3.18l.15-.13c0 .31.05.57.17.79s.27.39.47.5c.2.12.43.17.69.17.27 0 .5-.06.69-.19s.33-.3.43-.51l.53.27c-.1.2-.23.38-.39.52-.16.15-.35.26-.57.35-.22.08-.46.12-.73.12Zm-1.25-2.29-.16-.12h2.66l-.16.13c0-.25-.05-.46-.15-.64q-.15-.27-.39-.42c-.17-.1-.35-.15-.57-.15s-.41.05-.6.15-.34.23-.45.41c-.12.18-.17.39-.17.64Z" fill="#fffcef"/>
        <path d="M113.33 49.74v-3.85h.58l.04.71v3.14zm2.71-1.97c0-.38-.04-.67-.13-.87s-.21-.34-.36-.41-.33-.11-.52-.11c-.34 0-.6.12-.79.36s-.28.58-.28 1.01h-.3c0-.41.06-.75.18-1.05.12-.29.29-.52.52-.67s.5-.23.82-.23.57.06.79.18.4.31.52.57.19.61.18 1.03v.18h-.62Zm0 1.97v-1.97h.62v1.97z" fill="#fffcef"/>
        <path d="M119.35 49.83c-.38 0-.72-.09-1.01-.26s-.52-.41-.68-.71c-.17-.3-.25-.65-.25-1.05s.08-.74.24-1.05c.16-.3.39-.54.68-.71s.63-.26 1-.26.7.08.99.25.52.41.67.72l-.56.25q-.15-.315-.45-.48c-.2-.12-.42-.17-.67-.17s-.47.06-.67.19-.34.29-.46.51c-.11.22-.17.47-.17.75s.05.53.17.75c.11.22.26.39.46.51s.42.18.67.18.48-.06.67-.19q.3-.195.45-.54l.56.25c-.15.33-.38.59-.67.77s-.63.28-1 .28Zm-.24 1.53c-.1 0-.21-.01-.32-.04-.12-.03-.26-.08-.42-.17l.15-.37c.08.04.16.07.25.11s.17.05.24.05c.09 0 .18-.02.25-.05.08-.04.11-.11.11-.22 0-.13-.05-.22-.14-.29-.09-.06-.24-.11-.44-.14l.23-.54.41.09-.08.2c.19.07.33.16.4.28.08.12.12.25.12.38 0 .2-.06.37-.18.5-.12.14-.31.2-.58.2Z" fill="#fffcef"/>
        <path d="M123.01 49.83c-.45 0-.8-.1-1.06-.31-.25-.21-.38-.5-.38-.87q0-.585.39-.9c.26-.21.62-.31 1.09-.31h1.1v.52h-.96c-.36 0-.61.06-.77.18a.62.62 0 0 0-.23.51c0 .2.07.36.22.47.15.12.36.17.62.17.22 0 .41-.05.58-.14.16-.09.29-.23.38-.41s.13-.39.13-.63h.26c0 .52-.12.94-.35 1.25s-.58.47-1.03.47Zm1.16-.09-.03-.63v-1.4c0-.3-.03-.55-.1-.75s-.17-.35-.32-.45c-.14-.1-.33-.15-.56-.15-.21 0-.39.04-.54.13s-.28.22-.37.4l-.55-.22c.1-.18.21-.33.35-.47s.3-.23.49-.3.4-.1.63-.1c.36 0 .66.07.89.21s.41.35.53.62c.12.28.17.62.17 1.02v2.09h-.58Z" fill="#fffcef"/>
        <path d="M129.14 49.83c-.34 0-.65-.08-.91-.25s-.47-.41-.61-.71-.22-.66-.22-1.05.07-.75.22-1.05.35-.54.61-.71.56-.25.91-.25c.32 0 .61.08.85.25s.43.41.56.71.2.65.2 1.05-.07.75-.2 1.05c-.13.31-.32.54-.56.71s-.53.25-.85.25m.14-.56c.22 0 .43-.06.6-.18.18-.12.31-.29.41-.52q.15-.33.15-.75c0-.42-.05-.53-.15-.75s-.24-.39-.41-.52c-.17-.12-.38-.18-.61-.18a1.14 1.14 0 0 0-1.08.7c-.1.23-.16.47-.16.75s.05.53.16.75.26.39.45.52c.19.12.4.18.65.18Zm1.19.47-.03-.72v-4.67h.62v5.39z" fill="#fffcef"/>
        <path d="M133.82 49.83c-.38 0-.71-.09-.99-.26-.29-.17-.51-.41-.67-.71s-.24-.65-.24-1.05.08-.74.24-1.05c.16-.3.38-.54.67-.71s.61-.26.98-.26.67.09.93.27.46.42.61.74c.14.32.22.69.22 1.12h-3.18l.15-.13c0 .31.05.57.17.79.11.22.27.39.46.5.2.12.43.17.69.17.27 0 .5-.06.69-.19s.33-.3.44-.51l.53.27c-.1.2-.23.38-.39.52-.16.15-.35.26-.57.35s-.46.12-.73.12Zm-1.24-2.29-.16-.12h2.66l-.16.13c0-.25-.05-.46-.14-.64q-.15-.27-.39-.42-.255-.15-.57-.15c-.315 0-.41.05-.6.15s-.34.23-.45.41c-.12.18-.17.39-.17.64Z" fill="#fffcef"/>
        <path d="M138.42 49.74v-5.39h.65v4.8h2.54v.59h-3.2Z" fill="#fffcef"/>
        <path d="M142.15 47.73v-.56h2.31v.56z" fill="#fffcef"/>
        <path d="M147.17 49.83c-.38 0-.71-.09-1.01-.26-.29-.17-.52-.41-.69-.71s-.25-.65-.25-1.05.08-.74.24-1.05c.16-.3.39-.54.68-.71s.63-.26 1-.26.7.08.99.25.52.41.67.72l-.56.25q-.15-.315-.45-.48c-.2-.12-.42-.17-.67-.17s-.47.06-.67.19c-.19.12-.35.29-.46.51s-.17.47-.17.75.05.53.17.75c.11.22.26.39.46.51s.42.18.67.18.48-.06.67-.19q.3-.195.45-.54l.56.25c-.15.33-.38.59-.67.77s-.63.28-1 .28Z" fill="#fffcef"/>
        <path d="M150.84 49.83c-.45 0-.8-.1-1.06-.31s-.38-.5-.38-.87q0-.585.39-.9c.39-.315.62-.31 1.09-.31h1.1v.52h-.96c-.36 0-.62.06-.77.18a.62.62 0 0 0-.23.51c0 .2.07.36.22.47.15.12.36.17.62.17.22 0 .41-.05.58-.14.16-.09.29-.23.38-.41s.13-.39.13-.63h.26c0 .52-.12.94-.36 1.25s-.58.47-1.03.47Zm1.15-.09-.03-.63v-1.4c0-.3-.03-.55-.1-.75a.9.9 0 0 0-.31-.45c-.14-.1-.33-.15-.56-.15-.21 0-.39.04-.54.13-.15.08-.28.22-.37.4l-.55-.22c.1-.18.21-.33.35-.47s.3-.23.49-.3c.18-.07.39-.1.63-.1.36 0 .66.07.89.21s.41.35.53.62c.12.28.18.62.17 1.02v2.09h-.58Z" fill="#fffcef"/>
        <path d="M153.55 49.74v-3.85h.62v3.85zm.34-2.09c0-.42.08-.75.24-1.01s.36-.45.61-.58.51-.19.79-.19v.58c-.23 0-.44.04-.65.11s-.38.2-.51.37-.2.4-.2.69z" fill="#fffcef"/>
        <path d="M156.15 49.74v-3.85h.58l.04.71v3.14zm2.71-1.97c0-.38-.04-.67-.13-.87s-.21-.34-.36-.41-.33-.11-.52-.11c-.34 0-.6.12-.79.36s-.28.58-.28 1.01h-.3c0-.41.06-.75.18-1.05.12-.29.29-.52.52-.67.22-.15.5-.23.82-.23s.56.06.79.18c.22.12.4.31.52.57s.19.61.18 1.03v.18h-.62Zm0 1.97v-1.97h.62v1.97z" fill="#fffcef"/>
        <path d="M160.8 45q-.15 0-.27-.12a.37.37 0 0 1-.12-.27q0-.165.12-.27c.08-.07.17-.11.27-.11s.2.04.27.11.11.17.11.27-.04.19-.11.27q-.12.12-.27.12m-.31 4.74v-3.85h.62v3.85z" fill="#fffcef"/>
        <path d="M161.84 46.44v-.55h2.44v.55zm1.84 3.39c-.38 0-.67-.1-.87-.29s-.31-.47-.31-.82v-4.03h.62v3.96c0 .2.05.35.16.45s.25.16.44.16c.06 0 .12 0 .18-.03.06-.02.14-.06.23-.13l.24.5a1.2 1.2 0 0 1-.69.23" fill="#fffcef"/>
        <path d="M165.5 45q-.15 0-.27-.12a.37.37 0 0 1-.12-.27q0-.165.12-.27c.08-.07.17-.11.27-.11s.2.04.27.11.11.17.11.27-.04.19-.11.27-.17.12-.27.12m-.32 4.74v-3.85h.62v3.85z" fill="#fffcef"/>
        <path d="M166.93 49.74v-3.85h.58l.04.71v3.14zm2.7-1.97c0-.38-.04-.67-.13-.87s-.21-.34-.36-.41-.33-.11-.52-.11c-.34 0-.6.12-.79.36s-.28.58-.28 1.01h-.3c0-.41.06-.75.18-1.05.12-.29.29-.52.52-.67.22-.15.5-.23.82-.23s.56.06.79.18c.22.12.4.31.52.57s.19.61.18 1.03v.18h-.62Zm0 1.97v-1.97h.62v1.97z" fill="#fffcef"/>
        <path d="M172.45 49.83c-.45 0-.8-.1-1.06-.31s-.38-.5-.38-.87q0-.585.39-.9c.39-.315.62-.31 1.09-.31h1.1v.52h-.96c-.36 0-.62.06-.77.18a.62.62 0 0 0-.23.51c0 .2.07.36.22.47.15.12.36.17.62.17.22 0 .41-.05.58-.14.16-.09.29-.23.38-.41s.13-.39.13-.63h.26c0 .52-.12.94-.36 1.25s-.58.47-1.03.47Zm1.15-.09-.03-.63v-1.4c0-.3-.03-.55-.1-.75a.9.9 0 0 0-.31-.45c-.14-.1-.33-.15-.56-.15-.21 0-.39.04-.54.13-.15.08-.28.22-.37.4l-.55-.22c.1-.18.21-.33.35-.47s.3-.23.49-.3c.18-.07.39-.1.63-.1.36 0 .66.07.89.21s.41.35.53.62c.12.28.18.62.17 1.02v2.09h-.58Z" fill="#fffcef"/>
        <path d="M178.27 49.83c-.45 0-.8-.1-1.06-.31s-.38-.5-.38-.87q0-.585.39-.9c.39-.315.62-.31 1.09-.31h1.1v.52h-.96c-.36 0-.62.06-.77.18a.62.62 0 0 0-.23.51c0 .2.07.36.22.47.15.12.36.17.62.17.22 0 .41-.05.58-.14.16-.09.29-.23.38-.41s.13-.39.13-.63h.26c0 .52-.12.94-.36 1.25s-.58.47-1.03.47Zm1.16-.09-.03-.63v-1.4c0-.3-.03-.55-.1-.75a.9.9 0 0 0-.31-.45c-.14-.1-.33-.15-.56-.15-.21 0-.39.04-.54.13-.15.08-.28.22-.37.4l-.55-.22c.1-.18.21-.33.35-.47s.3-.23.49-.3c.18-.07.39-.1.63-.1.36 0 .66.07.89.21s.41.35.53.62c.12.28.18.62.17 1.02v2.09h-.58Z" fill="#fffcef"/>
        <path d="M180.88 47.86v-1.97h.62v1.97zm.62 0c0 .38.04.67.13.87s.21.34.37.41.33.11.53.11q.495 0 .78-.36c.285-.36.28-.58.28-1.01h.3c0 .41-.06.75-.18 1.05-.12.29-.29.52-.51.67s-.5.23-.82.23c-.3 0-.56-.06-.79-.18s-.4-.31-.52-.58-.19-.61-.19-1.03v-.18zm2.12 1.88-.04-.71v-3.14h.62v3.85z" fill="#fffcef"/>
        <path d="m184.82 49.74 1.57-2.21 1.11-1.64h.73l-1.46 2.08-1.2 1.77zm2.76 0-1.19-1.77-1.48-2.08h.73l1.12 1.64 1.55 2.21h-.74Z" fill="#fffcef"/>
        <path d="M189.29 45q-.15 0-.27-.12a.37.37 0 0 1-.12-.27q0-.165.12-.27c.08-.07.17-.11.27-.11s.2.04.27.11.11.17.11.27-.04.19-.11.27q-.12.12-.27.12m-.31 4.74v-3.85h.62v3.85z" fill="#fffcef"/>
        <path d="M190.72 49.74v-5.39h.62v5.39z" fill="#fffcef"/>
        <path d="M192.77 45q-.15 0-.27-.12a.37.37 0 0 1-.12-.27q0-.165.12-.27c.08-.07.17-.11.27-.11s.2.04.27.11.11.17.11.27-.04.19-.11.27q-.12.12-.27.12m-.31 4.74v-3.85h.62v3.85z" fill="#fffcef"/>
        <path d="M195.42 49.83c-.45 0-.8-.1-1.06-.31s-.38-.5-.38-.87q0-.585.39-.9c.26-.21.62-.31 1.09-.31h1.1v.52h-.96c-.36 0-.61.06-.77.18s-.23.29-.23.51c0 .2.07.36.22.47.15.12.36.17.62.17.22 0 .41-.05.58-.14s.29-.23.38-.41.13-.39.13-.63h.26c0 .52-.12.94-.35 1.25s-.58.47-1.03.47Zm1.16-.09-.03-.63v-1.4c0-.3-.03-.55-.1-.75s-.17-.35-.32-.45c-.14-.1-.33-.15-.56-.15-.21 0-.39.04-.54.13-.15.08-.28.22-.38.4l-.55-.22c.1-.18.21-.33.35-.47s.3-.23.48-.3c.19-.07.4-.1.63-.1.36 0 .65.07.89.21.23.14.41.35.53.62.12.28.17.62.17 1.02v2.09h-.58Z" fill="#fffcef"/>
        <path d="M198.13 49.74v-3.85h.58l.03.54c.12-.21.27-.36.45-.47.19-.11.4-.16.65-.16.31 0 .57.07.79.22.22.14.38.36.47.65.11-.28.27-.5.47-.65.21-.15.46-.22.74-.22.43 0 .77.14 1.02.43s.37.72.37 1.31v2.2h-.62v-1.97q0-.57-.12-.87c-.12-.3-.19-.34-.32-.41a1 1 0 0 0-.46-.11c-.3 0-.54.12-.71.36s-.25.58-.25 1.01v1.99h-.62v-1.97q0-.57-.12-.87c-.08-.2-.19-.34-.32-.41s-.29-.11-.47-.11c-.3 0-.53.12-.7.36s-.25.58-.25 1.01v1.99h-.62Z" fill="#fffcef"/>
        <path d="M206.59 49.74v-3.85h.58l.04.71v3.14zm2.7-1.97c0-.38-.04-.67-.13-.87s-.21-.34-.36-.41-.33-.11-.52-.11c-.34 0-.6.12-.79.36s-.28.58-.28 1.01h-.3c0-.41.06-.75.18-1.05.12-.29.29-.52.52-.67s.5-.23.82-.23.57.06.79.18.4.31.52.57c.13.26.19.61.18 1.03v.18h-.62Zm0 1.97v-1.97h.62v1.97z" fill="#fffcef"/>
        <path d="M212.1 49.83c-.45 0-.8-.1-1.06-.31s-.38-.5-.38-.87q0-.585.39-.9c.26-.21.62-.31 1.09-.31h1.1v.52h-.96c-.36 0-.61.06-.77.18s-.23.29-.23.51c0 .2.07.36.22.47.15.12.36.17.62.17.22 0 .41-.05.58-.14s.29-.23.38-.41.13-.39.13-.63h.26c0 .52-.12.94-.35 1.25s-.58.47-1.03.47Zm1.15-.09-.03-.63v-1.4c0-.3-.03-.55-.1-.75s-.17-.35-.32-.45c-.14-.1-.33-.15-.56-.15-.21 0-.39.04-.54.13-.15.08-.28.22-.38.4l-.55-.22c.1-.18.21-.33.35-.47s.3-.23.48-.3c.19-.07.4-.1.63-.1.36 0 .65.07.89.21.23.14.41.35.53.62.12.28.17.62.17 1.02v2.09h-.58Z" fill="#fffcef"/>
        <path d="M94.22 59.98v-5.39h.58l.04.71v4.68zm1.92-1.45c-.32 0-.61-.08-.85-.25s-.43-.41-.57-.71-.2-.66-.2-1.05.07-.75.2-1.05.32-.54.57-.71c.24-.17.53-.25.85-.25.34 0 .65.08.91.25s.47.41.61.71c.15.3.22.65.22 1.05s-.07.75-.22 1.05-.35.54-.61.71-.56.25-.91.25m-.14-.56c.24 0 .46-.06.64-.18s.34-.29.45-.51.17-.47.17-.76-.05-.53-.16-.75c-.1-.22-.25-.39-.44-.52s-.4-.18-.65-.18q-.345 0-.6.18-.27.18-.42.51c-.1.22-.15.47-.15.76s.05.53.15.75.24.39.41.52q.255.18.6.18" fill="#fffcef"/>
        <path d="M98.74 58.44v-3.85h.62v3.85zm.33-2.09c0-.42.08-.75.24-1.01s.36-.45.61-.58.51-.19.79-.19v.58c-.23 0-.44.04-.65.11s-.38.2-.51.37-.2.4-.2.69z" fill="#fffcef"/>
        <path d="M103.02 58.53c-.38 0-.71-.09-.99-.26-.29-.17-.51-.41-.67-.71q-.24-.45-.24-1.05c0-.6.08-.74.24-1.05.16-.3.38-.54.67-.71.28-.17.61-.26.98-.26s.67.09.93.27.46.42.61.74.22.69.22 1.12h-3.18l.15-.13c0 .31.05.57.17.79s.27.39.47.5c.2.12.43.17.69.17.27 0 .5-.06.69-.19s.33-.3.43-.51l.53.27c-.1.2-.23.38-.39.52-.16.15-.35.26-.57.35-.22.08-.46.12-.73.12Zm-1.24-2.29-.16-.12h2.66l-.16.13c0-.25-.05-.46-.15-.64q-.15-.27-.39-.42c-.17-.1-.35-.15-.57-.15s-.41.05-.6.15-.34.23-.45.41c-.12.18-.17.39-.17.64Z" fill="#fffcef"/>
        <path d="M106.89 58.53c-.28 0-.53-.04-.74-.13-.21-.08-.39-.2-.53-.33a1.2 1.2 0 0 1-.3-.46l.54-.22c.09.17.22.32.39.42.17.11.37.16.58.16.24 0 .44-.05.61-.14a.45.45 0 0 0 .25-.4c0-.16-.06-.29-.18-.38q-.18-.15-.54-.24l-.37-.1c-.35-.09-.62-.23-.82-.42-.19-.19-.29-.4-.29-.63 0-.36.12-.65.36-.85s.59-.3 1.07-.3c.23 0 .43.03.62.1.18.07.34.16.48.28.13.12.23.26.29.43l-.54.24a.73.73 0 0 0-.33-.38 1.2 1.2 0 0 0-.56-.12c-.24 0-.42.05-.55.15s-.2.24-.2.42c0 .1.06.2.17.29s.27.16.49.22l.38.1q.375.09.63.27c.17.12.3.26.39.41s.13.32.13.49c0 .23-.06.43-.19.6-.12.17-.29.3-.5.39s-.45.13-.72.13Z" fill="#fffcef"/>
        <path d="M110.82 58.53c-.38 0-.71-.09-.99-.26-.29-.17-.51-.41-.67-.71q-.24-.45-.24-1.05c0-.6.08-.74.24-1.05.16-.3.38-.54.67-.71.28-.17.61-.26.98-.26s.67.09.93.27.46.42.61.74.22.69.22 1.12h-3.18l.15-.13c0 .31.05.57.17.79s.27.39.47.5c.2.12.43.17.69.17.27 0 .5-.06.69-.19s.33-.3.43-.51l.53.27c-.1.2-.23.38-.39.52-.16.15-.35.26-.57.35-.22.08-.46.12-.73.12Zm-1.25-2.29-.16-.12h2.66l-.16.13c0-.25-.05-.46-.15-.64q-.15-.27-.39-.42c-.17-.1-.35-.15-.57-.15s-.41.05-.6.15-.34.23-.45.41c-.12.18-.17.39-.17.64Z" fill="#fffcef"/>
        <path d="M113.33 58.44v-3.85h.62v3.85zm.34-2.09c0-.42.08-.75.24-1.01s.36-.45.61-.58.51-.19.79-.19v.58c-.23 0-.44.04-.65.11s-.38.2-.51.37-.2.4-.2.69z" fill="#fffcef"/>
        <path d="m117.08 58.44-1.61-3.85h.64l1.57 3.85zm.03 0 1.57-3.85h.65l-1.61 3.85z" fill="#fffcef"/>
        <path d="M121.06 58.53c-.45 0-.8-.1-1.06-.31-.25-.21-.38-.5-.38-.87q0-.585.39-.9c.26-.21.62-.31 1.09-.31h1.1v.52h-.96c-.36 0-.61.06-.77.18a.62.62 0 0 0-.23.51c0 .2.07.36.22.47.15.12.36.17.62.17.22 0 .41-.05.58-.14.16-.09.29-.23.38-.41s.13-.39.13-.63h.26c0 .52-.12.94-.35 1.25s-.58.47-1.03.47Zm1.16-.09-.03-.63v-1.4c0-.3-.03-.55-.1-.75s-.17-.35-.32-.45c-.14-.1-.33-.15-.56-.15-.21 0-.39.04-.54.13s-.28.22-.37.4l-.55-.22c.1-.18.21-.33.35-.47s.3-.23.49-.3.4-.1.63-.1c.36 0 .66.07.89.21s.41.35.53.62c.12.28.17.62.17 1.02v2.09h-.58Z" fill="#fffcef"/>
        <path d="M125.49 58.53c-.38 0-.72-.09-1.01-.26s-.52-.41-.68-.71c-.17-.3-.25-.65-.25-1.05s.08-.74.24-1.05c.16-.3.39-.54.68-.71s.63-.26 1-.26.7.08.99.25.52.41.67.72l-.56.25q-.15-.315-.45-.48c-.19-.12-.42-.17-.67-.17s-.47.06-.67.19-.34.29-.46.51c-.11.22-.17.47-.17.75s.05.53.17.75c.11.22.26.39.46.51s.42.18.67.18.48-.06.67-.19q.3-.195.45-.54l.56.25c-.15.33-.38.59-.67.77s-.63.28-1 .28Zm-.24 1.53c-.1 0-.21-.01-.32-.04-.12-.03-.26-.08-.42-.17l.15-.37c.08.04.16.07.25.11s.17.05.24.05c.09 0 .18-.02.25-.05.08-.04.11-.11.11-.22 0-.13-.05-.22-.14-.29-.09-.06-.24-.11-.44-.14l.23-.54.41.09-.08.2c.19.07.33.16.4.28.08.12.12.25.12.38 0 .2-.06.37-.18.5-.12.14-.31.2-.58.2Z" fill="#fffcef"/>
        <path d="M129.16 58.53c-.45 0-.8-.1-1.06-.31s-.38-.5-.38-.87q0-.585.39-.9c.26-.21.62-.31 1.09-.31h1.1v.52h-.96c-.36 0-.61.06-.77.18s-.23.29-.23.51c0 .2.07.36.22.47.15.12.36.17.62.17.22 0 .41-.05.58-.14s.29-.23.38-.41.13-.39.13-.63h.26c0 .52-.12.94-.35 1.25s-.58.47-1.03.47Zm1.15-.09-.03-.63v-1.4c0-.3-.03-.55-.1-.75s-.17-.35-.32-.45c-.14-.1-.33-.15-.56-.15-.21 0-.39.04-.54.13-.15.08-.28.22-.38.4l-.55-.22c.1-.18.21-.33.35-.47s.3-.23.48-.3c.19-.07.4-.1.63-.1.36 0 .65.07.89.21.23.14.41.35.53.62.12.28.17.62.17 1.02v2.09h-.58Zm-.34-4.36c-.15 0-.27-.03-.36-.08a1.1 1.1 0 0 1-.23-.19c-.06-.07-.12-.14-.17-.19s-.11-.08-.18-.08c-.08 0-.14.02-.19.07a.45.45 0 0 0-.1.23h-.5q.03-.21.12-.39c.06-.12.15-.22.27-.29s.25-.11.4-.11c.14 0 .26.03.35.08s.16.12.22.19.12.14.17.19.12.08.2.08c.09 0 .15-.03.19-.08s.07-.12.08-.22h.49c-.03.21-.1.39-.23.55q-.195.24-.54.24Z" fill="#fffcef"/>
        <path d="M133.57 58.53c-.38 0-.71-.09-1-.26s-.52-.41-.68-.71-.25-.65-.25-1.05.08-.74.24-1.05c.16-.3.39-.54.68-.71s.62-.26 1-.26.71.09 1 .26.52.41.68.71q.24.45.24 1.05c0 .6-.08.74-.24 1.05s-.39.54-.67.71c-.29.17-.62.26-.99.26Zm-.01-.57c.25 0 .47-.06.67-.18q.285-.18.45-.51c.11-.22.17-.47.17-.75s-.05-.53-.17-.75a1.2 1.2 0 0 0-.46-.51c-.2-.12-.42-.19-.68-.19s-.47.06-.67.19c-.19.12-.35.29-.46.51s-.17.47-.17.75.05.53.17.75c.11.22.26.39.46.51s.42.18.67.18Z" fill="#fffcef"/>
        <path d="M139.74 58.53c-.34 0-.65-.08-.91-.25s-.47-.41-.61-.71-.22-.66-.22-1.05.07-.75.22-1.05.35-.54.61-.71.56-.25.91-.25c.32 0 .61.08.85.25s.43.41.56.71.2.65.2 1.05-.07.75-.2 1.05c-.13.31-.32.54-.56.71s-.53.25-.85.25m.14-.56c.22 0 .43-.06.6-.18.18-.12.31-.29.41-.52q.15-.33.15-.75c0-.42-.05-.53-.15-.75s-.24-.39-.41-.52c-.17-.12-.38-.18-.61-.18a1.14 1.14 0 0 0-1.08.7c-.1.23-.16.47-.16.75s.05.53.16.75.26.39.45.52c.19.12.4.18.65.18Zm1.2.47-.03-.72v-4.67h.62v5.39z" fill="#fffcef"/>
        <path d="M144.43 58.53c-.38 0-.71-.09-.99-.26-.29-.17-.51-.41-.67-.71s-.24-.65-.24-1.05.08-.74.24-1.05c.16-.3.38-.54.67-.71s.61-.26.98-.26.67.09.93.27.46.42.61.74c.14.32.22.69.22 1.12H143l.15-.13c0 .31.05.57.17.79.11.22.27.39.46.5.2.12.43.17.69.17.27 0 .5-.06.69-.19s.33-.3.44-.51l.53.27c-.1.2-.23.38-.39.52-.16.15-.35.26-.57.35s-.46.12-.73.12Zm-1.25-2.29-.16-.12h2.66l-.16.13c0-.25-.05-.46-.14-.64q-.15-.27-.39-.42-.255-.15-.57-.15c-.315 0-.41.05-.6.15s-.34.23-.45.41c-.12.18-.17.39-.17.64Z" fill="#fffcef"/>
        <path d="M148.74 56.56v-1.97h.62v1.97zm.62 0c0 .38.04.67.13.87s.21.34.37.41.33.11.53.11q.495 0 .78-.36c.285-.36.28-.58.28-1.01h.3c0 .41-.06.75-.18 1.05-.12.29-.29.52-.51.67s-.5.23-.82.23c-.3 0-.56-.06-.79-.18s-.4-.31-.52-.58-.19-.61-.19-1.03v-.18zm2.12 1.88-.04-.71v-3.14h.62v3.85z" fill="#fffcef"/>
        <path d="M153.14 58.44v-3.85h.58l.03.54c.12-.21.27-.36.45-.47.19-.11.4-.16.65-.16.31 0 .57.07.79.22.22.14.38.36.47.65.11-.28.27-.5.47-.65.21-.15.46-.22.74-.22.43 0 .77.14 1.02.43s.37.72.37 1.31v2.2h-.62v-1.97q0-.57-.12-.87c-.12-.3-.19-.34-.32-.41a1 1 0 0 0-.46-.11c-.3 0-.54.12-.71.36s-.25.58-.25 1.01v1.99h-.62v-1.97q0-.57-.12-.87c-.08-.2-.19-.34-.32-.41s-.29-.11-.47-.11c-.3 0-.53.12-.7.36s-.25.58-.25 1.01v1.99h-.62Z" fill="#fffcef"/>
        <path d="M161.63 59.98v-5.39h.58l.04.71v4.68zm1.92-1.45c-.32 0-.61-.08-.85-.25s-.43-.41-.56-.71c-.13-.31-.2-.66-.2-1.05s.07-.75.2-1.05.32-.54.56-.71.53-.25.85-.25c.34 0 .65.08.91.25s.47.41.61.71c.15.3.22.65.22 1.05s-.07.75-.22 1.05-.35.54-.61.71-.56.25-.91.25m-.14-.56c.24 0 .46-.06.64-.18s.34-.29.45-.51.17-.47.17-.76-.05-.53-.16-.75-.25-.39-.44-.52-.4-.18-.65-.18q-.345 0-.6.18-.27.18-.42.51c-.1.22-.15.47-.15.76s.05.53.15.75.24.39.41.52q.255.18.6.18" fill="#fffcef"/>
        <path d="M167.83 58.53c-.38 0-.71-.09-.99-.26-.29-.17-.51-.41-.67-.71q-.24-.45-.24-1.05c0-.6.08-.74.24-1.05.16-.3.38-.54.67-.71.28-.17.61-.26.98-.26s.67.09.93.27.46.42.61.74c.14.32.21.69.21 1.12h-3.18l.15-.13c0 .31.05.57.16.79s.27.39.47.5c.2.12.43.17.69.17.27 0 .5-.06.69-.19s.33-.3.43-.51l.53.27c-.1.2-.23.38-.39.52-.16.15-.35.26-.57.35-.22.08-.46.12-.73.12Zm-1.25-2.29-.16-.12h2.66l-.16.13c0-.25-.05-.46-.15-.64s-.23-.32-.39-.42-.35-.15-.57-.15-.41.05-.6.15-.34.23-.46.41-.17.39-.17.64" fill="#fffcef"/>
        <path d="M171.7 58.53c-.28 0-.53-.04-.74-.13-.21-.08-.39-.2-.53-.33a1.2 1.2 0 0 1-.3-.46l.54-.22c.09.17.22.32.39.42.17.11.37.16.58.16.24 0 .44-.05.61-.14s.25-.23.25-.4c0-.16-.06-.29-.18-.38q-.18-.15-.54-.24l-.37-.1c-.35-.09-.62-.23-.82-.42-.19-.19-.29-.4-.29-.63 0-.36.12-.65.36-.85s.59-.3 1.07-.3c.23 0 .43.03.62.1s.34.16.48.28c.13.12.23.26.29.43l-.54.24c-.07-.17-.18-.3-.33-.38s-.34-.12-.56-.12c-.24 0-.42.05-.55.15s-.2.24-.2.42c0 .1.05.2.17.29.11.09.27.16.49.22l.38.1q.375.09.63.27c.17.12.3.26.39.41s.13.32.13.49c0 .23-.06.43-.19.6-.12.17-.29.3-.5.39s-.45.13-.72.13Z" fill="#fffcef"/>
        <path d="M175.65 58.53c-.38 0-.71-.09-1-.26s-.52-.41-.68-.71-.25-.65-.25-1.05.08-.74.24-1.05c.16-.3.39-.54.68-.71s.62-.26 1-.26.71.09 1 .26.52.41.68.71q.24.45.24 1.05c0 .6-.08.74-.24 1.05s-.39.54-.67.71c-.29.17-.62.26-.99.26Zm-.01-.57c.25 0 .47-.06.67-.18q.285-.18.45-.51c.11-.22.17-.47.17-.75s-.05-.53-.17-.75a1.2 1.2 0 0 0-.46-.51c-.2-.12-.42-.19-.68-.19s-.47.06-.67.19c-.19.12-.35.29-.46.51s-.17.47-.17.75.05.53.17.75c.11.22.26.39.46.51s.42.18.67.18Z" fill="#fffcef"/>
        <path d="M181.65 58.53c-.28 0-.53-.04-.74-.13-.21-.08-.39-.2-.53-.33a1.2 1.2 0 0 1-.3-.46l.54-.22c.09.17.22.32.39.42.17.11.37.16.58.16.24 0 .44-.05.61-.14s.25-.23.25-.4c0-.16-.06-.29-.18-.38q-.18-.15-.54-.24l-.37-.1c-.35-.09-.62-.23-.82-.42-.19-.19-.29-.4-.29-.63 0-.36.12-.65.36-.85s.59-.3 1.07-.3c.23 0 .43.03.62.1s.34.16.48.28c.13.12.23.26.29.43l-.54.24c-.07-.17-.18-.3-.33-.38s-.34-.12-.56-.12c-.24 0-.42.05-.55.15s-.2.24-.2.42c0 .1.05.2.17.29.11.09.27.16.49.22l.38.1q.375.09.63.27c.17.12.3.26.39.41s.13.32.13.49c0 .23-.06.43-.19.6-.12.17-.29.3-.5.39s-.45.13-.72.13Z" fill="#fffcef"/>
        <path d="M185.11 58.53c-.45 0-.8-.1-1.06-.31s-.38-.5-.38-.87q0-.585.39-.9c.39-.315.62-.31 1.09-.31h1.1v.52h-.96c-.36 0-.62.06-.77.18a.62.62 0 0 0-.23.51c0 .2.07.36.22.47.15.12.36.17.62.17.22 0 .41-.05.58-.14.16-.09.29-.23.38-.41s.13-.39.13-.63h.26c0 .52-.12.94-.36 1.25s-.58.47-1.03.47Zm1.15-.09-.03-.63v-1.4c0-.3-.03-.55-.1-.75a.9.9 0 0 0-.31-.45c-.14-.1-.33-.15-.56-.15-.21 0-.39.04-.54.13-.15.08-.28.22-.37.4l-.55-.22c.1-.18.21-.33.35-.47s.3-.23.49-.3c.18-.07.39-.1.63-.1.36 0 .66.07.89.21s.41.35.53.62c.12.28.18.62.17 1.02v2.09h-.58Z" fill="#fffcef"/>
        <path d="M187.72 56.56v-1.97h.62v1.97zm.62 0c0 .38.04.67.13.87s.21.34.37.41.33.11.53.11q.495 0 .78-.36c.285-.36.28-.58.28-1.01h.3c0 .41-.06.75-.18 1.05-.12.29-.29.52-.51.67s-.5.23-.82.23c-.3 0-.56-.06-.79-.18s-.4-.31-.52-.58-.19-.61-.19-1.03v-.18zm2.12 1.88-.04-.71v-3.14h.62v3.85z" fill="#fffcef"/>
        <path d="M193.63 58.53c-.34 0-.65-.08-.91-.25s-.46-.41-.61-.71-.22-.66-.22-1.05.07-.75.22-1.05.35-.54.61-.71.56-.25.91-.25c.32 0 .61.08.85.25s.43.41.57.71c.13.3.2.65.2 1.05s-.07.75-.2 1.05c-.13.31-.32.54-.57.71-.24.17-.53.25-.85.25m.14-.56q.345 0 .6-.18c.17-.12.31-.29.41-.52s.15-.47.15-.75-.05-.53-.15-.75-.24-.39-.41-.52c-.18-.12-.38-.18-.61-.18s-.46.06-.64.18-.33.29-.44.52c-.11.22-.16.47-.16.75s.05.53.16.75.26.39.45.52.41.18.65.18Zm1.19.47-.03-.72v-4.67h.62v5.39z" fill="#fffcef"/>
        <path d="M197.85 58.53c-.45 0-.8-.1-1.06-.31s-.38-.5-.38-.87q0-.585.39-.9c.26-.21.62-.31 1.09-.31h1.1v.52h-.96c-.36 0-.61.06-.77.18s-.23.29-.23.51c0 .2.07.36.22.47.15.12.36.17.62.17.22 0 .41-.05.58-.14s.29-.23.38-.41.13-.39.13-.63h.26c0 .52-.12.94-.35 1.25s-.58.47-1.03.47Zm1.15-.09-.03-.63v-1.4c0-.3-.03-.55-.1-.75s-.17-.35-.32-.45c-.14-.1-.33-.15-.56-.15-.21 0-.39.04-.54.13-.15.08-.28.22-.38.4l-.55-.22c.1-.18.21-.33.35-.47s.3-.23.48-.3c.19-.07.4-.1.63-.1.36 0 .65.07.89.21.23.14.41.35.53.62.12.28.17.62.17 1.02v2.09h-.58Zm-1.49-4.4.9-.99h.79l-.99.99z" fill="#fffcef"/>
        <path d="m201.62 58.44-1.61-3.85h.64l1.57 3.85zm.04 0 1.57-3.85h.65l-1.61 3.85z" fill="#fffcef"/>
        <path d="M206.08 58.53c-.38 0-.71-.09-.99-.26-.29-.17-.51-.41-.67-.71q-.24-.45-.24-1.05c0-.6.08-.74.24-1.05.16-.3.38-.54.67-.71.28-.17.61-.26.98-.26s.67.09.93.27.46.42.61.74c.14.32.21.69.21 1.12h-3.18l.15-.13c0 .31.05.57.16.79s.27.39.47.5c.2.12.43.17.69.17.27 0 .5-.06.69-.19s.33-.3.43-.51l.53.27c-.1.2-.23.38-.39.52-.16.15-.35.26-.57.35-.22.08-.46.12-.73.12Zm-1.24-2.29-.16-.12h2.66l-.16.13c0-.25-.05-.46-.15-.64s-.23-.32-.39-.42-.35-.15-.57-.15-.41.05-.6.15-.34.23-.46.41-.17.39-.17.64" fill="#fffcef"/>
        <path d="M208.6 58.44v-5.39h.62v5.39z" fill="#fffcef"/>
        <path d="M210.56 58.55a.38.38 0 0 1-.3-.13.42.42 0 0 1-.13-.3c0-.12.04-.22.13-.3.08-.08.19-.13.3-.13s.22.04.3.13c.08.08.12.19.12.3s-.04.21-.12.3c-.08.08-.18.13-.3.13" fill="#fffcef"/>
        <path fill="#fffcef" d="M84.32 43.5c0 15.215-12.335 27.55-27.55 27.55S29.22 58.715 29.22 43.5s12.335-27.55 27.55-27.55S84.32 28.285 84.32 43.5"/>
        <path d="M71.59 34.45a3.345 3.345 0 0 0-3.35-3.35H45.3a3.345 3.345 0 0 0-3.35 3.35v20.09a3.345 3.345 0 0 0 3.35 3.35h22.94a3.345 3.345 0 0 0 3.35-3.35z" fill="none" stroke="#00578a" stroke-miterlimit="10"/>
        <path d="M64.98 36.72c-5.28-2.43-11.13-2.43-16.41 0l2.49 6.68c3.33-1.1 8.1-1.1 11.42 0l2.49-6.68Z" fill="none" stroke="#00578a" stroke-miterlimit="10"/>
        <path fill="none" stroke="#00578a" stroke-miterlimit="10" d="m50.63 35.9.6 1.66"/>
        <path fill="none" stroke="#00578a" stroke-miterlimit="10" d="m53.82 35.12.18 1.57"/>
        <path fill="none" stroke="#00578a" stroke-miterlimit="10" d="m59.72 35.12-.18 1.57"/>
        <path fill="none" stroke="#00578a" stroke-miterlimit="10" d="m62.91 35.9-.6 1.66"/>
        <path fill="none" stroke="#00578a" stroke-miterlimit="10" d="M56.77 34.89v1.8"/>
        <path fill="none" stroke="#00578a" stroke-miterlimit="10" d="M56.77 42.57v-3.61"/>
    </g>
</svg>
