<?xml version="1.0" encoding="UTF-8"?>
<svg data-bbox="5.41 21.61 222.62 55.1" viewBox="0 0 250 100" xmlns="http://www.w3.org/2000/svg" data-type="color">
    <g>
        <path d="M70.58 40.69c-.28 0-.55-.04-.82-.12s-.51-.18-.73-.32-.4-.29-.54-.46-.23-.36-.26-.55l1.57-.44c.05.14.14.26.26.36s.29.16.49.17c.16 0 .3-.04.42-.13s.18-.21.18-.36c0-.1-.04-.19-.11-.28s-.18-.15-.34-.19l-.9-.23c-.31-.08-.57-.2-.79-.37s-.39-.37-.5-.61c-.12-.24-.17-.51-.17-.8 0-.59.19-1.04.58-1.37s.94-.49 1.64-.49q.57 0 .99.15c.29.1.53.25.74.46s.38.48.52.81l-1.56.45a.73.73 0 0 0-.22-.34c-.12-.11-.28-.17-.47-.17s-.34.04-.45.13-.16.21-.16.38c0 .1.04.19.13.27s.21.13.37.17l.9.23c.46.11.81.34 1.07.67s.38.71.38 1.14c0 .39-.09.73-.27 1s-.44.48-.77.62q-.51.21-1.2.21Z" fill="#fffcef" data-color="1"/>
        <path d="M76.51 40.69c-.63 0-1.18-.13-1.66-.4-.48-.26-.86-.63-1.13-1.09s-.41-.99-.41-1.59.14-1.14.41-1.6.65-.83 1.13-1.09 1.03-.4 1.65-.4 1.18.13 1.66.4c.48.26.85.63 1.13 1.09.27.46.41 1 .41 1.6s-.14 1.13-.41 1.59-.64.83-1.12 1.09-1.03.4-1.65.4Zm0-1.45q.465 0 .81-.21c.345-.21.42-.33.55-.58.13-.24.2-.53.2-.84s-.07-.6-.2-.85-.32-.44-.55-.58-.51-.21-.82-.21-.57.07-.81.21-.42.33-.55.58-.2.53-.2.85.07.6.21.84c.14.25.32.44.56.58s.51.21.82.21Zm-.85-5.06.94-1.19h1.62l-1.11 1.19z" fill="#fffcef" data-color="1"/>
        <path d="M80.41 40.59v-5.97h2c.65 0 1.23.13 1.74.38.5.26.9.61 1.18 1.05.29.45.43.96.43 1.55s-.14 1.1-.43 1.54c-.28.45-.68.8-1.18 1.06s-1.08.38-1.74.38h-2Zm1.58-1.49h.42c.25 0 .48-.04.69-.11s.39-.18.55-.31c.15-.13.27-.29.36-.47.08-.18.13-.38.13-.61s-.04-.42-.13-.61c-.09-.18-.21-.34-.36-.47s-.34-.23-.55-.31a2.2 2.2 0 0 0-.69-.11h-.42v2.99Z" fill="#fffcef" data-color="1"/>
        <path d="M86.48 40.59v-5.97h1.58v5.97z" fill="#fffcef" data-color="1"/>
        <path d="M91.98 40.69c-.63 0-1.18-.13-1.66-.4-.48-.26-.86-.63-1.13-1.09s-.41-.99-.41-1.59.14-1.14.41-1.6.65-.83 1.13-1.09 1.03-.4 1.65-.4 1.18.13 1.66.4c.48.26.85.63 1.13 1.09.27.46.41 1 .41 1.6s-.14 1.13-.41 1.59-.64.83-1.12 1.09-1.03.4-1.65.4Zm0-1.45q.465 0 .81-.21c.345-.21.42-.33.55-.58.13-.24.2-.53.2-.84s-.07-.6-.2-.85-.32-.44-.55-.58-.51-.21-.82-.21-.57.07-.81.21-.42.33-.55.58-.2.53-.2.85.07.6.21.84c.14.25.32.44.56.58s.51.21.82.21Z" fill="#fffcef" data-color="1"/>
        <path d="M100.6 40.69c-.6 0-1.12-.13-1.58-.4-.46-.26-.82-.63-1.08-1.09s-.39-1-.39-1.6.13-1.14.39-1.6.62-.83 1.08-1.09.99-.4 1.58-.4c.46 0 .88.08 1.25.24s.69.38.96.67.47.61.61.99l-1.5.48c-.08-.19-.18-.35-.31-.49s-.27-.25-.44-.32-.36-.11-.57-.11c-.28 0-.53.07-.74.21-.22.14-.39.33-.51.58s-.18.53-.18.85.06.6.19.85c.12.25.3.44.52.58s.47.21.75.21c.22 0 .41-.04.58-.12.16-.08.3-.18.42-.32s.22-.3.3-.49l1.5.48c-.14.38-.34.71-.61.99-.27.29-.59.51-.96.67-.38.16-.79.24-1.25.24Z" fill="#fffcef" data-color="1"/>
        <path d="M106.97 40.69c-.63 0-1.18-.13-1.66-.4-.48-.26-.86-.63-1.13-1.09s-.41-.99-.41-1.59.14-1.14.41-1.6.65-.83 1.13-1.09 1.03-.4 1.65-.4 1.18.13 1.66.4c.48.26.85.63 1.13 1.09.27.46.41 1 .41 1.6s-.14 1.13-.41 1.59-.64.83-1.12 1.09-1.03.4-1.65.4Zm0-1.45q.465 0 .81-.21c.345-.21.42-.33.55-.58.13-.24.2-.53.2-.84s-.07-.6-.2-.85-.32-.44-.55-.58-.51-.21-.82-.21-.57.07-.81.21-.42.33-.55.58-.2.53-.2.85.07.6.21.84c.14.25.32.44.56.58s.51.21.82.21Z" fill="#fffcef" data-color="1"/>
        <path d="M110.87 40.59v-5.97h1.67l2.33 3.29v-3.29h1.58v5.97h-1.58l-2.42-3.41v3.41z" fill="#fffcef" data-color="1"/>
        <path d="M118.79 40.59v-4.52h-1.69v-1.45h4.95v1.45h-1.68v4.52z" fill="#fffcef" data-color="1"/>
        <path d="M122.71 40.59v-5.97h2.48c.45 0 .85.09 1.19.26.35.17.62.41.82.72s.29.66.29 1.05-.1.75-.29 1.06c-.2.31-.47.55-.82.73-.35.17-.75.26-1.19.26h-.9v1.89zm1.58-3.34h.81c.14 0 .27-.03.38-.08s.19-.12.26-.21.09-.19.09-.31a.53.53 0 0 0-.2-.42.8.8 0 0 0-.53-.17h-.81zm1.63 3.34-1.33-2.35 1.19-.89 1.95 3.23h-1.81Z" fill="#fffcef" data-color="1"/>
        <path d="M131.27 40.69c-.63 0-1.18-.13-1.66-.4-.48-.26-.86-.63-1.13-1.09s-.41-.99-.41-1.59.14-1.14.41-1.6.65-.83 1.13-1.09 1.03-.4 1.65-.4 1.18.13 1.66.4c.48.26.85.63 1.13 1.09.27.46.41 1 .41 1.6s-.14 1.13-.41 1.59-.64.83-1.12 1.09-1.03.4-1.65.4Zm0-1.45q.465 0 .81-.21c.345-.21.42-.33.55-.58.13-.24.2-.53.2-.84s-.07-.6-.2-.85-.32-.44-.55-.58-.51-.21-.82-.21-.57.07-.81.21-.42.33-.55.58-.2.53-.2.85.07.6.21.84c.14.25.32.44.56.58s.51.21.82.21Z" fill="#fffcef" data-color="1"/>
        <path d="M135.17 40.59v-5.97h1.58v4.52h2.46v1.45z" fill="#fffcef" data-color="1"/>
        <path d="m139.43 40.59 2.29-5.97h1.57l-2.18 5.97h-1.67Zm1.08-.95v-1.39h4.13v1.39zm3.52.95-2.19-5.97h1.57l2.29 5.97z" fill="#fffcef" data-color="1"/>
        <path d="M146.28 40.59v-5.97h2c.65 0 1.23.13 1.74.38.5.26.9.61 1.18 1.05.29.45.43.96.43 1.55s-.14 1.1-.43 1.54c-.28.45-.68.8-1.18 1.06s-1.08.38-1.74.38h-2Zm1.58-1.49h.42c.25 0 .48-.04.69-.11s.39-.18.55-.31c.15-.13.27-.29.36-.47.08-.18.13-.38.13-.61s-.04-.42-.13-.61c-.09-.18-.21-.34-.36-.47s-.34-.23-.55-.31a2.2 2.2 0 0 0-.69-.11h-.42v2.99Z" fill="#fffcef" data-color="1"/>
        <path d="M155.25 40.69c-.63 0-1.18-.13-1.66-.4-.48-.26-.86-.63-1.13-1.09s-.41-.99-.41-1.59.14-1.14.41-1.6.65-.83 1.13-1.09 1.03-.4 1.65-.4 1.18.13 1.66.4c.48.26.85.63 1.13 1.09.27.46.41 1 .41 1.6s-.14 1.13-.41 1.59-.64.83-1.12 1.09-1.03.4-1.65.4Zm0-1.45q.465 0 .81-.21c.345-.21.42-.33.55-.58.13-.24.2-.53.2-.84s-.07-.6-.2-.85-.32-.44-.55-.58-.51-.21-.82-.21-.57.07-.81.21-.42.33-.55.58-.2.53-.2.85.07.6.21.84c.14.25.32.44.56.58s.51.21.82.21Z" fill="#fffcef" data-color="1"/>
        <path d="M68.77 50.23v-5.97h3.53v.66h-2.81v1.93h2.56v.65h-2.56v2.08h2.82v.66h-3.55Z" fill="#fffcef" data-color="1"/>
        <path d="M73.62 50.23v-4.27h.64l.03.6c.13-.23.3-.4.5-.52s.44-.18.72-.18c.34 0 .63.08.88.24.24.16.42.4.52.73.12-.31.29-.55.53-.72s.5-.25.82-.25c.48 0 .85.16 1.13.48s.41.8.41 1.45v2.44h-.68v-2.18c0-.42-.04-.74-.13-.96s-.21-.37-.35-.46q-.225-.12-.51-.12c-.34 0-.6.13-.79.4-.19.26-.28.64-.28 1.12v2.21h-.68v-2.18c0-.42-.04-.74-.13-.96s-.21-.37-.36-.46a1.1 1.1 0 0 0-.52-.12.9.9 0 0 0-.78.4c-.19.26-.28.64-.28 1.12v2.21h-.68Z" fill="#fffcef" data-color="1"/>
        <path d="M84.68 50.34c-.38 0-.72-.09-1.01-.28s-.52-.45-.68-.79-.24-.73-.24-1.17.08-.83.24-1.17.39-.6.68-.79.63-.28 1.01-.28c.36 0 .67.09.94.28s.48.45.63.79.22.73.22 1.17-.07.83-.22 1.17-.36.6-.63.79-.58.28-.94.28m.15-.63c.25 0 .47-.07.67-.21s.35-.33.46-.57c.11-.25.17-.52.17-.84s-.05-.59-.17-.84c-.11-.25-.26-.44-.46-.57s-.42-.21-.67-.21-.5.07-.71.21-.37.33-.49.57q-.18.36-.18.84c0 .48.06.59.18.84.12.24.28.43.5.57q.315.21.72.21Zm1.29 2.23v-5.18l.03-.79h.65v5.98h-.68Z" fill="#fffcef" data-color="1"/>
        <path d="M87.82 48.15v-2.19h.68v2.19zm.68 0q0 .63.15.96c.15.33.23.37.41.46.17.08.37.12.58.12.37 0 .66-.13.87-.4s.31-.64.31-1.12h.33c0 .45-.07.84-.2 1.16s-.32.57-.57.74-.55.26-.91.26c-.33 0-.62-.07-.87-.2s-.44-.35-.58-.64-.21-.67-.21-1.14v-.2h.68Zm2.36 2.08-.04-.79v-3.48h.68v4.27z" fill="#fffcef" data-color="1"/>
        <path d="M94.04 50.34c-.5 0-.89-.12-1.17-.35s-.42-.55-.42-.96c0-.43.14-.76.43-.99s.69-.35 1.21-.35h1.22v.57h-1.07c-.4 0-.68.07-.85.2s-.25.32-.25.56c0 .22.08.4.25.52.17.13.4.19.69.19.24 0 .46-.05.64-.16.18-.1.32-.26.42-.45s.15-.43.15-.7h.29c0 .58-.13 1.04-.39 1.39-.26.34-.64.52-1.14.52Zm1.28-.11-.03-.7v-1.55c0-.34-.04-.61-.11-.83a.93.93 0 0 0-.35-.5 1.1 1.1 0 0 0-.62-.17c-.23 0-.43.05-.6.14s-.31.24-.41.45l-.62-.24c.11-.2.24-.37.39-.52.15-.14.33-.26.54-.33.21-.08.44-.12.7-.12q.6 0 .99.24c.39.24.45.39.58.69s.19.68.19 1.13v2.31h-.64Z" fill="#fffcef" data-color="1"/>
        <path d="M97.04 50.23v-4.27h.64l.04.79v3.48zm3-2.18c0-.42-.05-.74-.14-.96s-.23-.37-.4-.46c-.17-.08-.36-.12-.58-.12-.38 0-.67.13-.88.4s-.31.64-.31 1.12h-.33c0-.45.07-.84.2-1.16s.32-.57.57-.74.55-.26.9-.26.63.07.88.2.44.35.58.64.21.67.2 1.14v.21h-.68Zm0 2.18v-2.18h.68v2.18z" fill="#fffcef" data-color="1"/>
        <path d="M101.36 46.57v-.61h2.71v.61zm2.05 3.77c-.42 0-.74-.11-.96-.32-.23-.22-.34-.52-.34-.91v-4.46h.68v4.4c0 .22.06.38.17.5.12.12.28.17.49.17.07 0 .14 0 .2-.03a1 1 0 0 0 .26-.15l.26.55c-.15.1-.28.16-.4.2s-.24.06-.37.06Z" fill="#fffcef" data-color="1"/>
        <path d="M105.42 44.98a.4.4 0 0 1-.3-.13c-.08-.08-.13-.18-.13-.3s.04-.22.13-.3q.12-.12.3-.12c.18 0 .22.04.3.12q.12.12.12.3c0 .18-.04.21-.12.3a.38.38 0 0 1-.3.13m-.35 5.25v-4.27h.68v4.27z" fill="#fffcef" data-color="1"/>
        <path d="M108.69 50.34c-.38 0-.72-.09-1.01-.28s-.52-.45-.68-.79-.24-.73-.24-1.17.08-.83.24-1.17.39-.6.68-.79.63-.28 1.01-.28c.36 0 .67.09.94.28s.48.45.63.79.22.73.22 1.17-.07.83-.22 1.17-.36.6-.63.79-.58.28-.94.28m.16-.63c.25 0 .47-.07.67-.21s.35-.33.46-.57c.11-.25.17-.52.17-.84s-.05-.59-.17-.84c-.11-.25-.26-.44-.46-.57s-.42-.21-.67-.21-.5.07-.71.21-.37.33-.49.57q-.18.36-.18.84c0 .48.06.59.18.84.12.24.28.43.5.57q.315.21.72.21Zm1.32.52-.03-.79v-5.18h.68v5.97z" fill="#fffcef" data-color="1"/>
        <path d="M113.36 50.34c-.5 0-.89-.12-1.17-.35s-.42-.55-.42-.96c0-.43.14-.76.43-.99s.69-.35 1.21-.35h1.22v.57h-1.07c-.4 0-.68.07-.85.2s-.25.32-.25.56c0 .22.08.4.25.52.17.13.4.19.69.19.24 0 .46-.05.64-.16.18-.1.32-.26.42-.45s.15-.43.15-.7h.29c0 .58-.13 1.04-.39 1.39-.26.34-.64.52-1.14.52Zm1.28-.11-.03-.7v-1.55c0-.34-.04-.61-.11-.83a.93.93 0 0 0-.35-.5 1.1 1.1 0 0 0-.62-.17c-.23 0-.43.05-.6.14s-.31.24-.41.45l-.62-.24c.11-.2.24-.37.39-.52.15-.14.33-.26.54-.33.21-.08.44-.12.7-.12q.6 0 .99.24c.39.24.45.39.58.69s.19.68.19 1.13v2.31h-.64Z" fill="#fffcef" data-color="1"/>
        <path d="M118.05 50.34c-.38 0-.72-.09-1.01-.28s-.52-.45-.68-.79-.24-.73-.24-1.17.08-.83.24-1.17.39-.6.68-.79.63-.28 1.01-.28c.36 0 .67.09.94.28s.48.45.63.79.22.73.22 1.17-.07.83-.22 1.17-.36.6-.63.79-.58.28-.94.28m.15-.63c.25 0 .47-.07.67-.21s.35-.33.46-.57c.11-.25.17-.52.17-.84s-.05-.59-.17-.84c-.11-.25-.26-.44-.46-.57s-.42-.21-.67-.21-.5.07-.71.21-.37.33-.49.57q-.18.36-.18.84c0 .48.06.59.18.84.12.24.28.43.5.57q.315.21.72.21Zm1.32.52-.03-.79v-5.18h.68v5.97z" fill="#fffcef" data-color="1"/>
        <path d="M123.24 50.34c-.42 0-.78-.1-1.1-.29a1.97 1.97 0 0 1-.75-.79c-.18-.34-.27-.72-.27-1.16s.09-.83.27-1.16c.18-.34.43-.6.74-.79s.68-.29 1.09-.29.74.1 1.03.29.51.47.67.82.24.77.24 1.25h-3.53l.17-.14c0 .34.06.63.18.88.12.24.29.43.52.56s.47.19.76.19c.3 0 .56-.07.76-.21.21-.14.37-.33.48-.56l.59.3c-.11.22-.25.42-.43.58-.18.17-.39.29-.63.38s-.51.14-.81.14Zm-1.39-2.55-.18-.14h2.95l-.18.14c0-.27-.05-.51-.16-.71s-.25-.35-.44-.46c-.18-.11-.39-.16-.63-.16s-.45.05-.66.16-.38.26-.5.46c-.13.2-.19.43-.19.7Z" fill="#fffcef" data-color="1"/>
        <path d="M127.52 50.34c-.31 0-.59-.05-.82-.14s-.43-.22-.58-.37a1.35 1.35 0 0 1-.34-.5l.6-.25a1.22 1.22 0 0 0 1.08.65c.27 0 .49-.05.67-.16s.27-.25.27-.45c0-.18-.07-.32-.2-.43s-.33-.2-.59-.26l-.41-.11c-.39-.1-.69-.26-.9-.47-.22-.21-.32-.44-.32-.7 0-.4.13-.72.4-.94.26-.23.66-.34 1.18-.34.25 0 .48.04.68.11s.38.18.53.31.26.29.33.47l-.6.26a.77.77 0 0 0-.37-.42 1.3 1.3 0 0 0-.62-.13c-.26 0-.47.05-.61.17-.15.11-.22.27-.22.46 0 .11.06.22.18.32q.18.15.54.24l.43.11c.28.07.51.17.7.3s.33.29.43.46.15.35.15.55c0 .26-.07.48-.21.67s-.32.33-.55.43-.5.15-.8.15Z" fill="#fffcef" data-color="1"/>
        <path d="M132.11 50.23v-4.27h.68v4.27zm.38-2.31c0-.46.09-.83.26-1.12.18-.29.4-.5.68-.64s.57-.21.88-.21v.64q-.375 0-.72.12c-.345.12-.42.22-.57.41s-.22.44-.22.77z" fill="#fffcef" data-color="1"/>
        <path d="M136.7 50.34c-.42 0-.78-.1-1.1-.29a1.97 1.97 0 0 1-.75-.79c-.18-.34-.27-.72-.27-1.16s.09-.83.27-1.16c.18-.34.43-.6.74-.79s.68-.29 1.09-.29.74.1 1.03.29.51.47.67.82.24.77.24 1.25h-3.53l.17-.14c0 .34.06.63.18.88.12.24.29.43.52.56s.47.19.76.19c.3 0 .56-.07.76-.21.21-.14.37-.33.48-.56l.59.3c-.11.22-.25.42-.43.58-.18.17-.39.29-.63.38s-.51.14-.81.14Zm-1.39-2.55-.18-.14h2.95l-.18.14c0-.27-.05-.51-.16-.71s-.25-.35-.44-.46c-.18-.11-.39-.16-.63-.16s-.45.05-.66.16-.38.26-.5.46c-.13.2-.19.43-.19.7Z" fill="#fffcef" data-color="1"/>
        <path d="M141.22 50.34c-.42 0-.79-.1-1.12-.29s-.58-.45-.76-.79-.27-.72-.27-1.16.09-.83.27-1.16c.18-.34.43-.6.75-.79s.69-.29 1.11-.29.78.09 1.1.28.57.45.74.79l-.62.28c-.11-.23-.28-.41-.5-.53s-.46-.19-.74-.19-.53.07-.74.21-.38.33-.5.57-.18.52-.18.83.06.59.18.83q.18.36.51.57t.75.21c.42 0 .53-.07.75-.21s.39-.34.5-.6l.62.28a1.98 1.98 0 0 1-1.85 1.16" fill="#fffcef" data-color="1"/>
        <path d="M145.66 50.34c-.42 0-.79-.1-1.11-.29a1.97 1.97 0 0 1-.75-.79c-.18-.34-.27-.72-.27-1.16s.09-.83.27-1.16c.18-.34.43-.6.75-.79s.69-.29 1.1-.29.78.1 1.11.29.57.45.75.79c.18.33.27.72.27 1.16s-.09.83-.27 1.16c-.18.34-.43.6-.75.79s-.68.29-1.09.29Zm-.01-.64c.28 0 .53-.07.74-.21s.38-.33.5-.57.18-.52.18-.83-.06-.59-.18-.83q-.18-.36-.51-.57t-.75-.21c-.42 0-.53.07-.74.21s-.38.32-.5.56q-.18.36-.18.84c0 .48.06.59.18.83q.18.36.51.57t.75.21" fill="#fffcef" data-color="1"/>
        <path d="M148.54 50.23v-4.27h.64l.03.6c.13-.23.3-.4.5-.52s.44-.18.72-.18c.34 0 .63.08.88.24.24.16.42.4.52.73.12-.31.29-.55.53-.72s.5-.25.82-.25c.48 0 .85.16 1.13.48s.41.8.41 1.45v2.44h-.68v-2.18c0-.42-.04-.74-.13-.96s-.21-.37-.35-.46q-.225-.12-.51-.12c-.34 0-.6.13-.79.4-.19.26-.28.64-.28 1.12v2.21h-.68v-2.18c0-.42-.04-.74-.13-.96s-.21-.37-.36-.46a1.1 1.1 0 0 0-.52-.12.9.9 0 0 0-.78.4c-.19.26-.28.64-.28 1.12v2.21h-.68Z" fill="#fffcef" data-color="1"/>
        <path d="M157.5 50.34c-.42 0-.78-.1-1.1-.29a1.97 1.97 0 0 1-.75-.79c-.18-.34-.27-.72-.27-1.16s.09-.83.27-1.16c.18-.34.43-.6.74-.79s.68-.29 1.09-.29.74.1 1.03.29.51.47.67.82.24.77.24 1.25h-3.53l.17-.14c0 .34.06.63.18.88.12.24.29.43.52.56s.47.19.76.19c.3 0 .56-.07.76-.21.21-.14.37-.33.48-.56l.59.3c-.11.22-.25.42-.43.58-.18.17-.39.29-.63.38s-.51.14-.81.14Zm-1.38-2.55-.18-.14h2.95l-.18.14c0-.27-.05-.51-.16-.71s-.25-.35-.44-.46c-.18-.11-.39-.16-.63-.16s-.45.05-.66.16-.38.26-.5.46c-.13.2-.19.43-.19.7Z" fill="#fffcef" data-color="1"/>
        <path d="M160.12 50.23v-4.27h.64l.04.79v3.48zm3-2.18c0-.42-.05-.74-.14-.96s-.23-.37-.4-.46c-.17-.08-.36-.12-.58-.12-.38 0-.67.13-.88.4s-.31.64-.31 1.12h-.33c0-.45.07-.84.2-1.16s.32-.57.57-.74.55-.26.9-.26.63.07.88.2.44.35.58.64.21.67.2 1.14v.21h-.68Zm0 2.18v-2.18h.68v2.18z" fill="#fffcef" data-color="1"/>
        <path d="M166.4 50.34c-.38 0-.72-.09-1.01-.28s-.52-.45-.68-.79-.24-.73-.24-1.17.08-.83.24-1.17.39-.6.68-.79.63-.28 1.01-.28c.36 0 .67.09.94.28s.48.45.63.79.22.73.22 1.17-.07.83-.22 1.17-.36.6-.63.79-.58.28-.94.28m.15-.63c.25 0 .47-.07.67-.21s.35-.33.46-.57c.11-.25.17-.52.17-.84s-.05-.59-.17-.84c-.11-.25-.26-.44-.46-.57s-.42-.21-.67-.21-.5.07-.71.21-.37.33-.49.57q-.18.36-.18.84c0 .48.06.59.18.84.12.24.28.43.5.57q.315.21.72.21Zm1.32.52-.03-.79v-5.18h.68v5.97z" fill="#fffcef" data-color="1"/>
        <path d="M170.9 50.34c-.5 0-.89-.12-1.17-.35s-.42-.55-.42-.96c0-.43.14-.76.43-.99s.69-.35 1.21-.35h1.22v.57h-1.07c-.4 0-.68.07-.85.2s-.25.32-.25.56c0 .22.08.4.25.52.17.13.4.19.69.19.24 0 .46-.05.64-.16.18-.1.32-.26.42-.45s.15-.43.15-.7h.29c0 .58-.13 1.04-.39 1.39-.26.34-.64.52-1.14.52Zm1.28-.11-.03-.7v-1.55c0-.34-.04-.61-.11-.83a.93.93 0 0 0-.35-.5 1.1 1.1 0 0 0-.62-.17c-.23 0-.43.05-.6.14s-.31.24-.41.45l-.62-.24c.11-.2.24-.37.39-.52.15-.14.33-.26.54-.33.21-.08.44-.12.7-.12q.6 0 .99.24c.39.24.45.39.58.69s.19.68.19 1.13v2.31h-.64Z" fill="#fffcef" data-color="1"/>
        <path d="M175.41 50.34c-.38 0-.72-.09-1.01-.28s-.52-.45-.68-.79-.24-.73-.24-1.17.08-.83.24-1.17.39-.6.68-.79.63-.28 1.01-.28c.36 0 .67.09.94.28s.48.45.63.79.22.73.22 1.17-.07.83-.22 1.17-.36.6-.63.79-.58.28-.94.28m.15-.63c.25 0 .47-.07.67-.21s.35-.33.46-.57c.11-.25.17-.52.17-.84s-.05-.59-.17-.84c-.11-.25-.26-.44-.46-.57s-.42-.21-.67-.21-.5.07-.71.21-.37.33-.49.57q-.18.36-.18.84c0 .48.06.59.18.84.12.24.28.43.5.57q.315.21.72.21Zm1.33.52-.03-.79v-5.18h.68v5.97z" fill="#fffcef" data-color="1"/>
        <path d="M179.91 50.34c-.5 0-.89-.12-1.17-.35s-.42-.55-.42-.96c0-.43.14-.76.43-.99s.69-.35 1.21-.35h1.22v.57h-1.07c-.4 0-.68.07-.85.2s-.25.32-.25.56c0 .22.08.4.25.52.17.13.4.19.69.19.24 0 .46-.05.64-.16.18-.1.32-.26.42-.45s.15-.43.15-.7h.29c0 .58-.13 1.04-.39 1.39-.26.34-.64.52-1.14.52Zm1.28-.11-.03-.7v-1.55c0-.34-.04-.61-.11-.83a.93.93 0 0 0-.35-.5 1.1 1.1 0 0 0-.62-.17c-.23 0-.43.05-.6.14s-.31.24-.41.45l-.62-.24c.11-.2.24-.37.39-.52.15-.14.33-.26.54-.33.21-.08.44-.12.7-.12q.6 0 .99.24c.39.24.45.39.58.69s.19.68.19 1.13v2.31h-.64Z" fill="#fffcef" data-color="1"/>
        <path d="M184.23 50.34c-.31 0-.59-.05-.82-.14s-.43-.22-.58-.37a1.35 1.35 0 0 1-.34-.5l.6-.25a1.22 1.22 0 0 0 1.08.65c.27 0 .49-.05.67-.16s.27-.25.27-.45c0-.18-.07-.32-.2-.43s-.33-.2-.59-.26l-.41-.11c-.39-.1-.69-.26-.9-.47-.22-.21-.32-.44-.32-.7 0-.4.13-.72.4-.94.26-.23.66-.34 1.18-.34.25 0 .48.04.68.11s.38.18.53.31.26.29.33.47l-.6.26a.77.77 0 0 0-.37-.42 1.3 1.3 0 0 0-.62-.13c-.26 0-.47.05-.61.17-.15.11-.22.27-.22.46 0 .11.06.22.18.32q.18.15.54.24l.43.11c.28.07.51.17.7.3s.33.29.43.46.15.35.15.55c0 .26-.07.48-.21.67s-.32.33-.55.43-.5.15-.8.15Z" fill="#fffcef" data-color="1"/>
        <path d="M190.39 50.34c-.42 0-.79-.1-1.12-.29s-.58-.45-.76-.79-.27-.72-.27-1.16.09-.83.27-1.16c.18-.34.43-.6.75-.79s.69-.29 1.11-.29.78.09 1.1.28.57.45.74.79l-.62.28c-.11-.23-.28-.41-.5-.53s-.46-.19-.74-.19-.53.07-.74.21-.38.33-.5.57-.18.52-.18.83.06.59.18.83q.18.36.51.57t.75.21c.42 0 .53-.07.75-.21s.39-.34.5-.6l.62.28a1.98 1.98 0 0 1-1.85 1.16" fill="#fffcef" data-color="1"/>
        <path d="M194.83 50.34c-.42 0-.79-.1-1.11-.29a1.97 1.97 0 0 1-.75-.79c-.18-.34-.27-.72-.27-1.16s.09-.83.27-1.16c.18-.34.43-.6.75-.79s.69-.29 1.1-.29.78.1 1.11.29.57.45.75.79c.18.33.27.72.27 1.16s-.09.83-.27 1.16c-.18.34-.43.6-.75.79s-.68.29-1.09.29Zm-.01-.64c.28 0 .53-.07.74-.21s.38-.33.5-.57.18-.52.18-.83-.06-.59-.18-.83q-.18-.36-.51-.57t-.75-.21c-.42 0-.53.07-.74.21s-.38.32-.5.56q-.18.36-.18.84c0 .48.06.59.18.83q.18.36.51.57t.75.21" fill="#fffcef" data-color="1"/>
        <path d="M197.71 50.23v-4.27h.64l.04.79v3.48zm3-2.18c0-.42-.05-.74-.14-.96s-.23-.37-.4-.46c-.17-.08-.36-.12-.58-.12-.38 0-.67.13-.88.4s-.31.64-.31 1.12h-.33c0-.45.07-.84.2-1.16s.32-.57.57-.74.55-.26.9-.26.63.07.88.2.44.35.58.64.21.67.2 1.14v.21h-.68Zm0 2.18v-2.18h.68v2.18z" fill="#fffcef" data-color="1"/>
        <path d="M201.86 46.57v-.61h2.71v.61zm2.05 3.77c-.42 0-.74-.11-.96-.32-.23-.22-.34-.52-.34-.91v-4.46h.68v4.4c0 .22.06.38.17.5.12.12.28.17.49.17.07 0 .14 0 .2-.03a1 1 0 0 0 .26-.15l.26.55c-.15.1-.28.16-.4.2s-.24.06-.37.06Z" fill="#fffcef" data-color="1"/>
        <path d="M205.36 50.23v-4.27h.68v4.27zm.37-2.31c0-.46.09-.83.26-1.12.18-.29.4-.5.68-.64s.57-.21.88-.21v.64q-.375 0-.72.12c-.345.12-.42.22-.57.41s-.22.44-.22.77z" fill="#fffcef" data-color="1"/>
        <path d="M208.46 44.98a.4.4 0 0 1-.3-.13c-.08-.08-.13-.18-.13-.3s.04-.22.13-.3q.12-.12.3-.12c.18 0 .22.04.3.12q.12.12.12.3c0 .18-.04.21-.12.3a.38.38 0 0 1-.3.13m-.35 5.25v-4.27h.68v4.27z" fill="#fffcef" data-color="1"/>
        <path d="M209.88 50.23v-5.97h.68v5.18l-.03.79zm2.13.11c-.36 0-.67-.09-.94-.28a1.85 1.85 0 0 1-.63-.79c-.15-.34-.22-.73-.22-1.17s.07-.83.22-1.17.36-.6.63-.79.58-.28.94-.28c.38 0 .72.09 1.01.28s.52.45.68.79.24.73.24 1.17-.08.83-.24 1.17-.39.6-.68.79-.63.28-1.01.28m-.16-.63c.27 0 .5-.07.71-.21s.37-.33.5-.57.18-.52.18-.84-.06-.59-.17-.84c-.12-.25-.28-.44-.49-.57q-.315-.21-.72-.21c-.25 0-.47.07-.67.21s-.35.33-.46.57-.17.52-.17.84.06.59.17.84c.11.24.26.43.46.57s.42.21.67.21Z" fill="#fffcef" data-color="1"/>
        <path d="M214.6 48.15v-2.19h.68v2.19zm.68 0q0 .63.15.96c.15.33.23.37.41.46.17.08.37.12.58.12.37 0 .66-.13.87-.4s.31-.64.31-1.12h.33c0 .45-.07.84-.2 1.16s-.32.57-.57.74-.55.26-.91.26c-.33 0-.62-.07-.87-.2s-.44-.35-.58-.64-.21-.67-.21-1.14v-.2h.68Zm2.36 2.08-.04-.79v-3.48h.68v4.27z" fill="#fffcef" data-color="1"/>
        <path d="M219.7 44.98a.4.4 0 0 1-.3-.13c-.08-.08-.13-.18-.13-.3s.04-.22.13-.3q.12-.12.3-.12c.18 0 .22.04.3.12q.12.12.12.3c0 .18-.04.21-.12.3a.38.38 0 0 1-.3.13m-.35 5.25v-4.27h.68v4.27z" fill="#fffcef" data-color="1"/>
        <path d="M68.61 61.58v-5.97h.64l.04.79v5.19h-.68Zm2.13-1.6c-.36 0-.67-.09-.94-.28a1.85 1.85 0 0 1-.63-.79c-.15-.34-.22-.73-.22-1.17s.07-.83.22-1.17.36-.6.63-.79.58-.28.94-.28c.38 0 .72.09 1.01.28s.52.45.68.79.24.73.24 1.17-.08.83-.24 1.17-.39.6-.68.79-.63.28-1.01.28m-.15-.62c.27 0 .5-.07.71-.21s.37-.33.5-.57.18-.52.18-.84-.06-.59-.17-.84c-.12-.25-.28-.44-.49-.57q-.315-.21-.72-.21c-.25 0-.47.07-.67.21s-.35.33-.46.57-.17.52-.17.84.05.59.17.84c.11.24.26.43.46.57.19.14.42.21.67.21Z" fill="#fffcef" data-color="1"/>
        <path d="M74.96 59.98c-.5 0-.89-.12-1.17-.35s-.42-.55-.42-.96c0-.43.14-.76.43-.99s.69-.35 1.21-.35h1.22v.57h-1.07c-.4 0-.68.07-.85.2s-.25.32-.25.56c0 .22.08.4.25.52.17.13.4.19.69.19.24 0 .46-.05.64-.16.18-.1.32-.26.42-.45s.15-.43.15-.7h.29c0 .58-.13 1.04-.39 1.39-.26.34-.64.52-1.14.52Zm1.29-.1-.03-.7v-1.55c0-.34-.04-.61-.11-.83a.93.93 0 0 0-.35-.5 1.1 1.1 0 0 0-.62-.17c-.23 0-.43.05-.6.14s-.31.24-.41.45l-.62-.24c.11-.2.24-.37.39-.52.15-.14.33-.26.54-.33.21-.08.44-.12.7-.12q.6 0 .99.24c.39.24.45.39.58.69s.19.68.19 1.13v2.31h-.64Z" fill="#fffcef" data-color="1"/>
        <path d="M77.97 59.88v-4.27h.68v4.27zm.37-2.31c0-.46.09-.83.26-1.12.18-.29.4-.5.68-.64s.57-.21.88-.21v.64q-.375 0-.72.12c-.345.12-.42.22-.57.41s-.22.44-.22.77z" fill="#fffcef" data-color="1"/>
        <path d="M82.2 59.98c-.5 0-.89-.12-1.17-.35s-.42-.55-.42-.96c0-.43.14-.76.43-.99s.69-.35 1.21-.35h1.22v.57H82.4c-.4 0-.68.07-.85.2s-.25.32-.25.56c0 .22.08.4.25.52.17.13.4.19.69.19.24 0 .46-.05.64-.16.18-.1.32-.26.42-.45s.15-.43.15-.7h.29c0 .58-.13 1.04-.39 1.39-.26.34-.64.52-1.14.52Zm1.28-.1-.03-.7v-1.55c0-.34-.04-.61-.11-.83a.93.93 0 0 0-.35-.5 1.1 1.1 0 0 0-.62-.17c-.23 0-.43.05-.6.14s-.31.24-.41.45l-.62-.24c.11-.2.24-.37.39-.52.15-.14.33-.26.54-.33.21-.08.44-.12.7-.12q.6 0 .99.24c.39.24.45.39.58.69s.19.68.19 1.13v2.31h-.64Z" fill="#fffcef" data-color="1"/>
        <path d="M87.2 57.8v-2.19h.68v2.19zm.69 0q0 .63.15.96c.15.33.23.37.41.46.17.08.37.12.58.12.37 0 .66-.13.87-.4s.31-.64.31-1.12h.33c0 .45-.07.84-.2 1.16s-.32.57-.57.74-.55.26-.91.26c-.33 0-.62-.07-.87-.2s-.44-.35-.58-.64-.21-.67-.21-1.14v-.2h.68Zm2.35 2.08-.04-.79v-3.48h.68v4.27z" fill="#fffcef" data-color="1"/>
        <path d="M92.08 59.88v-4.27h.64l.03.6c.13-.23.3-.4.5-.52s.44-.18.72-.18c.34 0 .63.08.88.24.24.16.42.4.52.73.12-.31.29-.55.53-.72s.5-.25.82-.25c.48 0 .85.16 1.13.48s.41.8.41 1.45v2.44h-.68V57.7c0-.42-.04-.74-.13-.96s-.21-.37-.35-.46q-.225-.12-.51-.12c-.34 0-.6.13-.79.4-.19.26-.28.64-.28 1.12v2.21h-.68v-2.18c0-.42-.04-.74-.13-.96s-.21-.37-.36-.46a1.1 1.1 0 0 0-.52-.12.9.9 0 0 0-.78.4c-.19.26-.28.64-.28 1.12v2.21h-.68Z" fill="#fffcef" data-color="1"/>
        <path d="M100.69 59.98c-.5 0-.89-.12-1.17-.35s-.42-.55-.42-.96c0-.43.14-.76.43-.99s.69-.35 1.21-.35h1.22v.57h-1.07c-.4 0-.68.07-.85.2s-.25.32-.25.56c0 .22.08.4.25.52.17.13.4.19.69.19.24 0 .46-.05.64-.16.18-.1.32-.26.42-.45s.15-.43.15-.7h.29c0 .58-.13 1.04-.39 1.39-.26.34-.64.52-1.14.52Zm1.28-.1-.03-.7v-1.55c0-.34-.04-.61-.11-.83a.93.93 0 0 0-.35-.5 1.1 1.1 0 0 0-.62-.17c-.23 0-.43.05-.6.14s-.31.24-.41.45l-.62-.24c.11-.2.24-.37.39-.52.15-.14.33-.26.54-.33.21-.08.44-.12.7-.12q.6 0 .99.24c.39.24.45.39.58.69s.19.68.19 1.13v2.31h-.64Z" fill="#fffcef" data-color="1"/>
        <path d="m107.06 59.88-1.78-4.27h.71l1.74 4.27zm.05 0 1.74-4.27h.72l-1.78 4.27h-.67Z" fill="#fffcef" data-color="1"/>
        <path d="M110.63 54.62a.4.4 0 0 1-.3-.13c-.08-.08-.13-.18-.13-.3s.04-.22.13-.3q.12-.12.3-.12c.18 0 .22.04.3.12q.12.12.12.3c0 .18-.04.21-.12.3a.38.38 0 0 1-.3.13m-.35 5.26v-4.27h.68v4.27z" fill="#fffcef" data-color="1"/>
        <path d="M113.9 59.98c-.38 0-.72-.09-1.01-.28s-.52-.45-.68-.79-.24-.73-.24-1.17.08-.83.24-1.17.39-.6.68-.79.63-.28 1.01-.28c.36 0 .67.09.94.28s.48.45.63.79.22.73.22 1.17-.07.83-.22 1.17-.36.6-.63.79-.58.28-.94.28m.15-.62c.25 0 .47-.07.67-.21s.35-.33.46-.57c.11-.25.17-.52.17-.84s-.05-.59-.17-.84c-.11-.25-.26-.44-.46-.57s-.42-.21-.67-.21-.5.07-.71.21-.37.33-.49.57q-.18.36-.18.84c0 .48.06.59.18.84.12.24.28.43.5.57q.315.21.72.21Zm1.33.52-.03-.79v-5.18h.68v5.97z" fill="#fffcef" data-color="1"/>
        <path d="M118.57 59.98c-.5 0-.89-.12-1.17-.35s-.42-.55-.42-.96c0-.43.14-.76.43-.99s.69-.35 1.21-.35h1.22v.57h-1.07c-.4 0-.68.07-.85.2s-.25.32-.25.56c0 .22.08.4.25.52.17.13.4.19.69.19.24 0 .46-.05.64-.16.18-.1.32-.26.42-.45s.15-.43.15-.7h.29c0 .58-.13 1.04-.39 1.39-.26.34-.64.52-1.14.52Zm1.28-.1-.03-.7v-1.55c0-.34-.04-.61-.11-.83a.93.93 0 0 0-.35-.5 1.1 1.1 0 0 0-.62-.17c-.23 0-.43.05-.6.14s-.31.24-.41.45l-.62-.24c.11-.2.24-.37.39-.52.15-.14.33-.26.54-.33.21-.08.44-.12.7-.12q.6 0 .99.24c.39.24.45.39.58.69s.19.68.19 1.13v2.31h-.64Z" fill="#fffcef" data-color="1"/>
        <path d="M123.68 59.88v-4.27h.64l.03.6c.13-.23.3-.4.5-.52s.44-.18.72-.18c.34 0 .63.08.88.24.24.16.42.4.52.73.12-.31.29-.55.53-.72s.5-.25.82-.25c.48 0 .85.16 1.13.48s.41.8.41 1.45v2.44h-.68V57.7c0-.42-.04-.74-.13-.96s-.21-.37-.35-.46q-.225-.12-.51-.12c-.34 0-.6.13-.79.4-.19.26-.28.64-.28 1.12v2.21h-.68v-2.18c0-.42-.04-.74-.13-.96s-.21-.37-.36-.46a1.1 1.1 0 0 0-.52-.12.9.9 0 0 0-.78.4c-.19.26-.28.64-.28 1.12v2.21h-.68Z" fill="#fffcef" data-color="1"/>
        <path d="M132.29 59.98c-.5 0-.89-.12-1.17-.35s-.42-.55-.42-.96c0-.43.14-.76.43-.99s.69-.35 1.21-.35h1.22v.57h-1.07c-.4 0-.68.07-.85.2s-.25.32-.25.56c0 .22.08.4.25.52.17.13.4.19.69.19.24 0 .46-.05.64-.16.18-.1.32-.26.42-.45s.15-.43.15-.7h.29c0 .58-.13 1.04-.39 1.39-.26.34-.64.52-1.14.52Zm1.28-.1-.03-.7v-1.55c0-.34-.04-.61-.11-.83a.93.93 0 0 0-.35-.5 1.1 1.1 0 0 0-.62-.17c-.23 0-.43.05-.6.14s-.31.24-.41.45l-.62-.24c.11-.2.24-.37.39-.52.15-.14.33-.26.54-.33.21-.08.44-.12.7-.12q.6 0 .99.24c.39.24.45.39.58.69s.19.68.19 1.13v2.31h-.64Z" fill="#fffcef" data-color="1"/>
        <path d="M135.69 54.62a.4.4 0 0 1-.3-.13c-.08-.08-.13-.18-.13-.3s.04-.22.13-.3q.12-.12.3-.12c.18 0 .22.04.3.12q.12.12.12.3c0 .18-.04.21-.12.3a.38.38 0 0 1-.3.13m-.35 5.26v-4.27h.68v4.27z" fill="#fffcef" data-color="1"/>
        <path d="M138.77 59.98c-.31 0-.59-.05-.82-.14s-.43-.22-.58-.37a1.35 1.35 0 0 1-.34-.5l.6-.25a1.22 1.22 0 0 0 1.08.65c.27 0 .49-.05.67-.16s.27-.25.27-.45c0-.18-.07-.32-.2-.43s-.33-.2-.59-.26l-.41-.11c-.39-.1-.69-.26-.9-.47-.22-.21-.32-.44-.32-.7 0-.4.13-.72.4-.94.26-.23.66-.34 1.18-.34.25 0 .48.04.68.11s.38.18.53.31.26.29.33.47l-.6.26a.77.77 0 0 0-.37-.42 1.3 1.3 0 0 0-.62-.13c-.26 0-.47.05-.61.17-.15.11-.22.27-.22.46 0 .11.06.22.18.32q.18.15.54.24l.43.11c.28.07.51.17.7.3s.33.29.43.46.15.35.15.55c0 .26-.07.48-.21.67s-.32.33-.55.43-.5.15-.8.15Z" fill="#fffcef" data-color="1"/>
        <path d="M144.86 59.98c-.31 0-.59-.05-.82-.14s-.43-.22-.58-.37a1.35 1.35 0 0 1-.34-.5l.6-.25a1.22 1.22 0 0 0 1.08.65c.27 0 .49-.05.67-.16s.27-.25.27-.45c0-.18-.07-.32-.2-.43s-.33-.2-.59-.26l-.41-.11c-.39-.1-.69-.26-.9-.47-.22-.21-.32-.44-.32-.7 0-.4.13-.72.4-.94.26-.23.66-.34 1.18-.34.25 0 .48.04.68.11s.38.18.53.31.26.29.33.47l-.6.26a.77.77 0 0 0-.37-.42 1.3 1.3 0 0 0-.62-.13c-.26 0-.47.05-.61.17-.15.11-.22.27-.22.46 0 .11.06.22.18.32q.18.15.54.24l.43.11c.28.07.51.17.7.3s.33.29.43.46.15.35.15.55c0 .26-.07.48-.21.67s-.32.33-.55.43-.5.15-.8.15Z" fill="#fffcef" data-color="1"/>
        <path d="M148.69 59.98c-.5 0-.89-.12-1.17-.35s-.42-.55-.42-.96c0-.43.14-.76.43-.99s.69-.35 1.21-.35h1.22v.57h-1.07c-.4 0-.68.07-.85.2s-.25.32-.25.56c0 .22.08.4.25.52.17.13.4.19.69.19.24 0 .46-.05.64-.16.18-.1.32-.26.42-.45s.15-.43.15-.7h.29c0 .58-.13 1.04-.39 1.39-.26.34-.64.52-1.14.52Zm1.28-.1-.03-.7v-1.55c0-.34-.04-.61-.11-.83a.93.93 0 0 0-.35-.5 1.1 1.1 0 0 0-.62-.17c-.23 0-.43.05-.6.14s-.31.24-.41.45l-.62-.24c.11-.2.24-.37.39-.52.15-.14.33-.26.54-.33.21-.08.44-.12.7-.12q.6 0 .99.24c.39.24.45.39.58.69s.19.68.19 1.13v2.31h-.64Z" fill="#fffcef" data-color="1"/>
        <path d="M151.58 57.8v-2.19h.68v2.19zm.68 0q0 .63.15.96c.15.33.23.37.41.46.17.08.37.12.58.12.37 0 .66-.13.87-.4s.31-.64.31-1.12h.33c0 .45-.07.84-.2 1.16s-.32.57-.57.74-.55.26-.91.26c-.33 0-.62-.07-.87-.2s-.44-.35-.58-.64-.21-.67-.21-1.14v-.2h.68Zm2.36 2.08-.04-.79v-3.48h.68v4.27z" fill="#fffcef" data-color="1"/>
        <path d="M158.14 59.98c-.38 0-.72-.09-1.01-.28s-.52-.45-.68-.79-.24-.73-.24-1.17.08-.83.24-1.17.39-.6.68-.79.63-.28 1.01-.28c.36 0 .67.09.94.28s.48.45.63.79.22.73.22 1.17-.07.83-.22 1.17-.36.6-.63.79-.58.28-.94.28m.15-.62c.25 0 .47-.07.67-.21s.35-.33.46-.57c.11-.25.17-.52.17-.84s-.05-.59-.17-.84c-.11-.25-.26-.44-.46-.57s-.42-.21-.67-.21-.5.07-.71.21-.37.33-.49.57q-.18.36-.18.84c0 .48.06.59.18.84.12.24.28.43.5.57q.315.21.72.21Zm1.32.52-.03-.79v-5.18h.68v5.97z" fill="#fffcef" data-color="1"/>
        <path d="M162.8 59.98c-.5 0-.89-.12-1.17-.35s-.42-.55-.42-.96c0-.43.14-.76.43-.99s.69-.35 1.21-.35h1.22v.57H163c-.4 0-.68.07-.85.2s-.25.32-.25.56c0 .22.08.4.25.52.17.13.4.19.69.19.24 0 .46-.05.64-.16.18-.1.32-.26.42-.45s.15-.43.15-.7h.29c0 .58-.13 1.04-.39 1.39-.26.34-.64.52-1.14.52Zm1.28-.1-.03-.7v-1.55c0-.34-.04-.61-.11-.83a.93.93 0 0 0-.35-.5 1.1 1.1 0 0 0-.62-.17c-.23 0-.43.05-.6.14s-.31.24-.41.45l-.62-.24c.11-.2.24-.37.39-.52.15-.14.33-.26.54-.33.21-.08.44-.12.7-.12q.6 0 .99.24c.39.24.45.39.58.69s.19.68.19 1.13v2.31h-.64ZM162.43 55l1-1.1h.88l-1.1 1.1z" fill="#fffcef" data-color="1"/>
        <path d="m166.99 59.88-1.78-4.27h.71l1.74 4.27zm.05 0 1.74-4.27h.72l-1.78 4.27h-.67Z" fill="#fffcef" data-color="1"/>
        <path d="M171.94 59.98c-.42 0-.78-.1-1.1-.29a1.97 1.97 0 0 1-.75-.79c-.18-.34-.27-.72-.27-1.16s.09-.83.27-1.16c.18-.34.43-.6.74-.79s.68-.29 1.09-.29.74.1 1.03.29.51.47.67.82.24.77.24 1.25h-3.53l.17-.14c0 .34.06.63.18.88.12.24.29.43.52.56s.47.19.76.19c.3 0 .56-.07.76-.21.21-.14.37-.33.48-.56l.59.3c-.11.22-.25.42-.43.58-.18.17-.39.29-.63.38s-.51.14-.81.14Zm-1.39-2.54-.18-.14h2.95l-.18.14c0-.27-.05-.51-.16-.71s-.25-.35-.44-.46c-.18-.11-.39-.16-.63-.16s-.45.05-.66.16-.38.26-.5.46c-.13.2-.19.43-.19.7Z" fill="#fffcef" data-color="1"/>
        <path d="M174.73 59.88v-5.97h.68v5.97z" fill="#fffcef" data-color="1"/>
        <path d="M180.58 59.98c-.42 0-.78-.1-1.1-.29a1.97 1.97 0 0 1-.75-.79c-.18-.34-.27-.72-.27-1.16s.09-.83.27-1.16c.18-.34.43-.6.74-.79s.68-.29 1.09-.29.74.1 1.03.29.51.47.67.82.24.77.24 1.25h-3.53l.17-.14c0 .34.06.63.18.88.12.24.29.43.52.56s.47.19.76.19c.3 0 .56-.07.76-.21.21-.14.37-.33.48-.56l.59.3c-.11.22-.25.42-.43.58-.18.17-.39.29-.63.38s-.51.14-.81.14Zm-1.38-2.54-.18-.14h2.95l-.18.14c0-.27-.05-.51-.16-.71s-.25-.35-.44-.46c-.18-.11-.39-.16-.63-.16s-.45.05-.66.16-.38.26-.5.46c-.13.2-.19.43-.19.7Z" fill="#fffcef" data-color="1"/>
        <path d="M187.35 59.98c-.42 0-.78-.1-1.1-.29a1.97 1.97 0 0 1-.75-.79c-.18-.34-.27-.72-.27-1.16s.09-.83.27-1.16c.18-.34.43-.6.74-.79s.68-.29 1.09-.29.74.1 1.03.29.51.47.67.82.24.77.24 1.25h-3.53l.17-.14c0 .34.06.63.18.88.12.24.29.43.52.56s.47.19.76.19c.3 0 .56-.07.76-.21.21-.14.37-.33.48-.56l.59.3c-.11.22-.25.42-.43.58-.18.17-.39.29-.63.38s-.51.14-.81.14Zm-1.38-2.54-.18-.14h2.95l-.18.14c0-.27-.05-.51-.16-.71s-.25-.35-.44-.46c-.18-.11-.39-.16-.63-.16s-.45.05-.66.16-.38.26-.5.46c-.13.2-.19.43-.19.7Z" fill="#fffcef" data-color="1"/>
        <path d="M191.82 59.98c-.38 0-.72-.09-1.01-.28s-.52-.45-.68-.79-.24-.73-.24-1.17.08-.83.24-1.17.39-.6.68-.79.63-.28 1.01-.28c.36 0 .67.09.94.28s.48.45.63.79.22.73.22 1.17-.07.83-.22 1.17-.36.6-.63.79-.58.28-.94.28m.16-.62c.25 0 .47-.07.67-.21s.35-.33.46-.57c.11-.25.17-.52.17-.84s-.05-.59-.17-.84c-.11-.25-.26-.44-.46-.57s-.42-.21-.67-.21-.5.07-.71.21-.37.33-.49.57q-.18.36-.18.84c0 .48.06.59.18.84.12.24.28.43.5.57q.315.21.72.21Zm1.28 2.22V56.4l.03-.79h.65v5.97z" fill="#fffcef" data-color="1"/>
        <path d="M194.96 57.8v-2.19h.68v2.19zm.69 0q0 .63.15.96c.15.33.23.37.41.46.17.08.37.12.58.12.37 0 .66-.13.87-.4s.31-.64.31-1.12h.33c0 .45-.07.84-.2 1.16s-.32.57-.57.74-.55.26-.91.26c-.33 0-.62-.07-.87-.2s-.44-.35-.58-.64-.21-.67-.21-1.14v-.2h.68Zm2.35 2.08-.04-.79v-3.48h.68v4.27z" fill="#fffcef" data-color="1"/>
        <path d="M200.23 54.62a.4.4 0 0 1-.3-.13c-.08-.08-.13-.18-.13-.3s.04-.22.13-.3q.12-.12.3-.12c.18 0 .22.04.3.12q.12.12.12.3c0 .18-.04.21-.12.3a.38.38 0 0 1-.3.13m-.35 5.26v-4.27h.68v4.27z" fill="#fffcef" data-color="1"/>
        <path d="M201.82 59.88v-5.97h.68v5.97z" fill="#fffcef" data-color="1"/>
        <path d="M204.09 54.62a.4.4 0 0 1-.3-.13c-.08-.08-.13-.18-.13-.3s.04-.22.13-.3q.12-.12.3-.12c.18 0 .22.04.3.12q.12.12.12.3c0 .18-.04.21-.12.3a.38.38 0 0 1-.3.13m-.35 5.26v-4.27h.68v4.27z" fill="#fffcef" data-color="1"/>
        <path d="M205.68 59.88v-5.97h.68v5.18l-.03.79zm2.12.1c-.36 0-.67-.09-.94-.28a1.85 1.85 0 0 1-.63-.79c-.15-.34-.22-.73-.22-1.17s.07-.83.22-1.17.36-.6.63-.79.58-.28.94-.28c.38 0 .72.09 1.01.28s.52.45.68.79.24.73.24 1.17-.08.83-.24 1.17-.39.6-.68.79-.63.28-1.01.28m-.15-.62c.27 0 .5-.07.71-.21s.37-.33.5-.57.18-.52.18-.84-.06-.59-.17-.84c-.12-.25-.28-.44-.49-.57q-.315-.21-.72-.21c-.25 0-.47.07-.67.21s-.35.33-.46.57-.17.52-.17.84.06.59.17.84c.11.24.26.43.46.57s.42.21.67.21Z" fill="#fffcef" data-color="1"/>
        <path d="M210.68 59.88v-4.27h.68v4.27zm.37-2.31c0-.46.09-.83.26-1.12.18-.29.4-.5.68-.64s.57-.21.88-.21v.64q-.375 0-.72.12c-.345.12-.42.22-.57.41s-.22.44-.22.77z" fill="#fffcef" data-color="1"/>
        <path d="M214.91 59.98c-.5 0-.89-.12-1.17-.35s-.42-.55-.42-.96c0-.43.14-.76.43-.99s.69-.35 1.21-.35h1.22v.57h-1.07c-.4 0-.68.07-.85.2s-.25.32-.25.56c0 .22.08.4.25.52.17.13.4.19.69.19.24 0 .46-.05.64-.16.18-.1.32-.26.42-.45s.15-.43.15-.7h.29c0 .58-.13 1.04-.39 1.39-.26.34-.64.52-1.14.52Zm1.28-.1-.03-.7v-1.55c0-.34-.04-.61-.11-.83a.93.93 0 0 0-.35-.5 1.1 1.1 0 0 0-.62-.17c-.23 0-.43.05-.6.14s-.31.24-.41.45l-.62-.24c.11-.2.24-.37.39-.52.15-.14.33-.26.54-.33.21-.08.44-.12.7-.12q.6 0 .99.24c.39.24.45.39.58.69s.19.68.19 1.13v2.31h-.64Z" fill="#fffcef" data-color="1"/>
        <path d="M219.59 59.98c-.38 0-.72-.09-1.01-.28s-.52-.45-.68-.79-.24-.73-.24-1.17.08-.83.24-1.17.39-.6.68-.79.63-.28 1.01-.28c.36 0 .67.09.94.28s.48.45.63.79.22.73.22 1.17-.07.83-.22 1.17-.36.6-.63.79-.58.28-.94.28m.16-.62c.25 0 .47-.07.67-.21s.35-.33.46-.57c.11-.25.17-.52.17-.84s-.05-.59-.17-.84c-.11-.25-.26-.44-.46-.57s-.42-.21-.67-.21-.5.07-.71.21-.37.33-.49.57q-.18.36-.18.84c0 .48.06.59.18.84.12.24.28.43.5.57q.315.21.72.21Zm1.32.52-.03-.79v-5.18h.68v5.97z" fill="#fffcef" data-color="1"/>
        <path d="M224.26 59.98c-.5 0-.89-.12-1.17-.35s-.42-.55-.42-.96c0-.43.14-.76.43-.99s.69-.35 1.21-.35h1.22v.57h-1.07c-.4 0-.68.07-.85.2s-.25.32-.25.56c0 .22.08.4.25.52.17.13.4.19.69.19.24 0 .46-.05.64-.16.18-.1.32-.26.42-.45s.15-.43.15-.7h.29c0 .58-.13 1.04-.39 1.39-.26.34-.64.52-1.14.52Zm1.28-.1-.03-.7v-1.55c0-.34-.04-.61-.11-.83a.93.93 0 0 0-.35-.5 1.1 1.1 0 0 0-.62-.17c-.23 0-.43.05-.6.14s-.31.24-.41.45l-.62-.24c.11-.2.24-.37.39-.52.15-.14.33-.26.54-.33.21-.08.44-.12.7-.12q.6 0 .99.24c.39.24.45.39.58.69s.19.68.19 1.13v2.31h-.64Z" fill="#fffcef" data-color="1"/>
        <path d="M227.56 60c-.13 0-.24-.05-.34-.14s-.14-.2-.14-.33.05-.24.14-.34c.09-.09.21-.14.34-.14s.24.05.33.14.14.21.14.34-.05.23-.14.33c-.09.09-.2.14-.33.14" fill="#fffcef" data-color="1"/>
        <path fill="#fffcef" d="M60.51 49.16c0 15.215-12.335 27.55-27.55 27.55S5.41 64.375 5.41 49.16s12.335-27.55 27.55-27.55 27.55 12.335 27.55 27.55" data-color="1"/>
        <path d="M32.59 57.03c-.07 0-.14-.02-.2-.07L18.95 45.9c-.39-.32-.63-.8-.65-1.3-.03-.51.16-1 .52-1.36l7.87-7.92c.36-.36.85-.55 1.36-.53.51.03.98.27 1.3.66l10.99 13.53c.1.13.09.31-.02.42l-7.5 7.55a.3.3 0 0 1-.22.09ZM19.35 45.41l13.22 10.88 7.1-7.14-10.81-13.31a1.157 1.157 0 0 0-1.72-.09l-7.87 7.92c-.24.24-.36.55-.34.89s.17.64.43.85Z" fill="#00578a" data-color="2"/>
        <path d="M33.45 59.15c-.41 0-.8-.16-1.09-.45-.6-.6-.6-1.59 0-2.19l7.53-7.57c.29-.29.68-.45 1.09-.45s.8.16 1.09.45c.6.6.6 1.59 0 2.19l-7.53 7.57c-.29.29-.68.45-1.09.45m7.53-10.04c-.24 0-.47.1-.64.27l-7.53 7.57c-.36.36-.36.94 0 1.3.34.35.94.35 1.29 0l7.53-7.57c.36-.36.36-.94 0-1.3a.9.9 0 0 0-.64-.27Z" fill="#00578a" data-color="2"/>
        <path d="M38.15 60.05c-1.41 0-2.73-.55-3.72-1.55-.12-.12-.12-.32 0-.45s.32-.12.45 0c.88.88 2.04 1.37 3.28 1.37s2.4-.48 3.28-1.37a4.69 4.69 0 0 0 0-6.6c-.12-.12-.12-.32 0-.45s.32-.12.45 0c2.05 2.06 2.05 5.42 0 7.49-.99 1-2.32 1.55-3.72 1.55Z" fill="#00578a" data-color="2"/>
        <path d="M33.71 47.4c-1.72 0-3.25-.37-4.75-.73-2.57-.62-5.24-1.26-8.87-.03a.313.313 0 0 1-.4-.2c-.06-.17.03-.34.2-.4 3.81-1.29 6.56-.63 9.22.01 2.64.64 5.13 1.24 8.58-.01.16-.06.34.03.4.19s-.03.34-.19.4c-1.54.56-2.92.76-4.2.76Z" fill="#00578a" data-color="2"/>
        <path fill="#00578a" d="M42.03 55.81a.32.32 0 1 1-.64 0 .32.32 0 0 1 .64 0" data-color="2"/>
        <path fill="#00578a" d="M44.72 63.23a.32.32 0 1 1-.64 0 .32.32 0 0 1 .64 0" data-color="2"/>
        <path fill="#00578a" d="M46.53 62.73a.32.32 0 1 1-.64 0 .32.32 0 0 1 .64 0" data-color="2"/>
        <path fill="#00578a" d="M47.62 61.19a.32.32 0 1 1-.64 0 .32.32 0 0 1 .64 0" data-color="2"/>
        <path fill="#00578a" d="M46.84 59.63a.32.32 0 1 1-.64 0 .32.32 0 0 1 .64 0" data-color="2"/>
        <path fill="#00578a" d="M45.58 61.36a.32.32 0 1 1-.64 0 .32.32 0 0 1 .64 0" data-color="2"/>
        <path fill="#00578a" d="M43.07 62.75a.32.32 0 1 1-.64 0 .32.32 0 0 1 .64 0" data-color="2"/>
        <path fill="#00578a" d="M43.99 60.99a.32.32 0 1 1-.64 0 .32.32 0 0 1 .64 0" data-color="2"/>
        <path fill="#00578a" d="M45.08 59.46a.32.32 0 1 1-.64 0 .32.32 0 0 1 .64 0" data-color="2"/>
        <path fill="#00578a" d="M44.72 57.87a.32.32 0 1 1-.64 0 .32.32 0 0 1 .64 0" data-color="2"/>
        <path fill="#00578a" d="M43.21 59.47a.32.32 0 1 1-.64 0 .32.32 0 0 1 .64 0" data-color="2"/>
        <path fill="#00578a" d="M41.98 61.06a.32.32 0 1 1-.64 0 .32.32 0 0 1 .64 0" data-color="2"/>
        <path fill="#00578a" d="M39.48 58.3a.32.32 0 1 1-.64 0 .32.32 0 0 1 .64 0" data-color="2"/>
        <path fill="#00578a" d="M41.18 57.49a.32.32 0 1 1-.64 0 .32.32 0 0 1 .64 0" data-color="2"/>
        <path fill="#00578a" d="M40 56.3a.32.32 0 1 1-.64 0 .32.32 0 0 1 .64 0" data-color="2"/>
    </g>
</svg>
