<?xml version="1.0" encoding="UTF-8"?>
<svg data-bbox="-16.11 18.1 282.21 63.26" viewBox="0 0 250 100" xmlns="http://www.w3.org/2000/svg" data-type="color">
    <g>
        <path d="M61.39 32.44c-.41 0-.76-.07-1.06-.21s-.54-.34-.74-.59-.34-.55-.44-.89q-.15-.51-.15-1.11c0-.42.04-.85.13-1.27s.23-.81.43-1.16.47-.63.82-.84c.34-.21.77-.32 1.29-.32.35 0 .68.05.99.14.32.09.6.23.85.41l-.77 1.2c-.18-.12-.37-.2-.58-.25s-.37-.08-.52-.08c-.32 0-.59.15-.81.46-.21.31-.32.81-.32 1.52l-.33-.17c.14-.29.33-.53.59-.71s.56-.27.92-.27c.39 0 .73.1 1.03.29s.54.45.71.78c.17.32.26.68.26 1.08s-.09.72-.28 1.02q-.285.45-.81.72c-.525.27-.76.26-1.25.26Zm.01-1.37c.13 0 .25-.03.35-.1.11-.06.19-.15.25-.26s.09-.23.09-.37-.03-.27-.09-.38a.7.7 0 0 0-.25-.27c-.11-.07-.22-.1-.35-.1s-.25.03-.36.1-.2.16-.26.27c-.07.11-.1.24-.1.38s.03.26.1.37c.06.11.15.2.26.26.11.07.23.1.36.1" fill="#fffcef" data-color="1"/>
        <path d="M68.72 32.44c-.29 0-.57-.04-.85-.12s-.53-.19-.76-.33-.41-.3-.56-.48-.24-.37-.26-.57l1.63-.45c.05.15.14.27.27.38.13.1.3.16.5.17.16 0 .31-.04.44-.13a.43.43 0 0 0 .19-.37c0-.1-.04-.2-.11-.29a.63.63 0 0 0-.35-.2l-.93-.24c-.32-.08-.59-.21-.82-.38s-.4-.38-.52-.63-.18-.52-.18-.83c0-.61.2-1.08.61-1.42.4-.34.97-.51 1.7-.51.39 0 .73.05 1.03.15s.55.26.77.47.39.5.53.84l-1.62.47a.74.74 0 0 0-.23-.35c-.12-.12-.28-.18-.49-.18s-.36.04-.46.13-.16.22-.16.39c0 .11.04.2.13.28s.22.14.38.18l.94.24q.705.18 1.11.69c.26.34.4.74.4 1.18 0 .41-.09.75-.28 1.03s-.45.5-.8.65-.76.22-1.25.22Z" fill="#fffcef" data-color="1"/>
        <path d="M74.41 32.44q-.825 0-1.41-.3c-.585-.3-.7-.49-.91-.86s-.31-.82-.31-1.34v-3.79h1.64v3.79c0 .21.04.38.12.53s.2.26.35.34.33.11.54.11.39-.04.55-.11c.15-.08.27-.19.35-.34s.12-.32.12-.53v-3.79h1.64v3.79c0 .52-.11.97-.32 1.34s-.52.66-.91.86-.88.3-1.44.3Z" fill="#fffcef" data-color="1"/>
        <path d="M78.05 32.33v-6.19h2.56c.47 0 .88.09 1.24.27s.64.44.84.76.3.7.3 1.12-.1.8-.3 1.13-.49.58-.84.77c-.36.19-.77.28-1.24.28h-.93v1.86h-1.64Zm1.63-3.36h.88c.22 0 .41-.06.54-.19.14-.12.21-.29.21-.49s-.07-.35-.21-.48a.8.8 0 0 0-.54-.19h-.88v1.34Z" fill="#fffcef" data-color="1"/>
        <path d="M83.57 32.33v-6.19h4.15v1.5h-2.51v.86h2.03v1.46h-2.03v.87h2.57v1.5z" fill="#fffcef" data-color="1"/>
        <path d="M88.75 32.33v-6.19h2.56c.47 0 .88.09 1.24.27s.64.43.84.74c.2.32.3.68.3 1.09s-.1.78-.3 1.1-.49.57-.84.75-.77.27-1.24.27h-.93v1.96h-1.64Zm1.64-3.47h.84c.15 0 .28-.03.39-.08s.2-.13.26-.22.1-.2.1-.32a.55.55 0 0 0-.21-.44.85.85 0 0 0-.54-.17h-.84zm1.69 3.47L90.7 29.9l1.23-.92 2.02 3.35z" fill="#fffcef" data-color="1"/>
        <path d="M94.62 32.33v-6.19h4.23v1.5h-2.6v.9h2.03v1.5h-2.03v2.28h-1.64Z" fill="#fffcef" data-color="1"/>
        <path d="M102.61 32.44c-.65 0-1.22-.14-1.72-.41s-.89-.65-1.17-1.13q-.42-.72-.42-1.65c0-.93.14-1.18.42-1.66s.67-.86 1.17-1.13 1.06-.41 1.71-.41 1.22.14 1.72.41c.49.27.88.65 1.17 1.13.28.48.42 1.03.42 1.66s-.14 1.17-.42 1.65a3 3 0 0 1-1.16 1.13c-.5.27-1.06.41-1.71.41Zm0-1.51a1.55 1.55 0 0 0 1.41-.82c.13-.25.2-.55.2-.88s-.07-.62-.21-.88-.33-.46-.58-.6c-.24-.14-.53-.22-.84-.22s-.59.07-.84.22c-.24.14-.44.34-.57.6-.14.26-.21.55-.21.88s.07.62.21.88c.14.25.34.45.58.6.24.14.53.22.84.22Z" fill="#fffcef" data-color="1"/>
        <path d="M109.65 32.44c-.65 0-1.22-.14-1.72-.41s-.89-.65-1.17-1.13q-.42-.72-.42-1.65c0-.93.14-1.18.42-1.66s.67-.86 1.17-1.13 1.06-.41 1.71-.41 1.22.14 1.72.41c.49.27.88.65 1.17 1.13.28.48.42 1.03.42 1.66s-.14 1.17-.42 1.65a3 3 0 0 1-1.16 1.13c-.5.27-1.06.41-1.71.41Zm0-1.51a1.55 1.55 0 0 0 1.41-.82c.13-.25.2-.55.2-.88s-.07-.62-.21-.88-.33-.46-.58-.6c-.24-.14-.53-.22-.84-.22s-.59.07-.84.22c-.24.14-.44.34-.57.6-.14.26-.21.55-.21.88s.07.62.21.88c.14.25.34.45.58.6.24.14.53.22.84.22Z" fill="#fffcef" data-color="1"/>
        <path d="M113.69 32.33v-6.19h2.07c.68 0 1.28.13 1.8.4s.93.63 1.22 1.09.44 1 .44 1.61-.15 1.13-.44 1.6-.7.83-1.22 1.1-1.12.4-1.8.4h-2.07Zm1.64-1.55h.43c.26 0 .5-.04.72-.11.22-.08.41-.18.57-.32s.28-.3.37-.49.13-.4.13-.63-.04-.44-.13-.63-.21-.35-.37-.49-.35-.24-.57-.32-.46-.11-.72-.11h-.43v3.09Z" fill="#fffcef" data-color="1"/>
        <path d="M122.15 32.44c-.29 0-.57-.04-.85-.12s-.53-.19-.76-.33-.41-.3-.56-.48-.24-.37-.26-.57l1.63-.45c.05.15.14.27.27.38.13.1.3.16.5.17.16 0 .31-.04.44-.13a.43.43 0 0 0 .19-.37c0-.1-.04-.2-.11-.29a.63.63 0 0 0-.35-.2l-.93-.24c-.32-.08-.59-.21-.82-.38s-.4-.38-.52-.63-.18-.52-.18-.83c0-.61.2-1.08.61-1.42.4-.34.97-.51 1.7-.51.39 0 .73.05 1.03.15s.55.26.77.47.39.5.53.84l-1.62.47a.74.74 0 0 0-.23-.35c-.12-.12-.28-.18-.49-.18s-.36.04-.46.13-.16.22-.16.39c0 .11.04.2.13.28s.22.14.38.18l.94.24q.705.18 1.11.69c.26.34.4.74.4 1.18 0 .41-.09.75-.28 1.03s-.45.5-.8.65-.76.22-1.25.22Z" fill="#fffcef" data-color="1"/>
        <path d="m58.83 42.32 2.52-6.19h.76l-2.48 6.19zm1.19-1.76v-.67h3.44v.67zm3.84 1.76-2.48-6.19h.75l2.52 6.19z" fill="#fffcef" data-color="1"/>
        <path d="M67.59 36.87c-.12 0-.22-.04-.31-.13s-.13-.19-.13-.31.04-.23.13-.31c.09-.09.19-.13.31-.13s.23.04.31.13c.09.09.13.19.13.31s-.04.22-.13.31-.19.13-.31.13m-.36 5.45V37.9h.71v4.42z" fill="#fffcef" data-color="1"/>
        <path d="M69.06 42.32V37.9h.66l.04.81v3.61h-.71Zm3.1-2.26c0-.44-.05-.77-.15-1s-.24-.39-.41-.47a1.3 1.3 0 0 0-.6-.13c-.39 0-.69.14-.91.41s-.32.66-.32 1.16h-.35c0-.47.07-.87.2-1.2.13-.34.33-.59.59-.77s.57-.27.94-.27.65.07.91.21q.39.21.6.66c.14.3.21.7.21 1.19v.21zm0 2.26v-2.26h.71v2.26z" fill="#fffcef" data-color="1"/>
        <path d="M75.78 42.42c-.44 0-.82-.1-1.16-.3s-.6-.47-.79-.82-.28-.75-.28-1.2.09-.85.28-1.2.45-.62.78-.82c.34-.2.72-.3 1.15-.3s.81.1 1.14.29c.34.19.59.47.77.82l-.65.29c-.12-.24-.29-.42-.51-.55s-.48-.2-.77-.2a1.38 1.38 0 0 0-1.28.8c-.12.25-.19.54-.19.86s.06.61.19.86.3.45.53.59.48.21.77.21.55-.07.77-.22c.23-.15.4-.35.52-.62l.64.29c-.18.38-.43.67-.77.88s-.72.32-1.15.32Z" fill="#fffcef" data-color="1"/>
        <path d="M78.42 42.32v-6.19h.71v6.19z" fill="#fffcef" data-color="1"/>
        <path d="M80.07 40.16V37.9h.71v2.26zm.71 0c0 .44.05.77.15 1s.24.39.42.47c.18.09.38.13.61.13q.57 0 .9-.42c.22-.28.32-.66.32-1.16h.35c0 .47-.07.87-.2 1.2s-.33.59-.59.77-.57.27-.94.27q-.51 0-.9-.21t-.6-.66c-.14-.3-.21-.7-.21-1.18v-.21h.71Zm2.44 2.16-.04-.81V37.9h.71v4.42h-.66Z" fill="#fffcef" data-color="1"/>
        <path d="M86.49 42.42c-.32 0-.61-.05-.85-.15s-.44-.23-.61-.38c-.16-.16-.28-.33-.35-.52l.62-.26c.1.2.25.36.45.49.2.12.42.19.66.19.28 0 .51-.05.7-.16s.28-.26.28-.46c0-.18-.07-.33-.21-.44s-.34-.2-.61-.27l-.42-.11c-.4-.11-.71-.27-.94-.48-.22-.21-.34-.46-.34-.73 0-.42.14-.74.41-.98.27-.23.68-.35 1.22-.35.26 0 .5.04.71.11s.39.18.55.32.27.3.34.49l-.62.27a.77.77 0 0 0-.38-.43c-.18-.09-.39-.13-.65-.13-.27 0-.48.06-.64.17-.15.11-.23.28-.23.48 0 .12.06.23.19.33s.31.19.56.25l.44.11c.29.07.53.18.72.31.2.14.34.3.44.47q.15.27.15.57 0 .405-.21.69t-.57.45c-.24.1-.52.15-.83.15Z" fill="#fffcef" data-color="1"/>
        <path d="M90.28 42.42c-.52 0-.92-.12-1.22-.36-.29-.24-.44-.57-.44-1 0-.45.15-.79.45-1.03s.72-.36 1.25-.36h1.26v.59h-1.11c-.41 0-.71.07-.88.2a.71.71 0 0 0-.26.58c0 .23.09.41.26.54s.41.2.72.2c.25 0 .47-.05.66-.16s.33-.27.44-.47.15-.44.15-.72h.3c0 .6-.14 1.08-.41 1.44s-.67.53-1.18.53Zm1.33-.1-.03-.72v-1.61c0-.35-.04-.64-.12-.86-.08-.23-.2-.4-.36-.52s-.38-.18-.64-.18c-.24 0-.45.05-.62.15s-.32.25-.43.46l-.64-.25c.11-.21.25-.38.41-.53s.35-.27.56-.34.45-.12.73-.12q.615 0 1.02.24c.405.24.47.4.61.72s.2.71.2 1.17v2.4h-.66Zm-.39-5.01c-.17 0-.31-.03-.42-.1s-.19-.14-.26-.22-.13-.16-.19-.22-.13-.1-.2-.1c-.09 0-.17.03-.22.08s-.09.14-.12.26h-.58c.02-.16.06-.31.14-.45.07-.14.18-.25.31-.33s.28-.12.46-.12.3.03.4.1.19.14.26.22.14.16.2.22.14.1.23.1c.1 0 .17-.03.22-.09s.08-.14.1-.25h.57q-.045.36-.27.63c-.15.18-.35.27-.62.27Z" fill="#fffcef" data-color="1"/>
        <path d="M95.17 42.42c-.44 0-.82-.1-1.15-.3s-.59-.47-.78-.82-.28-.75-.28-1.2.09-.85.28-1.2.44-.62.78-.82q.495-.3 1.14-.3c.645 0 .81.1 1.14.3s.59.47.78.82.28.75.28 1.2-.09.85-.28 1.2-.44.62-.77.82-.71.3-1.13.3Zm-.01-.65c.29 0 .54-.07.77-.21.22-.14.39-.34.52-.59s.19-.54.19-.86-.06-.61-.19-.86-.3-.45-.53-.59q-.33-.21-.78-.21c-.45 0-.54.07-.76.21s-.4.34-.52.58c-.13.25-.19.54-.19.87s.06.61.19.86.3.45.53.59.48.21.77.21" fill="#fffcef" data-color="1"/>
        <path d="M101.91 42.42c-.39 0-.74-.1-1.04-.29s-.53-.47-.7-.82-.25-.75-.25-1.21.08-.86.25-1.21.4-.62.7-.81.65-.29 1.04-.29c.37 0 .7.1.98.29s.5.47.65.81c.15.35.23.75.23 1.21s-.08.86-.23 1.21-.37.62-.65.82c-.28.19-.61.29-.98.29m.16-.64q.39 0 .69-.21c.2-.14.36-.34.47-.59.12-.25.17-.54.17-.87s-.06-.61-.17-.87a1.4 1.4 0 0 0-.47-.59c-.2-.14-.43-.21-.7-.21s-.52.07-.74.21-.38.34-.51.59c-.12.25-.19.54-.19.87s.06.61.19.87c.12.25.29.45.51.59s.47.21.74.21Zm1.37.54-.03-.82v-5.37h.71v6.19h-.67Z" fill="#fffcef" data-color="1"/>
        <path d="M107.11 42.42q-.645 0-1.14-.3c-.33-.2-.59-.47-.77-.82-.19-.35-.28-.75-.28-1.2s.09-.85.28-1.2.44-.62.77-.82.7-.3 1.13-.3.77.1 1.07.3.53.49.7.85.25.8.25 1.29h-3.65l.18-.15c0 .35.06.66.19.91s.3.45.53.58.49.2.79.2c.31 0 .58-.07.79-.22s.38-.34.5-.58l.61.31q-.165.345-.45.6c-.19.17-.4.3-.65.4-.25.09-.53.14-.84.14Zm-1.44-2.63-.19-.14h3.05l-.19.15c0-.28-.06-.53-.17-.73q-.165-.315-.45-.48c-.19-.11-.41-.17-.65-.17s-.47.06-.69.17-.39.27-.52.47-.2.45-.2.73Z" fill="#fffcef" data-color="1"/>
        <path d="M112.23 36.87c-.12 0-.22-.04-.31-.13s-.13-.19-.13-.31.04-.23.13-.31c.09-.09.19-.13.31-.13s.23.04.31.13c.09.09.13.19.13.31s-.04.22-.13.31-.19.13-.31.13m-.36 5.45V37.9h.71v4.42z" fill="#fffcef" data-color="1"/>
        <path d="M113.7 42.32V37.9h.66l.04.81v3.61h-.71Zm3.1-2.26c0-.44-.05-.77-.15-1s-.24-.39-.41-.47a1.3 1.3 0 0 0-.6-.13c-.39 0-.69.14-.91.41s-.32.66-.32 1.16h-.35c0-.47.07-.87.2-1.2.13-.34.33-.59.59-.77s.57-.27.94-.27.65.07.91.21q.39.21.6.66c.14.3.21.7.21 1.19v.21zm0 2.26v-2.26h.71v2.26z" fill="#fffcef" data-color="1"/>
        <path d="M120.2 42.28c-.39 0-.74-.09-1.04-.28s-.53-.45-.7-.79-.25-.73-.25-1.16.08-.84.25-1.18.4-.6.7-.79.65-.28 1.04-.28c.37 0 .7.09.97.28.28.19.49.45.65.79s.23.73.23 1.18-.08.83-.23 1.17-.37.6-.65.79-.6.28-.97.28Zm.03 1.91c-.28 0-.54-.03-.77-.08s-.43-.12-.59-.19-.28-.13-.35-.17l.27-.57q.12.06.33.15c.14.06.31.11.5.16.19.04.4.07.61.07.28 0 .54-.06.76-.17s.4-.29.53-.54.19-.56.19-.94V37.9h.71v4c0 .51-.09.93-.28 1.27s-.45.6-.78.77-.7.26-1.12.26Zm.14-2.52q.39 0 .69-.21c.2-.14.36-.33.47-.58.11-.24.17-.53.17-.85s-.06-.59-.17-.84a1.33 1.33 0 0 0-.47-.57q-.3-.21-.69-.21c-.39 0-.52.07-.74.21s-.38.33-.5.57q-.18.36-.18.84c0 .48.06.61.19.85.12.24.29.44.51.58.21.14.46.21.74.21Z" fill="#fffcef" data-color="1"/>
        <path d="M123.47 42.32V37.9h.71v4.42zm.39-2.4c0-.48.09-.86.27-1.16s.42-.52.7-.66c.29-.14.59-.22.91-.22v.66c-.26 0-.51.04-.75.13s-.44.23-.59.42-.23.46-.23.8l-.32.04Z" fill="#fffcef" data-color="1"/>
        <path d="M128.22 42.42q-.645 0-1.14-.3c-.33-.2-.59-.47-.77-.82-.19-.35-.28-.75-.28-1.2s.09-.85.28-1.2.44-.62.77-.82.7-.3 1.13-.3.77.1 1.07.3.53.49.7.85.25.8.25 1.29h-3.65l.18-.15c0 .35.06.66.19.91s.3.45.53.58.49.2.79.2c.31 0 .58-.07.79-.22s.38-.34.5-.58l.61.31q-.165.345-.45.6c-.19.17-.4.3-.65.4-.25.09-.53.14-.84.14Zm-1.44-2.63-.19-.14h3.05l-.19.15c0-.28-.06-.53-.17-.73q-.165-.315-.45-.48c-.19-.11-.41-.17-.65-.17s-.47.06-.69.17-.39.27-.52.47-.2.45-.2.73Z" fill="#fffcef" data-color="1"/>
        <path d="M132.67 42.42c-.39 0-.74-.1-1.04-.29s-.53-.47-.7-.82-.25-.75-.25-1.21.08-.86.25-1.21.4-.62.7-.81.65-.29 1.04-.29c.37 0 .7.1.98.29s.5.47.65.81c.15.35.23.75.23 1.21s-.08.86-.23 1.21-.37.62-.65.82c-.28.19-.61.29-.98.29m.16-.64q.39 0 .69-.21c.2-.14.36-.34.47-.59.12-.25.17-.54.17-.87s-.06-.61-.17-.87a1.4 1.4 0 0 0-.47-.59c-.2-.14-.43-.21-.7-.21s-.52.07-.74.21-.38.34-.51.59c-.12.25-.19.54-.19.87s.06.61.19.87c.12.25.29.45.51.59s.47.21.74.21Zm1.37.54-.03-.82v-5.37h.71v6.19h-.67Z" fill="#fffcef" data-color="1"/>
        <path d="M136.34 36.87c-.12 0-.22-.04-.31-.13s-.13-.19-.13-.31.04-.23.13-.31c.09-.09.19-.13.31-.13s.23.04.31.13c.09.09.13.19.13.31s-.04.22-.13.31-.19.13-.31.13m-.36 5.45V37.9h.71v4.42z" fill="#fffcef" data-color="1"/>
        <path d="M139.74 42.42q-.645 0-1.14-.3c-.33-.2-.59-.47-.77-.82-.19-.35-.28-.75-.28-1.2s.09-.85.28-1.2.44-.62.77-.82.7-.3 1.13-.3.77.1 1.07.3.53.49.7.85.25.8.25 1.29h-3.65l.18-.15c0 .35.06.66.19.91s.3.45.53.58.49.2.79.2c.31 0 .58-.07.79-.22s.38-.34.5-.58l.61.31q-.165.345-.45.6c-.19.17-.4.3-.65.4-.25.09-.53.14-.84.14Zm-1.43-2.63-.19-.14h3.05l-.19.15c0-.28-.06-.53-.17-.73q-.165-.315-.45-.48c-.19-.11-.41-.17-.65-.17s-.47.06-.69.17-.39.27-.52.47-.2.45-.2.73Z" fill="#fffcef" data-color="1"/>
        <path d="M142.46 42.32V37.9h.66l.04.81v3.61h-.71Zm3.1-2.26c0-.44-.05-.77-.15-1s-.24-.39-.41-.47a1.3 1.3 0 0 0-.6-.13c-.39 0-.69.14-.91.41s-.32.66-.32 1.16h-.35c0-.47.07-.87.2-1.2.13-.34.33-.59.59-.77s.57-.27.94-.27.65.07.91.21q.39.21.6.66c.14.3.21.7.21 1.19v.21zm0 2.26v-2.26h.71v2.26z" fill="#fffcef" data-color="1"/>
        <path d="M146.76 38.53v-.63h2.8v.63zm2.12 3.89c-.43 0-.76-.11-1-.34-.24-.22-.35-.54-.35-.95v-4.62h.71v4.55c0 .22.06.4.18.52q.18.18.51.18.105 0 .21-.03c.105-.03.16-.07.27-.15l.27.57q-.225.15-.42.21c-.12.04-.25.06-.38.06" fill="#fffcef" data-color="1"/>
        <path d="M152.29 42.42q-.645 0-1.14-.3c-.33-.2-.59-.47-.77-.82-.19-.35-.28-.75-.28-1.2s.09-.85.28-1.2.44-.62.77-.82.7-.3 1.13-.3.77.1 1.07.3.53.49.7.85.25.8.25 1.29h-3.65l.18-.15c0 .35.06.66.19.91s.3.45.53.58.49.2.79.2c.31 0 .58-.07.79-.22s.38-.34.5-.58l.61.31q-.165.345-.45.6c-.19.17-.4.3-.65.4-.25.09-.53.14-.84.14Zm-1.43-2.63-.19-.14h3.05l-.19.15c0-.28-.06-.53-.17-.73q-.165-.315-.45-.48c-.19-.11-.41-.17-.65-.17s-.47.06-.69.17-.39.27-.52.47-.2.45-.2.73Z" fill="#fffcef" data-color="1"/>
        <path d="M156.55 42.42c-.32 0-.61-.05-.85-.15s-.44-.23-.61-.38c-.16-.16-.28-.33-.35-.52l.62-.26c.1.2.25.36.45.49.2.12.42.19.66.19.28 0 .51-.05.7-.16s.28-.26.28-.46c0-.18-.07-.33-.21-.44s-.34-.2-.61-.27l-.42-.11c-.4-.11-.71-.27-.94-.48-.22-.21-.34-.46-.34-.73 0-.42.14-.74.41-.98.27-.23.68-.35 1.22-.35.26 0 .5.04.71.11s.39.18.55.32.27.3.34.49l-.62.27a.77.77 0 0 0-.38-.43c-.18-.09-.39-.13-.65-.13-.27 0-.48.06-.64.17-.15.11-.23.28-.23.48 0 .12.06.23.19.33s.31.19.56.25l.44.11c.29.07.53.18.72.31.2.14.34.3.44.47q.15.27.15.57 0 .405-.21.69t-.57.45c-.24.1-.52.15-.83.15Z" fill="#fffcef" data-color="1"/>
        <path d="M160.95 42.32V37.9h.66l.04.81v3.61h-.71Zm3.1-2.26c0-.44-.05-.77-.15-1s-.24-.39-.41-.47a1.3 1.3 0 0 0-.6-.13c-.39 0-.69.14-.91.41s-.32.66-.32 1.16h-.35c0-.47.07-.87.2-1.2.13-.34.33-.59.59-.77s.57-.27.94-.27.65.07.91.21q.39.21.6.66c.14.3.21.7.21 1.19v.21zm0 2.26v-2.26h.71v2.26z" fill="#fffcef" data-color="1"/>
        <path d="M167.11 42.42c-.52 0-.92-.12-1.22-.36-.29-.24-.44-.57-.44-1 0-.45.15-.79.45-1.03s.72-.36 1.25-.36h1.26v.59h-1.11c-.41 0-.71.07-.88.2a.71.71 0 0 0-.26.58c0 .23.09.41.26.54s.41.2.72.2c.25 0 .47-.05.66-.16s.33-.27.44-.47.15-.44.15-.72h.3c0 .6-.14 1.08-.41 1.44s-.67.53-1.18.53Zm1.32-.1-.03-.72v-1.61c0-.35-.04-.64-.12-.86-.08-.23-.2-.4-.36-.52s-.38-.18-.64-.18c-.24 0-.45.05-.62.15s-.32.25-.43.46l-.64-.25c.11-.21.25-.38.41-.53s.35-.27.56-.34.45-.12.73-.12q.615 0 1.02.24c.405.24.47.4.61.72s.2.71.2 1.17v2.4h-.66Z" fill="#fffcef" data-color="1"/>
        <path d="M169.58 38.53v-.63h2.8v.63zm2.12 3.89c-.43 0-.76-.11-1-.34-.24-.22-.35-.54-.35-.95v-4.62h.71v4.55c0 .22.06.4.18.52q.18.18.51.18.105 0 .21-.03c.105-.03.16-.07.27-.15l.27.57q-.225.15-.42.21c-.12.04-.25.06-.38.06" fill="#fffcef" data-color="1"/>
        <path d="M173.09 40.16V37.9h.71v2.26zm.71 0c0 .44.05.77.15 1s.24.39.42.47c.18.09.38.13.61.13q.57 0 .9-.42c.22-.28.32-.66.32-1.16h.35c0 .47-.07.87-.2 1.2s-.33.59-.59.77-.57.27-.94.27q-.51 0-.9-.21t-.6-.66c-.14-.3-.21-.7-.21-1.18v-.21h.71Zm2.44 2.16-.04-.81V37.9h.71v4.42h-.66Z" fill="#fffcef" data-color="1"/>
        <path d="M177.96 42.32V37.9h.71v4.42zm.39-2.4c0-.48.09-.86.27-1.16s.42-.52.7-.66c.29-.14.59-.22.91-.22v.66c-.26 0-.51.04-.75.13s-.44.23-.59.42-.23.46-.23.8l-.32.04Z" fill="#fffcef" data-color="1"/>
        <path d="M182.17 42.42c-.52 0-.92-.12-1.22-.36-.29-.24-.44-.57-.44-1 0-.45.15-.79.45-1.03s.72-.36 1.25-.36h1.26v.59h-1.11c-.41 0-.71.07-.88.2a.71.71 0 0 0-.26.58c0 .23.09.41.26.54s.41.2.72.2c.25 0 .47-.05.66-.16s.33-.27.44-.47.15-.44.15-.72h.3c0 .6-.14 1.08-.41 1.44s-.67.53-1.18.53Zm1.32-.1-.03-.72v-1.61c0-.35-.04-.64-.12-.86-.08-.23-.2-.4-.36-.52s-.38-.18-.64-.18c-.24 0-.45.05-.62.15s-.32.25-.43.46l-.64-.25c.11-.21.25-.38.41-.53s.35-.27.56-.34.45-.12.73-.12q.615 0 1.02.24c.405.24.47.4.61.72s.2.71.2 1.17v2.4h-.66Z" fill="#fffcef" data-color="1"/>
        <path d="M185.51 36.87c-.12 0-.22-.04-.31-.13s-.13-.19-.13-.31.04-.23.13-.31c.09-.09.19-.13.31-.13s.23.04.31.13c.09.09.13.19.13.31s-.04.22-.13.31-.19.13-.31.13m-.36 5.45V37.9h.71v4.42z" fill="#fffcef" data-color="1"/>
        <path d="M188.52 42.42c-.32 0-.61-.05-.85-.15s-.44-.23-.61-.38c-.16-.16-.28-.33-.35-.52l.62-.26c.1.2.25.36.45.49.2.12.42.19.66.19.28 0 .51-.05.7-.16s.28-.26.28-.46c0-.18-.07-.33-.21-.44s-.34-.2-.61-.27l-.42-.11c-.4-.11-.71-.27-.94-.48-.22-.21-.34-.46-.34-.73 0-.42.14-.74.41-.98.27-.23.68-.35 1.22-.35.26 0 .5.04.71.11s.39.18.55.32.27.3.34.49l-.62.27a.77.77 0 0 0-.38-.43c-.18-.09-.39-.13-.65-.13-.27 0-.48.06-.64.17-.15.11-.23.28-.23.48 0 .12.06.23.19.33s.31.19.56.25l.44.11c.29.07.53.18.72.31.2.14.34.3.44.47q.15.27.15.57 0 .405-.21.69t-.57.45c-.24.1-.52.15-.83.15Z" fill="#fffcef" data-color="1"/>
        <path d="M194.32 42.42c-.52 0-.92-.12-1.22-.36-.29-.24-.44-.57-.44-1 0-.45.15-.79.45-1.03s.72-.36 1.25-.36h1.26v.59h-1.11c-.41 0-.71.07-.88.2a.71.71 0 0 0-.26.58c0 .23.09.41.26.54s.41.2.72.2c.25 0 .47-.05.66-.16s.33-.27.44-.47.15-.44.15-.72h.3c0 .6-.14 1.08-.41 1.44s-.67.53-1.18.53Zm1.33-.1-.03-.72v-1.61c0-.35-.04-.64-.12-.86-.08-.23-.2-.4-.36-.52s-.38-.18-.64-.18c-.24 0-.45.05-.62.15s-.32.25-.43.46l-.64-.25c.11-.21.25-.38.41-.53s.35-.27.56-.34.45-.12.73-.12q.615 0 1.02.24c.405.24.47.4.61.72s.2.71.2 1.17v2.4h-.66Z" fill="#fffcef" data-color="1"/>
        <path d="M197.14 40.16V37.9h.71v2.26zm.71 0c0 .44.05.77.15 1s.24.39.42.47c.18.09.38.13.61.13q.57 0 .9-.42c.22-.28.32-.66.32-1.16h.35c0 .47-.07.87-.2 1.2s-.33.59-.59.77-.57.27-.94.27q-.51 0-.9-.21t-.6-.66c-.14-.3-.21-.7-.21-1.18v-.21h.71Zm2.44 2.16-.04-.81V37.9h.71v4.42h-.66Z" fill="#fffcef" data-color="1"/>
        <path d="m201.48 42.32 1.8-2.54 1.27-1.88h.84l-1.68 2.39-1.38 2.03h-.86Zm3.18 0-1.36-2.03-1.7-2.39h.84l1.28 1.88 1.78 2.54h-.85Z" fill="#fffcef" data-color="1"/>
        <path d="M206.44 36.87c-.12 0-.22-.04-.31-.13s-.13-.19-.13-.31.04-.23.13-.31c.09-.09.19-.13.31-.13s.23.04.31.13c.09.09.13.19.13.31s-.04.22-.13.31-.19.13-.31.13m-.36 5.45V37.9h.71v4.42z" fill="#fffcef" data-color="1"/>
        <path d="M207.91 42.32v-6.19h.71v6.19z" fill="#fffcef" data-color="1"/>
        <path d="M210.09 36.87c-.12 0-.22-.04-.31-.13s-.13-.19-.13-.31.04-.23.13-.31c.09-.09.19-.13.31-.13s.23.04.31.13c.09.09.13.19.13.31s-.04.22-.13.31-.19.13-.31.13m-.37 5.45V37.9h.71v4.42z" fill="#fffcef" data-color="1"/>
        <path d="M212.95 42.42c-.52 0-.92-.12-1.22-.36-.29-.24-.44-.57-.44-1 0-.45.15-.79.45-1.03s.72-.36 1.25-.36h1.26v.59h-1.11c-.41 0-.71.07-.88.2a.71.71 0 0 0-.26.58c0 .23.09.41.26.54s.41.2.72.2c.25 0 .47-.05.66-.16s.33-.27.44-.47.15-.44.15-.72h.3c0 .6-.14 1.08-.41 1.44s-.67.53-1.18.53Zm1.33-.1-.03-.72v-1.61c0-.35-.04-.64-.12-.86-.08-.23-.2-.4-.36-.52s-.38-.18-.64-.18c-.24 0-.45.05-.62.15s-.32.25-.43.46l-.64-.25c.11-.21.25-.38.41-.53s.35-.27.56-.34.45-.12.73-.12q.615 0 1.02.24c.405.24.47.4.61.72s.2.71.2 1.17v2.4h-.66Z" fill="#fffcef" data-color="1"/>
        <path d="M217.89 42.32V37.9h.66l.04.81v3.61h-.71Zm3.1-2.26c0-.44-.05-.77-.15-1s-.24-.39-.41-.47a1.3 1.3 0 0 0-.6-.13c-.39 0-.69.14-.91.41s-.32.66-.32 1.16h-.35c0-.47.07-.87.2-1.2.13-.34.33-.59.59-.77s.57-.27.94-.27.65.07.91.21q.39.21.6.66c.14.3.21.7.21 1.19v.21zm0 2.26v-2.26h.71v2.26z" fill="#fffcef" data-color="1"/>
        <path d="M224.22 42.42c-.52 0-.92-.12-1.22-.36-.29-.24-.44-.57-.44-1 0-.45.15-.79.45-1.03s.72-.36 1.25-.36h1.26v.59h-1.11c-.41 0-.71.07-.88.2a.71.71 0 0 0-.26.58c0 .23.09.41.26.54s.41.2.72.2c.25 0 .47-.05.66-.16s.33-.27.44-.47.15-.44.15-.72h.3c0 .6-.14 1.08-.41 1.44s-.67.53-1.18.53Zm1.33-.1-.03-.72v-1.61c0-.35-.04-.64-.12-.86-.08-.23-.2-.4-.36-.52s-.38-.18-.64-.18c-.24 0-.45.05-.62.15s-.32.25-.43.46l-.64-.25c.11-.21.25-.38.41-.53s.35-.27.56-.34.45-.12.73-.12q.615 0 1.02.24c.405.24.47.4.61.72s.2.71.2 1.17v2.4h-.66Z" fill="#fffcef" data-color="1"/>
        <path d="M231.06 42.42c-.32 0-.61-.05-.85-.15s-.44-.23-.61-.38c-.16-.16-.28-.33-.35-.52l.62-.26c.1.2.25.36.45.49.2.12.42.19.66.19.28 0 .51-.05.7-.16s.28-.26.28-.46c0-.18-.07-.33-.21-.44s-.34-.2-.61-.27l-.42-.11c-.4-.11-.71-.27-.94-.48-.22-.21-.34-.46-.34-.73 0-.42.14-.74.41-.98.27-.23.68-.35 1.22-.35.26 0 .5.04.71.11s.39.18.55.32.27.3.34.49l-.62.27a.77.77 0 0 0-.38-.43c-.18-.09-.39-.13-.65-.13-.27 0-.48.06-.64.17-.15.11-.23.28-.23.48 0 .12.06.23.19.33s.31.19.56.25l.44.11c.29.07.53.18.72.31.2.14.34.3.44.47q.15.27.15.57 0 .405-.21.69t-.57.45c-.24.1-.52.15-.83.15Z" fill="#fffcef" data-color="1"/>
        <path d="M235.03 42.42c-.52 0-.92-.12-1.22-.36-.29-.24-.44-.57-.44-1 0-.45.15-.79.45-1.03s.72-.36 1.25-.36h1.26v.59h-1.11c-.41 0-.71.07-.88.2a.71.71 0 0 0-.26.58c0 .23.09.41.26.54s.41.2.72.2c.25 0 .47-.05.66-.16s.33-.27.44-.47.15-.44.15-.72h.3c0 .6-.14 1.08-.41 1.44s-.67.53-1.18.53Zm1.33-.1-.03-.72v-1.61c0-.35-.04-.64-.12-.86-.08-.23-.2-.4-.36-.52s-.38-.18-.64-.18c-.24 0-.45.05-.62.15s-.32.25-.43.46l-.64-.25c.11-.21.25-.38.41-.53s.35-.27.56-.34.45-.12.73-.12q.615 0 1.02.24c.405.24.47.4.61.72s.2.71.2 1.17v2.4h-.66Z" fill="#fffcef" data-color="1"/>
        <path d="M238.03 40.16V37.9h.71v2.26zm.71 0c0 .44.05.77.15 1s.24.39.42.47c.18.09.38.13.61.13q.57 0 .9-.42c.22-.28.32-.66.32-1.16h.35c0 .47-.07.87-.2 1.2s-.33.59-.59.77-.57.27-.94.27q-.51 0-.9-.21t-.6-.66c-.14-.3-.21-.7-.21-1.18v-.21h.71Zm.65-2.89 1.03-1.14h.91l-1.14 1.14zm1.79 5.05-.04-.81V37.9h.71v4.42h-.66Z" fill="#fffcef" data-color="1"/>
        <path d="M244.82 42.42c-.39 0-.74-.1-1.04-.29s-.53-.47-.7-.82-.25-.75-.25-1.21.08-.86.25-1.21.4-.62.7-.81.65-.29 1.04-.29c.37 0 .7.1.98.29s.5.47.65.81c.15.35.23.75.23 1.21s-.08.86-.23 1.21-.37.62-.65.82c-.28.19-.61.29-.98.29m.16-.64q.39 0 .69-.21c.2-.14.36-.34.47-.59.12-.25.17-.54.17-.87s-.06-.61-.17-.87a1.4 1.4 0 0 0-.47-.59c-.2-.14-.43-.21-.7-.21s-.52.07-.74.21-.38.34-.51.59c-.12.25-.19.54-.19.87s.06.61.19.87c.12.25.29.45.51.59s.47.21.74.21Zm1.37.54-.03-.82v-5.37h.71v6.19h-.67Z" fill="#fffcef" data-color="1"/>
        <path d="M250.19 42.42q-.645 0-1.14-.3c-.33-.2-.59-.47-.77-.82-.19-.35-.28-.75-.28-1.2s.09-.85.28-1.2.44-.62.77-.82.7-.3 1.13-.3.77.1 1.07.3.53.49.7.85.25.8.25 1.29h-3.65l.18-.15c0 .35.06.66.19.91s.3.45.53.58.49.2.79.2c.31 0 .58-.07.79-.22s.38-.34.5-.58l.61.31q-.165.345-.45.6c-.19.17-.4.3-.65.4-.25.09-.53.14-.84.14Zm-1.43-2.63-.19-.14h3.05l-.19.15c0-.28-.06-.53-.17-.73q-.165-.315-.45-.48c-.19-.11-.41-.17-.65-.17s-.47.06-.69.17-.39.27-.52.47-.2.45-.2.73Z" fill="#fffcef" data-color="1"/>
        <path d="M257.2 42.42q-.645 0-1.14-.3c-.33-.2-.59-.47-.77-.82-.19-.35-.28-.75-.28-1.2s.09-.85.28-1.2.44-.62.77-.82.7-.3 1.13-.3.77.1 1.07.3.53.49.7.85.25.8.25 1.29h-3.65l.18-.15c0 .35.06.66.19.91s.3.45.53.58.49.2.79.2c.31 0 .58-.07.79-.22s.38-.34.5-.58l.61.31q-.165.345-.45.6c-.19.17-.4.3-.65.4-.25.09-.53.14-.84.14Zm-1.43-2.63-.19-.14h3.05l-.19.15c0-.28-.06-.53-.17-.73q-.165-.315-.45-.48c-.19-.11-.41-.17-.65-.17s-.47.06-.69.17-.39.27-.52.47-.2.45-.2.73Z" fill="#fffcef" data-color="1"/>
        <path d="M59.37 52.31v-6.19h.71v5.37l-.04.82zm2.2.1c-.37 0-.7-.1-.98-.29s-.5-.47-.65-.82-.23-.75-.23-1.21.08-.86.23-1.21.37-.62.65-.81.61-.29.98-.29c.39 0 .74.1 1.04.29s.53.47.7.81c.17.35.25.75.25 1.21s-.08.86-.25 1.21-.4.62-.7.82-.65.29-1.04.29m-.16-.64c.28 0 .52-.07.74-.21s.39-.34.51-.59.19-.54.19-.87-.06-.61-.18-.87-.29-.45-.5-.59a1.3 1.3 0 0 0-.75-.21q-.39 0-.69.21c-.2.14-.36.34-.48.59-.11.25-.17.54-.17.87s.06.61.17.87c.12.25.27.45.47.59q.3.21.69.21" fill="#fffcef" data-color="1"/>
        <path d="M66.49 52.41q-.645 0-1.14-.3c-.33-.2-.59-.47-.77-.82-.19-.35-.28-.75-.28-1.2s.09-.85.28-1.2.44-.62.77-.82.7-.3 1.13-.3.77.1 1.07.3.53.49.7.85.25.8.25 1.29h-3.65l.18-.15c0 .35.06.66.19.91s.3.45.53.58.49.2.79.2c.31 0 .58-.07.79-.22s.38-.34.5-.58l.61.31q-.165.345-.45.6c-.19.17-.4.3-.65.4-.25.09-.53.14-.84.14Zm-1.44-2.63-.19-.14h3.05l-.19.15c0-.28-.06-.53-.17-.73q-.165-.315-.45-.48c-.19-.11-.41-.17-.65-.17s-.47.06-.69.17-.39.27-.52.47-.2.45-.2.73Z" fill="#fffcef" data-color="1"/>
        <path d="M69.38 52.31v-4.42h.66l.04.62c.14-.24.31-.42.52-.54s.46-.19.74-.19c.35 0 .66.08.91.25.25.16.43.42.54.75.12-.32.3-.57.54-.74s.52-.26.85-.26c.5 0 .89.16 1.17.5s.43.83.42 1.5v2.53h-.71v-2.26c0-.44-.05-.77-.14-1s-.21-.39-.37-.47c-.15-.09-.33-.13-.53-.13-.35 0-.62.14-.81.41-.2.27-.29.66-.29 1.16v2.29h-.71v-2.26c0-.44-.05-.77-.14-1s-.22-.39-.37-.47c-.16-.09-.33-.13-.53-.13a.93.93 0 0 0-.8.41c-.2.27-.29.66-.29 1.16v2.29h-.71Z" fill="#fffcef" data-color="1"/>
        <path d="M76.79 50v-.65h2.65V50z" fill="#fffcef" data-color="1"/>
        <path d="M82.52 52.41q-.645 0-1.14-.3c-.33-.2-.59-.47-.77-.82-.19-.35-.28-.75-.28-1.2s.09-.85.28-1.2.44-.62.77-.82.7-.3 1.13-.3.77.1 1.07.3.53.49.7.85.25.8.25 1.29h-3.65l.18-.15c0 .35.06.66.19.91s.3.45.53.58.49.2.79.2c.31 0 .58-.07.79-.22s.38-.34.5-.58l.61.31q-.165.345-.45.6c-.19.17-.4.3-.65.4-.25.09-.53.14-.84.14Zm-1.43-2.63-.19-.14h3.05l-.19.15c0-.28-.06-.53-.17-.73q-.165-.315-.45-.48c-.19-.11-.41-.17-.65-.17s-.47.06-.69.17-.39.27-.52.47-.2.45-.2.73Z" fill="#fffcef" data-color="1"/>
        <path d="M86.96 52.41c-.32 0-.61-.05-.85-.15s-.44-.23-.61-.38c-.16-.16-.28-.33-.35-.52l.62-.26c.1.2.25.36.45.49.2.12.42.19.66.19.28 0 .51-.05.7-.16s.28-.26.28-.46c0-.18-.07-.33-.21-.44s-.34-.2-.61-.27l-.42-.11c-.4-.11-.71-.27-.94-.48-.22-.21-.34-.46-.34-.73 0-.42.14-.74.41-.98.27-.23.68-.35 1.22-.35.26 0 .5.04.71.11s.39.18.55.32.27.3.34.49l-.62.27a.77.77 0 0 0-.38-.43c-.18-.09-.39-.13-.65-.13-.27 0-.48.06-.64.17-.15.11-.23.28-.23.48 0 .12.06.23.19.33s.31.19.56.25l.44.11c.29.07.53.18.72.31.2.14.34.3.44.47q.15.27.15.57 0 .405-.21.69t-.57.45c-.24.1-.52.15-.83.15Z" fill="#fffcef" data-color="1"/>
        <path d="M89.07 48.52v-.63h2.8v.63zm2.12 3.89c-.43 0-.76-.11-1-.34-.24-.22-.35-.54-.35-.95V46.5h.71v4.55c0 .22.06.4.18.52q.18.18.51.18.105 0 .21-.03c.105-.03.16-.07.27-.15l.27.57q-.225.15-.42.21c-.12.04-.25.06-.38.06" fill="#fffcef" data-color="1"/>
        <path d="M94.24 52.41c-.52 0-.92-.12-1.22-.36-.29-.24-.44-.57-.44-1 0-.45.15-.79.45-1.03s.72-.36 1.25-.36h1.26v.59h-1.11c-.41 0-.71.07-.88.2a.71.71 0 0 0-.26.58c0 .23.09.41.26.54s.41.2.72.2c.25 0 .47-.05.66-.16s.33-.27.44-.47.15-.44.15-.72h.3c0 .6-.14 1.08-.41 1.44s-.67.53-1.18.53Zm1.33-.1-.03-.72v-1.61c0-.35-.04-.64-.12-.86-.08-.23-.2-.4-.36-.52s-.38-.18-.64-.18c-.24 0-.45.05-.62.15s-.32.25-.43.46l-.64-.25c.11-.21.25-.38.41-.53s.35-.27.56-.34.45-.12.73-.12q.615 0 1.02.24c.405.24.47.4.61.72s.2.71.2 1.17v2.4h-.66Z" fill="#fffcef" data-color="1"/>
        <path d="M97.35 52.31v-4.42h.71v4.42zm.39-2.4c0-.48.09-.86.27-1.16s.42-.52.7-.66c.29-.14.59-.22.91-.22v.66c-.26 0-.51.04-.75.13s-.44.23-.59.42-.23.46-.23.8l-.32.04Z" fill="#fffcef" data-color="1"/>
        <path d="M104.27 52.41c-.39 0-.74-.1-1.04-.29s-.53-.47-.7-.82-.25-.75-.25-1.21.08-.86.25-1.21.4-.62.7-.81.65-.29 1.04-.29c.37 0 .7.1.98.29s.5.47.65.81c.15.35.23.75.23 1.21s-.08.86-.23 1.21-.37.62-.65.82c-.28.19-.61.29-.98.29m.16-.64q.39 0 .69-.21c.2-.14.36-.34.47-.59.12-.25.17-.54.17-.87s-.06-.61-.17-.87a1.4 1.4 0 0 0-.47-.59c-.2-.14-.43-.21-.7-.21s-.52.07-.74.21-.38.34-.51.59c-.12.25-.19.54-.19.87s.06.61.19.87c.12.25.29.45.51.59s.47.21.74.21Zm1.37.54-.03-.82v-5.37h.71v6.19h-.67Z" fill="#fffcef" data-color="1"/>
        <path d="M109.64 52.41q-.645 0-1.14-.3c-.33-.2-.59-.47-.77-.82-.19-.35-.28-.75-.28-1.2s.09-.85.28-1.2.44-.62.77-.82.7-.3 1.13-.3.77.1 1.07.3.53.49.7.85.25.8.25 1.29H108l.18-.15c0 .35.06.66.19.91s.3.45.53.58.49.2.79.2c.31 0 .58-.07.79-.22s.38-.34.5-.58l.61.31q-.165.345-.45.6c-.19.17-.4.3-.65.4-.25.09-.53.14-.84.14Zm-1.43-2.63-.19-.14h3.05l-.19.15c0-.28-.06-.53-.17-.73q-.165-.315-.45-.48c-.19-.11-.41-.17-.65-.17s-.47.06-.69.17-.39.27-.52.47-.2.45-.2.73Z" fill="#fffcef" data-color="1"/>
        <path d="M116.26 52.41c-.32 0-.61-.05-.85-.15s-.44-.23-.61-.38c-.16-.16-.28-.33-.35-.52l.62-.26c.1.2.25.36.45.49.2.12.42.19.66.19.28 0 .51-.05.7-.16s.28-.26.28-.46c0-.18-.07-.33-.21-.44s-.34-.2-.61-.27l-.42-.11c-.4-.11-.71-.27-.94-.48-.22-.21-.34-.46-.34-.73 0-.42.14-.74.41-.98.27-.23.68-.35 1.22-.35.26 0 .5.04.71.11s.39.18.55.32.27.3.34.49l-.62.27a.77.77 0 0 0-.38-.43c-.18-.09-.39-.13-.65-.13-.27 0-.48.06-.64.17-.15.11-.23.28-.23.48 0 .12.06.23.19.33s.31.19.56.25l.44.11c.29.07.53.18.72.31.2.14.34.3.44.47q.15.27.15.57 0 .405-.21.69t-.57.45c-.24.1-.52.15-.83.15Z" fill="#fffcef" data-color="1"/>
        <path d="M120.77 52.41q-.645 0-1.14-.3c-.33-.2-.59-.47-.77-.82-.19-.35-.28-.75-.28-1.2s.09-.85.28-1.2.44-.62.77-.82.7-.3 1.13-.3.77.1 1.07.3.53.49.7.85.25.8.25 1.29h-3.65l.18-.15c0 .35.06.66.19.91s.3.45.53.58.49.2.79.2c.31 0 .58-.07.79-.22s.38-.34.5-.58l.61.31q-.165.345-.45.6c-.19.17-.4.3-.65.4-.25.09-.53.14-.84.14Zm-1.43-2.63-.19-.14h3.05l-.19.15c0-.28-.06-.53-.17-.73q-.165-.315-.45-.48c-.19-.11-.41-.17-.65-.17s-.47.06-.69.17-.39.27-.52.47-.2.45-.2.73Z" fill="#fffcef" data-color="1"/>
        <path d="M123.55 50.15v-2.26h.71v2.26zm.7 0c0 .44.05.77.15 1s.24.39.42.47c.18.09.38.13.61.13q.57 0 .9-.42c.22-.28.32-.66.32-1.16h.35c0 .47-.07.87-.2 1.2s-.33.59-.59.77-.57.27-.94.27q-.51 0-.9-.21t-.6-.66c-.14-.3-.21-.7-.21-1.18v-.21h.71Zm2.44 2.16-.04-.81v-3.61h.71v4.42h-.66Z" fill="#fffcef" data-color="1"/>
        <path d="M130.41 48.5v-.61h2.8v.61zm.81 3.81v-4.92c0-.46.11-.81.32-1.04.22-.23.54-.35.99-.35.12 0 .25.02.4.06s.3.1.47.18l-.27.56c-.14-.05-.25-.09-.34-.12a.8.8 0 0 0-.24-.04c-.21 0-.36.07-.46.2s-.15.34-.15.61v4.87h-.71Z" fill="#fffcef" data-color="1"/>
        <path d="M135.95 52.41q-.645 0-1.14-.3c-.33-.2-.59-.47-.77-.82-.19-.35-.28-.75-.28-1.2s.09-.85.28-1.2.44-.62.77-.82.7-.3 1.13-.3.77.1 1.07.3.53.49.7.85.25.8.25 1.29h-3.65l.18-.15c0 .35.06.66.19.91s.3.45.53.58.49.2.79.2c.31 0 .58-.07.79-.22s.38-.34.5-.58l.61.31q-.165.345-.45.6c-.19.17-.4.3-.65.4-.25.09-.53.14-.84.14Zm-1.43-2.63-.19-.14h3.05l-.19.15c0-.28-.06-.53-.17-.73q-.165-.315-.45-.48c-.19-.11-.41-.17-.65-.17s-.47.06-.69.17-.39.27-.52.47-.2.45-.2.73Z" fill="#fffcef" data-color="1"/>
        <path d="M138.84 52.31v-6.19h.71v6.19z" fill="#fffcef" data-color="1"/>
        <path d="M141.19 46.86c-.12 0-.22-.04-.31-.13s-.13-.19-.13-.31.04-.23.13-.31c.09-.09.19-.13.31-.13s.23.04.31.13c.09.09.13.19.13.31s-.04.22-.13.31-.19.13-.31.13m-.36 5.45v-4.42h.71v4.42z" fill="#fffcef" data-color="1"/>
        <path d="M142.84 52.31v-4.42h.66l.04.81v3.61h-.71Zm3.1-2.27c0-.44-.05-.77-.15-1s-.24-.39-.41-.47a1.3 1.3 0 0 0-.6-.13c-.39 0-.69.14-.91.41s-.32.66-.32 1.16h-.35c0-.47.07-.87.2-1.2.13-.34.33-.59.59-.77s.57-.27.94-.27.65.07.91.21q.39.21.6.66c.14.3.21.7.21 1.19v.21zm0 2.27v-2.26h.71v2.26z" fill="#fffcef" data-color="1"/>
        <path d="M149.73 52.41c-.44 0-.82-.1-1.15-.3s-.59-.47-.78-.82-.28-.75-.28-1.2.09-.85.28-1.2.44-.62.78-.82q.495-.3 1.14-.3c.645 0 .81.1 1.14.3s.59.47.78.82.28.75.28 1.2-.09.85-.28 1.2-.44.62-.77.82-.71.3-1.13.3Zm-.01-.65c.29 0 .54-.07.77-.21.22-.14.39-.34.52-.59s.19-.54.19-.86-.06-.61-.19-.86-.3-.45-.53-.59q-.33-.21-.78-.21c-.45 0-.54.07-.76.21s-.4.34-.52.58c-.13.25-.19.54-.19.87s.06.61.19.86.3.45.53.59.48.21.77.21" fill="#fffcef" data-color="1"/>
        <path d="M153.2 52.43a.47.47 0 0 1-.35-.15c-.1-.1-.15-.21-.15-.34s.05-.25.15-.35.21-.15.35-.15.25.05.35.15c.09.1.14.21.14.35s-.05.24-.14.34c-.1.1-.21.15-.35.15" fill="#fffcef" data-color="1"/>
        <path d="m156.38 52.31 2.52-6.19h.76l-2.48 6.19zm1.19-1.76v-.67h3.44v.67zm3.84 1.76-2.48-6.19h.75l2.52 6.19z" fill="#fffcef" data-color="1"/>
        <path d="M167.06 52.41c-.44 0-.82-.1-1.16-.3s-.6-.47-.79-.82-.28-.75-.28-1.2.09-.85.28-1.2.45-.62.78-.82c.34-.2.72-.3 1.15-.3s.81.1 1.14.29c.34.19.59.47.77.82l-.65.29c-.12-.24-.29-.42-.51-.55s-.48-.2-.77-.2a1.38 1.38 0 0 0-1.28.8c-.12.25-.19.54-.19.86s.06.61.19.86.3.45.53.59.48.21.77.21.55-.07.77-.22c.23-.15.4-.35.52-.62l.64.29c-.18.38-.43.67-.77.88s-.72.32-1.15.32Z" fill="#fffcef" data-color="1"/>
        <path d="M171.83 52.41c-.44 0-.82-.1-1.15-.3s-.59-.47-.78-.82-.28-.75-.28-1.2.09-.85.28-1.2.44-.62.78-.82q.495-.3 1.14-.3c.645 0 .81.1 1.14.3s.59.47.78.82.28.75.28 1.2-.09.85-.28 1.2-.44.62-.77.82-.71.3-1.13.3Zm-.01-.65c.29 0 .54-.07.77-.21.22-.14.39-.34.52-.59s.19-.54.19-.86-.06-.61-.19-.86-.3-.45-.53-.59q-.33-.21-.78-.21c-.45 0-.54.07-.76.21s-.4.34-.52.58c-.13.25-.19.54-.19.87s.06.61.19.86.3.45.53.59.48.21.77.21" fill="#fffcef" data-color="1"/>
        <path d="M175 52.31v-4.42h.66l.04.62c.14-.24.31-.42.52-.54s.46-.19.74-.19c.35 0 .66.08.91.25.25.16.43.42.54.75.12-.32.3-.57.54-.74s.52-.26.85-.26c.5 0 .89.16 1.17.5s.43.83.42 1.5v2.53h-.71v-2.26c0-.44-.05-.77-.14-1s-.21-.39-.37-.47c-.15-.09-.33-.13-.53-.13-.35 0-.62.14-.81.41-.2.27-.29.66-.29 1.16v2.29h-.71v-2.26c0-.44-.05-.77-.14-1s-.22-.39-.37-.47c-.16-.09-.33-.13-.53-.13a.93.93 0 0 0-.8.41c-.2.27-.29.66-.29 1.16v2.29h-.71Z" fill="#fffcef" data-color="1"/>
        <path d="M182.52 52.31v-6.19h.71v5.37l-.04.82zm2.2.1c-.37 0-.7-.1-.98-.29s-.5-.47-.65-.82-.23-.75-.23-1.21.08-.86.23-1.21.37-.62.65-.81.61-.29.98-.29c.39 0 .74.1 1.04.29s.53.47.7.81c.17.35.25.75.25 1.21s-.08.86-.25 1.21-.4.62-.7.82-.65.29-1.04.29m-.16-.64c.28 0 .52-.07.74-.21s.39-.34.51-.59.19-.54.19-.87-.06-.61-.18-.87-.29-.45-.5-.59a1.3 1.3 0 0 0-.75-.21q-.39 0-.69.21c-.2.14-.36.34-.48.59-.11.25-.17.54-.17.87s.06.61.17.87c.12.25.27.45.47.59q.3.21.69.21" fill="#fffcef" data-color="1"/>
        <path d="M188.11 46.86c-.12 0-.22-.04-.31-.13s-.13-.19-.13-.31.04-.23.13-.31c.09-.09.19-.13.31-.13s.23.04.31.13c.09.09.13.19.13.31s-.04.22-.13.31-.19.13-.31.13m-.36 5.45v-4.42h.71v4.42z" fill="#fffcef" data-color="1"/>
        <path d="M189.75 52.31v-4.42h.66l.04.81v3.61h-.71Zm3.11-2.27c0-.44-.05-.77-.15-1s-.24-.39-.41-.47a1.3 1.3 0 0 0-.6-.13c-.39 0-.69.14-.91.41s-.32.66-.32 1.16h-.35c0-.47.07-.87.2-1.2.13-.34.33-.59.59-.77s.57-.27.94-.27.65.07.91.21q.39.21.6.66c.14.3.21.7.21 1.19v.21zm0 2.27v-2.26h.71v2.26z" fill="#fffcef" data-color="1"/>
        <path d="M196.08 52.41c-.52 0-.92-.12-1.22-.36-.29-.24-.44-.57-.44-1 0-.45.15-.79.45-1.03s.72-.36 1.25-.36h1.26v.59h-1.11c-.41 0-.71.07-.88.2a.71.71 0 0 0-.26.58c0 .23.09.41.26.54s.41.2.72.2c.25 0 .47-.05.66-.16s.33-.27.44-.47.15-.44.15-.72h.3c0 .6-.14 1.08-.41 1.44s-.67.53-1.18.53Zm1.33-.1-.03-.72v-1.61c0-.35-.04-.64-.12-.86-.08-.23-.2-.4-.36-.52s-.38-.18-.64-.18c-.24 0-.45.05-.62.15s-.32.25-.43.46l-.64-.25c.11-.21.25-.38.41-.53s.35-.27.56-.34.45-.12.73-.12q.615 0 1.02.24c.405.24.47.4.61.72s.2.71.2 1.17v2.4h-.66Z" fill="#fffcef" data-color="1"/>
        <path d="M201.17 52.41c-.44 0-.82-.1-1.16-.3s-.6-.47-.79-.82-.28-.75-.28-1.2.09-.85.28-1.2.45-.62.78-.82c.34-.2.72-.3 1.15-.3s.81.1 1.14.29c.34.19.59.47.77.82l-.65.29c-.12-.24-.29-.42-.51-.55s-.48-.2-.77-.2a1.38 1.38 0 0 0-1.28.8c-.12.25-.19.54-.19.86s.06.61.19.86.3.45.53.59.48.21.77.21.55-.07.77-.22c.23-.15.4-.35.52-.62l.64.29c-.18.38-.43.67-.77.88s-.72.32-1.15.32Zm-.28 1.75c-.11 0-.24-.02-.37-.04a2 2 0 0 1-.48-.19l.18-.42c.09.04.18.08.29.12.1.04.2.06.28.06.11 0 .2-.02.29-.06s.13-.13.13-.26c0-.15-.05-.26-.16-.33s-.28-.13-.51-.16l.26-.62.47.11-.1.23c.22.08.37.18.46.32s.14.28.14.44c0 .23-.07.42-.21.58s-.36.23-.67.23Z" fill="#fffcef" data-color="1"/>
        <path d="M205.38 52.41c-.52 0-.92-.12-1.22-.36-.29-.24-.44-.57-.44-1 0-.45.15-.79.45-1.03s.72-.36 1.25-.36h1.26v.59h-1.11c-.41 0-.71.07-.88.2a.71.71 0 0 0-.26.58c0 .23.09.41.26.54s.41.2.72.2c.25 0 .47-.05.66-.16s.33-.27.44-.47.15-.44.15-.72h.3c0 .6-.14 1.08-.41 1.44s-.67.53-1.18.53Zm1.32-.1-.03-.72v-1.61c0-.35-.04-.64-.12-.86-.08-.23-.2-.4-.36-.52s-.38-.18-.64-.18c-.24 0-.45.05-.62.15s-.32.25-.43.46l-.64-.25c.11-.21.25-.38.41-.53s.35-.27.56-.34.45-.12.73-.12q.615 0 1.02.24c.405.24.47.4.61.72s.2.71.2 1.17v2.4h-.66Zm-.39-5.01c-.17 0-.31-.03-.42-.1s-.19-.14-.26-.22-.13-.16-.19-.22-.13-.1-.2-.1c-.09 0-.17.03-.22.08s-.09.14-.12.26h-.58c.02-.16.06-.31.14-.45.07-.14.18-.25.31-.33s.28-.12.46-.12.3.03.4.1.19.14.26.22.14.16.2.22.14.1.23.1c.1 0 .17-.03.22-.09s.08-.14.1-.25h.57q-.045.36-.27.63c-.15.18-.35.27-.62.27Z" fill="#fffcef" data-color="1"/>
        <path d="M210.44 52.41c-.44 0-.82-.1-1.15-.3s-.59-.47-.78-.82-.28-.75-.28-1.2.09-.85.28-1.2.44-.62.78-.82q.495-.3 1.14-.3c.645 0 .81.1 1.14.3s.59.47.78.82.28.75.28 1.2-.09.85-.28 1.2-.44.62-.77.82-.71.3-1.13.3Zm-.01-.65c.29 0 .54-.07.77-.21.22-.14.39-.34.52-.59s.19-.54.19-.86-.06-.61-.19-.86-.3-.45-.53-.59q-.33-.21-.78-.21c-.45 0-.54.07-.76.21s-.4.34-.52.58c-.13.25-.19.54-.19.87s.06.61.19.86.3.45.53.59.48.21.77.21" fill="#fffcef" data-color="1"/>
        <path d="M217.53 52.41c-.39 0-.74-.1-1.04-.29s-.53-.47-.7-.82-.25-.75-.25-1.21.08-.86.25-1.21.4-.62.7-.81.65-.29 1.04-.29c.37 0 .7.1.98.29s.5.47.65.81c.15.35.23.75.23 1.21s-.08.86-.23 1.21-.37.62-.65.82c-.28.19-.61.29-.98.29m.16-.64q.39 0 .69-.21c.2-.14.36-.34.47-.59.12-.25.17-.54.17-.87s-.06-.61-.17-.87a1.4 1.4 0 0 0-.47-.59c-.2-.14-.43-.21-.7-.21s-.52.07-.74.21-.38.34-.51.59c-.12.25-.19.54-.19.87s.06.61.19.87c.12.25.29.45.51.59s.47.21.74.21Zm1.37.54-.03-.82v-5.37h.71v6.19h-.67Z" fill="#fffcef" data-color="1"/>
        <path d="M222.9 52.41q-.645 0-1.14-.3c-.33-.2-.59-.47-.77-.82-.19-.35-.28-.75-.28-1.2s.09-.85.28-1.2.44-.62.77-.82.7-.3 1.13-.3.77.1 1.07.3.53.49.7.85.25.8.25 1.29h-3.65l.18-.15c0 .35.06.66.19.91s.3.45.53.58.49.2.79.2c.31 0 .58-.07.79-.22s.38-.34.5-.58l.61.31q-.165.345-.45.6c-.19.17-.4.3-.65.4-.25.09-.53.14-.84.14Zm-1.43-2.63-.19-.14h3.05l-.19.15c0-.28-.06-.53-.17-.73q-.165-.315-.45-.48c-.19-.11-.41-.17-.65-.17s-.47.06-.69.17-.39.27-.52.47-.2.45-.2.73Z" fill="#fffcef" data-color="1"/>
        <path d="M228.02 54.08v-6.19h.66l.04.81v5.38h-.71Zm2.2-1.67c-.37 0-.7-.1-.98-.29s-.5-.47-.65-.82-.23-.75-.23-1.21.08-.86.23-1.21.37-.62.65-.81.61-.29.98-.29c.39 0 .74.1 1.04.29s.53.47.7.81c.17.35.25.75.25 1.21s-.08.86-.25 1.21-.4.62-.7.82-.65.29-1.04.29m-.16-.64c.28 0 .52-.07.74-.21s.39-.34.51-.59.19-.54.19-.87-.06-.61-.18-.87c-.12-.25-.29-.45-.5-.59-.22-.14-.46-.21-.75-.21q-.39 0-.69.21c-.2.14-.36.34-.48.59s-.17.54-.17.87.06.61.17.87c.11.25.27.45.47.59q.3.21.69.21" fill="#fffcef" data-color="1"/>
        <path d="M233.2 52.31v-4.42h.71v4.42zm.39-2.4c0-.48.09-.86.27-1.16s.42-.52.7-.66c.29-.14.59-.22.91-.22v.66c-.26 0-.51.04-.75.13s-.44.23-.59.42-.23.46-.23.8l-.32.04Z" fill="#fffcef" data-color="1"/>
        <path d="M238.15 52.41c-.44 0-.82-.1-1.15-.3s-.59-.47-.78-.82-.28-.75-.28-1.2.09-.85.28-1.2.44-.62.78-.82q.495-.3 1.14-.3c.645 0 .81.1 1.14.3s.59.47.78.82.28.75.28 1.2-.09.85-.28 1.2-.44.62-.77.82-.71.3-1.13.3Zm-.01-.65c.29 0 .54-.07.77-.21.22-.14.39-.34.52-.59s.19-.54.19-.86-.06-.61-.19-.86-.3-.45-.53-.59q-.33-.21-.78-.21c-.45 0-.54.07-.76.21s-.4.34-.52.58c-.13.25-.19.54-.19.87s.06.61.19.86.3.45.53.59.48.21.77.21" fill="#fffcef" data-color="1"/>
        <path d="M240.86 48.52v-.63h2.8v.63zm2.12 3.89c-.43 0-.76-.11-1-.34-.24-.22-.35-.54-.35-.95V46.5h.71v4.55c0 .22.06.4.18.52q.18.18.51.18.105 0 .21-.03c.105-.03.16-.07.27-.15l.27.57q-.225.15-.42.21c-.12.04-.25.06-.38.06" fill="#fffcef" data-color="1"/>
        <path d="M246.57 52.41q-.645 0-1.14-.3c-.33-.2-.59-.47-.77-.82-.19-.35-.28-.75-.28-1.2s.09-.85.28-1.2.44-.62.77-.82.7-.3 1.13-.3.77.1 1.07.3.53.49.7.85.25.8.25 1.29h-3.65l.18-.15c0 .35.06.66.19.91s.3.45.53.58.49.2.79.2c.31 0 .58-.07.79-.22s.38-.34.5-.58l.61.31q-.165.345-.45.6c-.19.17-.4.3-.65.4-.25.09-.53.14-.84.14Zm-1.43-2.63-.19-.14H248l-.19.15c0-.28-.06-.53-.17-.73q-.165-.315-.45-.48c-.19-.11-.41-.17-.65-.17s-.47.06-.69.17-.39.27-.52.47-.2.45-.2.73Z" fill="#fffcef" data-color="1"/>
        <path d="m249.26 47.26 1.03-1.14h.91l-1.14 1.14h-.81Zm.24 5.05v-4.42h.71v4.42z" fill="#fffcef" data-color="1"/>
        <path d="M251.51 52.31v-4.42h.66l.04.81v3.61h-.71Zm3.1-2.27c0-.44-.05-.77-.15-1s-.24-.39-.41-.47a1.3 1.3 0 0 0-.6-.13c-.39 0-.69.14-.91.41s-.32.66-.32 1.16h-.35c0-.47.07-.87.2-1.2.13-.34.33-.59.59-.77s.57-.27.94-.27.65.07.91.21q.39.21.6.66c.14.3.21.7.21 1.19v.21zm0 2.27v-2.26h.71v2.26z" fill="#fffcef" data-color="1"/>
        <path d="M257.84 52.41c-.52 0-.92-.12-1.22-.36-.29-.24-.44-.57-.44-1 0-.45.15-.79.45-1.03s.72-.36 1.25-.36h1.26v.59h-1.11c-.41 0-.71.07-.88.2a.71.71 0 0 0-.26.58c0 .23.09.41.26.54s.41.2.72.2c.25 0 .47-.05.66-.16s.33-.27.44-.47.15-.44.15-.72h.3c0 .6-.14 1.08-.41 1.44s-.67.53-1.18.53Zm1.33-.1-.03-.72v-1.61c0-.35-.04-.64-.12-.86-.08-.23-.2-.4-.36-.52s-.38-.18-.64-.18c-.24 0-.45.05-.62.15s-.32.25-.43.46l-.64-.25c.11-.21.25-.38.41-.53s.35-.27.56-.34.45-.12.73-.12q.615 0 1.02.24c.405.24.47.4.61.72s.2.71.2 1.17v2.4h-.66Z" fill="#fffcef" data-color="1"/>
        <path d="M262.5 52.41c-.32 0-.61-.05-.85-.15s-.44-.23-.61-.38c-.16-.16-.28-.33-.35-.52l.62-.26c.1.2.25.36.45.49.2.12.42.19.66.19.28 0 .51-.05.7-.16s.28-.26.28-.46c0-.18-.07-.33-.21-.44s-.34-.2-.61-.27l-.42-.11c-.4-.11-.71-.27-.94-.48-.22-.21-.34-.46-.34-.73 0-.42.14-.74.41-.98.27-.23.68-.35 1.22-.35.26 0 .5.04.71.11s.39.18.55.32.27.3.34.49l-.62.27a.77.77 0 0 0-.38-.43c-.18-.09-.39-.13-.65-.13-.27 0-.48.06-.64.17-.15.11-.23.28-.23.48 0 .12.06.23.19.33s.31.19.56.25l.44.11c.29.07.53.18.72.31.2.14.34.3.44.47q.15.27.15.57 0 .405-.21.69t-.57.45c-.24.1-.52.15-.83.15Z" fill="#fffcef" data-color="1"/>
        <path d="m264.81 53.32.5-1.87h.79l-.69 1.87h-.61Z" fill="#fffcef" data-color="1"/>
        <path d="M59 58.49v-.61h2.8v.61zm.81 3.81v-4.92c0-.46.11-.81.32-1.04.22-.23.54-.35.99-.35.12 0 .25.02.4.06s.3.1.47.18l-.27.56c-.14-.05-.25-.09-.34-.12a.8.8 0 0 0-.24-.04c-.21 0-.36.07-.46.2s-.15.34-.15.61v4.87h-.71Z" fill="#fffcef" data-color="1"/>
        <path d="M62.63 62.3v-4.42h.71v4.42zm.39-2.4c0-.48.09-.86.27-1.16s.42-.52.7-.66c.29-.14.59-.22.91-.22v.66c-.26 0-.51.04-.75.13s-.44.23-.59.42-.23.46-.23.8l-.32.04Z" fill="#fffcef" data-color="1"/>
        <path d="M65.5 60.14v-2.26h.71v2.26zm.71 0c0 .44.05.77.15 1s.24.39.42.47c.18.09.38.13.61.13q.57 0 .9-.42c.22-.28.32-.66.32-1.16h.35c0 .47-.07.87-.2 1.2s-.33.59-.59.77-.57.27-.94.27q-.51 0-.9-.21t-.6-.66c-.14-.3-.21-.7-.21-1.18v-.21h.71Zm2.44 2.16-.04-.81v-3.61h.71v4.42h-.66Z" fill="#fffcef" data-color="1"/>
        <path d="M70.09 58.5v-.63h2.8v.63zm2.12 3.9c-.43 0-.76-.11-1-.34-.24-.22-.35-.54-.35-.95v-4.62h.71v4.55c0 .22.06.4.18.52q.18.18.51.18.105 0 .21-.03c.105-.03.16-.07.27-.15l.27.57q-.225.15-.42.21c-.12.04-.25.06-.38.06" fill="#fffcef" data-color="1"/>
        <path d="M75.26 62.4c-.52 0-.92-.12-1.22-.36-.29-.24-.44-.57-.44-1 0-.45.15-.79.45-1.03s.72-.36 1.25-.36h1.26v.59h-1.11c-.41 0-.71.07-.88.2a.71.71 0 0 0-.26.58c0 .23.09.41.26.54s.41.2.72.2c.25 0 .47-.05.66-.16s.33-.27.44-.47.15-.44.15-.72h.3c0 .6-.14 1.08-.41 1.44s-.67.53-1.18.53Zm1.33-.1-.03-.72v-1.61c0-.35-.04-.64-.12-.86-.08-.23-.2-.4-.36-.52s-.38-.18-.64-.18c-.24 0-.45.05-.62.15s-.32.25-.43.46l-.64-.25c.11-.21.25-.38.41-.53s.35-.27.56-.34.45-.12.73-.12q.615 0 1.02.24c.405.24.47.4.61.72s.2.71.2 1.17v2.4h-.66Z" fill="#fffcef" data-color="1"/>
        <path d="M79.92 62.4c-.32 0-.61-.05-.85-.15s-.44-.23-.61-.38c-.16-.16-.28-.33-.35-.52l.62-.26c.1.2.25.36.45.49.2.12.42.19.66.19.28 0 .51-.05.7-.16s.28-.26.28-.46c0-.18-.07-.33-.21-.44s-.34-.2-.61-.27l-.42-.11c-.4-.11-.71-.27-.94-.48-.22-.21-.34-.46-.34-.73 0-.42.14-.74.41-.98.27-.23.68-.35 1.22-.35.26 0 .5.04.71.11s.39.18.55.32.27.3.34.49l-.62.27a.77.77 0 0 0-.38-.43c-.18-.09-.39-.13-.65-.13-.27 0-.48.06-.64.17-.15.11-.23.28-.23.48 0 .12.06.23.19.33s.31.19.56.25l.44.11c.29.07.53.18.72.31.2.14.34.3.44.47q.15.27.15.57 0 .405-.21.69t-.57.45c-.24.1-.52.15-.83.15Z" fill="#fffcef" data-color="1"/>
        <path d="M86.61 62.4q-.645 0-1.14-.3c-.33-.2-.59-.47-.77-.82-.19-.35-.28-.75-.28-1.2s.09-.85.28-1.2.44-.62.77-.82.7-.3 1.13-.3.77.1 1.07.3.53.49.7.85.25.8.25 1.29h-3.65l.18-.15c0 .35.06.66.19.91s.3.45.53.58.49.2.79.2c.31 0 .58-.07.79-.22s.38-.34.5-.58l.61.31q-.165.345-.45.6c-.19.17-.4.3-.65.4-.25.09-.53.14-.84.14Zm-1.43-2.63-.19-.14h3.05l-.19.15c0-.28-.06-.53-.17-.73q-.165-.315-.45-.48c-.19-.11-.41-.17-.65-.17s-.47.06-.69.17-.39.27-.52.47-.2.45-.2.73Z" fill="#fffcef" data-color="1"/>
        <path d="m93 62.3-1.85-4.42h.73l1.8 4.42h-.69Zm.04 0 1.8-4.42h.74l-1.85 4.42h-.7Z" fill="#fffcef" data-color="1"/>
        <path d="M98.12 62.4q-.645 0-1.14-.3c-.33-.2-.59-.47-.77-.82-.19-.35-.28-.75-.28-1.2s.09-.85.28-1.2.44-.62.77-.82.7-.3 1.13-.3.77.1 1.07.3.53.49.7.85.25.8.25 1.29h-3.65l.18-.15c0 .35.06.66.19.91s.3.45.53.58.49.2.79.2c.31 0 .58-.07.79-.22s.38-.34.5-.58l.61.31q-.165.345-.45.6c-.19.17-.4.3-.65.4-.25.09-.53.14-.84.14Zm-1.44-2.63-.19-.14h3.05l-.19.15c0-.28-.06-.53-.17-.73q-.165-.315-.45-.48c-.19-.11-.41-.17-.65-.17s-.47.06-.69.17-.39.27-.52.47-.2.45-.2.73Z" fill="#fffcef" data-color="1"/>
        <path d="M102.75 62.26c-.39 0-.74-.09-1.04-.28s-.53-.45-.7-.79-.25-.73-.25-1.16.08-.84.25-1.18.4-.6.7-.79.65-.28 1.04-.28c.37 0 .7.09.97.28.28.19.49.45.65.79s.23.73.23 1.18-.08.83-.23 1.17-.37.6-.65.79-.6.28-.97.28Zm.02 1.91c-.28 0-.54-.03-.77-.08s-.43-.12-.59-.19-.28-.13-.35-.17l.27-.57q.12.06.33.15c.14.06.31.11.5.16.19.04.4.07.61.07.28 0 .54-.06.76-.17s.4-.29.53-.54.19-.56.19-.94v-4.01h.71v4c0 .51-.09.93-.28 1.27s-.45.6-.78.77-.7.26-1.12.26Zm.15-2.52q.39 0 .69-.21c.2-.14.36-.33.47-.58.11-.24.17-.53.17-.85s-.06-.59-.17-.84a1.33 1.33 0 0 0-.47-.57q-.3-.21-.69-.21c-.39 0-.52.07-.74.21s-.38.33-.5.57q-.18.36-.18.84c0 .48.06.61.19.85.12.24.29.44.51.58.21.14.46.21.74.21Z" fill="#fffcef" data-color="1"/>
        <path d="M108.13 62.4q-.645 0-1.14-.3c-.33-.2-.59-.47-.77-.82-.19-.35-.28-.75-.28-1.2s.09-.85.28-1.2.44-.62.77-.82.7-.3 1.13-.3.77.1 1.07.3.53.49.7.85.25.8.25 1.29h-3.65l.18-.15c0 .35.06.66.19.91s.3.45.53.58.49.2.79.2c.31 0 .58-.07.79-.22s.38-.34.5-.58l.61.31q-.165.345-.45.6c-.19.17-.4.3-.65.4-.25.09-.53.14-.84.14Zm-1.43-2.63-.19-.14h3.05l-.19.15c0-.28-.06-.53-.17-.73q-.165-.315-.45-.48c-.19-.11-.41-.17-.65-.17s-.47.06-.69.17-.39.27-.52.47-.2.45-.2.73Z" fill="#fffcef" data-color="1"/>
        <path d="M110.56 58.5v-.63h2.8v.63zm2.12 3.9c-.43 0-.76-.11-1-.34-.24-.22-.35-.54-.35-.95v-4.62h.71v4.55c0 .22.06.4.18.52q.18.18.51.18.105 0 .21-.03c.105-.03.16-.07.27-.15l.27.57q-.225.15-.42.21c-.12.04-.25.06-.38.06" fill="#fffcef" data-color="1"/>
        <path d="M115.73 62.4c-.52 0-.92-.12-1.22-.36-.29-.24-.44-.57-.44-1 0-.45.15-.79.45-1.03s.72-.36 1.25-.36h1.26v.59h-1.11c-.41 0-.71.07-.88.2a.71.71 0 0 0-.26.58c0 .23.09.41.26.54s.41.2.72.2c.25 0 .47-.05.66-.16s.33-.27.44-.47.15-.44.15-.72h.3c0 .6-.14 1.08-.41 1.44s-.67.53-1.18.53Zm1.33-.1-.03-.72v-1.61c0-.35-.04-.64-.12-.86-.08-.23-.2-.4-.36-.52s-.38-.18-.64-.18c-.24 0-.45.05-.62.15s-.32.25-.43.46l-.64-.25c.11-.21.25-.38.41-.53s.35-.27.56-.34.45-.12.73-.12q.615 0 1.02.24c.405.24.47.4.61.72s.2.71.2 1.17v2.4h-.66Z" fill="#fffcef" data-color="1"/>
        <path d="M119.25 56.85c-.12 0-.22-.04-.31-.13s-.13-.19-.13-.31.04-.23.13-.31c.09-.09.19-.13.31-.13s.23.04.31.13c.09.09.13.19.13.31s-.04.22-.13.31-.19.13-.31.13m-.36 5.45v-4.42h.71v4.42z" fill="#fffcef" data-color="1"/>
        <path d="M122.44 62.4c-.32 0-.61-.05-.85-.15s-.44-.23-.61-.38c-.16-.16-.28-.33-.35-.52l.62-.26c.1.2.25.36.45.49.2.12.42.19.66.19.28 0 .51-.05.7-.16s.28-.26.28-.46c0-.18-.07-.33-.21-.44s-.34-.2-.61-.27l-.42-.11c-.4-.11-.71-.27-.94-.48-.22-.21-.34-.46-.34-.73 0-.42.14-.74.41-.98.27-.23.68-.35 1.22-.35.26 0 .5.04.71.11s.39.18.55.32.27.3.34.49l-.62.27a.77.77 0 0 0-.38-.43c-.18-.09-.39-.13-.65-.13-.27 0-.48.06-.64.17-.15.11-.23.28-.23.48 0 .12.06.23.19.33s.31.19.56.25l.44.11c.29.07.53.18.72.31.2.14.34.3.44.47q.15.27.15.57 0 .405-.21.69t-.57.45c-.24.1-.52.15-.83.15Z" fill="#fffcef" data-color="1"/>
        <path d="M129.16 62.4c-.44 0-.82-.1-1.15-.3s-.59-.47-.78-.82-.28-.75-.28-1.2.09-.85.28-1.2.44-.62.78-.82q.495-.3 1.14-.3c.645 0 .81.1 1.14.3s.59.47.78.82.28.75.28 1.2-.09.85-.28 1.2-.44.62-.77.82-.71.3-1.13.3Zm-.01-.65c.29 0 .54-.07.77-.21.22-.14.39-.34.52-.59s.19-.54.19-.86-.06-.61-.19-.86-.3-.45-.53-.59q-.33-.21-.78-.21c-.45 0-.54.07-.76.21s-.4.34-.52.58c-.13.25-.19.54-.19.87s.06.61.19.86.3.45.53.59.48.21.77.21" fill="#fffcef" data-color="1"/>
        <path d="M131.95 58.49v-.61h2.8v.61zm.82 3.81v-4.92c0-.46.11-.81.32-1.04.22-.23.54-.35.99-.35.12 0 .25.02.4.06s.3.1.47.18l-.27.56c-.14-.05-.25-.09-.34-.12a.8.8 0 0 0-.24-.04c-.21 0-.36.07-.46.2s-.15.34-.15.61v4.87h-.71Z" fill="#fffcef" data-color="1"/>
        <path d="M137.5 62.4q-.645 0-1.14-.3c-.33-.2-.59-.47-.77-.82-.19-.35-.28-.75-.28-1.2s.09-.85.28-1.2.44-.62.77-.82.7-.3 1.13-.3.77.1 1.07.3.53.49.7.85.25.8.25 1.29h-3.65l.18-.15c0 .35.06.66.19.91s.3.45.53.58.49.2.79.2c.31 0 .58-.07.79-.22s.38-.34.5-.58l.61.31q-.165.345-.45.6c-.19.17-.4.3-.65.4-.25.09-.53.14-.84.14Zm-1.44-2.63-.19-.14h3.05l-.19.15c0-.28-.06-.53-.17-.73q-.165-.315-.45-.48c-.19-.11-.41-.17-.65-.17s-.47.06-.69.17-.39.27-.52.47-.2.45-.2.73Z" fill="#fffcef" data-color="1"/>
        <path d="M140.39 62.3v-4.42h.71v4.42zm.39-2.4c0-.48.09-.86.27-1.16s.42-.52.7-.66c.29-.14.59-.22.91-.22v.66c-.26 0-.51.04-.75.13s-.44.23-.59.42-.23.46-.23.8l-.32.04Z" fill="#fffcef" data-color="1"/>
        <path d="M145.31 62.4q-.645 0-1.14-.3c-.33-.2-.59-.47-.77-.82-.19-.35-.28-.75-.28-1.2s.09-.85.28-1.2.44-.62.77-.82.7-.3 1.13-.3.77.1 1.07.3.53.49.7.85.25.8.25 1.29h-3.65l.18-.15c0 .35.06.66.19.91s.3.45.53.58.49.2.79.2c.31 0 .58-.07.79-.22s.38-.34.5-.58l.61.31q-.165.345-.45.6c-.19.17-.4.3-.65.4-.25.09-.53.14-.84.14Zm-1.43-2.63-.19-.14h3.05l-.19.15c0-.28-.06-.53-.17-.73q-.165-.315-.45-.48c-.19-.11-.41-.17-.65-.17s-.47.06-.69.17-.39.27-.52.47-.2.45-.2.73Z" fill="#fffcef" data-color="1"/>
        <path d="M150.17 62.4c-.44 0-.82-.1-1.16-.3s-.6-.47-.79-.82-.28-.75-.28-1.2.09-.85.28-1.2.45-.62.78-.82c.34-.2.72-.3 1.15-.3s.81.1 1.14.29c.34.19.59.47.77.82l-.65.29c-.12-.24-.29-.42-.51-.55s-.48-.2-.77-.2a1.38 1.38 0 0 0-1.28.8c-.12.25-.19.54-.19.86s.06.61.19.86.3.45.53.59.48.21.77.21.55-.07.77-.22c.23-.15.4-.35.52-.62l.64.29c-.18.38-.43.67-.77.88s-.72.32-1.15.32Z" fill="#fffcef" data-color="1"/>
        <path d="M154.92 62.4q-.645 0-1.14-.3c-.33-.2-.59-.47-.77-.82-.19-.35-.28-.75-.28-1.2s.09-.85.28-1.2.44-.62.77-.82.7-.3 1.13-.3.77.1 1.07.3.53.49.7.85.25.8.25 1.29h-3.65l.18-.15c0 .35.06.66.19.91s.3.45.53.58.49.2.79.2c.31 0 .58-.07.79-.22s.38-.34.5-.58l.61.31q-.165.345-.45.6c-.19.17-.4.3-.65.4-.25.09-.53.14-.84.14Zm-1.43-2.63-.19-.14h3.05l-.19.15c0-.28-.06-.53-.17-.73q-.165-.315-.45-.48c-.19-.11-.41-.17-.65-.17s-.47.06-.69.17-.39.27-.52.47-.2.45-.2.73Z" fill="#fffcef" data-color="1"/>
        <path d="M160 62.3v-4.42h.66l.04.81v3.61h-.71Zm3.1-2.27c0-.44-.05-.77-.15-1s-.24-.39-.41-.47a1.3 1.3 0 0 0-.6-.13c-.39 0-.69.14-.91.41s-.32.66-.32 1.16h-.35c0-.47.07-.87.2-1.2.13-.34.33-.59.59-.77s.57-.27.94-.27.65.07.91.21q.39.21.6.66c.14.3.21.7.21 1.19v.21zm0 2.27v-2.26h.71v2.26z" fill="#fffcef" data-color="1"/>
        <path d="M164.81 60.14v-2.26h.71v2.26zm.71 0c0 .44.05.77.15 1s.24.39.42.47c.18.09.38.13.61.13q.57 0 .9-.42c.22-.28.32-.66.32-1.16h.35c0 .47-.07.87-.2 1.2s-.33.59-.59.77-.57.27-.94.27q-.51 0-.9-.21t-.6-.66c-.14-.3-.21-.7-.21-1.18v-.21h.71Zm2.44 2.16-.04-.81v-3.61h.71v4.42h-.66Z" fill="#fffcef" data-color="1"/>
        <path d="M169.4 58.5v-.63h2.8v.63zm2.12 3.9c-.43 0-.76-.11-1-.34-.24-.22-.35-.54-.35-.95v-4.62h.71v4.55c0 .22.06.4.18.52q.18.18.51.18.105 0 .21-.03c.105-.03.16-.07.27-.15l.27.57q-.225.15-.42.21c-.12.04-.25.06-.38.06" fill="#fffcef" data-color="1"/>
        <path d="M173.2 62.3v-4.42h.71v4.42zm.39-2.4c0-.48.09-.86.27-1.16s.42-.52.7-.66c.29-.14.59-.22.91-.22v.66c-.26 0-.51.04-.75.13s-.44.23-.59.42-.23.46-.23.8l-.32.04Z" fill="#fffcef" data-color="1"/>
        <path d="M176.6 56.85c-.12 0-.22-.04-.31-.13s-.13-.19-.13-.31.04-.23.13-.31c.09-.09.19-.13.31-.13s.23.04.31.13c.09.09.13.19.13.31s-.04.22-.13.31-.19.13-.31.13m-.36 5.45v-4.42h.71v4.42z" fill="#fffcef" data-color="1"/>
        <path d="M180.18 62.4q-.645 0-1.14-.3c-.33-.2-.59-.47-.77-.82-.19-.35-.28-.75-.28-1.2s.09-.85.28-1.2.44-.62.77-.82.7-.3 1.13-.3.77.1 1.07.3.53.49.7.85.25.8.25 1.29h-3.65l.18-.15c0 .35.06.66.19.91s.3.45.53.58.49.2.79.2c.31 0 .58-.07.79-.22s.38-.34.5-.58l.61.31q-.165.345-.45.6c-.19.17-.4.3-.65.4-.25.09-.53.14-.84.14Zm-1.43-2.63-.19-.14h3.05l-.19.15c0-.28-.06-.53-.17-.73q-.165-.315-.45-.48c-.19-.11-.41-.17-.65-.17s-.47.06-.69.17-.39.27-.52.47-.2.45-.2.73Z" fill="#fffcef" data-color="1"/>
        <path d="M183.07 62.3v-4.42h.66l.04.81v3.61h-.71Zm3.1-2.27c0-.44-.05-.77-.15-1s-.24-.39-.41-.47a1.3 1.3 0 0 0-.6-.13c-.39 0-.69.14-.91.41s-.32.66-.32 1.16h-.35c0-.47.07-.87.2-1.2.13-.34.33-.59.59-.77s.57-.27.94-.27.65.07.91.21q.39.21.6.66c.14.3.21.7.21 1.19v.21zm0 2.27v-2.26h.71v2.26z" fill="#fffcef" data-color="1"/>
        <path d="M187.54 58.5v-.63h2.8v.63zm2.12 3.9c-.43 0-.76-.11-1-.34-.24-.22-.35-.54-.35-.95v-4.62h.71v4.55c0 .22.06.4.18.52q.18.18.51.18.105 0 .21-.03c.105-.03.16-.07.27-.15l.27.57q-.225.15-.42.21c-.12.04-.25.06-.38.06" fill="#fffcef" data-color="1"/>
        <path d="M193.25 62.4q-.645 0-1.14-.3c-.33-.2-.59-.47-.77-.82-.19-.35-.28-.75-.28-1.2s.09-.85.28-1.2.44-.62.77-.82.7-.3 1.13-.3.77.1 1.07.3.53.49.7.85.25.8.25 1.29h-3.65l.18-.15c0 .35.06.66.19.91s.3.45.53.58.49.2.79.2c.31 0 .58-.07.79-.22s.38-.34.5-.58l.61.31q-.165.345-.45.6c-.19.17-.4.3-.65.4-.25.09-.53.14-.84.14Zm-1.43-2.63-.19-.14h3.05l-.19.15c0-.28-.06-.53-.17-.73q-.165-.315-.45-.48c-.19-.11-.41-.17-.65-.17s-.47.06-.69.17-.39.27-.52.47-.2.45-.2.73Z" fill="#fffcef" data-color="1"/>
        <path d="M197.69 62.4c-.32 0-.61-.05-.85-.15s-.44-.23-.61-.38c-.16-.16-.28-.33-.35-.52l.62-.26c.1.2.25.36.45.49.2.12.42.19.66.19.28 0 .51-.05.7-.16s.28-.26.28-.46c0-.18-.07-.33-.21-.44s-.34-.2-.61-.27l-.42-.11c-.4-.11-.71-.27-.94-.48-.22-.21-.34-.46-.34-.73 0-.42.14-.74.41-.98.27-.23.68-.35 1.22-.35.26 0 .5.04.71.11s.39.18.55.32.27.3.34.49l-.62.27a.77.77 0 0 0-.38-.43c-.18-.09-.39-.13-.65-.13-.27 0-.48.06-.64.17-.15.11-.23.28-.23.48 0 .12.06.23.19.33s.31.19.56.25l.44.11c.29.07.53.18.72.31.2.14.34.3.44.47q.15.27.15.57 0 .405-.21.69t-.57.45c-.24.1-.52.15-.83.15Z" fill="#fffcef" data-color="1"/>
        <path d="M204.38 62.4q-.645 0-1.14-.3c-.33-.2-.59-.47-.77-.82-.19-.35-.28-.75-.28-1.2s.09-.85.28-1.2.44-.62.77-.82.7-.3 1.13-.3.77.1 1.07.3.53.49.7.85.25.8.25 1.29h-3.65l.18-.15c0 .35.06.66.19.91s.3.45.53.58.49.2.79.2c.31 0 .58-.07.79-.22s.38-.34.5-.58l.61.31q-.165.345-.45.6c-.19.17-.4.3-.65.4-.25.09-.53.14-.84.14Zm-1.43-2.63-.19-.14h3.05l-.19.15c0-.28-.06-.53-.17-.73q-.165-.315-.45-.48c-.19-.11-.41-.17-.65-.17s-.47.06-.69.17-.39.27-.52.47-.2.45-.2.73Z" fill="#fffcef" data-color="1"/>
        <path d="M208.82 62.4c-.32 0-.61-.05-.85-.15s-.44-.23-.61-.38c-.16-.16-.28-.33-.35-.52l.62-.26c.1.2.25.36.45.49.2.12.42.19.66.19.28 0 .51-.05.7-.16s.28-.26.28-.46c0-.18-.07-.33-.21-.44s-.34-.2-.61-.27l-.42-.11c-.4-.11-.71-.27-.94-.48-.22-.21-.34-.46-.34-.73 0-.42.14-.74.41-.98.27-.23.68-.35 1.22-.35.26 0 .5.04.71.11s.39.18.55.32.27.3.34.49l-.62.27a.77.77 0 0 0-.38-.43c-.18-.09-.39-.13-.65-.13-.27 0-.48.06-.64.17-.15.11-.23.28-.23.48 0 .12.06.23.19.33s.31.19.56.25l.44.11c.29.07.53.18.72.31.2.14.34.3.44.47q.15.27.15.57 0 .405-.21.69t-.57.45c-.24.1-.52.15-.83.15Z" fill="#fffcef" data-color="1"/>
        <path d="M212.94 62.4c-.32 0-.61-.05-.85-.15s-.44-.23-.61-.38c-.16-.16-.28-.33-.35-.52l.62-.26c.1.2.25.36.45.49.2.12.42.19.66.19.28 0 .51-.05.7-.16s.28-.26.28-.46c0-.18-.07-.33-.21-.44s-.34-.2-.61-.27l-.42-.11c-.4-.11-.71-.27-.94-.48-.22-.21-.34-.46-.34-.73 0-.42.14-.74.41-.98.27-.23.68-.35 1.22-.35.26 0 .5.04.71.11s.39.18.55.32.27.3.34.49l-.62.27a.77.77 0 0 0-.38-.43c-.18-.09-.39-.13-.65-.13-.27 0-.48.06-.64.17-.15.11-.23.28-.23.48 0 .12.06.23.19.33s.31.19.56.25l.44.11c.29.07.53.18.72.31.2.14.34.3.44.47q.15.27.15.57 0 .405-.21.69t-.57.45c-.24.1-.52.15-.83.15Z" fill="#fffcef" data-color="1"/>
        <path d="M217.45 62.4q-.645 0-1.14-.3c-.33-.2-.59-.47-.77-.82-.19-.35-.28-.75-.28-1.2s.09-.85.28-1.2.44-.62.77-.82.7-.3 1.13-.3.77.1 1.07.3.53.49.7.85.25.8.25 1.29h-3.65l.18-.15c0 .35.06.66.19.91s.3.45.53.58.49.2.79.2c.31 0 .58-.07.79-.22s.38-.34.5-.58l.61.31q-.165.345-.45.6c-.19.17-.4.3-.65.4-.25.09-.53.14-.84.14Zm-1.43-2.63-.19-.14h3.05l-.19.15c0-.28-.06-.53-.17-.73q-.165-.315-.45-.48c-.19-.11-.41-.17-.65-.17s-.47.06-.69.17-.39.27-.52.47-.2.45-.2.73Z" fill="#fffcef" data-color="1"/>
        <path d="M220.34 62.3v-4.42h.66l.04.81v3.61h-.71Zm3.1-2.27c0-.44-.05-.77-.15-1s-.24-.39-.41-.47a1.3 1.3 0 0 0-.6-.13c-.39 0-.69.14-.91.41s-.32.66-.32 1.16h-.35c0-.47.07-.87.2-1.2.13-.34.33-.59.59-.77s.57-.27.94-.27.65.07.91.21q.39.21.6.66c.14.3.21.7.21 1.19v.21zm0 2.27v-2.26h.71v2.26z" fill="#fffcef" data-color="1"/>
        <path d="M227.24 62.4c-.44 0-.82-.1-1.16-.3s-.6-.47-.79-.82-.28-.75-.28-1.2.09-.85.28-1.2.45-.62.78-.82c.34-.2.72-.3 1.15-.3s.81.1 1.14.29c.34.19.59.47.77.82l-.65.29c-.12-.24-.29-.42-.51-.55s-.48-.2-.77-.2a1.38 1.38 0 0 0-1.28.8c-.12.25-.19.54-.19.86s.06.61.19.86.3.45.53.59.48.21.77.21.55-.07.77-.22c.23-.15.4-.35.52-.62l.64.29c-.18.38-.43.67-.77.88s-.72.32-1.15.32Z" fill="#fffcef" data-color="1"/>
        <path d="M230.46 56.85c-.12 0-.22-.04-.31-.13s-.13-.19-.13-.31.04-.23.13-.31c.09-.09.19-.13.31-.13s.23.04.31.13c.09.09.13.19.13.31s-.04.22-.13.31-.19.13-.31.13m-.36 5.45v-4.42h.71v4.42z" fill="#fffcef" data-color="1"/>
        <path d="M233.5 62.4c-.52 0-.92-.12-1.22-.36-.29-.24-.44-.57-.44-1 0-.45.15-.79.45-1.03s.72-.36 1.25-.36h1.26v.59h-1.11c-.41 0-.71.07-.88.2a.71.71 0 0 0-.26.58c0 .23.09.41.26.54s.41.2.72.2c.25 0 .47-.05.66-.16s.33-.27.44-.47.15-.44.15-.72h.3c0 .6-.14 1.08-.41 1.44s-.67.53-1.18.53Zm1.33-.1-.03-.72v-1.61c0-.35-.04-.64-.12-.86-.08-.23-.2-.4-.36-.52s-.38-.18-.64-.18c-.24 0-.45.05-.62.15s-.32.25-.43.46l-.64-.25c.11-.21.25-.38.41-.53s.35-.27.56-.34.45-.12.73-.12q.615 0 1.02.24c.405.24.47.4.61.72s.2.71.2 1.17v2.4h-.66Z" fill="#fffcef" data-color="1"/>
        <path d="M237.02 56.85c-.12 0-.22-.04-.31-.13s-.13-.19-.13-.31.04-.23.13-.31c.09-.09.19-.13.31-.13s.23.04.31.13c.09.09.13.19.13.31s-.04.22-.13.31-.19.13-.31.13m-.36 5.45v-4.42h.71v4.42z" fill="#fffcef" data-color="1"/>
        <path d="M240.21 62.4c-.32 0-.61-.05-.85-.15s-.44-.23-.61-.38c-.16-.16-.28-.33-.35-.52l.62-.26c.1.2.25.36.45.49.2.12.42.19.66.19.28 0 .51-.05.7-.16s.28-.26.28-.46c0-.18-.07-.33-.21-.44s-.34-.2-.61-.27l-.42-.11c-.4-.11-.71-.27-.94-.48-.22-.21-.34-.46-.34-.73 0-.42.14-.74.41-.98.27-.23.68-.35 1.22-.35.26 0 .5.04.71.11s.39.18.55.32.27.3.34.49l-.62.27a.77.77 0 0 0-.38-.43c-.18-.09-.39-.13-.65-.13-.27 0-.48.06-.64.17-.15.11-.23.28-.23.48 0 .12.06.23.19.33s.31.19.56.25l.44.11c.29.07.53.18.72.31.2.14.34.3.44.47q.15.27.15.57 0 .405-.21.69t-.57.45c-.24.1-.52.15-.83.15Z" fill="#fffcef" data-color="1"/>
        <path d="M245.01 64.06v-6.19h.66l.04.81v5.38H245Zm2.2-1.66c-.37 0-.7-.1-.98-.29s-.5-.47-.65-.82-.23-.75-.23-1.21.08-.86.23-1.21.37-.62.65-.81.61-.29.98-.29c.39 0 .74.1 1.04.29s.53.47.7.81c.17.35.25.75.25 1.21s-.08.86-.25 1.21-.4.62-.7.82-.65.29-1.04.29m-.16-.64c.28 0 .52-.07.74-.21s.39-.34.51-.59.19-.54.19-.87-.06-.61-.18-.87c-.12-.25-.29-.45-.5-.59-.22-.14-.46-.21-.75-.21q-.39 0-.69.21c-.2.14-.36.34-.48.59s-.17.54-.17.87.06.61.17.87c.11.25.27.45.47.59q.3.21.69.21" fill="#fffcef" data-color="1"/>
        <path d="M251.59 62.4c-.52 0-.92-.12-1.22-.36-.29-.24-.44-.57-.44-1 0-.45.15-.79.45-1.03s.72-.36 1.25-.36h1.26v.59h-1.11c-.41 0-.71.07-.88.2a.71.71 0 0 0-.26.58c0 .23.09.41.26.54s.41.2.72.2c.25 0 .47-.05.66-.16s.33-.27.44-.47.15-.44.15-.72h.3c0 .6-.14 1.08-.41 1.44s-.67.53-1.18.53Zm1.33-.1-.03-.72v-1.61c0-.35-.04-.64-.12-.86-.08-.23-.2-.4-.36-.52s-.38-.18-.64-.18c-.24 0-.45.05-.62.15s-.32.25-.43.46l-.64-.25c.11-.21.25-.38.41-.53s.35-.27.56-.34.45-.12.73-.12q.615 0 1.02.24c.405.24.47.4.61.72s.2.71.2 1.17v2.4h-.66Z" fill="#fffcef" data-color="1"/>
        <path d="M254.7 62.3v-4.42h.71v4.42zm.39-2.4c0-.48.09-.86.27-1.16s.42-.52.7-.66c.29-.14.59-.22.91-.22v.66c-.26 0-.51.04-.75.13s-.44.23-.59.42-.23.46-.23.8l-.32.04Z" fill="#fffcef" data-color="1"/>
        <path d="M259.09 62.4c-.52 0-.92-.12-1.22-.36-.29-.24-.44-.57-.44-1 0-.45.15-.79.45-1.03s.72-.36 1.25-.36h1.26v.59h-1.11c-.41 0-.71.07-.88.2a.71.71 0 0 0-.26.58c0 .23.09.41.26.54s.41.2.72.2c.25 0 .47-.05.66-.16s.33-.27.44-.47.15-.44.15-.72h.3c0 .6-.14 1.08-.41 1.44s-.67.53-1.18.53Zm1.32-.1-.03-.72v-1.61c0-.35-.04-.64-.12-.86-.08-.23-.2-.4-.36-.52s-.38-.18-.64-.18c-.24 0-.45.05-.62.15s-.32.25-.43.46l-.64-.25c.11-.21.25-.38.41-.53s.35-.27.56-.34.45-.12.73-.12q.615 0 1.02.24c.405.24.47.4.61.72s.2.71.2 1.17v2.4h-.66Z" fill="#fffcef" data-color="1"/>
        <path d="M59.25 70.13v-2.26h.71v2.26zm.71 0c0 .44.05.77.15 1s.24.39.42.47c.18.09.38.13.61.13q.57 0 .9-.42c.33-.42.32-.66.32-1.16h.35c0 .47-.07.87-.2 1.2-.14.34-.33.59-.59.77s-.57.27-.94.27q-.51 0-.9-.21t-.6-.66c-.14-.3-.21-.7-.21-1.18v-.21h.71Zm2.44 2.15-.04-.81v-3.61h.71v4.42h-.66Z" fill="#fffcef" data-color="1"/>
        <path d="M64.3 72.28v-4.42h.66l.04.62c.14-.24.31-.42.52-.54s.46-.19.74-.19c.35 0 .66.08.91.25.25.16.43.42.54.75.12-.32.3-.57.54-.74s.52-.26.85-.26c.5 0 .89.16 1.17.5q.435.495.42 1.5v2.53h-.71v-2.26c0-.44-.05-.77-.14-1s-.21-.39-.37-.47c-.15-.09-.33-.13-.53-.13-.35 0-.62.14-.81.41-.2.27-.29.66-.29 1.16v2.29h-.71v-2.26c0-.44-.05-.77-.14-1s-.22-.39-.37-.47c-.16-.09-.33-.13-.53-.13a.93.93 0 0 0-.8.41c-.2.27-.29.66-.29 1.16v2.29h-.71Z" fill="#fffcef" data-color="1"/>
        <path d="M73.22 72.39c-.52 0-.92-.12-1.22-.36-.29-.24-.44-.57-.44-1 0-.45.15-.79.45-1.03s.72-.36 1.25-.36h1.26v.59h-1.11c-.41 0-.71.07-.88.2a.71.71 0 0 0-.26.58c0 .23.09.41.26.54s.41.2.72.2c.25 0 .47-.05.66-.16s.33-.26.44-.47q.15-.3.15-.72h.3c0 .6-.14 1.08-.41 1.44s-.67.53-1.18.53Zm1.33-.11-.03-.72v-1.61c0-.35-.04-.64-.12-.86-.08-.23-.2-.4-.36-.52s-.38-.18-.64-.18c-.24 0-.45.05-.62.15s-.32.25-.43.46l-.64-.25c.11-.21.25-.38.41-.53s.35-.26.56-.34.45-.12.73-.12q.615 0 1.02.24c.27.16.47.4.61.72s.2.71.2 1.17v2.4h-.66Z" fill="#fffcef" data-color="1"/>
        <path d="M78.52 72.28v-4.42h.66l.04.81v3.61h-.71Zm3.1-2.26c0-.44-.05-.77-.15-1s-.24-.39-.41-.47-.38-.13-.6-.13c-.39 0-.69.14-.91.41s-.32.66-.32 1.16h-.35c0-.47.07-.87.2-1.2.13-.34.33-.59.59-.77s.57-.27.94-.27.65.07.91.21q.39.21.6.66c.21.45.21.7.21 1.19v.21zm0 2.26v-2.26h.71v2.26z" fill="#fffcef" data-color="1"/>
        <path d="M83.34 70.13v-2.26h.71v2.26zm.7 0c0 .44.05.77.15 1s.24.39.42.47c.18.09.38.13.61.13q.57 0 .9-.42c.33-.42.32-.66.32-1.16h.35c0 .47-.07.87-.2 1.2-.14.34-.33.59-.59.77s-.57.27-.94.27q-.51 0-.9-.21t-.6-.66c-.14-.3-.21-.7-.21-1.18v-.21h.71Zm2.44 2.15-.04-.81v-3.61h.71v4.42h-.66Z" fill="#fffcef" data-color="1"/>
        <path d="M87.92 68.49v-.63h2.8v.63zm2.13 3.9c-.43 0-.76-.11-1-.34-.24-.22-.35-.54-.35-.95v-4.62h.71v4.55c0 .22.06.4.18.52q.18.18.51.18.105 0 .21-.03t.27-.15l.27.57q-.225.15-.42.21c-.12.04-.25.06-.38.06" fill="#fffcef" data-color="1"/>
        <path d="M91.73 72.28v-4.42h.71v4.42zm.38-2.39c0-.48.09-.86.27-1.16s.42-.52.7-.66c.29-.14.59-.22.91-.22v.66c-.26 0-.51.04-.75.13s-.44.23-.59.42c-.15.2-.23.46-.23.8l-.32.03Z" fill="#fffcef" data-color="1"/>
        <path d="M95.12 66.84c-.12 0-.22-.04-.31-.13s-.13-.19-.13-.31.04-.23.13-.31.19-.13.31-.13.23.04.31.13c.09.09.13.19.13.31s-.04.22-.13.31-.19.13-.31.13m-.36 5.44v-4.42h.71v4.42z" fill="#fffcef" data-color="1"/>
        <path d="M98.74 72.39c-.44 0-.82-.1-1.16-.3s-.6-.47-.79-.82-.28-.75-.28-1.2.09-.85.28-1.2.45-.62.78-.82c.34-.2.72-.3 1.15-.3s.81.1 1.14.29c.34.2.59.47.77.82l-.65.29c-.12-.24-.29-.42-.51-.55s-.48-.2-.77-.2-.54.07-.76.21-.4.34-.52.59c-.13.25-.19.54-.19.86s.06.61.19.86.3.45.53.59.48.21.77.21.55-.07.77-.22c.23-.15.4-.35.52-.62l.64.29c-.18.38-.43.67-.77.88s-.72.32-1.15.32Zm-.28 1.75c-.11 0-.24-.01-.37-.04-.14-.03-.29-.1-.48-.2l.18-.42c.09.04.18.08.29.12s.2.06.28.06c.11 0 .2-.02.29-.06s.13-.13.13-.26c0-.15-.05-.26-.16-.33s-.28-.13-.51-.16l.26-.62.47.11-.1.23c.22.08.37.18.46.32s.14.28.14.44c0 .23-.07.42-.21.58s-.36.23-.67.23" fill="#fffcef" data-color="1"/>
        <path d="M102.94 72.39c-.52 0-.92-.12-1.22-.36-.29-.24-.44-.57-.44-1 0-.45.15-.79.45-1.03s.72-.36 1.25-.36h1.26v.59h-1.11c-.41 0-.71.07-.88.2a.71.71 0 0 0-.26.58c0 .23.09.41.26.54s.41.2.72.2c.25 0 .47-.05.66-.16s.33-.26.44-.47q.15-.3.15-.72h.3c0 .6-.14 1.08-.41 1.44s-.67.53-1.18.53Zm1.33-.11-.03-.72v-1.61c0-.35-.04-.64-.12-.86-.08-.23-.2-.4-.36-.52s-.38-.18-.64-.18c-.24 0-.45.05-.62.15s-.32.25-.43.46l-.64-.25c.11-.21.25-.38.41-.53s.35-.26.56-.34.45-.12.73-.12q.615 0 1.02.24c.27.16.47.4.61.72s.2.71.2 1.17v2.4h-.66Zm-.39-5c-.17 0-.31-.03-.42-.1s-.19-.14-.26-.22-.13-.16-.19-.22-.13-.1-.2-.1c-.09 0-.17.02-.22.08s-.09.14-.12.26h-.58c.02-.16.06-.31.14-.45.07-.14.18-.25.31-.33s.28-.12.46-.12.3.03.4.1.19.14.26.22.14.16.2.22c.06.07.14.1.23.1.1 0 .17-.03.22-.09s.08-.14.1-.25h.57q-.045.36-.27.63c-.15.18-.35.27-.62.27Z" fill="#fffcef" data-color="1"/>
        <path d="M108.01 72.39c-.44 0-.82-.1-1.15-.3s-.59-.47-.78-.82-.28-.75-.28-1.2.09-.85.28-1.2.44-.62.78-.82q.495-.3 1.14-.3c.645 0 .81.1 1.14.3s.59.47.78.82.28.75.28 1.2-.09.85-.28 1.2-.44.62-.77.82-.71.3-1.13.3Zm-.01-.65c.29 0 .54-.07.77-.21.22-.14.39-.34.52-.59s.19-.54.19-.86-.06-.61-.19-.86-.3-.45-.53-.59q-.33-.21-.78-.21c-.45 0-.54.07-.76.21s-.4.34-.52.58c-.13.25-.19.54-.19.87s.06.61.19.86.3.45.53.59.48.21.77.21" fill="#fffcef" data-color="1"/>
        <path d="M115.1 72.39c-.39 0-.74-.1-1.04-.29-.3-.2-.53-.47-.7-.82s-.25-.75-.25-1.21.08-.86.25-1.21.4-.62.7-.81.65-.29 1.04-.29c.37 0 .7.1.98.29.28.2.5.47.65.81s.23.75.23 1.21-.08.86-.23 1.21-.37.62-.65.82c-.28.19-.61.29-.98.29m.16-.64q.39 0 .69-.21c.3-.21.36-.34.47-.59.12-.25.17-.54.17-.87s-.06-.61-.17-.87c-.11-.25-.27-.45-.47-.59s-.43-.21-.7-.21-.52.07-.74.21-.38.34-.51.59c-.12.25-.19.54-.19.87s.06.61.19.87c.12.25.29.45.51.59s.47.21.74.21Zm1.37.53-.03-.82v-5.37h.71v6.19h-.67Z" fill="#fffcef" data-color="1"/>
        <path d="M120.47 72.39q-.645 0-1.14-.3c-.33-.2-.59-.47-.77-.82-.19-.35-.28-.75-.28-1.2s.09-.85.28-1.2.44-.62.77-.82.7-.3 1.13-.3.77.1 1.07.3.53.49.7.85.25.8.25 1.29h-3.65l.18-.15c0 .35.06.66.19.91s.3.45.53.58.49.2.79.2c.31 0 .58-.07.79-.22.22-.15.38-.34.5-.58l.61.31q-.165.345-.45.6c-.19.17-.4.3-.65.4-.25.09-.53.14-.84.14Zm-1.43-2.63-.19-.14h3.05l-.19.15c0-.28-.06-.53-.17-.73q-.165-.315-.45-.48c-.19-.11-.41-.17-.65-.17s-.47.06-.69.17-.39.27-.52.47-.2.45-.2.73Z" fill="#fffcef" data-color="1"/>
        <path d="m126.86 72.28-1.85-4.42h.73l1.8 4.42h-.69Zm.04 0 1.8-4.42h.74l-1.85 4.42h-.7Z" fill="#fffcef" data-color="1"/>
        <path d="M131.97 72.39q-.645 0-1.14-.3c-.33-.2-.59-.47-.77-.82-.19-.35-.28-.75-.28-1.2s.09-.85.28-1.2.44-.62.77-.82.7-.3 1.13-.3.77.1 1.07.3.53.49.7.85.25.8.25 1.29h-3.65l.18-.15c0 .35.06.66.19.91s.3.45.53.58.49.2.79.2c.31 0 .58-.07.79-.22.22-.15.38-.34.5-.58l.61.31q-.165.345-.45.6c-.19.17-.4.3-.65.4-.25.09-.53.14-.84.14Zm-1.43-2.63-.19-.14h3.05l-.19.15c0-.28-.06-.53-.17-.73q-.165-.315-.45-.48c-.19-.11-.41-.17-.65-.17s-.47.06-.69.17-.39.27-.52.47-.2.45-.2.73Z" fill="#fffcef" data-color="1"/>
        <path d="M134.86 72.28v-4.42h.71v4.42zm.39-2.39c0-.48.09-.86.27-1.16s.42-.52.7-.66c.29-.14.59-.22.91-.22v.66c-.26 0-.51.04-.75.13s-.44.23-.59.42c-.15.2-.23.46-.23.8l-.32.03Z" fill="#fffcef" data-color="1"/>
        <path d="M139.59 72.39c-.39 0-.74-.1-1.04-.29-.3-.2-.53-.47-.7-.82s-.25-.75-.25-1.21.08-.86.25-1.21.4-.62.7-.81.65-.29 1.04-.29c.37 0 .7.1.98.29.28.2.5.47.65.81s.23.75.23 1.21-.08.86-.23 1.21-.37.62-.65.82c-.28.19-.61.29-.98.29m.16-.64q.39 0 .69-.21c.3-.21.36-.34.47-.59.12-.25.17-.54.17-.87s-.06-.61-.17-.87c-.11-.25-.27-.45-.47-.59s-.43-.21-.7-.21-.52.07-.74.21-.38.34-.51.59c-.12.25-.19.54-.19.87s.06.61.19.87c.12.25.29.45.51.59s.47.21.74.21Zm1.37.53-.03-.82v-5.37h.71v6.19h-.67Z" fill="#fffcef" data-color="1"/>
        <path d="M144.43 72.39c-.52 0-.92-.12-1.22-.36-.29-.24-.44-.57-.44-1 0-.45.15-.79.45-1.03s.72-.36 1.25-.36h1.26v.59h-1.11c-.41 0-.71.07-.88.2a.71.71 0 0 0-.26.58c0 .23.09.41.26.54s.41.2.72.2c.25 0 .47-.05.66-.16s.33-.26.44-.47q.15-.3.15-.72h.3c0 .6-.14 1.08-.41 1.44s-.67.53-1.18.53Zm1.33-.11-.03-.72v-1.61c0-.35-.04-.64-.12-.86-.08-.23-.2-.4-.36-.52s-.38-.18-.64-.18c-.24 0-.45.05-.62.15s-.32.25-.43.46l-.64-.25c.11-.21.25-.38.41-.53s.35-.26.56-.34.45-.12.73-.12q.615 0 1.02.24c.27.16.47.4.61.72s.2.71.2 1.17v2.4h-.66Z" fill="#fffcef" data-color="1"/>
        <path d="M149.28 72.39c-.39 0-.74-.1-1.04-.29-.3-.2-.53-.47-.7-.82s-.25-.75-.25-1.21.08-.86.25-1.21.4-.62.7-.81.65-.29 1.04-.29c.37 0 .7.1.98.29.28.2.5.47.65.81s.23.75.23 1.21-.08.86-.23 1.21-.37.62-.65.82c-.28.19-.61.29-.98.29m.16-.64q.39 0 .69-.21c.3-.21.36-.34.47-.59.12-.25.17-.54.17-.87s-.06-.61-.17-.87c-.11-.25-.27-.45-.47-.59s-.43-.21-.7-.21-.52.07-.74.21-.38.34-.51.59c-.12.25-.19.54-.19.87s.06.61.19.87c.12.25.29.45.51.59s.47.21.74.21Zm1.37.53-.03-.82v-5.37h.71v6.19h-.67Z" fill="#fffcef" data-color="1"/>
        <path d="M154.66 72.39q-.645 0-1.14-.3c-.33-.2-.59-.47-.77-.82-.19-.35-.28-.75-.28-1.2s.09-.85.28-1.2.44-.62.77-.82.7-.3 1.13-.3.77.1 1.07.3.53.49.7.85.25.8.25 1.29h-3.65l.18-.15c0 .35.06.66.19.91s.3.45.53.58.49.2.79.2c.31 0 .58-.07.79-.22.22-.15.38-.34.5-.58l.61.31q-.165.345-.45.6c-.19.17-.4.3-.65.4-.25.09-.53.14-.84.14Zm-1.44-2.63-.19-.14h3.05l-.19.15c0-.28-.06-.53-.17-.73q-.165-.315-.45-.48c-.19-.11-.41-.17-.65-.17s-.47.06-.69.17-.39.27-.52.47-.2.45-.2.73Z" fill="#fffcef" data-color="1"/>
        <path d="M157.85 72.41c-.14 0-.25-.05-.35-.15s-.15-.21-.15-.34.05-.25.15-.35.21-.15.35-.15.25.05.35.15c.09.1.14.21.14.35s-.05.24-.14.34c-.1.1-.21.15-.35.15" fill="#fffcef" data-color="1"/>
        <path fill="#fffcef" d="M47.15 49.73c0 17.469-14.161 31.63-31.63 31.63s-31.63-14.161-31.63-31.63S-1.949 18.1 15.52 18.1s31.63 14.161 31.63 31.63" data-color="1"/>
        <path d="M6.31 37.58c-.1 0-.2-.05-.27-.13a.343.343 0 0 1 .06-.47c.92-.7 1.92-1.3 2.98-1.77.17-.08.37 0 .44.17.08.17 0 .37-.17.44-1.01.46-1.97 1.03-2.85 1.7-.06.05-.13.07-.2.07Z" fill="#00578a" data-color="2"/>
        <path d="M15.49 64.91c-8.57 0-15.55-6.97-15.55-15.54 0-3.89 1.45-7.62 4.07-10.49.12-.14.34-.14.47-.02.14.12.15.33.02.47C1.99 42.08.6 45.64.6 49.37c0 8.2 6.67 14.88 14.88 14.88s14.88-6.67 14.88-14.88S23 33.86 14.28 34.54c-.18.02-.34-.12-.36-.31-.01-.18.12-.34.31-.36.42-.03.84-.05 1.25-.05 8.57 0 15.54 6.97 15.54 15.54S24.05 64.9 15.48 64.9Z" fill="#00578a" data-color="2"/>
        <path d="M18.4 69.52c-.53 0-1.05-.17-1.49-.49-.88-.64-2.37-.65-3.26-.03-.56.39-1.24.54-1.92.41-.67-.13-1.25-.51-1.64-1.08-.61-.9-2-1.42-3.05-1.15-.66.18-1.35.08-1.94-.27s-1-.91-1.17-1.57c-.26-1.05-1.39-2.02-2.47-2.12-.68-.06-1.3-.39-1.73-.91-.44-.53-.64-1.2-.56-1.88.11-1.08-.62-2.38-1.6-2.84-.62-.29-1.09-.81-1.31-1.45a2.52 2.52 0 0 1 .11-1.96c.48-.97.23-2.45-.53-3.21-.48-.49-.75-1.13-.74-1.81 0-.68.28-1.32.78-1.8.78-.75 1.05-2.22.6-3.2-.29-.62-.31-1.32-.07-1.96s.72-1.15 1.34-1.42c.99-.44 1.75-1.72 1.66-2.8-.06-.68.16-1.34.6-1.86.45-.52 1.07-.83 1.75-.88 1.08-.07 2.23-1.02 2.52-2.07.18-.66.61-1.21 1.2-1.55.6-.34 1.29-.42 1.95-.23 1.04.3 2.45-.2 3.07-1.08.39-.56.98-.93 1.66-1.04s1.35.05 1.91.45c.88.64 2.37.65 3.26.03.56-.39 1.24-.54 1.91-.41s1.25.51 1.64 1.08c.61.9 2 1.42 3.05 1.15.66-.18 1.35-.08 1.94.27s1 .91 1.17 1.57c.26 1.05 1.39 2.02 2.47 2.12.68.06 1.3.39 1.73.92s.63 1.2.56 1.88c-.11 1.08.62 2.38 1.6 2.84.62.29 1.09.81 1.31 1.45.23.65.19 1.34-.11 1.96-.48.97-.23 2.45.53 3.21.48.49.74 1.13.74 1.82 0 .68-.28 1.32-.78 1.8-.78.75-1.05 2.22-.6 3.2.29.62.31 1.32.07 1.96s-.72 1.15-1.34 1.42c-.99.44-1.75 1.72-1.66 2.8.06.68-.16 1.34-.6 1.86-.45.52-1.07.83-1.75.88-1.08.08-2.23 1.02-2.52 2.07a2.56 2.56 0 0 1-1.2 1.55c-.6.34-1.29.42-1.95.23-.53-.15-1.19-.11-1.8.13-.54.21-.99.55-1.28.95a2.49 2.49 0 0 1-2.08 1.07Zm-3.15-1.64c.74 0 1.49.21 2.05.61.41.3.91.42 1.41.33.5-.08.93-.36 1.22-.77.36-.51.92-.93 1.58-1.19.74-.29 1.55-.34 2.22-.15.49.14 1 .08 1.44-.17s.75-.65.89-1.14c.36-1.32 1.75-2.46 3.12-2.56.5-.03.96-.26 1.29-.65.33-.38.49-.87.44-1.37-.12-1.36.8-2.92 2.05-3.47.46-.2.81-.58.99-1.05s.16-.98-.05-1.44c-.57-1.24-.24-3.02.74-3.96.36-.35.57-.82.57-1.33s-.19-.98-.54-1.34c-.96-.97-1.26-2.75-.66-3.98.22-.45.25-.97.08-1.44a1.83 1.83 0 0 0-.97-1.07c-1.23-.58-2.12-2.16-1.98-3.51.05-.5-.09-.99-.42-1.38-.32-.39-.77-.63-1.28-.68-1.36-.12-2.73-1.3-3.06-2.62-.12-.49-.43-.9-.86-1.16s-.94-.33-1.43-.2c-1.32.35-3.01-.29-3.77-1.42-.28-.42-.71-.7-1.21-.79s-1 .02-1.41.3c-1.12.78-2.93.76-4.03-.04-.41-.3-.91-.41-1.4-.33-.5.08-.93.36-1.22.77-.79 1.12-2.49 1.72-3.8 1.34-.49-.14-1-.08-1.44.17s-.75.65-.89 1.14c-.36 1.32-1.75 2.46-3.11 2.56-.5.04-.96.27-1.29.65s-.49.87-.44 1.37c.12 1.36-.81 2.92-2.05 3.47-.46.21-.81.58-.99 1.05s-.16.99.05 1.44c.57 1.24.24 3.02-.74 3.96-.36.35-.57.82-.57 1.33 0 .5.19.98.54 1.34.96.97 1.26 2.75.66 3.98-.22.45-.25.97-.08 1.44.17.48.51.86.97 1.07 1.23.58 2.12 2.16 1.98 3.51-.05.5.09.99.42 1.38.32.39.77.63 1.28.67 1.36.12 2.73 1.3 3.06 2.62.12.49.43.9.86 1.16s.94.33 1.43.2c1.32-.35 3.01.29 3.77 1.42.28.42.71.7 1.21.79s1-.01 1.41-.3c.55-.38 1.26-.57 1.98-.57Z" fill="#00578a" data-color="2"/>
        <path d="M6.31 37.58c-.1 0-.2-.05-.27-.13a.343.343 0 0 1 .06-.47c.92-.7 1.92-1.3 2.98-1.77.17-.08.37 0 .44.17.08.17 0 .37-.17.44-1.01.46-1.96 1.03-2.85 1.7-.06.05-.13.07-.2.07Z" fill="#00578a" data-color="2"/>
        <path d="M15.49 64.91c-8.57 0-15.55-6.97-15.55-15.54 0-3.89 1.45-7.62 4.07-10.49.12-.14.34-.14.47-.02.14.12.15.33.02.47C1.99 42.08.6 45.64.6 49.37c0 8.2 6.67 14.88 14.88 14.88s14.88-6.67 14.88-14.88-6.67-14.88-14.88-14.88c-.4 0-.81.02-1.2.05-.19.02-.34-.12-.36-.31-.01-.18.12-.34.31-.36.41-.03.83-.05 1.25-.05 8.57 0 15.54 6.97 15.54 15.54S24.05 64.9 15.48 64.9Z" fill="#00578a" data-color="2"/>
        <path d="M20.33 59.53h-9.14c-.59 0-1.07-.48-1.07-1.07v-1.17c0-.21.17-.38.38-.38H21c.21 0 .38.17.38.38v1.17c0 .59-.48 1.07-1.07 1.07Zm-9.43-1.86v.79c0 .17.13.3.3.3h9.14c.17 0 .3-.13.3-.3v-.79z" fill="#00578a" data-color="2"/>
        <path d="M21.02 57.67c-.21 0-.39-.17-.39-.38a.4.4 0 0 1 .2-.34c.01 0 1.12-.64 2.18-2.06 1.35-1.81 2.02-4 1.99-6.53H6.54c-.04 3.16 1.06 5.3 2.01 6.56 1.06 1.41 2.15 2.02 2.16 2.03.19.1.25.34.15.52-.1.19-.34.25-.52.15-.05-.03-1.24-.7-2.4-2.24-.68-.91-1.21-1.92-1.57-2.99-.45-1.36-.65-2.85-.59-4.43 0-.21.18-.37.38-.37h19.21c.21 0 .38.16.38.37.06 1.58-.13 3.07-.59 4.43-.36 1.08-.89 2.09-1.57 2.99-1.16 1.53-2.35 2.21-2.4 2.24-.06.03-.12.05-.19.05Z" fill="#00578a" data-color="2"/>
        <path d="M25.25 50.79H6.29a.38.38 0 1 1 0-.76h18.96a.38.38 0 1 1 0 .76" fill="#00578a" data-color="2"/>
        <path d="M7.41 48.37c-.15 0-.28-.08-.35-.22-.44-.89-.53-1.77-.54-2.21a.2.2 0 0 0-.04-.11q-.855-1.02-.69-2.04c.15-.97.97-1.61 1.44-1.91.02 0 .03-.03.03-.04.04-.68.42-1.19 1.05-1.39.02 0 .04-.02.04-.04.37-.9 1.16-.98 1.78-.76h.05c.42-.16.79-.16 1.1-.01.29.14.51.4.64.76 0 .02.03.04.05.05.75.19 1.03.78 1.12 1.11 0 .02.02.04.04.05.36.18.62.52.71.66.02.03.04.06.05.09.33.65.38 1.25.15 1.78-.23.52-.68.84-1.03 1.02.25.57.12 1 .05 1.15v.01c-.02.03-.03.06-.03.07-.07.13-.21.2-.36.19-.91-.07-1.56.07-1.93.41-.23.21-.36.52-.36.91v.08c0 .21-.16.39-.37.4-.21 0-.39-.16-.4-.37s0-.08 0-.11c.01-.6.22-1.11.61-1.46.48-.43 1.2-.64 2.17-.62 0-.14-.05-.35-.24-.6a.394.394 0 0 1 .08-.54q.06-.045.12-.06s.74-.22.98-.78c.13-.31.09-.68-.14-1.12-.09-.13-.25-.32-.4-.39a.83.83 0 0 1-.44-.53c-.09-.31-.28-.51-.57-.58a.84.84 0 0 1-.59-.54c-.04-.11-.11-.26-.24-.32-.15-.07-.36-.02-.51.04-.19.07-.39.07-.58 0-.59-.21-.75.19-.81.33-.09.23-.28.4-.52.48-.32.1-.49.34-.51.7-.02.27-.16.51-.39.65-.29.18-.98.68-1.09 1.38-.07.44.11.92.52 1.42.14.16.21.37.22.58 0 .31.07 1.1.46 1.89.09.19.01.42-.18.51-.05.03-.11.04-.17.04Z" fill="#00578a" data-color="2"/>
        <path d="M9.04 48.37c-.17 0-.33-.12-.37-.29-.06-.23-.11-.46-.15-.68a7.4 7.4 0 0 1-.12-1.56c.02-.44.08-.69.08-.72v-.01c.55-1.96 1.32-3.02 2.28-3.15.63-.08 1.07.28 1.12.32l-.5.58s-.23-.18-.52-.14c-.6.08-1.2 1.02-1.64 2.58-.04.18-.06.37-.06.56-.01.48.02.94.11 1.39.04.2.08.41.14.62.05.21-.07.42-.27.47-.03 0-.07.01-.1.01Z" fill="#00578a" data-color="2"/>
        <path d="M8.78 46.24a.38.38 0 0 1-.38-.38c0-.04 0-.08.02-.12.09-.28.34-.65.99-.82.22-.05.44-.08.67-.08.21 0 .38.19.37.4 0 .21-.19.38-.4.37-.17 0-.8.04-.9.36-.05.16-.2.27-.37.27" fill="#00578a" data-color="2"/>
        <path d="M9.17 44.63h-.06c-.38-.05-.68-.23-.87-.51-.36-.53-.22-1.23-.21-1.3.05-.21.25-.34.46-.29s.34.25.29.46c-.03.12-.06.49.09.7.05.06.13.15.35.18a.387.387 0 0 1-.05.77Z" fill="#00578a" data-color="2"/>
        <path d="M11.05 43.8c-.12-.09-.25-.16-.4-.2-.3-.09-.6-.04-.89.13-.18.11-.42.05-.53-.13a.39.39 0 0 1 .13-.53c.61-.37 1.17-.31 1.53-.2.24.07.46.19.65.34l-.5.58Z" fill="#00578a" data-color="2"/>
        <path d="M14.4 48.37h-.01c-.21 0-.38-.18-.37-.4v-.08q-.015-1.185-1.38-1.35a.383.383 0 1 1 .1-.76c.74.09 1.29.38 1.65.84.26.34.4.77.41 1.26v.11c0 .21-.18.37-.39.37Z" fill="#00578a" data-color="2"/>
        <path d="M17.86 45.67c-.21 0-.38-.17-.38-.39 0-.08.02-.15.07-.21.28-.42.39-.83.31-1.22-.14-.66-.8-1.14-1.08-1.31a.84.84 0 0 1-.39-.65c-.02-.36-.19-.6-.51-.7a.83.83 0 0 1-.52-.48c-.06-.15-.22-.54-.81-.33-.19.07-.39.06-.58 0-.15-.06-.36-.11-.51-.04-.13.06-.2.21-.24.32-.09.27-.31.47-.59.54-.08.02-.15.05-.22.09-.18.11-.42.04-.52-.14s-.04-.41.13-.52c.13-.08.27-.14.42-.17.02 0 .04-.02.05-.05.13-.36.35-.63.64-.76.31-.15.68-.14 1.1.01h.05c.62-.22 1.41-.13 1.78.77 0 .02.02.04.04.04.63.2 1.01.71 1.05 1.39 0 .02.01.03.03.04.45.28 1.23.89 1.42 1.8.13.59-.01 1.2-.42 1.8-.07.11-.19.17-.32.17" fill="#00578a" data-color="2"/>
        <path d="M15.37 48.37a.38.38 0 0 1-.38-.38c0-.03 0-.07.01-.1.06-.21.1-.42.14-.62.08-.46.12-.92.11-1.38 0-.2-.03-.39-.06-.57-.09-.34-.2-.65-.3-.92s-.23-.54-.37-.79c-.1-.19-.03-.42.15-.52s.4-.04.51.14c.16.29.31.59.42.9.12.3.23.64.33 1v.01c0 .03.06.27.08.7a6.8 6.8 0 0 1-.12 1.57c-.04.22-.09.45-.15.68-.04.17-.2.29-.37.29Z" fill="#00578a" data-color="2"/>
        <path d="M13.43 42.72a.38.38 0 1 1 0-.76.38.38 0 0 1 0 .76" fill="#00578a" data-color="2"/>
        <path d="M15.62 46.24c-.17 0-.32-.11-.37-.27-.1-.32-.75-.37-.9-.36-.21 0-.39-.16-.4-.37s.16-.39.37-.4c.23 0 .45.02.67.08.66.17.9.54.99.82.06.2-.05.42-.25.48-.04.01-.08.02-.12.02Z" fill="#00578a" data-color="2"/>
        <path d="M15.23 44.63c-.21 0-.39-.17-.39-.38 0-.19.14-.36.33-.38.22-.03.3-.12.35-.19.15-.22.11-.61.09-.7-.05-.21.08-.41.29-.46s.41.08.46.29c.02.08.16.78-.21 1.3-.19.28-.5.46-.87.51h-.05Z" fill="#00578a" data-color="2"/>
        <path d="M22.14 48.37a.38.38 0 0 1-.38-.38c0-.06.01-.12.04-.17.09-.18.36-.72-.44-1.61-.25-.28-.6-.58-.99-.85-.29-.2-.51-.32-.51-.32h-.01c-.89-.53-2.77 1.28-4.13 3.18-.12.17-.36.21-.54.09a.393.393 0 0 1-.09-.54c.22-.31 1.03-1.4 1.97-2.28 1.3-1.22 2.36-1.6 3.17-1.13.04.02.27.15.58.36.45.31.83.64 1.13.97.95 1.07.83 1.93.55 2.47-.07.13-.2.21-.34.21Z" fill="#00578a" data-color="2"/>
        <path d="M20.58 45.42c-.2 0-.37-.16-.38-.36-.05-.82-.3-2.13-.67-2.46a.95.95 0 0 1-.31-.92.85.85 0 0 1 .45-.6c.32-.16.73-.11 1.26.13s.57.27.94.88c.16-.18.37-.34.63-.41.21-.06.54-.08.9.17.31.22.53.56.59.93.07.45.03 1.32-1.03 2.19-.16.13-.41.11-.54-.06a.383.383 0 0 1 .06-.54c.73-.59.82-1.13.76-1.47a.65.65 0 0 0-.26-.42c-.12-.09-.2-.08-.26-.07-.24.07-.49.46-.57.64-.09.19-.32.28-.51.19a.4.4 0 0 1-.22-.27c-.15-.74-.76-1.05-.8-1.07-.45-.2-.59-.14-.59-.14-.02.01-.04.07-.04.08-.01.06.01.13.07.17.35.3.6.89.77 1.79.08.39.13.79.16 1.19.01.21-.15.39-.36.41h-.02Z" fill="#00578a" data-color="2"/>
        <path d="M24.73 46.96c-.27 0-.53-.1-.74-.26-.41-.33-1.65-.4-2.33-.38-.21 0-.39-.16-.4-.37 0-.05 0-.1.02-.15-.2.07-.42-.03-.49-.23a.33.33 0 0 1-.01-.22l.64-2.55a.386.386 0 1 1 .76.14c0 .01 0 .03-.01.04l-.41 1.67c.93-.47 1.75-.63 2.46-.47.58.13 1.08.49 1.39 1 .09.15.15.32.17.49.04.4-.04.72-.24.95-.16.18-.39.3-.67.33h-.12Zm-2.8-1.41c.61 0 1.91.06 2.53.55.08.07.19.11.3.1.12-.01.27-.03.23-.43 0-.06-.03-.12-.06-.17-.2-.33-.53-.56-.9-.65-.61-.14-1.4.07-2.32.61h.22Z" fill="#00578a" data-color="2"/>
    </g>
</svg>
