<?xml version="1.0" encoding="UTF-8"?>
<svg data-bbox="27.73 21.03 179.41 55.1" viewBox="0 0 250 100" xmlns="http://www.w3.org/2000/svg" data-type="color">
    <g>
        <path d="M95.55 34.52c-.25 0-.5-.04-.74-.1s-.46-.17-.66-.29-.36-.26-.49-.42a.95.95 0 0 1-.23-.5l1.42-.39q.075.195.24.33c.11.09.26.14.44.15.14 0 .27-.03.38-.12.11-.08.17-.19.17-.32 0-.09-.03-.17-.1-.25a.52.52 0 0 0-.3-.17l-.81-.21a1.9 1.9 0 0 1-.71-.33c-.2-.15-.35-.33-.45-.55-.11-.22-.16-.46-.16-.72 0-.53.18-.94.53-1.24.35-.29.85-.44 1.48-.44.34 0 .64.04.9.13s.48.22.67.41.34.43.47.74l-1.41.41a.7.7 0 0 0-.2-.31c-.1-.1-.25-.15-.43-.15s-.31.04-.4.12-.14.19-.14.34q0 .135.12.24c.12.105.19.12.33.16l.82.21q.615.15.96.6c.23.3.35.64.35 1.03 0 .35-.08.66-.24.9-.16.25-.39.43-.7.56-.3.13-.67.19-1.09.19Z" fill="#fffcef" data-color="1"/>
        <path d="m97.88 34.43 2.06-5.39h1.42l-1.97 5.39zm.97-.87v-1.25h3.73v1.25zm3.18.87-1.97-5.39h1.42l2.06 5.39z" fill="#fffcef" data-color="1"/>
        <path d="M106.27 34.52c-.48 0-.89-.09-1.23-.26s-.61-.42-.79-.75-.27-.71-.27-1.17v-3.3h1.42v3.3c0 .18.04.33.11.46s.17.23.3.29.29.1.47.1.34-.03.48-.1a.7.7 0 0 0 .3-.29c.07-.13.1-.28.1-.46v-3.3h1.42v3.3c0 .45-.09.84-.28 1.17-.18.33-.45.58-.8.75s-.76.26-1.25.26Zm-.25-5.67.85-1.12h1.46l-1 1.12z" fill="#fffcef" data-color="1"/>
        <path d="M109.44 34.43v-5.39h1.8c.59 0 1.11.12 1.57.35.45.23.81.55 1.07.95s.38.87.38 1.4-.13.99-.38 1.39c-.26.41-.61.72-1.07.96-.46.23-.98.35-1.57.35h-1.8Zm1.43-1.35h.38c.23 0 .43-.03.62-.1s.35-.16.49-.28.25-.26.32-.42c.08-.16.12-.35.12-.55s-.04-.38-.12-.55c-.08-.16-.19-.3-.32-.42-.14-.12-.3-.21-.49-.28s-.4-.1-.62-.1h-.38z" fill="#fffcef" data-color="1"/>
        <path d="M114.92 34.43v-5.39h3.61v1.31h-2.19v.75h1.77v1.27h-1.77v.75h2.24v1.31h-3.67Z" fill="#fffcef" data-color="1"/>
        <path d="M121.2 34.43v-5.39h1.8c.59 0 1.11.12 1.57.35.45.23.81.55 1.07.95s.38.87.38 1.4-.13.99-.38 1.39c-.26.41-.61.72-1.07.96-.46.23-.98.35-1.57.35h-1.8Zm1.42-1.35h.38c.23 0 .43-.03.62-.1s.35-.16.49-.28.25-.26.32-.42c.08-.16.12-.35.12-.55s-.04-.38-.12-.55c-.08-.16-.19-.3-.32-.42-.14-.12-.3-.21-.49-.28s-.4-.1-.62-.1h-.38z" fill="#fffcef" data-color="1"/>
        <path d="M129.29 34.52q-.84 0-1.5-.36c-.66-.36-.77-.57-1.02-.99s-.37-.9-.37-1.44.12-1.03.37-1.44c.25-.42.58-.75 1.02-.99.43-.24.93-.36 1.49-.36s1.06.12 1.49.36q.645.36 1.02.99c.25.42.37.9.37 1.44s-.12 1.02-.37 1.44c-.24.42-.58.75-1.01.99s-.93.36-1.49.36m0-1.31c.28 0 .52-.06.73-.19s.38-.3.49-.52c.12-.22.18-.47.18-.76s-.06-.54-.18-.77c-.12-.22-.29-.4-.5-.52-.21-.13-.46-.19-.74-.19s-.51.06-.73.19c-.21.12-.38.3-.5.52s-.18.48-.18.77.06.54.18.76.29.39.5.52.46.19.74.19Z" fill="#fffcef" data-color="1"/>
        <path d="M136.47 34.52c-.25 0-.5-.04-.74-.1s-.46-.17-.66-.29-.36-.26-.49-.42a.95.95 0 0 1-.23-.5l1.42-.39q.075.195.24.33c.11.09.26.14.44.15.14 0 .27-.03.38-.12.11-.08.17-.19.17-.32 0-.09-.03-.17-.1-.25a.52.52 0 0 0-.3-.17l-.81-.21a1.9 1.9 0 0 1-.71-.33c-.2-.15-.35-.33-.45-.55-.11-.22-.16-.46-.16-.72 0-.53.18-.94.53-1.24.35-.29.85-.44 1.48-.44.34 0 .64.04.9.13s.48.22.67.41.34.43.47.74l-1.41.41a.7.7 0 0 0-.2-.31c-.1-.1-.25-.15-.43-.15s-.31.04-.4.12-.14.19-.14.34q0 .135.12.24c.12.105.19.12.33.16l.82.21q.615.15.96.6c.23.3.35.64.35 1.03 0 .35-.08.66-.24.9-.16.25-.39.43-.7.56-.3.13-.67.19-1.09.19Z" fill="#fffcef" data-color="1"/>
        <path d="M139.2 34.43v-5.39h1.42v5.39z" fill="#fffcef" data-color="1"/>
        <path d="M143.44 34.52c-.25 0-.5-.04-.74-.1s-.46-.17-.66-.29-.36-.26-.49-.42a.95.95 0 0 1-.23-.5l1.42-.39q.075.195.24.33c.11.09.26.14.44.15.14 0 .27-.03.38-.12.11-.08.17-.19.17-.32 0-.09-.03-.17-.1-.25a.52.52 0 0 0-.3-.17l-.81-.21a1.9 1.9 0 0 1-.71-.33c-.2-.15-.35-.33-.45-.55-.11-.22-.16-.46-.16-.72 0-.53.18-.94.53-1.24.35-.29.85-.44 1.48-.44.34 0 .64.04.9.13s.48.22.67.41.34.43.47.74l-1.41.41a.7.7 0 0 0-.2-.31c-.1-.1-.25-.15-.43-.15s-.31.04-.4.12-.14.19-.14.34q0 .135.12.24c.12.105.19.12.33.16l.82.21q.615.15.96.6c.23.3.35.64.35 1.03 0 .35-.08.66-.24.9-.16.25-.39.43-.7.56-.3.13-.67.19-1.09.19Z" fill="#fffcef" data-color="1"/>
        <path d="M147.36 34.43v-4.08h-1.52v-1.31h4.47v1.31h-1.52v4.08h-1.42Z" fill="#fffcef" data-color="1"/>
        <path d="M150.9 34.43v-5.39h3.61v1.31h-2.19v.75h1.77v1.27h-1.77v.75h2.24v1.31h-3.67Z" fill="#fffcef" data-color="1"/>
        <path d="M155.41 34.43v-5.39h1.58l1.3 1.92 1.3-1.92h1.58v5.39h-1.42v-3.19l-1.45 2.11-1.46-2.11v3.19h-1.42Z" fill="#fffcef" data-color="1"/>
        <path d="m161.68 34.43 2.06-5.39h1.42l-1.97 5.39zm.97-.87v-1.25h3.73v1.25zm3.18.87-1.97-5.39h1.42l2.06 5.39z" fill="#fffcef" data-color="1"/>
        <path d="M171.85 34.52c-.48 0-.89-.09-1.23-.26s-.61-.42-.79-.75-.27-.71-.27-1.17v-3.3h1.42v3.3c0 .18.04.33.11.46s.17.23.3.29.29.1.47.1.34-.03.48-.1a.7.7 0 0 0 .3-.29c.07-.13.1-.28.1-.46v-3.3h1.42v3.3c0 .45-.09.84-.28 1.17-.18.33-.45.58-.8.75s-.76.26-1.25.26Z" fill="#fffcef" data-color="1"/>
        <path d="M175.02 34.43v-5.39h2.23c.41 0 .76.08 1.08.23.31.16.56.37.74.65s.27.59.27.95-.09.68-.27.96-.42.5-.74.65q-.465.24-1.08.24h-.81v1.71zm1.42-3.02h.73c.13 0 .24-.02.34-.07s.17-.11.23-.19.08-.17.08-.28c0-.15-.06-.28-.18-.38a.72.72 0 0 0-.47-.15h-.73zm1.48 3.02-1.2-2.12 1.07-.8 1.76 2.92z" fill="#fffcef" data-color="1"/>
        <path d="M180.12 34.43v-5.39h1.42v5.39z" fill="#fffcef" data-color="1"/>
        <path d="M182.47 34.43v-5.39h1.5l2.1 2.96v-2.96h1.42v5.39h-1.42l-2.18-3.07v3.07z" fill="#fffcef" data-color="1"/>
        <path d="m188.02 34.43 2.06-5.39h1.42l-1.97 5.39zm.97-.87v-1.25h3.73v1.25zm1.1-4.92.85-1.07h1.46l-1 1.07zm2.08 5.79-1.97-5.39h1.42l2.06 5.39z" fill="#fffcef" data-color="1"/>
        <path d="M194.19 34.43v-5.39h2.23c.41 0 .76.08 1.08.23.31.16.56.37.74.65s.27.59.27.95-.09.68-.27.96-.42.5-.74.65q-.465.24-1.08.24h-.81v1.71zm1.43-3.02h.73c.13 0 .24-.02.34-.07s.17-.11.23-.19.08-.17.08-.28c0-.15-.06-.28-.18-.38a.72.72 0 0 0-.47-.15h-.73zm1.47 3.02-1.2-2.12 1.07-.8 1.76 2.92z" fill="#fffcef" data-color="1"/>
        <path d="M199.3 34.43v-5.39h1.42v5.39z" fill="#fffcef" data-color="1"/>
        <path d="M204.27 34.52q-.84 0-1.5-.36c-.66-.36-.77-.57-1.02-.99s-.37-.9-.37-1.44.12-1.03.37-1.44c.25-.42.58-.75 1.02-.99.43-.24.93-.36 1.49-.36s1.06.12 1.49.36q.645.36 1.02.99c.25.42.37.9.37 1.44s-.12 1.02-.37 1.44c-.24.42-.58.75-1.01.99s-.93.36-1.49.36m0-1.31c.28 0 .52-.06.73-.19s.38-.3.49-.52c.12-.22.18-.47.18-.76s-.06-.54-.18-.77c-.12-.22-.29-.4-.5-.52-.21-.13-.46-.19-.74-.19s-.51.06-.73.19c-.21.12-.38.3-.5.52s-.18.48-.18.77.06.54.18.76.29.39.5.52.46.19.74.19Z" fill="#fffcef" data-color="1"/>
        <path d="M96.21 43.22c-.52 0-.98-.12-1.38-.35s-.71-.56-.94-.99c-.23-.42-.34-.9-.34-1.45s.11-1.03.33-1.45.53-.75.93-.98.85-.35 1.37-.35.98.12 1.38.36q.6.36.93.99c.33.63.33.9.33 1.44s-.11 1.03-.33 1.45-.53.75-.92.99-.85.35-1.36.35Zm0-.6c.38 0 .72-.09 1.01-.28s.53-.45.69-.77c.17-.33.25-.71.25-1.14s-.08-.8-.25-1.14c-.17-.33-.4-.59-.7-.78s-.64-.28-1.02-.28-.73.09-1.02.28c-.3.19-.53.45-.7.78s-.25.71-.25 1.14.08.81.25 1.14.41.59.71.77c.3.19.65.28 1.04.28Z" fill="#fffcef" data-color="1"/>
        <path d="M103.3 43.22c-.38 0-.71-.09-.99-.26-.29-.17-.51-.41-.67-.71q-.24-.45-.24-1.05c0-.6.08-.74.24-1.05.16-.3.38-.54.67-.71.28-.17.61-.26.98-.26s.67.09.93.27.46.42.61.74.22.69.22 1.12h-3.18l.15-.13c0 .31.05.57.17.79s.27.39.47.5c.2.12.43.17.69.17.27 0 .5-.06.69-.19s.33-.3.43-.51l.53.27c-.1.2-.23.38-.39.52-.16.15-.35.26-.57.35-.22.08-.46.12-.73.12Zm-1.24-2.3-.16-.12h2.66l-.16.13c0-.25-.05-.46-.15-.64q-.15-.27-.39-.42c-.17-.1-.35-.15-.57-.15s-.41.05-.6.15-.34.23-.45.41c-.12.18-.17.39-.17.64Z" fill="#fffcef" data-color="1"/>
        <path d="M107.34 43.22c-.34 0-.65-.08-.91-.25s-.47-.41-.61-.71-.22-.66-.22-1.05.07-.75.22-1.05.35-.54.61-.71.56-.25.91-.25c.32 0 .61.08.85.25s.43.41.57.71c.13.3.2.65.2 1.05s-.07.75-.2 1.05-.32.54-.57.71c-.24.17-.53.25-.85.25m.14-.56q.345 0 .6-.18c.255-.18.31-.29.41-.52q.15-.33.15-.75c0-.42-.05-.53-.15-.75s-.24-.39-.41-.52-.38-.18-.61-.18-.46.06-.64.18-.33.29-.44.52c-.11.22-.16.47-.16.75s.05.53.16.75.26.39.45.52c.19.12.41.18.65.18Zm1.16 2.01V40l.03-.72h.59v5.39z" fill="#fffcef" data-color="1"/>
        <path d="M110.17 41.25v-1.97h.62v1.97zm.62 0c0 .38.04.67.13.87s.21.34.37.41.33.11.53.11q.495 0 .78-.36c.285-.36.28-.58.28-1.01h.3c0 .41-.06.75-.18 1.05s-.29.52-.51.67-.5.23-.82.23c-.3 0-.56-.06-.79-.18s-.4-.31-.52-.58-.19-.61-.19-1.03v-.18zm2.12 1.88-.04-.71v-3.14h.62v3.85z" fill="#fffcef" data-color="1"/>
        <path d="M114.92 38.38q-.15 0-.27-.12c-.12-.12-.12-.17-.12-.27q0-.165.12-.27c.12-.105.17-.11.27-.11s.2.04.27.11.11.17.11.27-.04.19-.11.27q-.12.12-.27.12m-.31 4.75v-3.85h.62v3.85z" fill="#fffcef" data-color="1"/>
        <path d="M116.35 43.13v-5.39h.62v5.39z" fill="#fffcef" data-color="1"/>
        <path d="m117.88 38.73.9-.99h.79l-.99.99zm.21 4.4v-3.85h.62v3.85z" fill="#fffcef" data-color="1"/>
        <path d="M119.83 43.13v-5.39h.62v4.67l-.03.72h-.58Zm1.92.09c-.32 0-.61-.08-.85-.25s-.43-.41-.57-.71c-.13-.31-.2-.66-.2-1.05s.07-.75.2-1.05.32-.54.57-.71c.24-.17.53-.25.85-.25.34 0 .65.08.91.25s.47.41.61.71c.15.3.22.65.22 1.05s-.07.75-.22 1.05c-.15.31-.35.54-.61.71s-.57.25-.91.25m-.14-.56c.24 0 .46-.06.64-.18s.34-.29.45-.51.17-.47.17-.76-.05-.53-.16-.75-.25-.39-.44-.52c-.19-.12-.4-.18-.65-.18q-.345 0-.6.18-.27.18-.42.51c-.1.22-.15.47-.15.76s.05.53.15.75.24.39.41.52c.17.12.38.18.6.18" fill="#fffcef" data-color="1"/>
        <path d="M124.35 43.13v-3.85h.62v3.85zm.34-2.09c0-.42.08-.75.24-1.01s.36-.45.61-.58.51-.19.79-.19v.58c-.23 0-.44.04-.65.11s-.38.2-.51.37-.2.4-.2.69z" fill="#fffcef" data-color="1"/>
        <path d="M127.3 38.38q-.15 0-.27-.12c-.12-.12-.12-.17-.12-.27q0-.165.12-.27c.12-.105.17-.11.27-.11s.2.04.27.11.11.17.11.27-.04.19-.11.27q-.12.12-.27.12m-.31 4.75v-3.85h.62v3.85z" fill="#fffcef" data-color="1"/>
        <path d="M130.44 43.22c-.38 0-.71-.09-1-.26s-.52-.41-.68-.71c-.17-.3-.25-.65-.25-1.05s.08-.74.24-1.05c.16-.3.39-.54.68-.71s.62-.26 1-.26.71.09 1 .26.52.41.68.71q.24.45.24 1.05c0 .6-.08.74-.24 1.05-.16.3-.39.54-.67.71-.29.17-.62.26-.99.26Zm0-.57c.25 0 .47-.06.67-.18q.285-.18.45-.51c.11-.22.17-.47.17-.75s-.05-.53-.17-.75a1.2 1.2 0 0 0-.46-.51c-.2-.12-.42-.19-.68-.19s-.47.06-.67.19-.34.29-.46.51-.17.47-.17.75.05.53.17.75c.11.22.26.39.46.51s.42.18.67.18Z" fill="#fffcef" data-color="1"/>
        <path d="M136.32 43.22c-.45 0-.8-.1-1.06-.31-.25-.21-.38-.5-.38-.87q0-.585.39-.9c.26-.21.62-.31 1.09-.31h1.1v.52h-.96c-.36 0-.61.06-.77.18a.62.62 0 0 0-.23.51c0 .2.07.36.22.47.15.12.36.17.62.17.22 0 .41-.05.58-.14.16-.09.29-.23.38-.41s.13-.39.13-.63h.26c0 .52-.12.94-.35 1.25s-.58.47-1.03.47Zm1.15-.09-.03-.63v-1.4c0-.3-.03-.55-.1-.75s-.17-.35-.32-.45c-.14-.1-.33-.15-.56-.15-.21 0-.39.04-.54.13s-.28.22-.37.4l-.55-.22c.1-.18.21-.33.35-.47s.3-.23.49-.3.4-.1.63-.1c.36 0 .66.07.89.21s.41.35.53.62c.12.28.17.62.17 1.02v2.09h-.58Z" fill="#fffcef" data-color="1"/>
        <path d="M140.55 43.22c-.34 0-.65-.08-.91-.25s-.47-.41-.61-.71-.22-.66-.22-1.05.07-.75.22-1.05.35-.54.61-.71.56-.25.91-.25c.32 0 .61.08.85.25s.43.41.57.71c.13.3.2.65.2 1.05s-.07.75-.2 1.05-.32.54-.57.71c-.24.17-.53.25-.85.25m.13-.56q.345 0 .6-.18c.255-.18.31-.29.41-.52q.15-.33.15-.75c0-.42-.05-.53-.15-.75s-.24-.39-.41-.52-.38-.18-.61-.18-.46.06-.64.18-.33.29-.44.52c-.11.22-.16.47-.16.75s.05.53.16.75.26.39.45.52c.19.12.41.18.65.18Zm1.2.47-.03-.72v-4.67h.62v5.39z" fill="#fffcef" data-color="1"/>
        <path d="M145.23 43.22c-.38 0-.71-.09-.99-.26-.29-.17-.51-.41-.67-.71q-.24-.45-.24-1.05c0-.6.08-.74.24-1.05.16-.3.38-.54.67-.71.28-.17.61-.26.98-.26s.67.09.93.27.46.42.61.74.22.69.22 1.12h-3.18l.15-.13c0 .31.05.57.17.79s.27.39.47.5c.2.12.43.17.69.17.27 0 .5-.06.69-.19s.33-.3.43-.51l.53.27c-.1.2-.23.38-.39.52-.16.15-.35.26-.57.35-.22.08-.46.12-.73.12Zm-1.25-2.3-.16-.12h2.66l-.16.13c0-.25-.05-.46-.15-.64q-.15-.27-.39-.42c-.17-.1-.35-.15-.57-.15s-.41.05-.6.15-.34.23-.45.41c-.12.18-.17.39-.17.64Z" fill="#fffcef" data-color="1"/>
        <path d="M149.26 43.22c-.34 0-.65-.08-.91-.25s-.47-.41-.61-.71-.22-.66-.22-1.05.07-.75.22-1.05.35-.54.61-.71.56-.25.91-.25c.32 0 .61.08.85.25s.43.41.57.71c.13.3.2.65.2 1.05s-.07.75-.2 1.05-.32.54-.57.71c-.24.17-.53.25-.85.25m.14-.56q.345 0 .6-.18c.255-.18.31-.29.41-.52q.15-.33.15-.75c0-.42-.05-.53-.15-.75s-.24-.39-.41-.52-.38-.18-.61-.18-.46.06-.64.18-.33.29-.44.52c-.11.22-.16.47-.16.75s.05.53.16.75.26.39.45.52c.19.12.41.18.65.18Zm1.16 2.01V40l.03-.72h.59v5.39z" fill="#fffcef" data-color="1"/>
        <path d="M152.09 41.25v-1.97h.62v1.97zm.62 0c0 .38.04.67.13.87s.21.34.37.41.33.11.53.11q.495 0 .78-.36c.285-.36.28-.58.28-1.01h.3c0 .41-.06.75-.18 1.05s-.29.52-.51.67-.5.23-.82.23c-.3 0-.56-.06-.79-.18s-.4-.31-.52-.58-.19-.61-.19-1.03v-.18zm2.13 1.88-.04-.71v-3.14h.62v3.85z" fill="#fffcef" data-color="1"/>
        <path d="M157.71 43.22c-.45 0-.8-.1-1.06-.31-.25-.21-.38-.5-.38-.87q0-.585.39-.9c.26-.21.62-.31 1.09-.31h1.1v.52h-.96c-.36 0-.61.06-.77.18a.62.62 0 0 0-.23.51c0 .2.07.36.22.47.15.12.36.17.62.17.22 0 .41-.05.58-.14.16-.09.29-.23.38-.41s.13-.39.13-.63h.26c0 .52-.12.94-.35 1.25s-.58.47-1.03.47Zm1.15-.09-.03-.63v-1.4c0-.3-.03-.55-.1-.75s-.17-.35-.32-.45c-.14-.1-.33-.15-.56-.15-.21 0-.39.04-.54.13s-.28.22-.37.4l-.55-.22c.1-.18.21-.33.35-.47s.3-.23.49-.3.4-.1.63-.1c.36 0 .66.07.89.21s.41.35.53.62c.12.28.17.62.17 1.02v2.09h-.58Z" fill="#fffcef" data-color="1"/>
        <path d="M161.94 43.22c-.34 0-.65-.08-.91-.25s-.47-.41-.61-.71-.22-.66-.22-1.05.07-.75.22-1.05.35-.54.61-.71.56-.25.91-.25c.32 0 .61.08.85.25s.43.41.57.71c.13.3.2.65.2 1.05s-.07.75-.2 1.05-.32.54-.57.71c-.24.17-.53.25-.85.25m.13-.56q.345 0 .6-.18c.255-.18.31-.29.41-.52q.15-.33.15-.75c0-.42-.05-.53-.15-.75s-.24-.39-.41-.52-.38-.18-.61-.18-.46.06-.64.18-.33.29-.44.52c-.11.22-.16.47-.16.75s.05.53.16.75.26.39.45.52c.19.12.41.18.65.18Zm1.2.47-.03-.72v-4.67h.62v5.39z" fill="#fffcef" data-color="1"/>
        <path d="M166.64 43.22c-.38 0-.71-.09-1-.26s-.52-.41-.68-.71c-.17-.3-.25-.65-.25-1.05s.08-.74.24-1.05c.16-.3.39-.54.68-.71s.62-.26 1-.26.71.09 1 .26.52.41.68.71q.24.45.24 1.05c0 .6-.08.74-.24 1.05-.16.3-.39.54-.67.71-.29.17-.62.26-.99.26Zm-.01-.57c.25 0 .47-.06.67-.18q.285-.18.45-.51c.11-.22.17-.47.17-.75s-.05-.53-.17-.75a1.2 1.2 0 0 0-.46-.51c-.2-.12-.42-.19-.68-.19s-.47.06-.67.19-.34.29-.46.51-.17.47-.17.75.05.53.17.75c.11.22.26.39.46.51s.42.18.67.18Z" fill="#fffcef" data-color="1"/>
        <path d="M172.81 43.22c-.34 0-.65-.08-.91-.25s-.47-.41-.61-.71-.22-.66-.22-1.05.07-.75.22-1.05.35-.54.61-.71.56-.25.91-.25c.32 0 .61.08.85.25s.43.41.57.71c.13.3.2.65.2 1.05s-.07.75-.2 1.05-.32.54-.57.71c-.24.17-.53.25-.85.25m.14-.56q.345 0 .6-.18c.255-.18.31-.29.41-.52q.15-.33.15-.75c0-.42-.05-.53-.15-.75s-.24-.39-.41-.52-.38-.18-.61-.18-.46.06-.64.18-.33.29-.44.52c-.11.22-.16.47-.16.75s.05.53.16.75.26.39.45.52c.19.12.41.18.65.18Zm1.2.47-.03-.72v-4.67h.62v5.39z" fill="#fffcef" data-color="1"/>
        <path d="M177.52 43.22c-.38 0-.71-.09-1-.26s-.52-.41-.68-.71c-.17-.3-.25-.65-.25-1.05s.08-.74.24-1.05c.16-.3.39-.54.68-.71s.62-.26 1-.26.71.09 1 .26.52.41.68.71q.24.45.24 1.05c0 .6-.08.74-.24 1.05-.16.3-.39.54-.67.71-.29.17-.62.26-.99.26Zm-.01-.57c.25 0 .47-.06.67-.18q.285-.18.45-.51c.11-.22.17-.47.17-.75s-.05-.53-.17-.75a1.2 1.2 0 0 0-.46-.51c-.2-.12-.42-.19-.68-.19s-.47.06-.67.19-.34.29-.46.51-.17.47-.17.75.05.53.17.75c.11.22.26.39.46.51s.42.18.67.18Z" fill="#fffcef" data-color="1"/>
        <path d="M181.62 43.22c-.28 0-.53-.04-.74-.13-.21-.08-.39-.2-.53-.33a1.2 1.2 0 0 1-.3-.46l.54-.22c.09.17.22.32.39.42.17.11.37.16.58.16.24 0 .44-.05.61-.14a.45.45 0 0 0 .25-.4c0-.16-.06-.29-.18-.38q-.18-.15-.54-.24l-.37-.1c-.35-.09-.62-.23-.82-.42-.19-.19-.29-.4-.29-.63 0-.36.12-.65.36-.85s.59-.3 1.07-.3c.23 0 .43.03.62.1.18.07.34.16.48.28.13.12.23.26.29.43l-.54.24a.73.73 0 0 0-.33-.38 1.2 1.2 0 0 0-.56-.12c-.24 0-.42.05-.55.15s-.2.24-.2.42c0 .1.06.2.17.29s.27.16.49.22l.38.1q.375.09.63.27c.17.12.3.26.39.41s.13.32.13.49c0 .23-.06.43-.19.6-.12.17-.29.3-.5.39s-.45.13-.72.13Z" fill="#fffcef" data-color="1"/>
        <path d="M93.74 51.83v-3.85h.58l.03.54c.12-.21.27-.36.45-.47s.4-.16.65-.16c.31 0 .57.07.79.22.22.14.38.36.47.65.11-.28.27-.5.47-.65.21-.15.46-.22.74-.22.43 0 .77.14 1.02.43s.37.72.37 1.31v2.2h-.62v-1.97q0-.57-.12-.87c-.08-.2-.19-.34-.32-.41a1 1 0 0 0-.46-.11c-.3 0-.54.12-.71.36s-.25.58-.25 1.01v1.99h-.62v-1.97q0-.57-.12-.87c-.08-.2-.19-.34-.32-.41-.14-.07-.29-.11-.47-.11-.3 0-.53.12-.7.36s-.25.58-.25 1.01v1.99h-.62Z" fill="#fffcef" data-color="1"/>
        <path d="M100.6 47.08q-.15 0-.27-.12c-.12-.12-.12-.17-.12-.27q0-.165.12-.27c.12-.105.17-.11.27-.11s.2.04.27.11.11.17.11.27-.04.19-.11.27q-.12.12-.27.12m-.31 4.75v-3.85h.62v3.85z" fill="#fffcef" data-color="1"/>
        <path d="M101.99 51.83v-3.85h.58l.04.71v3.14zm2.7-1.98c0-.38-.04-.67-.13-.87s-.21-.34-.36-.41-.33-.11-.52-.11c-.34 0-.6.12-.79.36s-.28.58-.28 1.01h-.3c0-.41.06-.75.18-1.05.12-.29.29-.52.52-.67s.5-.23.82-.23.57.06.79.18.4.31.52.57.19.61.18 1.03v.18h-.62Zm0 1.98v-1.97h.62v1.97z" fill="#fffcef" data-color="1"/>
        <path d="M107.92 51.92c-.38 0-.71-.09-.99-.26-.29-.17-.51-.41-.67-.71q-.24-.45-.24-1.05c0-.6.08-.74.24-1.05.16-.3.38-.54.67-.71.28-.17.61-.26.98-.26s.67.09.93.27.46.42.61.74.22.69.22 1.12h-3.18l.15-.13c0 .31.05.57.17.79s.27.39.47.5c.2.12.43.17.69.17.27 0 .5-.06.69-.19s.33-.3.43-.51l.53.27c-.1.2-.23.37-.39.52s-.35.26-.57.35c-.22.08-.46.12-.73.12Zm-1.24-2.3-.16-.12h2.66l-.16.13c0-.25-.05-.46-.15-.64q-.15-.27-.39-.42c-.17-.1-.35-.15-.57-.15s-.41.05-.6.15-.34.23-.45.41c-.12.18-.17.39-.17.64Z" fill="#fffcef" data-color="1"/>
        <path d="M110.4 51.83v-3.85h.62v3.85zm.34-2.09c0-.42.08-.75.24-1.01s.36-.45.61-.58.51-.19.79-.19v.58c-.23 0-.44.04-.65.11s-.38.2-.51.37-.2.4-.2.69z" fill="#fffcef" data-color="1"/>
        <path d="M114.17 51.92c-.45 0-.8-.1-1.06-.31-.25-.21-.38-.5-.38-.87q0-.585.39-.9c.26-.21.62-.31 1.09-.31h1.1v.52h-.96c-.36 0-.61.06-.77.18a.62.62 0 0 0-.23.51c0 .2.07.36.22.47.15.12.36.17.62.17.22 0 .41-.05.58-.14.16-.09.29-.23.38-.41s.13-.39.13-.63h.26c0 .52-.12.94-.35 1.25s-.58.47-1.03.47Zm1.15-.09-.03-.63v-1.4c0-.3-.03-.55-.1-.75s-.17-.35-.32-.45c-.14-.1-.33-.15-.56-.15-.21 0-.39.04-.54.13s-.28.22-.37.4l-.55-.22c.1-.18.21-.33.35-.47s.3-.23.49-.3.4-.1.63-.1c.36 0 .66.07.89.21s.41.35.53.62c.12.28.17.62.17 1.02v2.09h-.58Z" fill="#fffcef" data-color="1"/>
        <path d="M117.19 47.08q-.15 0-.27-.12c-.12-.12-.12-.17-.12-.27q0-.165.12-.27c.12-.105.17-.11.27-.11s.2.04.27.11.11.17.11.27-.04.19-.11.27q-.12.12-.27.12m-.32 4.75v-3.85h.62v3.85z" fill="#fffcef" data-color="1"/>
        <path d="M119.92 51.92c-.28 0-.53-.04-.74-.13-.21-.08-.39-.2-.53-.33a1.2 1.2 0 0 1-.3-.46l.54-.22q.135.255.39.42c.17.11.37.16.58.16.24 0 .44-.05.61-.14a.45.45 0 0 0 .25-.4c0-.16-.06-.29-.18-.38q-.18-.15-.54-.24l-.37-.1c-.35-.09-.62-.23-.82-.42-.19-.19-.29-.4-.29-.63 0-.36.12-.65.36-.85s.59-.3 1.07-.3c.23 0 .43.03.62.1.18.07.34.16.48.28.13.12.23.26.29.43l-.54.24a.73.73 0 0 0-.33-.38 1.2 1.2 0 0 0-.56-.12c-.24 0-.42.05-.55.15s-.2.24-.2.42c0 .1.06.2.17.29s.27.16.49.22l.38.1q.375.09.63.27c.17.12.3.26.39.41s.13.32.13.49c0 .23-.06.43-.19.6-.12.17-.29.3-.5.39s-.45.13-.72.13Z" fill="#fffcef" data-color="1"/>
        <path d="M125.19 51.92c-.45 0-.8-.1-1.06-.31-.25-.21-.38-.5-.38-.87q0-.585.39-.9c.26-.21.62-.31 1.09-.31h1.1v.52h-.96c-.36 0-.61.06-.77.18a.62.62 0 0 0-.23.51c0 .2.07.36.22.47.15.12.36.17.62.17.22 0 .41-.05.58-.14.16-.09.29-.23.38-.41s.13-.39.13-.63h.26c0 .52-.12.94-.35 1.25s-.58.47-1.03.47Zm1.15-.09-.03-.63v-1.4c0-.3-.03-.55-.1-.75s-.17-.35-.32-.45c-.14-.1-.33-.15-.56-.15-.21 0-.39.04-.54.13s-.28.22-.37.4l-.55-.22c.1-.18.21-.33.35-.47s.3-.23.49-.3.4-.1.63-.1c.36 0 .66.07.89.21s.41.35.53.62c.12.28.17.62.17 1.02v2.09h-.58Z" fill="#fffcef" data-color="1"/>
        <path d="M127.75 49.95v-1.97h.62v1.97zm.62 0c0 .38.04.67.13.87s.21.34.37.41.33.11.53.11q.495 0 .78-.36c.19-.24.28-.58.28-1.01h.3c0 .41-.06.75-.18 1.05-.12.29-.29.52-.51.67s-.5.23-.82.23c-.3 0-.56-.06-.79-.18s-.4-.31-.52-.58c-.12-.26-.19-.61-.19-1.03v-.18zm2.12 1.88-.04-.71v-3.14h.62v3.85z" fill="#fffcef" data-color="1"/>
        <path d="m131.64 51.83 1.57-2.21 1.11-1.64h.73l-1.46 2.08-1.2 1.77zm2.76 0-1.19-1.77-1.48-2.08h.73l1.12 1.64 1.55 2.21h-.74Z" fill="#fffcef" data-color="1"/>
        <path d="M136.07 47.08q-.15 0-.27-.12c-.12-.12-.12-.17-.12-.27q0-.165.12-.27c.12-.105.17-.11.27-.11s.2.04.27.11.11.17.11.27-.04.19-.11.27q-.12.12-.27.12m-.32 4.75v-3.85h.62v3.85z" fill="#fffcef" data-color="1"/>
        <path d="M137.45 51.83v-5.39h.62v5.39z" fill="#fffcef" data-color="1"/>
        <path d="M139.46 47.08q-.15 0-.27-.12c-.12-.12-.12-.17-.12-.27q0-.165.12-.27c.12-.105.17-.11.27-.11s.2.04.27.11.11.17.11.27-.04.19-.11.27q-.12.12-.27.12m-.32 4.75v-3.85h.62v3.85z" fill="#fffcef" data-color="1"/>
        <path d="M142.06 51.92c-.45 0-.8-.1-1.06-.31-.25-.21-.38-.5-.38-.87q0-.585.39-.9c.26-.21.62-.31 1.09-.31h1.1v.52h-.96c-.36 0-.61.06-.77.18a.62.62 0 0 0-.23.51c0 .2.07.36.22.47.15.12.36.17.62.17.22 0 .41-.05.58-.14.16-.09.29-.23.38-.41s.13-.39.13-.63h.26c0 .52-.12.94-.35 1.25s-.58.47-1.03.47Zm1.15-.09-.03-.63v-1.4c0-.3-.03-.55-.1-.75s-.17-.35-.32-.45c-.14-.1-.33-.15-.56-.15-.21 0-.39.04-.54.13s-.28.22-.37.4l-.55-.22c.1-.18.21-.33.35-.47s.3-.23.49-.3.4-.1.63-.1c.36 0 .66.07.89.21s.41.35.53.62c.12.28.17.62.17 1.02v2.09h-.58Z" fill="#fffcef" data-color="1"/>
        <path d="M146.58 51.83v-3.85h.58l.04.71v3.14zm2.7-1.98c0-.38-.04-.67-.13-.87s-.21-.34-.36-.41-.33-.11-.52-.11c-.34 0-.6.12-.79.36s-.28.58-.28 1.01h-.3c0-.41.06-.75.18-1.05.12-.29.29-.52.52-.67s.5-.23.82-.23.57.06.79.18.4.31.52.57.19.61.18 1.03v.18h-.62Zm0 1.98v-1.97h.62v1.97z" fill="#fffcef" data-color="1"/>
        <path d="M152.04 51.92c-.45 0-.8-.1-1.06-.31-.25-.21-.38-.5-.38-.87q0-.585.39-.9c.26-.21.62-.31 1.09-.31h1.1v.52h-.96c-.36 0-.61.06-.77.18a.62.62 0 0 0-.23.51c0 .2.07.36.22.47.15.12.36.17.62.17.22 0 .41-.05.58-.14.16-.09.29-.23.38-.41s.13-.39.13-.63h.26c0 .52-.12.94-.35 1.25s-.58.47-1.03.47Zm1.16-.09-.03-.63v-1.4c0-.3-.03-.55-.1-.75s-.17-.35-.32-.45c-.14-.1-.33-.15-.56-.15-.21 0-.39.04-.54.13s-.28.22-.37.4l-.55-.22c.1-.18.21-.33.35-.47s.3-.23.49-.3.4-.1.63-.1c.36 0 .66.07.89.21s.41.35.53.62c.12.28.17.62.17 1.02v2.09h-.58Z" fill="#fffcef" data-color="1"/>
        <path d="M157.91 51.92c-.28 0-.53-.04-.74-.13-.21-.08-.39-.2-.53-.33a1.2 1.2 0 0 1-.3-.46l.54-.22q.135.255.39.42c.17.11.37.16.58.16.24 0 .44-.05.61-.14a.45.45 0 0 0 .25-.4c0-.16-.06-.29-.18-.38q-.18-.15-.54-.24l-.37-.1c-.35-.09-.62-.23-.82-.42-.19-.19-.29-.4-.29-.63 0-.36.12-.65.36-.85s.59-.3 1.07-.3c.23 0 .43.03.62.1.18.07.34.16.48.28.13.12.23.26.29.43l-.54.24a.73.73 0 0 0-.33-.38 1.2 1.2 0 0 0-.56-.12c-.24 0-.42.05-.55.15s-.2.24-.2.42c0 .1.06.2.17.29s.27.16.49.22l.38.1q.375.09.63.27c.17.12.3.26.39.41s.13.32.13.49c0 .23-.06.43-.19.6-.12.17-.29.3-.5.39s-.45.13-.72.13Z" fill="#fffcef" data-color="1"/>
        <path d="M161.32 51.92c-.45 0-.8-.1-1.06-.31-.25-.21-.38-.5-.38-.87q0-.585.39-.9c.26-.21.62-.31 1.09-.31h1.1v.52h-.96c-.36 0-.61.06-.77.18a.62.62 0 0 0-.23.51c0 .2.07.36.22.47.15.12.36.17.62.17.22 0 .41-.05.58-.14.16-.09.29-.23.38-.41s.13-.39.13-.63h.26c0 .52-.12.94-.35 1.25s-.58.47-1.03.47Zm1.16-.09-.03-.63v-1.4c0-.3-.03-.55-.1-.75s-.17-.35-.32-.45c-.14-.1-.33-.15-.56-.15-.21 0-.39.04-.54.13s-.28.22-.37.4l-.55-.22c.1-.18.21-.33.35-.47s.3-.23.49-.3.4-.1.63-.1c.36 0 .66.07.89.21s.41.35.53.62c.12.28.17.62.17 1.02v2.09h-.58Z" fill="#fffcef" data-color="1"/>
        <path d="M163.88 49.95v-1.97h.62v1.97zm.62 0c0 .38.04.67.13.87s.21.34.37.41.33.11.53.11q.495 0 .78-.36c.19-.24.28-.58.28-1.01h.3c0 .41-.06.75-.18 1.05-.12.29-.29.52-.51.67s-.5.23-.82.23c-.3 0-.56-.06-.79-.18s-.4-.31-.52-.58c-.12-.26-.19-.61-.19-1.03v-.18zm.57-2.52.9-.99h.79l-.99.99zm1.55 4.4-.04-.71v-3.14h.62v3.85z" fill="#fffcef" data-color="1"/>
        <path d="M169.75 51.92c-.34 0-.65-.08-.91-.25s-.47-.41-.61-.71c-.15-.31-.22-.66-.22-1.05s.07-.75.22-1.05.35-.54.61-.71.56-.25.91-.25c.32 0 .61.08.85.25s.43.41.57.71c.13.3.2.65.2 1.05s-.07.75-.2 1.05c-.13.31-.32.54-.57.71-.24.17-.53.25-.85.25m.14-.56q.345 0 .6-.18c.255-.18.31-.29.41-.52q.15-.33.15-.75c0-.42-.05-.53-.15-.75s-.24-.39-.41-.52-.38-.18-.61-.18-.46.06-.64.18-.33.29-.44.52c-.11.22-.16.47-.16.75s.05.53.16.75.26.39.45.52c.19.12.41.18.65.18Zm1.19.47-.03-.72v-4.67h.62v5.39z" fill="#fffcef" data-color="1"/>
        <path d="M174.39 51.92c-.38 0-.71-.09-.99-.26-.29-.17-.51-.41-.67-.71q-.24-.45-.24-1.05c0-.6.08-.74.24-1.05.16-.3.38-.54.67-.71.28-.17.61-.26.98-.26s.67.09.93.27.46.42.61.74.22.69.22 1.12h-3.18l.15-.13c0 .31.05.57.17.79s.27.39.47.5c.2.12.43.17.69.17.27 0 .5-.06.69-.19s.33-.3.43-.51l.53.27c-.1.2-.23.37-.39.52s-.35.26-.57.35c-.22.08-.46.12-.73.12Zm-1.25-2.3-.16-.12h2.66l-.16.13c0-.25-.05-.46-.15-.64q-.15-.27-.39-.42c-.17-.1-.35-.15-.57-.15s-.41.05-.6.15-.34.23-.45.41c-.12.18-.17.39-.17.64Z" fill="#fffcef" data-color="1"/>
        <path d="M180.4 51.92c-.38 0-.71-.09-.99-.26-.29-.17-.51-.41-.67-.71q-.24-.45-.24-1.05c0-.6.08-.74.24-1.05.16-.3.38-.54.67-.71.28-.17.61-.26.98-.26s.67.09.93.27.46.42.61.74.22.69.22 1.12h-3.18l.15-.13c0 .31.05.57.17.79s.27.39.47.5c.2.12.43.17.69.17.27 0 .5-.06.69-.19s.33-.3.43-.51l.53.27c-.1.2-.23.37-.39.52s-.35.26-.57.35c-.22.08-.46.12-.73.12Zm-1.25-2.3-.16-.12h2.66l-.16.13c0-.25-.05-.46-.15-.64q-.15-.27-.39-.42c-.17-.1-.35-.15-.57-.15s-.41.05-.6.15-.34.23-.45.41c-.12.18-.17.39-.17.64Z" fill="#fffcef" data-color="1"/>
        <path d="M93.74 60.53v-3.85h.58l.04.71v3.14zm2.7-1.98c0-.38-.04-.67-.13-.87s-.21-.34-.36-.41-.33-.11-.52-.11c-.34 0-.6.12-.79.36s-.28.58-.28 1.01h-.3c0-.41.06-.75.18-1.05.12-.29.29-.52.52-.67s.5-.23.82-.23.57.06.79.18.4.31.52.57.19.61.18 1.03v.18h-.62Zm0 1.98v-1.97h.62v1.97z" fill="#fffcef" data-color="1"/>
        <path d="M99.7 60.62c-.38 0-.71-.09-1-.26s-.52-.41-.68-.71c-.17-.3-.25-.65-.25-1.05s.08-.74.24-1.05c.16-.3.39-.54.68-.71s.62-.26 1-.26.71.09 1 .26.52.41.68.71q.24.45.24 1.05c0 .6-.08.74-.24 1.05-.16.3-.39.54-.67.71-.29.17-.62.26-.99.26Zm-.01-.57c.25 0 .47-.06.67-.18q.285-.18.45-.51c.11-.22.17-.47.17-.75s-.05-.53-.17-.75a1.2 1.2 0 0 0-.46-.51c-.2-.12-.42-.19-.68-.19s-.47.06-.67.19-.34.29-.46.51-.17.47-.17.75.05.53.17.75c.11.22.26.39.46.51s.42.18.67.18Z" fill="#fffcef" data-color="1"/>
        <path d="M104.27 60.53v-5.39h.62v4.67l-.03.72h-.58Zm1.91.09c-.32 0-.61-.08-.85-.25s-.43-.41-.57-.71c-.13-.31-.2-.66-.2-1.05s.07-.75.2-1.05.32-.54.57-.71c.24-.17.53-.25.85-.25.34 0 .65.08.91.25s.47.41.61.71c.15.3.22.65.22 1.05s-.07.75-.22 1.05c-.15.31-.35.54-.61.71s-.57.25-.91.25m-.14-.56c.24 0 .46-.06.64-.18s.34-.29.45-.51.17-.47.17-.76-.05-.53-.16-.75-.25-.39-.44-.52c-.19-.12-.4-.18-.65-.18q-.345 0-.6.18-.27.18-.42.51c-.1.22-.15.47-.15.76s.05.53.15.75.24.39.41.52c.17.12.38.18.6.18" fill="#fffcef" data-color="1"/>
        <path d="M110.44 60.62c-.38 0-.71-.09-1-.26s-.52-.41-.68-.71c-.17-.3-.25-.65-.25-1.05s.08-.74.24-1.05c.16-.3.39-.54.68-.71s.62-.26 1-.26.71.09 1 .26.52.41.68.71q.24.45.24 1.05c0 .6-.08.74-.24 1.05-.16.3-.39.54-.67.71-.29.17-.62.26-.99.26Zm-.01-.57c.25 0 .47-.06.67-.18q.285-.18.45-.51c.11-.22.17-.47.17-.75s-.05-.53-.17-.75a1.2 1.2 0 0 0-.46-.51c-.2-.12-.42-.19-.68-.19s-.47.06-.67.19-.34.29-.46.51-.17.47-.17.75.05.53.17.75c.11.22.26.39.46.51s.42.18.67.18Z" fill="#fffcef" data-color="1"/>
        <path d="M113.15 60.53v-3.85h.58l.03.54c.12-.21.27-.36.45-.47s.4-.16.65-.16c.31 0 .57.07.79.22.22.14.38.36.47.65.11-.28.27-.5.47-.65.21-.15.46-.22.74-.22.43 0 .77.14 1.02.43s.37.72.37 1.31v2.2h-.62v-1.97q0-.57-.12-.87c-.08-.2-.19-.34-.32-.41a1 1 0 0 0-.46-.11c-.3 0-.54.12-.71.36s-.25.58-.25 1.01v1.99h-.62v-1.97q0-.57-.12-.87c-.08-.2-.19-.34-.32-.41-.14-.07-.29-.11-.47-.11-.3 0-.53.12-.7.36s-.25.58-.25 1.01v1.99h-.62Z" fill="#fffcef" data-color="1"/>
        <path d="M121.24 57.21v-.53h2.44v.53zm.7 3.32v-4.29c0-.4.09-.7.28-.9s.47-.3.86-.3c.1 0 .22.02.35.05.13.04.26.09.41.15l-.23.49c-.12-.05-.22-.08-.3-.11a.6.6 0 0 0-.21-.04c-.18 0-.31.06-.4.17-.09.12-.13.29-.13.54v4.24h-.62Z" fill="#fffcef" data-color="1"/>
        <path d="M124.25 58.65v-1.97h.62v1.97zm.62 0c0 .38.04.67.13.87s.21.34.37.41.33.11.53.11q.495 0 .78-.36c.285-.36.28-.58.28-1.01h.3c0 .41-.06.75-.18 1.05s-.29.52-.51.67-.5.23-.82.23c-.3 0-.56-.06-.79-.18s-.4-.31-.52-.58-.19-.61-.19-1.03v-.18zm2.13 1.88-.04-.71v-3.14h.62v3.85z" fill="#fffcef" data-color="1"/>
        <path d="M128.61 60.53v-3.85h.58l.04.71v3.14zm2.7-1.98c0-.38-.04-.67-.13-.87s-.21-.34-.36-.41-.33-.11-.52-.11c-.34 0-.6.12-.79.36s-.28.58-.28 1.01h-.3c0-.41.06-.75.18-1.05.12-.29.29-.52.52-.67s.5-.23.82-.23.57.06.79.18.4.31.52.57.19.61.18 1.03v.18h-.62Zm0 1.98v-1.97h.62v1.97z" fill="#fffcef" data-color="1"/>
        <path d="M134.57 60.62c-.38 0-.72-.09-1.01-.26s-.52-.41-.68-.71c-.17-.3-.25-.65-.25-1.05s.08-.74.24-1.05c.16-.3.39-.54.68-.71s.63-.26 1-.26.7.08.99.25.52.41.67.72l-.56.25q-.15-.315-.45-.48c-.2-.12-.42-.17-.67-.17s-.47.06-.67.19-.34.29-.46.51c-.11.22-.17.47-.17.75s.05.53.17.75c.11.22.26.39.46.51s.42.18.67.18.48-.06.67-.19q.3-.195.45-.54l.56.25c-.15.33-.38.59-.67.77s-.63.28-1 .28Z" fill="#fffcef" data-color="1"/>
        <path d="M137.33 55.78q-.15 0-.27-.12c-.12-.12-.12-.17-.12-.27q0-.165.12-.27c.12-.105.17-.11.27-.11s.2.04.27.11.11.17.11.27-.04.19-.11.27q-.12.12-.27.12m-.32 4.75v-3.85h.62v3.85z" fill="#fffcef" data-color="1"/>
        <path d="M140.42 60.62c-.38 0-.71-.09-1-.26s-.52-.41-.68-.71c-.17-.3-.25-.65-.25-1.05s.08-.74.24-1.05c.16-.3.39-.54.68-.71s.62-.26 1-.26.71.09 1 .26.52.41.68.71q.24.45.24 1.05c0 .6-.08.74-.24 1.05-.16.3-.39.54-.67.71-.29.17-.62.26-.99.26Zm0-.57c.25 0 .47-.06.67-.18q.285-.18.45-.51c.11-.22.17-.47.17-.75s-.05-.53-.17-.75a1.2 1.2 0 0 0-.46-.51c-.2-.12-.42-.19-.68-.19s-.47.06-.67.19-.34.29-.46.51-.17.47-.17.75.05.53.17.75c.11.22.26.39.46.51s.42.18.67.18Z" fill="#fffcef" data-color="1"/>
        <path d="M143.13 60.53v-3.85h.58l.04.71v3.14zm2.71-1.98c0-.38-.04-.67-.13-.87s-.21-.34-.36-.41-.33-.11-.52-.11c-.34 0-.6.12-.79.36s-.28.58-.28 1.01h-.3c0-.41.06-.75.18-1.05.12-.29.29-.52.52-.67s.5-.23.82-.23.57.06.79.18.4.31.52.57.19.61.18 1.03v.18h-.62Zm0 1.98v-1.97h.62v1.97z" fill="#fffcef" data-color="1"/>
        <path d="M148.6 60.62c-.45 0-.8-.1-1.06-.31-.25-.21-.38-.5-.38-.87q0-.585.39-.9c.26-.21.62-.31 1.09-.31h1.1v.52h-.96c-.36 0-.61.06-.77.18a.62.62 0 0 0-.23.51c0 .2.07.36.22.47.15.12.36.17.62.17.22 0 .41-.05.58-.14.16-.09.29-.23.38-.41s.13-.39.13-.63h.26c0 .52-.12.94-.35 1.25s-.58.47-1.03.47Zm1.16-.09-.03-.63v-1.4c0-.3-.03-.55-.1-.75s-.17-.35-.32-.45c-.14-.1-.33-.15-.56-.15-.21 0-.39.04-.54.13s-.28.22-.37.4l-.55-.22c.1-.18.21-.33.35-.47s.3-.23.49-.3.4-.1.63-.1c.36 0 .66.07.89.21s.41.35.53.62c.12.28.17.62.17 1.02v2.09h-.58Z" fill="#fffcef" data-color="1"/>
        <path d="M151.27 60.53v-3.85h.58l.03.54c.12-.21.27-.36.45-.47s.4-.16.65-.16c.31 0 .57.07.79.22.22.14.38.36.47.65.11-.28.27-.5.47-.65.21-.15.46-.22.74-.22.43 0 .77.14 1.02.43s.37.72.37 1.31v2.2h-.62v-1.97q0-.57-.12-.87c-.08-.2-.19-.34-.32-.41a1 1 0 0 0-.46-.11c-.3 0-.54.12-.71.36s-.25.58-.25 1.01v1.99h-.62v-1.97q0-.57-.12-.87c-.08-.2-.19-.34-.32-.41-.14-.07-.29-.11-.47-.11-.3 0-.53.12-.7.36s-.25.58-.25 1.01v1.99h-.62Z" fill="#fffcef" data-color="1"/>
        <path d="M159.46 60.62c-.38 0-.71-.09-.99-.26-.29-.17-.51-.41-.67-.71q-.24-.45-.24-1.05c0-.6.08-.74.24-1.05.16-.3.38-.54.67-.71.28-.17.61-.26.98-.26s.67.09.93.27.46.42.61.74.22.69.22 1.12h-3.18l.15-.13c0 .31.05.57.17.79s.27.39.47.5c.2.12.43.17.69.17.27 0 .5-.06.69-.19s.33-.3.43-.51l.53.27c-.1.2-.23.38-.39.52-.16.15-.35.26-.57.35-.22.08-.46.12-.73.12Zm-1.25-2.3-.16-.12h2.66l-.16.13c0-.25-.05-.46-.15-.64q-.15-.27-.39-.42c-.17-.1-.35-.15-.57-.15s-.41.05-.6.15-.34.23-.45.41c-.12.18-.17.39-.17.64Z" fill="#fffcef" data-color="1"/>
        <path d="M161.93 60.53v-3.85h.58l.04.71v3.14zm2.7-1.98c0-.38-.04-.67-.13-.87s-.21-.34-.36-.41-.33-.11-.52-.11c-.34 0-.6.12-.79.36s-.28.58-.28 1.01h-.3c0-.41.06-.75.18-1.05.12-.29.29-.52.52-.67s.5-.23.82-.23.57.06.79.18.4.31.52.57.19.61.18 1.03v.18h-.62Zm0 1.98v-1.97h.62v1.97z" fill="#fffcef" data-color="1"/>
        <path d="M165.78 57.22v-.55h2.44v.55zm1.85 3.4c-.37 0-.67-.1-.87-.29s-.31-.47-.31-.82v-4.03h.62v3.96c0 .2.05.35.16.45s.25.16.44.16c.06 0 .12 0 .18-.03.06-.02.14-.06.23-.13l.24.5a1.2 1.2 0 0 1-.69.23" fill="#fffcef" data-color="1"/>
        <path d="M170.73 60.62c-.38 0-.71-.09-1-.26s-.52-.41-.68-.71c-.17-.3-.25-.65-.25-1.05s.08-.74.24-1.05c.16-.3.39-.54.68-.71s.62-.26 1-.26.71.09 1 .26.52.41.68.71q.24.45.24 1.05c0 .6-.08.74-.24 1.05-.16.3-.39.54-.67.71-.29.17-.62.26-.99.26Zm-.01-.57c.25 0 .47-.06.67-.18q.285-.18.45-.51c.11-.22.17-.47.17-.75s-.05-.53-.17-.75a1.2 1.2 0 0 0-.46-.51c-.2-.12-.42-.19-.68-.19s-.47.06-.67.19-.34.29-.46.51-.17.47-.17.75.05.53.17.75c.11.22.26.39.46.51s.42.18.67.18Z" fill="#fffcef" data-color="1"/>
        <path d="M95.26 69.32c-.34 0-.65-.08-.91-.25s-.47-.41-.61-.71-.22-.66-.22-1.05.07-.75.22-1.05.35-.54.61-.71.56-.25.91-.25c.32 0 .61.08.85.25s.43.41.57.71c.13.3.2.65.2 1.05s-.07.75-.2 1.05-.32.54-.57.71c-.24.17-.53.25-.85.25m.14-.56q.345 0 .6-.18c.255-.18.31-.29.41-.52q.15-.33.15-.75c0-.42-.05-.53-.15-.75s-.24-.39-.41-.52-.38-.18-.61-.18-.46.06-.64.18-.33.29-.44.52c-.11.22-.16.47-.16.75s.05.53.16.75.26.39.45.52c.19.12.41.18.65.18Zm1.19.47-.03-.72v-4.67h.62v5.39z" fill="#fffcef" data-color="1"/>
        <path d="M99.92 69.32c-.38 0-.71-.09-1-.26s-.52-.41-.68-.71c-.17-.3-.25-.65-.25-1.05s.08-.74.24-1.05c.16-.3.39-.54.68-.71s.62-.26 1-.26.71.09 1 .26.52.41.68.71q.24.45.24 1.05c0 .6-.08.74-.24 1.05-.16.3-.39.54-.67.71-.29.17-.62.26-.99.26Zm-.01-.57c.25 0 .47-.06.67-.18q.285-.18.45-.51c.11-.22.17-.47.17-.75s-.05-.53-.17-.75a1.2 1.2 0 0 0-.46-.51c-.2-.12-.42-.19-.68-.19s-.47.06-.67.19-.34.29-.46.51-.17.47-.17.75.05.53.17.75c.11.22.26.39.46.51s.42.18.67.18Z" fill="#fffcef" data-color="1"/>
        <path d="M105.83 69.32c-.28 0-.53-.04-.74-.13-.21-.08-.39-.2-.53-.33a1.2 1.2 0 0 1-.3-.46l.54-.22c.09.17.22.32.39.42.17.11.37.16.58.16.24 0 .44-.05.61-.14a.45.45 0 0 0 .25-.4c0-.16-.06-.29-.18-.38q-.18-.15-.54-.24l-.37-.1c-.35-.09-.62-.23-.82-.42-.19-.19-.29-.4-.29-.63 0-.36.12-.65.36-.85s.59-.3 1.07-.3c.23 0 .43.03.62.1.18.07.34.16.48.28.13.12.23.26.29.43l-.54.24a.73.73 0 0 0-.33-.38 1.2 1.2 0 0 0-.56-.12c-.24 0-.42.05-.55.15s-.2.24-.2.42c0 .1.06.2.17.29s.27.16.49.22l.38.1q.375.09.63.27c.17.12.3.26.39.41s.13.32.13.49c0 .23-.06.43-.19.6-.12.17-.29.3-.5.39s-.45.13-.72.13Z" fill="#fffcef" data-color="1"/>
        <path d="M108.38 64.48q-.15 0-.27-.12c-.12-.12-.12-.17-.12-.27q0-.165.12-.27c.12-.105.17-.11.27-.11s.2.04.27.11.11.17.11.27-.04.19-.11.27q-.12.12-.27.12m-.32 4.75v-3.85h.62v3.85z" fill="#fffcef" data-color="1"/>
        <path d="M111.11 69.32c-.28 0-.53-.04-.74-.13-.21-.08-.39-.2-.53-.33a1.2 1.2 0 0 1-.3-.46l.54-.22c.09.17.22.32.39.42.17.11.37.16.58.16.24 0 .44-.05.61-.14a.45.45 0 0 0 .25-.4c0-.16-.06-.29-.18-.38q-.18-.15-.54-.24l-.37-.1c-.35-.09-.62-.23-.82-.42-.19-.19-.29-.4-.29-.63 0-.36.12-.65.36-.85s.59-.3 1.07-.3c.23 0 .43.03.62.1.18.07.34.16.48.28.13.12.23.26.29.43l-.54.24a.73.73 0 0 0-.33-.38 1.2 1.2 0 0 0-.56-.12c-.24 0-.42.05-.55.15s-.2.24-.2.42c0 .1.06.2.17.29s.27.16.49.22l.38.1q.375.09.63.27c.17.12.3.26.39.41s.13.32.13.49c0 .23-.06.43-.19.6-.12.17-.29.3-.5.39s-.45.13-.72.13Z" fill="#fffcef" data-color="1"/>
        <path d="M112.9 65.92v-.55h2.44v.55zm1.85 3.4c-.37 0-.67-.1-.87-.29s-.31-.47-.31-.82v-4.03h.62v3.96c0 .2.05.35.16.45s.25.16.44.16c.06 0 .12 0 .18-.03.06-.02.14-.06.23-.13l.24.5a1.2 1.2 0 0 1-.69.23" fill="#fffcef" data-color="1"/>
        <path d="M117.83 69.32c-.38 0-.71-.09-.99-.26-.29-.17-.51-.41-.67-.71q-.24-.45-.24-1.05c0-.6.08-.74.24-1.05.16-.3.38-.54.67-.71.28-.17.61-.26.98-.26s.67.09.93.27.46.42.61.74.22.69.22 1.12h-3.18l.15-.13c0 .31.05.57.17.79s.27.39.47.5c.2.12.43.17.69.17.27 0 .5-.06.69-.19s.33-.3.43-.51l.53.27c-.1.2-.23.38-.39.52-.16.15-.35.26-.57.35-.22.08-.46.12-.73.12Zm-1.25-2.3-.16-.12h2.66l-.16.13c0-.25-.05-.46-.15-.64q-.15-.27-.39-.42c-.17-.1-.35-.15-.57-.15s-.41.05-.6.15-.34.23-.45.41c-.12.18-.17.39-.17.64Z" fill="#fffcef" data-color="1"/>
        <path d="M120.3 69.23v-3.85h.58l.03.54c.12-.21.27-.36.45-.47s.4-.16.65-.16c.31 0 .57.07.79.22.22.14.38.36.47.65.11-.28.27-.5.47-.65.21-.15.46-.22.74-.22.43 0 .77.14 1.02.43s.37.72.37 1.31v2.2h-.62v-1.97q0-.57-.12-.87c-.08-.2-.19-.34-.32-.41a1 1 0 0 0-.46-.11c-.3 0-.54.12-.71.36s-.25.58-.25 1.01v1.99h-.62v-1.97q0-.57-.12-.87c-.08-.2-.19-.34-.32-.41-.14-.07-.29-.11-.47-.11-.3 0-.53.12-.7.36s-.25.58-.25 1.01v1.99h-.62Z" fill="#fffcef" data-color="1"/>
        <path d="M128.03 69.32c-.45 0-.8-.1-1.06-.31-.25-.21-.38-.5-.38-.87q0-.585.39-.9c.26-.21.62-.31 1.09-.31h1.1v.52h-.96c-.36 0-.61.06-.77.18a.62.62 0 0 0-.23.51c0 .2.07.36.22.47.15.12.36.17.62.17.22 0 .41-.05.58-.14.16-.09.29-.23.38-.41s.13-.39.13-.63h.26c0 .52-.12.94-.35 1.25s-.58.47-1.03.47Zm1.15-.09-.03-.63v-1.4c0-.3-.03-.55-.1-.75s-.17-.35-.32-.45c-.14-.1-.33-.15-.56-.15-.21 0-.39.04-.54.13s-.28.22-.37.4l-.55-.22c.1-.18.21-.33.35-.47s.3-.23.49-.3.4-.1.63-.1c.36 0 .66.07.89.21s.41.35.53.62c.12.28.17.62.17 1.02v2.09h-.58Z" fill="#fffcef" data-color="1"/>
        <path d="M132.45 67.35v-1.97h.62v1.97zm.61 0c0 .38.04.67.13.87s.21.34.37.41.33.11.53.11q.495 0 .78-.36c.285-.36.28-.58.28-1.01h.3c0 .41-.06.75-.18 1.05s-.29.52-.51.67-.5.23-.82.23c-.3 0-.56-.06-.79-.18s-.4-.31-.52-.58-.19-.61-.19-1.03v-.18zm2.13 1.88-.04-.71v-3.14h.62v3.85z" fill="#fffcef" data-color="1"/>
        <path d="M136.8 69.23v-3.85h.62v3.85zm.33-2.09c0-.42.08-.75.24-1.01s.36-.45.61-.58.51-.19.79-.19v.58c-.23 0-.44.04-.65.11s-.38.2-.51.37-.2.4-.2.69z" fill="#fffcef" data-color="1"/>
        <path d="M139.71 64.48q-.15 0-.27-.12c-.12-.12-.12-.17-.12-.27q0-.165.12-.27c.12-.105.17-.11.27-.11s.2.04.27.11.11.17.11.27-.04.19-.11.27q-.12.12-.27.12m-.32 4.75v-3.85h.62v3.85z" fill="#fffcef" data-color="1"/>
        <path d="M141.09 69.23v-3.85h.58l.04.71v3.14zm2.71-1.98c0-.38-.04-.67-.13-.87s-.21-.34-.36-.41-.33-.11-.52-.11c-.34 0-.6.12-.79.36s-.28.58-.28 1.01h-.3c0-.41.06-.75.18-1.05.12-.29.29-.52.52-.67s.5-.23.82-.23.57.06.79.18.4.31.52.57.19.61.18 1.03v.18h-.62Zm0 1.98v-1.97h.62v1.97z" fill="#fffcef" data-color="1"/>
        <path d="M146.56 69.32c-.45 0-.8-.1-1.06-.31-.25-.21-.38-.5-.38-.87q0-.585.39-.9c.26-.21.62-.31 1.09-.31h1.1v.52h-.96c-.36 0-.61.06-.77.18a.62.62 0 0 0-.23.51c0 .2.07.36.22.47.15.12.36.17.62.17.22 0 .41-.05.58-.14.16-.09.29-.23.38-.41s.13-.39.13-.63h.26c0 .52-.12.94-.35 1.25s-.58.47-1.03.47Zm1.15-.09-.03-.63v-1.4c0-.3-.03-.55-.1-.75s-.17-.35-.32-.45c-.14-.1-.33-.15-.56-.15-.21 0-.39.04-.54.13s-.28.22-.37.4l-.55-.22c.1-.18.21-.33.35-.47s.3-.23.49-.3.4-.1.63-.1c.36 0 .66.07.89.21s.41.35.53.62c.12.28.17.62.17 1.02v2.09h-.58Zm-1.49-4.4.9-.99h.79l-.99.99z" fill="#fffcef" data-color="1"/>
        <path d="M149.22 69.23v-3.85h.62v3.85zm.33-2.09c0-.42.08-.75.24-1.01s.36-.45.61-.58.51-.19.79-.19v.58c-.23 0-.44.04-.65.11s-.38.2-.51.37-.2.4-.2.69z" fill="#fffcef" data-color="1"/>
        <path d="M152.13 64.48q-.15 0-.27-.12c-.12-.12-.12-.17-.12-.27q0-.165.12-.27c.12-.105.17-.11.27-.11s.2.04.27.11.11.17.11.27-.04.19-.11.27q-.12.12-.27.12m-.32 4.75v-3.85h.62v3.85z" fill="#fffcef" data-color="1"/>
        <path d="M155.22 69.32c-.38 0-.71-.09-1-.26s-.52-.41-.68-.71c-.17-.3-.25-.65-.25-1.05s.08-.74.24-1.05c.16-.3.39-.54.68-.71s.62-.26 1-.26.71.09 1 .26.52.41.68.71q.24.45.24 1.05c0 .6-.08.74-.24 1.05-.16.3-.39.54-.67.71-.29.17-.62.26-.99.26Zm-.01-.57c.25 0 .47-.06.67-.18q.285-.18.45-.51c.11-.22.17-.47.17-.75s-.05-.53-.17-.75a1.2 1.2 0 0 0-.46-.51c-.2-.12-.42-.19-.68-.19s-.47.06-.67.19-.34.29-.46.51-.17.47-.17.75.05.53.17.75c.11.22.26.39.46.51s.42.18.67.18Z" fill="#fffcef" data-color="1"/>
        <path d="M158.19 69.33a.38.38 0 0 1-.3-.13.42.42 0 0 1-.13-.3c0-.12.04-.22.13-.3s.19-.13.3-.13.22.04.3.13c.08.08.12.19.12.3s-.04.21-.12.3c-.08.08-.18.13-.3.13" fill="#fffcef" data-color="1"/>
        <path fill="#fffcef" d="M82.83 48.58c0 15.215-12.335 27.55-27.55 27.55S27.73 63.795 27.73 48.58s12.335-27.55 27.55-27.55 27.55 12.335 27.55 27.55" data-color="1"/>
        <path d="M45.35 65.74c-.29 0-.55-.22-.58-.51 0-.05-.59-5.37 7.18-6.82 2.93-.54 5.27-2.62 5.96-5.28.16-.63.25-1.29.25-1.95 0-1.73-.69-3.47-1.94-4.88-.9-1.01-2.17-1.75-3.69-2.15-3.24-.84-5.38-2.44-6.38-4.76-1.82-4.21.86-9.18.98-9.39a.58.58 0 0 1 .8-.23c.29.16.39.51.23.8-.03.05-2.52 4.69-.93 8.36.85 1.96 2.73 3.33 5.59 4.08 1.74.45 3.22 1.32 4.27 2.51 1.44 1.63 2.24 3.64 2.24 5.66 0 .76-.1 1.52-.29 2.25-.81 3.1-3.51 5.51-6.89 6.14-6.64 1.23-6.24 5.34-6.22 5.51a.58.58 0 0 1-.52.65h-.07Z" fill="#00578a" data-color="2"/>
        <path d="M58.56 65.48c-1.57 0-3.11-.3-4.56-.89a.6.6 0 0 1-.33-.77c.12-.3.47-.45.77-.33 1.32.53 2.7.8 4.12.8 6.4 0 11.61-5.53 11.61-12.32s-5.21-12.32-11.61-12.32c-.5 0-1.41.1-2.56.28-1 .16-1.93.09-2.78-.19-1.34-.45-2.26-1.27-2.73-2.43-1.16-2.85.79-6.74.87-6.91.15-.29.5-.41.79-.26s.41.5.26.79c-.02.04-1.79 3.58-.83 5.93.35.85 1.01 1.42 2.02 1.76.66.22 1.41.27 2.22.14.86-.13 2.03-.29 2.74-.29 7.05 0 12.79 6.05 12.79 13.5s-5.74 13.5-12.79 13.5Z" fill="#00578a" data-color="2"/>
        <path d="M69.22 53.22c-1.12 0-2.78-.2-4.99-.98-3.67-1.3-5.05.48-5.11.56a.59.59 0 0 1-.96-.68c.08-.11 1.91-2.6 6.46-.98 3.89 1.38 5.88.78 5.9.78.31-.1.64.07.74.38s-.06.64-.37.74c-.05.02-.61.2-1.68.2Z" fill="#00578a" data-color="2"/>
        <path d="M62.38 55.28h-.89c-.33 0-.59-.26-.59-.59s.26-.59.59-.59h.89c.33 0 .59.26.59.59s-.26.59-.59.59" fill="#00578a" data-color="2"/>
        <path d="M66.19 57.4h-.3a.591.591 0 0 1 0-1.18h.3a.591.591 0 0 1 0 1.18" fill="#00578a" data-color="2"/>
        <path d="M62.59 58.74H62c-.33 0-.59-.26-.59-.59s.26-.59.59-.59h.59c.33 0 .59.26.59.59s-.26.59-.59.59" fill="#00578a" data-color="2"/>
        <path d="M60.57 62.2h-.62c-.33 0-.59-.26-.59-.59s.26-.59.59-.59h.62c.33 0 .59.26.59.59s-.26.59-.59.59" fill="#00578a" data-color="2"/>
        <path d="M56.27 61.35h-.54c-.33 0-.59-.26-.59-.59s.26-.59.59-.59h.54c.33 0 .59.26.59.59s-.26.59-.59.59" fill="#00578a" data-color="2"/>
    </g>
</svg>
