<?xml version="1.0" encoding="UTF-8"?>
<svg data-bbox="0.2 0 237.14 78.12" viewBox="0 0 237.34 78.12" xmlns="http://www.w3.org/2000/svg" data-type="ugc">
    <g>
        <path fill="#fffdf0" stroke="#fffdf0" stroke-miterlimit="10" stroke-width=".4" d="M70.8 36.42c0 19.496-15.804 35.3-35.3 35.3S.2 55.916.2 36.42s15.804-35.3 35.3-35.3 35.3 15.804 35.3 35.3z"/>
        <path d="M17.7 45.73c-.89 0-1.78-.22-2.6-.64a5.6 5.6 0 0 1-2.77-3.31c-.45-1.44-.32-2.96.38-4.3a5.643 5.643 0 0 1 7.61-2.39 5.643 5.643 0 0 1 2.39 7.61 5.62 5.62 0 0 1-3.31 2.77c-.56.18-1.13.26-1.7.26m.01-9.76c-1.49 0-2.93.81-3.66 2.22-.51.98-.61 2.09-.28 3.14s1.05 1.91 2.03 2.42 2.09.61 3.14.28 1.91-1.05 2.42-2.03c1.05-2.02.27-4.51-1.75-5.56-.61-.32-1.26-.47-1.9-.47" fill="#005f21"/>
        <path d="M39.82 58.55c-.77 0-1.54-.18-2.27-.56a4.86 4.86 0 0 1-2.42-2.89c-.4-1.26-.28-2.59.33-3.76a4.86 4.86 0 0 1 2.89-2.42c1.25-.39 2.59-.28 3.76.33s2.03 1.63 2.42 2.89c.4 1.25.28 2.59-.33 3.76a4.95 4.95 0 0 1-4.38 2.65m.02-8.34c-.34 0-.69.05-1.03.16-.87.27-1.58.87-2 1.68a3.41 3.41 0 0 0 1.45 4.6 3.411 3.411 0 0 0 4.83-4.05c-.27-.87-.87-1.58-1.68-2-.49-.26-1.03-.39-1.57-.39" fill="#005f21"/>
        <path d="M36.2 44.88c-1.15 0-2.32-.27-3.41-.84-3.62-1.89-5.04-6.37-3.15-10a7.3 7.3 0 0 1 4.35-3.64c1.89-.6 3.89-.42 5.65.5 3.62 1.89 5.03 6.37 3.15 10a7.42 7.42 0 0 1-6.58 3.98Zm.02-13.31c-.59 0-1.19.09-1.78.27-1.5.47-2.73 1.5-3.46 2.9-1.5 2.88-.38 6.45 2.5 7.95s6.45.38 7.95-2.5.38-6.45-2.5-7.95c-.85-.44-1.78-.67-2.72-.67Z" fill="#005f21"/>
        <path d="M25.97 29.74c-.66 0-1.32-.15-1.94-.48a4.22 4.22 0 0 1-1.79-5.7c.52-1 1.4-1.74 2.48-2.08s2.22-.24 3.22.28a4.22 4.22 0 0 1 1.79 5.7 4.23 4.23 0 0 1-3.75 2.27h-.01Zm.01-6.94c-.27 0-.55.04-.82.13-.69.22-1.25.69-1.59 1.33a2.71 2.71 0 0 0 1.15 3.65c1.32.69 2.96.17 3.65-1.15a2.712 2.712 0 0 0-2.4-3.96z" fill="#005f21"/>
        <path d="M45.09 25.75c-.91 0-1.81-.22-2.64-.65-1.36-.71-2.36-1.9-2.82-3.36s-.32-3.01.38-4.37a5.74 5.74 0 0 1 7.73-2.43 5.74 5.74 0 0 1 2.43 7.73 5.7 5.7 0 0 1-3.36 2.82c-.57.18-1.15.27-1.73.27Zm.01-9.95c-1.52 0-3 .83-3.75 2.27-.52 1-.62 2.14-.28 3.21s1.07 1.95 2.07 2.47 2.14.62 3.22.28a4.2 4.2 0 0 0 2.47-2.07c1.07-2.06.27-4.61-1.79-5.69-.62-.32-1.29-.48-1.94-.48Z" fill="#005f21"/>
        <path d="M54.02 42.56c-.78 0-1.56-.18-2.3-.56-2.44-1.27-3.39-4.29-2.12-6.72 1.27-2.44 4.29-3.39 6.72-2.12a4.996 4.996 0 0 1 2.12 6.73 5 5 0 0 1-4.43 2.68Zm.02-8.46c-1.25 0-2.47.68-3.08 1.87-.88 1.7-.22 3.8 1.47 4.68 1.7.89 3.8.22 4.68-1.47.88-1.7.22-3.8-1.47-4.68-.51-.27-1.06-.39-1.6-.39Z" fill="#005f21"/>
        <path d="M38.98 50.31c-.35 0-.66-.24-.74-.59l-1.28-5.6c-.09-.41.16-.81.57-.91s.81.16.91.57l1.28 5.6c.09.41-.16.81-.57.91-.06 0-.11.02-.17.02" fill="#005f21"/>
        <path d="M22.49 40.01c-.39 0-.72-.3-.75-.69-.04-.42.27-.79.69-.82l7.18-.64c.43-.05.79.27.82.69.04.42-.27.79-.69.82l-7.18.64z" fill="#005f21"/>
        <path d="M39.23 32.3c-.12 0-.23-.03-.34-.08a.76.76 0 0 1-.33-1.02l3.61-7.09c.19-.37.65-.52 1.02-.33s.52.65.33 1.02l-3.61 7.09c-.13.26-.4.41-.68.41" fill="#005f21"/>
        <path d="M31.89 33.17c-.21 0-.43-.09-.58-.26l-3.66-4.27a.76.76 0 0 1 1.15-.99l3.66 4.27c.27.32.24.8-.08 1.07-.14.12-.32.18-.49.18" fill="#005f21"/>
        <path d="m49.8 38.3-6.94-.03c-.42 0-.76-.34-.75-.76 0-.42.32-.7.76-.75l6.94.03c.42 0 .76.34.75.76 0 .42-.34.75-.76.75" fill="#005f21"/>
        <path d="m85.16 7.12 2.68-7h1.84l-2.56 7zM86.42 6V4.37h4.84V6zm4.13 1.12-2.56-7h1.84l2.68 7z" fill="#fffdf0"/>
        <path d="M93.18 7.12v-7h1.95l2.73 3.85V.12h1.85v7h-1.85l-2.83-3.99v3.99z" fill="#fffdf0"/>
        <path d="M102.46 7.12v-5.3h-1.98V.12h5.8v1.7h-1.97v5.3z" fill="#fffdf0"/>
        <path d="M107.05 7.12v-7h1.85v7z" fill="#fffdf0"/>
        <path d="M113.5 7.24c-.73 0-1.38-.16-1.95-.46-.56-.31-1-.74-1.32-1.28s-.48-1.17-.48-1.87.16-1.33.48-1.88c.32-.54.76-.97 1.32-1.28s1.2-.47 1.93-.47 1.38.16 1.94.47 1 .74 1.32 1.28.48 1.17.48 1.88-.16 1.32-.47 1.87-.76.97-1.32 1.28-1.2.46-1.93.46m0-1.7c.36 0 .68-.08.95-.25.27-.16.49-.39.64-.67.15-.29.23-.62.23-.99s-.08-.71-.23-1-.37-.52-.65-.68-.6-.25-.96-.25-.67.08-.95.25-.49.39-.65.68-.23.62-.23 1 .08.7.24.99.38.51.65.67c.28.16.6.25.96.25" fill="#fffdf0"/>
        <path d="m117.57 7.12 2.72-3.82 2.18-3.18h2.21l-2.64 3.6-2.24 3.4zm4.95 0-2.23-3.4-2.65-3.6h2.21l2.19 3.17 2.71 3.83z" fill="#fffdf0"/>
        <path d="M125.45 7.12v-7h1.85v7z" fill="#fffdf0"/>
        <path d="M128.5 7.12v-7h2.34q1.155 0 2.04.45c.885.45 1.05.71 1.38 1.23s.5 1.13.5 1.82-.17 1.28-.5 1.81-.79.94-1.38 1.24-1.27.45-2.04.45zm1.85-1.75h.49c.29 0 .56-.04.81-.13s.46-.21.64-.36a1.62 1.62 0 0 0 .57-1.26 1.62 1.62 0 0 0-.57-1.26 2.1 2.1 0 0 0-.64-.36c-.25-.09-.52-.13-.81-.13h-.49z" fill="#fffdf0"/>
        <path d="m135.08 7.12 2.68-7h1.84l-2.56 7zM136.34 6V4.37h4.84V6zm4.14 1.12-2.56-7h1.84l2.68 7z" fill="#fffdf0"/>
        <path d="M143.1 7.12v-7h1.95l2.73 3.85V.12h1.85v7h-1.85l-2.83-3.99v3.99z" fill="#fffdf0"/>
        <path d="M152.39 7.12v-5.3h-1.98V.12h5.8v1.7h-1.97v5.3z" fill="#fffdf0"/>
        <path d="M156.97 7.12v-7h4.69v1.7h-2.84v.97h2.3v1.65h-2.3v.98h2.91v1.7z" fill="#fffdf0"/>
        <path d="M165.28 7.24a3.4 3.4 0 0 1-1.82-.51q-.39-.24-.63-.54c-.17-.2-.27-.42-.3-.65l1.84-.51c.06.17.16.31.31.42.15.12.34.18.57.2.19 0 .35-.04.49-.15s.22-.25.22-.42q0-.165-.12-.33a.7.7 0 0 0-.4-.22l-1.05-.27c-.36-.09-.67-.24-.93-.43s-.45-.43-.59-.71-.21-.59-.21-.94c0-.69.23-1.22.69-1.6s1.1-.58 1.92-.58c.44 0 .83.06 1.17.17q.51.165.87.54c.24.24.45.56.61.96l-1.83.53a.9.9 0 0 0-.25-.4c-.14-.13-.32-.2-.56-.2s-.4.05-.52.15a.55.55 0 0 0-.19.44c0 .12.05.23.15.32s.24.16.43.21l1.06.27c.53.13.95.4 1.25.79s.45.83.45 1.33c0 .46-.11.85-.31 1.17-.21.32-.51.56-.91.73-.39.17-.86.25-1.41.25Z" fill="#fffdf0"/>
        <path d="M171.13 7.12v-7h1.95l2.73 3.85V.12h1.85v7h-1.85l-2.83-3.99v3.99z" fill="#fffdf0"/>
        <path d="m178.33 7.12 2.68-7h1.84l-2.56 7zM179.59 6V4.37h4.84V6zm4.13 1.12-2.56-7H183l2.68 7z" fill="#fffdf0"/>
        <path d="M187.1 7.12v-5.3h-1.98V.12h5.8v1.7h-1.97v5.3z" fill="#fffdf0"/>
        <path d="M194.58 7.24c-.62 0-1.15-.11-1.6-.34s-.79-.55-1.02-.98c-.24-.42-.36-.93-.36-1.51V.12h1.85v4.29c0 .23.05.43.14.6s.22.29.39.38.38.13.62.13.45-.04.62-.13.3-.21.39-.38.14-.37.14-.6V.12h1.85v4.29c0 .59-.12 1.09-.36 1.51s-.58.75-1.03.98-.99.34-1.62.34Z" fill="#fffdf0"/>
        <path d="M198.69 7.12v-7h2.9c.53 0 .99.1 1.4.3s.72.48.96.84c.23.36.34.77.34 1.24s-.12.88-.34 1.25c-.23.36-.55.65-.96.85s-.88.31-1.4.31h-1.05v2.22h-1.85Zm1.85-3.92h.95c.17 0 .31-.03.44-.09a.68.68 0 0 0 .41-.61c0-.2-.08-.37-.24-.5s-.36-.19-.61-.19h-.95zm1.91 3.92-1.56-2.75 1.39-1.04 2.29 3.79z" fill="#fffdf0"/>
        <path d="m204.89 7.12 2.68-7h1.84l-2.56 7zM206.15 6V4.37h4.84V6zm4.13 1.12-2.56-7h1.84l2.68 7z" fill="#fffdf0"/>
        <path d="M212.91 7.12v-7h1.85v7z" fill="#fffdf0"/>
        <path d="M218.41 7.24a3.4 3.4 0 0 1-1.82-.51q-.39-.24-.63-.54c-.17-.2-.27-.42-.3-.65l1.84-.51c.06.17.16.31.31.42.15.12.34.18.57.2.19 0 .35-.04.49-.15s.22-.25.22-.42q0-.165-.12-.33a.7.7 0 0 0-.4-.22l-1.05-.27c-.36-.09-.67-.24-.93-.43s-.45-.43-.59-.71-.21-.59-.21-.94c0-.69.23-1.22.69-1.6s1.1-.58 1.92-.58c.44 0 .83.06 1.17.17q.51.165.87.54c.24.24.45.56.61.96l-1.83.53a.9.9 0 0 0-.25-.4c-.14-.13-.32-.2-.56-.2s-.4.05-.52.15a.55.55 0 0 0-.19.44c0 .12.05.23.15.32s.24.16.43.21l1.06.27c.53.13.95.4 1.25.79s.45.83.45 1.33c0 .46-.11.85-.31 1.17-.21.32-.51.56-.91.73-.39.17-.86.25-1.41.25Z" fill="#fffdf0"/>
        <path d="m85.18 18.62 2.85-7h.86l-2.81 7zm1.35-1.99v-.76h3.89v.76zm4.34 1.99-2.81-7h.85l2.85 7z" fill="#fffdf0"/>
        <path d="M97.25 18.74c-.49 0-.93-.11-1.31-.33s-.68-.53-.89-.92-.32-.85-.32-1.36.11-.97.31-1.36c.21-.39.51-.7.89-.92s.81-.33 1.3-.33.91.11 1.29.33q.57.33.87.93l-.73.33c-.13-.27-.33-.47-.58-.62s-.54-.22-.87-.22-.62.08-.87.24-.45.38-.59.67-.21.61-.21.97.07.69.21.97.34.51.6.67.55.24.88.24.62-.08.88-.25.45-.4.59-.7l.73.33c-.2.43-.49.76-.87 1s-.81.36-1.3.36Z" fill="#fffdf0"/>
        <path d="M102.66 18.74c-.49 0-.93-.11-1.3-.33-.38-.22-.67-.53-.88-.92s-.32-.85-.32-1.36.11-.97.31-1.36c.21-.39.5-.7.88-.92q.57-.33 1.29-.33c.72 0 .92.11 1.29.33.38.22.67.53.88.92s.31.85.31 1.36-.11.97-.31 1.36c-.21.39-.5.7-.88.92s-.8.33-1.28.33Zm-.01-.74q.495 0 .87-.24c.25-.16.45-.38.59-.67.14-.28.21-.61.21-.97s-.07-.69-.21-.97-.34-.51-.6-.67c-.25-.16-.54-.24-.88-.24s-.62.08-.87.24-.45.38-.59.66-.21.61-.21.98.07.69.21.97.34.51.6.67.55.24.88.24" fill="#fffdf0"/>
        <path d="M106.24 18.62v-5h.75l.04.7c.15-.27.35-.47.59-.61q.36-.21.84-.21c.4 0 .74.09 1.03.28.28.19.49.47.61.85.14-.37.35-.65.62-.84s.59-.29.96-.29c.56 0 1 .19 1.33.56.32.37.48.94.47 1.7v2.86h-.8v-2.56c0-.49-.05-.87-.15-1.13s-.24-.44-.41-.53c-.17-.1-.38-.15-.6-.15-.39 0-.7.16-.92.46q-.33.465-.33 1.32v2.59h-.8v-2.56c0-.49-.05-.87-.16-1.13-.1-.26-.24-.44-.42-.53q-.27-.15-.6-.15c-.39 0-.69.16-.91.46q-.33.465-.33 1.32v2.59h-.8Z" fill="#fffdf0"/>
        <path d="M114.75 18.62v-7h.8v6.07l-.04.93zm2.49.12q-.63 0-1.11-.33c-.48-.33-.56-.53-.73-.92s-.26-.85-.26-1.37.09-.98.26-1.37.42-.7.73-.92.69-.33 1.11-.33c.45 0 .84.11 1.18.33s.61.53.79.92c.19.39.29.85.29 1.37s-.09.97-.29 1.37c-.19.4-.46.71-.79.92s-.73.33-1.18.33m-.18-.73c.31 0 .59-.08.83-.24s.44-.38.58-.67q.21-.42.21-.99c0-.57-.07-.69-.21-.98s-.33-.51-.57-.67-.53-.24-.85-.24c-.29 0-.55.08-.79.24-.23.16-.41.38-.54.67-.13.28-.2.61-.2.99s.06.69.2.98c.13.29.31.51.54.67q.345.24.78.24Z" fill="#fffdf0"/>
        <path d="M121.07 12.46c-.13 0-.25-.05-.35-.15a.485.485 0 0 1 0-.7.49.49 0 0 1 .71 0c.1.1.14.21.14.35s-.05.25-.14.35c-.1.1-.21.15-.36.15m-.41 6.16v-5h.8v5z" fill="#fffdf0"/>
        <path d="M122.93 18.62v-5h.75l.05.92v4.08zm3.51-2.56c0-.49-.06-.87-.17-1.13s-.27-.44-.47-.53-.43-.15-.68-.15c-.44 0-.78.16-1.03.46-.24.31-.37.75-.37 1.32h-.39c0-.53.08-.98.23-1.36s.38-.67.67-.87.65-.3 1.06-.3c.39 0 .73.08 1.03.24.29.16.52.4.68.75.16.34.24.79.23 1.34v.24h-.8Zm0 2.56v-2.56h.8v2.56z" fill="#fffdf0"/>
        <path d="M130.09 18.74c-.59 0-1.04-.13-1.38-.41-.33-.27-.5-.64-.5-1.12 0-.51.17-.89.51-1.17.34-.27.81-.41 1.41-.41h1.43v.67h-1.25c-.47 0-.8.08-.99.23s-.29.37-.29.66c0 .26.1.46.29.62.19.15.46.22.81.22q.435 0 .75-.18c.21-.12.38-.3.5-.53s.17-.5.17-.82h.34c0 .68-.15 1.22-.46 1.62s-.75.61-1.34.61Zm1.5-.12-.04-.82v-1.82c0-.39-.04-.72-.13-.98s-.22-.45-.41-.58-.43-.2-.73-.2c-.27 0-.51.06-.71.17s-.36.29-.48.53l-.72-.28c.13-.23.28-.43.46-.6q.27-.255.63-.39c.24-.09.51-.13.82-.13.47 0 .85.09 1.15.28q.45.27.69.81c.15.36.23.8.22 1.33v2.71h-.75Z" fill="#fffdf0"/>
        <path d="M135.83 18.74c-.49 0-.93-.11-1.31-.33s-.68-.53-.89-.92-.32-.85-.32-1.36.11-.97.31-1.36c.21-.39.51-.7.89-.92s.81-.33 1.3-.33.91.11 1.29.33q.57.33.87.93l-.73.33c-.13-.27-.33-.47-.58-.62s-.54-.22-.87-.22-.62.08-.87.24-.45.38-.59.67-.21.61-.21.97.07.69.21.97.34.51.6.67.55.24.88.24.62-.08.88-.25.45-.4.59-.7l.73.33c-.2.43-.49.76-.87 1s-.81.36-1.3.36Zm-.3 1.98c-.13 0-.27-.02-.42-.05s-.33-.11-.54-.22l.2-.48c.1.05.21.09.32.14a.8.8 0 0 0 .31.07c.12 0 .23-.02.33-.07s.14-.14.14-.29c0-.17-.06-.29-.19-.38-.12-.08-.31-.15-.57-.19l.3-.7.53.12-.11.26c.25.09.42.21.53.36.1.16.16.32.16.5q0 .39-.24.66c-.24.27-.41.26-.75.26Z" fill="#fffdf0"/>
        <path d="M140.6 18.74c-.59 0-1.04-.13-1.38-.41-.33-.27-.5-.64-.5-1.12 0-.51.17-.89.51-1.17.34-.27.81-.41 1.41-.41h1.43v.67h-1.25c-.47 0-.8.08-.99.23s-.29.37-.29.66c0 .26.1.46.29.62.19.15.46.22.81.22q.435 0 .75-.18c.21-.12.38-.3.5-.53s.17-.5.17-.82h.34c0 .68-.15 1.22-.46 1.62s-.75.61-1.34.61Zm1.5-.12-.04-.82v-1.82c0-.39-.04-.72-.13-.98s-.22-.45-.41-.58-.43-.2-.73-.2c-.27 0-.51.06-.71.17s-.36.29-.48.53l-.72-.28c.13-.23.28-.43.46-.6q.27-.255.63-.39c.24-.09.51-.13.82-.13.47 0 .85.09 1.15.28q.45.27.69.81c.15.36.23.8.22 1.33v2.71h-.75Zm-.44-5.66c-.19 0-.35-.04-.47-.11s-.22-.16-.29-.25c-.08-.09-.15-.18-.21-.25-.07-.07-.14-.11-.23-.11-.11 0-.19.03-.25.08s-.1.16-.13.29h-.65c.02-.18.07-.35.16-.5.08-.16.2-.28.35-.38s.32-.14.52-.14.34.04.45.11.21.16.29.25.15.18.22.25.15.11.25.11c.11 0 .2-.03.25-.1s.09-.16.11-.28h.64c-.03.27-.13.5-.3.71s-.4.31-.7.31Z" fill="#fffdf0"/>
        <path d="M146.33 18.74c-.49 0-.93-.11-1.3-.33-.38-.22-.67-.53-.88-.92s-.32-.85-.32-1.36.11-.97.31-1.36c.21-.39.5-.7.88-.92q.57-.33 1.29-.33c.72 0 .92.11 1.29.33.38.22.67.53.88.92s.31.85.31 1.36-.11.97-.31 1.36c-.21.39-.5.7-.88.92s-.8.33-1.28.33Zm-.01-.74q.495 0 .87-.24c.25-.16.45-.38.59-.67.14-.28.21-.61.21-.97s-.07-.69-.21-.97-.34-.51-.6-.67c-.25-.16-.54-.24-.88-.24s-.62.08-.87.24-.45.38-.59.66-.21.61-.21.98.07.69.21.97.34.51.6.67.55.24.88.24" fill="#fffdf0"/>
        <path d="M154.34 18.74c-.45 0-.84-.11-1.18-.33s-.61-.53-.79-.92-.29-.85-.29-1.37.1-.98.29-1.37.46-.7.79-.92.73-.33 1.18-.33q.63 0 1.11.33c.48.33.56.53.73.92s.26.85.26 1.37-.09.97-.26 1.37-.42.71-.73.92-.69.33-1.11.33m.18-.73q.435 0 .78-.24c.23-.16.4-.38.54-.67.13-.29.2-.61.2-.98s-.07-.69-.2-.98-.31-.51-.54-.67-.49-.24-.79-.24-.59.08-.83.24-.44.38-.58.67-.21.61-.21.98.07.69.21.98.33.51.58.67q.375.24.84.24m1.56.61-.04-.93v-6.07h.8v7z" fill="#fffdf0"/>
        <path d="M160.42 18.74q-.735 0-1.29-.33c-.37-.22-.67-.53-.88-.92s-.31-.85-.31-1.36.1-.97.31-1.36.5-.7.87-.92.79-.33 1.28-.33.87.12 1.21.34c.34.23.6.55.79.97.19.41.28.9.28 1.46h-4.13l.2-.17c0 .4.07.74.21 1.03s.35.5.61.66.56.22.89.22c.35 0 .65-.08.89-.25s.43-.39.56-.66l.69.35c-.13.26-.29.49-.51.68-.21.19-.46.34-.74.45s-.6.16-.95.16Zm-1.61-2.98-.21-.16h3.45l-.21.17c0-.32-.06-.6-.19-.83s-.3-.41-.51-.54-.46-.19-.74-.19-.53.06-.78.19c-.24.13-.44.3-.59.54-.15.23-.22.5-.22.82" fill="#fffdf0"/>
        <path d="m167.65 18.62-2.09-5h.83l2.04 5zm.05 0 2.04-5h.84l-2.09 5z" fill="#fffdf0"/>
        <path d="M171.83 12.46c-.13 0-.25-.05-.35-.15a.485.485 0 0 1 0-.7.49.49 0 0 1 .71 0c.1.1.14.21.14.35s-.05.25-.14.35c-.1.1-.21.15-.36.15m-.41 6.16v-5h.8v5z" fill="#fffdf0"/>
        <path d="M173.17 14.33v-.71h3.17v.71zm2.4 4.41c-.49 0-.86-.13-1.13-.38s-.4-.61-.4-1.07v-5.23h.8v5.15c0 .25.07.45.21.58s.33.21.58.21c.08 0 .16-.01.23-.04s.18-.08.3-.17l.31.65c-.17.11-.33.19-.47.23s-.28.07-.43.07" fill="#fffdf0"/>
        <path d="M179.02 18.74c-.59 0-1.04-.13-1.38-.41-.33-.27-.5-.64-.5-1.12 0-.51.17-.89.51-1.17.34-.27.81-.41 1.41-.41h1.43v.67h-1.25c-.47 0-.8.08-.99.23s-.29.37-.29.66c0 .26.1.46.29.62.19.15.46.22.81.22q.435 0 .75-.18c.21-.12.38-.3.5-.53s.17-.5.17-.82h.34c0 .68-.15 1.22-.46 1.62s-.75.61-1.34.61Zm1.5-.12-.04-.82v-1.82c0-.39-.04-.72-.13-.98s-.22-.45-.41-.58-.43-.2-.73-.2c-.27 0-.51.06-.71.17s-.36.29-.48.53l-.72-.28c.13-.23.28-.43.46-.6q.27-.255.63-.39c.24-.09.51-.13.82-.13.47 0 .85.09 1.15.28q.45.27.69.81c.15.36.23.8.22 1.33v2.71h-.75Z" fill="#fffdf0"/>
        <path d="M182.54 18.62v-5h.75l.04.7c.15-.27.35-.47.59-.61q.36-.21.84-.21c.4 0 .74.09 1.03.28s.49.47.62.85c.14-.37.35-.65.62-.84s.59-.29.96-.29c.56 0 1 .19 1.32.56s.48.94.48 1.7v2.86h-.8v-2.56c0-.49-.05-.87-.15-1.13s-.24-.44-.42-.53-.37-.15-.6-.15c-.39 0-.7.16-.92.46q-.33.465-.33 1.32v2.59h-.8v-2.56c0-.49-.05-.87-.15-1.13s-.24-.44-.42-.53c-.18-.1-.38-.15-.61-.15-.39 0-.69.16-.91.46q-.33.465-.33 1.32v2.59h-.8Z" fill="#fffdf0"/>
        <path d="M191.5 12.46c-.13 0-.25-.05-.35-.15a.485.485 0 0 1 0-.7.49.49 0 0 1 .71 0c.1.1.14.21.14.35s-.05.25-.14.35c-.1.1-.21.15-.36.15m-.41 6.16v-5h.8v5z" fill="#fffdf0"/>
        <path d="M193.37 18.62v-5h.75l.05.92v4.08zm3.51-2.56c0-.49-.06-.87-.17-1.13s-.27-.44-.47-.53-.43-.15-.68-.15c-.44 0-.78.16-1.03.46-.24.31-.37.75-.37 1.32h-.39c0-.53.08-.98.23-1.36s.38-.67.67-.87.65-.3 1.06-.3c.39 0 .73.08 1.03.24.29.16.52.4.68.75.16.34.24.79.23 1.34v.24h-.8Zm0 2.56v-2.56h.8v2.56z" fill="#fffdf0"/>
        <path d="M200.53 18.74c-.59 0-1.04-.13-1.38-.41-.33-.27-.5-.64-.5-1.12 0-.51.17-.89.51-1.17.34-.27.81-.41 1.41-.41H202v.67h-1.25c-.47 0-.8.08-.99.23s-.29.37-.29.66c0 .26.1.46.29.62.19.15.46.22.81.22q.435 0 .75-.18c.21-.12.38-.3.5-.53s.17-.5.17-.82h.34c0 .68-.15 1.22-.46 1.62s-.75.61-1.34.61Zm1.5-.12-.04-.82v-1.82c0-.39-.04-.72-.13-.98s-.22-.45-.41-.58-.43-.2-.73-.2c-.27 0-.51.06-.71.17s-.36.29-.48.53l-.72-.28c.13-.23.28-.43.46-.6q.27-.255.63-.39c.24-.09.51-.13.82-.13.47 0 .85.09 1.15.28q.45.27.69.81c.15.36.23.8.22 1.33v2.71h-.75Z" fill="#fffdf0"/>
        <path d="M209.69 18.74c-.67 0-1.26-.16-1.77-.46-.51-.31-.92-.74-1.21-1.28s-.44-1.17-.44-1.88.15-1.33.44-1.88.69-.97 1.2-1.28 1.1-.46 1.76-.46a3.45 3.45 0 0 1 2.25.86c.31.27.54.58.71.93l-.73.37c-.13-.28-.32-.52-.55-.73a2.4 2.4 0 0 0-.78-.48c-.29-.12-.59-.17-.9-.17-.49 0-.92.12-1.31.36s-.69.58-.9 1c-.22.43-.33.92-.33 1.48s.11 1.06.33 1.49.53.77.92 1.01.83.37 1.32.37c.32 0 .62-.07.91-.2s.54-.31.78-.54q.345-.345.54-.78l.74.37c-.17.37-.41.69-.71.98s-.65.51-1.04.67-.79.24-1.21.24Z" fill="#fffdf0"/>
        <path d="m213.42 19.77.57-2.11h.9l-.78 2.11z" fill="#fffdf0"/>
        <path d="M86.02 30.12v-7h4.14v.77h-3.29v2.26h3v.76h-3v2.44h3.31v.77z" fill="#fffdf0"/>
        <path d="M96.37 30.24q-.735 0-1.29-.33c-.37-.22-.66-.53-.88-.92-.21-.39-.31-.85-.31-1.36s.11-.97.31-1.36c.21-.39.5-.7.87-.92s.79-.33 1.28-.33.87.12 1.21.34c.34.23.6.55.79.97.19.41.28.9.28 1.46H94.5l.2-.17c0 .4.07.74.21 1.03s.35.5.61.66.56.22.89.22c.35 0 .65-.08.9-.25.24-.17.43-.39.56-.66l.69.35c-.13.26-.29.49-.5.68s-.46.34-.74.45-.6.16-.95.16Zm-1.62-2.98-.21-.16h3.45l-.21.17c0-.32-.06-.6-.19-.83q-.195-.345-.51-.54c-.21-.13-.46-.19-.74-.19s-.53.06-.78.19c-.24.13-.44.3-.59.54-.15.23-.23.5-.23.82Z" fill="#fffdf0"/>
        <path d="M103.86 30.24c-.37 0-.69-.05-.96-.17s-.5-.25-.69-.44c-.18-.18-.31-.38-.39-.59l.7-.29c.11.23.28.41.51.55q.345.21.75.21c.31 0 .58-.06.79-.19.21-.12.32-.3.32-.52 0-.21-.08-.37-.23-.5-.16-.13-.39-.23-.7-.31l-.48-.13c-.45-.12-.81-.3-1.06-.54s-.38-.52-.38-.83c0-.47.15-.84.46-1.1s.77-.4 1.38-.4c.29 0 .56.04.8.13s.45.21.62.37.3.34.38.55l-.7.31c-.09-.23-.23-.39-.43-.49s-.44-.15-.73-.15c-.31 0-.55.07-.72.2s-.26.31-.26.54c0 .13.07.26.21.38s.35.21.63.29l.5.13c.33.08.6.2.82.36s.38.33.5.53c.11.2.17.41.17.64q0 .45-.24.78c-.16.22-.38.39-.65.5-.27.12-.59.17-.94.17Z" fill="#fffdf0"/>
        <path d="M108.96 30.24q-.735 0-1.29-.33c-.37-.22-.66-.53-.88-.92-.21-.39-.31-.85-.31-1.36s.11-.97.31-1.36c.21-.39.5-.7.87-.92s.79-.33 1.28-.33.87.12 1.21.34c.34.23.6.55.79.97.19.41.28.9.28 1.46h-4.13l.2-.17c0 .4.07.74.21 1.03s.35.5.61.66.56.22.89.22c.35 0 .65-.08.9-.25.24-.17.43-.39.56-.66l.69.35c-.13.26-.29.49-.5.68s-.46.34-.74.45-.6.16-.95.16Zm-1.63-2.98-.21-.16h3.45l-.21.17c0-.32-.06-.6-.19-.83q-.195-.345-.51-.54c-.21-.13-.46-.19-.74-.19s-.53.06-.78.19c-.24.13-.44.3-.59.54-.15.23-.23.5-.23.82Z" fill="#fffdf0"/>
        <path d="M112.23 30.12v-7h.8v7z" fill="#fffdf0"/>
        <path d="M116.62 30.24q-.735 0-1.29-.33c-.37-.22-.66-.53-.88-.92-.21-.39-.31-.85-.31-1.36s.11-.97.31-1.36c.21-.39.5-.7.87-.92s.79-.33 1.28-.33.87.12 1.21.34c.34.23.6.55.79.97.19.41.28.9.28 1.46h-4.13l.2-.17c0 .4.07.74.21 1.03s.35.5.61.66.56.22.89.22c.35 0 .65-.08.9-.25.24-.17.43-.39.56-.66l.69.35c-.13.26-.29.49-.5.68s-.46.34-.74.45-.6.16-.95.16ZM115 27.26l-.21-.16h3.45l-.21.17c0-.32-.06-.6-.19-.83q-.195-.345-.51-.54c-.21-.13-.46-.19-.74-.19s-.53.06-.78.19c-.24.13-.44.3-.59.54-.15.23-.23.5-.23.82Zm-.11-2.96 1.21-1.3h.98v.03l-1.31 1.27zm2.53 0-1.31-1.27V23h.98l1.21 1.3z" fill="#fffdf0"/>
        <path d="M119.9 30.12v-5h.75l.05.92v4.08zm3.51-2.56c0-.49-.06-.87-.17-1.13s-.27-.44-.47-.53c-.2-.1-.43-.15-.68-.15-.44 0-.78.16-1.02.46-.24.31-.37.75-.37 1.32h-.39c0-.53.08-.98.23-1.36s.38-.67.67-.87.65-.3 1.06-.3q.585 0 1.02.24c.29.16.52.4.68.75.16.34.24.79.23 1.34v.24h-.8Zm0 2.56v-2.56h.8v2.56z" fill="#fffdf0"/>
        <path d="M125.94 23.96c-.13 0-.25-.05-.35-.15a.485.485 0 0 1 0-.7.485.485 0 0 1 .7 0c.1.1.15.21.15.35s-.05.25-.15.35-.21.15-.35.15m-.41 6.16v-5h.8v5z" fill="#fffdf0"/>
        <path d="M130.02 30.24c-.49 0-.93-.11-1.3-.33-.38-.22-.67-.53-.88-.92s-.32-.85-.32-1.36.1-.97.31-1.36.5-.7.88-.92q.57-.33 1.29-.33c.72 0 .92.11 1.29.33.38.22.67.53.88.92s.31.85.31 1.36-.1.97-.31 1.36-.5.7-.88.92c-.37.22-.8.33-1.28.33Zm-.01-.74q.495 0 .87-.24c.25-.16.45-.38.59-.67.14-.28.21-.61.21-.97s-.07-.69-.21-.97-.34-.51-.6-.67c-.25-.16-.55-.24-.88-.24s-.61.08-.86.24-.45.38-.59.66-.21.61-.21.98.07.69.21.97.34.51.6.67.55.24.88.24Z" fill="#fffdf0"/>
        <path d="M138.29 30.24c-.49 0-.93-.11-1.3-.33-.38-.22-.67-.53-.88-.92s-.32-.85-.32-1.36.1-.97.31-1.36.5-.7.88-.92q.57-.33 1.29-.33c.72 0 .92.11 1.29.33.38.22.67.53.88.92s.31.85.31 1.36-.1.97-.31 1.36-.5.7-.88.92c-.37.22-.8.33-1.28.33Zm-.01-.74q.495 0 .87-.24c.25-.16.45-.38.59-.67.14-.28.21-.61.21-.97s-.07-.69-.21-.97-.34-.51-.6-.67c-.25-.16-.55-.24-.88-.24s-.61.08-.86.24-.45.38-.59.66-.21.61-.21.98.07.69.21.97.34.51.6.67.55.24.88.24Z" fill="#fffdf0"/>
        <path d="M141.87 30.12v-5h.8v5zm.44-2.71c0-.54.1-.98.31-1.32s.47-.59.79-.75q.48-.24 1.02-.24v.75c-.29 0-.57.05-.84.14s-.49.25-.67.47c-.17.22-.26.52-.26.9l-.36.04Z" fill="#fffdf0"/>
        <path d="M147.22 30.08c-.45 0-.84-.11-1.18-.32s-.61-.51-.79-.89c-.19-.38-.29-.82-.29-1.32s.09-.95.29-1.33c.19-.38.46-.68.79-.89.34-.21.73-.32 1.18-.32.42 0 .79.11 1.1.32s.56.51.73.89c.18.38.27.83.27 1.33s-.09.94-.27 1.32-.42.68-.73.89-.68.32-1.1.32m.03 2.16c-.32 0-.61-.03-.88-.09-.26-.06-.49-.13-.67-.21s-.31-.14-.39-.2l.3-.65c.09.05.21.11.37.17.16.07.35.13.56.18s.45.08.7.08c.32 0 .61-.07.87-.2s.46-.33.6-.61.21-.63.21-1.06v-4.53h.8v4.52c0 .57-.11 1.05-.32 1.44s-.51.68-.88.87-.8.29-1.27.29m.16-2.85q.435 0 .78-.24c.345-.24.4-.38.53-.66s.19-.6.19-.96-.06-.67-.2-.95c-.13-.28-.31-.49-.53-.65s-.48-.24-.79-.24-.59.08-.84.24c-.24.16-.43.37-.57.65s-.21.59-.21.95.07.69.21.96.33.5.58.66c.24.16.52.24.83.24Z" fill="#fffdf0"/>
        <path d="M152.7 30.24c-.59 0-1.04-.13-1.38-.41-.33-.27-.5-.64-.5-1.12 0-.51.17-.89.51-1.17.34-.27.81-.41 1.41-.41h1.43v.67h-1.25c-.47 0-.8.08-.99.23s-.29.37-.29.66c0 .26.1.46.29.62.19.15.46.22.81.22q.435 0 .75-.18c.21-.12.38-.3.5-.53s.17-.5.17-.82h.34c0 .68-.15 1.22-.46 1.62s-.75.61-1.34.61Zm1.5-.12-.04-.82v-1.82c0-.39-.04-.72-.13-.98s-.22-.45-.41-.58-.43-.2-.73-.2c-.27 0-.51.06-.71.17s-.36.29-.48.53l-.72-.28c.13-.23.28-.43.46-.6q.27-.255.63-.39c.24-.09.51-.13.82-.13.47 0 .85.09 1.15.28q.45.27.69.81c.15.36.23.8.22 1.33v2.71h-.75Zm-2.98-5.82 1.21-1.3h.98v.03l-1.31 1.27zm2.53 0-1.31-1.27V23h.98l1.21 1.3z" fill="#fffdf0"/>
        <path d="M156.21 30.12v-5h.75l.05.92v4.08zm3.51-2.56c0-.49-.06-.87-.17-1.13s-.27-.44-.47-.53-.43-.15-.68-.15c-.44 0-.78.16-1.03.46-.24.31-.37.75-.37 1.32h-.39c0-.53.08-.98.23-1.36s.38-.67.67-.87.65-.3 1.06-.3c.39 0 .73.08 1.03.24.29.16.52.4.68.75.16.34.24.79.23 1.34v.24h-.8Zm0 2.56v-2.56h.8v2.56z" fill="#fffdf0"/>
        <path d="M162.25 23.96c-.13 0-.25-.05-.35-.15a.485.485 0 0 1 0-.7.49.49 0 0 1 .71 0c.1.1.14.21.14.35s-.05.25-.14.35c-.1.1-.21.15-.36.15m-.42 6.16v-5h.8v5z" fill="#fffdf0"/>
        <path d="M166.33 30.24c-.49 0-.93-.11-1.31-.33s-.68-.53-.89-.92-.32-.85-.32-1.36.11-.97.31-1.36c.21-.39.51-.7.89-.92s.81-.33 1.3-.33.91.11 1.29.33q.57.33.87.93l-.73.33c-.13-.27-.33-.47-.58-.62s-.54-.22-.87-.22-.62.08-.87.24-.45.38-.59.67-.21.61-.21.97.07.69.21.97.34.51.6.67.55.24.88.24.62-.08.88-.25.45-.4.59-.7l.73.33c-.2.43-.49.76-.87 1s-.81.36-1.3.36Z" fill="#fffdf0"/>
        <path d="M171.74 30.24c-.49 0-.93-.11-1.3-.33-.38-.22-.67-.53-.88-.92s-.32-.85-.32-1.36.11-.97.31-1.36c.21-.39.5-.7.88-.92q.57-.33 1.29-.33c.72 0 .92.11 1.29.33.38.22.67.53.88.92s.31.85.31 1.36-.11.97-.31 1.36c-.21.39-.5.7-.88.92s-.8.33-1.28.33Zm-.01-.74q.495 0 .87-.24c.25-.16.45-.38.59-.67.14-.28.21-.61.21-.97s-.07-.69-.21-.97-.34-.51-.6-.67c-.25-.16-.54-.24-.88-.24s-.62.08-.87.24-.45.38-.59.66-.21.61-.21.98.07.69.21.97.34.51.6.67.55.24.88.24" fill="#fffdf0"/>
        <path d="M179.37 30.24c-.59 0-1.04-.13-1.38-.41-.33-.27-.5-.64-.5-1.12 0-.51.17-.89.51-1.17.34-.27.81-.41 1.41-.41h1.43v.67h-1.25c-.47 0-.8.08-.99.23s-.29.37-.29.66c0 .26.1.46.29.62.19.15.46.22.81.22q.435 0 .75-.18c.21-.12.38-.3.5-.53s.17-.5.17-.82h.34c0 .68-.15 1.22-.46 1.62s-.75.61-1.34.61Zm1.5-.12-.04-.82v-1.82c0-.39-.04-.72-.13-.98s-.22-.45-.41-.58-.43-.2-.73-.2c-.27 0-.51.06-.71.17s-.36.29-.48.53l-.72-.28c.13-.23.28-.43.46-.6q.27-.255.63-.39c.24-.09.51-.13.82-.13.47 0 .85.09 1.15.28q.45.27.69.81c.15.36.23.8.22 1.33v2.71h-.75Z" fill="#fffdf0"/>
        <path d="M182.75 27.68v-2.56h.8v2.56zm.81 0c0 .49.06.87.17 1.13s.27.44.47.53q.3.15.69.15c.43 0 .77-.16 1.01-.47s.37-.75.37-1.31h.39c0 .53-.08.98-.23 1.36s-.38.67-.66.87c-.29.2-.65.3-1.07.3q-.585 0-1.02-.24c-.29-.16-.52-.41-.68-.75s-.24-.79-.24-1.33v-.24zm2.76 2.44-.05-.92v-4.08h.8v5z" fill="#fffdf0"/>
        <path d="m187.86 30.12 2.04-2.87 1.44-2.13h.95l-1.9 2.7-1.56 2.3zm3.6 0-1.54-2.3-1.92-2.7h.95l1.45 2.13 2.02 2.87z" fill="#fffdf0"/>
        <path d="M193.67 23.96c-.13 0-.25-.05-.35-.15a.485.485 0 0 1 0-.7.49.49 0 0 1 .71 0c.1.1.14.21.14.35s-.05.25-.14.35c-.1.1-.21.15-.36.15m-.41 6.16v-5h.8v5z" fill="#fffdf0"/>
        <path d="M195.54 30.12v-7h.8v7z" fill="#fffdf0"/>
        <path d="M198.2 23.96c-.13 0-.25-.05-.35-.15a.485.485 0 0 1 0-.7.485.485 0 0 1 .7 0c.1.1.15.21.15.35s-.05.25-.15.35-.21.15-.35.15m-.41 6.16v-5h.8v5z" fill="#fffdf0"/>
        <path d="M201.64 30.24c-.59 0-1.04-.13-1.38-.41-.33-.27-.49-.64-.49-1.12 0-.51.17-.89.5-1.17.34-.27.81-.41 1.42-.41h1.43v.67h-1.25c-.47 0-.8.08-1 .23s-.29.37-.29.66c0 .26.1.46.29.62.19.15.46.22.81.22q.435 0 .75-.18c.21-.12.38-.3.49-.53.12-.23.18-.5.18-.82h.34c0 .68-.15 1.22-.46 1.62s-.75.61-1.34.61Zm1.5-.12-.04-.82v-1.82c0-.39-.04-.72-.13-.98s-.22-.45-.41-.58-.43-.2-.73-.2c-.27 0-.51.06-.71.17s-.36.29-.48.53l-.72-.28c.13-.23.28-.43.46-.6s.39-.3.63-.39.51-.13.82-.13c.47 0 .85.09 1.16.28.3.18.53.45.68.81s.23.8.22 1.33v2.71h-.75Z" fill="#fffdf0"/>
        <path d="M87.37 41.74c-.59 0-1.04-.13-1.38-.41-.33-.27-.49-.64-.49-1.12 0-.51.17-.89.5-1.17.34-.27.81-.41 1.42-.41h1.43v.67H87.6c-.47 0-.8.08-1 .23s-.29.37-.29.66c0 .26.1.46.29.62.19.15.46.22.81.22q.435 0 .75-.18c.21-.12.38-.3.49-.53.12-.23.18-.5.18-.82h.34c0 .68-.15 1.22-.46 1.62s-.75.61-1.34.61Zm1.5-.12-.04-.82v-1.82c0-.39-.04-.72-.13-.98s-.22-.45-.41-.58-.43-.2-.73-.2c-.27 0-.51.06-.71.17s-.36.29-.48.53l-.72-.28c.13-.23.28-.43.46-.6s.39-.3.63-.39.51-.13.82-.13c.47 0 .85.09 1.16.28.3.18.53.45.68.81s.23.8.22 1.33v2.71h-.75Z" fill="#fffdf0"/>
        <path d="M93.36 41.62v-5h.8v5zm.44-2.71c0-.54.1-.98.31-1.32s.47-.59.79-.75q.48-.24 1.02-.24v.75c-.29 0-.57.05-.84.14s-.49.25-.67.47c-.17.22-.26.52-.26.9l-.36.04Z" fill="#fffdf0"/>
        <path d="M98.92 41.74q-.735 0-1.29-.33c-.37-.22-.67-.53-.88-.92s-.31-.85-.31-1.36.1-.97.31-1.36.5-.7.87-.92.79-.33 1.28-.33.87.12 1.21.34c.34.23.6.55.79.97.19.41.28.9.28 1.46h-4.13l.2-.17c0 .4.07.74.21 1.03s.35.5.61.66.56.22.89.22c.35 0 .65-.08.89-.25s.43-.39.56-.66l.69.35c-.13.26-.29.49-.51.68-.21.19-.46.34-.74.45s-.6.16-.95.16Zm-1.61-2.98-.21-.16h3.45l-.21.17c0-.32-.06-.6-.19-.83s-.3-.41-.51-.54-.46-.19-.74-.19-.53.06-.78.19c-.24.13-.44.3-.59.54-.15.23-.22.5-.22.82" fill="#fffdf0"/>
        <path d="M104.17 41.74c-.45 0-.84-.11-1.18-.33s-.61-.53-.79-.92-.29-.85-.29-1.37.1-.98.29-1.37.46-.7.79-.92.73-.33 1.18-.33q.63 0 1.11.33c.48.33.56.53.73.92s.26.85.26 1.37-.09.97-.26 1.37-.42.71-.73.92-.69.33-1.11.33m.17-.73q.435 0 .78-.24c.23-.16.4-.38.54-.67.13-.29.2-.61.2-.98s-.07-.69-.2-.98-.31-.51-.54-.67-.49-.24-.79-.24-.59.08-.83.24-.44.38-.58.67-.21.61-.21.98.07.69.21.98.33.51.58.67q.375.24.84.24m1.56.61-.04-.93v-6.07h.8v7z" fill="#fffdf0"/>
        <path d="M107.93 39.18v-2.56h.8v2.56zm.8 0c0 .49.06.87.17 1.13s.27.44.47.53c.21.1.43.15.69.15.43 0 .77-.16 1.02-.47.24-.31.37-.75.37-1.31h.39c0 .53-.08.98-.23 1.36s-.38.67-.67.87-.64.3-1.06.3q-.585 0-1.02-.24c-.29-.16-.52-.41-.68-.75s-.24-.79-.24-1.33v-.24h.8Zm2.76 2.44-.05-.92v-4.08h.8v5z" fill="#fffdf0"/>
        <path d="M113.39 41.62v-.64l2.95-3.66h-2.95v-.7h3.99v.62l-2.96 3.68h2.98v.7z" fill="#fffdf0"/>
        <path d="M119.01 35.46c-.13 0-.25-.05-.35-.15a.485.485 0 0 1 0-.7.485.485 0 0 1 .7 0c.1.1.15.21.15.35s-.05.25-.15.35-.21.15-.35.15m-.41 6.16v-5h.8v5z" fill="#fffdf0"/>
        <path d="M120.87 41.62v-5h.8v5zm.44-2.71c0-.54.1-.98.31-1.32s.47-.59.79-.75.67-.24 1.03-.24v.75c-.29 0-.57.05-.85.14-.27.1-.49.25-.66.47s-.26.52-.26.9l-.36.04Z" fill="#fffdf0"/>
        <path d="M128.94 41.74c-.49 0-.93-.11-1.3-.33-.38-.22-.67-.53-.88-.92s-.32-.85-.32-1.36.1-.97.31-1.36.5-.7.88-.92q.57-.33 1.29-.33c.72 0 .92.11 1.29.33.38.22.67.53.88.92s.31.85.31 1.36-.1.97-.31 1.36-.5.7-.88.92c-.37.22-.8.33-1.28.33Zm-.01-.74q.495 0 .87-.24c.25-.16.45-.38.59-.67.14-.28.21-.61.21-.97s-.07-.69-.21-.97-.34-.51-.6-.67c-.25-.16-.55-.24-.88-.24s-.61.08-.86.24-.45.38-.59.66-.21.61-.21.98.07.69.21.97.34.51.6.67.55.24.88.24Z" fill="#fffdf0"/>
        <path d="M137.17 41.74q-.735 0-1.29-.33c-.37-.22-.67-.53-.88-.92s-.31-.85-.31-1.36.1-.97.31-1.36.5-.7.87-.92.79-.33 1.28-.33.87.12 1.21.34c.34.23.6.55.79.97.19.41.28.9.28 1.46h-4.13l.2-.17c0 .4.07.74.21 1.03s.35.5.61.66.56.22.89.22c.35 0 .65-.08.89-.25s.43-.39.56-.66l.69.35c-.13.26-.29.49-.51.68-.21.19-.46.34-.74.45s-.6.16-.95.16Zm-1.61-2.98-.21-.16h3.45l-.21.17c0-.32-.06-.6-.19-.83s-.3-.41-.51-.54-.46-.19-.74-.19-.53.06-.78.19c-.24.13-.44.3-.59.54-.15.23-.22.5-.22.82" fill="#fffdf0"/>
        <path d="M142.2 41.74c-.37 0-.69-.05-.96-.17s-.5-.25-.69-.44c-.18-.18-.31-.38-.39-.59l.7-.29c.11.23.28.41.51.55q.345.21.75.21c.31 0 .58-.06.79-.19.21-.12.32-.3.32-.52 0-.21-.08-.37-.23-.5-.16-.13-.39-.23-.7-.31l-.48-.13c-.45-.12-.81-.3-1.06-.54s-.38-.52-.38-.83c0-.47.15-.84.46-1.1s.77-.4 1.38-.4c.29 0 .56.04.8.13s.45.21.62.37.3.34.38.55l-.7.31c-.09-.23-.23-.39-.43-.49s-.44-.15-.73-.15c-.31 0-.55.07-.72.2s-.26.31-.26.54c0 .13.07.26.21.38s.35.21.63.29l.5.13c.33.08.6.2.82.36s.38.33.5.53c.11.2.17.41.17.64q0 .45-.24.78c-.16.22-.38.39-.65.5-.27.12-.59.17-.94.17Z" fill="#fffdf0"/>
        <path d="M144.58 37.33v-.71h3.17v.71zm2.41 4.41c-.49 0-.86-.13-1.13-.38s-.4-.61-.4-1.07v-5.23h.8v5.15c0 .25.07.45.21.58s.33.21.58.21c.08 0 .16-.01.23-.04s.18-.08.3-.17l.31.65c-.17.11-.33.19-.47.23s-.28.07-.43.07" fill="#fffdf0"/>
        <path d="M148.89 41.62v-5h.8v5zm.44-2.71c0-.54.1-.98.31-1.32s.47-.59.79-.75.67-.24 1.03-.24v.75c-.29 0-.57.05-.85.14-.27.1-.49.25-.66.47s-.26.52-.26.9l-.36.04Z" fill="#fffdf0"/>
        <path d="M154.46 41.74q-.735 0-1.29-.33c-.37-.22-.66-.53-.88-.92-.21-.39-.31-.85-.31-1.36s.11-.97.31-1.36c.21-.39.5-.7.87-.92s.79-.33 1.28-.33.87.12 1.21.34c.34.23.6.55.79.97.19.41.28.9.28 1.46h-4.13l.2-.17c0 .4.07.74.21 1.03s.35.5.61.66.56.22.89.22c.35 0 .65-.08.9-.25.24-.17.43-.39.56-.66l.69.35c-.13.26-.29.49-.5.68s-.46.34-.74.45-.6.16-.95.16Zm-1.63-2.98-.21-.16h3.45l-.21.17c0-.32-.06-.6-.19-.83q-.195-.345-.51-.54c-.21-.13-.46-.19-.74-.19s-.53.06-.78.19c-.24.13-.44.3-.59.54-.15.23-.23.5-.23.82Z" fill="#fffdf0"/>
        <path d="M159.48 41.74c-.37 0-.69-.05-.96-.17s-.5-.25-.69-.44c-.18-.18-.31-.38-.39-.59l.7-.29c.11.23.28.41.51.55q.345.21.75.21c.31 0 .58-.06.79-.19.21-.12.32-.3.32-.52 0-.21-.08-.37-.24-.5s-.39-.23-.7-.31l-.48-.13c-.46-.12-.81-.3-1.06-.54s-.38-.52-.38-.83c0-.47.16-.84.46-1.1.31-.26.77-.4 1.39-.4.29 0 .56.04.8.13s.45.21.62.37.3.34.38.55l-.7.31a.87.87 0 0 0-.43-.49c-.2-.1-.44-.15-.73-.15-.31 0-.55.07-.72.2s-.26.31-.26.54c0 .13.07.26.21.38s.36.21.63.29l.5.13c.33.08.6.2.82.36s.39.33.5.53.17.41.17.64q0 .45-.24.78c-.16.22-.38.39-.65.5-.27.12-.59.17-.94.17Z" fill="#fffdf0"/>
        <path d="M164.14 41.74c-.37 0-.69-.05-.96-.17s-.5-.25-.69-.44c-.18-.18-.31-.38-.39-.59l.7-.29c.11.23.28.41.51.55q.345.21.75.21c.31 0 .58-.06.79-.19.21-.12.32-.3.32-.52 0-.21-.08-.37-.24-.5s-.39-.23-.7-.31l-.48-.13c-.46-.12-.81-.3-1.06-.54s-.38-.52-.38-.83c0-.47.16-.84.46-1.1.31-.26.77-.4 1.39-.4.29 0 .56.04.8.13s.45.21.62.37.3.34.38.55l-.7.31a.87.87 0 0 0-.43-.49c-.2-.1-.44-.15-.73-.15-.31 0-.55.07-.72.2s-.26.31-.26.54c0 .13.07.26.21.38s.36.21.63.29l.5.13c.33.08.6.2.82.36s.39.33.5.53.17.41.17.64q0 .45-.24.78c-.16.22-.38.39-.65.5-.27.12-.59.17-.94.17Z" fill="#fffdf0"/>
        <path d="M169.24 41.74q-.735 0-1.29-.33c-.37-.22-.67-.53-.88-.92s-.31-.85-.31-1.36.1-.97.31-1.36.5-.7.87-.92.79-.33 1.28-.33.87.12 1.21.34c.34.23.6.55.79.97.19.41.28.9.28 1.46h-4.13l.2-.17c0 .4.07.74.21 1.03s.35.5.61.66.56.22.89.22c.35 0 .65-.08.89-.25s.43-.39.56-.66l.69.35c-.13.26-.29.49-.51.68-.21.19-.46.34-.74.45s-.6.16-.95.16Zm-1.62-2.98-.21-.16h3.45l-.21.17c0-.32-.06-.6-.19-.83s-.3-.41-.51-.54-.46-.19-.74-.19-.53.06-.78.19c-.24.13-.44.3-.59.54-.15.23-.22.5-.22.82" fill="#fffdf0"/>
        <path d="M177.2 41.74c-.49 0-.93-.11-1.3-.33-.38-.22-.67-.53-.88-.92s-.32-.85-.32-1.36.1-.97.31-1.36.5-.7.88-.92q.57-.33 1.29-.33c.72 0 .92.11 1.29.33.38.22.67.53.88.92s.31.85.31 1.36-.1.97-.31 1.36-.5.7-.88.92c-.37.22-.8.33-1.28.33Zm-.01-.74q.495 0 .87-.24c.25-.16.45-.38.59-.67.14-.28.21-.61.21-.97s-.07-.69-.21-.97-.34-.51-.6-.67c-.25-.16-.55-.24-.88-.24s-.61.08-.86.24-.45.38-.59.66-.21.61-.21.98.07.69.21.97.34.51.6.67.55.24.88.24Z" fill="#fffdf0"/>
        <path d="m180.13 41.62 2.04-2.87 1.44-2.13h.95l-1.9 2.7-1.56 2.3zm3.59 0-1.54-2.3-1.92-2.7h.95l1.45 2.13 2.02 2.87z" fill="#fffdf0"/>
        <path d="M185.94 35.46c-.13 0-.25-.05-.35-.15a.485.485 0 0 1 0-.7.485.485 0 0 1 .7 0c.1.1.15.21.15.35s-.05.25-.15.35-.21.15-.35.15m-.41 6.16v-5h.8v5z" fill="#fffdf0"/>
        <path d="M189.77 41.74c-.45 0-.84-.11-1.18-.33s-.61-.53-.79-.92c-.19-.4-.29-.85-.29-1.37s.09-.98.29-1.37c.19-.39.46-.7.79-.92s.73-.33 1.18-.33q.63 0 1.11.33c.32.22.56.53.73.92s.26.85.26 1.37-.09.97-.26 1.37-.42.71-.73.92q-.48.33-1.11.33m.18-.73q.435 0 .78-.24c.23-.16.41-.38.54-.67s.2-.61.2-.98-.06-.69-.2-.98c-.13-.29-.31-.51-.54-.67s-.49-.24-.79-.24q-.465 0-.84.24c-.24.16-.43.38-.57.67s-.21.61-.21.98.07.69.21.98.33.51.58.67q.375.24.84.24m1.55.61-.04-.93v-6.07h.8v7z" fill="#fffdf0"/>
        <path d="M195.24 41.74c-.59 0-1.04-.13-1.38-.41-.33-.27-.5-.64-.5-1.12 0-.51.17-.89.51-1.17.34-.27.81-.41 1.41-.41h1.43v.67h-1.25c-.47 0-.8.08-.99.23s-.29.37-.29.66c0 .26.1.46.29.62.19.15.46.22.81.22q.435 0 .75-.18c.21-.12.38-.3.5-.53s.17-.5.17-.82h.34c0 .68-.15 1.22-.46 1.62s-.75.61-1.34.61Zm1.5-.12-.04-.82v-1.82c0-.39-.04-.72-.13-.98s-.22-.45-.41-.58-.43-.2-.73-.2c-.27 0-.51.06-.71.17s-.36.29-.48.53l-.72-.28c.13-.23.28-.43.46-.6q.27-.255.63-.39c.24-.09.51-.13.82-.13.47 0 .85.09 1.15.28q.45.27.69.81c.15.36.23.8.22 1.33v2.71h-.75Z" fill="#fffdf0"/>
        <path d="M198.24 37.33v-.71h3.17v.71zm2.4 4.41c-.49 0-.86-.13-1.13-.38s-.4-.61-.4-1.07v-5.23h.8v5.15c0 .25.07.45.21.58s.33.21.58.21c.08 0 .16-.01.23-.04s.18-.08.3-.17l.31.65c-.17.11-.33.19-.47.23s-.28.07-.43.07" fill="#fffdf0"/>
        <path d="M203 35.46c-.13 0-.25-.05-.35-.15a.485.485 0 0 1 0-.7.485.485 0 0 1 .7 0c.1.1.15.21.15.35s-.05.25-.15.35-.21.15-.35.15m-.41 6.16v-5h.8v5z" fill="#fffdf0"/>
        <path d="m206.34 41.62-2.09-5h.83l2.04 5zm.05 0 2.04-5h.84l-2.09 5z" fill="#fffdf0"/>
        <path d="M212.16 41.74c-.49 0-.93-.11-1.3-.33-.38-.22-.67-.53-.88-.92s-.32-.85-.32-1.36.1-.97.31-1.36.5-.7.88-.92q.57-.33 1.29-.33c.72 0 .92.11 1.29.33.38.22.67.53.88.92s.31.85.31 1.36-.1.97-.31 1.36-.5.7-.88.92c-.37.22-.8.33-1.28.33Zm-.01-.74q.495 0 .87-.24c.25-.16.45-.38.59-.67.14-.28.21-.61.21-.97s-.07-.69-.21-.97-.34-.51-.6-.67c-.25-.16-.55-.24-.88-.24s-.61.08-.86.24-.45.38-.59.66-.21.61-.21.98.07.69.21.97.34.51.6.67.55.24.88.24Z" fill="#fffdf0"/>
        <path d="M88.02 53.24c-.49 0-.93-.11-1.31-.33s-.68-.53-.89-.92-.32-.85-.32-1.36.1-.97.31-1.36.51-.7.88-.92c.38-.22.81-.33 1.3-.33s.91.11 1.29.33q.57.33.87.93l-.73.33c-.13-.27-.33-.47-.58-.62s-.54-.22-.87-.22-.61.08-.86.24-.45.38-.59.67c-.14.28-.21.61-.21.97s.07.69.21.97.34.51.6.67.55.24.88.24.62-.08.88-.25.45-.4.58-.7l.73.33c-.2.43-.49.76-.87 1s-.81.36-1.3.36Z" fill="#fffdf0"/>
        <path d="M93.39 53.24q-.735 0-1.29-.33c-.37-.22-.67-.53-.88-.92s-.31-.85-.31-1.36.1-.97.31-1.36.5-.7.87-.92.79-.33 1.28-.33.87.12 1.21.34c.34.23.6.55.79.97.19.41.28.9.28 1.46h-4.13l.2-.17c0 .4.07.74.21 1.03s.35.5.61.66.56.22.89.22c.35 0 .65-.08.89-.25s.43-.39.56-.66l.69.35c-.13.26-.29.49-.51.68-.21.19-.46.34-.74.45s-.6.16-.95.16Zm-1.62-2.98-.21-.16h3.45l-.21.17c0-.32-.06-.6-.19-.83s-.3-.41-.51-.54-.46-.19-.74-.19-.53.06-.78.19c-.24.13-.44.3-.59.54-.15.23-.22.5-.22.82" fill="#fffdf0"/>
        <path d="M96.66 53.12v-7h.8v7z" fill="#fffdf0"/>
        <path d="M98.73 50.68v-2.56h.8v2.56zm.8 0c0 .49.06.87.17 1.13s.27.44.47.53c.21.1.43.15.69.15.43 0 .77-.16 1.02-.47.24-.31.37-.75.37-1.31h.39c0 .53-.08.98-.23 1.36s-.38.67-.67.87-.64.3-1.06.3q-.585 0-1.02-.24c-.29-.16-.52-.41-.68-.75s-.24-.79-.24-1.33v-.24h.8Zm2.76 2.44-.05-.92v-4.08h.8v5z" fill="#fffdf0"/>
        <path d="M104.44 53.12v-7h.8v7z" fill="#fffdf0"/>
        <path d="M108.22 53.24c-.59 0-1.04-.13-1.38-.41-.33-.27-.5-.64-.5-1.12 0-.51.17-.89.51-1.17.34-.27.81-.41 1.41-.41h1.43v.67h-1.25c-.47 0-.8.08-.99.23s-.29.37-.29.66c0 .26.1.46.29.62.19.15.46.22.81.22q.435 0 .75-.18c.21-.12.38-.3.5-.53s.17-.5.17-.82h.34c0 .68-.15 1.22-.46 1.62s-.75.61-1.34.61Zm1.5-.12-.04-.82v-1.82c0-.39-.04-.72-.13-.98s-.22-.45-.41-.58-.43-.2-.73-.2c-.27 0-.51.06-.71.17s-.36.29-.48.53l-.72-.28c.13-.23.28-.43.46-.6q.27-.255.63-.39c.24-.09.51-.13.82-.13.47 0 .85.09 1.15.28q.45.27.69.81c.15.36.23.8.22 1.33v2.71h-.75Z" fill="#fffdf0"/>
        <path d="M111.74 53.12v-5h.8v5zm.44-2.71c0-.54.1-.98.31-1.32s.47-.59.79-.75q.48-.24 1.02-.24v.75c-.29 0-.57.05-.84.14s-.49.25-.67.47c-.17.22-.26.52-.26.9l-.36.04Z" fill="#fffdf0"/>
        <path d="m114.82 54.27.57-2.11h.9l-.78 2.11z" fill="#fffdf0"/>
        <path d="M122.08 53.24c-.49 0-.93-.11-1.31-.33s-.68-.53-.89-.92-.32-.85-.32-1.36.11-.97.31-1.36c.21-.39.51-.7.89-.92s.81-.33 1.3-.33.91.11 1.29.33q.57.33.87.93l-.73.33c-.13-.27-.33-.47-.58-.62s-.54-.22-.87-.22-.62.08-.87.24-.45.38-.59.67-.21.61-.21.97.07.69.21.97.34.51.6.67.55.24.88.24.62-.08.88-.25.45-.4.59-.7l.73.33c-.2.43-.49.76-.87 1s-.81.36-1.3.36Z" fill="#fffdf0"/>
        <path d="M127.48 53.24c-.49 0-.93-.11-1.3-.33-.38-.22-.67-.53-.88-.92s-.32-.85-.32-1.36.11-.97.31-1.36c.21-.39.5-.7.88-.92q.57-.33 1.29-.33c.72 0 .92.11 1.29.33.38.22.67.53.88.92s.31.85.31 1.36-.11.97-.31 1.36c-.21.39-.5.7-.88.92s-.8.33-1.28.33Zm-.01-.74q.495 0 .87-.24c.25-.16.45-.38.59-.67.14-.28.21-.61.21-.97s-.07-.69-.21-.97-.34-.51-.6-.67c-.25-.16-.54-.24-.88-.24s-.62.08-.87.24-.45.38-.59.66-.21.61-.21.98.07.69.21.97.34.51.6.67.55.24.88.24" fill="#fffdf0"/>
        <path d="M131.06 53.12v-5h.75l.04.7c.15-.27.35-.47.59-.61q.36-.21.84-.21c.4 0 .74.09 1.03.28.28.19.49.47.61.85.14-.37.35-.65.62-.84s.59-.29.96-.29c.56 0 1 .19 1.33.56.32.37.48.94.47 1.7v2.86h-.8v-2.56c0-.49-.05-.87-.15-1.13s-.24-.44-.41-.53c-.17-.1-.38-.15-.6-.15-.39 0-.7.16-.92.46q-.33.465-.33 1.32v2.59h-.8v-2.56c0-.49-.05-.87-.16-1.13-.1-.26-.24-.44-.42-.53q-.27-.15-.6-.15c-.39 0-.69.16-.91.46q-.33.465-.33 1.32v2.59h-.8Z" fill="#fffdf0"/>
        <path d="M139.57 53.12v-7h.8v6.07l-.04.93zm2.49.12q-.63 0-1.11-.33c-.48-.33-.56-.53-.73-.92s-.26-.85-.26-1.37.09-.98.26-1.37.42-.7.73-.92.69-.33 1.11-.33c.45 0 .84.11 1.18.33s.61.53.79.92c.19.39.29.85.29 1.37s-.09.97-.29 1.37c-.19.4-.46.71-.79.92s-.73.33-1.18.33m-.18-.73c.31 0 .59-.08.83-.24s.44-.38.58-.67q.21-.42.21-.99c0-.57-.07-.69-.21-.98s-.33-.51-.57-.67-.53-.24-.85-.24c-.29 0-.55.08-.79.24-.23.16-.41.38-.54.67-.13.28-.2.61-.2.99s.06.69.2.98c.13.29.31.51.54.67q.345.24.78.24Z" fill="#fffdf0"/>
        <path d="M147.01 53.24c-.59 0-1.04-.13-1.38-.41-.33-.27-.5-.64-.5-1.12 0-.51.17-.89.51-1.17.34-.27.81-.41 1.41-.41h1.43v.67h-1.25c-.47 0-.8.08-.99.23s-.29.37-.29.66c0 .26.1.46.29.62.19.15.46.22.81.22q.435 0 .75-.18c.21-.12.38-.3.5-.53s.17-.5.17-.82h.34c0 .68-.15 1.22-.46 1.62s-.75.61-1.34.61Zm1.5-.12-.04-.82v-1.82c0-.39-.04-.72-.13-.98s-.22-.45-.41-.58-.43-.2-.73-.2c-.27 0-.51.06-.71.17s-.36.29-.48.53l-.72-.28c.13-.23.28-.43.46-.6q.27-.255.63-.39c.24-.09.51-.13.82-.13.47 0 .85.09 1.15.28q.45.27.69.81c.15.36.23.8.22 1.33v2.71h-.75Z" fill="#fffdf0"/>
        <path d="M150 48.83v-.71h3.17v.71zm2.41 4.41c-.49 0-.86-.13-1.13-.38s-.4-.61-.4-1.07v-5.23h.8v5.15c0 .25.07.45.21.58s.33.21.58.21c.08 0 .16-.01.23-.04s.18-.08.3-.17l.31.65c-.17.11-.33.19-.47.23s-.28.07-.43.07" fill="#fffdf0"/>
        <path d="M156.47 53.24q-.735 0-1.29-.33c-.37-.22-.66-.53-.88-.92-.21-.39-.31-.85-.31-1.36s.11-.97.31-1.36c.21-.39.5-.7.87-.92s.79-.33 1.28-.33.87.12 1.21.34c.34.23.6.55.79.97.19.41.28.9.28 1.46h-4.13l.2-.17c0 .4.07.74.21 1.03s.35.5.61.66.56.22.89.22c.35 0 .65-.08.9-.25.24-.17.43-.39.56-.66l.69.35c-.13.26-.29.49-.5.68s-.46.34-.74.45-.6.16-.95.16Zm-1.63-2.98-.21-.16h3.45l-.21.17c0-.32-.06-.6-.19-.83q-.195-.345-.51-.54c-.21-.13-.46-.19-.74-.19s-.53.06-.78.19c-.24.13-.44.3-.59.54-.15.23-.23.5-.23.82Z" fill="#fffdf0"/>
        <path d="M159.74 53.12v-5h.75l.05.92v4.08zm3.51-2.56c0-.49-.06-.87-.17-1.13s-.27-.44-.47-.53c-.2-.1-.43-.15-.68-.15-.44 0-.78.16-1.02.46-.24.31-.37.75-.37 1.32h-.39c0-.53.08-.98.23-1.36s.38-.67.67-.87.65-.3 1.06-.3q.585 0 1.02.24c.29.16.52.4.68.75.16.34.24.79.23 1.34v.24h-.8Zm0 2.56v-2.56h.8v2.56z" fill="#fffdf0"/>
        <path d="M167.29 53.24c-.45 0-.84-.11-1.18-.33s-.61-.53-.79-.92c-.19-.4-.29-.85-.29-1.37s.09-.98.29-1.37c.19-.39.46-.7.79-.92s.73-.33 1.18-.33q.63 0 1.11.33c.32.22.56.53.73.92s.26.85.26 1.37-.09.97-.26 1.37-.42.71-.73.92q-.48.33-1.11.33m.18-.73q.435 0 .78-.24c.23-.16.41-.38.54-.67s.2-.61.2-.98-.06-.69-.2-.98c-.13-.29-.31-.51-.54-.67s-.49-.24-.79-.24q-.465 0-.84.24c-.24.16-.43.38-.57.67s-.21.61-.21.98.07.69.21.98.33.51.58.67q.375.24.84.24m1.55.61-.04-.93v-6.07h.8v7z" fill="#fffdf0"/>
        <path d="M173.4 53.24c-.49 0-.93-.11-1.3-.33-.38-.22-.67-.53-.88-.92s-.32-.85-.32-1.36.11-.97.31-1.36c.21-.39.5-.7.88-.92q.57-.33 1.29-.33c.72 0 .92.11 1.29.33.38.22.67.53.88.92s.31.85.31 1.36-.11.97-.31 1.36c-.21.39-.5.7-.88.92s-.8.33-1.28.33Zm-.01-.74q.495 0 .87-.24c.25-.16.45-.38.59-.67.14-.28.21-.61.21-.97s-.07-.69-.21-.97-.34-.51-.6-.67c-.25-.16-.54-.24-.88-.24s-.62.08-.87.24-.45.38-.59.66-.21.61-.21.98.07.69.21.97.34.51.6.67.55.24.88.24" fill="#fffdf0"/>
        <path d="M181.03 53.24c-.59 0-1.04-.13-1.38-.41-.33-.27-.5-.64-.5-1.12 0-.51.17-.89.51-1.17.34-.27.81-.41 1.41-.41h1.43v.67h-1.25c-.47 0-.8.08-.99.23s-.29.37-.29.66c0 .26.1.46.29.62.19.15.46.22.81.22q.435 0 .75-.18c.21-.12.38-.3.5-.53s.17-.5.17-.82h.34c0 .68-.15 1.22-.46 1.62s-.75.61-1.34.61Zm1.5-.12-.04-.82v-1.82c0-.39-.04-.72-.13-.98s-.22-.45-.41-.58-.43-.2-.73-.2c-.27 0-.51.06-.71.17s-.36.29-.48.53l-.72-.28c.13-.23.28-.43.46-.6q.27-.255.63-.39c.24-.09.51-.13.82-.13.47 0 .85.09 1.15.28q.45.27.69.81c.15.36.23.8.22 1.33v2.71h-.75Z" fill="#fffdf0"/>
        <path d="M186.59 48.81v-.69h3.17v.69zm.92 4.31v-5.57c0-.52.12-.91.37-1.17.24-.26.62-.39 1.12-.39.13 0 .28.02.45.07s.34.11.53.2l-.3.63c-.15-.06-.28-.11-.39-.14s-.2-.05-.27-.05c-.23 0-.41.07-.53.22s-.17.38-.17.7v5.51h-.8Z" fill="#fffdf0"/>
        <path d="M192.9 53.24c-.49 0-.93-.11-1.3-.33-.38-.22-.67-.53-.88-.92s-.32-.85-.32-1.36.1-.97.31-1.36.5-.7.88-.92q.57-.33 1.29-.33c.72 0 .92.11 1.29.33.38.22.67.53.88.92s.31.85.31 1.36-.1.97-.31 1.36-.5.7-.88.92c-.37.22-.8.33-1.28.33Zm-.01-.74q.495 0 .87-.24c.25-.16.45-.38.59-.67.14-.28.21-.61.21-.97s-.07-.69-.21-.97-.34-.51-.6-.67c-.25-.16-.55-.24-.88-.24s-.61.08-.86.24-.45.38-.59.66-.21.61-.21.98.07.69.21.97.34.51.6.67.55.24.88.24Z" fill="#fffdf0"/>
        <path d="M196.48 53.12v-5h.8v5zm.44-2.71c0-.54.1-.98.31-1.32s.47-.59.79-.75q.48-.24 1.02-.24v.75c-.29 0-.57.05-.84.14s-.49.25-.67.47c-.17.22-.26.52-.26.9l-.36.04Z" fill="#fffdf0"/>
        <path d="M199.85 53.12v-5h.75l.04.7c.15-.27.35-.47.59-.61q.36-.21.84-.21c.4 0 .74.09 1.03.28.28.19.49.47.61.85.14-.37.35-.65.62-.84s.59-.29.96-.29c.56 0 1 .19 1.33.56.32.37.48.94.47 1.7v2.86h-.8v-2.56c0-.49-.05-.87-.15-1.13s-.24-.44-.41-.53c-.17-.1-.38-.15-.6-.15-.39 0-.7.16-.92.46q-.33.465-.33 1.32v2.59h-.8v-2.56c0-.49-.05-.87-.16-1.13-.1-.26-.24-.44-.42-.53q-.27-.15-.6-.15c-.39 0-.69.16-.91.46q-.33.465-.33 1.32v2.59h-.8Z" fill="#fffdf0"/>
        <path d="M209.94 53.24c-.59 0-1.04-.13-1.38-.41-.33-.27-.49-.64-.49-1.12 0-.51.17-.89.5-1.17.34-.27.81-.41 1.42-.41h1.43v.67h-1.25c-.47 0-.8.08-1 .23s-.29.37-.29.66c0 .26.1.46.29.62.19.15.46.22.81.22q.435 0 .75-.18c.21-.12.38-.3.49-.53.12-.23.18-.5.18-.82h.34c0 .68-.15 1.22-.46 1.62s-.75.61-1.34.61Zm1.5-.12-.04-.82v-1.82c0-.39-.04-.72-.13-.98s-.22-.45-.41-.58-.43-.2-.73-.2c-.27 0-.51.06-.71.17s-.36.29-.48.53l-.72-.28c.13-.23.28-.43.46-.6s.39-.3.63-.39.51-.13.82-.13c.47 0 .85.09 1.16.28.3.18.53.45.68.81s.23.8.22 1.33v2.71h-.75Z" fill="#fffdf0"/>
        <path d="M215.69 53.24c-.49 0-.93-.11-1.31-.33s-.68-.53-.89-.92-.32-.85-.32-1.36.1-.97.31-1.36.51-.7.88-.92c.38-.22.81-.33 1.3-.33s.91.11 1.29.33q.57.33.87.93l-.73.33c-.13-.27-.33-.47-.58-.62s-.54-.22-.87-.22-.61.08-.86.24-.45.38-.59.67c-.14.28-.21.61-.21.97s.07.69.21.97.34.51.6.67.55.24.88.24.62-.08.88-.25.45-.4.58-.7l.73.33c-.2.43-.49.76-.87 1s-.81.36-1.3.36Zm-.31 1.98c-.13 0-.27-.02-.42-.05s-.33-.11-.54-.22l.2-.48c.1.05.21.09.32.14.12.05.22.07.32.07.12 0 .23-.02.32-.07.1-.05.14-.14.14-.29a.44.44 0 0 0-.18-.38c-.12-.08-.32-.15-.58-.19l.3-.7.53.12-.11.26c.25.09.42.21.53.36.1.16.15.32.15.5 0 .26-.08.48-.23.66s-.41.26-.76.26Z" fill="#fffdf0"/>
        <path d="M220.45 53.24c-.59 0-1.04-.13-1.38-.41-.33-.27-.49-.64-.49-1.12 0-.51.17-.89.5-1.17.34-.27.81-.41 1.42-.41h1.43v.67h-1.25c-.47 0-.8.08-1 .23s-.29.37-.29.66c0 .26.1.46.29.62.19.15.46.22.81.22q.435 0 .75-.18c.21-.12.38-.3.49-.53.12-.23.18-.5.18-.82h.34c0 .68-.15 1.22-.46 1.62s-.75.61-1.34.61Zm1.5-.12-.04-.82v-1.82c0-.39-.04-.72-.13-.98s-.22-.45-.41-.58-.43-.2-.73-.2c-.27 0-.51.06-.71.17s-.36.29-.48.53l-.72-.28c.13-.23.28-.43.46-.6s.39-.3.63-.39.51-.13.82-.13c.47 0 .85.09 1.16.28.3.18.53.45.68.81s.23.8.22 1.33v2.71h-.75Zm-.44-5.66c-.19 0-.35-.04-.47-.11s-.22-.16-.29-.25c-.08-.09-.15-.18-.21-.25-.07-.07-.14-.11-.23-.11-.11 0-.19.03-.24.08s-.1.16-.13.29h-.65c.02-.18.07-.35.15-.5.08-.16.2-.28.35-.38.15-.09.32-.14.51-.14s.34.04.45.11.21.16.29.25.15.18.22.25.16.11.26.11c.11 0 .2-.03.25-.1s.09-.16.11-.28h.64c-.03.27-.13.5-.3.71s-.4.31-.7.31Z" fill="#fffdf0"/>
        <path d="M226.18 53.24c-.49 0-.93-.11-1.3-.33-.38-.22-.67-.53-.88-.92s-.32-.85-.32-1.36.1-.97.31-1.36.5-.7.88-.92q.57-.33 1.29-.33c.72 0 .92.11 1.29.33.38.22.67.53.88.92s.31.85.31 1.36-.1.97-.31 1.36-.5.7-.88.92c-.37.22-.8.33-1.28.33Zm-.01-.74q.495 0 .87-.24c.25-.16.45-.38.59-.67.14-.28.21-.61.21-.97s-.07-.69-.21-.97-.34-.51-.6-.67c-.25-.16-.55-.24-.88-.24s-.61.08-.86.24-.45.38-.59.66-.21.61-.21.98.07.69.21.97.34.51.6.67.55.24.88.24Z" fill="#fffdf0"/>
        <path d="M87.76 64.74c-.45 0-.84-.11-1.18-.33s-.61-.53-.79-.92c-.19-.4-.29-.85-.29-1.37s.09-.98.29-1.37c.19-.39.46-.7.79-.92s.73-.33 1.18-.33q.63 0 1.11.33c.32.22.56.53.73.92s.26.85.26 1.37-.09.97-.26 1.37-.42.71-.73.92q-.48.33-1.11.33m.18-.73q.435 0 .78-.24c.23-.16.41-.38.54-.67s.2-.61.2-.98-.06-.69-.2-.98c-.13-.29-.31-.51-.54-.67s-.49-.24-.79-.24q-.465 0-.84.24c-.24.16-.43.38-.57.67s-.21.61-.21.98.07.69.21.98.33.51.58.67q.375.24.84.24m1.55.61-.04-.93v-6.07h.8v7z" fill="#fffdf0"/>
        <path d="M93.84 64.74q-.735 0-1.29-.33c-.37-.22-.66-.53-.88-.92-.21-.39-.31-.85-.31-1.36s.11-.97.31-1.36c.21-.39.5-.7.87-.92s.79-.33 1.28-.33.87.12 1.21.34c.34.23.6.55.79.97.19.41.28.9.28 1.46h-4.13l.2-.17c0 .4.07.74.21 1.03s.35.5.61.66.56.22.89.22c.35 0 .65-.08.9-.25.24-.17.43-.39.56-.66l.69.35c-.13.26-.29.49-.5.68s-.46.34-.74.45-.6.16-.95.16Zm-1.62-2.98-.21-.16h3.45l-.21.17c0-.32-.06-.6-.19-.83q-.195-.345-.51-.54c-.21-.13-.46-.19-.74-.19s-.53.06-.78.19c-.24.13-.44.3-.59.54-.15.23-.23.5-.23.82Z" fill="#fffdf0"/>
        <path d="M99.58 64.62v-5h.8v5zm.44-2.71c0-.54.1-.98.31-1.32s.47-.59.79-.75q.48-.24 1.02-.24v.75c-.29 0-.57.05-.84.14s-.49.25-.67.47c-.17.22-.26.52-.26.9l-.36.04Z" fill="#fffdf0"/>
        <path d="M104.54 64.74c-.59 0-1.04-.13-1.38-.41-.33-.27-.49-.64-.49-1.12 0-.51.17-.89.5-1.17.34-.27.81-.41 1.42-.41h1.43v.67h-1.25c-.47 0-.8.08-1 .23s-.29.37-.29.66c0 .26.1.46.29.62.19.15.46.22.81.22q.435 0 .75-.18c.21-.12.38-.3.49-.53.12-.23.18-.5.18-.82h.34c0 .68-.15 1.22-.46 1.62s-.75.61-1.34.61Zm1.5-.12-.04-.82v-1.82c0-.39-.04-.72-.13-.98s-.22-.45-.41-.58-.43-.2-.73-.2c-.27 0-.51.06-.71.17s-.36.29-.48.53l-.72-.28c.13-.23.28-.43.46-.6s.39-.3.63-.39.51-.13.82-.13c.47 0 .85.09 1.16.28.3.18.53.45.68.81s.23.8.22 1.33v2.71h-.75Z" fill="#fffdf0"/>
        <path d="M110.03 64.74c-.45 0-.84-.11-1.18-.33s-.61-.53-.79-.92c-.19-.4-.29-.85-.29-1.37s.09-.98.29-1.37c.19-.39.46-.7.79-.92s.73-.33 1.18-.33q.63 0 1.11.33c.32.22.56.53.73.92s.26.85.26 1.37-.09.97-.26 1.37-.42.71-.73.92q-.48.33-1.11.33m.18-.73q.435 0 .78-.24c.23-.16.41-.38.54-.67s.2-.61.2-.98-.06-.69-.2-.98c-.13-.29-.31-.51-.54-.67s-.49-.24-.79-.24q-.465 0-.84.24c-.24.16-.43.38-.57.67s-.21.61-.21.98.07.69.21.98.33.51.58.67q.375.24.84.24m1.55.61-.04-.93v-6.07h.8v7z" fill="#fffdf0"/>
        <path d="M114.38 58.46c-.13 0-.25-.05-.35-.15a.485.485 0 0 1 0-.7.49.49 0 0 1 .71 0c.1.1.14.21.14.35s-.05.25-.14.35c-.1.1-.21.15-.36.15m-.41 6.16v-5h.8v5z" fill="#fffdf0"/>
        <path d="M118.47 64.74c-.49 0-.93-.11-1.31-.33s-.68-.53-.89-.92-.32-.85-.32-1.36.11-.97.31-1.36c.21-.39.51-.7.89-.92s.81-.33 1.3-.33.91.11 1.29.33q.57.33.87.93l-.73.33c-.13-.27-.33-.47-.58-.62s-.54-.22-.87-.22-.62.08-.87.24-.45.38-.59.67-.21.61-.21.97.07.69.21.97.34.51.6.67.55.24.88.24.62-.08.88-.25.45-.4.59-.7l.73.33c-.2.43-.49.76-.87 1s-.81.36-1.3.36Z" fill="#fffdf0"/>
        <path d="M123.23 64.74c-.59 0-1.04-.13-1.38-.41-.33-.27-.5-.64-.5-1.12 0-.51.17-.89.51-1.17.34-.27.81-.41 1.41-.41h1.43v.67h-1.25c-.47 0-.8.08-.99.23s-.29.37-.29.66c0 .26.1.46.29.62.19.15.46.22.81.22q.435 0 .75-.18c.21-.12.38-.3.5-.53s.17-.5.17-.82h.34c0 .68-.15 1.22-.46 1.62s-.75.61-1.34.61Zm1.5-.12-.04-.82v-1.82c0-.39-.04-.72-.13-.98s-.22-.45-.41-.58-.43-.2-.73-.2c-.27 0-.51.06-.71.17s-.36.29-.48.53l-.72-.28c.13-.23.28-.43.46-.6q.27-.255.63-.39c.24-.09.51-.13.82-.13.47 0 .85.09 1.15.28q.45.27.69.81c.15.36.23.8.22 1.33v2.71h-.75Z" fill="#fffdf0"/>
        <path d="M127.21 58.46c-.13 0-.25-.05-.35-.15a.485.485 0 0 1 0-.7.49.49 0 0 1 .71 0c.1.1.14.21.14.35s-.05.25-.14.35c-.1.1-.21.15-.36.15m-.41 6.16v-5h.8v5z" fill="#fffdf0"/>
        <path d="M130.82 64.74c-.37 0-.69-.05-.96-.17s-.5-.25-.69-.44c-.18-.18-.31-.38-.39-.59l.7-.29c.11.23.28.41.51.55q.345.21.75.21c.31 0 .58-.06.79-.19.21-.12.32-.3.32-.52 0-.21-.08-.37-.23-.5-.16-.13-.39-.23-.7-.31l-.48-.13c-.45-.12-.81-.3-1.06-.54s-.38-.52-.38-.83c0-.47.15-.84.46-1.1s.77-.4 1.38-.4c.29 0 .56.04.8.13s.45.21.62.37.3.34.38.55l-.7.31c-.09-.23-.23-.39-.43-.49s-.44-.15-.73-.15c-.31 0-.55.07-.72.2s-.26.31-.26.54c0 .13.07.26.21.38s.35.21.63.29l.5.13c.33.08.6.2.82.36s.38.33.5.53c.11.2.17.41.17.64q0 .45-.24.78c-.16.22-.38.39-.65.5-.27.12-.59.17-.94.17Z" fill="#fffdf0"/>
        <path d="M136.2 64.62v-7h.8v7z" fill="#fffdf0"/>
        <path d="M138.86 58.46c-.13 0-.25-.05-.35-.15a.485.485 0 0 1 0-.7.49.49 0 0 1 .71 0c.1.1.14.21.14.35s-.05.25-.14.35c-.1.1-.21.15-.36.15m-.41 6.16v-5h.8v5z" fill="#fffdf0"/>
        <path d="m142.2 64.62-2.09-5h.83l2.04 5zm.05 0 2.04-5h.84l-2.09 5z" fill="#fffdf0"/>
        <path d="M145.92 64.62v-5h.8v5zm.44-2.71c0-.54.1-.98.31-1.32s.47-.59.79-.75.67-.24 1.03-.24v.75c-.29 0-.57.05-.85.14-.27.1-.49.25-.66.47s-.26.52-.26.9l-.36.04Z" fill="#fffdf0"/>
        <path d="M151.49 64.74q-.735 0-1.29-.33c-.37-.22-.66-.53-.88-.92-.21-.39-.31-.85-.31-1.36s.11-.97.31-1.36c.21-.39.5-.7.87-.92s.79-.33 1.28-.33.87.12 1.21.34c.34.23.6.55.79.97.19.41.28.9.28 1.46h-4.13l.2-.17c0 .4.07.74.21 1.03s.35.5.61.66.56.22.89.22c.35 0 .65-.08.9-.25.24-.17.43-.39.56-.66l.69.35c-.13.26-.29.49-.5.68s-.46.34-.74.45-.6.16-.95.16Zm-1.62-2.98-.21-.16h3.45l-.21.17c0-.32-.06-.6-.19-.83q-.195-.345-.51-.54c-.21-.13-.46-.19-.74-.19s-.53.06-.78.19c-.24.13-.44.3-.59.54-.15.23-.23.5-.23.82Z" fill="#fffdf0"/>
        <path d="M156.51 64.74c-.37 0-.69-.05-.96-.17s-.5-.25-.69-.44c-.18-.18-.31-.38-.39-.59l.7-.29c.11.23.28.41.51.55q.345.21.75.21c.31 0 .58-.06.79-.19.21-.12.32-.3.32-.52 0-.21-.08-.37-.24-.5s-.39-.23-.7-.31l-.48-.13c-.46-.12-.81-.3-1.06-.54s-.38-.52-.38-.83c0-.47.16-.84.46-1.1.31-.26.77-.4 1.39-.4.29 0 .56.04.8.13s.45.21.62.37.3.34.38.55l-.7.31a.87.87 0 0 0-.43-.49c-.2-.1-.44-.15-.73-.15-.31 0-.55.07-.72.2s-.26.31-.26.54c0 .13.07.26.21.38s.36.21.63.29l.5.13c.33.08.6.2.82.36s.39.33.5.53.17.41.17.64q0 .45-.24.78c-.16.22-.38.39-.65.5-.27.12-.59.17-.94.17Z" fill="#fffdf0"/>
        <path d="M164.08 64.74q-.735 0-1.29-.33c-.37-.22-.66-.53-.88-.92-.21-.39-.31-.85-.31-1.36s.11-.97.31-1.36c.21-.39.5-.7.87-.92s.79-.33 1.28-.33.87.12 1.21.34c.34.23.6.55.79.97.19.41.28.9.28 1.46h-4.13l.2-.17c0 .4.07.74.21 1.03s.35.5.61.66.56.22.89.22c.35 0 .65-.08.9-.25.24-.17.43-.39.56-.66l.69.35c-.13.26-.29.49-.5.68s-.46.34-.74.45-.6.16-.95.16Zm-1.62-2.98-.21-.16h3.45l-.21.17c0-.32-.06-.6-.19-.83q-.195-.345-.51-.54c-.21-.13-.46-.19-.74-.19s-.53.06-.78.19c-.24.13-.44.3-.59.54-.15.23-.23.5-.23.82Z" fill="#fffdf0"/>
        <path d="M169.87 66.62v-7h.75l.05.92v6.08zm2.49-1.88q-.63 0-1.11-.33c-.48-.33-.56-.53-.73-.92s-.26-.85-.26-1.37.09-.98.26-1.37.42-.7.73-.92.69-.33 1.11-.33c.45 0 .84.11 1.18.33s.61.53.79.92c.19.39.29.85.29 1.37s-.09.97-.29 1.37c-.19.4-.46.71-.79.92s-.73.33-1.18.33m-.18-.73c.31 0 .59-.08.83-.24s.44-.38.58-.67c.14-.28.22-.61.22-.99s-.07-.69-.21-.98-.33-.51-.57-.67-.53-.24-.85-.24c-.29 0-.55.08-.79.24-.23.16-.41.38-.54.67-.13.28-.2.61-.2.99s.06.69.2.98c.13.29.31.51.54.67q.345.24.78.24Z" fill="#fffdf0"/>
        <path d="M175.73 64.62v-5h.8v5zm.44-2.71c0-.54.1-.98.31-1.32s.47-.59.79-.75q.48-.24 1.02-.24v.75c-.29 0-.57.05-.84.14s-.49.25-.67.47c-.17.22-.26.52-.26.9l-.36.04Z" fill="#fffdf0"/>
        <path d="M181.33 64.74c-.49 0-.93-.11-1.3-.33-.38-.22-.67-.53-.88-.92s-.32-.85-.32-1.36.1-.97.31-1.36.5-.7.88-.92q.57-.33 1.29-.33c.72 0 .92.11 1.29.33.38.22.67.53.88.92s.31.85.31 1.36-.1.97-.31 1.36-.5.7-.88.92c-.37.22-.8.33-1.28.33Zm-.01-.74q.495 0 .87-.24c.25-.16.45-.38.59-.67.14-.28.21-.61.21-.97s-.07-.69-.21-.97-.34-.51-.6-.67c-.25-.16-.55-.24-.88-.24s-.61.08-.86.24-.45.38-.59.66-.21.61-.21.98.07.69.21.97.34.51.6.67.55.24.88.24Z" fill="#fffdf0"/>
        <path d="M184.39 60.33v-.71h3.17v.71zm2.4 4.41c-.49 0-.86-.13-1.13-.38s-.4-.61-.4-1.07v-5.23h.8v5.15c0 .25.07.45.21.58s.33.21.58.21c.08 0 .16-.01.23-.04s.18-.08.3-.17l.31.65c-.17.11-.33.19-.47.23s-.28.07-.43.07" fill="#fffdf0"/>
        <path d="M190.85 64.74q-.735 0-1.29-.33c-.37-.22-.66-.53-.88-.92-.21-.39-.31-.85-.31-1.36s.11-.97.31-1.36c.21-.39.5-.7.87-.92s.79-.33 1.28-.33.87.12 1.21.34c.34.23.6.55.79.97.19.41.28.9.28 1.46h-4.13l.2-.17c0 .4.07.74.21 1.03s.35.5.61.66.56.22.89.22c.35 0 .65-.08.9-.25.24-.17.43-.39.56-.66l.69.35c-.13.26-.29.49-.5.68s-.46.34-.74.45-.6.16-.95.16Zm-1.62-2.98-.21-.16h3.45l-.21.17c0-.32-.06-.6-.19-.83q-.195-.345-.51-.54c-.21-.13-.46-.19-.74-.19s-.53.06-.78.19c-.24.13-.44.3-.59.54-.15.23-.23.5-.23.82Z" fill="#fffdf0"/>
        <path d="M196.09 64.58c-.45 0-.84-.11-1.18-.32s-.61-.51-.79-.89c-.19-.38-.29-.82-.29-1.32s.09-.95.29-1.33c.19-.38.46-.68.79-.89.34-.21.73-.32 1.18-.32.42 0 .79.11 1.1.32s.56.51.73.89c.18.38.27.83.27 1.33s-.09.94-.27 1.32-.42.68-.73.89-.68.32-1.1.32m.03 2.16c-.32 0-.61-.03-.88-.09-.26-.06-.49-.13-.67-.21s-.31-.14-.39-.2l.3-.65c.09.05.21.11.37.17.16.07.35.13.56.18s.45.08.7.08c.32 0 .61-.07.87-.2s.46-.33.6-.61.21-.63.21-1.06v-4.53h.8v4.52c0 .57-.11 1.05-.32 1.44s-.51.68-.88.87-.8.29-1.27.29m.16-2.85q.435 0 .78-.24c.345-.24.4-.38.53-.66s.19-.6.19-.96-.06-.67-.2-.95c-.13-.28-.31-.49-.53-.65s-.48-.24-.79-.24-.59.08-.84.24c-.24.16-.43.37-.57.65s-.21.59-.21.95.07.69.21.96.33.5.58.66c.24.16.52.24.83.24Z" fill="#fffdf0"/>
        <path d="M202.18 64.74q-.735 0-1.29-.33c-.37-.22-.66-.53-.88-.92-.21-.39-.31-.85-.31-1.36s.11-.97.31-1.36c.21-.39.5-.7.87-.92s.79-.33 1.28-.33.87.12 1.21.34c.34.23.6.55.79.97.19.41.28.9.28 1.46h-4.13l.2-.17c0 .4.07.74.21 1.03s.35.5.61.66.56.22.89.22c.35 0 .65-.08.9-.25.24-.17.43-.39.56-.66l.69.35c-.13.26-.29.49-.5.68s-.46.34-.74.45-.6.16-.95.16Zm-1.62-2.98-.21-.16h3.45l-.21.17c0-.32-.06-.6-.19-.83q-.195-.345-.51-.54c-.21-.13-.46-.19-.74-.19s-.53.06-.78.19c-.24.13-.44.3-.59.54-.15.23-.23.5-.23.82Z" fill="#fffdf0"/>
        <path d="M205.45 64.62v-5h.75l.05.92v4.08zm3.51-2.56c0-.49-.06-.87-.17-1.13s-.27-.44-.47-.53c-.2-.1-.43-.15-.68-.15-.44 0-.78.16-1.02.46-.24.31-.37.75-.37 1.32h-.39c0-.53.08-.98.23-1.36s.38-.67.67-.87.65-.3 1.06-.3q.585 0 1.02.24c.29.16.52.4.68.75.16.34.24.79.23 1.34v.24h-.8Zm0 2.56v-2.56h.8v2.56z" fill="#fffdf0"/>
        <path d="M213 64.74c-.45 0-.84-.11-1.18-.33s-.61-.53-.79-.92c-.19-.4-.29-.85-.29-1.37s.09-.98.29-1.37c.19-.39.46-.7.79-.92s.73-.33 1.18-.33q.63 0 1.11.33c.32.22.56.53.73.92s.26.85.26 1.37-.09.97-.26 1.37-.42.71-.73.92q-.48.33-1.11.33m.18-.73q.435 0 .78-.24c.23-.16.41-.38.54-.67s.2-.61.2-.98-.06-.69-.2-.98c-.13-.29-.31-.51-.54-.67s-.49-.24-.79-.24q-.465 0-.84.24c-.24.16-.43.38-.57.67s-.21.61-.21.98.07.69.21.98.33.51.58.67q.375.24.84.24m1.55.61-.04-.93v-6.07h.8v7z" fill="#fffdf0"/>
        <path d="M219.11 64.74c-.49 0-.93-.11-1.3-.33-.38-.22-.67-.53-.88-.92s-.32-.85-.32-1.36.11-.97.31-1.36c.21-.39.5-.7.88-.92q.57-.33 1.29-.33c.72 0 .92.11 1.29.33.38.22.67.53.88.92s.31.85.31 1.36-.11.97-.31 1.36c-.21.39-.5.7-.88.92s-.8.33-1.28.33Zm-.01-.74q.495 0 .87-.24c.25-.16.45-.38.59-.67.14-.28.21-.61.21-.97s-.07-.69-.21-.97-.34-.51-.6-.67c-.25-.16-.54-.24-.88-.24s-.62.08-.87.24-.45.38-.59.66-.21.61-.21.98.07.69.21.97.34.51.6.67.55.24.88.24" fill="#fffdf0"/>
        <path d="M88.02 76.24c-.49 0-.93-.11-1.31-.33s-.68-.53-.89-.92-.32-.85-.32-1.36.1-.97.31-1.36.51-.7.88-.92c.38-.22.81-.33 1.3-.33s.91.11 1.29.33q.57.33.87.93l-.73.33c-.13-.27-.33-.47-.58-.62s-.54-.22-.87-.22-.61.08-.86.24-.45.38-.59.67c-.14.28-.21.61-.21.97s.07.69.21.97.34.51.6.67.55.24.88.24.62-.08.88-.25.45-.4.58-.7l.73.33c-.2.43-.49.76-.87 1s-.81.36-1.3.36Z" fill="#fffdf0"/>
        <path d="M93.42 76.24c-.49 0-.93-.11-1.3-.33-.38-.22-.67-.53-.88-.92s-.32-.85-.32-1.36.1-.97.31-1.36.5-.7.88-.92q.57-.33 1.29-.33c.72 0 .92.11 1.29.33.38.22.67.53.88.92s.31.85.31 1.36-.1.97-.31 1.36-.5.7-.88.92c-.37.22-.8.33-1.28.33Zm-.01-.74q.495 0 .87-.24c.25-.16.45-.38.59-.67.14-.28.21-.61.21-.97s-.07-.69-.21-.97-.34-.51-.6-.67c-.25-.16-.55-.24-.88-.24s-.61.08-.86.24-.45.38-.59.66-.21.61-.21.98.07.69.21.97.34.51.6.67.55.24.88.24Z" fill="#fffdf0"/>
        <path d="M97 76.12v-5h.75l.05.92v4.08zm3.51-2.56c0-.49-.06-.87-.17-1.13s-.27-.44-.47-.53-.43-.15-.68-.15c-.44 0-.78.16-1.03.46-.24.31-.37.75-.37 1.32h-.39c0-.53.08-.98.23-1.36s.38-.67.67-.87.65-.3 1.06-.3c.39 0 .73.08 1.03.24.29.16.52.4.68.75.16.34.24.79.23 1.34v.24h-.8Zm0 2.56v-2.56h.8v2.56z" fill="#fffdf0"/>
        <path d="M102.06 71.83v-.71h3.17v.71zm2.4 4.41c-.49 0-.86-.13-1.13-.38s-.4-.61-.4-1.07v-5.23h.8v5.15c0 .25.07.45.21.58s.33.21.58.21c.08 0 .16-.01.23-.04s.18-.08.3-.17l.31.65c-.17.11-.33.19-.47.23s-.28.07-.43.07" fill="#fffdf0"/>
        <path d="M106.36 76.12v-5h.8v5zm.44-2.71c0-.54.1-.98.31-1.32s.47-.59.79-.75.67-.24 1.03-.24v.75c-.29 0-.57.05-.85.14-.27.1-.49.25-.66.47s-.26.52-.26.9l-.36.04Z" fill="#fffdf0"/>
        <path d="M111.32 76.24c-.59 0-1.04-.13-1.38-.41-.33-.27-.5-.64-.5-1.12 0-.51.17-.89.51-1.17.34-.27.81-.41 1.41-.41h1.43v.67h-1.25c-.47 0-.8.08-.99.23s-.29.37-.29.66c0 .26.1.46.29.62.19.15.46.22.81.22q.435 0 .75-.18c.21-.12.38-.3.5-.53s.17-.5.17-.82h.34c0 .68-.15 1.22-.46 1.62s-.75.61-1.34.61Zm1.5-.12-.04-.82v-1.82c0-.39-.04-.72-.13-.98s-.22-.45-.41-.58-.43-.2-.73-.2c-.27 0-.51.06-.71.17s-.36.29-.48.53l-.72-.28c.13-.23.28-.43.46-.6q.27-.255.63-.39c.24-.09.51-.13.82-.13.47 0 .85.09 1.15.28q.45.27.69.81c.15.36.23.8.22 1.33v2.71h-.75Z" fill="#fffdf0"/>
        <path d="M119.53 76.24c-.49 0-.93-.11-1.3-.33-.38-.22-.67-.53-.88-.92s-.32-.85-.32-1.36.1-.97.31-1.36.5-.7.88-.92q.57-.33 1.29-.33c.72 0 .92.11 1.29.33.38.22.67.53.88.92s.31.85.31 1.36-.1.97-.31 1.36-.5.7-.88.92c-.37.22-.8.33-1.28.33Zm-.01-.74q.495 0 .87-.24c.25-.16.45-.38.59-.67.14-.28.21-.61.21-.97s-.07-.69-.21-.97-.34-.51-.6-.67c-.25-.16-.55-.24-.88-.24s-.61.08-.86.24-.45.38-.59.66-.21.61-.21.98.07.69.21.97.34.51.6.67.55.24.88.24Z" fill="#fffdf0"/>
        <path d="M127.76 76.24q-.735 0-1.29-.33c-.37-.22-.67-.53-.88-.92s-.31-.85-.31-1.36.1-.97.31-1.36.5-.7.87-.92.79-.33 1.28-.33.87.12 1.21.34c.34.23.6.55.79.97.19.41.28.9.28 1.46h-4.13l.2-.17c0 .4.07.74.21 1.03s.35.5.61.66.56.22.89.22c.35 0 .65-.08.89-.25s.43-.39.56-.66l.69.35c-.13.26-.29.49-.51.68-.21.19-.46.34-.74.45s-.6.16-.95.16Zm-1.61-2.98-.21-.16h3.45l-.21.17c0-.32-.06-.6-.19-.83s-.3-.41-.51-.54-.46-.19-.74-.19-.53.06-.78.19c-.24.13-.44.3-.59.54-.15.23-.22.5-.22.82" fill="#fffdf0"/>
        <path d="M131.04 76.12v-5h.75l.05.92v4.08zm3.51-2.56c0-.49-.06-.87-.17-1.13s-.27-.44-.47-.53-.43-.15-.68-.15c-.44 0-.78.16-1.03.46-.24.31-.37.75-.37 1.32h-.39c0-.53.08-.98.23-1.36s.38-.67.67-.87.65-.3 1.06-.3c.39 0 .73.08 1.03.24.29.16.52.4.68.75.16.34.24.79.23 1.34v.24h-.8Zm0 2.56v-2.56h.8v2.56z" fill="#fffdf0"/>
        <path d="m138.01 76.12-2.09-5h.83l2.04 5zm.06 0 2.04-5h.84l-2.09 5z" fill="#fffdf0"/>
        <path d="M143.81 76.24q-.735 0-1.29-.33c-.37-.22-.66-.53-.88-.92-.21-.39-.31-.85-.31-1.36s.11-.97.31-1.36c.21-.39.5-.7.87-.92s.79-.33 1.28-.33.87.12 1.21.34c.34.23.6.55.79.97.19.41.28.9.28 1.46h-4.13l.2-.17c0 .4.07.74.21 1.03s.35.5.61.66.56.22.89.22c.35 0 .65-.08.9-.25.24-.17.43-.39.56-.66l.69.35c-.13.26-.29.49-.5.68s-.46.34-.74.45-.6.16-.95.16Zm-1.63-2.98-.21-.16h3.45l-.21.17c0-.32-.06-.6-.19-.83q-.195-.345-.51-.54c-.21-.13-.46-.19-.74-.19s-.53.06-.78.19c-.24.13-.44.3-.59.54-.15.23-.23.5-.23.82Z" fill="#fffdf0"/>
        <path d="M147.08 76.12v-7h.8v7z" fill="#fffdf0"/>
        <path d="M149.28 76.12v-7h.8v7zm3.52-2.56c0-.49-.06-.87-.18-1.13s-.28-.44-.47-.53-.43-.15-.68-.15c-.44 0-.78.16-1.03.46-.24.31-.37.75-.37 1.32h-.39c0-.53.08-.98.23-1.36s.38-.67.67-.87.65-.3 1.06-.3q.585 0 1.02.24c.29.16.52.4.69.75.16.34.24.79.23 1.34v.24h-.8Zm0 2.56v-2.56h.8v2.56z" fill="#fffdf0"/>
        <path d="M157.05 76.24q-.735 0-1.29-.33c-.37-.22-.66-.53-.88-.92-.21-.39-.31-.85-.31-1.36s.11-.97.31-1.36c.21-.39.5-.7.87-.92s.79-.33 1.28-.33.87.12 1.21.34c.34.23.6.55.79.97.19.41.28.9.28 1.46h-4.13l.2-.17c0 .4.07.74.21 1.03s.35.5.61.66.56.22.89.22c.35 0 .65-.08.9-.25.24-.17.43-.39.56-.66l.69.35c-.13.26-.29.49-.5.68s-.46.34-.74.45-.6.16-.95.16Zm-1.63-2.98-.21-.16h3.45l-.21.17c0-.32-.06-.6-.19-.83q-.195-.345-.51-.54c-.21-.13-.46-.19-.74-.19s-.53.06-.78.19c-.24.13-.44.3-.59.54-.15.23-.23.5-.23.82Z" fill="#fffdf0"/>
        <path d="M162.55 76.24c-.49 0-.93-.11-1.31-.33s-.68-.53-.89-.92-.32-.85-.32-1.36.1-.97.31-1.36.51-.7.88-.92c.38-.22.81-.33 1.3-.33s.91.11 1.29.33q.57.33.87.93l-.73.33c-.13-.27-.33-.47-.58-.62s-.54-.22-.87-.22-.61.08-.86.24-.45.38-.59.67c-.14.28-.21.61-.21.97s.07.69.21.97.34.51.6.67.55.24.88.24.62-.08.88-.25.45-.4.58-.7l.73.33c-.2.43-.49.76-.87 1s-.81.36-1.3.36Z" fill="#fffdf0"/>
        <path d="M166.19 69.96c-.13 0-.25-.05-.35-.15a.485.485 0 0 1 0-.7.485.485 0 0 1 .7 0c.1.1.15.21.15.35s-.05.25-.15.35-.21.15-.35.15m-.41 6.16v-5h.8v5z" fill="#fffdf0"/>
        <path d="M168.05 76.12v-5h.75l.04.7c.15-.27.35-.47.59-.61q.36-.21.84-.21c.4 0 .74.09 1.03.28.28.19.49.47.61.85.14-.37.35-.65.62-.84s.59-.29.96-.29c.56 0 1 .19 1.33.56.32.37.48.94.47 1.7v2.86h-.8v-2.56c0-.49-.05-.87-.15-1.13s-.24-.44-.41-.53c-.17-.1-.38-.15-.6-.15-.39 0-.7.16-.92.46q-.33.465-.33 1.32v2.59h-.8v-2.56c0-.49-.05-.87-.16-1.13-.1-.26-.24-.44-.42-.53q-.27-.15-.6-.15c-.39 0-.69.16-.91.46q-.33.465-.33 1.32v2.59h-.8Z" fill="#fffdf0"/>
        <path d="M178.75 76.24q-.735 0-1.29-.33c-.37-.22-.67-.53-.88-.92s-.31-.85-.31-1.36.1-.97.31-1.36.5-.7.87-.92.79-.33 1.28-.33.87.12 1.21.34c.34.23.6.55.79.97.19.41.28.9.28 1.46h-4.13l.2-.17c0 .4.07.74.21 1.03s.35.5.61.66.56.22.89.22c.35 0 .65-.08.89-.25s.43-.39.56-.66l.69.35c-.13.26-.29.49-.51.68-.21.19-.46.34-.74.45s-.6.16-.95.16Zm-1.62-2.98-.21-.16h3.45l-.21.17c0-.32-.06-.6-.19-.83s-.3-.41-.51-.54-.46-.19-.74-.19-.53.06-.78.19c-.24.13-.44.3-.59.54-.15.23-.22.5-.22.82" fill="#fffdf0"/>
        <path d="M182.02 76.12v-5h.75l.05.92v4.08zm3.51-2.56c0-.49-.06-.87-.17-1.13s-.27-.44-.47-.53-.43-.15-.68-.15c-.44 0-.78.16-1.03.46-.24.31-.37.75-.37 1.32h-.39c0-.53.08-.98.23-1.36s.38-.67.67-.87.65-.3 1.06-.3c.39 0 .73.08 1.03.24.29.16.52.4.68.75.16.34.24.79.23 1.34v.24h-.8Zm0 2.56v-2.56h.8v2.56z" fill="#fffdf0"/>
        <path d="M187.08 71.83v-.71h3.17v.71zm2.4 4.41c-.49 0-.86-.13-1.13-.38s-.4-.61-.4-1.07v-5.23h.8v5.15c0 .25.07.45.21.58s.33.21.58.21c.08 0 .16-.01.23-.04s.18-.08.3-.17l.31.65c-.17.11-.33.19-.47.23s-.28.07-.43.07" fill="#fffdf0"/>
        <path d="M193.57 76.24c-.49 0-.93-.11-1.3-.33-.38-.22-.67-.53-.88-.92s-.32-.85-.32-1.36.1-.97.31-1.36.5-.7.88-.92q.57-.33 1.29-.33c.72 0 .92.11 1.29.33.38.22.67.53.88.92s.31.85.31 1.36-.1.97-.31 1.36-.5.7-.88.92c-.37.22-.8.33-1.28.33Zm-.01-.74q.495 0 .87-.24c.25-.16.45-.38.59-.67.14-.28.21-.61.21-.97s-.07-.69-.21-.97-.34-.51-.6-.67c-.25-.16-.55-.24-.88-.24s-.61.08-.86.24-.45.38-.59.66-.21.61-.21.98.07.69.21.97.34.51.6.67.55.24.88.24Z" fill="#fffdf0"/>
        <path d="M199.67 78.12v-7h.75l.05.92v6.08zm2.49-1.88q-.63 0-1.11-.33c-.48-.33-.56-.53-.73-.92-.17-.4-.26-.85-.26-1.37s.09-.98.26-1.37.42-.7.73-.92.69-.33 1.11-.33c.45 0 .84.11 1.18.33s.61.53.79.92.29.85.29 1.37-.1.97-.29 1.37-.46.71-.79.92-.73.33-1.18.33m-.18-.73q.465 0 .84-.24c.24-.16.44-.38.58-.67s.21-.61.21-.99-.07-.69-.21-.98-.33-.51-.57-.67-.53-.24-.84-.24c-.29 0-.56.08-.79.24s-.41.38-.54.67c-.13.28-.2.61-.2.99s.07.69.2.98.31.51.54.67q.345.24.78.24" fill="#fffdf0"/>
        <path d="M205.53 76.12v-5h.8v5zm.44-2.71c0-.54.1-.98.31-1.32s.47-.59.79-.75.67-.24 1.03-.24v.75c-.29 0-.57.05-.85.14-.27.1-.49.25-.66.47s-.26.52-.26.9l-.36.04Z" fill="#fffdf0"/>
        <path d="M211.1 76.24q-.735 0-1.29-.33c-.37-.22-.66-.53-.88-.92-.21-.39-.31-.85-.31-1.36s.11-.97.31-1.36c.21-.39.5-.7.87-.92s.79-.33 1.28-.33.87.12 1.21.34c.34.23.6.55.79.97.19.41.28.9.28 1.46h-4.13l.2-.17c0 .4.07.74.21 1.03s.35.5.61.66.56.22.89.22c.35 0 .65-.08.9-.25.24-.17.43-.39.56-.66l.69.35c-.13.26-.29.49-.5.68s-.46.34-.74.45-.6.16-.95.16Zm-1.62-2.98-.21-.16h3.45l-.21.17c0-.32-.06-.6-.19-.83q-.195-.345-.51-.54c-.21-.13-.46-.19-.74-.19s-.53.06-.78.19c-.24.13-.44.3-.59.54-.15.23-.23.5-.23.82Z" fill="#fffdf0"/>
        <path d="M216.6 76.24c-.49 0-.93-.11-1.31-.33s-.68-.53-.89-.92-.32-.85-.32-1.36.1-.97.31-1.36.51-.7.88-.92c.38-.22.81-.33 1.3-.33s.91.11 1.29.33q.57.33.87.93l-.73.33c-.13-.27-.33-.47-.58-.62s-.54-.22-.87-.22-.61.08-.86.24-.45.38-.59.67c-.14.28-.21.61-.21.97s.07.69.21.97.34.51.6.67.55.24.88.24.62-.08.88-.25.45-.4.58-.7l.73.33c-.2.43-.49.76-.87 1s-.81.36-1.3.36Z" fill="#fffdf0"/>
        <path d="M222 76.24c-.49 0-.93-.11-1.3-.33-.38-.22-.67-.53-.88-.92s-.32-.85-.32-1.36.1-.97.31-1.36.5-.7.88-.92q.57-.33 1.29-.33c.72 0 .92.11 1.29.33.38.22.67.53.88.92s.31.85.31 1.36-.1.97-.31 1.36-.5.7-.88.92c-.37.22-.8.33-1.28.33Zm-.01-.74q.495 0 .87-.24c.25-.16.45-.38.59-.67.14-.28.21-.61.21-.97s-.07-.69-.21-.97-.34-.51-.6-.67c-.25-.16-.55-.24-.88-.24s-.61.08-.86.24-.45.38-.59.66-.21.61-.21.98.07.69.21.97.34.51.6.67.55.24.88.24Z" fill="#fffdf0"/>
        <path d="M227.81 76.24c-.49 0-.93-.11-1.31-.33s-.68-.53-.89-.92-.32-.85-.32-1.36.11-.97.31-1.36c.21-.39.51-.7.89-.92s.81-.33 1.3-.33.91.11 1.29.33q.57.33.87.93l-.73.33c-.13-.27-.33-.47-.58-.62s-.54-.22-.87-.22-.62.08-.87.24-.45.38-.59.67-.21.61-.21.97.07.69.21.97.34.51.6.67.55.24.88.24.62-.08.88-.25.45-.4.59-.7l.73.33c-.2.43-.49.76-.87 1s-.81.36-1.3.36Z" fill="#fffdf0"/>
        <path d="M233.18 76.24q-.735 0-1.29-.33c-.37-.22-.66-.53-.88-.92-.21-.39-.31-.85-.31-1.36s.11-.97.31-1.36c.21-.39.5-.7.87-.92s.79-.33 1.28-.33.87.12 1.21.34c.34.23.6.55.79.97.19.41.28.9.28 1.46h-4.13l.2-.17c0 .4.07.74.21 1.03s.35.5.61.66.56.22.89.22c.35 0 .65-.08.9-.25.24-.17.43-.39.56-.66l.69.35c-.13.26-.29.49-.5.68s-.46.34-.74.45-.6.16-.95.16Zm-1.62-2.98-.21-.16h3.45l-.21.17c0-.32-.06-.6-.19-.83q-.195-.345-.51-.54c-.21-.13-.46-.19-.74-.19s-.53.06-.78.19c-.24.13-.44.3-.59.54-.15.23-.23.5-.23.82Z" fill="#fffdf0"/>
        <path d="M236.79 76.26c-.15 0-.29-.05-.39-.17-.11-.11-.16-.24-.16-.38s.05-.29.16-.39c.11-.11.24-.17.39-.17s.28.05.39.17c.11.11.16.24.16.39s-.05.28-.16.38c-.11.11-.24.17-.39.17" fill="#fffdf0"/>
    </g>
</svg>
