<?xml version="1.0" encoding="UTF-8"?>
<svg data-bbox="0 0 213.021 70.6" viewBox="0 0 213.02 70.6" xmlns="http://www.w3.org/2000/svg" data-type="ugc">
    <g>
        <path fill="#fffdf1" d="M70.6 35.3c0 19.496-15.804 35.3-35.3 35.3S0 54.796 0 35.3 15.804 0 35.3 0s35.3 15.804 35.3 35.3"/>
        <path fill="none" stroke="#275e29" stroke-miterlimit="10" d="m51.96 16.25-2.88 2.88"/>
        <path fill="none" stroke="#275e29" stroke-miterlimit="10" d="m21.59 51.31-2.88 2.87"/>
        <path d="M46.39 40.88c.8 3.47-2.15 6.31-5.39 5.39" fill="none" stroke="#275e29" stroke-miterlimit="10"/>
        <path d="M29.84 24.33c-3.47-.8-6.31 2.15-5.39 5.39" fill="none" stroke="#275e29" stroke-miterlimit="10"/>
        <path d="m21.14 56.62 4.96-4.96c2.64-2.64 5.5-.11 9.3-3.91 3.34-3.34 2.18-8.45-3.54-8.89-.44-5.72-5.55-6.88-8.89-3.54-3.8 3.8-1.27 6.66-3.91 9.3l-4.96 4.96" fill="none" stroke="#275e29" stroke-miterlimit="10"/>
        <path d="m49.69 13.99-4.89 4.89c-2.64 2.64-5.5.11-9.3 3.9-3.34 3.34-2.18 8.45 3.54 8.89.44 5.72 5.55 6.88 8.89 3.54 3.8-3.8 1.27-6.66 3.9-9.3l4.89-4.89" fill="none" stroke="#275e29" stroke-miterlimit="10"/>
        <path d="M82.99 21.55v-7.01h2.9c.53 0 1 .1 1.4.31.41.21.73.49.96.86s.35.79.35 1.27-.12.91-.35 1.28q-.345.555-.96.87c-.41.21-.88.32-1.4.32h-1.05v2.1zm1.85-3.81h1c.25 0 .46-.07.62-.21s.24-.32.24-.55-.08-.4-.24-.54-.36-.21-.62-.21h-1z" fill="#fffdf1"/>
        <path d="M89.25 21.55v-7.01h2.9c.53 0 1 .1 1.4.31s.73.48.96.84.34.77.34 1.24-.12.88-.34 1.25c-.23.36-.55.65-.96.85s-.88.31-1.4.31H91.1v2.22h-1.85Zm1.85-3.93h.95c.17 0 .31-.03.44-.09a.68.68 0 0 0 .41-.61c0-.2-.08-.37-.24-.5a.94.94 0 0 0-.62-.2h-.95v1.39Zm1.92 3.93-1.56-2.75 1.39-1.04 2.29 3.8h-2.12Z" fill="#fffdf1"/>
        <path d="M99.29 21.67c-.73 0-1.38-.16-1.95-.47-.56-.31-1.01-.74-1.33-1.28s-.48-1.17-.48-1.87.16-1.33.48-1.88c.32-.54.76-.97 1.32-1.28s1.21-.47 1.93-.47 1.38.16 1.94.47 1 .74 1.32 1.28.48 1.17.48 1.88-.16 1.32-.48 1.87c-.32.54-.76.97-1.32 1.28s-1.21.47-1.93.47Zm0-1.7c.36 0 .68-.08.95-.25s.49-.39.64-.68.23-.62.23-.99-.08-.71-.23-1c-.16-.29-.38-.52-.65-.68-.28-.16-.6-.25-.96-.25s-.67.08-.95.25-.49.39-.65.68-.24.62-.24 1 .08.7.24.99.38.51.66.68c.28.16.6.25.96.25" fill="#fffdf1"/>
        <path d="M105.12 21.55v-5.31h-1.98v-1.7h5.81v1.7h-1.97v5.31h-1.85Z" fill="#fffdf1"/>
        <path d="M109.72 21.55v-7.01h4.7v1.7h-2.84v.97h2.3v1.65h-2.3v.98h2.91v1.7h-4.77Z" fill="#fffdf1"/>
        <path d="M118.82 21.67c-.7 0-1.32-.16-1.86-.47s-.96-.74-1.27-1.28-.46-1.17-.46-1.88.15-1.33.46-1.88c.31-.54.73-.97 1.27-1.28s1.16-.47 1.86-.47c.54 0 1.03.09 1.46.28s.81.45 1.12.78.55.72.72 1.16l-1.76.56c-.09-.22-.21-.41-.36-.58-.15-.16-.32-.29-.52-.38s-.42-.13-.67-.13c-.33 0-.62.08-.87.25-.25.16-.45.39-.6.68s-.22.62-.22 1 .07.71.22 1 .35.52.61.68.55.25.89.25c.26 0 .49-.04.68-.13s.35-.22.49-.38.26-.36.36-.58l1.76.56c-.16.44-.4.83-.71 1.17s-.69.6-1.13.79-.93.28-1.47.28m-.54 1.98c-.16 0-.33-.03-.5-.08-.17-.06-.33-.13-.47-.23l.21-.76c.09.05.18.08.27.1s.15.04.21.04c.11 0 .2-.02.27-.05s.1-.08.1-.14c0-.09-.05-.17-.15-.22s-.23-.08-.41-.08l.3-.75h.97l-.15.32c.23.07.4.18.53.33s.19.31.19.49c0 .32-.12.57-.37.75s-.58.27-1.02.27Z" fill="#fffdf1"/>
        <path d="m122.36 21.55 2.68-7.01h1.84l-2.56 7.01zm1.26-1.12V18.8h4.85v1.63zm3.23-6.23c-.25 0-.45-.04-.59-.11s-.24-.16-.32-.25c-.07-.09-.14-.18-.21-.25a.37.37 0 0 0-.27-.11c-.05 0-.1.02-.16.06q-.09.06-.15.33h-1.11c.04-.35.12-.64.22-.85.11-.21.26-.37.45-.46s.42-.14.69-.14.49.04.64.11.27.16.35.25.15.18.21.25.14.11.24.11c.09 0 .16-.04.19-.12s.06-.17.07-.28h1.11c-.06.47-.2.83-.41 1.08s-.53.38-.96.38Zm.91 7.35-2.56-7.01h1.84l2.68 7.01z" fill="#fffdf1"/>
        <path d="M133.79 21.67c-.73 0-1.38-.16-1.95-.47-.56-.31-1.01-.74-1.33-1.28s-.48-1.17-.48-1.87.16-1.33.48-1.88c.32-.54.76-.97 1.32-1.28s1.21-.47 1.93-.47 1.38.16 1.94.47 1 .74 1.32 1.28.48 1.17.48 1.88-.16 1.32-.48 1.87c-.32.54-.76.97-1.32 1.28s-1.21.47-1.93.47Zm0-1.7c.36 0 .68-.08.95-.25s.49-.39.64-.68.23-.62.23-.99-.08-.71-.23-1c-.16-.29-.38-.52-.65-.68-.28-.16-.6-.25-.96-.25s-.67.08-.95.25-.49.39-.65.68-.24.62-.24 1 .08.7.24.99.38.51.66.68c.28.16.6.25.96.25" fill="#fffdf1"/>
        <path d="m140.14 21.55 2.68-7.01h1.84l-2.56 7.01zm1.27-1.12V18.8h4.85v1.63zm4.13 1.12-2.56-7.01h1.84l2.68 7.01z" fill="#fffdf1"/>
        <path d="M148.18 21.55v-7.01h2.9c.53 0 .99.1 1.4.31q.615.3.96.84c.23.36.34.77.34 1.24s-.12.88-.34 1.25c-.23.36-.55.65-.96.85s-.88.31-1.4.31h-1.05v2.22h-1.85Zm1.85-3.93h.95c.17 0 .31-.03.44-.09a.68.68 0 0 0 .41-.61c0-.2-.08-.37-.24-.5a.94.94 0 0 0-.62-.2h-.95v1.39Zm1.91 3.93-1.56-2.75 1.39-1.04 2.29 3.8h-2.12Z" fill="#fffdf1"/>
        <path d="M156.17 21.55v-5.31h-1.98v-1.7H160v1.7h-1.97v5.31h-1.85Z" fill="#fffdf1"/>
        <path d="M160.76 21.55v-7.01h1.85v7.01z" fill="#fffdf1"/>
        <path d="M167.05 21.67c-.7 0-1.32-.16-1.86-.47s-.96-.74-1.27-1.28-.46-1.17-.46-1.88.15-1.33.46-1.88c.31-.54.73-.97 1.27-1.28s1.16-.47 1.86-.47c.54 0 1.03.09 1.46.28s.81.45 1.12.78.55.72.72 1.16l-1.76.56c-.09-.22-.21-.41-.36-.58-.15-.16-.32-.29-.52-.38s-.42-.13-.67-.13c-.33 0-.62.08-.87.25s-.45.39-.6.68c-.14.29-.21.62-.21 1s.07.71.22 1 .35.52.61.68.55.25.89.25c.26 0 .49-.04.68-.13s.35-.22.49-.38.25-.36.36-.58l1.76.56c-.16.44-.4.83-.71 1.17s-.69.6-1.13.79-.93.28-1.47.28Z" fill="#fffdf1"/>
        <path d="M174 21.67c-.62 0-1.15-.11-1.6-.34a2.4 2.4 0 0 1-1.03-.98c-.24-.42-.36-.93-.36-1.52v-4.3h1.85v4.3c0 .23.05.43.14.6s.22.29.39.38.38.13.62.13.45-.04.62-.13.31-.21.4-.38.13-.37.13-.6v-4.3h1.85v4.3c0 .59-.12 1.09-.36 1.52-.24.42-.59.75-1.04.98s-.99.34-1.63.34Z" fill="#fffdf1"/>
        <path d="M178.13 21.55v-7.01h1.85v5.31h2.88v1.7h-4.74Z" fill="#fffdf1"/>
        <path d="m183.14 21.55 2.68-7.01h1.84l-2.56 7.01zm1.26-1.12V18.8h4.85v1.63zm4.13 1.12-2.56-7.01h1.84l2.68 7.01z" fill="#fffdf1"/>
        <path d="M191.17 21.55v-7.01h2.9c.53 0 .99.1 1.4.31q.615.3.96.84c.23.36.34.77.34 1.24s-.12.88-.34 1.25c-.23.36-.55.65-.96.85s-.88.31-1.4.31h-1.05v2.22h-1.85Zm1.85-3.93h.95c.17 0 .31-.03.44-.09a.68.68 0 0 0 .41-.61c0-.2-.08-.37-.24-.5a.94.94 0 0 0-.62-.2h-.95v1.39Zm1.91 3.93-1.56-2.75 1.39-1.04 2.29 3.8h-2.12Z" fill="#fffdf1"/>
        <path d="m82.48 33.05 2.85-7.01h.86l-2.81 7.01zm1.35-1.99v-.76h3.9v.76zm4.35 1.99-2.81-7.01h.85l2.85 7.01z" fill="#fffdf1"/>
        <path d="M94.32 33.01c-.45 0-.84-.11-1.18-.32s-.61-.51-.8-.9c-.19-.38-.29-.82-.29-1.32s.09-.95.29-1.34c.19-.38.46-.68.8-.9.34-.21.73-.32 1.18-.32.42 0 .79.11 1.1.32s.56.51.74.9.26.83.26 1.34-.09.94-.26 1.32c-.18.38-.42.68-.74.89-.31.21-.68.32-1.1.32Zm.03 2.16c-.32 0-.61-.03-.88-.1s-.49-.13-.67-.21-.32-.14-.4-.2l.3-.65c.09.05.21.11.37.18a3.2 3.2 0 0 0 1.27.25c.32 0 .61-.06.87-.2.26-.13.46-.33.6-.61s.21-.63.21-1.07v-4.54h.8v4.53c0 .57-.11 1.05-.32 1.44s-.51.68-.88.87-.8.29-1.27.29Zm.16-2.85q.435 0 .78-.24c.23-.16.4-.38.53-.66s.19-.6.19-.97-.06-.67-.2-.95c-.13-.28-.31-.49-.53-.65s-.48-.24-.79-.24-.59.08-.84.24c-.24.16-.43.37-.57.65s-.21.59-.21.95.07.69.21.97.33.5.58.66q.36.24.84.24Z" fill="#fffdf1"/>
        <path d="M98.22 33.05v-7.01h.8v7.01z" fill="#fffdf1"/>
        <path d="M100.89 26.88c-.13 0-.25-.05-.35-.15s-.15-.22-.15-.35.05-.26.15-.36.22-.15.35-.15q.21 0 .36.15t.15.36c0 .21-.05.25-.15.35s-.21.15-.36.15m-.41 6.17v-5.01h.8v5.01z" fill="#fffdf1"/>
        <path d="M104.98 33.17c-.49 0-.93-.11-1.31-.34-.38-.22-.68-.53-.89-.93s-.32-.85-.32-1.36.11-.97.32-1.36.51-.7.89-.93c.38-.22.81-.34 1.3-.34s.91.11 1.29.33q.57.33.87.93l-.73.33c-.13-.27-.33-.48-.58-.63s-.54-.23-.87-.23-.62.08-.87.24-.45.38-.59.67-.22.61-.22.98.07.69.22.98c.14.28.34.51.6.67s.55.24.88.24.62-.08.88-.25.45-.4.59-.7l.73.33c-.2.43-.49.76-.87 1s-.82.36-1.3.36Z" fill="#fffdf1"/>
        <path d="M110.39 33.17c-.49 0-.93-.11-1.31-.34s-.67-.53-.89-.93-.32-.85-.32-1.36.11-.97.32-1.36.5-.7.88-.93c.38-.22.81-.34 1.3-.34s.92.11 1.3.34c.38.22.67.53.88.93.21.39.32.85.32 1.36s-.11.97-.32 1.36-.5.7-.88.93c-.37.22-.8.34-1.28.34m-.01-.74q.495 0 .87-.24c.25-.16.45-.38.59-.67.14-.28.21-.61.21-.98s-.07-.69-.21-.98c-.14-.28-.34-.51-.6-.67s-.55-.24-.88-.24-.62.08-.87.24-.45.38-.59.66-.22.61-.22.98.07.69.22.98c.14.28.34.51.6.67s.55.24.88.24Z" fill="#fffdf1"/>
        <path d="M115.73 33.17c-.37 0-.69-.06-.96-.17s-.5-.26-.69-.44c-.18-.18-.31-.38-.39-.59l.7-.29c.11.23.28.41.51.55s.48.21.75.21c.31 0 .58-.06.79-.19.21-.12.32-.3.32-.53 0-.21-.08-.37-.24-.5s-.39-.23-.7-.31l-.48-.13c-.45-.12-.81-.3-1.06-.55-.25-.24-.38-.52-.38-.83 0-.47.16-.84.47-1.11s.77-.4 1.39-.4c.29 0 .56.04.8.13s.45.21.62.37.3.34.38.56l-.7.31a.87.87 0 0 0-.43-.49c-.2-.1-.45-.15-.73-.15-.31 0-.55.06-.72.2-.17.13-.26.31-.26.55 0 .13.07.26.21.38s.36.21.64.29l.5.13c.33.08.6.2.82.36s.39.34.5.54.17.41.17.64q0 .45-.24.78c-.16.22-.38.39-.65.51s-.59.18-.94.18Z" fill="#fffdf1"/>
        <path d="M120.22 33.17c-.59 0-1.05-.14-1.38-.41s-.5-.65-.5-1.13q0-.765.51-1.17c.34-.27.81-.41 1.42-.41h1.43v.67h-1.25c-.47 0-.8.08-1 .23q-.3.225-.3.66c0 .26.1.47.29.62s.46.23.81.23c.29 0 .54-.06.75-.19.21-.12.38-.3.5-.53s.17-.5.17-.82h.34c0 .68-.15 1.22-.46 1.63-.31.4-.75.61-1.34.61Zm1.51-.12-.04-.82v-1.82c0-.39-.04-.72-.13-.98s-.22-.45-.41-.59-.43-.2-.73-.2c-.27 0-.51.05-.71.17-.2.11-.36.29-.49.53l-.72-.28c.13-.23.28-.44.46-.61q.27-.255.63-.39c.24-.09.51-.14.82-.14.47 0 .85.09 1.16.28s.53.45.69.81c.15.36.23.8.22 1.33v2.71z" fill="#fffdf1"/>
        <path d="M123.75 33.05v-5.01h.75l.04.7c.15-.27.35-.47.59-.61q.36-.21.84-.21c.4 0 .74.09 1.03.28.28.19.49.47.62.85.14-.37.35-.65.62-.84s.59-.29.97-.29c.56 0 1 .19 1.33.56.32.37.48.94.48 1.7v2.86h-.8v-2.56c0-.49-.05-.87-.16-1.13s-.24-.44-.42-.54q-.255-.15-.6-.15c-.39 0-.7.16-.92.47s-.33.75-.33 1.32v2.59h-.8v-2.56c0-.49-.05-.87-.16-1.13s-.24-.44-.42-.54-.38-.15-.61-.15c-.39 0-.69.16-.91.47s-.33.75-.33 1.32v2.59h-.8Z" fill="#fffdf1"/>
        <path d="M132.73 26.88c-.13 0-.25-.05-.35-.15s-.15-.22-.15-.35.05-.26.15-.36.22-.15.35-.15q.21 0 .36.15t.15.36c0 .21-.05.25-.15.35s-.21.15-.36.15m-.41 6.17v-5.01h.8v5.01z" fill="#fffdf1"/>
        <path d="M134.6 33.05v-5.01h.75l.05.92v4.09zm3.51-2.56c0-.49-.06-.87-.17-1.13s-.27-.44-.47-.54-.43-.15-.68-.15c-.44 0-.78.16-1.03.47s-.37.75-.37 1.32H135c0-.53.08-.98.23-1.36s.38-.67.67-.87.65-.3 1.06-.3.74.08 1.03.24.52.41.68.75.24.79.24 1.34v.24h-.8Zm0 2.56v-2.56h.8v2.56z" fill="#fffdf1"/>
        <path d="M141.77 33.17c-.59 0-1.05-.14-1.38-.41s-.5-.65-.5-1.13q0-.765.51-1.17c.34-.27.81-.41 1.42-.41h1.43v.67H142c-.47 0-.8.08-1 .23q-.3.225-.3.66c0 .26.1.47.29.62s.46.23.81.23c.29 0 .54-.06.75-.19.21-.12.38-.3.5-.53s.18-.5.18-.82h.34c0 .68-.15 1.22-.46 1.63-.31.4-.75.61-1.34.61Zm1.5-.12-.04-.82v-1.82c0-.39-.04-.72-.13-.98s-.22-.45-.41-.59c-.19-.13-.43-.2-.73-.2-.27 0-.51.05-.71.17s-.36.29-.49.53l-.72-.28c.13-.23.28-.44.46-.61q.27-.255.63-.39c.24-.09.51-.14.82-.14.47 0 .85.09 1.16.28q.45.27.69.81c.15.36.23.8.22 1.33v2.71z" fill="#fffdf1"/>
        <path d="M149.96 33.17c-.49 0-.92-.11-1.29-.34-.37-.22-.67-.53-.88-.93-.21-.39-.31-.85-.31-1.36s.1-.97.31-1.36q.315-.585.87-.93c.37-.22.8-.34 1.28-.34s.87.12 1.21.35.6.55.79.97.28.9.28 1.46h-4.14l.2-.17c0 .4.07.74.21 1.03s.35.51.61.66.56.23.89.23c.35 0 .65-.08.9-.25q.36-.255.57-.66l.69.35c-.13.26-.29.49-.51.68-.21.19-.46.34-.74.45s-.6.16-.95.16Zm-1.62-2.98-.21-.16h3.46l-.21.17c0-.32-.06-.6-.19-.83q-.195-.345-.51-.54c-.315-.195-.46-.19-.74-.19s-.53.06-.78.19-.44.31-.59.54-.22.51-.22.83Z" fill="#fffdf1"/>
        <path d="M157.29 33.17c-.59 0-1.05-.14-1.38-.41s-.5-.65-.5-1.13q0-.765.51-1.17c.34-.27.81-.41 1.42-.41h1.43v.67h-1.25c-.47 0-.8.08-1 .23s-.29.37-.29.66c0 .26.1.47.29.62s.46.23.81.23c.29 0 .54-.06.75-.19.21-.12.38-.3.5-.53s.17-.5.17-.82h.34c0 .68-.15 1.22-.46 1.63-.31.4-.76.61-1.34.61Zm1.5-.12-.04-.82v-1.82c0-.39-.04-.72-.13-.98s-.22-.45-.41-.59c-.19-.13-.43-.2-.73-.2-.27 0-.51.05-.71.17s-.36.29-.49.53l-.72-.28c.13-.23.28-.44.46-.61q.27-.255.63-.39c.24-.09.51-.14.82-.14.47 0 .85.09 1.16.28q.45.27.69.81c.15.36.23.8.22 1.33v2.71z" fill="#fffdf1"/>
        <path d="M165.52 33.17c-.49 0-.93-.11-1.31-.34a2.3 2.3 0 0 1-.89-.93c-.21-.39-.32-.85-.32-1.36s.11-.97.32-1.36.51-.7.89-.93.81-.34 1.3-.34.91.11 1.29.33q.57.33.87.93l-.73.33c-.13-.27-.33-.48-.58-.63s-.54-.23-.87-.23-.62.08-.87.24-.45.38-.59.67c-.14.28-.22.61-.22.98s.07.69.22.98c.14.28.34.51.6.67s.55.24.88.24.62-.08.88-.25.45-.4.59-.7l.73.33c-.2.43-.49.76-.87 1s-.81.36-1.3.36Z" fill="#fffdf1"/>
        <path d="M170.93 33.17c-.49 0-.93-.11-1.31-.34s-.67-.53-.89-.93c-.21-.39-.32-.85-.32-1.36s.11-.97.32-1.36.5-.7.88-.93.81-.34 1.3-.34.92.11 1.3.34.67.53.88.93c.21.39.32.85.32 1.36s-.11.97-.32 1.36-.5.7-.88.93-.8.34-1.28.34m-.01-.74q.495 0 .87-.24c.25-.16.45-.38.59-.67.14-.28.22-.61.22-.98s-.07-.69-.22-.98-.34-.51-.6-.67-.55-.24-.88-.24a1.58 1.58 0 0 0-1.46.9c-.14.28-.22.61-.22.98s.07.69.22.98c.14.28.34.51.6.67s.55.24.88.24Z" fill="#fffdf1"/>
        <path d="M174.51 33.05v-5.01h.75l.05.92v4.09zm3.52-2.56c0-.49-.06-.87-.17-1.13s-.27-.44-.47-.54-.43-.15-.68-.15c-.44 0-.78.16-1.03.47s-.37.75-.37 1.32h-.39c0-.53.08-.98.23-1.36s.38-.67.67-.87.65-.3 1.06-.3.74.08 1.03.24.52.41.68.75.24.79.24 1.34v.24h-.8Zm0 2.56v-2.56h.8v2.56z" fill="#fffdf1"/>
        <path d="M182.07 33.17c-.45 0-.84-.11-1.18-.33s-.61-.53-.8-.93-.29-.85-.29-1.37.1-.98.29-1.37.46-.7.8-.92.73-.33 1.18-.33q.63 0 1.11.33c.48.33.56.53.74.92.17.39.26.85.26 1.37s-.09.97-.26 1.37-.42.71-.74.93q-.48.33-1.11.33m.18-.73q.435 0 .78-.24c.23-.16.41-.38.54-.67s.2-.61.2-.98-.07-.69-.2-.98-.31-.51-.54-.67-.49-.24-.79-.24-.59.08-.84.24c-.24.16-.44.38-.58.67s-.21.61-.21.98.07.69.21.98.33.51.58.67q.375.24.84.24Zm1.56.61-.04-.93v-6.08h.8v7.01z" fill="#fffdf1"/>
        <path d="M185.97 33.05v-5.01h.8v5.01zm.44-2.71c0-.54.1-.98.31-1.32s.47-.59.8-.75.67-.25 1.03-.25v.75c-.29 0-.58.05-.85.15s-.49.26-.67.48-.26.52-.26.9z" fill="#fffdf1"/>
        <path d="M191.58 33.17c-.49 0-.93-.11-1.31-.34s-.67-.53-.89-.93-.32-.85-.32-1.36.11-.97.32-1.36.5-.7.88-.93c.38-.22.81-.34 1.3-.34s.92.11 1.3.34c.38.22.67.53.88.93.21.39.32.85.32 1.36s-.11.97-.32 1.36-.5.7-.88.93c-.37.22-.8.34-1.28.34m-.01-.74q.495 0 .87-.24c.25-.16.45-.38.59-.67.14-.28.21-.61.21-.98s-.07-.69-.21-.98c-.14-.28-.34-.51-.6-.67s-.55-.24-.88-.24-.62.08-.87.24-.45.38-.59.66-.22.61-.22.98.07.69.22.98c.14.28.34.51.6.67s.55.24.88.24Z" fill="#fffdf1"/>
        <path d="M195.62 26.88c-.13 0-.25-.05-.35-.15s-.15-.22-.15-.35.05-.26.15-.36.22-.15.35-.15q.21 0 .36.15t.15.36c0 .21-.05.25-.15.35s-.21.15-.36.15m-.41 6.17v-5.01h.8v5.01z" fill="#fffdf1"/>
        <path d="M196.96 28.75v-.71h3.18v.71zm2.41 4.42c-.49 0-.87-.13-1.13-.38s-.4-.61-.4-1.07v-5.24h.8v5.16c0 .25.07.45.21.59s.33.21.58.21q.12 0 .24-.03c.12-.03.18-.08.31-.18l.31.65c-.17.11-.33.19-.47.24-.14.04-.28.06-.43.06Z" fill="#fffdf1"/>
        <path d="M201.73 26.88c-.13 0-.25-.05-.35-.15s-.15-.22-.15-.35.05-.26.15-.36.22-.15.35-.15q.21 0 .36.15t.15.36c0 .21-.05.25-.15.35s-.21.15-.36.15m-.41 6.17v-5.01h.8v5.01z" fill="#fffdf1"/>
        <path d="M203.6 33.05v-5.01h.75l.05.92v4.09zm3.51-2.56c0-.49-.06-.87-.17-1.13s-.27-.44-.47-.54-.43-.15-.68-.15c-.44 0-.78.16-1.03.47s-.37.75-.37 1.32H204c0-.53.08-.98.23-1.36s.38-.67.67-.87.65-.3 1.06-.3.74.08 1.03.24.52.41.68.75.24.79.24 1.34v.24h-.8Zm0 2.56v-2.56h.8v2.56z" fill="#fffdf1"/>
        <path d="M210.77 33.17c-.59 0-1.05-.14-1.38-.41s-.5-.65-.5-1.13q0-.765.51-1.17c.34-.27.81-.41 1.42-.41h1.43v.67H211c-.47 0-.8.08-1 .23q-.3.225-.3.66c0 .26.1.47.29.62s.46.23.81.23c.29 0 .54-.06.75-.19.21-.12.38-.3.5-.53s.18-.5.18-.82h.34c0 .68-.15 1.22-.46 1.63-.31.4-.75.61-1.34.61Zm1.5-.12-.04-.82v-1.82c0-.39-.04-.72-.13-.98s-.22-.45-.41-.59c-.19-.13-.43-.2-.73-.2-.27 0-.51.05-.71.17s-.36.29-.49.53l-.72-.28c.13-.23.28-.44.46-.61q.27-.255.63-.39c.24-.09.51-.14.82-.14.47 0 .85.09 1.16.28q.45.27.69.81c.15.36.23.8.22 1.33v2.71z" fill="#fffdf1"/>
        <path d="M84.67 44.67c-.59 0-1.05-.14-1.38-.41s-.5-.65-.5-1.13q0-.765.51-1.17c.34-.27.81-.41 1.42-.41h1.43v.67H84.9c-.47 0-.8.08-1 .23q-.3.225-.3.66c0 .26.1.47.29.62s.46.23.81.23c.29 0 .54-.06.75-.19.21-.12.38-.3.5-.53s.17-.5.17-.82h.34c0 .68-.15 1.22-.46 1.63-.31.4-.75.61-1.34.61Zm1.51-.12-.04-.82v-1.82c0-.39-.04-.72-.13-.98s-.22-.45-.41-.59-.43-.2-.73-.2c-.27 0-.51.05-.71.17-.2.11-.36.29-.49.53l-.72-.28c.13-.23.28-.44.46-.61q.27-.255.63-.39c.24-.09.51-.14.82-.14.47 0 .85.09 1.16.28s.53.45.69.81c.15.36.23.8.22 1.33v2.71z" fill="#fffdf1"/>
        <path d="M88.07 42.11v-2.56h.8v2.56zm.8 0c0 .49.06.87.17 1.13q.165.39.48.54.3.15.69.15c.43 0 .77-.16 1.02-.47s.37-.75.37-1.31h.39c0 .53-.08.98-.23 1.36s-.38.67-.67.87-.65.3-1.07.3q-.585 0-1.02-.24c-.29-.16-.52-.41-.68-.75s-.24-.79-.24-1.34v-.24h.8Zm2.76 2.44-.05-.92v-4.09h.8v5.01z" fill="#fffdf1"/>
        <path d="m93.18 44.55 2.04-2.87 1.44-2.13h.95l-1.9 2.7-1.56 2.3zm3.6 0-1.54-2.3-1.92-2.7h.95l1.45 2.13 2.02 2.87z" fill="#fffdf1"/>
        <path d="M99 38.38c-.13 0-.25-.05-.35-.15s-.15-.22-.15-.35.05-.26.15-.36.22-.15.35-.15q.21 0 .36.15t.15.36c0 .21-.05.25-.15.35s-.21.15-.36.15m-.41 6.17v-5.01h.8v5.01z" fill="#fffdf1"/>
        <path d="M100.87 44.55v-7.01h.8v7.01z" fill="#fffdf1"/>
        <path d="M103.53 38.38c-.13 0-.25-.05-.35-.15s-.15-.22-.15-.35.05-.26.15-.36.22-.15.35-.15.26.05.36.15.14.22.14.36-.05.25-.14.35q-.15.15-.36.15m-.41 6.17v-5.01h.8v5.01z" fill="#fffdf1"/>
        <path d="M106.98 44.67c-.59 0-1.05-.14-1.38-.41s-.5-.65-.5-1.13q0-.765.51-1.17c.34-.27.81-.41 1.42-.41h1.43v.67h-1.25c-.47 0-.8.08-1 .23s-.29.37-.29.66c0 .26.1.47.29.62s.46.23.81.23c.29 0 .54-.06.75-.19.21-.12.38-.3.5-.53s.17-.5.17-.82h.34c0 .68-.15 1.22-.46 1.63-.31.4-.76.61-1.34.61Zm1.5-.12-.04-.82v-1.82c0-.39-.04-.72-.13-.98s-.22-.45-.41-.59c-.19-.13-.43-.2-.73-.2-.27 0-.51.05-.71.17s-.36.29-.49.53l-.72-.28c.13-.23.28-.44.46-.61q.27-.255.63-.39c.24-.09.51-.14.82-.14.47 0 .85.09 1.16.28q.45.27.69.81c.15.36.23.8.22 1.33v2.71z" fill="#fffdf1"/>
        <path d="M110.5 44.55v-5.01h.75l.04.7c.15-.27.35-.47.59-.61q.36-.21.84-.21c.4 0 .74.09 1.03.28.28.19.49.47.62.85.14-.37.34-.65.62-.84.27-.19.59-.29.97-.29.56 0 1 .19 1.33.56.32.37.48.94.48 1.7v2.86h-.8v-2.56c0-.49-.05-.87-.16-1.13s-.24-.44-.42-.54-.37-.15-.6-.15c-.39 0-.7.16-.92.47s-.33.75-.33 1.32v2.59h-.8v-2.56c0-.49-.05-.87-.16-1.13s-.24-.44-.42-.54-.38-.15-.61-.15c-.39 0-.69.16-.91.47s-.33.75-.33 1.32v2.59h-.8Z" fill="#fffdf1"/>
        <path d="M121.5 44.55v-5.01h.75l.05.92v4.09zm3.51-2.56c0-.49-.06-.87-.17-1.13s-.27-.44-.47-.54-.43-.15-.68-.15c-.44 0-.78.16-1.03.47-.24.31-.37.75-.37 1.32h-.39c0-.53.08-.98.23-1.36s.38-.67.67-.87.65-.3 1.06-.3c.39 0 .74.08 1.03.24s.52.41.68.75.24.79.23 1.34V42h-.8Zm0 2.56v-2.56h.8v2.56z" fill="#fffdf1"/>
        <path d="M128.67 44.67c-.59 0-1.05-.14-1.38-.41s-.5-.65-.5-1.13q0-.765.51-1.17c.34-.27.81-.41 1.42-.41h1.43v.67h-1.25c-.47 0-.8.08-1 .23s-.29.37-.29.66c0 .26.1.47.29.62s.46.23.81.23c.29 0 .54-.06.75-.19.21-.12.38-.3.5-.53s.17-.5.17-.82h.34c0 .68-.15 1.22-.46 1.63-.31.4-.76.61-1.34.61Zm1.5-.12-.04-.82v-1.82c0-.39-.04-.72-.13-.98s-.22-.45-.41-.59c-.19-.13-.43-.2-.73-.2-.27 0-.51.05-.71.17s-.36.29-.49.53l-.72-.28c.13-.23.28-.44.46-.61q.27-.255.63-.39c.24-.09.51-.14.82-.14.47 0 .85.09 1.16.28q.45.27.69.81c.15.36.23.8.22 1.33v2.71z" fill="#fffdf1"/>
        <path d="M134.72 46.55v-7.01h.75l.05.92v6.09zm2.49-1.88q-.63 0-1.11-.33c-.32-.22-.56-.53-.74-.93-.17-.4-.26-.85-.26-1.37s.09-.98.26-1.37.42-.7.74-.92q.48-.33 1.11-.33c.45 0 .84.11 1.18.33s.61.53.8.92.29.85.29 1.37-.09.97-.29 1.37c-.19.4-.46.71-.8.93s-.73.33-1.18.33m-.18-.73q.465 0 .84-.24c.24-.16.44-.38.58-.67s.22-.61.22-.99-.07-.69-.21-.98-.33-.51-.57-.67-.53-.24-.85-.24c-.29 0-.56.08-.79.24s-.41.38-.54.67c-.13.28-.2.61-.2.99s.06.69.2.98c.13.29.31.51.54.67q.345.24.78.24" fill="#fffdf1"/>
        <path d="M140.58 44.55v-5.01h.8v5.01zm.44-2.71c0-.54.1-.98.31-1.32s.47-.59.79-.75.67-.25 1.03-.25v.75c-.29 0-.58.05-.85.15s-.49.26-.67.48c-.17.22-.26.52-.26.9l-.36.04Z" fill="#fffdf1"/>
        <path d="M146.16 44.67c-.49 0-.92-.11-1.29-.34-.38-.22-.67-.53-.88-.93s-.32-.85-.32-1.36.1-.97.32-1.36q.315-.585.87-.93c.555-.345.8-.34 1.28-.34s.87.12 1.21.35.6.55.79.97c.19.41.28.9.28 1.46h-4.14l.2-.17c0 .4.07.74.21 1.03s.35.51.61.66.56.23.89.23c.35 0 .65-.08.9-.25q.36-.255.57-.66l.69.35c-.13.26-.29.49-.51.68-.21.19-.46.34-.74.45-.29.11-.6.16-.95.16Zm-1.62-2.98-.21-.16h3.46l-.21.17c0-.32-.06-.6-.19-.83q-.195-.345-.51-.54c-.21-.13-.46-.19-.74-.19s-.53.06-.78.19c-.24.13-.44.31-.59.54s-.23.51-.23.83Z" fill="#fffdf1"/>
        <path d="M151.19 44.67c-.37 0-.69-.06-.96-.17s-.5-.26-.69-.44c-.18-.18-.32-.38-.4-.59l.7-.29c.11.23.28.41.51.55q.345.21.75.21c.31 0 .58-.06.79-.19s.32-.3.32-.53c0-.21-.08-.37-.24-.5s-.39-.23-.7-.31l-.48-.13c-.45-.12-.81-.3-1.06-.55-.25-.24-.38-.52-.38-.83 0-.47.15-.84.46-1.11s.77-.4 1.39-.4c.29 0 .56.04.8.13s.45.21.62.37.3.34.38.56l-.7.31a.87.87 0 0 0-.43-.49c-.2-.1-.44-.15-.73-.15-.31 0-.55.06-.72.2-.17.13-.26.31-.26.55 0 .13.07.26.21.38s.36.21.64.29l.5.13c.33.08.6.2.82.36s.39.34.5.54.17.41.17.64q0 .45-.24.78c-.16.22-.38.39-.65.51s-.59.18-.94.18Z" fill="#fffdf1"/>
        <path d="M156.3 44.67c-.49 0-.92-.11-1.29-.34s-.67-.53-.88-.93c-.21-.39-.32-.85-.32-1.36s.11-.97.32-1.36q.315-.585.87-.93c.37-.22.8-.34 1.28-.34s.87.12 1.21.35.6.55.79.97.28.9.28 1.46h-4.14l.2-.17c0 .4.07.74.22 1.03.14.29.35.51.61.66s.56.23.89.23c.35 0 .65-.08.9-.25q.36-.255.57-.66l.69.35c-.13.26-.3.49-.51.68s-.46.34-.74.45-.6.16-.95.16m-1.63-2.98-.21-.16h3.46l-.21.17c0-.32-.06-.6-.19-.83q-.195-.345-.51-.54c-.21-.13-.46-.19-.74-.19s-.53.06-.78.19-.44.31-.59.54-.23.51-.23.83Z" fill="#fffdf1"/>
        <path d="M159.57 44.55v-5.01h.8v5.01zm.44-2.71c0-.54.1-.98.31-1.32s.47-.59.8-.75c.32-.16.67-.25 1.03-.25v.75c-.29 0-.58.05-.85.15s-.49.26-.67.48-.26.52-.26.9z" fill="#fffdf1"/>
        <path d="m164.44 44.55-2.09-5.01h.83l2.04 5.01zm.05 0 2.04-5.01h.84l-2.09 5.01z" fill="#fffdf1"/>
        <path d="M169.62 44.67c-.59 0-1.05-.14-1.38-.41s-.5-.65-.5-1.13q0-.765.51-1.17c.34-.27.81-.41 1.42-.41h1.43v.67h-1.25c-.47 0-.8.08-1 .23s-.29.37-.29.66c0 .26.1.47.29.62s.46.23.81.23c.29 0 .54-.06.75-.19s.38-.3.5-.53.18-.5.18-.82h.34c0 .68-.15 1.22-.46 1.63-.31.4-.75.61-1.34.61Zm1.51-.12-.04-.82v-1.82c0-.39-.04-.72-.13-.98s-.22-.45-.41-.59-.43-.2-.73-.2c-.27 0-.51.05-.71.17-.2.11-.36.29-.49.53l-.72-.28c.13-.23.28-.44.46-.61q.27-.255.63-.39c.24-.09.51-.14.82-.14.47 0 .85.09 1.16.28q.45.27.69.81c.15.36.23.8.22 1.33v2.71z" fill="#fffdf1"/>
        <path d="M175.38 44.67c-.49 0-.93-.11-1.31-.34s-.68-.53-.89-.93-.32-.85-.32-1.36.1-.97.32-1.36c.21-.39.51-.7.89-.93.38-.22.81-.34 1.3-.34s.91.11 1.29.33.67.53.87.93l-.73.33c-.13-.27-.33-.48-.58-.63s-.54-.23-.87-.23-.62.08-.87.24-.45.38-.59.67-.21.61-.21.98.07.69.21.98c.14.28.34.51.6.67s.55.24.88.24.62-.08.88-.25.45-.4.59-.7l.73.33c-.2.43-.49.76-.87 1s-.81.36-1.3.36Zm-.31 1.98c-.13 0-.27-.02-.42-.05s-.33-.11-.54-.22l.2-.48c.1.05.21.09.33.14s.22.07.32.07c.12 0 .23-.02.33-.07s.14-.14.14-.29c0-.17-.06-.29-.19-.38-.12-.08-.31-.15-.58-.19l.3-.7.53.12-.11.26c.25.09.42.21.53.37s.15.32.15.5a1 1 0 0 1-.23.66c-.16.18-.41.27-.76.27Z" fill="#fffdf1"/>
        <path d="M180.15 44.67c-.59 0-1.05-.14-1.38-.41s-.5-.65-.5-1.13q0-.765.51-1.17c.34-.27.81-.41 1.42-.41h1.43v.67h-1.25c-.47 0-.8.08-1 .23s-.29.37-.29.66c0 .26.1.47.29.62s.46.23.81.23c.29 0 .54-.06.75-.19s.38-.3.5-.53.18-.5.18-.82h.34c0 .68-.15 1.22-.46 1.63-.31.4-.75.61-1.34.61Zm1.5-.12-.04-.82v-1.82c0-.39-.04-.72-.13-.98s-.22-.45-.41-.59-.43-.2-.73-.2c-.27 0-.51.05-.71.17-.2.11-.36.29-.49.53l-.72-.28c.13-.23.28-.44.46-.61q.27-.255.63-.39c.24-.09.51-.14.82-.14.47 0 .85.09 1.16.28q.45.27.69.81c.15.36.23.8.22 1.33v2.71zm-.44-5.67c-.19 0-.35-.04-.47-.11s-.22-.16-.3-.25-.15-.18-.22-.25-.14-.11-.23-.11c-.11 0-.19.03-.25.08s-.1.16-.14.3h-.65c.02-.18.07-.35.16-.51.08-.16.2-.28.35-.38.15-.09.32-.14.52-.14s.34.04.45.11.21.16.29.25.15.18.22.25.16.11.26.11c.11 0 .2-.03.25-.1s.09-.16.11-.28h.64c-.03.27-.13.5-.3.71s-.4.31-.7.31Z" fill="#fffdf1"/>
        <path d="M185.89 44.67c-.49 0-.93-.11-1.31-.34s-.67-.53-.89-.93c-.21-.39-.32-.85-.32-1.36s.11-.97.32-1.36.5-.7.88-.93.81-.34 1.3-.34.92.11 1.3.34.67.53.88.93c.21.39.32.85.32 1.36s-.11.97-.32 1.36-.5.7-.88.93-.8.34-1.28.34m-.01-.74q.495 0 .87-.24c.25-.16.45-.38.59-.67.14-.28.22-.61.22-.98s-.07-.69-.22-.98-.34-.51-.6-.67-.55-.24-.88-.24a1.58 1.58 0 0 0-1.46.9c-.14.28-.22.61-.22.98s.07.69.22.98c.14.28.34.51.6.67s.55.24.88.24Z" fill="#fffdf1"/>
        <path d="M193.92 44.67c-.45 0-.84-.11-1.18-.33s-.61-.53-.8-.93-.29-.85-.29-1.37.09-.98.29-1.37.46-.7.8-.92.73-.33 1.18-.33q.63 0 1.11.33c.32.22.56.53.74.92.17.39.26.85.26 1.37s-.09.97-.26 1.37-.42.71-.74.93q-.48.33-1.11.33m.18-.73q.435 0 .78-.24c.23-.16.41-.38.54-.67s.2-.61.2-.98-.07-.69-.2-.98-.31-.51-.54-.67-.49-.24-.79-.24-.59.08-.84.24c-.24.16-.44.38-.58.67s-.21.61-.21.98.07.69.21.98.33.51.58.67q.375.24.84.24Zm1.55.61-.04-.93v-6.08h.8v7.01z" fill="#fffdf1"/>
        <path d="M199.4 44.67c-.59 0-1.05-.14-1.38-.41s-.5-.65-.5-1.13q0-.765.51-1.17c.34-.27.81-.41 1.42-.41h1.43v.67h-1.25c-.47 0-.8.08-1 .23q-.3.225-.3.66c0 .26.1.47.29.62s.46.23.81.23c.29 0 .54-.06.75-.19.21-.12.38-.3.5-.53s.18-.5.18-.82h.34c0 .68-.15 1.22-.46 1.63-.31.4-.75.61-1.34.61Zm1.5-.12-.04-.82v-1.82c0-.39-.04-.72-.13-.98s-.22-.45-.41-.59c-.19-.13-.43-.2-.73-.2-.27 0-.51.05-.71.17s-.36.29-.49.53l-.72-.28c.13-.23.28-.44.46-.61q.27-.255.63-.39c.24-.09.51-.14.82-.14.47 0 .85.09 1.16.28q.45.27.69.81c.15.36.23.8.22 1.33v2.71z" fill="#fffdf1"/>
        <path d="M84.84 56.17c-.37 0-.69-.06-.96-.17s-.5-.26-.69-.44c-.18-.18-.32-.38-.4-.59l.7-.29c.11.23.28.41.51.55q.345.21.75.21c.31 0 .58-.06.79-.19s.32-.3.32-.53c0-.21-.08-.37-.24-.5s-.39-.23-.7-.31l-.48-.13c-.45-.12-.81-.3-1.06-.55-.25-.24-.38-.52-.38-.83 0-.47.15-.84.46-1.11s.77-.4 1.39-.4c.29 0 .56.04.8.13s.45.21.62.37.3.34.38.56l-.7.31a.87.87 0 0 0-.43-.49c-.2-.1-.44-.15-.73-.15-.31 0-.55.06-.72.2-.17.13-.26.31-.26.55 0 .13.07.26.21.38s.36.21.64.29l.5.13c.33.08.6.2.82.36s.39.34.5.54.17.41.17.64q0 .45-.24.78c-.16.22-.38.39-.65.51s-.59.18-.94.18Z" fill="#fffdf1"/>
        <path d="M89.34 56.17c-.59 0-1.05-.14-1.38-.41s-.5-.65-.5-1.13q0-.765.51-1.17c.34-.27.81-.41 1.42-.41h1.43v.67h-1.25c-.47 0-.8.08-1 .23q-.3.225-.3.66c0 .26.1.47.29.62s.46.23.81.23c.29 0 .54-.06.75-.19.21-.12.38-.3.5-.53s.18-.5.18-.82h.34c0 .68-.15 1.22-.46 1.63-.31.4-.75.61-1.34.61Zm1.5-.12-.04-.82v-1.82c0-.39-.04-.72-.13-.98s-.22-.45-.41-.59c-.19-.13-.43-.2-.73-.2-.27 0-.51.05-.71.17s-.36.29-.49.53l-.72-.28c.13-.23.28-.44.46-.61q.27-.255.63-.39c.24-.09.51-.14.82-.14.47 0 .85.09 1.16.28q.45.27.69.81c.15.36.23.8.22 1.33v2.71z" fill="#fffdf1"/>
        <path d="M92.73 53.61v-2.56h.8v2.56zm.81 0c0 .49.06.87.17 1.13s.27.44.47.54q.3.15.69.15c.43 0 .77-.16 1.02-.47.24-.31.37-.75.37-1.31h.39c0 .53-.08.98-.23 1.36s-.38.67-.67.87-.65.3-1.07.3q-.585 0-1.02-.24c-.29-.16-.52-.41-.68-.75s-.24-.79-.24-1.34v-.24zm.74-3.28 1.17-1.29h1.03l-1.29 1.29zm2.02 5.72-.05-.92v-4.09h.8v5.01z" fill="#fffdf1"/>
        <path d="M100.43 56.17c-.45 0-.84-.11-1.18-.33s-.61-.53-.8-.93-.29-.85-.29-1.37.1-.98.29-1.37.46-.7.8-.92.73-.33 1.18-.33q.63 0 1.11.33c.48.33.56.53.74.92.17.39.26.85.26 1.37s-.09.97-.26 1.37-.42.71-.74.93q-.48.33-1.11.33m.17-.73q.435 0 .78-.24c.23-.16.41-.38.54-.67s.2-.61.2-.98-.07-.69-.2-.98-.31-.51-.54-.67-.49-.24-.79-.24-.59.08-.84.24c-.24.16-.44.38-.58.67s-.21.61-.21.98.07.69.21.98.33.51.58.67q.375.24.84.24Zm1.56.61-.04-.93v-6.08h.8v7.01z" fill="#fffdf1"/>
        <path d="M106.51 56.17c-.49 0-.92-.11-1.29-.34-.37-.22-.67-.53-.88-.93s-.32-.85-.32-1.36.11-.97.32-1.36q.315-.585.87-.93c.555-.345.8-.34 1.28-.34s.87.12 1.21.35.6.55.79.97c.19.41.28.9.28 1.46h-4.14l.2-.17c0 .4.07.74.22 1.03s.35.51.61.66.56.23.89.23c.35 0 .65-.08.9-.25q.36-.255.57-.66l.69.35c-.13.26-.3.49-.51.68s-.46.34-.74.45-.6.16-.95.16m-1.62-2.98-.21-.16h3.46l-.21.17c0-.32-.06-.6-.19-.83q-.195-.345-.51-.54c-.21-.13-.46-.19-.74-.19s-.53.06-.78.19c-.24.13-.44.31-.59.54s-.22.51-.22.83Z" fill="#fffdf1"/>
        <path d="M113.85 56.17c-.59 0-1.05-.14-1.38-.41s-.5-.65-.5-1.13q0-.765.51-1.17c.34-.27.81-.41 1.42-.41h1.43v.67h-1.25c-.47 0-.8.08-1 .23q-.3.225-.3.66c0 .26.1.47.29.62s.46.23.81.23c.29 0 .54-.06.75-.19.21-.12.38-.3.5-.53s.17-.5.17-.82h.34c0 .68-.15 1.22-.46 1.63-.31.4-.75.61-1.34.61Zm1.5-.12-.04-.82v-1.82c0-.39-.04-.72-.13-.98s-.22-.45-.41-.59-.43-.2-.73-.2c-.27 0-.51.05-.71.17-.2.11-.36.29-.49.53l-.72-.28c.13-.23.28-.44.46-.61q.27-.255.63-.39c.24-.09.51-.14.82-.14.47 0 .85.09 1.16.28s.53.45.69.81c.15.36.23.8.22 1.33v2.71z" fill="#fffdf1"/>
        <path d="M117.37 56.05v-5.01h.8v5.01zm.44-2.71c0-.54.1-.98.31-1.32s.47-.59.8-.75.67-.25 1.03-.25v.75c-.29 0-.58.05-.85.15s-.49.26-.67.48-.26.52-.26.9z" fill="#fffdf1"/>
        <path d="M120.23 51.75v-.71h3.17v.71zm2.41 4.42c-.49 0-.87-.13-1.13-.38-.27-.25-.4-.61-.4-1.07v-5.24h.8v5.16c0 .25.07.45.21.59s.33.21.58.21q.12 0 .24-.03t.3-.18l.31.65c-.17.11-.33.19-.47.24s-.28.06-.43.06Z" fill="#fffdf1"/>
        <path d="M125 49.88c-.13 0-.25-.05-.35-.15s-.15-.22-.15-.35.05-.26.15-.36.22-.15.35-.15.26.05.36.15.14.22.14.36-.05.25-.14.35q-.15.15-.36.15m-.41 6.17v-5.01h.8v5.01z" fill="#fffdf1"/>
        <path d="M129.1 56.17c-.49 0-.93-.11-1.31-.34s-.68-.53-.89-.93c-.21-.39-.32-.85-.32-1.36s.1-.97.31-1.36.51-.7.89-.93.81-.34 1.3-.34.91.11 1.29.33.67.53.87.93l-.73.33c-.13-.27-.33-.48-.58-.63s-.54-.23-.87-.23-.62.08-.87.24-.45.38-.59.67c-.14.28-.21.61-.21.98s.07.69.21.98c.14.28.34.51.6.67s.55.24.88.24.62-.08.88-.25.45-.4.59-.7l.73.33c-.2.43-.49.76-.87 1s-.82.36-1.3.36Z" fill="#fffdf1"/>
        <path d="M132.15 53.61v-2.56h.8v2.56zm.8 0c0 .49.06.87.17 1.13s.27.44.48.54q.3.15.69.15c.43 0 .77-.16 1.02-.47.24-.31.37-.75.37-1.31h.39c0 .53-.08.98-.23 1.36s-.38.67-.67.87-.65.3-1.07.3q-.585 0-1.02-.24c-.435-.24-.52-.41-.68-.75s-.24-.79-.24-1.34v-.24h.8Zm2.77 2.44-.05-.92v-4.09h.8v5.01z" fill="#fffdf1"/>
        <path d="M137.87 56.05v-7.01h.8v7.01z" fill="#fffdf1"/>
        <path d="M141.65 56.17c-.59 0-1.05-.14-1.38-.41s-.5-.65-.5-1.13q0-.765.51-1.17c.34-.27.81-.41 1.42-.41h1.43v.67h-1.25c-.47 0-.8.08-1 .23s-.29.37-.29.66c0 .26.1.47.29.62s.46.23.81.23c.29 0 .54-.06.75-.19.21-.12.38-.3.5-.53s.17-.5.17-.82h.34c0 .68-.15 1.22-.46 1.63-.31.4-.76.61-1.34.61Zm1.51-.12-.04-.82v-1.82c0-.39-.04-.72-.13-.98s-.22-.45-.41-.59c-.19-.13-.43-.2-.73-.2-.27 0-.51.05-.71.17s-.36.29-.49.53l-.72-.28c.13-.23.28-.44.46-.61q.27-.255.63-.39c.24-.09.51-.14.82-.14.47 0 .85.09 1.16.28q.45.27.69.81c.15.36.23.8.22 1.33v2.71z" fill="#fffdf1"/>
        <path d="M145.18 56.05v-5.01h.8v5.01zm.44-2.71c0-.54.1-.98.31-1.32s.47-.59.8-.75c.32-.16.67-.25 1.03-.25v.75c-.29 0-.58.05-.85.15s-.49.26-.67.48-.26.52-.26.9z" fill="#fffdf1"/>
        <path d="M148.91 56.19a.56.56 0 0 1-.4-.17c-.11-.11-.17-.24-.17-.39s.06-.29.17-.4.24-.17.4-.17.28.05.39.17c.11.11.16.24.16.4s-.05.28-.16.39-.24.17-.39.17" fill="#fffdf1"/>
    </g>
</svg>
