<?xml version="1.0" encoding="UTF-8"?>
<svg data-bbox="0 0 227.64 70.6" viewBox="0 0 227.64 70.6" xmlns="http://www.w3.org/2000/svg" data-type="color">
    <g>
        <path fill="#fffdf1" d="M70.6 35.3c0 19.496-15.804 35.3-35.3 35.3S0 54.796 0 35.3 15.804 0 35.3 0s35.3 15.804 35.3 35.3" data-color="1"/>
        <path d="M36.08 56.63a.75.75 0 0 1-.53-.22L21.21 42.08l1.06-1.06 13.8 13.8L53.9 36.99c2.16-2.16 3.34-5.02 3.34-8.07S56.05 23 53.9 20.85a11.4 11.4 0 0 0-8.9-3.31c-3.31.24-6.35 1.91-8.33 4.57-.28.38-.92.38-1.21 0a11.4 11.4 0 0 0-8.33-4.57c-3.31-.24-6.55.97-8.9 3.31a11.36 11.36 0 0 0-2.02 13.42c.19.37.05.82-.31 1.02-.37.19-.82.06-1.02-.31a12.865 12.865 0 0 1 2.28-15.19 12.91 12.91 0 0 1 18.89.67 12.91 12.91 0 0 1 18.89-.67c5.04 5.04 5.04 13.23 0 18.27L36.58 56.42a.75.75 0 0 1-.53.22h.03Z" fill="#275e29" data-color="2"/>
        <path d="M31.49 44.37h-.04a.76.76 0 0 1-.69-.56l-3.47-13.13-2.77 7.75c-.11.3-.39.5-.71.5H9.74a.749.749 0 1 1 0-1.5h13.54l3.41-9.53c.11-.31.41-.51.74-.5s.61.24.7.56l3.5 13.22 2.95-7.65c.11-.29.39-.48.7-.48h7.96a.749.749 0 1 1 0 1.5h-7.45l-3.6 9.34c-.11.29-.39.48-.7.48" fill="#275e29" data-color="2"/>
        <path d="M90 20.21a3.55 3.55 0 0 1-1.83-.52c-.26-.16-.47-.34-.64-.55-.17-.2-.27-.42-.3-.65l1.85-.51c.06.17.16.31.31.43s.34.18.57.2a.8.8 0 0 0 .5-.15c.14-.11.22-.25.22-.42 0-.11-.04-.22-.13-.33s-.22-.18-.4-.23l-1.06-.27c-.36-.09-.67-.24-.93-.43s-.46-.43-.59-.71c-.14-.28-.21-.6-.21-.95 0-.69.23-1.23.69-1.61.46-.39 1.11-.58 1.94-.58.44 0 .83.06 1.17.17s.63.29.88.54c.25.24.45.56.61.96l-1.84.53a.83.83 0 0 0-.26-.4c-.14-.13-.32-.2-.56-.2s-.4.05-.53.15-.19.25-.19.44c0 .12.05.23.15.32s.24.16.43.21l1.07.27c.54.13.96.4 1.26.79s.45.84.45 1.34c0 .46-.11.85-.32 1.18-.21.32-.51.57-.91.73s-.87.25-1.42.25Z" fill="#fffdf1" data-color="1"/>
        <path d="m93.03 20.09 2.7-7.04h1.85l-2.57 7.04h-1.97Zm1.27-1.12v-1.64h4.87v1.64zm4.15 1.12-2.57-7.04h1.85l2.7 7.04h-1.97Z" fill="#fffdf1" data-color="1"/>
        <path d="M104 20.21c-.62 0-1.16-.11-1.61-.34s-.79-.55-1.03-.98-.36-.93-.36-1.52v-4.31h1.86v4.31c0 .23.05.44.14.6.09.17.23.3.4.38.17.09.38.13.62.13s.45-.04.62-.13.31-.21.4-.38.14-.37.14-.6v-4.31h1.86v4.31c0 .59-.12 1.1-.36 1.52-.24.43-.59.75-1.04.98s-1 .34-1.63.34Zm-.34-7.4 1.11-1.47h1.91l-1.31 1.47z" fill="#fffdf1" data-color="1"/>
        <path d="M108.14 20.09v-7.04h2.35c.77 0 1.45.15 2.05.45.59.3 1.06.72 1.39 1.24.33.53.5 1.13.5 1.83s-.17 1.29-.5 1.82c-.34.53-.8.95-1.39 1.25s-1.28.45-2.05.45zm1.86-1.76h.49c.29 0 .57-.04.81-.13.25-.09.46-.21.64-.36a1.62 1.62 0 0 0 .57-1.26 1.62 1.62 0 0 0-.57-1.26c-.18-.15-.4-.27-.64-.36-.25-.09-.52-.13-.81-.13H110v3.52Z" fill="#fffdf1" data-color="1"/>
        <path d="M115.29 20.09v-7.04h4.72v1.71h-2.86v.98h2.31v1.66h-2.31v.99h2.93v1.71h-4.79Z" fill="#fffdf1" data-color="1"/>
        <path d="M126.74 20.21c-.7 0-1.33-.16-1.87-.47s-.96-.74-1.27-1.29-.46-1.17-.46-1.89.15-1.34.46-1.89.73-.98 1.27-1.29 1.16-.47 1.87-.47c.54 0 1.03.09 1.47.28s.81.45 1.13.78c.31.34.56.72.72 1.17l-1.77.56c-.09-.22-.21-.41-.36-.58-.15-.16-.32-.29-.52-.38s-.42-.13-.67-.13c-.33 0-.62.08-.88.25-.25.16-.45.39-.6.68s-.22.62-.22 1.01.07.71.22 1 .35.52.61.68.55.25.89.25c.26 0 .49-.05.68-.14s.36-.22.49-.38c.14-.16.26-.36.36-.58l1.77.56c-.16.44-.4.83-.71 1.17s-.69.6-1.14.79c-.44.19-.94.28-1.48.28Z" fill="#fffdf1" data-color="1"/>
        <path d="m130.29 20.09 2.7-7.04h1.85l-2.57 7.04h-1.97Zm1.27-1.12v-1.64h4.87v1.64zm4.15 1.12-2.57-7.04h1.85l2.7 7.04h-1.97Z" fill="#fffdf1" data-color="1"/>
        <path d="M138.36 20.09v-7.04h2.92c.53 0 1 .1 1.41.31s.73.49.96.84c.23.36.35.77.35 1.24a2.28 2.28 0 0 1-1.31 2.1c-.41.2-.88.31-1.41.31h-1.06v2.23h-1.86Zm1.86-3.94h.96c.17 0 .32-.03.44-.09a.68.68 0 0 0 .41-.61c0-.2-.08-.37-.24-.5a.94.94 0 0 0-.62-.2h-.96v1.4Zm1.92 3.94-1.57-2.77 1.4-1.05 2.3 3.81h-2.13Z" fill="#fffdf1" data-color="1"/>
        <path d="M145.03 20.09v-7.04h2.35c.77 0 1.45.15 2.05.45s1.06.72 1.39 1.24c.33.53.5 1.13.5 1.83s-.17 1.29-.5 1.82c-.34.53-.8.95-1.39 1.25s-1.28.45-2.05.45zm1.86-1.76h.49c.29 0 .57-.04.81-.13.25-.09.46-.21.64-.36a1.62 1.62 0 0 0 .57-1.26 1.62 1.62 0 0 0-.57-1.26c-.18-.15-.4-.27-.64-.36-.25-.09-.52-.13-.81-.13h-.49v3.52Z" fill="#fffdf1" data-color="1"/>
        <path d="M152.18 20.09v-7.04h1.86v7.04z" fill="#fffdf1" data-color="1"/>
        <path d="M158.66 20.21c-.74 0-1.39-.16-1.96-.47s-1.01-.74-1.33-1.29-.48-1.17-.48-1.88.16-1.34.48-1.89.76-.98 1.33-1.29c.56-.31 1.21-.47 1.94-.47s1.39.16 1.95.47 1.01.74 1.33 1.29q.48.825.48 1.89c0 1.065-.16 1.33-.48 1.88s-.76.98-1.32 1.29-1.21.47-1.94.47m0-1.71c.36 0 .68-.08.96-.25.27-.16.49-.39.64-.68s.23-.62.23-1-.08-.71-.24-1-.38-.52-.65-.68c-.28-.16-.6-.25-.96-.25s-.67.08-.95.25c-.28.16-.5.39-.65.68-.16.29-.24.62-.24 1s.08.71.24 1 .38.51.66.68c.28.16.6.25.96.25" fill="#fffdf1" data-color="1"/>
        <path d="m165.13 20.09-2.71-7.04h2.01l2.49 7.04h-1.8Zm.21 0 2.47-7.04h2.01l-2.69 7.04h-1.8Z" fill="#fffdf1" data-color="1"/>
        <path d="m168.86 20.09 2.7-7.04h1.85l-2.57 7.04h-1.97Zm1.27-1.12v-1.64H175v1.64zm4.15 1.12-2.57-7.04h1.85l2.7 7.04h-1.97Z" fill="#fffdf1" data-color="1"/>
        <path d="M179.39 20.21a3.55 3.55 0 0 1-1.83-.52c-.26-.16-.47-.34-.64-.55-.17-.2-.27-.42-.3-.65l1.85-.51c.06.17.16.31.31.43s.34.18.57.2a.8.8 0 0 0 .5-.15c.14-.11.22-.25.22-.42 0-.11-.04-.22-.13-.33s-.22-.18-.4-.23l-1.06-.27c-.36-.09-.67-.24-.93-.43s-.46-.43-.59-.71c-.14-.28-.21-.6-.21-.95 0-.69.23-1.23.69-1.61.46-.39 1.11-.58 1.94-.58.44 0 .83.06 1.17.17s.63.29.88.54c.25.24.45.56.61.96l-1.84.53a.83.83 0 0 0-.26-.4c-.14-.13-.32-.2-.56-.2s-.4.05-.53.15-.19.25-.19.44c0 .12.05.23.15.32s.24.16.43.21l1.07.27c.54.13.96.4 1.26.79s.45.84.45 1.34c0 .46-.11.85-.32 1.18-.21.32-.51.57-.91.73s-.87.25-1.42.25Z" fill="#fffdf1" data-color="1"/>
        <path d="M186.21 20.21c-.7 0-1.33-.16-1.87-.47s-.96-.74-1.27-1.29-.46-1.17-.46-1.89.15-1.34.46-1.89.73-.98 1.27-1.29 1.16-.47 1.87-.47c.54 0 1.03.09 1.47.28s.81.45 1.13.78c.31.34.56.72.72 1.17l-1.77.56c-.09-.22-.21-.41-.36-.58-.15-.16-.32-.29-.52-.38s-.42-.13-.67-.13c-.33 0-.62.08-.88.25-.25.16-.45.39-.6.68s-.22.62-.22 1.01.07.71.22 1 .35.52.61.68.55.25.89.25c.26 0 .49-.05.68-.14s.36-.22.49-.38c.14-.16.26-.36.36-.58l1.77.56c-.16.44-.4.83-.71 1.17s-.69.6-1.14.79c-.44.19-.94.28-1.48.28Z" fill="#fffdf1" data-color="1"/>
        <path d="M193.19 20.21c-.62 0-1.16-.11-1.61-.34s-.79-.55-1.03-.98-.36-.93-.36-1.52v-4.31h1.86v4.31c0 .23.05.44.14.6.09.17.23.3.4.38.17.09.38.13.62.13s.45-.04.62-.13.31-.21.4-.38.14-.37.14-.6v-4.31h1.86v4.31c0 .59-.12 1.1-.36 1.52-.24.43-.59.75-1.04.98s-1 .34-1.63.34Z" fill="#fffdf1" data-color="1"/>
        <path d="M197.33 20.09v-7.04h1.86v5.33h2.9v1.71z" fill="#fffdf1" data-color="1"/>
        <path d="m202.36 20.09 2.7-7.04h1.85l-2.57 7.04h-1.97Zm1.27-1.12v-1.64h4.87v1.64zm4.15 1.12-2.57-7.04h1.85l2.7 7.04h-1.97Z" fill="#fffdf1" data-color="1"/>
        <path d="M210.42 20.09v-7.04h2.92c.53 0 1 .1 1.41.31.41.2.73.49.96.84.23.36.35.77.35 1.24s-.12.89-.35 1.25-.55.65-.96.85-.88.31-1.41.31h-1.06v2.23h-1.86Zm1.86-3.94h.96c.17 0 .32-.03.44-.09a.68.68 0 0 0 .41-.61c0-.2-.08-.37-.24-.5a.94.94 0 0 0-.62-.2h-.96v1.4Zm1.93 3.94-1.57-2.77 1.4-1.05 2.3 3.81h-2.13Z" fill="#fffdf1" data-color="1"/>
        <path d="m87.02 32.09 2.87-7.04h.86l-2.83 7.04h-.91Zm1.36-2v-.76h3.91v.76zm4.36 2-2.83-7.04h.86l2.87 7.04h-.89Z" fill="#fffdf1" data-color="1"/>
        <path d="M97.16 32.09v-7.04h.86v6.27h3.32v.77h-4.17Z" fill="#fffdf1" data-color="1"/>
        <path d="M102.04 29.47v-.73h3.02v.73z" fill="#fffdf1" data-color="1"/>
        <path d="M108.59 32.21c-.5 0-.94-.11-1.32-.34-.38-.22-.68-.53-.89-.93s-.32-.85-.32-1.37.11-.97.32-1.37.51-.71.89-.93.82-.34 1.31-.34.92.11 1.3.33.67.53.88.94l-.73.33c-.13-.27-.33-.48-.58-.63s-.55-.23-.88-.23-.62.08-.87.24-.45.38-.59.67-.22.61-.22.98.07.7.22.98c.14.29.35.51.6.67.26.16.55.24.88.24s.62-.08.88-.25.45-.4.59-.7l.73.33c-.2.43-.49.76-.88 1.01-.38.24-.82.36-1.31.36Z" fill="#fffdf1" data-color="1"/>
        <path d="M113.38 32.21c-.59 0-1.05-.14-1.38-.41s-.5-.65-.5-1.13q0-.765.51-1.17c.34-.27.81-.41 1.42-.41h1.44v.67h-1.26c-.47 0-.8.08-1 .23s-.3.38-.3.66c0 .26.1.47.29.62s.47.23.81.23c.29 0 .54-.06.75-.19.21-.12.38-.3.5-.53s.18-.5.18-.82h.34c0 .68-.15 1.23-.46 1.63-.31.41-.76.61-1.35.61Zm1.51-.12-.04-.82v-1.83c0-.4-.04-.72-.13-.98s-.22-.45-.41-.59-.43-.2-.73-.2c-.27 0-.51.06-.71.17s-.36.29-.49.53l-.72-.28c.13-.23.28-.44.46-.61q.27-.255.63-.39c.24-.09.52-.14.82-.14.47 0 .86.09 1.16.28.3.18.54.46.69.81.15.36.23.8.22 1.33v2.73h-.75Z" fill="#fffdf1" data-color="1"/>
        <path d="M116.92 32.09v-5.03h.8v5.03zm.44-2.72c0-.54.1-.98.31-1.32s.47-.59.8-.75.67-.25 1.03-.25v.75c-.29 0-.58.05-.85.15s-.49.26-.67.48c-.17.22-.26.52-.26.9z" fill="#fffdf1" data-color="1"/>
        <path d="M120.32 32.09v-5.03h.75l.05.93v4.1zm3.53-2.57c0-.5-.06-.87-.17-1.14-.11-.26-.27-.44-.47-.54s-.43-.15-.68-.15c-.44 0-.79.16-1.03.47s-.37.75-.37 1.32h-.39c0-.53.08-.99.23-1.37s.38-.67.67-.88c.29-.2.65-.3 1.07-.3s.74.08 1.03.24.52.41.68.75c.17.34.24.79.24 1.35v.24h-.8Zm0 2.57v-2.57h.8v2.57z" fill="#fffdf1" data-color="1"/>
        <path d="M126.39 25.9c-.13 0-.25-.05-.35-.15s-.15-.22-.15-.35.05-.26.15-.36.22-.15.35-.15.26.05.36.15q.15.15.15.36c0 .21-.05.25-.15.35q-.15.15-.36.15m-.41 6.19v-5.03h.8v5.03z" fill="#fffdf1" data-color="1"/>
        <path d="M127.74 27.78v-.71h3.19v.71zm2.41 4.43c-.49 0-.87-.13-1.14-.38s-.4-.61-.4-1.08v-5.26h.8v5.18c0 .25.07.45.21.59s.33.21.58.21c.08 0 .16-.01.24-.04s.18-.08.31-.18l.31.65c-.17.11-.33.19-.47.24s-.29.07-.43.07Z" fill="#fffdf1" data-color="1"/>
        <path d="M132.53 25.9c-.13 0-.25-.05-.35-.15s-.15-.22-.15-.35.05-.26.15-.36.22-.15.35-.15.26.05.36.15.15.22.15.36-.05.25-.15.35-.22.15-.36.15m-.42 6.19v-5.03h.8v5.03z" fill="#fffdf1" data-color="1"/>
        <path d="M134.4 32.09v-5.03h.75l.05.93v4.1zm3.53-2.57c0-.5-.06-.87-.17-1.14-.11-.26-.27-.44-.47-.54s-.43-.15-.68-.15c-.44 0-.79.16-1.03.47s-.37.75-.37 1.32h-.39c0-.53.08-.99.23-1.37s.38-.67.67-.88.65-.3 1.07-.3c.39 0 .74.08 1.03.24s.52.41.68.75c.17.34.24.79.24 1.35v.24h-.8Zm0 2.57v-2.57h.8v2.57z" fill="#fffdf1" data-color="1"/>
        <path d="M141.6 32.21c-.59 0-1.05-.14-1.38-.41s-.5-.65-.5-1.13q0-.765.51-1.17c.34-.27.81-.41 1.42-.41h1.44v.67h-1.26c-.47 0-.8.08-1 .23s-.3.38-.3.66c0 .26.1.47.29.62s.47.23.81.23c.29 0 .54-.06.75-.19.21-.12.38-.3.5-.53s.18-.5.18-.82h.34c0 .68-.15 1.23-.46 1.63-.31.41-.76.61-1.35.61Zm1.5-.12-.04-.82v-1.83c0-.4-.04-.72-.13-.98s-.22-.45-.41-.59c-.19-.13-.43-.2-.73-.2-.28 0-.51.06-.71.17s-.36.29-.49.53l-.72-.28c.13-.23.28-.44.46-.61q.27-.255.63-.39c.36-.135.52-.14.83-.14.47 0 .86.09 1.16.28.31.18.53.46.69.81.15.36.23.8.22 1.33v2.73h-.75Z" fill="#fffdf1" data-color="1"/>
        <path d="M149.82 32.21c-.49 0-.92-.11-1.3-.34s-.67-.53-.88-.93-.32-.85-.32-1.37.11-.97.32-1.37.5-.71.88-.93.8-.34 1.28-.34.88.12 1.22.35.61.55.79.97c.19.42.28.91.28 1.47h-4.15l.2-.17c0 .4.07.75.22 1.04.14.29.35.51.61.66s.56.23.9.23c.35 0 .66-.08.9-.25.25-.17.43-.39.57-.66l.69.35c-.13.26-.3.49-.51.68s-.46.35-.75.45c-.28.11-.6.16-.95.16m-1.63-2.99-.21-.16h3.47l-.21.17c0-.32-.06-.6-.19-.83s-.3-.42-.51-.54c-.21-.13-.46-.19-.74-.19s-.53.06-.78.19c-.24.13-.44.31-.59.54s-.23.51-.23.83Z" fill="#fffdf1" data-color="1"/>
        <path d="M157.18 32.21c-.59 0-1.05-.14-1.38-.41s-.5-.65-.5-1.13q0-.765.51-1.17c.34-.27.81-.41 1.42-.41h1.44v.67h-1.26c-.47 0-.8.08-1 .23s-.3.38-.3.66c0 .26.1.47.29.62.2.15.47.23.81.23.29 0 .54-.06.75-.19.21-.12.38-.3.5-.53s.18-.5.18-.82h.34c0 .68-.15 1.23-.46 1.63-.31.41-.76.61-1.35.61Zm1.51-.12-.04-.82v-1.83c0-.4-.04-.72-.13-.98s-.22-.45-.41-.59c-.19-.13-.43-.2-.73-.2-.27 0-.51.06-.71.17s-.36.29-.49.53l-.72-.28c.13-.23.28-.44.46-.61q.27-.255.63-.39c.24-.09.52-.14.83-.14.47 0 .86.09 1.16.28.31.18.54.46.69.81.15.36.23.8.22 1.33v2.73h-.75Z" fill="#fffdf1" data-color="1"/>
        <path d="M162.68 27.78v-.71h3.19v.71zm2.42 4.43c-.49 0-.87-.13-1.14-.38s-.4-.61-.4-1.08v-5.26h.8v5.18c0 .25.07.45.21.59s.33.21.58.21c.08 0 .16-.01.24-.04.08-.02.18-.08.31-.18l.31.65c-.17.11-.33.19-.47.24-.14.04-.28.07-.43.07Z" fill="#fffdf1" data-color="1"/>
        <path d="M168.57 32.21c-.59 0-1.05-.14-1.38-.41s-.5-.65-.5-1.13q0-.765.51-1.17c.34-.27.81-.41 1.42-.41h1.44v.67h-1.26c-.47 0-.8.08-1 .23s-.3.38-.3.66c0 .26.1.47.29.62s.46.23.81.23c.29 0 .54-.06.75-.19.21-.12.38-.3.5-.53s.18-.5.18-.82h.34c0 .68-.15 1.23-.46 1.63-.31.41-.76.61-1.35.61Zm1.51-.12-.04-.82v-1.83c0-.4-.04-.72-.13-.98s-.22-.45-.41-.59-.43-.2-.73-.2c-.28 0-.51.06-.71.17s-.36.29-.49.53l-.72-.28c.13-.23.28-.44.46-.61s.39-.3.63-.39.52-.14.82-.14c.47 0 .86.09 1.16.28.3.18.53.46.69.81.15.36.23.8.22 1.33v2.73h-.75Z" fill="#fffdf1" data-color="1"/>
        <path d="M171.98 29.64v-2.57h.8v2.57zm.8 0c0 .5.06.87.17 1.14q.165.39.48.54.3.15.69.15c.44 0 .78-.16 1.02-.47s.37-.75.37-1.32h.39c0 .53-.08.99-.23 1.37s-.38.67-.67.88-.65.3-1.07.3c-.39 0-.73-.08-1.03-.24s-.52-.41-.68-.75c-.16-.35-.24-.79-.24-1.34v-.24h.8Zm2.78 2.45-.05-.93v-4.1h.8v5.03z" fill="#fffdf1" data-color="1"/>
        <path d="M177.72 32.09v-5.03h.8v5.03zm.44-2.72c0-.54.1-.98.31-1.32s.47-.59.8-.75.67-.25 1.03-.25v.75c-.29 0-.58.05-.85.15s-.49.26-.67.48c-.17.22-.26.52-.26.9z" fill="#fffdf1" data-color="1"/>
        <path d="M181.58 25.9c-.13 0-.25-.05-.35-.15s-.15-.22-.15-.35.05-.26.15-.36.22-.15.35-.15.26.05.36.15.15.22.15.36-.05.25-.15.35-.22.15-.36.15m-.41 6.19v-5.03h.8v5.03z" fill="#fffdf1" data-color="1"/>
        <path d="M183.45 32.09v-5.03h.75l.05.93v4.1zm3.53-2.57c0-.5-.06-.87-.17-1.14-.11-.26-.27-.44-.47-.54s-.43-.15-.68-.15c-.44 0-.79.16-1.03.47s-.37.75-.37 1.32h-.39c0-.53.08-.99.23-1.37s.38-.67.67-.88.65-.3 1.07-.3c.39 0 .74.08 1.03.24s.52.41.68.75c.17.34.24.79.24 1.35v.24h-.8Zm0 2.57v-2.57h.8v2.57z" fill="#fffdf1" data-color="1"/>
        <path d="M190.65 32.21c-.59 0-1.05-.14-1.38-.41s-.5-.65-.5-1.13q0-.765.51-1.17c.34-.27.81-.41 1.42-.41h1.44v.67h-1.26c-.47 0-.8.08-1 .23s-.3.38-.3.66c0 .26.1.47.29.62s.47.23.81.23c.29 0 .54-.06.75-.19.21-.12.38-.3.5-.53s.18-.5.18-.82h.34c0 .68-.15 1.23-.46 1.63-.31.41-.76.61-1.35.61Zm1.51-.12-.04-.82v-1.83c0-.4-.04-.72-.13-.98s-.22-.45-.41-.59c-.19-.13-.43-.2-.73-.2-.28 0-.51.06-.71.17s-.36.29-.49.53l-.72-.28c.13-.23.28-.44.46-.61q.27-.255.63-.39c.36-.135.52-.14.83-.14.47 0 .86.09 1.16.28.31.18.53.46.69.81.15.36.23.8.22 1.33v2.73h-.75Z" fill="#fffdf1" data-color="1"/>
        <path d="m193.89 33.25.57-2.12h.91l-.79 2.12z" fill="#fffdf1" data-color="1"/>
        <path d="M198.66 34.25c-.25 0-.56-.09-.95-.26l.3-.67c.16.06.3.11.41.14s.2.05.27.05c.46 0 .68-.29.68-.88v-5.57h.8v5.59c0 .52-.13.92-.38 1.19s-.63.41-1.14.41Zm1.11-8.36c-.13 0-.25-.05-.35-.15s-.15-.22-.15-.35c0-.15.05-.27.15-.37s.22-.15.35-.15q.21 0 .36.15c.15.15.15.22.15.37 0 .13-.05.25-.15.35s-.22.15-.36.15" fill="#fffdf1" data-color="1"/>
        <path d="M201.52 29.64v-2.57h.8v2.57zm.81 0c0 .5.06.87.17 1.14q.165.39.48.54c.315.15.43.15.69.15.44 0 .78-.16 1.02-.47.25-.31.37-.75.37-1.32h.39c0 .53-.08.99-.23 1.37s-.38.67-.67.88c-.29.2-.65.3-1.07.3-.39 0-.73-.08-1.03-.24s-.52-.41-.68-.75c-.16-.35-.24-.79-.24-1.34v-.24h.8Zm2.77 2.45-.05-.93v-4.1h.8v5.03z" fill="#fffdf1" data-color="1"/>
        <path d="M207.26 32.09v-5.03h.75l.05.93v4.1zm3.53-2.57c0-.5-.06-.87-.17-1.14-.12-.26-.27-.44-.47-.54s-.43-.15-.68-.15c-.44 0-.79.16-1.03.47-.25.31-.37.75-.37 1.32h-.39c0-.53.08-.99.23-1.37s.38-.67.67-.88c.29-.2.65-.3 1.07-.3s.74.08 1.03.24.52.41.68.75q.24.51.24 1.35v.24h-.8Zm0 2.57v-2.57h.8v2.57z" fill="#fffdf1" data-color="1"/>
        <path d="M212.35 27.78v-.71h3.19v.71zm2.42 4.43c-.49 0-.87-.13-1.14-.38s-.4-.61-.4-1.08v-5.26h.8v5.18c0 .25.07.45.21.59s.33.21.58.21c.08 0 .16-.01.24-.04.08-.02.18-.08.31-.18l.31.65c-.17.11-.33.19-.47.24-.14.04-.28.07-.43.07Z" fill="#fffdf1" data-color="1"/>
        <path d="M218.24 32.21c-.59 0-1.05-.14-1.38-.41s-.5-.65-.5-1.13q0-.765.51-1.17c.34-.27.81-.41 1.42-.41h1.44v.67h-1.26c-.47 0-.8.08-1 .23s-.3.38-.3.66c0 .26.1.47.29.62s.47.23.81.23c.29 0 .54-.06.75-.19.21-.12.38-.3.5-.53s.18-.5.18-.82h.34c0 .68-.15 1.23-.46 1.63-.31.41-.76.61-1.35.61Zm1.5-.12-.04-.82v-1.83c0-.4-.04-.72-.13-.98s-.22-.45-.41-.59-.43-.2-.73-.2c-.27 0-.51.06-.71.17s-.36.29-.49.53l-.72-.28c.13-.23.28-.44.46-.61q.27-.255.63-.39c.24-.09.52-.14.82-.14.47 0 .86.09 1.16.28.3.18.54.46.69.81.15.36.23.8.22 1.33v2.73h-.75Z" fill="#fffdf1" data-color="1"/>
        <path d="M223.54 32.21c-.37 0-.69-.06-.96-.17-.28-.11-.51-.26-.69-.44s-.32-.38-.4-.59l.7-.29c.11.23.29.41.51.55q.345.21.75.21c.31 0 .58-.06.79-.19.21-.12.32-.3.32-.53 0-.21-.08-.38-.24-.5-.16-.13-.39-.23-.7-.31l-.48-.13c-.46-.12-.81-.3-1.07-.55-.25-.24-.38-.52-.38-.83 0-.48.16-.85.47-1.11s.78-.4 1.39-.4c.29 0 .56.04.8.13s.45.21.62.37.3.34.38.56l-.7.31c-.09-.23-.23-.39-.43-.49s-.45-.15-.73-.15c-.31 0-.55.07-.72.2s-.26.31-.26.55c0 .13.07.26.22.38.14.12.36.21.64.29l.5.13c.33.08.6.2.82.36s.39.34.5.54.17.42.17.64q0 .45-.24.78c-.16.22-.38.39-.65.51s-.59.18-.95.18Z" fill="#fffdf1" data-color="1"/>
        <path d="m226.16 33.25.57-2.12h.91l-.78 2.12h-.69Z" fill="#fffdf1" data-color="1"/>
        <path d="M89.88 44.21c-.5 0-.94-.11-1.32-.34-.38-.22-.68-.53-.89-.93s-.32-.85-.32-1.37.11-.97.32-1.37.51-.71.89-.93.82-.34 1.31-.34.92.11 1.3.33.67.53.88.94l-.73.33c-.13-.27-.33-.48-.58-.63s-.55-.23-.88-.23-.62.08-.87.24-.45.38-.59.67-.22.61-.22.98.07.7.22.98c.14.29.35.51.6.67.26.16.55.24.88.24s.62-.08.88-.25.45-.4.59-.7l.73.33c-.2.43-.49.76-.88 1.01-.38.24-.82.36-1.31.36Z" fill="#fffdf1" data-color="1"/>
        <path d="M95.31 44.21c-.5 0-.93-.11-1.31-.34s-.68-.53-.89-.93-.32-.85-.32-1.37.11-.97.32-1.37.51-.71.88-.93.81-.34 1.3-.34.92.11 1.3.34.67.53.88.93.32.85.32 1.37-.11.97-.32 1.37-.5.71-.88.93-.8.34-1.29.34Zm-.01-.74q.495 0 .87-.24c.25-.16.45-.38.59-.67.14-.28.22-.61.22-.98s-.07-.7-.22-.98c-.14-.28-.34-.51-.6-.67s-.55-.24-.89-.24-.62.08-.87.24-.45.38-.59.66q-.21.42-.21.99c0 .57.07.7.21.98.14.29.35.51.6.67.26.16.55.24.88.24Z" fill="#fffdf1" data-color="1"/>
        <path d="M98.91 44.09v-5.03h.75l.05.93v4.1zm3.53-2.57c0-.5-.06-.87-.17-1.14-.11-.26-.27-.44-.47-.54s-.43-.15-.68-.15c-.44 0-.79.16-1.03.47s-.37.75-.37 1.32h-.39c0-.53.08-.99.23-1.37s.38-.67.67-.88c.29-.2.65-.3 1.07-.3s.74.08 1.03.24.52.41.68.75c.17.34.24.79.24 1.35v.24h-.8Zm0 2.57v-2.57h.8v2.57z" fill="#fffdf1" data-color="1"/>
        <path d="M104 39.78v-.71h3.19v.71zm2.41 4.43c-.49 0-.87-.13-1.14-.38s-.4-.61-.4-1.08v-5.26h.8v5.18c0 .25.07.45.21.59s.33.21.58.21c.08 0 .16-.01.24-.04.08-.02.18-.08.31-.18l.31.65c-.17.11-.33.19-.47.24-.14.04-.28.07-.43.07Z" fill="#fffdf1" data-color="1"/>
        <path d="M108.32 44.09v-5.03h.8v5.03zm.44-2.72c0-.54.1-.98.31-1.32s.47-.59.8-.75.67-.25 1.03-.25v.75c-.3 0-.58.05-.85.15s-.49.26-.67.48c-.17.22-.26.52-.26.9z" fill="#fffdf1" data-color="1"/>
        <path d="M112.18 37.9c-.13 0-.25-.05-.35-.15s-.15-.22-.15-.35.05-.26.15-.36.22-.15.35-.15q.21 0 .36.15t.15.36c0 .21-.05.25-.15.35q-.15.15-.36.15m-.41 6.19v-5.03h.8v5.03z" fill="#fffdf1" data-color="1"/>
        <path d="M114.05 44.09v-7.04h.8v6.1l-.04.94zm2.5.12q-.63 0-1.11-.33c-.32-.22-.56-.53-.74-.93-.17-.4-.26-.86-.26-1.37s.09-.98.26-1.38.42-.7.74-.92.69-.33 1.11-.33c.45 0 .85.11 1.19.33s.61.53.8.92c.19.4.29.85.29 1.38s-.1.97-.29 1.37-.46.71-.8.93-.74.33-1.19.33m-.18-.73c.32 0 .59-.08.84-.24s.44-.38.58-.67.22-.62.22-.99-.07-.7-.21-.99-.33-.51-.57-.67c-.25-.16-.53-.24-.85-.24-.29 0-.56.08-.79.24s-.41.38-.54.67-.2.62-.2.99.07.7.2.99.31.51.54.67q.345.24.78.24" fill="#fffdf1" data-color="1"/>
        <path d="M119.81 41.64v-2.57h.8v2.57zm.81 0c0 .5.06.87.17 1.14q.165.39.48.54c.315.15.43.15.69.15.44 0 .78-.16 1.02-.47s.37-.75.37-1.32h.39c0 .53-.08.99-.23 1.37s-.38.67-.67.88c-.29.2-.65.3-1.07.3-.39 0-.73-.08-1.03-.24-.29-.16-.52-.41-.68-.75-.16-.35-.24-.79-.24-1.34v-.24h.8Zm2.77 2.45-.05-.93v-4.1h.8v5.03z" fill="#fffdf1" data-color="1"/>
        <path d="M127.76 44.21c-.49 0-.92-.11-1.3-.34-.38-.22-.67-.53-.88-.93s-.32-.85-.32-1.37.11-.97.32-1.37.5-.71.88-.93c.37-.22.8-.34 1.28-.34s.88.12 1.22.35.61.55.79.97c.19.42.28.91.28 1.47h-4.15l.2-.17c0 .4.07.75.22 1.04.14.29.35.51.61.66s.56.23.9.23c.35 0 .65-.08.9-.25s.43-.39.57-.66l.69.35c-.13.26-.3.49-.51.68s-.46.35-.75.45c-.28.11-.6.16-.95.16m-1.63-2.99-.21-.16h3.47l-.21.17c0-.32-.06-.6-.19-.83a1.4 1.4 0 0 0-.51-.54c-.21-.13-.46-.19-.74-.19s-.53.06-.78.19-.44.31-.59.54-.23.51-.23.83Z" fill="#fffdf1" data-color="1"/>
        <path d="M131.05 44.09v-5.03h.75l.04.7c.15-.27.35-.47.59-.61s.52-.21.85-.21c.4 0 .75.09 1.03.28s.49.47.62.85c.14-.37.35-.65.62-.84s.59-.29.97-.29c.56 0 1.01.19 1.33.56.33.38.48.95.48 1.71v2.88h-.8v-2.57c0-.5-.05-.87-.16-1.14q-.15-.39-.42-.54c-.27-.15-.38-.15-.6-.15-.4 0-.7.16-.92.47q-.33.465-.33 1.32v2.6h-.8v-2.57c0-.5-.05-.87-.16-1.14-.1-.26-.25-.44-.42-.54s-.38-.15-.61-.15c-.39 0-.69.16-.92.47q-.33.465-.33 1.32v2.6h-.8Z" fill="#fffdf1" data-color="1"/>
        <path d="M142.14 46.1v-7.04h.75l.05.93v6.11zm2.5-1.89q-.63 0-1.11-.33c-.32-.22-.56-.53-.74-.93-.17-.4-.26-.86-.26-1.37s.09-.98.26-1.38.42-.7.74-.92.69-.33 1.11-.33c.45 0 .84.11 1.19.33.34.22.61.53.8.92.19.4.29.85.29 1.38s-.1.97-.29 1.37-.46.71-.8.93-.74.33-1.19.33m-.18-.73q.48 0 .84-.24c.25-.16.44-.38.58-.67s.22-.62.22-.99-.07-.7-.21-.99-.33-.51-.57-.67c-.25-.16-.53-.24-.85-.24-.29 0-.56.08-.79.24s-.41.38-.54.67-.2.62-.2.99.06.7.2.99c.13.29.31.51.54.67q.345.24.78.24" fill="#fffdf1" data-color="1"/>
        <path d="M149.62 44.21c-.59 0-1.05-.14-1.38-.41s-.5-.65-.5-1.13q0-.765.51-1.17c.34-.27.81-.41 1.42-.41h1.44v.67h-1.26c-.47 0-.8.08-1 .23s-.3.38-.3.66c0 .26.1.47.29.62.2.15.47.23.81.23.29 0 .54-.06.75-.19.21-.12.38-.3.5-.53s.18-.5.18-.82h.34c0 .68-.15 1.23-.46 1.63-.31.41-.76.61-1.35.61Zm1.51-.12-.04-.82v-1.83c0-.4-.04-.72-.13-.98s-.22-.45-.41-.59c-.19-.13-.43-.2-.73-.2-.27 0-.51.06-.71.17s-.36.29-.49.53l-.72-.28c.13-.23.28-.44.46-.61q.27-.255.63-.39c.24-.09.52-.14.83-.14.47 0 .86.09 1.16.28.31.18.54.46.69.81.15.36.23.8.22 1.33v2.73h-.75Z" fill="#fffdf1" data-color="1"/>
        <path d="M153.16 44.09v-5.03h.8v5.03zm.44-2.72c0-.54.1-.98.31-1.32s.47-.59.8-.75c.32-.16.67-.25 1.03-.25v.75c-.3 0-.58.05-.85.15s-.49.26-.67.48c-.17.22-.26.52-.26.9z" fill="#fffdf1" data-color="1"/>
        <path d="M158.15 44.21c-.59 0-1.05-.14-1.38-.41s-.5-.65-.5-1.13q0-.765.51-1.17c.34-.27.81-.41 1.42-.41h1.44v.67h-1.26c-.47 0-.8.08-1 .23s-.3.38-.3.66c0 .26.1.47.29.62s.47.23.81.23c.29 0 .54-.06.75-.19.21-.12.38-.3.5-.53s.18-.5.18-.82h.34c0 .68-.15 1.23-.46 1.63-.31.41-.76.61-1.35.61Zm1.51-.12-.04-.82v-1.83c0-.4-.04-.72-.13-.98s-.22-.45-.41-.59c-.19-.13-.43-.2-.73-.2-.28 0-.51.06-.71.17s-.36.29-.49.53l-.72-.28c.13-.23.28-.44.46-.61q.27-.255.63-.39c.36-.135.52-.14.83-.14.47 0 .86.09 1.16.28.31.18.53.46.69.81.15.36.23.8.22 1.33v2.73h-.75Z" fill="#fffdf1" data-color="1"/>
        <path d="M165.76 44.21c-.59 0-1.05-.14-1.38-.41s-.5-.65-.5-1.13q0-.765.51-1.17c.34-.27.81-.41 1.42-.41h1.44v.67h-1.26c-.47 0-.8.08-1 .23s-.3.38-.3.66c0 .26.1.47.29.62.2.15.47.23.81.23.29 0 .54-.06.75-.19.21-.12.38-.3.5-.53s.18-.5.18-.82h.34c0 .68-.15 1.23-.46 1.63-.31.41-.76.61-1.35.61Zm1.51-.12-.04-.82v-1.83c0-.4-.04-.72-.13-.98s-.22-.45-.41-.59c-.19-.13-.43-.2-.73-.2-.27 0-.51.06-.71.17s-.36.29-.49.53l-.72-.28c.13-.23.28-.44.46-.61q.27-.255.63-.39c.24-.09.52-.14.83-.14.47 0 .86.09 1.16.28.31.18.54.46.69.81.15.36.23.8.22 1.33v2.73h-.75Z" fill="#fffdf1" data-color="1"/>
        <path d="M171.79 44.09v-5.03h.75l.04.7c.15-.27.35-.47.59-.61q.36-.21.84-.21c.4 0 .75.09 1.03.28s.49.47.62.85c.14-.37.35-.65.62-.84s.6-.29.97-.29c.56 0 1.01.19 1.33.56.33.38.48.95.48 1.71v2.88h-.8v-2.57c0-.5-.05-.87-.16-1.14q-.15-.39-.42-.54c-.17-.1-.38-.15-.6-.15-.4 0-.7.16-.92.47q-.33.465-.33 1.32v2.6h-.8v-2.57c0-.5-.05-.87-.16-1.14q-.15-.39-.42-.54c-.27-.15-.38-.15-.61-.15-.39 0-.69.16-.91.47q-.33.465-.33 1.32v2.6h-.8Z" fill="#fffdf1" data-color="1"/>
        <path d="M181.93 44.21c-.59 0-1.05-.14-1.38-.41s-.5-.65-.5-1.13q0-.765.51-1.17c.34-.27.81-.41 1.42-.41h1.44v.67h-1.26c-.47 0-.8.08-1 .23s-.3.38-.3.66c0 .26.1.47.29.62s.46.23.81.23c.29 0 .54-.06.75-.19.21-.12.38-.3.5-.53s.18-.5.18-.82h.34c0 .68-.15 1.23-.46 1.63-.31.41-.76.61-1.35.61Zm1.51-.12-.04-.82v-1.83c0-.4-.04-.72-.13-.98s-.22-.45-.41-.59-.43-.2-.73-.2c-.28 0-.51.06-.71.17s-.36.29-.49.53l-.72-.28c.13-.23.28-.44.46-.61s.39-.3.63-.39.52-.14.82-.14c.47 0 .86.09 1.16.28.3.18.53.46.69.81.15.36.23.8.22 1.33v2.73h-.75Z" fill="#fffdf1" data-color="1"/>
        <path d="M185.47 44.09v-5.03h.75l.05.93v4.1zm3.53-2.57c0-.5-.06-.87-.17-1.14-.11-.26-.27-.44-.47-.54s-.43-.15-.68-.15c-.44 0-.79.16-1.03.47-.25.31-.37.75-.37 1.32h-.39c0-.53.08-.99.23-1.37s.38-.67.67-.88.65-.3 1.07-.3.74.08 1.03.24.52.41.68.75q.24.51.24 1.35v.24h-.8Zm0 2.57v-2.57h.8v2.57z" fill="#fffdf1" data-color="1"/>
        <path d="M190.95 41.64v-2.57h.8v2.57zm.81 0c0 .5.06.87.17 1.14q.165.39.48.54.3.15.69.15c.44 0 .78-.16 1.02-.47s.37-.75.37-1.32h.39c0 .53-.08.99-.23 1.37s-.38.67-.67.88-.65.3-1.07.3c-.39 0-.73-.08-1.03-.24s-.52-.41-.68-.75c-.16-.35-.24-.79-.24-1.34v-.24h.8Zm2.77 2.45-.05-.93v-4.1h.8v5.03z" fill="#fffdf1" data-color="1"/>
        <path d="M196.17 39.78v-.71h3.19v.71zm2.42 4.43c-.49 0-.87-.13-1.14-.38s-.4-.61-.4-1.08v-5.26h.8v5.18c0 .25.07.45.21.59s.33.21.58.21c.08 0 .16-.01.24-.04s.18-.08.31-.18l.31.65c-.17.11-.33.19-.47.24s-.29.07-.43.07Z" fill="#fffdf1" data-color="1"/>
        <path d="M202.67 44.21c-.49 0-.92-.11-1.3-.34-.38-.22-.67-.53-.88-.93s-.32-.85-.32-1.37.11-.97.32-1.37.5-.71.88-.93c.37-.22.8-.34 1.28-.34s.88.12 1.22.35.61.55.79.97c.19.42.28.91.28 1.47h-4.15l.2-.17c0 .4.07.75.22 1.04.14.29.35.51.61.66s.56.23.9.23c.35 0 .65-.08.9-.25s.43-.39.57-.66l.69.35c-.13.26-.3.49-.51.68s-.46.35-.75.45c-.28.11-.6.16-.95.16m-1.63-2.99-.21-.16h3.47l-.21.17c0-.32-.06-.6-.19-.83a1.4 1.4 0 0 0-.51-.54c-.21-.13-.46-.19-.74-.19s-.53.06-.78.19-.44.31-.59.54-.23.51-.23.83Z" fill="#fffdf1" data-color="1"/>
        <path d="M205.96 44.09v-5.03h.75l.05.93v4.1zm3.53-2.57c0-.5-.06-.87-.17-1.14-.11-.26-.27-.44-.47-.54s-.43-.15-.68-.15c-.44 0-.79.16-1.03.47-.25.31-.37.75-.37 1.32h-.39c0-.53.08-.99.23-1.37s.38-.67.67-.88.65-.3 1.07-.3.74.08 1.03.24.52.41.68.75q.24.51.24 1.35v.24h-.8Zm0 2.57v-2.57h.8v2.57z" fill="#fffdf1" data-color="1"/>
        <path d="M213.81 44.21c-.5 0-.94-.11-1.32-.34s-.68-.53-.9-.93-.32-.85-.32-1.37.11-.97.32-1.37.51-.71.89-.93.82-.34 1.31-.34.92.11 1.3.33.67.53.88.94l-.73.33c-.13-.27-.33-.48-.58-.63s-.55-.23-.88-.23-.62.08-.87.24-.45.38-.59.67-.22.61-.22.98.07.7.22.98c.14.29.35.51.6.67.26.16.55.24.88.24a1.56 1.56 0 0 0 1.47-.95l.73.33c-.2.43-.49.76-.88 1.01-.38.24-.82.36-1.31.36Zm-.31 1.99c-.13 0-.27-.02-.42-.05s-.34-.11-.54-.22l.2-.48c.1.05.21.09.33.14s.22.07.32.07c.12 0 .23-.02.33-.07s.15-.14.15-.29c0-.17-.06-.29-.19-.38-.12-.08-.32-.15-.58-.19l.3-.7.53.12-.11.26c.25.09.42.21.53.37.1.16.16.32.16.5q0 .39-.24.66c-.24.27-.41.27-.76.27Z" fill="#fffdf1" data-color="1"/>
        <path d="M218.6 44.21c-.59 0-1.05-.14-1.38-.41s-.5-.65-.5-1.13q0-.765.51-1.17c.34-.27.81-.41 1.42-.41h1.44v.67h-1.26c-.47 0-.8.08-1 .23s-.3.38-.3.66c0 .26.1.47.29.62.2.15.47.23.81.23.29 0 .54-.06.75-.19.21-.12.38-.3.5-.53s.18-.5.18-.82h.34c0 .68-.15 1.23-.46 1.63-.31.41-.76.61-1.35.61Zm1.51-.12-.04-.82v-1.83c0-.4-.04-.72-.13-.98s-.22-.45-.41-.59c-.19-.13-.43-.2-.73-.2-.27 0-.51.06-.71.17s-.36.29-.49.53l-.72-.28c.13-.23.28-.44.46-.61q.27-.255.63-.39c.24-.09.52-.14.83-.14.47 0 .86.09 1.16.28.31.18.54.46.69.81.15.36.23.8.22 1.33v2.73h-.75Zm-.45-5.69c-.19 0-.35-.04-.47-.11s-.22-.16-.3-.25-.15-.18-.22-.25-.14-.11-.23-.11c-.11 0-.19.03-.25.09s-.1.16-.13.3h-.65c.02-.18.07-.35.16-.51.08-.16.2-.28.35-.38.15-.09.32-.14.52-.14s.34.04.45.11.21.16.29.25.16.18.23.25.16.11.26.11c.11 0 .2-.03.25-.1s.09-.16.11-.28h.64c-.03.27-.13.51-.3.71-.17.21-.4.31-.7.31Z" fill="#fffdf1" data-color="1"/>
        <path d="M224.36 44.21c-.5 0-.93-.11-1.31-.34s-.68-.53-.89-.93-.32-.85-.32-1.37.11-.97.32-1.37.51-.71.88-.93.81-.34 1.3-.34.92.11 1.3.34.67.53.88.93.32.85.32 1.37-.11.97-.32 1.37-.5.71-.88.93-.8.34-1.29.34Zm-.01-.74q.495 0 .87-.24c.25-.16.45-.38.59-.67.14-.28.22-.61.22-.98s-.07-.7-.22-.98c-.14-.28-.34-.51-.6-.67s-.55-.24-.89-.24-.62.08-.87.24-.45.38-.59.66q-.21.42-.21.99c0 .57.07.7.21.98.14.29.35.51.6.67.26.16.55.24.88.24Z" fill="#fffdf1" data-color="1"/>
        <path d="M89.62 56.21c-.45 0-.85-.11-1.19-.33s-.61-.53-.8-.93-.29-.86-.29-1.37.1-.98.29-1.38.46-.7.8-.92.74-.33 1.19-.33q.63 0 1.11.33c.48.33.56.53.74.92.17.4.26.85.26 1.38s-.09.97-.26 1.37-.42.71-.74.93q-.48.33-1.11.33m.18-.73c.29 0 .56-.08.78-.24.23-.16.41-.39.54-.67.13-.29.2-.62.2-.99s-.07-.7-.2-.99-.31-.51-.54-.67-.49-.24-.79-.24-.59.08-.84.24c-.24.16-.44.39-.58.67q-.21.435-.21.99c0 .555.07.7.21.99s.34.51.58.67q.375.24.84.24Zm1.55.61-.04-.94v-6.1h.8v7.04z" fill="#fffdf1" data-color="1"/>
        <path d="M95.12 56.21c-.59 0-1.05-.14-1.38-.41s-.5-.65-.5-1.13q0-.765.51-1.17c.34-.27.81-.41 1.42-.41h1.44v.67h-1.26c-.47 0-.8.08-1 .23s-.3.38-.3.66c0 .26.1.47.29.62s.46.23.81.23c.29 0 .54-.06.75-.19.21-.12.38-.3.5-.53s.18-.5.18-.82h.34c0 .68-.15 1.23-.46 1.63-.31.41-.76.61-1.35.61Zm1.5-.12-.04-.82v-1.83c0-.4-.04-.72-.13-.98s-.22-.45-.41-.59-.43-.2-.73-.2c-.28 0-.51.06-.71.17s-.36.29-.49.53l-.72-.28c.13-.23.28-.44.46-.61s.39-.3.63-.39.52-.14.82-.14c.47 0 .86.09 1.16.28.3.18.53.46.69.81.15.36.23.8.22 1.33v2.73h-.75Z" fill="#fffdf1" data-color="1"/>
        <path d="M100.72 51.76v-.69h3.19v.69zm.92 4.33v-5.6c0-.52.12-.92.37-1.18.24-.26.62-.4 1.12-.4.13 0 .29.02.45.07.17.05.35.11.53.2l-.3.63c-.15-.06-.29-.11-.39-.14s-.2-.05-.27-.05c-.23 0-.41.08-.53.23s-.18.38-.18.7v5.54z" fill="#fffdf1" data-color="1"/>
        <path d="M104.72 53.64v-2.57h.8v2.57zm.8 0c0 .5.06.87.17 1.14q.165.39.48.54c.315.15.43.15.69.15.44 0 .78-.16 1.02-.47s.37-.75.37-1.32h.39c0 .53-.08.99-.23 1.37s-.38.67-.67.88c-.29.2-.65.3-1.07.3-.39 0-.73-.08-1.03-.24-.29-.16-.52-.41-.68-.75-.16-.35-.24-.79-.24-1.34v-.24h.8Zm2.78 2.45-.05-.93v-4.1h.8v5.03z" fill="#fffdf1" data-color="1"/>
        <path d="M110.46 56.09v-5.03h.75l.05.93v4.1zm3.53-2.57c0-.5-.06-.87-.17-1.14-.11-.26-.27-.44-.47-.54s-.43-.15-.68-.15c-.44 0-.79.16-1.03.47s-.37.75-.37 1.32h-.39c0-.53.08-.99.23-1.37s.38-.67.67-.88.65-.3 1.07-.3c.39 0 .74.08 1.03.24s.52.41.68.75c.17.34.24.79.24 1.35v.24h-.8Zm0 2.57v-2.57h.8v2.57z" fill="#fffdf1" data-color="1"/>
        <path d="M118.32 56.21c-.5 0-.94-.11-1.32-.34-.38-.22-.68-.53-.89-.93s-.32-.85-.32-1.37.11-.97.32-1.37.51-.71.89-.93.82-.34 1.31-.34.92.11 1.3.33.67.53.88.94l-.73.33c-.13-.27-.33-.48-.58-.63s-.55-.23-.88-.23-.62.08-.87.24-.45.38-.59.67-.22.61-.22.98.07.7.22.98c.14.29.35.51.6.67.26.16.55.24.88.24s.62-.08.88-.25.45-.4.59-.7l.73.33c-.2.43-.49.76-.88 1.01-.38.24-.82.36-1.31.36ZM118 58.2c-.13 0-.27-.02-.42-.05s-.34-.11-.54-.22l.2-.48c.1.05.21.09.33.14s.22.07.32.07c.12 0 .23-.02.33-.07s.15-.14.15-.29c0-.17-.06-.29-.19-.38s-.32-.15-.58-.19l.3-.7.53.12-.11.26c.25.09.42.21.53.37.1.16.16.32.16.5q0 .39-.24.66c-.16.18-.41.27-.76.27Z" fill="#fffdf1" data-color="1"/>
        <path d="M123.1 56.21c-.59 0-1.05-.14-1.38-.41s-.5-.65-.5-1.13q0-.765.51-1.17c.34-.27.81-.41 1.42-.41h1.44v.67h-1.26c-.47 0-.8.08-1 .23s-.3.38-.3.66c0 .26.1.47.29.62s.47.23.81.23c.29 0 .54-.06.75-.19.21-.12.38-.3.5-.53s.18-.5.18-.82h.34c0 .68-.15 1.23-.46 1.63-.31.41-.76.61-1.35.61Zm1.51-.12-.04-.82v-1.83c0-.4-.04-.72-.13-.98s-.22-.45-.41-.59-.43-.2-.73-.2c-.27 0-.51.06-.71.17s-.36.29-.49.53l-.72-.28c.13-.23.28-.44.46-.61q.27-.255.63-.39c.24-.09.52-.14.82-.14.47 0 .86.09 1.16.28.3.18.54.46.69.81.15.36.23.8.22 1.33v2.73h-.75Zm-.44-5.69c-.19 0-.35-.04-.47-.11s-.22-.16-.3-.25-.15-.18-.21-.25c-.07-.07-.14-.11-.23-.11-.11 0-.19.03-.25.09s-.1.16-.14.3h-.65c.02-.18.07-.35.16-.51.08-.16.2-.28.35-.38.15-.09.32-.14.52-.14s.34.04.45.11.21.16.29.25.16.18.23.25.16.11.26.11c.11 0 .2-.03.25-.1s.09-.16.11-.28h.64c-.03.27-.13.51-.3.71-.17.21-.4.31-.71.31" fill="#fffdf1" data-color="1"/>
        <path d="M128.87 56.21c-.5 0-.93-.11-1.31-.34s-.68-.53-.89-.93-.32-.85-.32-1.37.11-.97.32-1.37.51-.71.89-.93.81-.34 1.3-.34.92.11 1.3.34.67.53.88.93.32.85.32 1.37-.11.97-.32 1.37-.5.71-.88.93-.8.34-1.29.34m-.02-.74q.495 0 .87-.24c.25-.16.45-.38.59-.67.14-.28.22-.61.22-.98s-.07-.7-.22-.98c-.14-.28-.34-.51-.6-.67-.25-.16-.55-.24-.89-.24s-.62.08-.87.24-.45.38-.59.66-.22.61-.22.99.07.7.22.98c.14.29.35.51.6.67.26.16.55.24.88.24Z" fill="#fffdf1" data-color="1"/>
        <path d="M137.19 56.21c-.5 0-.94-.11-1.32-.34s-.68-.53-.9-.93-.32-.85-.32-1.37.11-.97.32-1.37.51-.71.89-.93.82-.34 1.31-.34.92.11 1.3.33.67.53.88.94l-.73.33c-.13-.27-.33-.48-.58-.63s-.55-.23-.88-.23-.62.08-.87.24-.45.38-.59.67-.22.61-.22.98.07.7.22.98c.14.29.35.51.6.67.26.16.55.24.88.24a1.56 1.56 0 0 0 1.47-.95l.73.33c-.2.43-.49.76-.88 1.01-.38.24-.82.36-1.31.36Z" fill="#fffdf1" data-color="1"/>
        <path d="M141.98 56.21c-.59 0-1.05-.14-1.38-.41s-.5-.65-.5-1.13q0-.765.51-1.17c.34-.27.81-.41 1.42-.41h1.44v.67h-1.26c-.47 0-.8.08-1 .23s-.3.38-.3.66c0 .26.1.47.29.62.2.15.47.23.81.23.29 0 .54-.06.75-.19.21-.12.38-.3.5-.53s.18-.5.18-.82h.34c0 .68-.15 1.23-.46 1.63-.31.41-.76.61-1.35.61Zm1.51-.12-.04-.82v-1.83c0-.4-.04-.72-.13-.98s-.22-.45-.41-.59c-.19-.13-.43-.2-.73-.2-.27 0-.51.06-.71.17s-.36.29-.49.53l-.72-.28c.13-.23.28-.44.46-.61q.27-.255.63-.39c.24-.09.52-.14.83-.14.47 0 .86.09 1.16.28.31.18.54.46.69.81.15.36.23.8.22 1.33v2.73h-.75Z" fill="#fffdf1" data-color="1"/>
        <path d="M145.52 56.09v-5.03h.8v5.03zm.44-2.72c0-.54.1-.98.31-1.32s.47-.59.8-.75c.32-.16.67-.25 1.03-.25v.75c-.3 0-.58.05-.85.15s-.49.26-.67.48c-.17.22-.26.52-.26.9z" fill="#fffdf1" data-color="1"/>
        <path d="M150.9 56.21c-.45 0-.85-.11-1.19-.33s-.61-.53-.8-.93-.29-.86-.29-1.37.1-.98.29-1.38.46-.7.8-.92.74-.33 1.19-.33q.63 0 1.11.33c.48.33.56.53.74.92.17.4.26.85.26 1.38s-.09.97-.26 1.37-.42.71-.74.93q-.48.33-1.11.33m.18-.73c.29 0 .56-.08.78-.24.23-.16.41-.39.54-.67.13-.29.2-.62.2-.99s-.07-.7-.2-.99-.31-.51-.54-.67-.49-.24-.79-.24-.59.08-.84.24c-.24.16-.44.39-.58.67q-.21.435-.21.99c0 .555.07.7.21.99s.34.51.58.67q.375.24.84.24Zm1.56.61-.04-.94v-6.1h.8v7.04z" fill="#fffdf1" data-color="1"/>
        <path d="m154.59 50.35 1.18-1.3h1.04l-1.3 1.3zm.27 5.74v-5.03h.8v5.03z" fill="#fffdf1" data-color="1"/>
        <path d="M158.73 56.21c-.59 0-1.05-.14-1.38-.41s-.5-.65-.5-1.13q0-.765.51-1.17c.34-.27.81-.41 1.42-.41h1.44v.67h-1.26c-.47 0-.8.08-1 .23s-.3.38-.3.66c0 .26.1.47.29.62.2.15.47.23.81.23.29 0 .54-.06.75-.19.21-.12.38-.3.5-.53s.18-.5.18-.82h.34c0 .68-.15 1.23-.46 1.63-.31.41-.76.61-1.35.61Zm1.51-.12-.04-.82v-1.83c0-.4-.04-.72-.13-.98s-.22-.45-.41-.59c-.19-.13-.43-.2-.73-.2-.27 0-.51.06-.71.17s-.36.29-.49.53l-.72-.28c.13-.23.28-.44.46-.61q.27-.255.63-.39c.24-.09.52-.14.83-.14.47 0 .86.09 1.16.28.31.18.54.46.69.81.15.36.23.8.22 1.33v2.73h-.75Z" fill="#fffdf1" data-color="1"/>
        <path d="M164.51 56.21c-.5 0-.94-.11-1.32-.34a2.37 2.37 0 0 1-.9-.93c-.21-.4-.32-.85-.32-1.37s.11-.97.32-1.37.51-.71.89-.93.82-.34 1.31-.34.92.11 1.3.33.67.53.88.94l-.73.33c-.13-.27-.33-.48-.58-.63-.26-.15-.55-.23-.88-.23s-.62.08-.87.24-.45.38-.59.67-.22.61-.22.98.07.7.22.98c.14.29.35.51.6.67.26.16.55.24.88.24s.62-.08.88-.25.45-.4.59-.7l.73.33c-.2.43-.49.76-.88 1.01-.38.24-.82.36-1.31.36Z" fill="#fffdf1" data-color="1"/>
        <path d="M169.3 56.21c-.59 0-1.05-.14-1.38-.41s-.5-.65-.5-1.13q0-.765.51-1.17c.34-.27.81-.41 1.42-.41h1.44v.67h-1.26c-.47 0-.8.08-1 .23s-.3.38-.3.66c0 .26.1.47.29.62s.46.23.81.23c.29 0 .54-.06.75-.19.21-.12.38-.3.5-.53s.18-.5.18-.82h.34c0 .68-.15 1.23-.46 1.63-.31.41-.76.61-1.35.61Zm1.51-.12-.04-.82v-1.83c0-.4-.04-.72-.13-.98s-.22-.45-.41-.59-.43-.2-.73-.2c-.28 0-.51.06-.71.17s-.36.29-.49.53l-.72-.28c.13-.23.28-.44.46-.61s.39-.3.63-.39.52-.14.82-.14c.47 0 .86.09 1.16.28.3.18.53.46.69.81.15.36.23.8.22 1.33v2.73h-.75Z" fill="#fffdf1" data-color="1"/>
        <path d="M173.18 56.23a.56.56 0 0 1-.4-.17c-.11-.11-.17-.24-.17-.39s.06-.29.17-.4a.544.544 0 0 1 .79 0c.11.11.16.24.16.4s-.05.28-.16.39-.24.17-.39.17" fill="#fffdf1" data-color="1"/>
    </g>
</svg>
