<?xml version="1.0" encoding="UTF-8"?>
<svg data-bbox="0 0 224.36 70.6" viewBox="0 0 224.36 70.6" xmlns="http://www.w3.org/2000/svg" data-type="color">
    <g>
        <path fill="#fffdf1" d="M70.6 35.3c0 19.496-15.804 35.3-35.3 35.3S0 54.796 0 35.3 15.804 0 35.3 0s35.3 15.804 35.3 35.3" data-color="1"/>
        <path d="M51.63 42.34c.91 2.03.93 4.03-.1 5.97-1.06 2-2.76 3.16-5.01 3.46-.22.03-.31.1-.38.32-1.48 4.74-7.23 6.24-10.88 2.83-.18-.16-.25-.14-.41 0-3.64 3.41-9.39 1.9-10.87-2.85-.06-.18-.12-.29-.35-.31-3.46-.41-5.96-3.37-5.8-6.86.04-.8.21-1.57.54-2.3.1-.22.08-.3-.16-.39-2.71-1.02-4.37-3.49-4.31-6.38.06-2.63 1.8-5.07 4.28-5.94.35-.12.35-.23.21-.54-1.87-4.09.89-8.83 5.37-9.25.35-.03.71-.08 1.06 0 .31.06.37-.07.42-.33.38-2.21 1.56-3.86 3.56-4.86 1.97-.99 3.98-.94 5.96.04.2.1.34.11.55 0 4.06-2.09 8.87.38 9.55 4.91.03.21.1.26.31.24 5.01-.41 8.6 4.74 6.5 9.31-.11.25-.14.35.18.46 2.62.94 4.34 3.38 4.36 6.13.02 2.76-1.69 5.23-4.29 6.22-.09.04-.19.07-.3.11v.02ZM35.88 34.9v18.27c0 .28.08.47.27.66 1.46 1.39 3.19 1.88 5.12 1.32 1.95-.57 3.15-1.91 3.61-3.89.16-.71.3-.81 1.01-.85 2-.12 3.51-1.04 4.42-2.83.89-1.76.75-3.51-.3-5.17-.21-.33-.31-.63-.06-.97.17-.24.44-.27.7-.32 3.28-.65 5.1-4.25 3.64-7.26-.81-1.67-2.15-2.73-4.01-2.88-1.5-.12-3.02-.04-4.54-.02-1.22.02-2.22 1.07-2.25 2.31-.03 1.26.92 2.35 2.14 2.46.31.03.72-.14.89.09.15.21.04.61.05.92v.23c.01.15-.05.2-.2.2-.47 0-.93 0-1.39-.11-1.9-.48-3.14-2.27-2.9-4.17.25-1.93 1.85-3.34 3.81-3.35h3.82c.22 0 .34-.06.45-.25 1.04-1.92.97-3.8-.25-5.6-1.15-1.69-3.29-2.5-5.24-2.07-.84.18-1.14-.05-1.15-.89-.05-3.7-3.88-6.14-7.26-4.64-.28.12-.38.27-.38.59v18.24zm-1.66.02V16.68c0-.32-.09-.49-.39-.62-3.4-1.49-7.16.95-7.26 4.71-.02.77-.33.99-1.09.85-2.15-.41-3.94.24-5.23 1.99s-1.36 3.65-.36 5.59c.13.24.28.33.56.33 1.3-.01 2.6-.03 3.9 0 2.24.06 3.97 2.09 3.66 4.28-.3 2.12-2.08 3.52-4.27 3.35-.16-.01-.22-.05-.22-.22v-.98c0-.18.06-.24.24-.24.3 0 .61.02.9-.04a2.397 2.397 0 0 0 1.95-2.58c-.12-1.22-1.14-2.15-2.41-2.16h-3.67c-.31 0-.64-.02-.94.03-3.79.66-5.55 5.1-3.24 8.17.83 1.11 1.95 1.76 3.31 2 .43.08.68.37.65.74-.02.22-.16.39-.27.58-1.03 1.7-1.13 3.46-.19 5.21s2.46 2.64 4.45 2.72c.58.02.77.18.89.75.43 1.97 1.57 3.34 3.5 3.95 1.94.61 3.68.17 5.18-1.2.24-.22.34-.45.34-.79V34.9v.02Z" fill="#275e29" data-color="2"/>
        <path d="M37.65 30.27c.02-.47-.02-.9.09-1.32.38-1.42 1.77-2.3 3.22-2.02 1.03.2 1.52-.07 1.89-1.06.25-.66.5-1.32.74-1.98.07-.2.13-.33.39-.2.33.17.87.16.99.45.1.25-.2.67-.32 1.01-.19.51-.37 1.01-.57 1.52-.53 1.31-1.84 2-3.21 1.7-1.03-.23-1.77.36-1.79 1.41v1.32c0 .2-.06.26-.25.25-.37-.03-.86.15-1.1-.07-.22-.2-.03-.69-.07-1.01z" fill="#275e29" data-color="2"/>
        <path d="M38.27 46.73c-.04-.17.15-.14.29-.17 2.52-.49 4.43-1.83 5.74-4.03.3-.5.3-.51.83-.25.76.37.77.37.32 1.1-1.55 2.52-3.79 4.04-6.69 4.6-.2.04-.32.03-.34-.24-.02-.31-.09-.62-.15-1.01" fill="#275e29" data-color="2"/>
        <path d="M32.44 30.29c0 .34.13.8-.03.98-.2.22-.66.03-1.01.07-.3.04-.38-.08-.37-.37.03-.44 0-.88 0-1.32-.02-.9-.8-1.55-1.67-1.31-1.26.34-2.85-.25-3.41-1.89-.24-.71-.51-1.42-.78-2.12-.08-.2-.03-.27.15-.32.36-.12.76-.42 1.05-.33.3.1.31.64.44.98.19.48.35.97.54 1.45.27.69.88 1.01 1.6.86 1.95-.41 3.5.84 3.51 2.83v.49z" fill="#275e29" data-color="2"/>
        <path d="M31.82 46.85c-.04.28-.09.61-.13.95-.03.24-.18.2-.33.17-1.66-.31-3.16-.97-4.48-2.04-1.04-.84-1.86-1.87-2.5-3.04-.11-.2-.1-.3.13-.39.27-.1.53-.23.78-.38.21-.13.28-.05.38.14 1.3 2.35 3.27 3.8 5.92 4.3.13.02.3 0 .23.29" fill="#275e29" data-color="2"/>
        <path d="M83.57 17.91c-.29 0-.58-.04-.86-.12s-.54-.19-.77-.34c-.23-.14-.42-.31-.57-.49s-.24-.38-.27-.58l1.66-.46c.05.15.15.28.28.38s.3.16.51.17c.17 0 .32-.04.45-.13s.19-.22.19-.38c0-.1-.04-.2-.11-.29a.66.66 0 0 0-.36-.2l-.94-.24c-.32-.08-.6-.21-.83-.39-.23-.17-.41-.39-.53-.64s-.18-.53-.18-.85c0-.62.21-1.1.62-1.44s.99-.52 1.73-.52q.6 0 1.05.15t.78.48c.22.22.4.51.54.86l-1.65.48c-.03-.12-.11-.24-.23-.36s-.29-.18-.5-.18-.36.04-.47.13-.17.22-.17.4c0 .11.04.2.13.28s.22.14.39.18l.95.24c.48.12.85.36 1.12.71s.41.75.41 1.2c0 .41-.09.77-.28 1.05q-.285.435-.81.66c-.35.15-.78.23-1.27.23Z" fill="#fffdf0" data-color="3"/>
        <path d="M89.35 17.91c-.56 0-1.04-.1-1.44-.31-.4-.2-.71-.5-.92-.88s-.32-.84-.32-1.36V11.5h1.67v3.86c0 .21.04.39.13.54.08.15.2.26.36.34.15.08.34.12.55.12s.4-.04.56-.12.27-.19.36-.34q.12-.225.12-.54V11.5h1.67v3.86c0 .53-.11.98-.32 1.36-.22.38-.53.67-.93.88-.41.2-.89.31-1.46.31Z" fill="#fffdf0" data-color="3"/>
        <path d="M93.06 17.8v-6.3h2.61c.47 0 .89.09 1.26.28s.65.44.86.77.31.71.31 1.14-.1.81-.31 1.15-.49.59-.86.78-.79.28-1.26.28h-.95v1.89h-1.67Zm1.67-3.42h.9c.23 0 .41-.06.55-.19s.21-.29.21-.49-.07-.36-.21-.49-.33-.19-.55-.19h-.9z" fill="#fffdf0" data-color="3"/>
        <path d="M101.75 17.91c-.66 0-1.24-.14-1.75-.42s-.9-.66-1.19-1.15-.43-1.05-.43-1.68.14-1.2.43-1.69.68-.87 1.19-1.15 1.08-.42 1.74-.42 1.24.14 1.75.42.9.66 1.19 1.15.43 1.05.43 1.69-.14 1.19-.43 1.68-.68.87-1.18 1.15-1.08.42-1.74.42Zm0-1.53c.32 0 .61-.07.86-.22s.44-.35.58-.61.21-.55.21-.89-.07-.63-.21-.9c-.14-.26-.34-.46-.58-.61s-.54-.22-.86-.22-.6.07-.85.22-.44.35-.58.61q-.21.39-.21.9c0 .51.07.63.22.89.14.26.34.46.59.61s.54.22.86.22Z" fill="#fffdf0" data-color="3"/>
        <path d="M105.86 17.8v-6.3h2.61q.705 0 1.26.27c.555.27.65.43.86.76s.31.69.31 1.11-.1.79-.31 1.12-.49.58-.86.76-.79.27-1.26.27h-.95v2h-1.67Zm1.67-3.53h.85c.15 0 .28-.03.4-.08.11-.05.2-.13.27-.22.07-.1.1-.2.1-.32q0-.27-.21-.45a.83.83 0 0 0-.55-.18h-.85v1.25Zm1.71 3.53-1.4-2.47 1.25-.94 2.06 3.41z" fill="#fffdf0" data-color="3"/>
        <path d="M113.04 17.8v-4.77h-1.78V11.5h5.22v1.53h-1.77v4.77z" fill="#fffdf0" data-color="3"/>
        <path d="M117.17 17.8v-6.3h4.22v1.53h-2.56v.87h2.07v1.49h-2.07v.88h2.62v1.53z" fill="#fffdf0" data-color="3"/>
        <path d="m124.04 17.8 2.41-6.3h1.66l-2.3 6.3h-1.76Zm1.14-1v-1.47h4.36v1.47zm1.65-5.78-1.19-1.32h1.71l1.01 1.32zm2.06 6.78-2.3-6.3h1.66l2.41 6.3h-1.76Z" fill="#fffdf0" data-color="3"/>
        <path d="M133.33 17.8v-6.3h4.31v1.53h-2.65v.92h2.07v1.53h-2.07v2.32h-1.67Z" fill="#fffdf0" data-color="3"/>
        <path d="M141 17.91c-.56 0-1.04-.1-1.44-.31-.4-.2-.71-.5-.92-.88s-.32-.84-.32-1.36V11.5h1.67v3.86c0 .21.04.39.13.54.08.15.2.26.36.34.15.08.34.12.55.12s.4-.04.56-.12.27-.19.36-.34q.12-.225.12-.54V11.5h1.67v3.86c0 .53-.11.98-.32 1.36-.22.38-.53.67-.93.88-.41.2-.89.31-1.46.31Z" fill="#fffdf0" data-color="3"/>
        <path d="M144.71 17.8v-6.3h1.75l2.46 3.46V11.5h1.67v6.3h-1.67l-2.55-3.59v3.59h-1.67Z" fill="#fffdf0" data-color="3"/>
        <path d="M154.57 17.91c-.63 0-1.19-.14-1.67-.42a3.07 3.07 0 0 1-1.14-1.15c-.28-.49-.41-1.05-.41-1.69s.14-1.2.41-1.69c.28-.49.66-.87 1.14-1.15s1.04-.42 1.67-.42c.49 0 .92.08 1.31.25s.73.4 1.01.7.5.65.65 1.04l-1.58.5c-.08-.2-.19-.37-.32-.52s-.29-.26-.46-.34q-.27-.12-.6-.12c-.29 0-.56.07-.78.22-.23.15-.41.35-.54.61s-.19.56-.19.9.07.63.2.9a1.44 1.44 0 0 0 1.34.83c.23 0 .44-.04.61-.12s.32-.19.44-.34.23-.32.32-.52l1.58.5c-.14.4-.36.75-.64 1.05s-.62.54-1.02.71-.84.25-1.32.25Zm-.49 1.78c-.14 0-.29-.03-.45-.08s-.29-.12-.42-.2l.19-.68a1.2 1.2 0 0 0 .42.12c.1 0 .18-.01.24-.04s.09-.07.09-.13c0-.08-.04-.15-.13-.19s-.21-.07-.36-.07l.27-.67h.87l-.14.29q.3.105.48.3c.11.13.17.28.17.44 0 .29-.11.51-.33.68-.22.16-.52.24-.91.24Z" fill="#fffdf0" data-color="3"/>
        <path d="m157.75 17.8 2.41-6.3h1.66l-2.3 6.3h-1.76Zm1.13-1v-1.47h4.36v1.47zm2.91-5.6c-.23 0-.4-.03-.53-.1-.12-.07-.22-.14-.28-.22s-.13-.16-.19-.23a.3.3 0 0 0-.24-.1c-.04 0-.09.02-.14.06s-.1.14-.13.29h-1c.04-.32.1-.57.2-.76s.23-.33.41-.41.38-.13.62-.13.44.03.57.1.24.14.31.23c.07.08.13.16.19.22.05.07.13.1.22.1.08 0 .14-.04.17-.1.03-.07.05-.15.06-.25h1c-.05.42-.18.74-.36.97-.19.22-.48.34-.86.34Zm.81 6.6-2.3-6.3h1.66l2.41 6.3h-1.76Z" fill="#fffdf0" data-color="3"/>
        <path d="M168.02 17.91c-.66 0-1.24-.14-1.75-.42s-.9-.66-1.19-1.15-.43-1.05-.43-1.68.14-1.2.43-1.69.68-.87 1.19-1.15 1.08-.42 1.74-.42 1.24.14 1.75.42.9.66 1.19 1.15.43 1.05.43 1.69-.14 1.19-.43 1.68-.68.87-1.18 1.15-1.08.42-1.74.42Zm0-1.53c.32 0 .61-.07.86-.22s.44-.35.58-.61.21-.55.21-.89-.07-.63-.21-.9c-.14-.26-.34-.46-.58-.61s-.54-.22-.86-.22-.6.07-.85.22-.44.35-.58.61q-.21.39-.21.9c0 .51.07.63.22.89.14.26.34.46.59.61s.54.22.86.22Z" fill="#fffdf0" data-color="3"/>
        <path d="M177.12 17.91c-.63 0-1.19-.14-1.67-.42a3.07 3.07 0 0 1-1.14-1.15c-.28-.49-.41-1.05-.41-1.69s.14-1.2.41-1.69c.28-.49.66-.87 1.14-1.15s1.04-.42 1.67-.42c.49 0 .92.08 1.31.25s.73.4 1.01.7.5.65.65 1.04l-1.58.5c-.08-.2-.19-.37-.32-.52s-.29-.26-.46-.34q-.27-.12-.6-.12c-.29 0-.56.07-.78.22-.23.15-.41.35-.54.61s-.19.56-.19.9.07.63.2.9a1.44 1.44 0 0 0 1.34.83c.23 0 .44-.04.61-.12s.32-.19.44-.34.23-.32.32-.52l1.58.5c-.14.4-.36.75-.64 1.05s-.62.54-1.02.71-.84.25-1.32.25Z" fill="#fffdf0" data-color="3"/>
        <path d="M183.83 17.91c-.66 0-1.24-.14-1.75-.42s-.9-.66-1.19-1.15-.43-1.05-.43-1.68.14-1.2.43-1.69.68-.87 1.19-1.15 1.08-.42 1.74-.42 1.24.14 1.75.42.9.66 1.19 1.15.43 1.05.43 1.69-.14 1.19-.43 1.68-.68.87-1.18 1.15-1.08.42-1.74.42Zm0-1.53c.32 0 .61-.07.86-.22s.44-.35.58-.61.21-.55.21-.89-.07-.63-.21-.9c-.14-.26-.34-.46-.58-.61s-.54-.22-.86-.22-.6.07-.85.22-.44.35-.58.61q-.21.39-.21.9c0 .51.07.63.22.89.14.26.34.46.59.61s.54.22.86.22Z" fill="#fffdf0" data-color="3"/>
        <path d="M190.94 17.91c-.65 0-1.22-.14-1.72-.42s-.89-.66-1.17-1.15-.42-1.05-.42-1.69.14-1.2.42-1.69.67-.87 1.17-1.15 1.07-.42 1.72-.42c.43 0 .8.06 1.13.18s.61.28.85.49.44.45.61.71l-1.39.82c-.08-.13-.19-.25-.32-.35q-.195-.15-.42-.24a1.2 1.2 0 0 0-.46-.08c-.31 0-.59.07-.83.22s-.43.35-.57.61q-.21.39-.21.9c0 .51.07.64.2.9s.32.47.57.62.54.22.88.22c.24 0 .45-.04.64-.13s.33-.21.44-.37.16-.34.16-.55l1.58-.3c0 .64-.12 1.17-.37 1.59s-.58.74-1.01.95-.93.32-1.49.32Zm-.12-2.37v-1.26h2.99v.93l-.95.33z" fill="#fffdf0" data-color="3"/>
        <path d="M194.48 17.8v-6.3h1.75l2.46 3.46V11.5h1.67v6.3h-1.67l-2.55-3.59v3.59h-1.67Z" fill="#fffdf0" data-color="3"/>
        <path d="M201.44 17.8v-6.3h1.67v6.3z" fill="#fffdf0" data-color="3"/>
        <path d="M205.58 17.8v-4.77h-1.78V11.5h5.22v1.53h-1.77v4.77z" fill="#fffdf0" data-color="3"/>
        <path d="M209.71 17.8v-6.3h1.67v6.3z" fill="#fffdf0" data-color="3"/>
        <path d="m214.4 17.8-2.42-6.3h1.8l2.23 6.3zm.19 0 2.21-6.3h1.8l-2.4 6.3z" fill="#fffdf0" data-color="3"/>
        <path d="m217.74 17.8 2.41-6.3h1.66l-2.3 6.3h-1.76Zm1.13-1v-1.47h4.36v1.47zm3.72 1-2.3-6.3h1.66l2.41 6.3h-1.76Z" fill="#fffdf0" data-color="3"/>
        <path d="M84.34 27.41c-.61 0-1.14-.14-1.61-.41-.47-.28-.83-.66-1.1-1.15-.26-.49-.4-1.06-.4-1.69s.13-1.21.39-1.7.62-.87 1.08-1.15 1-.41 1.6-.41 1.14.14 1.61.42c.46.28.83.66 1.08 1.15.26.49.39 1.05.39 1.69s-.13 1.2-.39 1.69-.62.88-1.08 1.15c-.46.28-.99.41-1.59.41Zm0-.69a2.17 2.17 0 0 0 1.99-1.24c.19-.38.29-.83.29-1.33s-.1-.94-.3-1.33-.47-.69-.82-.91q-.525-.33-1.2-.33c-.675 0-.85.11-1.2.33s-.62.52-.82.91-.3.83-.3 1.33.1.95.3 1.33.47.69.83.91c.35.22.76.33 1.21.33Z" fill="#fffdf0" data-color="3"/>
        <path d="M90.87 27.3V21h1.92c.59 0 1.12.13 1.57.4s.81.64 1.07 1.11.39 1.02.39 1.64-.13 1.16-.39 1.63-.61.85-1.07 1.12c-.45.27-.98.41-1.57.41h-1.92Zm.76-.7h1.15c.32 0 .61-.06.88-.18s.51-.3.72-.53.37-.49.49-.79.17-.61.17-.95-.06-.65-.17-.95c-.12-.3-.28-.56-.49-.79s-.45-.4-.72-.53a2.1 2.1 0 0 0-.88-.18h-1.15z" fill="#fffdf0" data-color="3"/>
        <path d="M97.06 27.3V21h.76v6.3zm.67-2.9v-.69h3.82v.69zm3.66 2.9V21h.76v6.3z" fill="#fffdf0" data-color="3"/>
        <path d="m103.06 27.3 2.57-6.3h.77l-2.53 6.3zm1.22-1.79v-.68h3.5v.68zm3.9 1.79-2.53-6.3h.77l2.56 6.3z" fill="#fffdf0" data-color="3"/>
        <path d="M113.9 27.41c-.44 0-.82-.1-1.16-.3s-.6-.48-.79-.83-.28-.76-.28-1.22.09-.87.28-1.22.45-.63.78-.83.72-.3 1.15-.3.78.1 1.09.31.54.5.71.87.25.81.25 1.31h-3.72l.18-.15c0 .36.06.67.19.93s.31.45.54.59.5.2.8.2c.32 0 .59-.08.81-.23s.39-.35.51-.59l.62.32c-.11.23-.27.44-.46.61s-.41.31-.67.41-.54.14-.85.14Zm-1.46-2.68-.19-.14h3.1l-.19.15c0-.29-.06-.54-.17-.75s-.27-.37-.46-.49c-.19-.11-.41-.17-.67-.17s-.48.06-.7.17-.4.27-.53.48-.2.45-.2.74Zm.84-2.57 1.05-1.16h.93l-1.16 1.16z" fill="#fffdf0" data-color="3"/>
        <path d="M121.04 27.41c-.44 0-.82-.1-1.16-.3s-.6-.48-.79-.83-.28-.76-.28-1.22.09-.87.28-1.22.45-.63.78-.83.72-.3 1.15-.3.78.1 1.09.31.54.5.71.87.25.81.25 1.31h-3.72l.18-.15c0 .36.06.67.19.93s.31.45.54.59.5.2.8.2c.32 0 .59-.08.81-.23s.39-.35.51-.59l.62.32c-.11.23-.27.44-.46.61s-.41.31-.67.41-.54.14-.85.14Zm-1.46-2.68-.19-.14h3.1l-.19.15c0-.29-.06-.54-.17-.75s-.27-.37-.46-.49c-.19-.11-.41-.17-.67-.17s-.48.06-.7.17-.4.27-.53.48-.2.45-.2.74Z" fill="#fffdf0" data-color="3"/>
        <path d="M125.56 27.41c-.33 0-.62-.05-.86-.15-.25-.1-.45-.23-.62-.39s-.28-.34-.36-.53l.63-.26c.1.2.25.37.46.5.2.13.43.19.67.19.28 0 .52-.06.71-.17s.29-.27.29-.47q0-.285-.21-.45a1.7 1.7 0 0 0-.63-.28l-.43-.12c-.41-.11-.73-.27-.95-.49-.23-.22-.34-.47-.34-.74 0-.43.14-.76.42-1s.69-.36 1.25-.36q.39 0 .72.12c.33.12.4.19.56.33s.27.31.34.5l-.63.28c-.08-.2-.21-.35-.39-.44s-.4-.13-.66-.13c-.28 0-.49.06-.65.18s-.23.28-.23.49c0 .12.06.23.19.34.13.1.32.19.57.26l.45.12c.29.07.54.18.74.32q.3.21.45.48c.1.18.15.37.15.58 0 .27-.07.5-.22.7-.14.2-.34.35-.58.45-.25.11-.53.16-.85.16Z" fill="#fffdf0" data-color="3"/>
        <path d="M129.75 27.41c-.33 0-.62-.05-.86-.15-.25-.1-.45-.23-.62-.39s-.28-.34-.36-.53l.63-.26c.1.2.25.37.46.5.2.13.43.19.67.19.28 0 .52-.06.71-.17s.29-.27.29-.47q0-.285-.21-.45a1.7 1.7 0 0 0-.63-.28l-.43-.12c-.41-.11-.73-.27-.95-.49-.23-.22-.34-.47-.34-.74 0-.43.14-.76.42-1s.69-.36 1.25-.36q.39 0 .72.12c.33.12.4.19.56.33s.27.31.34.5l-.63.28c-.08-.2-.21-.35-.39-.44s-.4-.13-.66-.13c-.28 0-.49.06-.65.18s-.23.28-.23.49c0 .12.06.23.19.34.13.1.32.19.57.26l.45.12c.29.07.54.18.74.32q.3.21.45.48c.1.18.15.37.15.58 0 .27-.07.5-.22.7-.14.2-.34.35-.58.45-.25.11-.53.16-.85.16Z" fill="#fffdf0" data-color="3"/>
        <path d="M134.34 27.41c-.44 0-.82-.1-1.16-.3s-.6-.48-.79-.83-.28-.76-.28-1.22.09-.87.28-1.22.45-.63.78-.83.72-.3 1.15-.3.78.1 1.09.31.54.5.71.87.25.81.25 1.31h-3.72l.18-.15c0 .36.06.67.19.93s.31.45.54.59.5.2.8.2c.32 0 .59-.08.81-.23s.39-.35.51-.59l.62.32c-.11.23-.27.44-.46.61s-.41.31-.67.41-.54.14-.85.14Zm-1.45-2.68-.19-.14h3.1l-.19.15c0-.29-.06-.54-.17-.75s-.27-.37-.46-.49c-.19-.11-.41-.17-.67-.17s-.48.06-.7.17-.4.27-.53.48-.2.45-.2.74Z" fill="#fffdf0" data-color="3"/>
        <path d="M137.29 27.3v-4.5h.67l.04.83v3.67h-.72Zm3.16-2.3q0-.66-.15-1.02-.15-.345-.42-.48c-.27-.135-.38-.13-.61-.13-.4 0-.7.14-.92.42s-.33.67-.33 1.18h-.35c0-.47.07-.88.21-1.22q.21-.51.6-.78c.26-.18.58-.27.95-.27s.66.07.92.21.46.36.61.67.22.71.21 1.21v.22h-.72Zm0 2.3V25h.72v2.3z" fill="#fffdf0" data-color="3"/>
        <path d="M144.32 27.41c-.44 0-.84-.1-1.18-.3s-.61-.48-.8-.83-.29-.76-.29-1.22.09-.87.28-1.22.46-.63.8-.83.73-.3 1.17-.3.82.1 1.16.3q.51.3.78.84l-.66.3c-.12-.24-.29-.43-.52-.56s-.49-.2-.78-.2-.55.07-.78.22c-.22.14-.4.34-.53.6s-.19.55-.19.88.06.62.19.88q.195.375.54.6c.23.14.49.22.79.22s.56-.08.79-.23.41-.36.53-.63l.66.3q-.27.57-.78.9c-.34.22-.73.32-1.17.32Z" fill="#fffdf0" data-color="3"/>
        <path d="M147.59 21.76c-.12 0-.22-.04-.32-.13a.44.44 0 0 1-.13-.32c0-.13.04-.23.13-.32s.2-.13.32-.13.23.04.32.13.13.19.13.32-.04.23-.13.32-.19.13-.32.13m-.37 5.54v-4.5h.72v4.5z" fill="#fffdf0" data-color="3"/>
        <path d="M150.69 27.41c-.53 0-.94-.12-1.24-.37-.3-.24-.45-.58-.45-1.01q0-.69.45-1.05c.45-.36.73-.36 1.27-.36h1.29v.6h-1.12q-.63 0-.9.21c-.27.21-.27.34-.27.59 0 .23.09.42.26.55s.42.2.73.2c.26 0 .48-.05.67-.17q.285-.165.45-.48c.1-.21.16-.45.16-.73h.31c0 .61-.14 1.1-.41 1.46-.28.36-.68.54-1.21.54Zm1.35-.11-.04-.74v-1.64c0-.35-.04-.65-.12-.88s-.2-.41-.37-.53-.39-.18-.66-.18q-.375 0-.63.15c-.18.1-.32.26-.44.47l-.65-.25c.11-.21.25-.39.41-.54s.35-.27.57-.35.46-.12.74-.12c.42 0 .77.08 1.04.25s.48.41.62.73.2.72.2 1.19v2.44z" fill="#fffdf0" data-color="3"/>
        <path d="M153.86 27.3V21h.72v6.3z" fill="#fffdf0" data-color="3"/>
        <path d="M158.1 29.1v-6.3h.67l.04.83v5.47h-.72Zm2.24-1.69q-.57 0-.99-.3c-.29-.2-.51-.47-.66-.83-.16-.36-.23-.77-.23-1.23s.08-.88.23-1.23c.16-.35.38-.63.66-.83s.62-.3.99-.3c.4 0 .76.1 1.06.3.31.2.54.47.72.83.17.35.26.77.26 1.23s-.09.87-.26 1.23-.41.63-.72.83-.66.3-1.06.3m-.16-.66c.28 0 .53-.07.75-.22.22-.14.39-.34.52-.6s.19-.55.19-.89-.06-.62-.18-.88a1.37 1.37 0 0 0-1.27-.82c-.26 0-.5.07-.71.22-.21.14-.37.34-.49.6s-.18.55-.18.89.06.62.18.88.28.46.48.6.44.22.7.22Z" fill="#fffdf0" data-color="3"/>
        <path d="M164.8 27.41c-.53 0-.94-.12-1.24-.37-.3-.24-.45-.58-.45-1.01q0-.69.45-1.05c.45-.36.73-.36 1.27-.36h1.29v.6H165q-.63 0-.9.21c-.27.21-.27.34-.27.59 0 .23.09.42.26.55s.42.2.73.2c.26 0 .48-.05.67-.17q.285-.165.45-.48c.1-.21.16-.45.16-.73h.31c0 .61-.14 1.1-.41 1.46-.28.36-.68.54-1.21.54Zm1.35-.11-.04-.74v-1.64c0-.35-.04-.65-.12-.88s-.2-.41-.37-.53-.39-.18-.66-.18q-.375 0-.63.15c-.18.1-.32.26-.44.47l-.65-.25c.11-.21.25-.39.41-.54s.35-.27.57-.35.46-.12.74-.12c.42 0 .77.08 1.04.25s.48.41.62.73.2.72.2 1.19v2.44z" fill="#fffdf0" data-color="3"/>
        <path d="M167.97 27.3v-4.5h.72v4.5zm.39-2.44c0-.49.09-.88.28-1.18s.42-.53.72-.68c.29-.15.6-.22.92-.22v.67c-.26 0-.52.04-.76.13s-.44.23-.6.43-.23.47-.23.81l-.32.04Z" fill="#fffdf0" data-color="3"/>
        <path d="M172.43 27.41c-.53 0-.94-.12-1.24-.37-.3-.24-.45-.58-.45-1.01q0-.69.45-1.05c.45-.36.73-.36 1.27-.36h1.29v.6h-1.12q-.63 0-.9.21c-.27.21-.27.34-.27.59 0 .23.09.42.26.55s.42.2.73.2c.26 0 .48-.05.67-.17q.285-.165.45-.48c.1-.21.16-.45.16-.73h.31c0 .61-.14 1.1-.41 1.46-.28.36-.68.54-1.21.54Zm1.35-.11-.04-.74v-1.64c0-.35-.04-.65-.12-.88s-.2-.41-.37-.53-.39-.18-.66-.18q-.375 0-.63.15c-.18.1-.32.26-.44.47l-.65-.25c.11-.21.25-.39.41-.54s.35-.27.57-.35.46-.12.74-.12c.42 0 .77.08 1.04.25s.48.41.62.73.2.72.2 1.19v2.44z" fill="#fffdf0" data-color="3"/>
        <path d="M179.24 27.41c-.53 0-.94-.12-1.24-.37-.3-.24-.45-.58-.45-1.01q0-.69.45-1.05c.45-.36.73-.36 1.27-.36h1.29v.6h-1.12q-.63 0-.9.21c-.27.21-.27.34-.27.59 0 .23.09.42.26.55s.42.2.73.2c.26 0 .48-.05.67-.17q.285-.165.45-.48c.1-.21.16-.45.16-.73h.31c0 .61-.14 1.1-.41 1.46-.28.36-.68.54-1.21.54Zm1.35-.11-.04-.74v-1.64c0-.35-.04-.65-.12-.88s-.2-.41-.37-.53-.39-.18-.66-.18q-.375 0-.63.15c-.18.1-.32.26-.44.47l-.65-.25c.11-.21.25-.39.41-.54s.35-.27.57-.35.46-.12.74-.12c.42 0 .77.08 1.04.25s.48.41.62.73.2.72.2 1.19v2.44z" fill="#fffdf0" data-color="3"/>
        <path d="M182.46 29.1v-6.3h.67l.04.83v5.47h-.72Zm2.24-1.69q-.57 0-.99-.3c-.29-.2-.51-.47-.66-.83-.16-.36-.23-.77-.23-1.23s.08-.88.23-1.23c.16-.35.38-.63.66-.83s.62-.3.99-.3c.4 0 .76.1 1.06.3.31.2.54.47.72.83.17.35.26.77.26 1.23s-.09.87-.26 1.23-.41.63-.72.83-.66.3-1.06.3m-.16-.66c.28 0 .53-.07.75-.22.22-.14.39-.34.52-.6s.19-.55.19-.89-.06-.62-.18-.88a1.37 1.37 0 0 0-1.27-.82c-.26 0-.5.07-.71.22-.21.14-.37.34-.49.6s-.18.55-.18.89.06.62.18.88.28.46.48.6.44.22.7.22Z" fill="#fffdf0" data-color="3"/>
        <path d="M189.73 27.41c-.44 0-.84-.1-1.17-.3s-.6-.48-.8-.83c-.19-.35-.29-.76-.29-1.22s.09-.87.28-1.22.45-.63.79-.83.73-.3 1.17-.3.83.1 1.17.3.6.48.79.83.28.76.28 1.22-.09.87-.28 1.22-.45.63-.79.83-.72.3-1.15.3m-.01-.66c.29 0 .55-.07.78-.22.22-.14.4-.34.53-.6s.19-.55.19-.88-.06-.62-.19-.88q-.195-.375-.54-.6c-.23-.14-.49-.22-.79-.22s-.55.07-.78.22c-.22.14-.4.34-.53.59s-.19.55-.19.88.06.62.19.88q.195.375.54.6c.23.14.49.22.79.22Z" fill="#fffdf0" data-color="3"/>
        <path d="M193.37 21.76c-.12 0-.22-.04-.32-.13a.44.44 0 0 1-.13-.32c0-.13.04-.23.13-.32s.2-.13.32-.13.23.04.32.13.13.19.13.32-.04.23-.13.32-.19.13-.32.13M193 27.3v-4.5h.72v4.5z" fill="#fffdf0" data-color="3"/>
        <path d="M196.46 27.41c-.53 0-.94-.12-1.24-.37-.3-.24-.45-.58-.45-1.01q0-.69.45-1.05c.45-.36.73-.36 1.27-.36h1.29v.6h-1.12q-.63 0-.9.21c-.27.21-.27.34-.27.59 0 .23.09.42.26.55s.42.2.73.2c.26 0 .48-.05.67-.17q.285-.165.45-.48c.1-.21.16-.45.16-.73h.31c0 .61-.14 1.1-.41 1.46-.28.36-.68.54-1.21.54Zm1.35-.11-.04-.74v-1.64c0-.35-.04-.65-.12-.88s-.2-.41-.37-.53-.39-.18-.66-.18q-.375 0-.63.15c-.18.1-.32.26-.44.47l-.65-.25c.11-.21.25-.39.41-.54s.35-.27.57-.35.46-.12.74-.12c.42 0 .77.08 1.04.25s.48.41.62.73.2.72.2 1.19v2.44z" fill="#fffdf0" data-color="3"/>
        <path d="M199.63 27.3v-4.5h.72v4.5zm.4-2.44c0-.49.09-.88.28-1.18s.42-.53.72-.68c.29-.15.6-.22.92-.22v.67c-.26 0-.52.04-.76.13s-.44.23-.6.43-.23.47-.23.81l-.32.04Z" fill="#fffdf0" data-color="3"/>
        <path d="M206.89 27.41c-.44 0-.84-.1-1.17-.3s-.6-.48-.8-.83c-.19-.35-.29-.76-.29-1.22s.09-.87.28-1.22.45-.63.79-.83.73-.3 1.17-.3.83.1 1.17.3.6.48.79.83.28.76.28 1.22-.09.87-.28 1.22-.45.63-.79.83-.72.3-1.15.3m-.01-.66c.29 0 .55-.07.78-.22.22-.14.4-.34.53-.6s.19-.55.19-.88-.06-.62-.19-.88q-.195-.375-.54-.6c-.23-.14-.49-.22-.79-.22s-.55.07-.78.22c-.22.14-.4.34-.53.59s-.19.55-.19.88.06.62.19.88q.195.375.54.6c.23.14.49.22.79.22Z" fill="#fffdf0" data-color="3"/>
        <path d="M82.87 36.91c-.53 0-.94-.12-1.24-.37-.3-.24-.45-.58-.45-1.01q0-.69.45-1.05c.45-.36.73-.36 1.27-.36h1.29v.6h-1.12q-.63 0-.9.21c-.27.21-.27.34-.27.59 0 .23.09.42.26.55s.42.2.73.2c.26 0 .48-.05.67-.17q.285-.165.45-.48c.1-.21.16-.45.16-.73h.31c0 .61-.14 1.1-.41 1.46-.28.36-.68.54-1.21.54Zm1.35-.11-.04-.74v-1.64c0-.35-.04-.65-.12-.88s-.2-.41-.37-.53-.39-.18-.66-.18q-.375 0-.63.15c-.18.1-.32.26-.44.47l-.65-.25c.11-.21.25-.39.41-.54s.35-.27.57-.35.46-.12.74-.12c.42 0 .77.08 1.04.25s.48.41.62.73.2.72.2 1.19v2.44z" fill="#fffdf0" data-color="3"/>
        <path d="M86.09 38.6v-6.3h.67l.04.83v5.47h-.72Zm2.24-1.69q-.57 0-.99-.3c-.29-.2-.51-.47-.66-.83-.16-.36-.23-.77-.23-1.23s.08-.88.23-1.23c.16-.35.38-.63.66-.83s.62-.3.99-.3c.4 0 .76.1 1.06.3.31.2.54.47.72.83.17.35.26.77.26 1.23s-.09.87-.26 1.23-.41.63-.72.83-.66.3-1.06.3m-.16-.66c.28 0 .53-.07.75-.22.22-.14.39-.34.52-.6s.19-.55.19-.89-.06-.62-.18-.88a1.37 1.37 0 0 0-1.27-.82c-.26 0-.5.07-.71.22-.21.14-.37.34-.49.6s-.18.55-.18.89.06.62.18.88.28.46.48.6.44.22.7.22Z" fill="#fffdf0" data-color="3"/>
        <path d="M91.36 36.8v-4.5h.72v4.5zm.4-2.44c0-.49.09-.88.28-1.18s.42-.53.72-.68c.29-.15.6-.22.92-.22v.67c-.26 0-.52.04-.76.13s-.44.23-.6.43-.23.47-.23.81l-.32.04Z" fill="#fffdf0" data-color="3"/>
        <path d="M96.37 36.91c-.44 0-.82-.1-1.16-.3s-.6-.48-.79-.83-.28-.76-.28-1.22.09-.87.28-1.22.45-.63.78-.83.72-.3 1.15-.3.78.1 1.09.31.54.5.71.87.25.81.25 1.31h-3.72l.18-.15c0 .36.06.67.19.93s.31.45.54.59.5.2.8.2c.32 0 .59-.08.81-.23s.39-.35.51-.59l.62.32c-.11.23-.27.44-.46.61s-.41.31-.67.41-.54.14-.85.14Zm-1.45-2.68-.19-.14h3.1l-.19.15c0-.29-.06-.54-.17-.75s-.27-.37-.46-.49c-.19-.11-.41-.17-.67-.17s-.48.06-.7.17-.4.27-.53.48-.2.45-.2.74Z" fill="#fffdf0" data-color="3"/>
        <path d="M99.32 36.8v-4.5h.67l.04.83v3.67h-.72Zm3.16-2.3q0-.66-.15-1.02-.15-.345-.42-.48c-.27-.135-.38-.13-.61-.13-.4 0-.7.14-.92.42s-.33.67-.33 1.18h-.35c0-.47.07-.88.21-1.22q.21-.51.6-.78c.26-.18.58-.27.95-.27s.66.07.92.21.46.36.61.67.22.71.21 1.21v.22h-.72Zm0 2.3v-2.3h.72v2.3z" fill="#fffdf0" data-color="3"/>
        <path d="M106.11 36.91c-.4 0-.76-.1-1.06-.3-.31-.2-.54-.47-.71-.83s-.26-.77-.26-1.23.08-.88.26-1.23c.17-.35.41-.63.71-.83.31-.2.66-.3 1.06-.3q.57 0 .99.3c.29.2.51.47.66.83.16.35.23.77.23 1.23s-.08.87-.23 1.23c-.16.36-.38.63-.66.83q-.435.3-.99.3m.17-.66c.26 0 .5-.07.7-.22.2-.14.37-.35.48-.6.12-.26.18-.55.18-.88s-.06-.62-.18-.88q-.18-.39-.48-.6c-.2-.14-.44-.22-.71-.22s-.53.07-.75.22c-.22.14-.39.35-.52.6s-.19.55-.19.88.06.62.19.88.3.46.52.6.47.22.76.22m1.39.55-.04-.84V30.5h.72v6.3z" fill="#fffdf0" data-color="3"/>
        <path d="M110.03 31.26c-.12 0-.22-.04-.32-.13a.44.44 0 0 1-.13-.32c0-.13.04-.23.13-.32s.2-.13.32-.13.23.04.32.13.13.19.13.32-.04.23-.13.32-.19.13-.32.13m-.37 5.54v-4.5h.72v4.5z" fill="#fffdf0" data-color="3"/>
        <path d="M111.48 36.8v-.58l2.65-3.29h-2.65v-.63h3.59v.56l-2.66 3.31h2.68v.63z" fill="#fffdf0" data-color="3"/>
        <path d="M117.54 36.91c-.53 0-.94-.12-1.24-.37-.3-.24-.45-.58-.45-1.01q0-.69.45-1.05c.45-.36.73-.36 1.27-.36h1.29v.6h-1.12q-.63 0-.9.21c-.27.21-.27.34-.27.59 0 .23.09.42.26.55s.42.2.73.2c.26 0 .48-.05.67-.17q.285-.165.45-.48c.1-.21.16-.45.16-.73h.31c0 .61-.14 1.1-.41 1.46-.28.36-.68.54-1.21.54Zm1.35-.11-.04-.74v-1.64c0-.35-.04-.65-.12-.88s-.2-.41-.37-.53-.39-.18-.66-.18q-.375 0-.63.15c-.18.1-.32.26-.44.47l-.65-.25c.11-.21.25-.39.41-.54s.35-.27.57-.35.46-.12.74-.12c.42 0 .77.08 1.04.25s.48.41.62.73.2.72.2 1.19v2.44z" fill="#fffdf0" data-color="3"/>
        <path d="M122.48 36.91c-.4 0-.76-.1-1.06-.3-.31-.2-.54-.47-.71-.83s-.26-.77-.26-1.23.08-.88.26-1.23c.17-.35.41-.63.71-.83.31-.2.66-.3 1.06-.3q.57 0 .99.3c.29.2.51.47.66.83.16.35.23.77.23 1.23s-.08.87-.23 1.23c-.16.36-.38.63-.66.83q-.435.3-.99.3m.17-.66c.26 0 .5-.07.7-.22.2-.14.37-.35.48-.6.12-.26.18-.55.18-.88s-.06-.62-.18-.88q-.18-.39-.48-.6c-.2-.14-.44-.22-.71-.22s-.53.07-.75.22c-.22.14-.39.35-.52.6s-.19.55-.19.88.06.62.19.88.3.46.52.6.47.22.76.22m1.39.55-.04-.84V30.5h.72v6.3z" fill="#fffdf0" data-color="3"/>
        <path d="M127.98 36.91c-.44 0-.84-.1-1.17-.3s-.6-.48-.8-.83c-.19-.35-.29-.76-.29-1.22s.09-.87.28-1.22.45-.63.79-.83.73-.3 1.17-.3.83.1 1.17.3.6.48.79.83.28.76.28 1.22-.09.87-.28 1.22-.45.63-.79.83-.72.3-1.15.3m-.01-.66c.29 0 .55-.07.78-.22.22-.14.4-.34.53-.6s.19-.55.19-.88-.06-.62-.19-.88q-.195-.375-.54-.6c-.23-.14-.49-.22-.79-.22s-.55.07-.78.22c-.22.14-.4.34-.53.59s-.19.55-.19.88.06.62.19.88q.195.375.54.6c.23.14.49.22.79.22Z" fill="#fffdf0" data-color="3"/>
        <path d="M135.4 36.91c-.44 0-.82-.1-1.16-.3s-.6-.48-.79-.83-.28-.76-.28-1.22.09-.87.28-1.22.45-.63.78-.83.72-.3 1.15-.3.78.1 1.09.31.54.5.71.87.25.81.25 1.31h-3.72l.18-.15c0 .36.06.67.19.93s.31.45.54.59.5.2.8.2c.32 0 .59-.08.81-.23s.39-.35.51-.59l.62.32c-.11.23-.27.44-.46.61s-.41.31-.67.41-.54.14-.85.14Zm-1.46-2.68-.19-.14h3.1l-.19.15c0-.29-.06-.54-.17-.75s-.27-.37-.46-.49c-.19-.11-.41-.17-.67-.17s-.48.06-.7.17-.4.27-.53.48-.2.45-.2.74Z" fill="#fffdf0" data-color="3"/>
        <path d="M141.99 36.91c-.53 0-.94-.12-1.24-.37-.3-.24-.45-.58-.45-1.01q0-.69.45-1.05c.45-.36.73-.36 1.27-.36h1.29v.6h-1.12q-.63 0-.9.21c-.27.21-.27.34-.27.59 0 .23.09.42.26.55s.42.2.73.2c.26 0 .48-.05.67-.17q.285-.165.45-.48c.1-.21.16-.45.16-.73h.31c0 .61-.14 1.1-.41 1.46-.28.36-.68.54-1.21.54Zm1.35-.11-.04-.74v-1.64c0-.35-.04-.65-.12-.88s-.2-.41-.37-.53-.39-.18-.66-.18q-.375 0-.63.15c-.18.1-.32.26-.44.47l-.65-.25c.11-.21.25-.39.41-.54s.35-.27.57-.35.46-.12.74-.12c.42 0 .77.08 1.04.25s.48.41.62.73.2.72.2 1.19v2.44z" fill="#fffdf0" data-color="3"/>
        <path d="M147 32.92v-.62h2.85v.62zm.83 3.88v-5.01c0-.47.11-.82.33-1.06s.55-.36 1-.36c.12 0 .25.02.41.06q.225.06.48.18l-.27.57c-.14-.05-.26-.1-.35-.13a1 1 0 0 0-.24-.04c-.21 0-.37.07-.47.2-.1.14-.16.34-.16.63v4.96h-.72Z" fill="#fffdf0" data-color="3"/>
        <path d="M150.58 34.61v-2.3h.72v2.3zm.72 0q0 .66.15 1.02c.1.23.25.39.43.48s.39.13.62.13c.39 0 .69-.14.91-.42s.33-.67.33-1.18h.35c0 .47-.07.88-.21 1.22q-.21.51-.6.78t-.96.27c-.35 0-.65-.07-.92-.21-.26-.14-.47-.37-.61-.67-.14-.31-.22-.71-.22-1.2v-.22h.72Zm2.48 2.19-.04-.83V32.3h.72v4.5h-.67Z" fill="#fffdf0" data-color="3"/>
        <path d="M155.72 36.8v-4.5h.67l.04.83v3.67h-.72Zm3.16-2.3q0-.66-.15-1.02-.15-.345-.42-.48c-.27-.135-.38-.13-.61-.13-.4 0-.7.14-.92.42s-.33.67-.33 1.18h-.35c0-.47.07-.88.21-1.22q.21-.51.6-.78c.26-.18.58-.27.95-.27s.66.07.92.21.46.36.61.67.22.71.21 1.21v.22h-.72Zm0 2.3v-2.3h.72v2.3z" fill="#fffdf0" data-color="3"/>
        <path d="M162.75 36.91c-.44 0-.84-.1-1.18-.3s-.61-.48-.8-.83-.29-.76-.29-1.22.09-.87.28-1.22.46-.63.8-.83.73-.3 1.17-.3.82.1 1.16.3q.51.3.78.84l-.66.3c-.12-.24-.29-.43-.52-.56s-.49-.2-.78-.2-.55.07-.78.22c-.22.14-.4.34-.53.6s-.19.55-.19.88.06.62.19.88q.195.375.54.6c.23.14.49.22.79.22s.56-.08.79-.23.41-.36.53-.63l.66.3q-.27.57-.78.9c-.34.22-.73.32-1.17.32Zm-.28 1.78c-.11 0-.24-.01-.38-.04s-.3-.1-.49-.2l.18-.43c.09.04.19.08.29.13.1.04.2.06.28.06.11 0 .21-.02.29-.06.09-.04.13-.13.13-.26 0-.15-.06-.26-.17-.34s-.28-.13-.52-.17l.27-.63.48.11-.1.23c.22.08.38.19.47.33s.14.29.14.45c0 .23-.07.43-.21.59s-.37.24-.68.24Z" fill="#fffdf0" data-color="3"/>
        <path d="M167.03 36.91c-.53 0-.94-.12-1.24-.37-.3-.24-.45-.58-.45-1.01q0-.69.45-1.05c.45-.36.73-.36 1.27-.36h1.29v.6h-1.12q-.63 0-.9.21c-.27.21-.27.34-.27.59 0 .23.09.42.26.55s.42.2.73.2c.26 0 .48-.05.67-.17q.285-.165.45-.48c.1-.21.16-.45.16-.73h.31c0 .61-.14 1.1-.41 1.46-.28.36-.68.54-1.21.54Zm1.35-.11-.04-.74v-1.64c0-.35-.04-.65-.12-.88s-.2-.41-.37-.53-.39-.18-.66-.18q-.375 0-.63.15c-.18.1-.32.26-.44.47l-.65-.25c.11-.21.25-.39.41-.54s.35-.27.57-.35.46-.12.74-.12c.42 0 .77.08 1.04.25s.48.41.62.73.2.72.2 1.19v2.44zm-.39-5.09a.77.77 0 0 1-.42-.1c-.11-.07-.2-.14-.27-.22s-.13-.16-.19-.22a.26.26 0 0 0-.21-.1c-.1 0-.17.03-.22.08s-.09.14-.12.26h-.58c.02-.16.06-.31.14-.45.07-.14.18-.25.31-.34.13-.08.29-.13.46-.13s.3.03.41.1c.1.07.19.14.26.22l.2.23c.06.07.14.1.23.1.1 0 .18-.03.23-.09s.08-.14.1-.25h.58c-.03.24-.12.45-.27.64s-.36.28-.63.28Z" fill="#fffdf0" data-color="3"/>
        <path d="M172.19 36.91c-.44 0-.84-.1-1.17-.3s-.6-.48-.8-.83c-.19-.35-.29-.76-.29-1.22s.09-.87.28-1.22.45-.63.79-.83.73-.3 1.17-.3.83.1 1.17.3.6.48.79.83.28.76.28 1.22-.09.87-.28 1.22-.45.63-.79.83-.72.3-1.15.3m-.01-.66c.29 0 .55-.07.78-.22.22-.14.4-.34.53-.6s.19-.55.19-.88-.06-.62-.19-.88q-.195-.375-.54-.6c-.23-.14-.49-.22-.79-.22s-.55.07-.78.22c-.22.14-.4.34-.53.59s-.19.55-.19.88.06.62.19.88q.195.375.54.6c.23.14.49.22.79.22Z" fill="#fffdf0" data-color="3"/>
        <path d="M179.64 36.91c-.44 0-.84-.1-1.18-.3s-.61-.48-.8-.83-.29-.76-.29-1.22.09-.87.28-1.22.46-.63.8-.83.73-.3 1.17-.3.82.1 1.16.3q.51.3.78.84l-.66.3c-.12-.24-.29-.43-.52-.56s-.49-.2-.78-.2-.55.07-.78.22c-.22.14-.4.34-.53.6s-.19.55-.19.88.06.62.19.88q.195.375.54.6c.23.14.49.22.79.22s.56-.08.79-.23.41-.36.53-.63l.66.3q-.27.57-.78.9c-.34.22-.73.32-1.17.32Z" fill="#fffdf0" data-color="3"/>
        <path d="M184.5 36.91c-.44 0-.84-.1-1.17-.3s-.6-.48-.8-.83c-.19-.35-.29-.76-.29-1.22s.09-.87.28-1.22.45-.63.79-.83.73-.3 1.17-.3.83.1 1.17.3.6.48.79.83.28.76.28 1.22-.09.87-.28 1.22-.45.63-.79.83-.72.3-1.15.3m-.01-.66c.29 0 .55-.07.78-.22.22-.14.4-.34.53-.6s.19-.55.19-.88-.06-.62-.19-.88q-.195-.375-.54-.6c-.23-.14-.49-.22-.79-.22s-.55.07-.78.22c-.22.14-.4.34-.53.59s-.19.55-.19.88.06.62.19.88q.195.375.54.6c.23.14.49.22.79.22Z" fill="#fffdf0" data-color="3"/>
        <path d="M189.5 36.77c-.4 0-.76-.1-1.06-.29-.31-.19-.54-.46-.71-.81-.17-.34-.26-.74-.26-1.18s.08-.86.26-1.2c.17-.34.41-.61.71-.81.31-.19.66-.29 1.06-.29.38 0 .71.1.99.29q.42.285.66.81t.24 1.2c0 .675-.08.85-.24 1.19s-.38.61-.66.8-.61.29-.99.29m.02 1.94c-.29 0-.55-.03-.79-.09s-.44-.12-.6-.19c-.17-.07-.28-.13-.36-.18l.27-.58c.08.04.19.09.33.16a3 3 0 0 0 1.13.23c.29 0 .55-.06.78-.17.23-.12.41-.3.54-.55s.19-.57.19-.96V32.3h.72v4.07c0 .52-.1.95-.29 1.3s-.46.61-.79.78c-.34.17-.72.26-1.14.26Zm.15-2.56c.26 0 .5-.07.7-.22.2-.14.36-.34.48-.59.11-.25.17-.54.17-.87s-.06-.6-.18-.85-.28-.44-.48-.58-.44-.21-.71-.21-.53.07-.75.21-.39.34-.51.58-.18.53-.18.85.06.62.19.87.3.45.52.59.47.22.75.22" fill="#fffdf0" data-color="3"/>
        <path d="M193.01 36.8v-4.5h.67l.04.83v3.67H193Zm3.16-2.3q0-.66-.15-1.02-.15-.345-.42-.48c-.27-.135-.38-.13-.61-.13-.4 0-.7.14-.92.42s-.33.67-.33 1.18h-.35c0-.47.07-.88.21-1.22q.21-.51.6-.78c.26-.18.58-.27.95-.27s.66.07.92.21.46.36.61.67.22.71.21 1.21v.22h-.72Zm0 2.3v-2.3h.72v2.3z" fill="#fffdf0" data-color="3"/>
        <path d="M198.44 31.26c-.12 0-.22-.04-.32-.13a.44.44 0 0 1-.13-.32c0-.13.04-.23.13-.32s.2-.13.32-.13.23.04.32.13.13.19.13.32-.04.23-.13.32-.19.13-.32.13m-.37 5.54v-4.5h.72v4.5z" fill="#fffdf0" data-color="3"/>
        <path d="M199.65 32.94v-.64h2.85v.64zm2.16 3.97c-.44 0-.78-.11-1.02-.34q-.36-.345-.36-.96V30.9h.72v4.64c0 .23.06.4.18.53.12.12.29.18.52.18q.105 0 .21-.03a.8.8 0 0 0 .27-.16l.28.58q-.24.15-.42.21c-.18.06-.25.06-.39.06Z" fill="#fffdf0" data-color="3"/>
        <path d="M203.93 31.26c-.12 0-.22-.04-.32-.13a.44.44 0 0 1-.13-.32c0-.13.04-.23.13-.32s.2-.13.32-.13.23.04.32.13.13.19.13.32-.04.23-.13.32-.19.13-.32.13m-.36 5.54v-4.5h.72v4.5z" fill="#fffdf0" data-color="3"/>
        <path d="m206.94 36.8-1.88-4.5h.75l1.84 4.5h-.7Zm.05 0 1.84-4.5h.76l-1.88 4.5H207Z" fill="#fffdf0" data-color="3"/>
        <path d="M211.6 36.91c-.53 0-.94-.12-1.24-.37-.3-.24-.45-.58-.45-1.01q0-.69.45-1.05c.45-.36.73-.36 1.27-.36h1.29v.6h-1.12q-.63 0-.9.21c-.27.21-.27.34-.27.59 0 .23.09.42.26.55s.42.2.73.2c.26 0 .48-.05.67-.17q.285-.165.45-.48c.1-.21.16-.45.16-.73h.31c0 .61-.14 1.1-.41 1.46-.28.36-.68.54-1.21.54Zm1.35-.11-.04-.74v-1.64c0-.35-.04-.65-.12-.88s-.2-.41-.37-.53-.39-.18-.66-.18q-.375 0-.63.15c-.18.1-.32.26-.44.47l-.65-.25c.11-.21.25-.39.41-.54s.35-.27.57-.35.46-.12.74-.12c.42 0 .77.08 1.04.25s.48.41.62.73.2.72.2 1.19v2.44z" fill="#fffdf0" data-color="3"/>
        <path d="M83.23 46.41c-.4 0-.76-.1-1.06-.3-.31-.2-.54-.47-.71-.83s-.26-.77-.26-1.23.08-.88.26-1.23c.17-.35.41-.63.71-.83.31-.2.66-.3 1.06-.3q.57 0 .99.3c.29.2.51.47.66.83.16.35.23.77.23 1.23s-.08.87-.23 1.23c-.16.36-.38.63-.66.83q-.435.3-.99.3m.16-.66c.26 0 .5-.07.7-.22.2-.14.37-.35.48-.6.12-.26.18-.55.18-.88s-.06-.62-.18-.88q-.18-.39-.48-.6c-.2-.14-.44-.22-.71-.22s-.53.07-.75.22c-.22.14-.39.35-.52.6s-.19.55-.19.88.06.62.19.88.3.46.52.6.47.22.76.22m1.39.55-.04-.84V40h.72v6.3z" fill="#fffdf0" data-color="3"/>
        <path d="M88.72 46.41c-.44 0-.84-.1-1.17-.3s-.6-.48-.8-.83c-.19-.35-.29-.76-.29-1.22s.09-.87.28-1.22.45-.63.79-.83.73-.3 1.17-.3.83.1 1.17.3.6.48.79.83.28.76.28 1.22-.09.87-.28 1.22-.45.63-.79.83-.72.3-1.15.3m0-.66c.29 0 .55-.07.78-.22.22-.14.4-.34.53-.6s.19-.55.19-.88-.06-.62-.19-.88q-.195-.375-.54-.6c-.23-.14-.49-.22-.79-.22s-.55.07-.78.22c-.22.14-.4.34-.53.59s-.19.55-.19.88.06.62.19.88q.195.375.54.6c.23.14.49.22.79.22Z" fill="#fffdf0" data-color="3"/>
        <path d="M95.74 46.41c-.33 0-.62-.05-.86-.15-.25-.1-.45-.23-.62-.39s-.28-.34-.36-.53l.63-.26c.1.2.25.37.46.5.2.13.43.19.67.19.28 0 .52-.06.71-.17s.29-.27.29-.47q0-.285-.21-.45a1.7 1.7 0 0 0-.63-.28l-.43-.12c-.41-.11-.73-.27-.95-.49-.23-.22-.34-.47-.34-.74 0-.43.14-.76.42-1s.69-.36 1.25-.36q.39 0 .72.12c.33.12.4.19.56.33s.27.31.34.5l-.63.28c-.08-.2-.21-.35-.39-.44s-.4-.13-.66-.13c-.28 0-.49.06-.65.18s-.23.28-.23.49c0 .12.06.23.19.34.13.1.32.19.57.26l.45.12c.29.07.54.18.74.32q.3.21.45.48c.1.18.15.37.15.58 0 .27-.07.5-.22.7-.14.2-.34.35-.58.45-.25.11-.53.16-.85.16Z" fill="#fffdf0" data-color="3"/>
        <path d="M100.33 46.41c-.44 0-.82-.1-1.16-.3s-.6-.48-.79-.83-.28-.76-.28-1.22.09-.87.28-1.22.45-.63.78-.83.72-.3 1.15-.3.78.1 1.09.31.54.5.71.87.25.81.25 1.31h-3.72l.18-.15c0 .36.06.67.19.93s.31.45.54.59.5.2.8.2c.32 0 .59-.08.81-.23s.39-.35.51-.59l.62.32c-.11.23-.27.44-.46.61s-.41.31-.67.41-.54.14-.85.14Zm-1.45-2.68-.19-.14h3.1l-.19.15c0-.29-.06-.54-.17-.75s-.27-.37-.46-.49c-.19-.11-.41-.17-.67-.17s-.48.06-.7.17-.4.27-.53.48-.2.45-.2.74Z" fill="#fffdf0" data-color="3"/>
        <path d="M103.16 44.11v-2.3h.72v2.3zm.72 0q0 .66.15 1.02c.1.23.25.39.43.48s.39.13.62.13c.39 0 .69-.14.91-.42s.33-.67.33-1.18h.35c0 .47-.07.88-.21 1.22q-.21.51-.6.78t-.96.27c-.35 0-.65-.07-.92-.21-.26-.14-.47-.37-.61-.67-.14-.31-.22-.71-.22-1.2v-.22h.72Zm2.48 2.19-.04-.83V41.8h.72v4.5h-.67Z" fill="#fffdf0" data-color="3"/>
        <path d="M110.14 42.42v-.62h2.85v.62zm.83 3.88v-5.01c0-.47.11-.82.33-1.06s.55-.36 1-.36c.12 0 .25.02.41.06q.225.06.48.18l-.27.57c-.14-.05-.26-.1-.35-.13a1 1 0 0 0-.24-.04c-.21 0-.37.07-.47.2-.1.14-.16.34-.16.63v4.96h-.72Z" fill="#fffdf0" data-color="3"/>
        <path d="M114.26 40.76c-.12 0-.22-.04-.32-.13a.44.44 0 0 1-.13-.32c0-.13.04-.23.13-.32s.2-.13.32-.13.23.04.32.13.13.19.13.32-.04.23-.13.32-.19.13-.32.13m-.37 5.54v-4.5h.72v4.5z" fill="#fffdf0" data-color="3"/>
        <path d="M115.93 46.3V40h.72v6.3z" fill="#fffdf0" data-color="3"/>
        <path d="M117.91 46.3V40h.72v6.3zm3.17-2.3c0-.44-.05-.78-.16-1.02-.11-.23-.25-.39-.43-.48s-.38-.13-.61-.13c-.4 0-.7.14-.92.42s-.33.67-.33 1.18h-.35c0-.47.07-.88.21-1.22s.34-.6.61-.78c.26-.18.58-.27.95-.27.35 0 .65.07.92.21.26.14.47.36.62.67s.22.71.21 1.21v.22h-.72Zm0 2.3V44h.72v2.3z" fill="#fffdf0" data-color="3"/>
        <path d="M124.93 46.41c-.44 0-.84-.1-1.17-.3s-.6-.48-.8-.83c-.19-.35-.29-.76-.29-1.22s.09-.87.28-1.22.45-.63.79-.83.73-.3 1.17-.3.83.1 1.17.3.6.48.79.83.28.76.28 1.22-.09.87-.28 1.22-.45.63-.79.83-.72.3-1.15.3m-.01-.66c.29 0 .55-.07.78-.22.22-.14.4-.34.53-.6s.19-.55.19-.88-.06-.62-.19-.88q-.195-.375-.54-.6c-.23-.14-.49-.22-.79-.22s-.55.07-.78.22c-.22.14-.4.34-.53.59s-.19.55-.19.88.06.62.19.88q.195.375.54.6c.23.14.49.22.79.22Z" fill="#fffdf0" data-color="3"/>
        <path d="M127.69 42.44v-.64h2.85v.64zm2.16 3.97c-.44 0-.78-.11-1.02-.34q-.36-.345-.36-.96V40.4h.72v4.64c0 .23.06.4.18.53.12.12.29.18.52.18q.105 0 .21-.03a.8.8 0 0 0 .27-.16l.28.58q-.24.15-.42.21c-.18.06-.25.06-.39.06Z" fill="#fffdf0" data-color="3"/>
        <path d="M133.5 46.41c-.44 0-.82-.1-1.16-.3s-.6-.48-.79-.83-.28-.76-.28-1.22.09-.87.28-1.22.45-.63.78-.83.72-.3 1.15-.3.78.1 1.09.31.54.5.71.87.25.81.25 1.31h-3.72l.18-.15c0 .36.06.67.19.93s.31.45.54.59.5.2.8.2c.32 0 .59-.08.81-.23s.39-.35.51-.59l.62.32c-.11.23-.27.44-.46.61s-.41.31-.67.41-.54.14-.85.14Zm-1.46-2.68-.19-.14h3.1l-.19.15c0-.29-.06-.54-.17-.75s-.27-.37-.46-.49c-.19-.11-.41-.17-.67-.17s-.48.06-.7.17-.4.27-.53.48-.2.45-.2.74Z" fill="#fffdf0" data-color="3"/>
        <path d="m136.17 47.34.51-1.9h.81l-.7 1.9z" fill="#fffdf0" data-color="3"/>
        <path d="M140.74 48.1v-6.3h.67l.04.83v5.47h-.72Zm2.25-1.69q-.57 0-.99-.3c-.29-.2-.51-.47-.66-.83-.16-.36-.23-.77-.23-1.23s.08-.88.23-1.23c.16-.35.38-.63.66-.83s.62-.3.99-.3c.4 0 .76.1 1.06.3.31.2.54.47.72.83.17.35.26.77.26 1.23s-.09.87-.26 1.23-.41.63-.72.83-.66.3-1.06.3m-.17-.66c.28 0 .53-.07.75-.22.22-.14.39-.34.52-.6s.19-.55.19-.89-.06-.62-.18-.88a1.37 1.37 0 0 0-1.27-.82c-.26 0-.5.07-.71.22-.21.14-.37.34-.49.6s-.18.55-.18.89.06.62.18.88.28.46.48.6.44.22.7.22Z" fill="#fffdf0" data-color="3"/>
        <path d="M146.02 46.3v-4.5h.72v4.5zm.39-2.44c0-.49.09-.88.28-1.18s.42-.53.72-.68c.29-.15.6-.22.92-.22v.67c-.26 0-.52.04-.76.13s-.44.23-.6.43-.23.47-.23.81l-.32.04Z" fill="#fffdf0" data-color="3"/>
        <path d="M151.03 46.41c-.44 0-.82-.1-1.16-.3s-.6-.48-.79-.83-.28-.76-.28-1.22.09-.87.28-1.22.45-.63.78-.83.72-.3 1.15-.3.78.1 1.09.31.54.5.71.87.25.81.25 1.31h-3.72l.18-.15c0 .36.06.67.19.93s.31.45.54.59.5.2.8.2c.32 0 .59-.08.81-.23s.39-.35.51-.59l.62.32c-.11.23-.27.44-.46.61s-.41.31-.67.41-.54.14-.85.14Zm-1.46-2.68-.19-.14h3.1l-.19.15c0-.29-.06-.54-.17-.75s-.27-.37-.46-.49c-.19-.11-.41-.17-.67-.17s-.48.06-.7.17-.4.27-.53.48-.2.45-.2.74Z" fill="#fffdf0" data-color="3"/>
        <path d="M154.02 48.1v-6.3h.67l.04.83v5.47h-.72Zm2.24-1.69q-.57 0-.99-.3c-.29-.2-.51-.47-.66-.83-.16-.36-.23-.77-.23-1.23s.08-.88.23-1.23c.16-.35.38-.63.66-.83s.62-.3.99-.3c.4 0 .76.1 1.06.3.31.2.54.47.72.83.17.35.26.77.26 1.23s-.09.87-.26 1.23-.41.63-.72.83-.66.3-1.06.3m-.16-.66c.28 0 .53-.07.75-.22.22-.14.39-.34.52-.6s.19-.55.19-.89-.06-.62-.18-.88a1.37 1.37 0 0 0-1.27-.82c-.26 0-.5.07-.71.22-.21.14-.37.34-.49.6s-.18.55-.18.89.06.62.18.88.28.46.48.6.44.22.7.22Z" fill="#fffdf0" data-color="3"/>
        <path d="M160.72 46.41c-.53 0-.94-.12-1.24-.37-.3-.24-.45-.58-.45-1.01q0-.69.45-1.05c.45-.36.73-.36 1.27-.36h1.29v.6h-1.12q-.63 0-.9.21c-.27.21-.27.34-.27.59 0 .23.09.42.26.55s.42.2.73.2c.26 0 .48-.05.67-.17q.285-.165.45-.48c.1-.21.16-.45.16-.73h.31c0 .61-.14 1.1-.41 1.46-.28.36-.68.54-1.21.54Zm1.35-.11-.04-.74v-1.64c0-.35-.04-.65-.12-.88s-.2-.41-.37-.53-.39-.18-.66-.18q-.375 0-.63.15c-.18.1-.32.26-.44.47l-.65-.25c.11-.21.25-.39.41-.54s.35-.27.57-.35.46-.12.74-.12c.42 0 .77.08 1.04.25s.48.41.62.73.2.72.2 1.19v2.44z" fill="#fffdf0" data-color="3"/>
        <path d="M163.88 46.3v-4.5h.72v4.5zm.4-2.44c0-.49.09-.88.28-1.18s.42-.53.72-.68c.29-.15.6-.22.92-.22v.67c-.26 0-.52.04-.76.13s-.44.23-.6.43-.23.47-.23.81l-.32.04Z" fill="#fffdf0" data-color="3"/>
        <path d="M168.35 46.41c-.53 0-.94-.12-1.24-.37-.3-.24-.45-.58-.45-1.01q0-.69.45-1.05c.45-.36.73-.36 1.27-.36h1.29v.6h-1.12q-.63 0-.9.21c-.27.21-.27.34-.27.59 0 .23.09.42.26.55s.42.2.73.2c.26 0 .48-.05.67-.17q.285-.165.45-.48c.1-.21.16-.45.16-.73h.31c0 .61-.14 1.1-.41 1.46-.28.36-.68.54-1.21.54Zm1.35-.11-.04-.74v-1.64c0-.35-.04-.65-.12-.88s-.2-.41-.37-.53-.39-.18-.66-.18q-.375 0-.63.15c-.18.1-.32.26-.44.47l-.65-.25c.11-.21.25-.39.41-.54s.35-.27.57-.35.46-.12.74-.12c.42 0 .77.08 1.04.25s.48.41.62.73.2.72.2 1.19v2.44z" fill="#fffdf0" data-color="3"/>
        <path d="M171.52 46.3v-4.5h.67l.04.83v3.67h-.72Zm3.15-2.3q0-.66-.15-1.02-.15-.345-.42-.48c-.27-.135-.38-.13-.61-.13-.4 0-.7.14-.92.42s-.33.67-.33 1.18h-.35c0-.47.07-.88.21-1.22q.21-.51.6-.78c.26-.18.58-.27.95-.27s.66.07.92.21.46.36.61.67.22.71.21 1.21v.22h-.72Zm0 2.3V44h.72v2.3z" fill="#fffdf0" data-color="3"/>
        <path d="M178.31 46.41c-.4 0-.76-.1-1.06-.3-.31-.2-.54-.47-.71-.83s-.26-.77-.26-1.23.08-.88.26-1.23c.17-.35.41-.63.71-.83.31-.2.66-.3 1.06-.3q.57 0 .99.3c.29.2.51.47.66.83.16.35.23.77.23 1.23s-.08.87-.23 1.23c-.16.36-.38.63-.66.83q-.435.3-.99.3m.16-.66c.26 0 .5-.07.7-.22.2-.14.37-.35.48-.6.12-.26.18-.55.18-.88s-.06-.62-.18-.88q-.18-.39-.48-.6c-.2-.14-.44-.22-.71-.22s-.53.07-.75.22c-.22.14-.39.35-.52.6s-.19.55-.19.88.06.62.19.88.3.46.52.6.47.22.76.22m1.4.55-.04-.84V40h.72v6.3z" fill="#fffdf0" data-color="3"/>
        <path d="M183.81 46.41c-.44 0-.84-.1-1.17-.3s-.6-.48-.8-.83c-.19-.35-.29-.76-.29-1.22s.09-.87.28-1.22.45-.63.79-.83.73-.3 1.17-.3.83.1 1.17.3.6.48.79.83.28.76.28 1.22-.09.87-.28 1.22-.45.63-.79.83-.72.3-1.15.3m-.01-.66c.29 0 .55-.07.78-.22.22-.14.4-.34.53-.6s.19-.55.19-.88-.06-.62-.19-.88q-.195-.375-.54-.6c-.23-.14-.49-.22-.79-.22s-.55.07-.78.22c-.22.14-.4.34-.53.59s-.19.55-.19.88.06.62.19.88q.195.375.54.6c.23.14.49.22.79.22Z" fill="#fffdf0" data-color="3"/>
        <path d="M186.92 43.95v-.66h2.7v.66z" fill="#fffdf0" data-color="3"/>
        <path d="M192.78 46.41c-.44 0-.84-.1-1.17-.3s-.6-.48-.8-.83c-.19-.35-.29-.76-.29-1.22s.09-.87.28-1.22.45-.63.79-.83.73-.3 1.17-.3.83.1 1.17.3.6.48.79.83.28.76.28 1.22-.09.87-.28 1.22-.45.63-.79.83-.72.3-1.15.3m-.01-.66c.29 0 .55-.07.78-.22.22-.14.4-.34.53-.6s.19-.55.19-.88-.06-.62-.19-.88q-.195-.375-.54-.6c-.23-.14-.49-.22-.79-.22s-.55.07-.78.22c-.22.14-.4.34-.53.59s-.19.55-.19.88.06.62.19.88q.195.375.54.6c.23.14.49.22.79.22Z" fill="#fffdf0" data-color="3"/>
        <path d="M198.27 48.1v-6.3h.67l.04.83v5.47h-.72Zm2.24-1.69q-.57 0-.99-.3c-.29-.2-.51-.47-.66-.83-.16-.36-.23-.77-.23-1.23s.08-.88.23-1.23c.16-.35.38-.63.66-.83s.62-.3.99-.3c.4 0 .76.1 1.06.3.31.2.54.47.72.83.17.35.26.77.26 1.23s-.09.87-.26 1.23-.41.63-.72.83-.66.3-1.06.3m-.16-.66c.28 0 .53-.07.75-.22.22-.14.39-.34.52-.6s.19-.55.19-.89-.06-.62-.18-.88a1.37 1.37 0 0 0-1.27-.82c-.26 0-.5.07-.71.22-.21.14-.37.34-.49.6s-.18.55-.18.89.06.62.18.88.28.46.48.6.44.22.7.22Z" fill="#fffdf0" data-color="3"/>
        <path d="M204.97 46.41c-.53 0-.94-.12-1.24-.37-.3-.24-.45-.58-.45-1.01q0-.69.45-1.05c.45-.36.73-.36 1.27-.36h1.29v.6h-1.12q-.63 0-.9.21c-.27.21-.27.34-.27.59 0 .23.09.42.26.55s.42.2.73.2c.26 0 .48-.05.67-.17q.285-.165.45-.48c.1-.21.16-.45.16-.73h.31c0 .61-.14 1.1-.41 1.46-.28.36-.68.54-1.21.54Zm1.35-.11-.04-.74v-1.64c0-.35-.04-.65-.12-.88s-.2-.41-.37-.53-.39-.18-.66-.18q-.375 0-.63.15c-.18.1-.32.26-.44.47l-.65-.25c.11-.21.25-.39.41-.54s.35-.27.57-.35.46-.12.74-.12c.42 0 .77.08 1.04.25s.48.41.62.73.2.72.2 1.19v2.44z" fill="#fffdf0" data-color="3"/>
        <path d="M208.14 46.3v-4.5h.72v4.5zm.39-2.44c0-.49.09-.88.28-1.18s.42-.53.72-.68c.29-.15.6-.22.92-.22v.67c-.26 0-.52.04-.76.13s-.44.23-.6.43-.23.47-.23.81l-.32.04Z" fill="#fffdf0" data-color="3"/>
        <path d="M212.6 46.41c-.53 0-.94-.12-1.24-.37-.3-.24-.45-.58-.45-1.01q0-.69.45-1.05c.45-.36.73-.36 1.27-.36h1.29v.6h-1.12q-.63 0-.9.21c-.27.21-.27.34-.27.59 0 .23.09.42.26.55s.42.2.73.2c.26 0 .48-.05.67-.17q.285-.165.45-.48c.1-.21.16-.45.16-.73h.31c0 .61-.14 1.1-.41 1.46-.28.36-.68.54-1.21.54Zm1.35-.11-.04-.74v-1.64c0-.35-.04-.65-.12-.88s-.2-.41-.37-.53-.39-.18-.66-.18q-.375 0-.63.15c-.18.1-.32.26-.44.47l-.65-.25c.11-.21.25-.39.41-.54s.35-.27.57-.35.46-.12.74-.12c.42 0 .77.08 1.04.25s.48.41.62.73.2.72.2 1.19v2.44z" fill="#fffdf0" data-color="3"/>
        <path d="M83.23 55.91c-.4 0-.76-.1-1.06-.3-.31-.2-.54-.47-.71-.83s-.26-.77-.26-1.23.08-.88.26-1.23c.17-.35.41-.63.71-.83.31-.2.66-.3 1.06-.3q.57 0 .99.3c.29.2.51.47.66.83.16.35.23.77.23 1.23s-.08.87-.23 1.23c-.16.36-.38.63-.66.83q-.435.3-.99.3m.16-.66c.26 0 .5-.07.7-.22.2-.14.37-.35.48-.6.12-.26.18-.55.18-.88s-.06-.62-.18-.88q-.18-.39-.48-.6c-.2-.14-.44-.22-.71-.22s-.53.07-.75.22c-.22.14-.39.35-.52.6s-.19.55-.19.88.06.62.19.88.3.46.52.6.47.22.76.22m1.39.55-.04-.84V49.5h.72v6.3z" fill="#fffdf0" data-color="3"/>
        <path d="M88.7 55.91c-.44 0-.82-.1-1.16-.3s-.6-.48-.79-.83-.28-.76-.28-1.22.09-.87.28-1.22.45-.63.78-.83.72-.3 1.15-.3.78.1 1.09.31.54.5.71.87.25.81.25 1.31h-3.72l.18-.15c0 .36.06.67.19.93s.31.45.54.59.5.2.8.2c.32 0 .59-.08.81-.23s.39-.35.51-.59l.62.32c-.11.23-.27.44-.46.61s-.41.31-.67.41-.54.14-.85.14Zm-1.46-2.68-.19-.14h3.1l-.19.15c0-.29-.06-.54-.17-.75s-.27-.37-.46-.49c-.19-.11-.41-.17-.67-.17s-.48.06-.7.17-.4.27-.53.48-.2.45-.2.74Z" fill="#fffdf0" data-color="3"/>
        <path d="M93.22 55.91c-.33 0-.62-.05-.86-.15-.25-.1-.45-.23-.62-.39s-.28-.34-.36-.53l.63-.26c.1.2.25.37.46.5.2.13.43.19.67.19.28 0 .52-.06.71-.17s.29-.27.29-.47q0-.285-.21-.45a1.7 1.7 0 0 0-.63-.28l-.43-.12c-.41-.11-.73-.27-.95-.49-.23-.22-.34-.47-.34-.74 0-.43.14-.76.42-1s.69-.36 1.25-.36q.39 0 .72.12c.33.12.4.19.56.33s.27.31.34.5l-.63.28c-.08-.2-.21-.35-.39-.44s-.4-.13-.66-.13c-.28 0-.49.06-.65.18s-.23.28-.23.49c0 .12.06.23.19.34.13.1.32.19.57.26l.45.12c.29.07.54.18.74.32q.3.21.45.48c.1.18.15.37.15.58 0 .27-.07.5-.22.7-.14.2-.34.35-.58.45-.25.11-.53.16-.85.16Z" fill="#fffdf0" data-color="3"/>
        <path d="M95.46 51.92v-.62h2.85v.62zm.82 3.88v-5.01c0-.47.11-.82.33-1.06s.55-.36 1-.36c.12 0 .25.02.41.06q.225.06.48.18l-.27.57c-.14-.05-.26-.1-.35-.13a1 1 0 0 0-.24-.04c-.21 0-.37.07-.47.2-.1.14-.16.34-.16.63v4.96h-.72Z" fill="#fffdf0" data-color="3"/>
        <path d="M99.16 55.8v-4.5h.72v4.5zm.39-2.44c0-.49.09-.88.28-1.18s.42-.53.72-.68c.29-.15.6-.22.92-.22v.67c-.26 0-.52.04-.76.13s-.44.23-.6.43-.23.47-.23.81l-.32.04Z" fill="#fffdf0" data-color="3"/>
        <path d="M102.08 53.61v-2.3h.72v2.3zm.72 0q0 .66.15 1.02c.1.23.25.39.43.48s.39.13.62.13c.39 0 .69-.14.91-.42s.33-.67.33-1.18h.35c0 .47-.07.88-.21 1.22q-.21.51-.6.78t-.96.27c-.35 0-.65-.07-.92-.21-.26-.14-.47-.37-.61-.67-.14-.31-.22-.71-.22-1.2v-.22h.72Zm2.48 2.19-.04-.83V51.3h.72v4.5h-.67Z" fill="#fffdf0" data-color="3"/>
        <path d="M106.75 51.94v-.64h2.85v.64zm2.16 3.97c-.44 0-.78-.11-1.02-.34q-.36-.345-.36-.96V49.9h.72v4.64c0 .23.06.4.18.53.12.12.29.18.52.18q.105 0 .21-.03a.8.8 0 0 0 .27-.16l.28.58q-.24.15-.42.21c-.18.06-.25.06-.39.06Z" fill="#fffdf0" data-color="3"/>
        <path d="M112.02 55.91c-.53 0-.94-.12-1.24-.37-.3-.24-.45-.58-.45-1.01q0-.69.45-1.05c.45-.36.73-.36 1.27-.36h1.29v.6h-1.12q-.63 0-.9.21c-.27.21-.27.34-.27.59 0 .23.09.42.26.55s.42.2.73.2c.26 0 .48-.05.67-.17q.285-.165.45-.48c.1-.21.16-.45.16-.73h.31c0 .61-.14 1.1-.41 1.46-.28.36-.68.54-1.21.54Zm1.35-.11-.04-.74v-1.64c0-.35-.04-.65-.12-.88s-.2-.41-.37-.53-.39-.18-.66-.18q-.375 0-.63.15c-.18.1-.32.26-.44.47l-.65-.25c.11-.21.25-.39.41-.54s.35-.27.57-.35.46-.12.74-.12c.42 0 .77.08 1.04.25s.48.41.62.73.2.72.2 1.19v2.44z" fill="#fffdf0" data-color="3"/>
        <path d="M115.19 55.8v-4.5h.72v4.5zm.39-2.44c0-.49.09-.88.28-1.18s.42-.53.72-.68c.29-.15.6-.22.92-.22v.67c-.26 0-.52.04-.76.13s-.44.23-.6.43-.23.47-.23.81l-.32.04Z" fill="#fffdf0" data-color="3"/>
        <path d="M122.22 55.91c-.4 0-.76-.1-1.06-.3-.31-.2-.54-.47-.71-.83s-.26-.77-.26-1.23.08-.88.26-1.23c.17-.35.41-.63.71-.83.31-.2.66-.3 1.06-.3q.57 0 .99.3c.29.2.51.47.66.83.16.35.23.77.23 1.23s-.08.87-.23 1.23c-.16.36-.38.63-.66.83q-.435.3-.99.3m.17-.66c.26 0 .5-.07.7-.22.2-.14.37-.35.48-.6.12-.26.18-.55.18-.88s-.06-.62-.18-.88q-.18-.39-.48-.6c-.2-.14-.44-.22-.71-.22s-.53.07-.75.22c-.22.14-.39.35-.52.6s-.19.55-.19.88.06.62.19.88.3.46.52.6.47.22.76.22m1.39.55-.04-.84V49.5h.72v6.3z" fill="#fffdf0" data-color="3"/>
        <path d="M127.7 55.91c-.44 0-.82-.1-1.16-.3s-.6-.48-.79-.83-.28-.76-.28-1.22.09-.87.28-1.22.45-.63.78-.83.72-.3 1.15-.3.78.1 1.09.31.54.5.71.87.25.81.25 1.31h-3.72l.18-.15c0 .36.06.67.19.93s.31.45.54.59.5.2.8.2c.32 0 .59-.08.81-.23s.39-.35.51-.59l.62.32c-.11.23-.27.44-.46.61s-.41.31-.67.41-.54.14-.85.14Zm-1.46-2.68-.19-.14h3.1l-.19.15c0-.29-.06-.54-.17-.75s-.27-.37-.46-.49c-.19-.11-.41-.17-.67-.17s-.48.06-.7.17-.4.27-.53.48-.2.45-.2.74Z" fill="#fffdf0" data-color="3"/>
        <path d="M132.86 55.8v-4.5h.67l.04.63c.14-.24.32-.42.53-.55s.47-.19.76-.19c.36 0 .67.08.92.25s.44.42.55.77c.13-.33.31-.58.55-.76s.53-.26.87-.26c.5 0 .9.17 1.19.5.29.34.43.85.43 1.53v2.57h-.72v-2.3c0-.44-.05-.78-.14-1.02-.09-.23-.22-.39-.37-.48s-.34-.13-.54-.13c-.35 0-.63.14-.83.42s-.3.67-.3 1.18v2.33h-.72v-2.3c0-.44-.05-.78-.14-1.02-.09-.23-.22-.39-.38-.48a1.1 1.1 0 0 0-.54-.13.95.95 0 0 0-.82.42c-.2.28-.3.67-.3 1.18v2.33h-.72Z" fill="#fffdf0" data-color="3"/>
        <path d="M142.52 55.91c-.44 0-.84-.1-1.17-.3s-.6-.48-.8-.83c-.19-.35-.29-.76-.29-1.22s.09-.87.28-1.22.45-.63.79-.83.73-.3 1.17-.3.83.1 1.17.3.6.48.79.83.28.76.28 1.22-.09.87-.28 1.22-.45.63-.79.83-.72.3-1.15.3m-.01-.66c.29 0 .55-.07.78-.22.22-.14.4-.34.53-.6s.19-.55.19-.88-.06-.62-.19-.88q-.195-.375-.54-.6c-.23-.14-.49-.22-.79-.22s-.55.07-.78.22c-.22.14-.4.34-.53.59s-.19.55-.19.88.06.62.19.88q.195.375.54.6c.23.14.49.22.79.22Z" fill="#fffdf0" data-color="3"/>
        <path d="M145.74 55.8v-4.5h.67l.04.63c.14-.24.32-.42.53-.55s.47-.19.76-.19c.36 0 .67.08.92.25s.44.42.55.77c.13-.33.31-.58.55-.76s.53-.26.87-.26c.5 0 .9.17 1.19.5.29.34.43.85.43 1.53v2.57h-.72v-2.3c0-.44-.05-.78-.14-1.02-.09-.23-.22-.39-.37-.48s-.34-.13-.54-.13c-.35 0-.63.14-.83.42s-.3.67-.3 1.18v2.33h-.72v-2.3c0-.44-.05-.78-.14-1.02-.09-.23-.22-.39-.38-.48a1.1 1.1 0 0 0-.54-.13.95.95 0 0 0-.82.42c-.2.28-.3.67-.3 1.18v2.33h-.72Z" fill="#fffdf0" data-color="3"/>
        <path d="M155.37 55.91c-.44 0-.82-.1-1.16-.3s-.6-.48-.79-.83-.28-.76-.28-1.22.09-.87.28-1.22.45-.63.78-.83.72-.3 1.15-.3.78.1 1.09.31.54.5.71.87.25.81.25 1.31h-3.72l.18-.15c0 .36.06.67.19.93s.31.45.54.59.5.2.8.2c.32 0 .59-.08.81-.23s.39-.35.51-.59l.62.32c-.11.23-.27.44-.46.61s-.41.31-.67.41-.54.14-.85.14Zm-1.46-2.68-.19-.14h3.1l-.19.15c0-.29-.06-.54-.17-.75s-.27-.37-.46-.49c-.19-.11-.41-.17-.67-.17s-.48.06-.7.17-.4.27-.53.48-.2.45-.2.74Z" fill="#fffdf0" data-color="3"/>
        <path d="M158.31 55.8v-4.5h.67l.04.83v3.67h-.72Zm3.16-2.3q0-.66-.15-1.02-.15-.345-.42-.48c-.27-.135-.38-.13-.61-.13-.4 0-.7.14-.92.42s-.33.67-.33 1.18h-.35c0-.47.07-.88.21-1.22q.21-.51.6-.78c.26-.18.58-.27.95-.27s.66.07.92.21.46.36.61.67.22.71.21 1.21v.22h-.72Zm0 2.3v-2.3h.72v2.3z" fill="#fffdf0" data-color="3"/>
        <path d="M162.87 51.94v-.64h2.85v.64zm2.16 3.97c-.44 0-.78-.11-1.02-.34q-.36-.345-.36-.96V49.9h.72v4.64c0 .23.06.4.18.53.12.12.29.18.52.18q.105 0 .21-.03a.8.8 0 0 0 .27-.16l.28.58q-.24.15-.42.21c-.18.06-.25.06-.39.06Z" fill="#fffdf0" data-color="3"/>
        <path d="M168.71 55.91c-.44 0-.84-.1-1.17-.3s-.6-.48-.8-.83c-.19-.35-.29-.76-.29-1.22s.09-.87.28-1.22.45-.63.79-.83.73-.3 1.17-.3.83.1 1.17.3.6.48.79.83.28.76.28 1.22-.09.87-.28 1.22-.45.63-.79.83-.72.3-1.15.3m-.01-.66c.29 0 .55-.07.78-.22.22-.14.4-.34.53-.6s.19-.55.19-.88-.06-.62-.19-.88q-.195-.375-.54-.6c-.23-.14-.49-.22-.79-.22s-.55.07-.78.22c-.22.14-.4.34-.53.59s-.19.55-.19.88.06.62.19.88q.195.375.54.6c.23.14.49.22.79.22Z" fill="#fffdf0" data-color="3"/>
        <path d="M173.51 55.91c-.33 0-.62-.05-.86-.15-.25-.1-.45-.23-.62-.39s-.28-.34-.36-.53l.63-.26c.1.2.25.37.46.5.2.13.43.19.67.19.28 0 .52-.06.71-.17s.29-.27.29-.47q0-.285-.21-.45a1.7 1.7 0 0 0-.63-.28l-.43-.12c-.41-.11-.73-.27-.95-.49-.23-.22-.34-.47-.34-.74 0-.43.14-.76.42-1s.69-.36 1.25-.36q.39 0 .72.12c.33.12.4.19.56.33s.27.31.34.5l-.63.28c-.08-.2-.21-.35-.39-.44s-.4-.13-.66-.13c-.28 0-.49.06-.65.18s-.23.28-.23.49c0 .12.06.23.19.34.13.1.32.19.57.26l.45.12c.29.07.54.18.74.32q.3.21.45.48c.1.18.15.37.15.58 0 .27-.07.5-.22.7-.14.2-.34.35-.58.45-.25.11-.53.16-.85.16Z" fill="#fffdf0" data-color="3"/>
        <path d="M180.12 55.91c-.4 0-.76-.1-1.06-.3-.31-.2-.54-.47-.71-.83s-.26-.77-.26-1.23.08-.88.26-1.23c.17-.35.41-.63.71-.83.31-.2.66-.3 1.06-.3q.57 0 .99.3c.29.2.51.47.66.83.16.35.23.77.23 1.23s-.08.87-.23 1.23c-.16.36-.38.63-.66.83q-.435.3-.99.3m.16-.66c.26 0 .5-.07.7-.22.2-.14.37-.35.48-.6.12-.26.18-.55.18-.88s-.06-.62-.18-.88q-.18-.39-.48-.6c-.2-.14-.44-.22-.71-.22s-.53.07-.75.22c-.22.14-.39.35-.52.6s-.19.55-.19.88.06.62.19.88.3.46.52.6.47.22.76.22m1.4.55-.04-.84V49.5h.72v6.3z" fill="#fffdf0" data-color="3"/>
        <path d="M185.59 55.91c-.44 0-.82-.1-1.16-.3s-.6-.48-.79-.83-.28-.76-.28-1.22.09-.87.28-1.22.45-.63.78-.83.72-.3 1.15-.3.78.1 1.09.31.54.5.71.87.25.81.25 1.31h-3.72l.18-.15c0 .36.06.67.19.93s.31.45.54.59.5.2.8.2c.32 0 .59-.08.81-.23s.39-.35.51-.59l.62.32c-.11.23-.27.44-.46.61s-.41.31-.67.41-.54.14-.85.14Zm-1.45-2.68-.19-.14h3.1l-.19.15c0-.29-.06-.54-.17-.75s-.27-.37-.46-.49c-.19-.11-.41-.17-.67-.17s-.48.06-.7.17-.4.27-.53.48-.2.45-.2.74Z" fill="#fffdf0" data-color="3"/>
        <path d="M192.18 55.91c-.53 0-.94-.12-1.24-.37-.3-.24-.45-.58-.45-1.01q0-.69.45-1.05c.45-.36.73-.36 1.27-.36h1.29v.6h-1.12q-.63 0-.9.21c-.27.21-.27.34-.27.59 0 .23.09.42.26.55s.42.2.73.2c.26 0 .48-.05.67-.17q.285-.165.45-.48c.1-.21.16-.45.16-.73h.31c0 .61-.14 1.1-.41 1.46-.28.36-.68.54-1.21.54Zm1.35-.11-.04-.74v-1.64c0-.35-.04-.65-.12-.88s-.2-.41-.37-.53-.39-.18-.66-.18q-.375 0-.63.15c-.18.1-.32.26-.44.47l-.65-.25c.11-.21.25-.39.41-.54s.35-.27.57-.35.46-.12.74-.12c.42 0 .77.08 1.04.25s.48.41.62.73.2.72.2 1.19v2.44z" fill="#fffdf0" data-color="3"/>
        <path d="M195.35 55.8v-4.5h.67l.04.63c.14-.24.32-.42.53-.55s.47-.19.76-.19c.36 0 .67.08.92.25s.44.42.55.77c.13-.33.31-.58.55-.76s.53-.26.87-.26c.5 0 .9.17 1.19.5.29.34.43.85.43 1.53v2.57h-.72v-2.3c0-.44-.05-.78-.14-1.02-.09-.23-.22-.39-.37-.48s-.34-.13-.54-.13c-.35 0-.63.14-.83.42s-.3.67-.3 1.18v2.33h-.72v-2.3c0-.44-.05-.78-.14-1.02-.09-.23-.22-.39-.38-.48a1.1 1.1 0 0 0-.54-.13.95.95 0 0 0-.82.42c-.2.28-.3.67-.3 1.18v2.33h-.72Z" fill="#fffdf0" data-color="3"/>
        <path d="M205.01 55.91c-.44 0-.84-.1-1.17-.3s-.6-.48-.8-.83c-.19-.35-.29-.76-.29-1.22s.09-.87.28-1.22.45-.63.79-.83.73-.3 1.17-.3.83.1 1.17.3.6.48.79.83.28.76.28 1.22-.09.87-.28 1.22-.45.63-.79.83-.72.3-1.15.3m-.01-.66c.29 0 .55-.07.78-.22.22-.14.4-.34.53-.6s.19-.55.19-.88-.06-.62-.19-.88q-.195-.375-.54-.6c-.23-.14-.49-.22-.79-.22s-.55.07-.78.22c-.22.14-.4.34-.53.59s-.19.55-.19.88.06.62.19.88q.195.375.54.6c.23.14.49.22.79.22Z" fill="#fffdf0" data-color="3"/>
        <path d="M208.23 55.8v-4.5h.72v4.5zm.39-2.44c0-.49.09-.88.28-1.18s.42-.53.72-.68c.29-.15.6-.22.92-.22v.67c-.26 0-.52.04-.76.13s-.44.23-.6.43-.23.47-.23.81l-.32.04Z" fill="#fffdf0" data-color="3"/>
        <path d="M83.42 65.41c-.44 0-.82-.1-1.16-.3s-.6-.48-.79-.83-.28-.76-.28-1.22.09-.87.28-1.22.45-.63.78-.83.72-.3 1.15-.3.78.1 1.09.31.54.5.71.87.25.81.25 1.31h-3.72l.18-.15c0 .36.06.67.19.93s.31.45.54.59.5.2.8.2c.32 0 .59-.08.81-.23s.39-.35.51-.59l.62.32c-.11.23-.27.44-.46.61s-.41.31-.67.41-.54.14-.85.14Zm-1.46-2.68-.19-.14h3.1l-.19.15c0-.29-.06-.54-.17-.75s-.27-.37-.46-.49c-.19-.11-.41-.17-.67-.17s-.48.06-.7.17-.4.27-.53.48-.2.45-.2.74Z" fill="#fffdf0" data-color="3"/>
        <path d="M88.59 65.3v-4.5h.67l.04.63c.14-.24.32-.42.53-.55s.47-.19.76-.19c.36 0 .67.08.92.25s.44.42.55.77c.13-.33.31-.58.55-.76s.53-.26.87-.26c.5 0 .9.17 1.19.5.29.34.43.85.43 1.53v2.57h-.72v-2.3c0-.44-.05-.78-.14-1.02-.09-.23-.22-.39-.37-.48s-.34-.13-.54-.13c-.35 0-.63.14-.83.42s-.3.67-.3 1.18v2.33h-.72v-2.3c0-.44-.05-.78-.14-1.02-.09-.23-.22-.39-.38-.48a1.1 1.1 0 0 0-.54-.13.95.95 0 0 0-.82.42c-.2.28-.3.67-.3 1.18v2.33h-.72Z" fill="#fffdf0" data-color="3"/>
        <path d="M96.13 63.11v-2.3h.72v2.3zm.72 0q0 .66.15 1.02c.1.23.25.39.43.48s.39.13.62.13c.39 0 .69-.14.91-.42s.33-.67.33-1.18h.35c0 .47-.07.88-.21 1.22q-.21.51-.6.78t-.96.27c-.35 0-.65-.07-.92-.21-.26-.14-.47-.37-.61-.67-.14-.31-.22-.71-.22-1.2v-.22h.72Zm2.48 2.19-.04-.83V60.8h.72v4.5h-.67Z" fill="#fffdf0" data-color="3"/>
        <path d="M101.68 59.76c-.12 0-.22-.04-.32-.13a.44.44 0 0 1-.13-.32c0-.13.04-.23.13-.32s.2-.13.32-.13.23.04.32.13.13.19.13.32-.04.23-.13.32-.19.13-.32.13m-.36 5.54v-4.5h.72v4.5z" fill="#fffdf0" data-color="3"/>
        <path d="M102.89 61.44v-.64h2.85v.64zm2.16 3.97c-.44 0-.78-.11-1.02-.34q-.36-.345-.36-.96V59.4h.72v4.64c0 .23.06.4.18.53.12.12.29.18.52.18q.105 0 .21-.03a.8.8 0 0 0 .27-.16l.28.58q-.24.15-.42.21c-.18.06-.25.06-.39.06Z" fill="#fffdf0" data-color="3"/>
        <path d="M108.16 65.41c-.53 0-.94-.12-1.24-.37-.3-.24-.45-.58-.45-1.01q0-.69.45-1.05c.45-.36.73-.36 1.27-.36h1.29v.6h-1.12q-.63 0-.9.21c-.27.21-.27.34-.27.59 0 .23.09.42.26.55s.42.2.73.2c.26 0 .48-.05.67-.17q.285-.165.45-.48c.1-.21.16-.45.16-.73h.31c0 .61-.14 1.1-.41 1.46-.28.36-.68.54-1.21.54Zm1.35-.11-.04-.74v-1.64c0-.35-.04-.65-.12-.88s-.2-.41-.37-.53-.39-.18-.66-.18q-.375 0-.63.15c-.18.1-.32.26-.44.47l-.65-.25c.11-.21.25-.39.41-.54s.35-.27.57-.35.46-.12.74-.12c.42 0 .77.08 1.04.25s.48.41.62.73.2.72.2 1.19v2.44z" fill="#fffdf0" data-color="3"/>
        <path d="M112.9 65.41c-.33 0-.62-.05-.86-.15-.25-.1-.45-.23-.62-.39s-.28-.34-.36-.53l.63-.26c.1.2.25.37.46.5.2.13.43.19.67.19.28 0 .52-.06.71-.17s.29-.27.29-.47q0-.285-.21-.45a1.7 1.7 0 0 0-.63-.28l-.43-.12c-.41-.11-.73-.27-.95-.49-.23-.22-.34-.47-.34-.74 0-.43.14-.76.42-1s.69-.36 1.25-.36q.39 0 .72.12c.33.12.4.19.56.33s.27.31.34.5l-.63.28c-.08-.2-.21-.35-.39-.44s-.4-.13-.66-.13c-.28 0-.49.06-.65.18s-.23.28-.23.49c0 .12.06.23.19.34.13.1.32.19.57.26l.45.12c.29.07.54.18.74.32q.3.21.45.48c.1.18.15.37.15.58 0 .27-.07.5-.22.7-.14.2-.34.35-.58.45-.25.11-.53.16-.85.16Z" fill="#fffdf0" data-color="3"/>
        <path d="M117.74 65.3V59h.72v5.46l-.04.84zm2.24.11q-.57 0-.99-.3c-.29-.2-.51-.47-.66-.83-.16-.36-.23-.77-.23-1.23s.08-.88.23-1.23c.16-.35.38-.63.66-.83s.62-.3.99-.3c.4 0 .76.1 1.06.3.31.2.54.47.72.83.17.35.26.77.26 1.23s-.09.87-.26 1.23-.41.63-.72.83-.66.3-1.06.3m-.16-.66c.28 0 .53-.07.75-.22.22-.14.39-.34.52-.6s.19-.55.19-.89-.06-.62-.18-.88a1.37 1.37 0 0 0-1.27-.82c-.26 0-.5.07-.71.22-.21.14-.37.34-.49.6s-.18.55-.18.89.06.62.18.88.28.46.48.6.44.22.7.22Z" fill="#fffdf0" data-color="3"/>
        <path d="M123.01 65.3v-4.5h.72v4.5zm.4-2.44c0-.49.09-.88.28-1.18s.42-.53.72-.68c.29-.15.6-.22.92-.22v.67c-.26 0-.52.04-.76.13s-.44.23-.6.43-.23.47-.23.81l-.32.04Z" fill="#fffdf0" data-color="3"/>
        <path d="M126.47 59.76c-.12 0-.22-.04-.32-.13a.44.44 0 0 1-.13-.32c0-.13.04-.23.13-.32s.2-.13.32-.13.23.04.32.13.13.19.13.32-.04.23-.13.32-.19.13-.32.13m-.37 5.54v-4.5h.72v4.5z" fill="#fffdf0" data-color="3"/>
        <path d="M128.14 65.3v-4.5h.67l.04.83v3.67h-.72Zm3.16-2.3q0-.66-.15-1.02-.15-.345-.42-.48c-.27-.135-.38-.13-.61-.13-.4 0-.7.14-.92.42s-.33.67-.33 1.18h-.35c0-.47.07-.88.21-1.22q.21-.51.6-.78c.26-.18.58-.27.95-.27s.66.07.92.21.46.36.61.67.22.71.21 1.21v.22h-.72Zm0 2.3V63h.72v2.3z" fill="#fffdf0" data-color="3"/>
        <path d="M135.17 65.41c-.44 0-.84-.1-1.18-.3s-.61-.48-.8-.83-.29-.76-.29-1.22.09-.87.28-1.22.46-.63.8-.83.73-.3 1.17-.3.82.1 1.16.3q.51.3.78.84l-.66.3c-.12-.24-.29-.43-.52-.56s-.49-.2-.78-.2-.55.07-.78.22c-.22.14-.4.34-.53.6s-.19.55-.19.88.06.62.19.88q.195.375.54.6c.23.14.49.22.79.22s.56-.08.79-.23.41-.36.53-.63l.66.3q-.27.57-.78.9c-.34.22-.73.32-1.17.32Z" fill="#fffdf0" data-color="3"/>
        <path d="M139.46 65.41c-.53 0-.94-.12-1.24-.37-.3-.24-.45-.58-.45-1.01q0-.69.45-1.05c.45-.36.73-.36 1.27-.36h1.29v.6h-1.12q-.63 0-.9.21c-.27.21-.27.34-.27.59 0 .23.09.42.26.55s.42.2.73.2c.26 0 .48-.05.67-.17q.285-.165.45-.48c.1-.21.16-.45.16-.73h.31c0 .61-.14 1.1-.41 1.46-.28.36-.68.54-1.21.54Zm1.35-.11-.04-.74v-1.64c0-.35-.04-.65-.12-.88s-.2-.41-.37-.53-.39-.18-.66-.18q-.375 0-.63.15c-.18.1-.32.26-.44.47l-.65-.25c.11-.21.25-.39.41-.54s.35-.27.57-.35.46-.12.74-.12c.42 0 .77.08 1.04.25s.48.41.62.73.2.72.2 1.19v2.44z" fill="#fffdf0" data-color="3"/>
        <path d="M144.4 65.41c-.4 0-.76-.1-1.06-.3-.31-.2-.54-.47-.71-.83s-.26-.77-.26-1.23.08-.88.26-1.23c.17-.35.41-.63.71-.83.31-.2.66-.3 1.06-.3q.57 0 .99.3c.29.2.51.47.66.83.16.35.23.77.23 1.23s-.08.87-.23 1.23c-.16.36-.38.63-.66.83q-.435.3-.99.3m.16-.66c.26 0 .5-.07.7-.22.2-.14.37-.35.48-.6.12-.26.18-.55.18-.88s-.06-.62-.18-.88q-.18-.39-.48-.6c-.2-.14-.44-.22-.71-.22s-.53.07-.75.22c-.22.14-.39.35-.52.6s-.19.55-.19.88.06.62.19.88.3.46.52.6.47.22.76.22m1.4.55-.04-.84V59h.72v6.3z" fill="#fffdf0" data-color="3"/>
        <path d="M149.87 65.41c-.44 0-.82-.1-1.16-.3s-.6-.48-.79-.83-.28-.76-.28-1.22.09-.87.28-1.22.45-.63.78-.83.72-.3 1.15-.3.78.1 1.09.31.54.5.71.87.25.81.25 1.31h-3.72l.18-.15c0 .36.06.67.19.93s.31.45.54.59.5.2.8.2c.32 0 .59-.08.81-.23s.39-.35.51-.59l.62.32c-.11.23-.27.44-.46.61s-.41.31-.67.41-.54.14-.85.14Zm-1.46-2.68-.19-.14h3.1l-.19.15c0-.29-.06-.54-.17-.75s-.27-.37-.46-.49c-.19-.11-.41-.17-.67-.17s-.48.06-.7.17-.4.27-.53.48-.2.45-.2.74Z" fill="#fffdf0" data-color="3"/>
        <path d="M153.23 59.76c-.12 0-.22-.04-.32-.13a.44.44 0 0 1-.13-.32c0-.13.04-.23.13-.32s.2-.13.32-.13.23.04.32.13.13.19.13.32-.04.23-.13.32-.19.13-.32.13m-.37 5.54v-4.5h.72v4.5z" fill="#fffdf0" data-color="3"/>
        <path d="M154.9 65.3v-4.5h.72v4.5zm.4-2.44c0-.49.09-.88.28-1.18s.42-.53.72-.68c.29-.15.6-.22.92-.22v.67c-.26 0-.52.04-.76.13s-.44.23-.6.43-.23.47-.23.81l-.32.04Z" fill="#fffdf0" data-color="3"/>
        <path d="M159.37 65.41c-.53 0-.94-.12-1.24-.37-.3-.24-.45-.58-.45-1.01q0-.69.45-1.05c.45-.36.73-.36 1.27-.36h1.29v.6h-1.12q-.63 0-.9.21c-.27.21-.27.34-.27.59 0 .23.09.42.26.55s.42.2.73.2c.26 0 .48-.05.67-.17q.285-.165.45-.48c.1-.21.16-.45.16-.73h.31c0 .61-.14 1.1-.41 1.46-.28.36-.68.54-1.21.54Zm1.35-.11-.04-.74v-1.64c0-.35-.04-.65-.12-.88s-.2-.41-.37-.53-.39-.18-.66-.18q-.375 0-.63.15c-.18.1-.32.26-.44.47l-.65-.25c.11-.21.25-.39.41-.54s.35-.27.57-.35.46-.12.74-.12c.42 0 .77.08 1.04.25s.48.41.62.73.2.72.2 1.19v2.44z" fill="#fffdf0" data-color="3"/>
        <path d="M164.11 65.41c-.33 0-.62-.05-.86-.15-.25-.1-.45-.23-.62-.39s-.28-.34-.36-.53l.63-.26c.1.2.25.37.46.5.2.13.43.19.67.19.28 0 .52-.06.71-.17s.29-.27.29-.47q0-.285-.21-.45a1.7 1.7 0 0 0-.63-.28l-.43-.12c-.41-.11-.73-.27-.95-.49-.23-.22-.34-.47-.34-.74 0-.43.14-.76.42-1s.69-.36 1.25-.36q.39 0 .72.12c.33.12.4.19.56.33s.27.31.34.5l-.63.28c-.08-.2-.21-.35-.39-.44s-.4-.13-.66-.13c-.28 0-.49.06-.65.18s-.23.28-.23.49c0 .12.06.23.19.34.13.1.32.19.57.26l.45.12c.29.07.54.18.74.32q.3.21.45.48c.1.18.15.37.15.58 0 .27-.07.5-.22.7-.14.2-.34.35-.58.45-.25.11-.53.16-.85.16Z" fill="#fffdf0" data-color="3"/>
        <path d="M167.03 65.43q-.21 0-.36-.15c-.1-.1-.15-.21-.15-.35s.05-.26.15-.36q.15-.15.36-.15c.21 0 .26.05.35.15s.14.22.14.36-.05.25-.14.35-.21.15-.35.15" fill="#fffdf0" data-color="3"/>
    </g>
</svg>
