<?xml version="1.0" encoding="UTF-8"?>
<svg data-bbox="0 0 267.2 78.14" viewBox="0 0 267.2 78.14" xmlns="http://www.w3.org/2000/svg" data-type="ugc">
    <g>
        <path fill="#fffdf1" d="M70.6 35.3c0 19.496-15.804 35.3-35.3 35.3S0 54.796 0 35.3 15.804 0 35.3 0s35.3 15.804 35.3 35.3"/>
        <path d="M20.55 42.6h29.49c3.13 0 5.66 2.53 5.66 5.65s-2.53 5.65-5.66 5.65H20.55c-3.13 0-5.66-2.53-5.66-5.65s2.53-5.65 5.66-5.65Z" fill="none" stroke="#275e29" stroke-miterlimit="10"/>
        <path d="M21.72 42.6c-.89-1-1.43-2.32-1.43-3.76 0-1.56.63-2.98 1.66-4a5.65 5.65 0 0 1 4-1.66h18.71a5.65 5.65 0 0 1 4.22 9.41" fill="none" stroke="#275e29" stroke-miterlimit="10"/>
        <path d="M25.68 33.2c-.26-.65-.4-1.36-.4-2.1 0-3.12 2.53-5.66 5.66-5.66h5.01" fill="none" stroke="#275e29" stroke-miterlimit="10"/>
        <path d="M31.98 25.44c-.08-1.5.09-4.92 2.94-7.36 3.45-2.96 7.71-1.81 8.02-1.72-1.12 2.06-1.89 5.93 0 6.93 5.33 2.83 4.38 7.22 2.3 9.83" fill="none" stroke="#275e29" stroke-miterlimit="10"/>
        <path d="M51.14 31.37c0-1.33 1.14-1.33 1.14-2.66s-1.14-1.33-1.14-2.66" fill="none" stroke="#275e29" stroke-miterlimit="10"/>
        <path d="M19.72 32.13c0-1.33 1.14-1.33 1.14-2.66s-1.14-1.33-1.14-2.66" fill="none" stroke="#275e29" stroke-miterlimit="10"/>
        <path d="M28.24 19.04c0-1.33 1.14-1.33 1.14-2.66s-1.14-1.33-1.14-2.66" fill="none" stroke="#275e29" stroke-miterlimit="10"/>
        <path d="M91.09 7.6V.61h4.79v1.7h-2.94v1.02h2.3v1.7h-2.3v2.58h-1.85Z" fill="#fffdf0"/>
        <path d="M96.73 7.6V.61h4.68v1.7h-2.84v.97h2.3v1.65h-2.3v.98h2.91v1.7h-4.75Z" fill="#fffdf0"/>
        <path d="M102.28 7.6V5.85l3.22-3.5h-3.19V.61h5.6v1.75l-3.22 3.5h3.19v1.75h-5.6Z" fill="#fffdf0"/>
        <path d="M108.81 7.6V.61h4.68v1.7h-2.84v.97h2.3v1.65h-2.3v.98h2.91v1.7h-4.75Z" fill="#fffdf0"/>
        <path d="M117.11 7.72c-.33 0-.65-.04-.96-.13s-.6-.21-.85-.37q-.39-.24-.63-.54c-.17-.2-.27-.42-.3-.64l1.84-.51c.06.17.16.31.31.42s.34.18.57.19a.8.8 0 0 0 .5-.15.51.51 0 0 0 .09-.74.74.74 0 0 0-.39-.23l-1.05-.27c-.36-.09-.67-.24-.92-.43-.26-.19-.45-.43-.59-.71s-.21-.59-.21-.94c0-.69.23-1.22.68-1.6q.69-.57 1.92-.57c.44 0 .83.06 1.16.17.34.11.63.29.87.53s.44.56.6.95l-1.83.53a.9.9 0 0 0-.25-.4c-.14-.13-.32-.2-.55-.2s-.4.05-.52.15-.18.25-.18.44c0 .12.05.22.15.31s.24.16.43.21l1.06.27c.53.13.95.39 1.25.78s.45.83.45 1.33c0 .46-.1.85-.31 1.17s-.51.56-.9.73-.86.25-1.41.25Z" fill="#fffdf0"/>
        <path d="M122.96 7.6V.61h2.05l1.69 2.5 1.69-2.5h2.05V7.6h-1.85V3.47l-1.88 2.74-1.9-2.74v4.14h-1.85Z" fill="#fffdf0"/>
        <path d="m131.1 7.6 2.68-6.99h1.84l-2.56 6.99zm1.26-1.12V4.85h4.83v1.63zm4.12 1.12L133.92.61h1.84l2.68 6.99z" fill="#fffdf0"/>
        <path d="M139.11 7.6V.61h1.85V7.6z" fill="#fffdf0"/>
        <path d="M144.6 7.72c-.33 0-.65-.04-.96-.13s-.6-.21-.85-.37q-.39-.24-.63-.54c-.17-.2-.27-.42-.3-.64l1.84-.51c.06.17.16.31.31.42s.34.18.57.19a.8.8 0 0 0 .5-.15.51.51 0 0 0 .09-.74.74.74 0 0 0-.39-.23l-1.05-.27c-.36-.09-.67-.24-.92-.43-.26-.19-.45-.43-.59-.71s-.21-.59-.21-.94c0-.69.23-1.22.68-1.6q.69-.57 1.92-.57c.44 0 .83.06 1.16.17.34.11.63.29.87.53s.44.56.6.95l-1.83.53a.9.9 0 0 0-.25-.4c-.14-.13-.32-.2-.55-.2s-.4.05-.52.15-.18.25-.18.44c0 .12.05.22.15.31s.24.16.43.21l1.06.27c.53.13.95.39 1.25.78s.45.83.45 1.33c0 .46-.1.85-.31 1.17s-.51.56-.9.73-.86.25-1.41.25Z" fill="#fffdf0"/>
        <path d="M153.67 7.72c-.7 0-1.32-.15-1.85-.46s-.96-.74-1.26-1.28c-.31-.54-.46-1.17-.46-1.87s.15-1.33.46-1.87.73-.97 1.26-1.28 1.15-.46 1.85-.46c.54 0 1.03.09 1.46.28s.81.45 1.12.78.55.72.72 1.16l-1.76.56q-.135-.33-.36-.57c-.225-.24-.32-.29-.51-.37s-.42-.13-.66-.13q-.495 0-.87.24c-.375.24-.45.39-.59.67-.14.29-.21.62-.21 1s.07.7.22.99.35.52.6.68c.26.16.55.25.88.25.26 0 .48-.04.67-.14.19-.09.35-.22.49-.38s.25-.35.35-.57l1.76.56c-.16.44-.4.83-.71 1.16-.31.34-.69.6-1.13.78-.44.19-.93.28-1.47.28Z" fill="#fffdf0"/>
        <path d="M161.13 7.72c-.73 0-1.38-.15-1.94-.46s-1-.74-1.32-1.28q-.48-.81-.48-1.86c0-1.05.16-1.33.48-1.87s.76-.97 1.32-1.28 1.2-.46 1.93-.46 1.38.16 1.94.46 1 .74 1.32 1.28.48 1.17.48 1.87-.16 1.32-.47 1.86c-.32.54-.75.97-1.31 1.28s-1.2.46-1.93.46Zm0-1.7c.36 0 .68-.08.95-.25.27-.16.49-.39.64-.67.15-.29.23-.62.23-.99s-.08-.7-.24-.99-.37-.52-.65-.68-.59-.24-.95-.24-.67.08-.94.24c-.28.16-.49.39-.65.68q-.24.435-.24.99c0 .555.08.7.24.99s.38.51.65.67c.28.16.59.25.95.25Z" fill="#fffdf0"/>
        <path d="M165.69 7.6V.61h1.95l2.73 3.85V.61h1.85V7.6h-1.85l-2.83-3.99V7.6z" fill="#fffdf0"/>
        <path d="M175.86 7.72c-.33 0-.65-.04-.96-.13s-.6-.21-.85-.37q-.39-.24-.63-.54c-.17-.2-.27-.42-.3-.64l1.84-.51c.06.17.16.31.31.42s.34.18.57.19c.19 0 .35-.04.49-.15a.51.51 0 0 0 .09-.74.74.74 0 0 0-.39-.23l-1.05-.27c-.36-.09-.67-.24-.92-.43-.26-.19-.45-.43-.59-.71s-.21-.59-.21-.94c0-.69.23-1.22.68-1.6q.69-.57 1.92-.57c.44 0 .83.06 1.16.17.34.11.63.29.87.53s.44.56.6.95l-1.83.53c-.03-.13-.12-.27-.25-.4s-.32-.2-.55-.2-.4.05-.52.15a.55.55 0 0 0-.19.44c0 .12.05.22.15.31s.24.16.43.21l1.06.27c.53.13.95.39 1.25.78s.45.83.45 1.33c0 .46-.11.85-.31 1.17-.21.32-.51.56-.9.73s-.86.25-1.41.25Z" fill="#fffdf0"/>
        <path d="M179.41 7.6V.61h1.85V7.6z" fill="#fffdf0"/>
        <path d="M184.9 7.72c-.33 0-.65-.04-.96-.13s-.6-.21-.85-.37q-.39-.24-.63-.54c-.17-.2-.27-.42-.3-.64l1.84-.51c.06.17.16.31.31.42s.34.18.57.19a.8.8 0 0 0 .5-.15.51.51 0 0 0 .09-.74.74.74 0 0 0-.39-.23l-1.05-.27c-.36-.09-.67-.24-.92-.43-.26-.19-.45-.43-.59-.71s-.21-.59-.21-.94c0-.69.23-1.22.68-1.6q.69-.57 1.92-.57c.44 0 .83.06 1.16.17.34.11.63.29.87.53s.44.56.6.95l-1.83.53a.9.9 0 0 0-.25-.4c-.14-.13-.32-.2-.55-.2s-.4.05-.52.15-.18.25-.18.44c0 .12.05.22.15.31s.24.16.43.21l1.06.27c.53.13.95.39 1.25.78s.45.83.45 1.33c0 .46-.1.85-.31 1.17s-.51.56-.9.73-.86.25-1.41.25Z" fill="#fffdf0"/>
        <path d="M190 7.6V2.31h-1.98V.61h5.79v1.7h-1.97V7.6h-1.85Z" fill="#fffdf0"/>
        <path d="M194.58 7.6V.61h4.68v1.7h-2.84v.97h2.3v1.65h-2.3v.98h2.91v1.7h-4.75Z" fill="#fffdf0"/>
        <path d="M200.43 7.6V.61h1.95l2.73 3.85V.61h1.85V7.6h-1.85l-2.83-3.99V7.6z" fill="#fffdf0"/>
        <path d="M209.7 7.6V2.31h-1.98V.61h5.79v1.7h-1.97V7.6h-1.85Z" fill="#fffdf0"/>
        <path d="M214.29 7.6V.61h4.69v1.7h-2.84v.97h2.3v1.65h-2.3v.98h2.91v1.7h-4.75Z" fill="#fffdf0"/>
        <path d="M222.59 7.72c-.33 0-.65-.04-.96-.13s-.6-.21-.85-.37q-.39-.24-.63-.54c-.17-.2-.27-.42-.3-.64l1.84-.51c.06.17.16.31.31.42s.34.18.57.19c.19 0 .35-.04.49-.15a.51.51 0 0 0 .09-.74.74.74 0 0 0-.39-.23l-1.05-.27c-.36-.09-.67-.24-.92-.43-.26-.19-.45-.43-.59-.71s-.21-.59-.21-.94c0-.69.23-1.22.68-1.6q.69-.57 1.92-.57c.44 0 .83.06 1.16.17.34.11.63.29.87.53s.44.56.6.95l-1.83.53c-.03-.13-.12-.27-.25-.4s-.32-.2-.55-.2-.4.05-.52.15a.55.55 0 0 0-.19.44c0 .12.05.22.15.31s.24.16.43.21l1.06.27c.53.13.95.39 1.25.78s.45.83.45 1.33c0 .46-.11.85-.31 1.17-.21.32-.51.56-.9.73s-.86.25-1.41.25Z" fill="#fffdf0"/>
        <path d="M91.09 18.15v-6.99h4.68v1.7h-2.84v.97h2.3v1.65h-2.3v.98h2.91v1.7h-4.75Z" fill="#fffdf0"/>
        <path d="M102.47 18.27c-.7 0-1.32-.15-1.85-.46s-.96-.74-1.26-1.28c-.31-.54-.46-1.17-.46-1.87s.15-1.33.46-1.87.73-.97 1.26-1.28 1.15-.46 1.85-.46c.54 0 1.03.09 1.46.28s.81.45 1.12.78.55.72.72 1.16l-1.76.56q-.135-.33-.36-.57c-.225-.24-.32-.29-.51-.37-.2-.09-.42-.13-.67-.13q-.495 0-.87.24c-.25.16-.45.39-.59.67-.14.29-.21.62-.21 1s.07.7.22.99.35.52.6.68c.26.16.55.25.88.25.26 0 .48-.04.67-.14.19-.09.35-.22.49-.38s.25-.35.35-.57l1.76.56c-.16.44-.4.83-.71 1.16-.31.34-.69.6-1.13.78-.44.19-.93.28-1.47.28Z" fill="#fffdf0"/>
        <path d="M109.92 18.27c-.73 0-1.38-.15-1.94-.46s-1-.74-1.32-1.28q-.48-.81-.48-1.86c0-1.05.16-1.33.48-1.87s.76-.97 1.32-1.28 1.2-.46 1.93-.46 1.38.16 1.94.46 1 .74 1.32 1.28.48 1.17.48 1.87-.16 1.32-.47 1.86c-.32.54-.75.97-1.31 1.28s-1.2.46-1.93.46Zm0-1.7c.36 0 .68-.08.95-.25.27-.16.49-.39.64-.67.15-.29.23-.62.23-.99s-.08-.7-.23-.99c-.16-.29-.37-.52-.65-.68s-.59-.24-.95-.24-.67.08-.94.24c-.28.16-.49.39-.65.68s-.23.62-.23.99.08.7.24.99.38.51.65.67c.28.16.59.25.95.25Z" fill="#fffdf0"/>
        <path d="M114.49 18.15v-6.99h2.05l1.69 2.5 1.69-2.5h2.05v6.99h-1.85v-4.14l-1.88 2.74-1.9-2.74v4.14z" fill="#fffdf0"/>
        <path d="M128.85 18.27c-.73 0-1.38-.15-1.94-.46s-1-.74-1.32-1.28q-.48-.81-.48-1.86c0-1.05.16-1.33.48-1.87s.76-.97 1.32-1.28 1.2-.46 1.93-.46 1.38.16 1.94.46 1 .74 1.32 1.28.48 1.17.48 1.87-.16 1.32-.47 1.86c-.32.54-.75.97-1.31 1.28s-1.2.46-1.93.46Zm0-1.7c.36 0 .68-.08.95-.25.27-.16.49-.39.64-.67.15-.29.23-.62.23-.99s-.08-.7-.24-.99-.37-.52-.65-.68-.59-.24-.95-.24-.67.08-.94.24c-.28.16-.49.39-.65.68q-.24.435-.24.99c0 .555.08.7.24.99s.38.51.65.67c.28.16.59.25.95.25Z" fill="#fffdf0"/>
        <path d="M133.42 18.15v-6.99h2.34c.77 0 1.44.15 2.03.45q.885.45 1.38 1.23c.33.52.5 1.13.5 1.81s-.17 1.28-.5 1.81-.79.94-1.38 1.24-1.27.45-2.03.45zm1.84-1.75h.49c.29 0 .56-.04.81-.13s.46-.21.64-.36a1.62 1.62 0 0 0 .57-1.26 1.62 1.62 0 0 0-.57-1.26 2.1 2.1 0 0 0-.64-.36c-.25-.09-.52-.13-.81-.13h-.49z" fill="#fffdf0"/>
        <path d="M143.91 18.27c-.73 0-1.38-.15-1.94-.46s-1-.74-1.32-1.28q-.48-.81-.48-1.86c0-1.05.16-1.33.48-1.87s.76-.97 1.32-1.28 1.2-.46 1.93-.46 1.38.16 1.94.46 1 .74 1.32 1.28.48 1.17.48 1.87-.16 1.32-.47 1.86c-.32.54-.75.97-1.31 1.28s-1.2.46-1.93.46Zm0-1.7c.36 0 .68-.08.95-.25.27-.16.49-.39.64-.67.15-.29.23-.62.23-.99s-.08-.7-.23-.99c-.16-.29-.37-.52-.65-.68s-.59-.24-.95-.24-.67.08-.94.24c-.28.16-.49.39-.65.68s-.23.62-.23.99.08.7.24.99.38.51.65.67c.28.16.59.25.95.25Z" fill="#fffdf0"/>
        <path d="M148.48 18.15v-6.99h2.9c.53 0 .99.1 1.4.3s.72.48.95.84.34.77.34 1.23-.11.88-.34 1.24-.55.65-.95.85c-.41.2-.87.3-1.4.3h-1.05v2.22h-1.85Zm1.85-3.92h.95c.17 0 .31-.03.44-.09a.68.68 0 0 0 .41-.61c0-.2-.08-.36-.24-.49s-.36-.19-.61-.19h-.95v1.39Zm1.91 3.92-1.56-2.75 1.39-1.04 2.29 3.79z" fill="#fffdf0"/>
        <path d="M157.4 18.15v-6.99h2.9c.53 0 .99.1 1.4.3s.72.48.95.84.34.77.34 1.23-.11.88-.34 1.24-.55.65-.95.85c-.41.2-.87.3-1.4.3h-1.05v2.22h-1.85Zm1.85-3.92h.95c.17 0 .31-.03.44-.09a.68.68 0 0 0 .41-.61c0-.2-.08-.36-.24-.49s-.36-.19-.61-.19h-.95v1.39Zm1.91 3.92-1.56-2.75 1.39-1.04 2.29 3.79z" fill="#fffdf0"/>
        <path d="M164.02 18.15v-6.99h4.69v1.7h-2.84v.97h2.3v1.65h-2.3v.98h2.91v1.7h-4.75Z" fill="#fffdf0"/>
        <path d="M169.88 18.15v-6.99h2.34c.77 0 1.44.15 2.03.45q.885.45 1.38 1.23c.33.52.5 1.13.5 1.81s-.17 1.28-.5 1.81-.79.94-1.38 1.24-1.27.45-2.03.45zm1.84-1.75h.49c.29 0 .56-.04.81-.13s.46-.21.64-.36a1.62 1.62 0 0 0 .57-1.26 1.62 1.62 0 0 0-.57-1.26 2.1 2.1 0 0 0-.64-.36c-.25-.09-.52-.13-.81-.13h-.49z" fill="#fffdf0"/>
        <path d="M179.85 18.27c-.62 0-1.15-.11-1.6-.34s-.79-.55-1.02-.97c-.24-.42-.35-.93-.35-1.51v-4.29h1.85v4.29c0 .23.05.43.14.6s.22.29.39.38.37.13.61.13.45-.04.62-.13.3-.21.39-.38.13-.37.13-.6v-4.29h1.85v4.29c0 .59-.12 1.09-.36 1.51s-.58.75-1.03.97c-.45.23-.99.34-1.62.34" fill="#fffdf0"/>
        <path d="M183.67 18.15V16.4l3.22-3.5h-3.19v-1.75h5.6v1.75l-3.22 3.5h3.19v1.75z" fill="#fffdf0"/>
        <path d="M190.2 18.15v-6.99h1.85v6.99z" fill="#fffdf0"/>
        <path d="M193.25 18.15v-6.99h2.34c.77 0 1.44.15 2.03.45q.885.45 1.38 1.23c.33.52.5 1.13.5 1.81s-.17 1.28-.5 1.81-.79.94-1.38 1.24-1.27.45-2.03.45zm1.85-1.75h.49c.29 0 .56-.04.81-.13s.46-.21.64-.36a1.62 1.62 0 0 0 .57-1.26 1.62 1.62 0 0 0-.57-1.26 2.1 2.1 0 0 0-.64-.36c-.25-.09-.52-.13-.81-.13h-.49z" fill="#fffdf0"/>
        <path d="M203.75 18.27c-.73 0-1.38-.15-1.94-.46s-1-.74-1.32-1.28q-.48-.81-.48-1.86c0-1.05.16-1.33.48-1.87s.76-.97 1.32-1.28 1.2-.46 1.93-.46 1.38.16 1.94.46 1 .74 1.32 1.28.48 1.17.48 1.87-.16 1.32-.47 1.86c-.32.54-.75.97-1.31 1.28s-1.2.46-1.93.46Zm0-1.7c.36 0 .68-.08.95-.25.27-.16.49-.39.64-.67.15-.29.23-.62.23-.99s-.08-.7-.24-.99-.37-.52-.65-.68-.59-.24-.95-.24-.67.08-.94.24c-.28.16-.49.39-.65.68q-.24.435-.24.99c0 .555.08.7.24.99s.38.51.65.67c.28.16.59.25.95.25Z" fill="#fffdf0"/>
        <path d="M91.42 29.75v-6.99h.86l4.17 5.61v-5.61h.85v6.99h-.85l-4.18-5.64v5.64z" fill="#fffdf0"/>
        <path d="M101.14 29.86c-.49 0-.93-.11-1.3-.33s-.67-.53-.88-.92-.32-.85-.32-1.36.1-.97.31-1.36.5-.7.88-.92.81-.33 1.29-.33.92.11 1.29.33.67.53.88.92.32.85.32 1.36-.11.97-.32 1.36-.5.7-.87.92-.8.33-1.28.33m-.01-.73c.33 0 .61-.08.86-.24s.45-.38.59-.66.21-.61.21-.97-.07-.69-.21-.97-.34-.5-.59-.66-.55-.24-.88-.24-.61.08-.86.24-.45.38-.59.66-.21.61-.21.98.07.69.21.97q.21.42.6.66t.87.24Z" fill="#fffdf0"/>
        <path d="M106.46 29.86c-.37 0-.69-.05-.96-.16s-.5-.25-.68-.43-.31-.38-.39-.59l.7-.29c.11.23.28.41.51.55q.345.21.75.21c.31 0 .58-.06.79-.19.21-.12.32-.3.32-.52 0-.21-.08-.37-.23-.5s-.39-.23-.69-.31l-.48-.13c-.45-.12-.81-.3-1.06-.54s-.38-.52-.38-.82c0-.47.16-.84.46-1.1s.77-.39 1.38-.39c.29 0 .56.04.8.13s.45.21.62.36c.17.16.3.34.38.55l-.7.31a.87.87 0 0 0-.43-.49c-.2-.1-.44-.15-.73-.15-.31 0-.55.06-.72.19s-.26.31-.26.54c0 .13.07.26.21.38s.35.21.63.28l.5.13c.33.08.6.2.82.35s.39.33.5.53.17.41.17.64q0 .45-.24.78c-.16.22-.38.39-.65.5-.27.12-.59.17-.94.17Z" fill="#fffdf0"/>
        <path d="M111.12 29.86c-.37 0-.69-.05-.96-.16s-.5-.25-.68-.43-.32-.38-.39-.59l.7-.29c.11.23.28.41.51.55q.345.21.75.21c.31 0 .58-.06.79-.19.21-.12.32-.3.32-.52 0-.21-.08-.37-.23-.5-.16-.13-.39-.23-.69-.31l-.48-.13c-.45-.12-.81-.3-1.06-.54s-.38-.52-.38-.82c0-.47.15-.84.46-1.1s.77-.39 1.38-.39c.29 0 .56.04.8.13s.45.21.62.36c.17.16.3.34.38.55l-.7.31c-.09-.23-.23-.39-.43-.49s-.44-.15-.73-.15c-.31 0-.55.06-.72.19s-.26.31-.26.54c0 .13.07.26.21.38s.35.21.63.28l.5.13c.33.08.6.2.82.35s.39.33.5.53.17.41.17.64q0 .45-.24.78c-.16.22-.38.39-.65.5-.27.12-.59.17-.94.17Z" fill="#fffdf0"/>
        <path d="M116.24 29.86c-.49 0-.93-.11-1.3-.33-.38-.22-.67-.53-.88-.92s-.32-.85-.32-1.36.11-.97.31-1.36c.21-.39.5-.7.88-.92q.57-.33 1.29-.33c.72 0 .92.11 1.29.33.38.22.67.53.88.92s.31.85.31 1.36-.1.97-.31 1.36-.5.7-.87.92-.8.33-1.28.33m-.01-.73c.33 0 .61-.08.86-.24s.45-.38.59-.66.21-.61.21-.97-.07-.69-.21-.97-.34-.5-.59-.66-.55-.24-.88-.24-.61.08-.86.24-.45.38-.59.66-.21.61-.21.98.07.69.21.97q.21.42.6.66t.87.24Z" fill="#fffdf0"/>
        <path d="M123.87 29.86c-.59 0-1.04-.13-1.37-.4s-.49-.64-.49-1.12c0-.51.17-.89.5-1.16.34-.27.81-.4 1.41-.4h1.43v.67h-1.25c-.47 0-.8.08-.99.23-.2.15-.29.37-.29.66 0 .26.1.46.29.61s.46.22.81.22q.435 0 .75-.18c.315-.18.38-.3.49-.53.12-.23.17-.5.17-.81h.34c0 .68-.15 1.22-.46 1.62s-.75.6-1.34.6Zm1.49-.11-.04-.82v-1.82c0-.39-.04-.72-.13-.97-.09-.26-.22-.45-.41-.58s-.43-.2-.73-.2c-.27 0-.51.05-.7.16s-.36.28-.48.52l-.72-.28c.13-.23.28-.43.46-.6q.27-.255.63-.39c.24-.09.51-.13.82-.13.47 0 .85.09 1.15.27s.53.45.68.81.23.8.22 1.32v2.71z" fill="#fffdf0"/>
        <path d="M127.38 29.75v-6.99h.8v6.99z" fill="#fffdf0"/>
        <path d="M130.04 23.59c-.13 0-.25-.05-.35-.15a.485.485 0 0 1 0-.7c.1-.09.22-.15.35-.15s.26.05.35.15.14.21.14.35-.05.25-.14.35-.21.15-.35.15m-.41 6.16v-4.99h.8v4.99z" fill="#fffdf0"/>
        <path d="M131.9 29.75v-4.99h.75l.04.7c.15-.27.35-.47.59-.61q.36-.21.84-.21c.4 0 .74.09 1.02.28s.49.47.61.85c.14-.37.34-.65.61-.84s.59-.29.96-.29c.56 0 1 .19 1.32.56s.48.94.47 1.7v2.86h-.8V27.2c0-.49-.05-.87-.16-1.13s-.24-.44-.41-.53q-.255-.15-.6-.15c-.39 0-.7.15-.92.46s-.33.75-.33 1.31v2.59h-.8v-2.56c0-.49-.05-.87-.16-1.13-.1-.26-.24-.44-.42-.53q-.27-.15-.6-.15c-.39 0-.69.15-.91.46s-.33.75-.33 1.31v2.59h-.8Z" fill="#fffdf0"/>
        <path d="M142.58 29.86q-.735 0-1.29-.33c-.555-.33-.66-.53-.87-.92s-.31-.85-.31-1.36.1-.97.31-1.36.5-.7.87-.92.79-.33 1.27-.33.87.11 1.21.34.6.55.79.96.28.9.28 1.46h-4.12l.2-.17c0 .4.07.74.21 1.03s.34.5.6.65.56.22.89.22c.35 0 .65-.08.89-.25s.43-.39.56-.66l.69.35c-.13.26-.29.49-.5.68a2.4 2.4 0 0 1-1.68.61m-1.61-2.97-.21-.16h3.45l-.21.17c0-.32-.06-.6-.19-.83q-.195-.345-.51-.54c-.21-.13-.46-.19-.74-.19s-.53.06-.77.19-.44.3-.59.53-.22.5-.22.82Z" fill="#fffdf0"/>
        <path d="M145.85 29.75v-4.99h.75l.05.92v4.08h-.8Zm3.51-2.56c0-.49-.06-.87-.17-1.13s-.27-.44-.47-.53c-.2-.1-.43-.15-.68-.15-.44 0-.78.15-1.02.46s-.36.75-.36 1.31h-.39c0-.53.08-.98.23-1.36s.38-.67.67-.87.65-.3 1.06-.3.73.08 1.02.23c.29.16.52.4.68.74s.24.79.23 1.34v.24h-.8Zm0 2.56v-2.56h.8v2.56z" fill="#fffdf0"/>
        <path d="M150.91 25.46v-.71h3.17v.71zm2.39 4.4c-.49 0-.86-.13-1.13-.38s-.4-.61-.4-1.07v-5.22h.8v5.14c0 .25.07.45.21.58q.21.21.57.21c.08 0 .16-.01.23-.04.08-.02.18-.08.3-.17l.31.65c-.17.11-.33.19-.47.23s-.28.06-.43.06Z" fill="#fffdf0"/>
        <path d="M157.39 29.86c-.49 0-.93-.11-1.3-.33-.38-.22-.67-.53-.88-.92s-.32-.85-.32-1.36.11-.97.31-1.36c.21-.39.5-.7.88-.92q.57-.33 1.29-.33c.72 0 .92.11 1.29.33.38.22.67.53.88.92s.31.85.31 1.36-.1.97-.31 1.36-.5.7-.87.92-.8.33-1.28.33m-.01-.73c.33 0 .61-.08.86-.24s.45-.38.59-.66.21-.61.21-.97-.07-.69-.21-.97-.34-.5-.59-.66-.55-.24-.88-.24-.61.08-.86.24-.45.38-.59.66-.21.61-.21.98.07.69.21.97q.21.42.6.66t.87.24Z" fill="#fffdf0"/>
        <path d="M165.66 29.86c-.49 0-.93-.11-1.31-.33s-.68-.53-.89-.92-.32-.85-.32-1.36.11-.97.31-1.36c.21-.39.5-.7.88-.92s.81-.33 1.3-.33.91.11 1.29.33.67.53.87.93l-.73.33c-.13-.27-.33-.47-.58-.62s-.54-.23-.87-.23-.61.08-.86.24-.45.38-.59.66-.21.61-.21.97.07.69.21.97q.21.42.6.66t.87.24c.48 0 .62-.08.87-.25.26-.17.45-.4.58-.7l.73.33c-.2.43-.49.76-.87 1s-.81.36-1.3.36Z" fill="#fffdf0"/>
        <path d="M171.05 29.86c-.49 0-.93-.11-1.3-.33s-.67-.53-.88-.92-.32-.85-.32-1.36.1-.97.31-1.36.5-.7.88-.92.81-.33 1.29-.33.92.11 1.29.33.67.53.88.92.32.85.32 1.36-.11.97-.32 1.36-.5.7-.87.92-.8.33-1.28.33m-.01-.73c.33 0 .61-.08.86-.24s.45-.38.59-.66.21-.61.21-.97-.07-.69-.21-.97-.34-.5-.59-.66-.55-.24-.88-.24-.61.08-.86.24-.45.38-.59.66-.21.61-.21.98.07.69.21.97q.21.42.6.66t.87.24Z" fill="#fffdf0"/>
        <path d="M174.63 29.75v-4.99h.75l.04.7c.15-.27.35-.47.59-.61q.36-.21.84-.21c.4 0 .74.09 1.02.28s.49.47.61.85c.14-.37.34-.65.61-.84s.59-.29.96-.29c.56 0 1 .19 1.32.56s.48.94.47 1.7v2.86h-.8V27.2c0-.49-.05-.87-.15-1.13s-.24-.44-.42-.53q-.255-.15-.6-.15c-.39 0-.7.15-.92.46s-.33.75-.33 1.31v2.59h-.8v-2.56c0-.49-.05-.87-.16-1.13s-.24-.44-.42-.53q-.27-.15-.6-.15c-.39 0-.69.15-.91.46s-.33.75-.33 1.31v2.59h-.8Z" fill="#fffdf0"/>
        <path d="M183.13 29.75v-6.99h.8v6.06l-.04.93zm2.49.11c-.42 0-.79-.11-1.1-.33-.32-.22-.56-.53-.73-.92-.17-.4-.26-.85-.26-1.36s.09-.98.26-1.37.42-.7.73-.92c.32-.22.68-.33 1.1-.33.45 0 .84.11 1.18.33s.6.53.79.92.29.85.29 1.37-.1.97-.29 1.36c-.19.4-.45.7-.79.92s-.73.33-1.18.33m-.18-.72c.31 0 .59-.08.83-.24s.44-.38.58-.66.21-.61.21-.98-.07-.69-.21-.98-.33-.51-.57-.67-.52-.24-.84-.24q-.435 0-.78.24c-.345.24-.41.38-.54.66s-.2.61-.2.98.07.69.2.98.31.51.53.67.49.24.78.24Z" fill="#fffdf0"/>
        <path d="M189.44 23.59c-.13 0-.25-.05-.35-.15a.485.485 0 0 1 0-.7.485.485 0 0 1 .7 0c.1.1.15.21.15.35s-.05.25-.15.35-.21.15-.35.15m-.41 6.16v-4.99h.8v4.99z" fill="#fffdf0"/>
        <path d="M191.3 29.75v-4.99h.75l.05.92v4.08h-.8Zm3.51-2.56c0-.49-.06-.87-.17-1.13s-.27-.44-.47-.53c-.2-.1-.43-.15-.68-.15-.44 0-.78.15-1.02.46s-.36.75-.36 1.31h-.39c0-.53.08-.98.23-1.36s.38-.67.67-.87.65-.3 1.06-.3.73.08 1.02.23c.29.16.52.4.68.74s.24.79.23 1.34v.24h-.8Zm0 2.56v-2.56h.8v2.56z" fill="#fffdf0"/>
        <path d="M198.45 29.86c-.59 0-1.04-.13-1.37-.4s-.49-.64-.49-1.12c0-.51.17-.89.5-1.16s.81-.4 1.41-.4h1.43v.67h-1.25c-.47 0-.8.08-.99.23s-.29.37-.29.66c0 .26.1.46.29.61s.46.22.81.22q.435 0 .75-.18c.21-.12.38-.3.49-.53.12-.23.17-.5.17-.81h.34c0 .68-.15 1.22-.46 1.62s-.75.6-1.34.6Zm1.5-.11-.04-.82v-1.82c0-.39-.04-.72-.13-.97-.09-.26-.22-.45-.41-.58s-.43-.2-.73-.2c-.27 0-.51.05-.7.16-.2.11-.36.28-.48.52l-.72-.28c.13-.23.28-.43.46-.6q.27-.255.63-.39c.24-.09.51-.13.82-.13.47 0 .85.09 1.15.27s.53.45.68.81.23.8.22 1.32v2.71z" fill="#fffdf0"/>
        <path d="M204.9 23.59c-.13 0-.25-.05-.35-.15a.485.485 0 0 1 0-.7c.1-.09.22-.15.35-.15s.26.05.35.15.14.21.14.35-.05.25-.14.35-.21.15-.35.15m-.41 6.16v-4.99h.8v4.99z" fill="#fffdf0"/>
        <path d="M206.75 29.75v-4.99h.75l.05.92v4.08h-.8Zm3.51-2.56c0-.49-.06-.87-.17-1.13s-.27-.44-.47-.53c-.2-.1-.43-.15-.68-.15-.44 0-.78.15-1.02.46s-.36.75-.36 1.31h-.39c0-.53.08-.98.23-1.36s.38-.67.67-.87.65-.3 1.06-.3.73.08 1.02.23c.29.16.52.4.68.74s.24.79.23 1.34v.24h-.8Zm0 2.56v-2.56h.8v2.56z" fill="#fffdf0"/>
        <path d="M214.3 29.71c-.45 0-.84-.11-1.18-.32s-.6-.51-.79-.89-.29-.82-.29-1.31.09-.95.29-1.33c.19-.38.45-.68.79-.89s.73-.32 1.18-.32c.42 0 .79.11 1.1.32s.56.51.73.89c.18.38.26.83.26 1.33s-.09.94-.26 1.32c-.18.38-.42.68-.73.89s-.68.32-1.1.32Zm.03 2.15q-.48 0-.87-.09a3.8 3.8 0 0 1-1.06-.4l.3-.65c.09.05.21.1.37.17s.35.13.56.18c.22.05.45.07.69.07.32 0 .61-.06.86-.19.26-.13.46-.33.6-.61s.21-.63.21-1.06v-4.52h.8v4.52c0 .57-.11 1.05-.32 1.44s-.51.68-.88.87-.8.29-1.27.29Zm.15-2.84q.435 0 .78-.24c.23-.16.4-.38.53-.65.13-.28.19-.6.19-.96s-.07-.67-.2-.94-.31-.49-.53-.65-.48-.23-.78-.23-.59.08-.83.23c-.24.16-.43.37-.57.65s-.21.59-.21.94.07.69.21.96.33.49.57.65.52.24.83.24Z" fill="#fffdf0"/>
        <path d="M218.19 29.75v-4.99h.8v4.99zm.44-2.71c0-.54.1-.98.31-1.31.21-.34.47-.59.79-.75q.48-.24 1.02-.24v.75q-.435 0-.84.15c-.27.1-.49.25-.66.47s-.26.52-.26.9l-.36.04Z" fill="#fffdf0"/>
        <path d="M223.75 29.86q-.735 0-1.29-.33c-.555-.33-.66-.53-.87-.92s-.31-.85-.31-1.36.11-.97.31-1.36c.21-.39.5-.7.87-.92s.79-.33 1.27-.33.87.11 1.21.34.6.55.79.96.28.9.28 1.46h-4.13l.2-.17c0 .4.07.74.21 1.03s.34.5.6.65.56.22.89.22c.35 0 .65-.08.89-.25s.43-.39.56-.66l.69.35c-.13.26-.29.49-.5.68a2.4 2.4 0 0 1-1.68.61Zm-1.61-2.97-.21-.16h3.45l-.21.17c0-.32-.06-.6-.19-.83q-.195-.345-.51-.54c-.315-.195-.46-.19-.74-.19s-.53.06-.77.19-.44.3-.59.53-.22.5-.22.82Z" fill="#fffdf0"/>
        <path d="M228.99 29.86c-.45 0-.84-.11-1.18-.33s-.6-.53-.79-.92c-.19-.4-.29-.85-.29-1.36s.09-.98.29-1.37c.19-.39.45-.7.79-.92s.73-.33 1.18-.33c.42 0 .79.11 1.1.33s.56.53.73.92.26.85.26 1.37-.09.97-.26 1.36c-.17.4-.42.7-.73.92s-.68.33-1.1.33m.18-.72q.435 0 .78-.24c.345-.24.4-.38.53-.67s.2-.61.2-.98-.07-.69-.2-.98-.31-.51-.53-.67-.49-.24-.79-.24-.59.08-.83.24-.43.38-.58.67c-.14.29-.21.61-.21.98s.07.69.21.98.33.51.58.67q.375.24.84.24m1.55.61-.04-.93v-6.06h.8v6.99z" fill="#fffdf0"/>
        <path d="M233.33 23.59c-.13 0-.25-.05-.35-.15a.485.485 0 0 1 0-.7.485.485 0 0 1 .7 0c.1.1.15.21.15.35s-.05.25-.15.35-.21.15-.35.15m-.41 6.16v-4.99h.8v4.99z" fill="#fffdf0"/>
        <path d="M237.38 29.86q-.735 0-1.29-.33c-.555-.33-.66-.53-.87-.92s-.31-.85-.31-1.36.11-.97.31-1.36c.21-.39.5-.7.87-.92s.79-.33 1.27-.33.87.11 1.21.34.6.55.79.96.28.9.28 1.46h-4.13l.2-.17c0 .4.07.74.21 1.03s.34.5.6.65.56.22.89.22c.35 0 .65-.08.89-.25s.43-.39.56-.66l.69.35c-.13.26-.29.49-.5.68a2.4 2.4 0 0 1-1.68.61Zm-1.62-2.97-.21-.16H239l-.21.17c0-.32-.06-.6-.19-.83q-.195-.345-.51-.54c-.315-.195-.46-.19-.74-.19s-.53.06-.77.19-.44.3-.59.53-.22.5-.22.82Z" fill="#fffdf0"/>
        <path d="M240.65 29.75v-4.99h.75l.05.92v4.08h-.8Zm3.5-2.56c0-.49-.06-.87-.17-1.13s-.27-.44-.47-.53c-.2-.1-.43-.15-.68-.15-.44 0-.78.15-1.02.46s-.36.75-.36 1.31h-.39c0-.53.08-.98.23-1.36s.38-.67.67-.87.65-.3 1.06-.3.73.08 1.02.23c.29.16.52.4.68.74s.24.79.23 1.34v.24h-.8Zm0 2.56v-2.56h.8v2.56z" fill="#fffdf0"/>
        <path d="M245.7 25.46v-.71h3.17v.71zm2.4 4.4c-.49 0-.86-.13-1.13-.38s-.4-.61-.4-1.07v-5.22h.8v5.14c0 .25.07.45.2.58q.21.21.57.21c.08 0 .16-.01.24-.04.08-.02.18-.08.3-.17l.31.65c-.17.11-.33.19-.47.23s-.28.06-.43.06Z" fill="#fffdf0"/>
        <path d="M252.15 29.86q-.735 0-1.29-.33c-.555-.33-.66-.53-.87-.92s-.31-.85-.31-1.36.1-.97.31-1.36.5-.7.87-.92.79-.33 1.27-.33.87.11 1.21.34.6.55.79.96.28.9.28 1.46h-4.12l.2-.17c0 .4.07.74.21 1.03s.34.5.6.65.56.22.89.22c.35 0 .65-.08.89-.25s.43-.39.56-.66l.69.35c-.13.26-.29.49-.5.68a2.4 2.4 0 0 1-1.68.61m-1.61-2.97-.21-.16h3.45l-.21.17c0-.32-.06-.6-.19-.83q-.195-.345-.51-.54c-.21-.13-.46-.19-.74-.19s-.53.06-.77.19-.44.3-.59.53-.22.5-.22.82Z" fill="#fffdf0"/>
        <path d="M257.17 29.86c-.37 0-.69-.05-.96-.16s-.5-.25-.68-.43-.32-.38-.39-.59l.7-.29c.11.23.28.41.51.55q.345.21.75.21c.31 0 .58-.06.79-.19.21-.12.32-.3.32-.52 0-.21-.08-.37-.23-.5-.16-.13-.39-.23-.69-.31l-.48-.13c-.45-.12-.81-.3-1.06-.54s-.38-.52-.38-.82c0-.47.15-.84.46-1.1s.77-.39 1.38-.39c.29 0 .56.04.8.13s.45.21.62.36c.17.16.3.34.38.55l-.7.31c-.09-.23-.23-.39-.43-.49s-.44-.15-.73-.15c-.31 0-.55.06-.72.19s-.26.31-.26.54c0 .13.07.26.21.38s.35.21.63.28l.5.13c.33.08.6.2.82.35s.39.33.5.53.17.41.17.64q0 .45-.24.78c-.16.22-.38.39-.65.5-.27.12-.59.17-.94.17Z" fill="#fffdf0"/>
        <path d="M93.16 41.46c-.45 0-.84-.11-1.18-.33s-.6-.53-.79-.92c-.19-.4-.28-.85-.28-1.36s.09-.98.28-1.37.46-.7.79-.92c.34-.22.73-.33 1.18-.33.42 0 .79.11 1.1.33.32.22.56.53.73.92s.26.85.26 1.37-.09.97-.26 1.36c-.17.4-.42.7-.73.92-.32.22-.68.33-1.1.33m.18-.72q.435 0 .78-.24c.345-.24.41-.38.54-.67s.19-.61.19-.98-.06-.69-.19-.98-.31-.51-.54-.67-.49-.24-.79-.24-.59.08-.83.24-.43.38-.57.67-.21.61-.21.98.07.69.21.98.33.51.58.67.53.24.84.24Zm1.55.61-.04-.93v-6.06h.8v6.99z" fill="#fffdf0"/>
        <path d="M97.5 35.19c-.13 0-.25-.05-.35-.15a.485.485 0 0 1 0-.7c.1-.09.22-.15.35-.15s.26.05.35.15.14.21.14.35-.05.25-.14.35-.21.15-.35.15m-.41 6.16v-4.99h.8v4.99z" fill="#fffdf0"/>
        <path d="M101.33 41.31c-.45 0-.84-.11-1.18-.32s-.6-.51-.79-.89-.28-.82-.28-1.31.09-.95.28-1.33.46-.68.79-.89c.34-.21.73-.32 1.18-.32.42 0 .79.11 1.1.32s.56.51.73.89c.18.38.26.83.26 1.33s-.09.94-.26 1.32c-.18.38-.42.68-.73.89s-.68.32-1.1.32Zm.03 2.15q-.48 0-.87-.09c-.26-.06-.49-.13-.67-.21s-.32-.14-.39-.19l.3-.65c.09.05.21.1.37.17s.35.13.56.18c.22.05.45.07.69.07.32 0 .61-.06.86-.19.26-.13.46-.33.6-.61s.21-.63.21-1.06v-4.52h.8v4.52c0 .57-.11 1.05-.32 1.44s-.51.68-.88.87-.8.29-1.27.29Zm.16-2.84q.435 0 .78-.24c.23-.16.4-.38.53-.65.13-.28.19-.6.19-.96s-.06-.67-.19-.94-.31-.49-.53-.65-.48-.23-.78-.23c-.31 0-.59.08-.83.23-.24.16-.43.37-.57.65s-.2.59-.2.94.07.69.21.96c.14.28.33.49.58.65.24.16.52.24.83.24Z" fill="#fffdf0"/>
        <path d="M107.41 41.46q-.735 0-1.29-.33c-.555-.33-.66-.53-.87-.92s-.31-.85-.31-1.36.11-.97.31-1.36c.21-.39.5-.7.87-.92s.79-.33 1.27-.33.87.11 1.21.34.6.55.79.96.28.9.28 1.46h-4.13l.2-.17c0 .4.07.74.21 1.03s.34.5.6.65.56.22.89.22c.35 0 .65-.08.89-.25s.43-.39.56-.66l.69.35c-.13.26-.29.49-.5.68a2.4 2.4 0 0 1-1.68.61Zm-1.61-2.97-.21-.16h3.45l-.21.17c0-.32-.06-.6-.19-.83q-.195-.345-.51-.54c-.315-.195-.46-.19-.74-.19s-.53.06-.77.19-.44.3-.59.53-.22.5-.22.82Z" fill="#fffdf0"/>
        <path d="M112.43 41.46c-.37 0-.69-.05-.96-.16s-.5-.25-.68-.43-.31-.38-.39-.59l.7-.29c.11.23.28.41.51.55q.345.21.75.21c.31 0 .58-.06.79-.19.21-.12.32-.3.32-.52 0-.21-.08-.37-.23-.5s-.39-.23-.69-.31l-.48-.13c-.45-.12-.81-.3-1.06-.54s-.38-.52-.38-.82c0-.47.16-.84.46-1.1s.77-.39 1.38-.39c.29 0 .56.04.8.13s.45.21.62.36c.17.16.3.34.38.55l-.7.31a.87.87 0 0 0-.43-.49c-.2-.1-.44-.15-.73-.15-.31 0-.55.06-.72.19s-.26.31-.26.54c0 .13.07.26.21.38s.35.21.63.28l.5.13c.33.08.6.2.82.35s.39.33.5.53.17.41.17.64q0 .45-.24.78c-.16.22-.38.39-.65.5-.27.12-.59.17-.94.17Z" fill="#fffdf0"/>
        <path d="M114.82 37.06v-.71h3.17v.71zm2.39 4.4c-.49 0-.86-.13-1.13-.38s-.4-.61-.4-1.07v-5.22h.8v5.14c0 .25.07.45.2.58q.21.21.57.21c.08 0 .16-.01.24-.04.08-.02.18-.08.3-.17l.31.65c-.17.11-.33.19-.47.23s-.28.06-.43.06Z" fill="#fffdf0"/>
        <path d="m118.89 35.64 1.17-1.29h1.03l-1.29 1.29zm.27 5.71v-4.99h.8v4.99z" fill="#fffdf0"/>
        <path d="m122.91 41.35-2.09-4.99h.83l2.04 4.99zm.05 0 2.04-4.99h.84l-2.09 4.99z" fill="#fffdf0"/>
        <path d="M128.69 41.46q-.735 0-1.29-.33c-.555-.33-.66-.53-.87-.92s-.31-.85-.31-1.36.1-.97.31-1.36.5-.7.87-.92.79-.33 1.27-.33.87.11 1.21.34.6.55.79.96.28.9.28 1.46h-4.12l.2-.17c0 .4.07.74.21 1.03s.34.5.6.65.56.22.89.22c.35 0 .65-.08.89-.25s.43-.39.56-.66l.69.35c-.13.26-.29.49-.5.68a2.4 2.4 0 0 1-1.68.61m-1.62-2.97-.21-.16h3.45l-.21.17c0-.32-.06-.6-.19-.83q-.195-.345-.51-.54c-.21-.13-.46-.19-.74-.19s-.53.06-.77.19-.44.3-.59.53-.22.5-.22.82Z" fill="#fffdf0"/>
        <path d="M132.42 35.19c-.13 0-.25-.05-.35-.15a.485.485 0 0 1 0-.7c.1-.09.22-.15.35-.15s.26.05.35.15.14.21.14.35-.05.25-.14.35-.21.15-.35.15m-.41 6.16v-4.99h.8v4.99z" fill="#fffdf0"/>
        <path d="M136.02 41.46c-.37 0-.69-.05-.96-.16s-.5-.25-.68-.43-.32-.38-.39-.59l.7-.29c.11.23.28.41.51.55q.345.21.75.21c.31 0 .58-.06.79-.19.21-.12.32-.3.32-.52 0-.21-.08-.37-.23-.5-.16-.13-.39-.23-.69-.31l-.48-.13c-.45-.12-.81-.3-1.06-.54s-.38-.52-.38-.82c0-.47.15-.84.46-1.1s.77-.39 1.38-.39c.29 0 .56.04.8.13s.45.21.62.36c.17.16.3.34.38.55l-.7.31c-.09-.23-.23-.39-.43-.49s-.44-.15-.73-.15c-.31 0-.55.06-.72.19s-.26.31-.26.54c0 .13.07.26.21.38s.35.21.63.28l.5.13c.33.08.6.2.82.35s.39.33.5.53.17.41.17.64q0 .45-.24.78c-.16.22-.38.39-.65.5-.27.12-.59.17-.94.17Z" fill="#fffdf0"/>
        <path d="m138.63 42.49.57-2.11h.9l-.78 2.11z" fill="#fffdf0"/>
        <path d="M145.23 41.46c-.59 0-1.04-.13-1.37-.4s-.49-.64-.49-1.12c0-.51.17-.89.5-1.16.34-.27.81-.4 1.41-.4h1.43v.67h-1.25c-.47 0-.8.08-.99.23-.2.15-.29.37-.29.66 0 .26.1.46.29.61s.46.22.81.22q.435 0 .75-.18c.315-.18.38-.3.49-.53.12-.23.17-.5.17-.81h.34c0 .68-.15 1.22-.46 1.62s-.75.6-1.34.6Zm1.5-.11-.04-.82v-1.82c0-.39-.04-.72-.13-.97-.09-.26-.22-.45-.41-.58s-.43-.2-.73-.2c-.27 0-.51.05-.7.16s-.36.28-.48.52l-.72-.28c.13-.23.28-.43.46-.6q.27-.255.63-.39c.24-.09.51-.13.82-.13.47 0 .85.09 1.15.27s.53.45.68.81.23.8.22 1.32v2.71z" fill="#fffdf0"/>
        <path d="M148.75 41.35v-6.99h.8v6.99z" fill="#fffdf0"/>
        <path d="M153.13 41.46q-.735 0-1.29-.33c-.555-.33-.66-.53-.87-.92s-.31-.85-.31-1.36.1-.97.31-1.36.5-.7.87-.92.79-.33 1.27-.33.87.11 1.21.34.6.55.79.96.28.9.28 1.46h-4.12l.2-.17c0 .4.07.74.21 1.03s.34.5.6.65.56.22.89.22c.35 0 .65-.08.89-.25s.43-.39.56-.66l.69.35c-.13.26-.29.49-.5.68a2.4 2.4 0 0 1-1.68.61m-1.62-2.97-.21-.16h3.45l-.21.17c0-.32-.06-.6-.19-.83q-.195-.345-.51-.54c-.21-.13-.46-.19-.74-.19s-.53.06-.77.19-.44.3-.59.53-.22.5-.22.82Zm.93-2.85 1.17-1.29h1.03l-1.29 1.29z" fill="#fffdf0"/>
        <path d="M156.41 41.35v-4.99h.75l.04.7c.15-.27.35-.47.59-.61q.36-.21.84-.21c.4 0 .74.09 1.02.28s.49.47.61.85c.14-.37.34-.65.61-.84s.59-.29.96-.29c.56 0 1 .19 1.32.56s.48.94.47 1.7v2.86h-.8V38.8c0-.49-.05-.87-.16-1.13s-.24-.44-.41-.53q-.255-.15-.6-.15c-.39 0-.7.15-.92.46s-.33.75-.33 1.31v2.59h-.8v-2.56c0-.49-.05-.87-.16-1.13-.1-.26-.24-.44-.42-.53q-.27-.15-.6-.15c-.39 0-.69.15-.91.46s-.33.75-.33 1.31v2.59h-.8Z" fill="#fffdf0"/>
        <path d="M169.35 41.46c-.45 0-.84-.11-1.18-.33s-.6-.53-.79-.92c-.19-.4-.29-.85-.29-1.36s.09-.98.29-1.37c.19-.39.45-.7.79-.92s.73-.33 1.18-.33c.42 0 .79.11 1.1.33s.56.53.73.92.26.85.26 1.37-.09.97-.26 1.36c-.17.4-.42.7-.73.92s-.68.33-1.1.33m.18-.72q.435 0 .78-.24c.345-.24.4-.38.53-.67s.2-.61.2-.98-.07-.69-.2-.98-.31-.51-.53-.67-.49-.24-.79-.24-.59.08-.83.24-.43.38-.58.67c-.14.29-.21.61-.21.98s.07.69.21.98.33.51.58.67q.375.24.84.24m1.54.61-.04-.93v-6.06h.8v6.99z" fill="#fffdf0"/>
        <path d="M175.42 41.46q-.735 0-1.29-.33c-.555-.33-.66-.53-.87-.92s-.31-.85-.31-1.36.11-.97.31-1.36c.21-.39.5-.7.87-.92s.79-.33 1.27-.33.87.11 1.21.34.6.55.79.96.28.9.28 1.46h-4.13l.2-.17c0 .4.07.74.21 1.03s.34.5.6.65.56.22.89.22c.35 0 .65-.08.89-.25s.43-.39.56-.66l.69.35c-.13.26-.29.49-.5.68a2.4 2.4 0 0 1-1.68.61Zm-1.62-2.97-.21-.16h3.45l-.21.17c0-.32-.06-.6-.19-.83q-.195-.345-.51-.54c-.315-.195-.46-.19-.74-.19s-.53.06-.77.19-.44.3-.59.53-.22.5-.22.82Z" fill="#fffdf0"/>
        <path d="m182.7 41.35-2.16-4.99h.85l1.86 4.45.24.55h-.79Zm-1.1 2.11c-.13 0-.27-.02-.44-.07s-.34-.12-.53-.19l.3-.67c.15.07.29.12.41.15s.21.05.27.05c.18 0 .33-.05.44-.14.12-.1.21-.23.29-.41l.57-1.36 1.85-4.46h.86l-2.4 5.69c-.13.29-.26.55-.39.76-.14.21-.3.38-.49.49s-.44.17-.74.17Z" fill="#fffdf0"/>
        <path d="M186.28 38.91v-2.56h.8v2.56zm.8 0c0 .49.06.87.17 1.13s.27.44.47.53c.2.1.43.14.68.14.43 0 .77-.16 1.01-.47s.36-.75.36-1.31h.39c0 .53-.08.98-.23 1.36s-.38.67-.66.87c-.29.2-.64.3-1.06.3-.39 0-.73-.08-1.02-.23-.29-.16-.52-.41-.68-.75s-.24-.79-.24-1.33v-.24h.8Zm2.75 2.44-.05-.92v-4.08h.8v4.99h-.75Z" fill="#fffdf0"/>
        <path d="M194.21 41.46c-.49 0-.93-.11-1.31-.33s-.68-.53-.89-.92-.32-.85-.32-1.36.1-.97.31-1.36.5-.7.88-.92.81-.33 1.3-.33.91.11 1.29.33q.57.33.87.93l-.73.33c-.13-.27-.33-.47-.58-.62s-.54-.23-.87-.23-.61.08-.86.24-.45.38-.59.66-.21.61-.21.97.07.69.21.97q.21.42.6.66t.87.24c.48 0 .62-.08.87-.25.26-.17.45-.4.58-.7l.73.33c-.2.43-.49.76-.87 1s-.81.36-1.3.36Z" fill="#fffdf0"/>
        <path d="M199.61 41.46c-.49 0-.93-.11-1.31-.33s-.68-.53-.89-.92-.32-.85-.32-1.36.11-.97.31-1.36c.21-.39.5-.7.88-.92s.81-.33 1.3-.33.91.11 1.29.33.67.53.87.93l-.73.33c-.13-.27-.33-.47-.58-.62s-.54-.23-.87-.23-.61.08-.86.24-.45.38-.59.66-.21.61-.21.97.07.69.21.97q.21.42.6.66t.87.24c.48 0 .62-.08.87-.25.26-.17.45-.4.58-.7l.73.33c-.2.43-.49.76-.87 1s-.81.36-1.3.36Z" fill="#fffdf0"/>
        <path d="M204.37 41.46c-.59 0-1.04-.13-1.37-.4s-.49-.64-.49-1.12c0-.51.17-.89.5-1.16s.81-.4 1.41-.4h1.43v.67h-1.25c-.47 0-.8.08-.99.23s-.29.37-.29.66c0 .26.1.46.29.61s.46.22.81.22q.435 0 .75-.18c.21-.12.38-.3.49-.53.12-.23.17-.5.17-.81h.34c0 .68-.15 1.22-.46 1.62s-.75.6-1.34.6Zm1.5-.11-.04-.82v-1.82c0-.39-.04-.72-.13-.97-.09-.26-.22-.45-.41-.58s-.43-.2-.73-.2c-.27 0-.51.05-.7.16-.2.11-.36.28-.48.52l-.72-.28c.13-.23.28-.43.46-.6q.27-.255.63-.39c.24-.09.51-.13.82-.13.47 0 .85.09 1.15.27s.53.45.68.81.23.8.22 1.32v2.71z" fill="#fffdf0"/>
        <path d="M212.54 41.46q-.735 0-1.29-.33c-.555-.33-.66-.53-.87-.92s-.31-.85-.31-1.36.1-.97.31-1.36.5-.7.87-.92.79-.33 1.27-.33.87.11 1.21.34.6.55.79.96.28.9.28 1.46h-4.12l.2-.17c0 .4.07.74.21 1.03s.34.5.6.65.56.22.89.22c.35 0 .65-.08.89-.25s.43-.39.56-.66l.69.35c-.13.26-.29.49-.5.68a2.4 2.4 0 0 1-1.68.61m-1.62-2.97-.21-.16h3.45l-.21.17c0-.32-.06-.6-.19-.83q-.195-.345-.51-.54c-.21-.13-.46-.19-.74-.19s-.53.06-.77.19-.44.3-.59.53-.22.5-.22.82Z" fill="#fffdf0"/>
        <path d="M218.02 41.35v-.64l2.95-3.66h-2.95v-.7h3.99v.62l-2.96 3.68h2.98v.7z" fill="#fffdf0"/>
        <path d="M225.36 41.46q-.735 0-1.29-.33c-.555-.33-.66-.53-.87-.92s-.31-.85-.31-1.36.1-.97.31-1.36.5-.7.87-.92.79-.33 1.27-.33.87.11 1.21.34.6.55.79.96.28.9.28 1.46h-4.12l.2-.17c0 .4.07.74.21 1.03s.34.5.6.65.56.22.89.22c.35 0 .65-.08.89-.25s.43-.39.56-.66l.69.35c-.13.26-.29.49-.5.68a2.4 2.4 0 0 1-1.68.61m-1.61-2.97-.21-.16h3.45l-.21.17c0-.32-.06-.6-.19-.83q-.195-.345-.51-.54c-.21-.13-.46-.19-.74-.19s-.53.06-.77.19-.44.3-.59.53-.22.5-.22.82Z" fill="#fffdf0"/>
        <path d="M230.85 41.46c-.49 0-.93-.11-1.3-.33s-.67-.53-.88-.92-.32-.85-.32-1.36.1-.97.31-1.36.5-.7.88-.92.81-.33 1.29-.33.92.11 1.29.33.67.53.88.92.32.85.32 1.36-.11.97-.32 1.36-.5.7-.87.92-.8.33-1.28.33m-.01-.73c.33 0 .61-.08.86-.24s.45-.38.59-.66.21-.61.21-.97-.07-.69-.21-.97-.34-.5-.59-.66-.55-.24-.88-.24-.61.08-.86.24-.45.38-.59.66-.21.61-.21.98.07.69.21.97q.21.42.6.66t.87.24Zm-.7-5.09 1.17-1.29h1.03l-1.29 1.29z" fill="#fffdf0"/>
        <path d="M234.42 41.35v-6.99h.8v6.99z" fill="#fffdf0"/>
        <path d="M237.08 35.19c-.13 0-.25-.05-.35-.15a.485.485 0 0 1 0-.7.485.485 0 0 1 .7 0c.1.1.15.21.15.35s-.05.25-.15.35-.21.15-.35.15m-.41 6.16v-4.99h.8v4.99z" fill="#fffdf0"/>
        <path d="M238.42 37.06v-.71h3.17v.71zm2.4 4.4c-.49 0-.86-.13-1.13-.38s-.4-.61-.4-1.07v-5.22h.8v5.14c0 .25.07.45.21.58q.21.21.57.21c.08 0 .16-.01.23-.04.08-.02.18-.08.3-.17l.31.65c-.17.11-.33.19-.47.23s-.28.06-.43.06Z" fill="#fffdf0"/>
        <path d="M244.26 41.46c-.59 0-1.04-.13-1.37-.4s-.49-.64-.49-1.12c0-.51.17-.89.5-1.16s.81-.4 1.41-.4h1.43v.67h-1.25c-.47 0-.8.08-.99.23s-.29.37-.29.66c0 .26.1.46.29.61s.46.22.81.22q.435 0 .75-.18c.21-.12.38-.3.49-.53.12-.23.17-.5.17-.81h.34c0 .68-.15 1.22-.46 1.62s-.75.6-1.34.6Zm1.5-.11-.04-.82v-1.82c0-.39-.04-.72-.13-.97-.09-.26-.22-.45-.41-.58s-.43-.2-.73-.2c-.27 0-.51.05-.7.16-.2.11-.36.28-.48.52l-.72-.28c.13-.23.28-.43.46-.6q.27-.255.63-.39c.24-.09.51-.13.82-.13.47 0 .85.09 1.15.27s.53.45.68.81.23.8.22 1.32v2.71z" fill="#fffdf0"/>
        <path d="m247.48 42.49.57-2.11h.9l-.78 2.11z" fill="#fffdf0"/>
        <path d="M92.77 53.07c-.59 0-1.04-.13-1.37-.4s-.49-.64-.49-1.12c0-.51.17-.89.5-1.16s.81-.4 1.41-.4h1.43v.67H93c-.47 0-.8.08-.99.23s-.29.37-.29.66c0 .26.1.46.29.61s.46.22.81.22q.435 0 .75-.18c.21-.12.38-.3.49-.53.12-.23.17-.5.17-.81h.34c0 .68-.15 1.22-.46 1.62s-.75.6-1.34.6Zm1.5-.12-.04-.82v-1.82c0-.39-.04-.72-.13-.97-.09-.26-.22-.45-.41-.58s-.43-.2-.73-.2c-.27 0-.51.05-.7.16-.2.11-.36.28-.48.52l-.72-.28c.13-.23.28-.43.46-.6q.27-.255.63-.39c.24-.09.51-.13.82-.13.47 0 .85.09 1.15.27s.53.45.68.81.23.8.22 1.32v2.71z" fill="#fffdf0"/>
        <path d="M96 55.09c-.25 0-.56-.09-.94-.26l.3-.67c.16.06.29.11.41.14.11.03.2.05.26.05.45 0 .68-.29.68-.87v-5.53h.8v5.55c0 .52-.13.91-.38 1.18s-.63.4-1.13.4Zm1.11-8.31c-.13 0-.25-.05-.35-.15s-.15-.22-.15-.35q0-.225.15-.36c.1-.1.22-.15.35-.15s.26.05.36.15a.49.49 0 0 1 0 .71q-.15.15-.36.15" fill="#fffdf0"/>
        <path d="M98.84 50.51v-2.56h.8v2.56zm.8 0c0 .49.06.87.17 1.13s.27.44.47.53c.2.1.43.14.68.14.43 0 .77-.16 1.01-.47s.37-.75.37-1.31h.39c0 .53-.08.98-.23 1.36s-.37.67-.66.87-.64.3-1.06.3c-.39 0-.73-.08-1.02-.23-.29-.16-.52-.41-.68-.75s-.24-.79-.24-1.33v-.24zm2.76 2.44-.05-.92v-4.08h.8v4.99h-.75Z" fill="#fffdf0"/>
        <path d="M106.51 53.07c-.45 0-.84-.11-1.18-.33s-.6-.53-.79-.92c-.19-.4-.29-.85-.29-1.36s.09-.98.29-1.37c.19-.39.45-.7.79-.92s.73-.33 1.18-.33c.42 0 .79.11 1.1.33s.56.53.73.92.26.85.26 1.37-.09.97-.26 1.36c-.17.4-.42.7-.73.92s-.68.33-1.1.33m.18-.73q.435 0 .78-.24c.345-.24.4-.38.53-.67s.2-.61.2-.98-.07-.69-.2-.98-.31-.51-.53-.67-.49-.24-.79-.24-.59.08-.83.24-.43.38-.58.67c-.14.29-.21.61-.21.98s.07.69.21.98.33.51.58.67q.375.24.84.24m1.55.61-.04-.93v-6.06h.8v6.99z" fill="#fffdf0"/>
        <path d="M111.98 53.07c-.59 0-1.04-.13-1.37-.4s-.49-.64-.49-1.12c0-.51.17-.89.5-1.16.34-.27.81-.4 1.41-.4h1.43v.67h-1.25c-.47 0-.8.08-.99.23-.2.15-.29.37-.29.66 0 .26.1.46.29.61s.46.22.81.22q.435 0 .75-.18c.315-.18.38-.3.49-.53.12-.23.17-.5.17-.81h.34c0 .68-.15 1.22-.46 1.62s-.75.6-1.34.6Zm1.5-.12-.04-.82v-1.82c0-.39-.04-.72-.13-.97-.09-.26-.22-.45-.41-.58s-.43-.2-.73-.2c-.27 0-.51.05-.7.16s-.36.28-.48.52l-.72-.28c.13-.23.28-.43.46-.6q.27-.255.63-.39c.24-.09.51-.13.82-.13.47 0 .85.09 1.15.27s.53.45.68.81.23.8.22 1.32v2.71z" fill="#fffdf0"/>
        <path d="M115.49 52.95v-4.99h.75l.05.92v4.08h-.8Zm3.51-2.56c0-.49-.06-.87-.17-1.13s-.27-.44-.47-.53c-.2-.1-.43-.15-.68-.15-.44 0-.78.15-1.02.46s-.36.75-.36 1.31h-.39c0-.53.08-.98.23-1.36s.38-.67.67-.87.65-.3 1.06-.3.73.08 1.02.23c.29.16.52.4.68.74s.24.79.23 1.34v.24h-.8Zm0 2.56v-2.56h.8v2.56z" fill="#fffdf0"/>
        <path d="M123.04 53.07c-.45 0-.84-.11-1.18-.33s-.6-.53-.79-.92c-.19-.4-.29-.85-.29-1.36s.09-.98.29-1.37c.19-.39.45-.7.79-.92s.73-.33 1.18-.33c.42 0 .79.11 1.1.33s.56.53.73.92.26.85.26 1.37-.09.97-.26 1.36c-.17.4-.42.7-.73.92s-.68.33-1.1.33m.18-.73q.435 0 .78-.24c.345-.24.4-.38.53-.67s.2-.61.2-.98-.07-.69-.2-.98-.31-.51-.53-.67-.49-.24-.79-.24-.59.08-.83.24-.43.38-.58.67c-.14.29-.21.61-.21.98s.07.69.21.98.33.51.58.67q.375.24.84.24m1.54.61-.04-.93v-6.06h.8v6.99z" fill="#fffdf0"/>
        <path d="M129.14 53.07c-.49 0-.93-.11-1.3-.33-.38-.22-.67-.53-.88-.92s-.32-.85-.32-1.36.11-.97.31-1.36c.21-.39.5-.7.88-.92q.57-.33 1.29-.33c.72 0 .92.11 1.29.33.38.22.67.53.88.92s.31.85.31 1.36-.1.97-.31 1.36-.5.7-.87.92-.8.33-1.28.33m-.01-.74c.33 0 .61-.08.86-.24s.45-.38.59-.66.21-.61.21-.97-.07-.69-.21-.97-.34-.5-.59-.66-.55-.24-.88-.24-.61.08-.86.24-.45.38-.59.66-.21.61-.21.98.07.69.21.97q.21.42.6.66t.87.24Z" fill="#fffdf0"/>
        <path d="M136.76 53.07c-.59 0-1.04-.13-1.37-.4s-.49-.64-.49-1.12c0-.51.17-.89.5-1.16.34-.27.81-.4 1.41-.4h1.43v.67h-1.25c-.47 0-.8.08-.99.23-.2.15-.29.37-.29.66 0 .26.1.46.29.61s.46.22.81.22q.435 0 .75-.18c.315-.18.38-.3.49-.53.12-.23.17-.5.17-.81h.34c0 .68-.15 1.22-.46 1.62s-.75.6-1.34.6Zm1.5-.12-.04-.82v-1.82c0-.39-.04-.72-.13-.97-.09-.26-.22-.45-.41-.58s-.43-.2-.73-.2c-.27 0-.51.05-.7.16s-.36.28-.48.52l-.72-.28c.13-.23.28-.43.46-.6q.27-.255.63-.39c.24-.09.51-.13.82-.13.47 0 .85.09 1.15.27s.53.45.68.81.23.8.22 1.32v2.71z" fill="#fffdf0"/>
        <path d="M142.32 48.64v-.69h3.17v.69zm.92 4.31v-5.56c0-.52.12-.91.37-1.17q.36-.39 1.11-.39c.13 0 .28.02.45.07s.34.11.53.2l-.3.63c-.15-.06-.28-.11-.39-.14s-.2-.05-.27-.05c-.23 0-.41.07-.52.22-.12.15-.17.38-.17.69v5.5h-.8Z" fill="#fffdf0"/>
        <path d="M148.62 53.07c-.49 0-.93-.11-1.3-.33-.38-.22-.67-.53-.88-.92s-.32-.85-.32-1.36.11-.97.31-1.36c.21-.39.5-.7.88-.92q.57-.33 1.29-.33c.72 0 .92.11 1.29.33.38.22.67.53.88.92s.31.85.31 1.36-.1.97-.31 1.36-.5.7-.87.92-.8.33-1.28.33m-.01-.74c.33 0 .61-.08.86-.24s.45-.38.59-.66.21-.61.21-.97-.07-.69-.21-.97-.34-.5-.59-.66-.55-.24-.88-.24-.61.08-.86.24-.45.38-.59.66-.21.61-.21.98.07.69.21.97q.21.42.6.66t.87.24Z" fill="#fffdf0"/>
        <path d="M152.19 52.95v-4.99h.8v4.99zm.44-2.71c0-.54.1-.98.31-1.31.21-.34.47-.59.79-.75q.48-.24 1.02-.24v.75q-.435 0-.84.15c-.27.1-.49.25-.66.47s-.26.52-.26.9l-.36.04Z" fill="#fffdf0"/>
        <path d="M155.57 52.95v-4.99h.75l.04.7c.15-.27.35-.47.59-.61q.36-.21.84-.21c.4 0 .74.09 1.02.28s.49.47.61.85c.14-.37.34-.65.61-.84s.59-.29.96-.29c.56 0 1 .19 1.32.56s.48.94.47 1.7v2.86h-.8V50.4c0-.49-.05-.87-.15-1.13s-.24-.44-.42-.53q-.255-.15-.6-.15c-.39 0-.7.15-.92.46s-.33.75-.33 1.31v2.59h-.8v-2.56c0-.49-.05-.87-.16-1.13s-.24-.44-.42-.53q-.27-.15-.6-.15c-.39 0-.69.15-.91.46s-.33.75-.33 1.31v2.59h-.8Z" fill="#fffdf0"/>
        <path d="M165.65 53.07c-.59 0-1.04-.13-1.37-.4s-.49-.64-.49-1.12c0-.51.17-.89.5-1.16.34-.27.81-.4 1.41-.4h1.43v.67h-1.25c-.47 0-.8.08-.99.23-.2.15-.29.37-.29.66 0 .26.1.46.29.61s.46.22.81.22q.435 0 .75-.18c.315-.18.38-.3.49-.53.12-.23.17-.5.17-.81h.34c0 .68-.15 1.22-.46 1.62s-.75.6-1.34.6Zm1.5-.12-.04-.82v-1.82c0-.39-.04-.72-.13-.97-.09-.26-.22-.45-.41-.58s-.43-.2-.73-.2c-.27 0-.51.05-.7.16s-.36.28-.48.52l-.72-.28c.13-.23.28-.43.46-.6q.27-.255.63-.39c.24-.09.51-.13.82-.13.47 0 .85.09 1.15.27s.53.45.68.81.23.8.22 1.32v2.71z" fill="#fffdf0"/>
        <path d="M169.17 52.95v-4.99h.8v4.99zm.43-2.71c0-.54.1-.98.31-1.31.21-.34.47-.59.79-.75q.48-.24 1.02-.24v.75q-.435 0-.84.15c-.27.1-.49.25-.66.47s-.26.52-.26.9l-.36.04Z" fill="#fffdf0"/>
        <path d="M174.59 48.64v-.69h3.17v.69zm.92 4.31v-5.56q0-.78.36-1.17t1.11-.39c.13 0 .28.02.45.07s.34.11.53.2l-.3.63c-.15-.06-.28-.11-.39-.14s-.2-.05-.27-.05c-.23 0-.41.07-.52.22s-.17.38-.17.69v5.5z" fill="#fffdf0"/>
        <path d="M180.85 53.07q-.735 0-1.29-.33c-.555-.33-.66-.53-.87-.92s-.31-.85-.31-1.36.1-.97.31-1.36.5-.7.87-.92.79-.33 1.27-.33.87.11 1.21.34.6.55.79.96.28.9.28 1.46h-4.12l.2-.17c0 .4.07.74.21 1.03s.34.5.6.65.56.22.89.22c.35 0 .65-.08.89-.25s.43-.39.56-.66l.69.35c-.13.26-.29.49-.5.68a2.4 2.4 0 0 1-1.68.61m-1.62-2.98-.21-.16h3.45l-.21.17c0-.32-.06-.6-.19-.83q-.195-.345-.51-.54c-.21-.13-.46-.19-.74-.19s-.53.06-.77.19-.44.3-.59.53-.22.5-.22.82Z" fill="#fffdf0"/>
        <path d="M183.87 52.95v-.64l2.95-3.66h-2.95v-.7h3.99v.62l-2.96 3.68h2.98v.7h-4Z" fill="#fffdf0"/>
        <path d="M191.21 53.07q-.735 0-1.29-.33c-.555-.33-.66-.53-.87-.92s-.31-.85-.31-1.36.11-.97.31-1.36c.21-.39.5-.7.87-.92s.79-.33 1.27-.33.87.11 1.21.34.6.55.79.96.28.9.28 1.46h-4.13l.2-.17c0 .4.07.74.21 1.03s.34.5.6.65.56.22.89.22c.35 0 .65-.08.89-.25s.43-.39.56-.66l.69.35c-.13.26-.29.49-.5.68a2.4 2.4 0 0 1-1.68.61Zm-1.62-2.98-.21-.16h3.45l-.21.17c0-.32-.06-.6-.19-.83q-.195-.345-.51-.54c-.315-.195-.46-.19-.74-.19s-.53.06-.77.19-.44.3-.59.53-.22.5-.22.82Z" fill="#fffdf0"/>
        <path d="M196.23 53.07c-.37 0-.69-.05-.96-.16s-.5-.25-.68-.43-.31-.38-.39-.59l.7-.29c.11.23.28.41.51.55q.345.21.75.21c.31 0 .58-.06.79-.19.21-.12.32-.3.32-.52 0-.21-.08-.37-.23-.5s-.39-.23-.69-.31l-.48-.13c-.45-.12-.81-.3-1.06-.54s-.38-.52-.38-.82c0-.47.16-.84.46-1.1s.77-.39 1.38-.39c.29 0 .56.04.8.13s.45.21.62.36c.17.16.3.34.38.55l-.7.31a.87.87 0 0 0-.43-.49c-.2-.1-.44-.15-.73-.15-.31 0-.55.06-.72.19s-.26.31-.26.54c0 .13.07.26.21.38s.35.21.63.28l.5.13c.33.08.6.2.82.35s.39.33.5.53.17.41.17.64q0 .45-.24.78c-.16.22-.38.39-.65.5-.27.12-.59.17-.94.17Z" fill="#fffdf0"/>
        <path d="M201.6 52.95v-4.99h.75l.04.7c.15-.27.35-.47.59-.61q.36-.21.84-.21c.4 0 .74.09 1.02.28s.49.47.61.85c.14-.37.34-.65.61-.84s.59-.29.96-.29c.56 0 1 .19 1.32.56s.48.94.47 1.7v2.86h-.8V50.4c0-.49-.05-.87-.15-1.13s-.24-.44-.42-.53q-.255-.15-.6-.15c-.39 0-.7.15-.92.46s-.33.75-.33 1.31v2.59h-.8v-2.56c0-.49-.05-.87-.16-1.13s-.24-.44-.42-.53q-.27-.15-.6-.15c-.39 0-.69.15-.91.46s-.33.75-.33 1.31v2.59h-.8Z" fill="#fffdf0"/>
        <path d="M212.29 53.07q-.735 0-1.29-.33c-.555-.33-.66-.53-.87-.92s-.31-.85-.31-1.36.11-.97.31-1.36c.21-.39.5-.7.87-.92s.79-.33 1.27-.33.87.11 1.21.34.6.55.79.96.28.9.28 1.46h-4.13l.2-.17c0 .4.07.74.21 1.03s.34.5.6.65.56.22.89.22c.35 0 .65-.08.89-.25s.43-.39.56-.66l.69.35c-.13.26-.29.49-.5.68a2.4 2.4 0 0 1-1.68.61Zm-1.62-2.98-.21-.16h3.45l-.21.17c0-.32-.06-.6-.19-.83q-.195-.345-.51-.54c-.315-.195-.46-.19-.74-.19s-.53.06-.77.19-.44.3-.59.53-.22.5-.22.82Z" fill="#fffdf0"/>
        <path d="M215.56 52.95v-4.99h.75l.05.92v4.08h-.8Zm3.5-2.56c0-.49-.06-.87-.17-1.13s-.27-.44-.47-.53c-.2-.1-.43-.15-.68-.15-.44 0-.78.15-1.02.46s-.36.75-.36 1.31h-.39c0-.53.08-.98.23-1.36s.38-.67.67-.87.65-.3 1.06-.3.73.08 1.02.23c.29.16.52.4.68.74s.24.79.23 1.34v.24h-.8Zm0 2.56v-2.56h.8v2.56z" fill="#fffdf0"/>
        <path d="M223.35 53.07c-.49 0-.93-.11-1.3-.33s-.67-.53-.88-.92-.32-.85-.32-1.36.1-.97.31-1.36.5-.7.88-.92.81-.33 1.29-.33.92.11 1.29.33.67.53.88.92.32.85.32 1.36-.11.97-.32 1.36-.5.7-.87.92-.8.33-1.28.33m-.01-.74c.33 0 .61-.08.86-.24s.45-.38.59-.66.21-.61.21-.97-.07-.69-.21-.97-.34-.5-.59-.66-.55-.24-.88-.24-.61.08-.86.24-.45.38-.59.66-.21.61-.21.98.07.69.21.97q.21.42.6.66t.87.24Z" fill="#fffdf0"/>
        <path d="M228.67 53.07c-.37 0-.69-.05-.96-.16s-.5-.25-.68-.43-.31-.38-.39-.59l.7-.29c.11.23.28.41.51.55q.345.21.75.21c.31 0 .58-.06.79-.19.21-.12.32-.3.32-.52 0-.21-.08-.37-.23-.5s-.39-.23-.69-.31l-.48-.13c-.45-.12-.81-.3-1.06-.54s-.38-.52-.38-.82c0-.47.16-.84.46-1.1s.77-.39 1.38-.39c.29 0 .56.04.8.13s.45.21.62.36c.17.16.3.34.38.55l-.7.31a.87.87 0 0 0-.43-.49c-.2-.1-.44-.15-.73-.15-.31 0-.55.06-.72.19s-.26.31-.26.54c0 .13.07.26.21.38s.35.21.63.28l.5.13c.33.08.6.2.82.35s.39.33.5.53.17.41.17.64q0 .45-.24.78c-.16.22-.38.39-.65.5-.27.12-.59.17-.94.17Z" fill="#fffdf0"/>
        <path d="m92.67 64.55-2.09-4.99h.83l2.04 4.99zm.05 0 2.04-4.99h.84l-2.09 4.99z" fill="#fffdf0"/>
        <path d="M98.48 64.67c-.49 0-.93-.11-1.3-.33-.38-.22-.67-.53-.88-.92s-.32-.85-.32-1.36.11-.97.31-1.36c.21-.39.5-.7.88-.92q.57-.33 1.29-.33c.72 0 .92.11 1.29.33.38.22.67.53.88.92s.31.85.31 1.36-.1.97-.31 1.36-.5.7-.87.92-.8.33-1.28.33m-.01-.74c.33 0 .61-.08.86-.24s.45-.38.59-.66.21-.61.21-.97-.07-.69-.21-.97-.34-.5-.59-.66-.55-.24-.88-.24-.61.08-.86.24-.45.38-.59.66-.21.61-.21.98.07.69.21.97q.21.42.6.66t.87.24Z" fill="#fffdf0"/>
        <path d="M102.06 64.55v-6.99h.8v6.99z" fill="#fffdf0"/>
        <path d="M104.13 62.11v-2.56h.8v2.56zm.8 0c0 .49.06.87.17 1.13s.27.44.47.53c.2.1.43.14.68.14.43 0 .77-.16 1.01-.47s.37-.75.37-1.31h.39c0 .53-.08.98-.23 1.36s-.37.67-.66.87-.64.3-1.06.3c-.39 0-.73-.08-1.02-.23-.29-.16-.52-.41-.68-.75s-.24-.79-.24-1.33v-.24zm2.75 2.44-.05-.92v-4.08h.8v4.99h-.75Z" fill="#fffdf0"/>
        <path d="M109.83 64.55v-4.99h.75l.04.7c.15-.27.35-.47.59-.61q.36-.21.84-.21c.4 0 .74.09 1.02.28s.49.47.61.85c.14-.37.34-.65.61-.84s.59-.29.96-.29c.56 0 1 .19 1.32.56s.48.94.47 1.7v2.86h-.8V62c0-.49-.05-.87-.15-1.13s-.24-.44-.42-.53q-.255-.15-.6-.15c-.39 0-.7.15-.92.46s-.33.75-.33 1.31v2.59h-.8v-2.56c0-.49-.05-.87-.16-1.13s-.24-.44-.42-.53q-.27-.15-.6-.15c-.39 0-.69.15-.91.46s-.33.75-.33 1.31v2.59h-.8Z" fill="#fffdf0"/>
        <path d="M120.55 64.67c-.49 0-.93-.11-1.3-.33-.38-.22-.67-.53-.88-.92s-.32-.85-.32-1.36.11-.97.31-1.36c.21-.39.5-.7.88-.92q.57-.33 1.29-.33c.72 0 .92.11 1.29.33.38.22.67.53.88.92s.31.85.31 1.36-.1.97-.31 1.36-.5.7-.87.92-.8.33-1.28.33m-.01-.74c.33 0 .61-.08.86-.24s.45-.38.59-.66.21-.61.21-.97-.07-.69-.21-.97-.34-.5-.59-.66-.55-.24-.88-.24-.61.08-.86.24-.45.38-.59.66-.21.61-.21.98.07.69.21.97q.21.42.6.66t.87.24Z" fill="#fffdf0"/>
        <path d="M125.87 64.67c-.37 0-.69-.05-.96-.16s-.5-.25-.68-.43-.32-.38-.39-.59l.7-.29c.11.23.28.41.51.55q.345.21.75.21c.31 0 .58-.06.79-.19.21-.12.32-.3.32-.52 0-.21-.08-.37-.23-.5-.16-.13-.39-.23-.69-.31l-.48-.13c-.45-.12-.81-.3-1.06-.54s-.38-.52-.38-.82c0-.47.15-.84.46-1.1s.77-.39 1.38-.39c.29 0 .56.04.8.13s.45.21.62.36c.17.16.3.34.38.55l-.7.31c-.09-.23-.23-.39-.43-.49s-.44-.15-.73-.15c-.31 0-.55.06-.72.19s-.26.31-.26.54c0 .13.07.26.21.38s.35.21.63.28l.5.13c.33.08.6.2.82.35s.39.33.5.53.17.41.17.64q0 .45-.24.78c-.16.22-.38.39-.65.5-.27.12-.59.17-.94.17Z" fill="#fffdf0"/>
        <path d="M130.36 64.67c-.59 0-1.04-.13-1.37-.4s-.49-.64-.49-1.12c0-.51.17-.89.5-1.16.34-.27.81-.4 1.41-.4h1.43v.67h-1.25c-.47 0-.8.08-.99.23-.2.15-.29.37-.29.66 0 .26.1.46.29.61s.46.22.81.22q.435 0 .75-.18c.315-.18.38-.3.49-.53.12-.23.17-.5.17-.81h.34c0 .68-.15 1.22-.46 1.62s-.75.6-1.34.6Zm1.5-.12-.04-.82v-1.82c0-.39-.04-.72-.13-.97-.09-.26-.22-.45-.41-.58s-.43-.2-.73-.2c-.27 0-.51.05-.7.16s-.36.28-.48.52l-.72-.28c.13-.23.28-.43.46-.6q.27-.255.63-.39c.24-.09.51-.13.82-.13.47 0 .85.09 1.15.27s.53.45.68.81.23.8.22 1.32v2.71z" fill="#fffdf0"/>
        <path d="M135.62 64.67c-.37 0-.69-.05-.96-.16s-.5-.25-.68-.43-.32-.38-.39-.59l.7-.29c.11.23.28.41.51.55q.345.21.75.21c.31 0 .58-.06.79-.19.21-.12.32-.3.32-.52 0-.21-.08-.37-.23-.5-.16-.13-.39-.23-.69-.31l-.48-.13c-.45-.12-.81-.3-1.06-.54s-.38-.52-.38-.82c0-.47.15-.84.46-1.1s.77-.39 1.38-.39c.29 0 .56.04.8.13s.45.21.62.36c.17.16.3.34.38.55l-.7.31c-.09-.23-.23-.39-.43-.49s-.44-.15-.73-.15c-.31 0-.55.06-.72.19s-.26.31-.26.54c0 .13.07.26.21.38s.35.21.63.28l.5.13c.33.08.6.2.82.35s.39.33.5.53.17.41.17.64q0 .45-.24.78c-.16.22-.38.39-.65.5-.27.12-.59.17-.94.17Z" fill="#fffdf0"/>
        <path d="m138.23 65.69.57-2.11h.9l-.78 2.11z" fill="#fffdf0"/>
        <path d="M143.25 64.55v-4.99h.75l.04.7c.15-.27.35-.47.59-.61q.36-.21.84-.21c.4 0 .74.09 1.02.28s.49.47.61.85c.14-.37.34-.65.61-.84s.59-.29.96-.29c.56 0 1 .19 1.32.56s.48.94.47 1.7v2.86h-.8V62c0-.49-.05-.87-.15-1.13s-.24-.44-.42-.53q-.255-.15-.6-.15c-.39 0-.7.15-.92.46s-.33.75-.33 1.31v2.59h-.8v-2.56c0-.49-.05-.87-.16-1.13s-.24-.44-.42-.53q-.27-.15-.6-.15c-.39 0-.69.15-.91.46s-.33.75-.33 1.31v2.59h-.8Z" fill="#fffdf0"/>
        <path d="M153.33 64.67c-.59 0-1.04-.13-1.37-.4s-.49-.64-.49-1.12c0-.51.17-.89.5-1.16.34-.27.81-.4 1.41-.4h1.43v.67h-1.25c-.47 0-.8.08-.99.23-.2.15-.29.37-.29.66 0 .26.1.46.29.61s.46.22.81.22q.435 0 .75-.18c.315-.18.38-.3.49-.53.12-.23.17-.5.17-.81h.34c0 .68-.15 1.22-.46 1.62s-.75.6-1.34.6Zm1.5-.12-.04-.82v-1.82c0-.39-.04-.72-.13-.97-.09-.26-.22-.45-.41-.58s-.43-.2-.73-.2c-.27 0-.51.05-.7.16s-.36.28-.48.52l-.72-.28c.13-.23.28-.43.46-.6q.27-.255.63-.39c.24-.09.51-.13.82-.13.47 0 .85.09 1.15.27s.53.45.68.81.23.8.22 1.32v2.71z" fill="#fffdf0"/>
        <path d="M157.31 58.39c-.13 0-.25-.05-.35-.15a.485.485 0 0 1 0-.7c.1-.09.22-.15.35-.15s.26.05.35.15.14.21.14.35-.05.25-.14.35-.21.15-.35.15m-.41 6.16v-4.99h.8v4.99z" fill="#fffdf0"/>
        <path d="M160.91 64.67c-.37 0-.69-.05-.96-.16s-.5-.25-.68-.43-.32-.38-.39-.59l.7-.29c.11.23.28.41.51.55q.345.21.75.21c.31 0 .58-.06.79-.19.21-.12.32-.3.32-.52 0-.21-.08-.37-.23-.5-.16-.13-.39-.23-.69-.31l-.48-.13c-.45-.12-.81-.3-1.06-.54s-.38-.52-.38-.82c0-.47.15-.84.46-1.1s.77-.39 1.38-.39c.29 0 .56.04.8.13s.45.21.62.36c.17.16.3.34.38.55l-.7.31c-.09-.23-.23-.39-.43-.49s-.44-.15-.73-.15c-.31 0-.55.06-.72.19s-.26.31-.26.54c0 .13.07.26.21.38s.35.21.63.28l.5.13c.33.08.6.2.82.35s.39.33.5.53.17.41.17.64q0 .45-.24.78c-.16.22-.38.39-.65.5-.27.12-.59.17-.94.17Z" fill="#fffdf0"/>
        <path d="M165.87 60.24v-.69h3.17v.69zm.92 4.31v-5.56q0-.78.36-1.17t1.11-.39c.13 0 .28.02.45.07s.34.11.53.2l-.3.63c-.15-.06-.28-.11-.39-.14s-.2-.05-.27-.05c-.23 0-.41.07-.52.22s-.17.38-.17.69v5.5z" fill="#fffdf0"/>
        <path d="M170.43 58.39c-.13 0-.25-.05-.35-.15a.485.485 0 0 1 0-.7.485.485 0 0 1 .7 0c.1.1.15.21.15.35s-.05.25-.15.35-.21.15-.35.15m-.41 6.16v-4.99h.8v4.99z" fill="#fffdf0"/>
        <path d="M172.29 64.55v-4.99h.8v4.99zm.44-2.71c0-.54.1-.98.31-1.31.21-.34.47-.59.79-.75q.48-.24 1.02-.24v.75c-.29 0-.58.05-.84.15-.27.1-.49.25-.66.47s-.26.52-.26.9l-.36.04Z" fill="#fffdf0"/>
        <path d="M175.67 64.55v-4.99h.75l.04.7c.15-.27.35-.47.59-.61q.36-.21.84-.21c.4 0 .74.09 1.02.28s.49.47.61.85c.14-.37.34-.65.61-.84s.59-.29.96-.29c.56 0 1 .19 1.32.56s.48.94.47 1.7v2.86h-.8V62c0-.49-.05-.87-.16-1.13s-.24-.44-.41-.53q-.255-.15-.6-.15c-.39 0-.7.15-.92.46s-.33.75-.33 1.31v2.59h-.8v-2.56c0-.49-.05-.87-.16-1.13-.1-.26-.24-.44-.42-.53q-.27-.15-.6-.15c-.39 0-.69.15-.91.46s-.33.75-.33 1.31v2.59h-.8Z" fill="#fffdf0"/>
        <path d="M186.36 64.67q-.735 0-1.29-.33c-.555-.33-.66-.53-.87-.92s-.31-.85-.31-1.36.1-.97.31-1.36.5-.7.87-.92.79-.33 1.27-.33.87.11 1.21.34.6.55.79.96.28.9.28 1.46h-4.12l.2-.17c0 .4.07.74.21 1.03s.34.5.6.65.56.22.89.22c.35 0 .65-.08.89-.25s.43-.39.56-.66l.69.35c-.13.26-.29.49-.5.68a2.4 2.4 0 0 1-1.68.61m-1.62-2.98-.21-.16h3.45l-.21.17c0-.32-.06-.6-.19-.83q-.195-.345-.51-.54c-.21-.13-.46-.19-.74-.19s-.53.06-.77.19-.44.3-.59.53-.22.5-.22.82Z" fill="#fffdf0"/>
        <path d="M191.37 64.67c-.37 0-.69-.05-.96-.16s-.5-.25-.68-.43-.32-.38-.39-.59l.7-.29c.11.23.28.41.51.55q.345.21.75.21c.31 0 .58-.06.79-.19.21-.12.32-.3.32-.52 0-.21-.08-.37-.23-.5-.16-.13-.39-.23-.69-.31l-.48-.13c-.45-.12-.81-.3-1.06-.54s-.38-.52-.38-.82c0-.47.15-.84.46-1.1s.77-.39 1.38-.39c.29 0 .56.04.8.13s.45.21.62.36c.17.16.3.34.38.55l-.7.31c-.09-.23-.23-.39-.43-.49s-.44-.15-.73-.15c-.31 0-.55.06-.72.19s-.26.31-.26.54c0 .13.07.26.21.38s.35.21.63.28l.5.13c.33.08.6.2.82.35s.39.33.5.53.17.41.17.64q0 .45-.24.78c-.16.22-.38.39-.65.5-.27.12-.59.17-.94.17Z" fill="#fffdf0"/>
        <path d="M198.93 64.67q-.735 0-1.29-.33c-.555-.33-.66-.53-.87-.92s-.31-.85-.31-1.36.1-.97.31-1.36.5-.7.87-.92.79-.33 1.27-.33.87.11 1.21.34.6.55.79.96.28.9.28 1.46h-4.12l.2-.17c0 .4.07.74.21 1.03s.34.5.6.65.56.22.89.22c.35 0 .65-.08.89-.25s.43-.39.56-.66l.69.35c-.13.26-.29.49-.5.68a2.4 2.4 0 0 1-1.68.61m-1.62-2.98-.21-.16h3.45l-.21.17c0-.32-.06-.6-.19-.83q-.195-.345-.51-.54c-.21-.13-.46-.19-.74-.19s-.53.06-.77.19-.44.3-.59.53-.22.5-.22.82Z" fill="#fffdf0"/>
        <path d="M206.89 64.67c-.49 0-.93-.11-1.31-.33s-.68-.53-.89-.92-.32-.85-.32-1.36.11-.97.31-1.36c.21-.39.5-.7.88-.92s.81-.33 1.3-.33.91.11 1.29.33.67.53.87.93l-.73.33c-.13-.27-.33-.47-.58-.62s-.54-.23-.87-.23-.61.08-.86.24-.45.38-.59.66-.21.61-.21.97.07.69.21.97q.21.42.6.66t.87.24c.48 0 .62-.08.87-.25.26-.17.45-.4.58-.7l.73.33c-.2.43-.49.76-.87 1s-.81.36-1.3.36Z" fill="#fffdf0"/>
        <path d="M212.29 64.67c-.49 0-.93-.11-1.3-.33s-.67-.53-.88-.92-.32-.85-.32-1.36.1-.97.31-1.36.5-.7.88-.92.81-.33 1.29-.33.92.11 1.29.33.67.53.88.92.32.85.32 1.36-.11.97-.32 1.36-.5.7-.87.92-.8.33-1.28.33m-.01-.74c.33 0 .61-.08.86-.24s.45-.38.59-.66.21-.61.21-.97-.07-.69-.21-.97-.34-.5-.59-.66-.55-.24-.88-.24-.61.08-.86.24-.45.38-.59.66-.21.61-.21.98.07.69.21.97q.21.42.6.66t.87.24Z" fill="#fffdf0"/>
        <path d="M215.86 64.55v-4.99h.75l.04.7c.15-.27.35-.47.59-.61q.36-.21.84-.21c.4 0 .74.09 1.02.28s.49.47.61.85c.14-.37.34-.65.61-.84s.59-.29.96-.29c.56 0 1 .19 1.32.56s.48.94.47 1.7v2.86h-.8V62c0-.49-.05-.87-.15-1.13s-.24-.44-.42-.53q-.255-.15-.6-.15c-.39 0-.7.15-.92.46s-.33.75-.33 1.31v2.59h-.8v-2.56c0-.49-.05-.87-.16-1.13s-.24-.44-.42-.53q-.27-.15-.6-.15c-.39 0-.69.15-.91.46s-.33.75-.33 1.31v2.59h-.8Z" fill="#fffdf0"/>
        <path d="M226.83 64.55v-4.99h.75l.04.7c.15-.27.35-.47.59-.61q.36-.21.84-.21c.4 0 .74.09 1.02.28s.49.47.61.85c.14-.37.34-.65.61-.84s.59-.29.96-.29c.56 0 1 .19 1.32.56s.48.94.47 1.7v2.86h-.8V62c0-.49-.05-.87-.16-1.13s-.24-.44-.41-.53q-.255-.15-.6-.15c-.39 0-.7.15-.92.46s-.33.75-.33 1.31v2.59h-.8v-2.56c0-.49-.05-.87-.16-1.13-.1-.26-.24-.44-.42-.53q-.27-.15-.6-.15c-.39 0-.69.15-.91.46s-.33.75-.33 1.31v2.59h-.8Z" fill="#fffdf0"/>
        <path d="M237.52 64.67q-.735 0-1.29-.33c-.555-.33-.66-.53-.87-.92s-.31-.85-.31-1.36.1-.97.31-1.36.5-.7.87-.92.79-.33 1.27-.33.87.11 1.21.34.6.55.79.96.28.9.28 1.46h-4.12l.2-.17c0 .4.07.74.21 1.03s.34.5.6.65.56.22.89.22c.35 0 .65-.08.89-.25s.43-.39.56-.66l.69.35c-.13.26-.29.49-.5.68a2.4 2.4 0 0 1-1.68.61m-1.62-2.98-.21-.16h3.45l-.21.17c0-.32-.06-.6-.19-.83q-.195-.345-.51-.54c-.21-.13-.46-.19-.74-.19s-.53.06-.77.19-.44.3-.59.53-.22.5-.22.82Z" fill="#fffdf0"/>
        <path d="M240.79 64.55v-4.99h.75l.05.92v4.08h-.8Zm3.5-2.56c0-.49-.06-.87-.17-1.13s-.27-.44-.47-.53c-.2-.1-.43-.15-.68-.15-.44 0-.78.15-1.02.46s-.36.75-.36 1.31h-.39c0-.53.08-.98.23-1.36s.38-.67.67-.87.65-.3 1.06-.3.73.08 1.02.23c.29.16.52.4.68.74s.24.79.23 1.34v.24h-.8Zm0 2.56v-2.56h.8v2.56z" fill="#fffdf0"/>
        <path d="M248.58 64.67c-.49 0-.93-.11-1.3-.33-.38-.22-.67-.53-.88-.92s-.32-.85-.32-1.36.11-.97.31-1.36c.21-.39.5-.7.88-.92q.57-.33 1.29-.33c.72 0 .92.11 1.29.33.38.22.67.53.88.92s.31.85.31 1.36-.1.97-.31 1.36-.5.7-.87.92-.8.33-1.28.33m-.01-.74c.33 0 .61-.08.86-.24s.45-.38.59-.66.21-.61.21-.97-.07-.69-.21-.97-.34-.5-.59-.66-.55-.24-.88-.24-.61.08-.86.24-.45.38-.59.66-.21.61-.21.98.07.69.21.97q.21.42.6.66t.87.24Z" fill="#fffdf0"/>
        <path d="M253.9 64.67c-.37 0-.69-.05-.96-.16s-.5-.25-.68-.43-.32-.38-.39-.59l.7-.29c.11.23.28.41.51.55q.345.21.75.21c.31 0 .58-.06.79-.19.21-.12.32-.3.32-.52 0-.21-.08-.37-.23-.5-.16-.13-.39-.23-.69-.31l-.48-.13c-.45-.12-.81-.3-1.06-.54s-.38-.52-.38-.82c0-.47.15-.84.46-1.1s.77-.39 1.38-.39c.29 0 .56.04.8.13s.45.21.62.36c.17.16.3.34.38.55l-.7.31c-.09-.23-.23-.39-.43-.49s-.44-.15-.73-.15c-.31 0-.55.06-.72.19s-.26.31-.26.54c0 .13.07.26.21.38s.35.21.63.28l.5.13c.33.08.6.2.82.35s.39.33.5.53.17.41.17.64q0 .45-.24.78c-.16.22-.38.39-.65.5-.27.12-.59.17-.94.17Z" fill="#fffdf0"/>
        <path d="M93.41 76.27c-.49 0-.93-.11-1.3-.33s-.67-.53-.88-.92-.32-.85-.32-1.36.1-.97.31-1.36.5-.7.88-.92.81-.33 1.29-.33.92.11 1.29.33.67.53.88.92.32.85.32 1.36-.11.97-.32 1.36-.5.7-.87.92-.8.33-1.28.33m-.01-.74c.33 0 .61-.08.86-.24s.45-.38.59-.66.21-.61.21-.97-.07-.69-.21-.97-.34-.5-.59-.66-.55-.24-.88-.24-.61.08-.86.24-.45.38-.59.66-.21.61-.21.98.07.69.21.97q.21.42.6.66t.87.24Z" fill="#fffdf0"/>
        <path d="M98.75 76.27c-.45 0-.84-.11-1.18-.33s-.6-.53-.79-.92c-.19-.4-.28-.85-.28-1.36s.09-.98.28-1.37.46-.7.79-.92c.34-.22.73-.33 1.18-.33.42 0 .79.11 1.1.33.32.22.56.53.73.92s.26.85.26 1.37-.09.97-.26 1.36c-.17.4-.42.7-.73.92-.32.22-.68.33-1.1.33m.18-.73q.435 0 .78-.24c.345-.24.41-.38.54-.67s.19-.61.19-.98-.06-.69-.19-.98-.31-.51-.54-.67-.49-.24-.79-.24-.59.08-.83.24-.43.38-.57.67-.21.61-.21.98.07.69.21.98.33.51.58.67.53.24.84.24Zm1.55.61-.04-.93v-6.06h.8v6.99z" fill="#fffdf0"/>
        <path d="M104.66 76.27c-.49 0-.93-.11-1.3-.33-.38-.22-.67-.53-.88-.92s-.32-.85-.32-1.36.11-.97.31-1.36c.21-.39.5-.7.88-.92q.57-.33 1.29-.33c.72 0 .92.11 1.29.33.38.22.67.53.88.92s.31.85.31 1.36-.1.97-.31 1.36-.5.7-.87.92-.8.33-1.28.33m-.01-.74c.33 0 .61-.08.86-.24s.45-.38.59-.66.21-.61.21-.97-.07-.69-.21-.97-.34-.5-.59-.66-.55-.24-.88-.24-.61.08-.86.24-.45.38-.59.66-.21.61-.21.98.07.69.21.97q.21.42.6.66t.87.24Z" fill="#fffdf0"/>
        <path d="M108.03 76.15v-4.99h.8v4.99zm.44-2.71c0-.54.1-.98.31-1.31.21-.34.47-.59.79-.75q.48-.24 1.02-.24v.75c-.29 0-.58.05-.84.15-.27.1-.49.25-.66.47s-.26.52-.26.9l-.36.04Z" fill="#fffdf0"/>
        <path d="m110.91 77.29.57-2.11h.9l-.78 2.11z" fill="#fffdf0"/>
        <path d="M115.01 71.86v-.71h3.17v.71zm2.4 4.41c-.49 0-.86-.13-1.13-.38s-.4-.61-.4-1.07V69.6h.8v5.14c0 .25.07.45.2.58q.21.21.57.21c.08 0 .16-.01.24-.04.08-.02.18-.08.3-.17l.31.65c-.17.11-.33.19-.47.23s-.28.06-.43.06Z" fill="#fffdf0"/>
        <path d="M121.3 76.27c-.49 0-.93-.11-1.3-.33-.38-.22-.67-.53-.88-.92s-.32-.85-.32-1.36.11-.97.31-1.36c.21-.39.5-.7.88-.92q.57-.33 1.29-.33c.72 0 .92.11 1.29.33.38.22.67.53.88.92s.31.85.31 1.36-.1.97-.31 1.36-.5.7-.87.92-.8.33-1.28.33m-.01-.74c.33 0 .61-.08.86-.24s.45-.38.59-.66.21-.61.21-.97-.07-.69-.21-.97-.34-.5-.59-.66-.55-.24-.88-.24-.61.08-.86.24-.45.38-.59.66-.21.61-.21.98.07.69.21.97q.21.42.6.66t.87.24Z" fill="#fffdf0"/>
        <path d="M124.67 76.15v-4.99h.8v4.99zm.44-2.71c0-.54.1-.98.31-1.31.21-.34.47-.59.79-.75q.48-.24 1.02-.24v.75c-.29 0-.58.05-.84.15-.27.1-.49.25-.66.47s-.26.52-.26.9l-.36.04Z" fill="#fffdf0"/>
        <path d="M127.85 76.15v-4.99h.75l.05.92v4.08h-.8Zm3.51-2.56c0-.49-.06-.87-.17-1.13s-.27-.44-.47-.53c-.2-.1-.43-.15-.68-.15-.44 0-.78.15-1.02.46s-.36.75-.36 1.31h-.39c0-.53.08-.98.23-1.36s.38-.67.67-.87.65-.3 1.06-.3.73.08 1.02.23c.29.16.52.4.68.74s.24.79.23 1.34v.24h-.8Zm0 2.56v-2.56h.8v2.56z" fill="#fffdf0"/>
        <path d="M134.8 76.27c-.59 0-1.04-.13-1.37-.4s-.49-.64-.49-1.12c0-.51.17-.89.5-1.16s.81-.4 1.41-.4h1.43v.67h-1.25c-.47 0-.8.08-.99.23s-.29.37-.29.66c0 .26.1.46.29.61s.46.22.81.22q.435 0 .75-.18c.21-.12.38-.3.49-.53.12-.23.17-.5.17-.81h.34c0 .68-.15 1.22-.46 1.62s-.75.6-1.34.6Zm1.5-.12-.04-.82v-1.82c0-.39-.04-.72-.13-.97-.09-.26-.22-.45-.41-.58s-.43-.2-.73-.2c-.27 0-.51.05-.7.16-.2.11-.36.28-.48.52l-.72-.28c.13-.23.28-.43.46-.6q.27-.255.63-.39c.24-.09.51-.13.82-.13.47 0 .85.09 1.15.27s.53.45.68.81.23.8.22 1.32v2.71z" fill="#fffdf0"/>
        <path d="M138.12 76.15v-4.99h.75l.05.92v4.08h-.8Zm3.51-2.56c0-.49-.06-.87-.17-1.13s-.27-.44-.47-.53c-.2-.1-.43-.15-.68-.15-.44 0-.78.15-1.02.46s-.36.75-.36 1.31h-.39c0-.53.08-.98.23-1.36s.38-.67.67-.87.65-.3 1.06-.3.73.08 1.02.23c.29.16.52.4.68.74s.24.79.23 1.34v.24h-.8Zm0 2.56v-2.56h.8v2.56z" fill="#fffdf0"/>
        <path d="M145.46 76.27c-.45 0-.84-.11-1.18-.33s-.6-.53-.79-.92c-.19-.4-.28-.85-.28-1.36s.09-.98.28-1.37.46-.7.79-.92c.34-.22.73-.33 1.18-.33.42 0 .79.11 1.1.33.32.22.56.53.73.92s.26.85.26 1.37-.09.97-.26 1.36c-.17.4-.42.7-.73.92-.32.22-.68.33-1.1.33m.18-.73q.435 0 .78-.24c.345-.24.41-.38.54-.67s.19-.61.19-.98-.06-.69-.19-.98-.31-.51-.54-.67-.49-.24-.79-.24-.59.08-.83.24-.43.38-.57.67-.21.61-.21.98.07.69.21.98.33.51.58.67.53.24.84.24Zm1.55.61-.04-.93v-6.06h.8v6.99z" fill="#fffdf0"/>
        <path d="M151.37 76.27c-.49 0-.93-.11-1.3-.33-.38-.22-.67-.53-.88-.92s-.32-.85-.32-1.36.11-.97.31-1.36c.21-.39.5-.7.88-.92q.57-.33 1.29-.33c.72 0 .92.11 1.29.33.38.22.67.53.88.92s.31.85.31 1.36-.1.97-.31 1.36-.5.7-.87.92-.8.33-1.28.33m-.02-.74c.33 0 .61-.08.86-.24s.45-.38.59-.66.21-.61.21-.97-.07-.69-.21-.97-.34-.5-.59-.66-.55-.24-.88-.24-.61.08-.86.24-.45.38-.59.66-.21.61-.21.98.07.69.21.97q.21.42.6.66t.87.24Z" fill="#fffdf0"/>
        <path d="M158.59 76.27c-.59 0-1.04-.13-1.37-.4s-.49-.64-.49-1.12c0-.51.17-.89.5-1.16.34-.27.81-.4 1.41-.4h1.43v.67h-1.25c-.47 0-.8.08-.99.23-.2.15-.29.37-.29.66 0 .26.1.46.29.61s.46.22.81.22q.435 0 .75-.18c.315-.18.38-.3.49-.53.12-.23.17-.5.17-.81h.34c0 .68-.15 1.22-.46 1.62s-.75.6-1.34.6Zm1.5-.12-.04-.82v-1.82c0-.39-.04-.72-.13-.97-.09-.26-.22-.45-.41-.58s-.43-.2-.73-.2c-.27 0-.51.05-.7.16s-.36.28-.48.52l-.72-.28c.13-.23.28-.43.46-.6q.27-.255.63-.39c.24-.09.51-.13.82-.13.47 0 .85.09 1.15.27s.53.45.68.81.23.8.22 1.32v2.71z" fill="#fffdf0"/>
        <path d="M164.17 76.15v-6.99h.8v6.99z" fill="#fffdf0"/>
        <path d="M166.63 69.99c-.13 0-.25-.05-.35-.15a.485.485 0 0 1 0-.7.485.485 0 0 1 .7 0c.1.1.15.21.15.35s-.05.25-.15.35-.21.15-.35.15m-.41 6.16v-4.99h.8v4.99z" fill="#fffdf0"/>
        <path d="M168.29 76.15v-4.99h.75l.04.7c.15-.27.35-.47.59-.61q.36-.21.84-.21c.4 0 .74.09 1.02.28s.49.47.61.85c.14-.37.34-.65.61-.84s.59-.29.96-.29c.56 0 1 .19 1.32.56s.48.94.47 1.7v2.86h-.8V73.6c0-.49-.05-.87-.16-1.13s-.24-.44-.41-.53q-.255-.15-.6-.15c-.39 0-.7.15-.92.46s-.33.75-.33 1.31v2.59h-.8v-2.56c0-.49-.05-.87-.16-1.13-.1-.26-.24-.44-.42-.53q-.27-.15-.6-.15c-.39 0-.69.15-.91.46s-.33.75-.33 1.31v2.59h-.8Z" fill="#fffdf0"/>
        <path d="M176.64 78.14v-6.99h.75l.05.92v6.07zm2.48-1.87c-.42 0-.79-.11-1.1-.33-.32-.22-.56-.53-.73-.92-.17-.4-.26-.85-.26-1.36s.09-.98.26-1.37.42-.7.73-.92c.32-.22.68-.33 1.1-.33.45 0 .84.11 1.18.33s.6.53.79.92.29.85.29 1.37-.09.97-.29 1.36c-.19.4-.45.7-.79.92s-.73.33-1.18.33m-.18-.73c.31 0 .59-.08.83-.24s.44-.38.58-.66.21-.61.21-.98-.07-.69-.21-.98-.33-.51-.57-.67-.52-.24-.84-.24q-.435 0-.78.24c-.345.24-.41.38-.54.66s-.2.61-.2.98.07.69.2.98.31.51.53.67.49.24.78.24Z" fill="#fffdf0"/>
        <path d="M184.48 76.27q-.735 0-1.29-.33c-.555-.33-.66-.53-.87-.92s-.31-.85-.31-1.36.1-.97.31-1.36.5-.7.87-.92.79-.33 1.27-.33.87.11 1.21.34.6.55.79.96.28.9.28 1.46h-4.12l.2-.17c0 .4.07.74.21 1.03s.34.5.6.65.56.22.89.22c.35 0 .65-.08.89-.25s.43-.39.56-.66l.69.35c-.13.26-.29.49-.5.68a2.4 2.4 0 0 1-1.68.61m-1.62-2.98-.21-.16h3.45l-.21.17c0-.32-.06-.6-.19-.83q-.195-.345-.51-.54c-.21-.13-.46-.19-.74-.19s-.53.06-.77.19-.44.3-.59.53-.22.5-.22.82Z" fill="#fffdf0"/>
        <path d="M187.3 76.15v-.64l2.95-3.66h-2.95v-.7h3.99v.62l-2.96 3.68h2.98v.7z" fill="#fffdf0"/>
        <path d="M193.83 76.27c-.59 0-1.04-.13-1.37-.4s-.49-.64-.49-1.12c0-.51.17-.89.5-1.16s.81-.4 1.41-.4h1.43v.67h-1.25c-.47 0-.8.08-.99.23s-.29.37-.29.66c0 .26.1.46.29.61s.46.22.81.22q.435 0 .75-.18c.21-.12.38-.3.49-.53.12-.23.17-.5.17-.81h.34c0 .68-.15 1.22-.46 1.62s-.75.6-1.34.6Zm1.5-.12-.04-.82v-1.82c0-.39-.04-.72-.13-.97-.09-.26-.22-.45-.41-.58s-.43-.2-.73-.2c-.27 0-.51.05-.7.16-.2.11-.36.28-.48.52l-.72-.28c.13-.23.28-.43.46-.6q.27-.255.63-.39c.24-.09.51-.13.82-.13.47 0 .85.09 1.15.27s.53.45.68.81.23.8.22 1.32v2.71z" fill="#fffdf0"/>
        <path d="M199.41 76.15v-4.99h.75l.04.7c.15-.27.35-.47.59-.61q.36-.21.84-.21c.4 0 .74.09 1.02.28s.49.47.61.85c.14-.37.34-.65.61-.84s.59-.29.96-.29c.56 0 1 .19 1.32.56s.48.94.47 1.7v2.86h-.8V73.6c0-.49-.05-.87-.16-1.13s-.24-.44-.41-.53q-.255-.15-.6-.15c-.39 0-.7.15-.92.46s-.33.75-.33 1.31v2.59h-.8v-2.56c0-.49-.05-.87-.16-1.13-.1-.26-.24-.44-.42-.53q-.27-.15-.6-.15c-.39 0-.69.15-.91.46s-.33.75-.33 1.31v2.59h-.8Z" fill="#fffdf0"/>
        <path d="M207.58 73.71v-2.56h.8v2.56zm.8 0c0 .49.06.87.17 1.13s.27.44.47.53c.2.1.43.14.68.14.43 0 .77-.16 1.01-.47s.36-.75.36-1.31h.39c0 .53-.08.98-.23 1.36s-.38.67-.66.87c-.29.2-.64.3-1.06.3-.39 0-.73-.08-1.02-.23-.29-.16-.52-.41-.68-.75s-.24-.79-.24-1.33v-.24h.8Zm2.76 2.44-.05-.92v-4.08h.8v4.99h-.75Z" fill="#fffdf0"/>
        <path d="M213.55 69.99c-.13 0-.25-.05-.35-.15a.485.485 0 0 1 0-.7.485.485 0 0 1 .7 0c.1.1.15.21.15.35s-.05.25-.15.35-.21.15-.35.15m-.41 6.16v-4.99h.8v4.99z" fill="#fffdf0"/>
        <path d="M214.68 71.86v-.71h3.17v.71zm2.4 4.41c-.49 0-.86-.13-1.13-.38s-.4-.61-.4-1.07V69.6h.8v5.14c0 .25.07.45.2.58q.21.21.57.21c.08 0 .16-.01.24-.04.08-.02.18-.08.3-.17l.31.65c-.17.11-.33.19-.47.23s-.28.06-.43.06Z" fill="#fffdf0"/>
        <path d="M220.97 76.27c-.49 0-.93-.11-1.3-.33s-.67-.53-.88-.92-.32-.85-.32-1.36.1-.97.31-1.36.5-.7.88-.92.81-.33 1.29-.33.92.11 1.29.33.67.53.88.92.32.85.32 1.36-.11.97-.32 1.36-.5.7-.87.92-.8.33-1.28.33m-.01-.74c.33 0 .61-.08.86-.24s.45-.38.59-.66.21-.61.21-.97-.07-.69-.21-.97-.34-.5-.59-.66-.55-.24-.88-.24-.61.08-.86.24-.45.38-.59.66-.21.61-.21.98.07.69.21.97q.21.42.6.66t.87.24Z" fill="#fffdf0"/>
        <path d="M226.61 76.15v-4.99h.75l.04.7c.15-.27.35-.47.59-.61q.36-.21.84-.21c.4 0 .74.09 1.02.28s.49.47.61.85c.14-.37.34-.65.61-.84s.59-.29.96-.29c.56 0 1 .19 1.32.56s.48.94.47 1.7v2.86h-.8V73.6c0-.49-.05-.87-.16-1.13s-.24-.44-.41-.53q-.255-.15-.6-.15c-.39 0-.7.15-.92.46s-.33.75-.33 1.31v2.59h-.8v-2.56c0-.49-.05-.87-.16-1.13-.1-.26-.24-.44-.42-.53q-.27-.15-.6-.15c-.39 0-.69.15-.91.46s-.33.75-.33 1.31v2.59h-.8Z" fill="#fffdf0"/>
        <path d="M236.49 76.27c-.59 0-1.04-.13-1.37-.4s-.49-.64-.49-1.12c0-.51.17-.89.5-1.16.34-.27.81-.4 1.41-.4h1.43v.67h-1.25c-.47 0-.8.08-.99.23-.2.15-.29.37-.29.66 0 .26.1.46.29.61s.46.22.81.22q.435 0 .75-.18c.315-.18.38-.3.49-.53.12-.23.17-.5.17-.81h.34c0 .68-.15 1.22-.46 1.62s-.75.6-1.34.6Zm1.5-.12-.04-.82v-1.82c0-.39-.04-.72-.13-.97-.09-.26-.22-.45-.41-.58s-.43-.2-.73-.2c-.27 0-.51.05-.7.16s-.36.28-.48.52l-.72-.28c.13-.23.28-.43.46-.6q.27-.255.63-.39c.24-.09.51-.13.82-.13.47 0 .85.09 1.15.27s.53.45.68.81.23.8.22 1.32v2.71z" fill="#fffdf0"/>
        <path d="M240.27 69.99c-.13 0-.25-.05-.35-.15a.485.485 0 0 1 0-.7.485.485 0 0 1 .7 0c.1.1.15.21.15.35s-.05.25-.15.35-.21.15-.35.15m-.41 6.16v-4.99h.8v4.99z" fill="#fffdf0"/>
        <path d="M243.67 76.27c-.37 0-.69-.05-.96-.16s-.5-.25-.68-.43-.32-.38-.39-.59l.7-.29c.11.23.28.41.51.55q.345.21.75.21c.31 0 .58-.06.79-.19.21-.12.32-.3.32-.52 0-.21-.08-.37-.23-.5-.16-.13-.39-.23-.69-.31l-.48-.13c-.45-.12-.81-.3-1.06-.54s-.38-.52-.38-.82c0-.47.15-.84.46-1.1s.77-.39 1.38-.39c.29 0 .56.04.8.13s.45.21.62.36c.17.16.3.34.38.55l-.7.31c-.09-.23-.23-.39-.43-.49s-.44-.15-.73-.15c-.31 0-.55.06-.72.19s-.26.31-.26.54c0 .13.07.26.21.38s.35.21.63.28l.5.13c.33.08.6.2.82.35s.39.33.5.53.17.41.17.64q0 .45-.24.78c-.16.22-.38.39-.65.5-.27.12-.59.17-.94.17Z" fill="#fffdf0"/>
        <path d="M248.23 71.84v-.69h3.17v.69zm.92 4.31v-5.56c0-.52.12-.91.37-1.17q.36-.39 1.11-.39c.13 0 .28.02.45.07s.34.11.53.2l-.3.63c-.15-.06-.28-.11-.39-.14s-.2-.05-.27-.05c-.23 0-.41.07-.52.22-.12.15-.17.38-.17.69v5.5h-.8Z" fill="#fffdf0"/>
        <path d="M253.68 76.27c-.59 0-1.04-.13-1.37-.4s-.49-.64-.49-1.12c0-.51.17-.89.5-1.16s.81-.4 1.41-.4h1.43v.67h-1.25c-.47 0-.8.08-.99.23s-.29.37-.29.66c0 .26.1.46.29.61s.46.22.81.22q.435 0 .75-.18c.21-.12.38-.3.49-.53.12-.23.17-.5.17-.81h.34c0 .68-.15 1.22-.46 1.62s-.75.6-1.34.6Zm1.5-.12-.04-.82v-1.82c0-.39-.04-.72-.13-.97-.09-.26-.22-.45-.41-.58s-.43-.2-.73-.2c-.27 0-.51.05-.7.16-.2.11-.36.28-.48.52l-.72-.28c.13-.23.28-.43.46-.6q.27-.255.63-.39c.24-.09.51-.13.82-.13.47 0 .85.09 1.15.27s.53.45.68.81.23.8.22 1.32v2.71zm-1.94-5.71 1.17-1.29h1.03l-1.29 1.29z" fill="#fffdf0"/>
        <path d="M259.22 76.27c-.49 0-.93-.11-1.31-.33s-.68-.53-.89-.92-.32-.85-.32-1.36.1-.97.31-1.36.5-.7.88-.92.81-.33 1.3-.33.91.11 1.29.33q.57.33.87.93l-.73.33c-.13-.27-.33-.47-.58-.62s-.54-.23-.87-.23-.61.08-.86.24-.45.38-.59.66-.21.61-.21.97.07.69.21.97q.21.42.6.66t.87.24c.48 0 .62-.08.87-.25.26-.17.45-.4.58-.7l.73.33c-.2.43-.49.76-.87 1s-.81.36-1.3.36Z" fill="#fffdf0"/>
        <path d="M262.65 69.99c-.13 0-.25-.05-.35-.15a.485.485 0 0 1 0-.7c.1-.09.22-.15.35-.15s.26.05.35.15.14.21.14.35-.05.25-.14.35-.21.15-.35.15m-.41 6.16v-4.99h.8v4.99z" fill="#fffdf0"/>
        <path d="M264.31 76.15v-6.99h.8v6.99z" fill="#fffdf0"/>
        <path d="M266.65 76.29c-.15 0-.28-.05-.39-.16s-.17-.24-.17-.38.05-.28.17-.39.24-.16.39-.16.28.05.39.16.16.24.16.39-.05.27-.16.38-.24.16-.39.16" fill="#fffdf0"/>
    </g>
</svg>
