<?xml version="1.0" encoding="UTF-8"?>
<svg data-bbox="0.2 0.2 269.7 70.6" viewBox="0 0 269.88 71" xmlns="http://www.w3.org/2000/svg" data-type="ugc">
    <g>
        <path fill="#fffdf0" stroke="#fffdf0" stroke-miterlimit="10" stroke-width=".4" d="M70.8 35.5c0 19.496-15.804 35.3-35.3 35.3S.2 54.996.2 35.5 16.004.2 35.5.2s35.3 15.804 35.3 35.3z"/>
        <path d="M36.03 38.37c-10.72 0-18.8-3.2-18.8-7.44 0-3.39 5.21-6.19 13.27-7.12.45-.05.87.27.93.73a.84.84 0 0 1-.73.93c-7.74.9-11.79 3.43-11.79 5.47 0 2.73 7.04 5.77 17.13 5.77s17.13-3.04 17.13-5.77c0-2.03-4.05-4.56-11.79-5.47a.83.83 0 0 1-.73-.93c.05-.46.47-.79.93-.73 8.06.94 13.27 3.74 13.27 7.13 0 4.24-8.08 7.44-18.8 7.44h-.02Z" fill="#005f21"/>
        <path d="M36.03 51.22c-9.02 0-16.99-2.18-20.8-5.68a.84.84 0 0 1-.26-.75l2.27-14c.07-.46.5-.77.96-.69.46.07.76.5.69.96l-2.2 13.54c3.61 3.02 11.12 4.95 19.34 4.95s15.73-1.93 19.34-4.95l-2.2-13.54a.837.837 0 0 1 1.65-.27l2.27 14a.84.84 0 0 1-.26.75c-3.81 3.5-11.79 5.68-20.8 5.68" fill="#005f21"/>
        <path d="M36.19 54.72c-9.4 0-18.78-3.22-22.84-6.26-.62-.47-1-1.22-1-2.02v-.07c0-.93.49-1.76 1.3-2.22.82-.46 1.78-.43 2.57.06.39.24.51.76.27 1.15a.84.84 0 0 1-1.15.27c-.39-.24-.74-.09-.88-.02-.13.07-.45.3-.45.76v.07c0 .27.12.53.33.68 3.89 2.91 13.12 5.92 21.84 5.92s17.78-3.01 21.67-5.92c.21-.15.33-.41.33-.68v-.07c0-.46-.31-.68-.45-.76-.13-.07-.49-.22-.88.02s-.91.12-1.15-.27-.12-.91.27-1.15c.79-.49 1.75-.51 2.57-.06s1.3 1.28 1.3 2.22v.07c0 .8-.37 1.55-1 2.02-4.05 3.03-13.38 6.26-22.67 6.26z" fill="#005f21"/>
        <path d="M28.94 32.56h-1.95c-1.09 0-1.97-.88-1.97-1.97v-1.13c0-1.09.88-1.97 1.97-1.97h1.95c1.09 0 1.97.88 1.97 1.97v1.13c0 1.09-.88 1.97-1.97 1.97m-1.95-3.4a.3.3 0 0 0-.3.3v1.13c0 .17.13.3.3.3h1.95c.17 0 .3-.13.3-.3v-1.13c0-.17-.13-.3-.3-.3z" fill="#005f21"/>
        <path d="M29.58 21.68h-1.95c-1.09 0-1.97-.88-1.97-1.97v-1.13c0-1.09.88-1.97 1.97-1.97h1.95c1.09 0 1.97.88 1.97 1.97v1.13c0 1.09-.88 1.97-1.97 1.97m-1.95-3.4c-.17 0-.3.13-.3.3v1.13c0 .17.13.3.3.3h1.95c.17 0 .3-.13.3-.3v-1.13c0-.17-.13-.3-.3-.3z" fill="#005f21"/>
        <path d="M45.87 22.59h-1.95c-1.09 0-1.97-.88-1.97-1.97v-1.13c0-1.09.88-1.97 1.97-1.97h1.95c1.09 0 1.97.88 1.97 1.97v1.13c0 1.09-.88 1.97-1.97 1.97m-1.95-3.4c-.17 0-.3.13-.3.3v1.13c0 .17.13.3.3.3h1.95c.17 0 .3-.13.3-.3v-1.13c0-.17-.13-.3-.3-.3z" fill="#005f21"/>
        <path d="M38.11 20.09h-1.95c-1.09 0-1.97-.88-1.97-1.97v-1.13c0-1.09.88-1.97 1.97-1.97h1.95c1.09 0 1.97.88 1.97 1.97v1.13c0 1.09-.88 1.97-1.97 1.97m-1.95-3.39c-.17 0-.3.13-.3.3v1.13c0 .17.13.3.3.3h1.95c.17 0 .3-.13.3-.3V17c0-.17-.13-.3-.3-.3z" fill="#005f21"/>
        <path d="M37.09 34.51h-1.95c-1.09 0-1.97-.88-1.97-1.97v-1.13c0-1.09.88-1.97 1.97-1.97h1.95c1.09 0 1.97.88 1.97 1.97v1.13c0 1.09-.88 1.97-1.97 1.97m-1.95-3.39c-.17 0-.3.13-.3.3v1.13c0 .16.13.3.3.3h1.95c.17 0 .3-.13.3-.3v-1.13c0-.17-.13-.3-.3-.3z" fill="#005f21"/>
        <path d="M45.4 33.06h-1.95c-1.09 0-1.97-.88-1.97-1.97v-1.13c0-1.09.88-1.97 1.97-1.97h1.95c1.09 0 1.97.88 1.97 1.97v1.13c0 1.09-.88 1.97-1.97 1.97m-1.95-3.39c-.17 0-.3.13-.3.3v1.13c0 .17.13.3.3.3h1.95c.17 0 .3-.13.3-.3v-1.13c0-.17-.13-.3-.3-.3z" fill="#005f21"/>
        <path d="M37 27.63h-1.95c-1.09 0-1.97-.88-1.97-1.97v-1.13c0-1.09.88-1.97 1.97-1.97H37c1.09 0 1.97.88 1.97 1.97v1.13c0 1.09-.88 1.97-1.97 1.97m-1.95-3.4a.3.3 0 0 0-.3.3v1.13c0 .17.13.3.3.3H37c.17 0 .3-.13.3-.3v-1.13c0-.17-.13-.3-.3-.3z" fill="#005f21"/>
        <path d="M87.44 17.2v-5.3h-1.98v-1.7h5.8v1.7h-1.97v5.3z" fill="#fffdf0"/>
        <path d="m90.8 17.2 2.68-7h1.84l-2.56 7zm1.26-1.12v-1.63h4.84v1.63zm4.13 1.12-2.56-7h1.84l2.68 7z" fill="#fffdf0"/>
        <path d="M98.72 17.2v-7h2.05l1.69 2.5 1.69-2.5h2.05v7h-1.85v-4.14l-1.88 2.74-1.9-2.74v4.14z" fill="#fffdf0"/>
        <path d="m106.77 17.2 2.68-7h1.84l-2.56 7zm1.26-1.12v-1.63h4.84v1.63zm4.13 1.12-2.56-7h1.84l2.68 7z" fill="#fffdf0"/>
        <path d="M114.69 17.2v-7h1.95l2.73 3.85V10.2h1.85v7h-1.85l-2.83-3.99v3.99z" fill="#fffdf0"/>
        <path d="M122.32 17.2v-7.01h1.85v7.01zm1.27-2.71v-1.7h4.24v1.7zm3.16 2.71v-7h1.85v7z" fill="#fffdf0"/>
        <path d="M133.1 17.32c-.73 0-1.38-.16-1.95-.46-.56-.31-1-.74-1.32-1.28s-.48-1.17-.48-1.87.16-1.33.48-1.88c.32-.54.76-.97 1.32-1.28s1.2-.47 1.93-.47 1.38.16 1.94.47 1 .74 1.32 1.28.48 1.17.48 1.88-.16 1.32-.47 1.87-.75.97-1.32 1.28c-.56.31-1.2.46-1.93.46m0-1.7c.36 0 .68-.08.95-.25.27-.16.49-.39.64-.67.15-.29.23-.62.23-.99s-.08-.71-.24-1-.37-.52-.65-.68-.59-.25-.95-.25-.67.08-.95.25c-.28.16-.49.39-.65.68s-.23.62-.23 1 .08.7.24.99.38.51.66.67.59.25.96.25Z" fill="#fffdf0"/>
        <path d="M139.77 17.2v-7h4.69v1.7h-2.84v.97h2.3v1.65h-2.3v.98h2.91v1.7z" fill="#fffdf0"/>
        <path d="M147.73 17.2v-7h4.79v1.7h-2.94v1.02h2.3v1.7h-2.3v2.58z" fill="#fffdf0"/>
        <path d="M156.67 17.32c-.73 0-1.38-.16-1.95-.46-.56-.31-1-.74-1.32-1.28s-.48-1.17-.48-1.87.16-1.33.48-1.88c.32-.54.76-.97 1.32-1.28s1.2-.47 1.93-.47 1.38.16 1.94.47 1 .74 1.32 1.28.48 1.17.48 1.88-.16 1.32-.47 1.87c-.32.54-.75.97-1.32 1.28-.56.31-1.2.46-1.93.46m0-1.7c.36 0 .68-.08.95-.25.27-.16.49-.39.64-.67.15-.29.23-.62.23-.99s-.08-.71-.24-1-.37-.52-.65-.68-.59-.25-.95-.25-.67.08-.95.25c-.28.16-.49.39-.65.68s-.23.62-.23 1 .08.7.24.99.38.51.66.67.59.25.96.25Z" fill="#fffdf0"/>
        <path d="M161.14 17.2v-7h2.9c.53 0 .99.1 1.4.3s.72.48.96.84c.23.36.34.77.34 1.24s-.12.88-.34 1.25c-.23.36-.55.65-.96.85s-.87.31-1.4.31h-1.05v2.22h-1.85Zm1.85-3.92h.95c.17 0 .31-.03.44-.09a.68.68 0 0 0 .41-.61c0-.2-.08-.37-.24-.5s-.36-.19-.61-.19h-.95zm1.91 3.92-1.56-2.75 1.39-1.04 2.29 3.79z" fill="#fffdf0"/>
        <path d="M167.67 17.2v-7h2.05l1.69 2.5 1.69-2.5h2.05v7h-1.85v-4.14l-1.88 2.74-1.9-2.74v4.14z" fill="#fffdf0"/>
        <path d="m175.72 17.2 2.68-7h1.84l-2.56 7zm1.26-1.12v-1.63h4.84v1.63zm4.13 1.12-2.56-7h1.84l2.68 7z" fill="#fffdf0"/>
        <path d="M184.39 17.2v-5.3h-1.98v-1.7h5.8v1.7h-1.97v5.3z" fill="#fffdf0"/>
        <path d="M192.28 17.32c-.73 0-1.38-.16-1.95-.46-.56-.31-1-.74-1.32-1.28s-.48-1.17-.48-1.87.16-1.33.48-1.88c.32-.54.76-.97 1.32-1.28s1.2-.47 1.93-.47 1.38.16 1.94.47 1 .74 1.32 1.28.48 1.17.48 1.88-.16 1.32-.47 1.87-.75.97-1.32 1.28c-.56.31-1.2.46-1.93.46m0-1.7c.36 0 .68-.08.95-.25.27-.16.49-.39.64-.67.15-.29.23-.62.23-.99s-.08-.71-.24-1-.37-.52-.65-.68-.59-.25-.95-.25-.67.08-.95.25c-.28.16-.49.39-.65.68s-.23.62-.23 1 .08.7.24.99.38.51.66.67.59.25.96.25Z" fill="#fffdf0"/>
        <path d="m198.42 17.2 2.68-7h1.84l-2.56 7zm1.26-1.12v-1.63h4.84v1.63zm4.13 1.12-2.56-7h1.84l2.68 7z" fill="#fffdf0"/>
        <path d="M206.34 17.2v-7h2.9c.53 0 .99.1 1.4.31s.72.49.96.86c.23.37.34.79.34 1.27s-.12.9-.34 1.27q-.345.555-.96.87c-.41.21-.87.32-1.4.32h-1.05v2.1zm1.85-3.8h1c.25 0 .46-.07.62-.21s.23-.32.23-.55-.08-.4-.23-.54c-.16-.14-.36-.21-.62-.21h-1z" fill="#fffdf0"/>
        <path d="M212.49 17.2v-7h2.9c.53 0 .99.1 1.4.3s.72.48.96.84c.23.36.34.77.34 1.24s-.12.88-.34 1.25c-.23.36-.55.65-.96.85s-.87.31-1.4.31h-1.05v2.22h-1.85Zm1.85-3.92h.95c.17 0 .31-.03.44-.09a.68.68 0 0 0 .41-.61c0-.2-.08-.37-.24-.5s-.36-.19-.61-.19h-.95zm1.91 3.92-1.56-2.75 1.39-1.04 2.29 3.79z" fill="#fffdf0"/>
        <path d="M222.42 17.32c-.73 0-1.38-.16-1.95-.46-.56-.31-1-.74-1.32-1.28s-.48-1.17-.48-1.87.16-1.33.48-1.88c.32-.54.76-.97 1.32-1.28s1.2-.47 1.93-.47 1.38.16 1.94.47 1 .74 1.32 1.28.48 1.17.48 1.88-.16 1.32-.47 1.87-.75.97-1.32 1.28c-.56.31-1.2.46-1.93.46m0-1.7c.36 0 .68-.08.95-.25.27-.16.49-.39.64-.67.15-.29.23-.62.23-.99s-.08-.71-.24-1-.37-.52-.65-.68-.59-.25-.95-.25-.67.08-.95.25c-.28.16-.49.39-.65.68s-.23.62-.23 1 .08.7.24.99.38.51.66.67.59.25.96.25Z" fill="#fffdf0"/>
        <path d="M226.89 17.2v-7h2.9c.53 0 .99.1 1.4.31s.72.49.96.86c.23.37.34.79.34 1.27s-.12.9-.34 1.27q-.345.555-.96.87c-.41.21-.87.32-1.4.32h-1.05v2.1zm1.85-3.8h1c.25 0 .46-.07.62-.21s.23-.32.23-.55-.08-.4-.23-.54c-.16-.14-.36-.21-.62-.21h-1z" fill="#fffdf0"/>
        <path d="M233.04 17.2v-7h2.9c.53 0 .99.1 1.4.3s.72.48.96.84c.23.36.34.77.34 1.24s-.12.88-.34 1.25c-.23.36-.55.65-.96.85s-.87.31-1.4.31h-1.05v2.22h-1.85Zm1.85-3.92h.95c.17 0 .31-.03.44-.09a.68.68 0 0 0 .41-.61c0-.2-.08-.37-.24-.5s-.36-.19-.61-.19h-.95zm1.91 3.92-1.56-2.75 1.39-1.04 2.29 3.79z" fill="#fffdf0"/>
        <path d="M239.57 17.2v-7h1.85v7z" fill="#fffdf0"/>
        <path d="m241.99 17.2 2.68-7h1.84l-2.56 7zm1.26-1.12v-1.63h4.84v1.63zm4.13 1.12-2.56-7h1.84l2.68 7z" fill="#fffdf0"/>
        <path d="M249.91 17.2v-7h2.34c.77 0 1.44.15 2.03.45s1.05.71 1.39 1.23c.33.52.5 1.13.5 1.82s-.17 1.28-.5 1.81-.79.94-1.39 1.24c-.59.3-1.27.45-2.03.45zm1.85-1.75h.49c.29 0 .56-.04.81-.13s.46-.21.64-.36a1.62 1.62 0 0 0 .57-1.26 1.62 1.62 0 0 0-.57-1.26 2.1 2.1 0 0 0-.64-.36c-.25-.09-.52-.13-.81-.13h-.49z" fill="#fffdf0"/>
        <path d="M260.32 17.32c-.73 0-1.38-.16-1.95-.46-.56-.31-1-.74-1.32-1.28s-.48-1.17-.48-1.87.16-1.33.48-1.88c.32-.54.76-.97 1.32-1.28s1.2-.47 1.93-.47 1.38.16 1.94.47 1 .74 1.32 1.28.48 1.17.48 1.88-.16 1.32-.47 1.87-.75.97-1.32 1.28c-.56.31-1.2.46-1.93.46m0-1.7c.36 0 .68-.08.95-.25.27-.16.49-.39.64-.67.15-.29.23-.62.23-.99s-.08-.71-.24-1-.37-.52-.65-.68-.59-.25-.95-.25-.67.08-.95.25c-.28.16-.49.39-.65.68s-.23.62-.23 1 .08.7.24.99.38.51.66.67.59.25.96.25Z" fill="#fffdf0"/>
        <path d="M267.24 17.32c-.33 0-.65-.04-.96-.13s-.6-.22-.85-.38a2.7 2.7 0 0 1-.64-.54c-.17-.2-.27-.42-.3-.65l1.84-.51c.06.17.16.31.31.42.15.12.34.18.57.2.19 0 .35-.04.5-.15s.22-.25.22-.42q0-.165-.12-.33a.7.7 0 0 0-.4-.22l-1.05-.27c-.36-.09-.67-.24-.92-.43-.26-.19-.45-.43-.59-.71s-.2-.59-.2-.94c0-.69.23-1.22.68-1.6s1.1-.58 1.92-.58c.44 0 .83.06 1.17.17s.63.29.87.54.45.56.61.96l-1.83.53a.9.9 0 0 0-.25-.4c-.14-.13-.32-.2-.56-.2s-.4.05-.52.15a.55.55 0 0 0-.19.44c0 .12.05.23.15.32s.24.16.43.21l1.06.27c.53.13.95.4 1.25.79s.45.83.45 1.33c0 .46-.1.85-.31 1.17s-.51.56-.91.73c-.39.17-.86.25-1.41.25Z" fill="#fffdf0"/>
        <path d="M89.17 28.82c-.67 0-1.26-.16-1.77-.46-.51-.31-.92-.74-1.21-1.28s-.44-1.17-.44-1.88.15-1.33.43-1.88c.29-.54.69-.97 1.2-1.28s1.1-.46 1.75-.46a3.45 3.45 0 0 1 2.25.86c.31.27.54.58.71.93l-.73.37c-.13-.28-.32-.52-.55-.73a2.4 2.4 0 0 0-.78-.48c-.29-.12-.59-.17-.9-.17-.49 0-.92.12-1.31.36s-.69.58-.91 1c-.22.43-.33.92-.33 1.48s.11 1.06.33 1.49.53.77.92 1.01.83.37 1.33.37c.32 0 .62-.07.91-.2s.54-.31.78-.54q.345-.345.54-.78l.74.37c-.17.37-.41.69-.71.98s-.65.51-1.04.67-.79.24-1.21.24Z" fill="#fffdf0"/>
        <path d="M95.17 28.82c-.49 0-.93-.11-1.3-.33-.38-.22-.67-.53-.88-.92s-.32-.85-.32-1.36.1-.97.31-1.36.5-.7.88-.92q.57-.33 1.29-.33c.72 0 .92.11 1.29.33.38.22.67.53.88.92s.31.85.31 1.36-.1.97-.31 1.36-.5.7-.88.92c-.37.22-.8.33-1.28.33Zm-.01-.74q.495 0 .87-.24c.25-.16.45-.38.59-.67.14-.28.21-.61.21-.97s-.07-.69-.21-.97-.34-.51-.6-.67c-.25-.16-.55-.24-.88-.24s-.61.08-.86.24-.45.38-.59.66-.21.61-.21.98.07.69.21.97.34.51.6.67.55.24.88.24Z" fill="#fffdf0"/>
        <path d="M98.5 28.7v-5h.75l.04.7c.15-.27.35-.47.59-.61q.36-.21.84-.21c.4 0 .74.09 1.03.28.28.19.49.47.61.85.14-.37.35-.65.62-.84s.59-.29.96-.29c.56 0 1 .19 1.33.56.32.37.48.94.48 1.7v2.86h-.8v-2.56c0-.49-.05-.87-.15-1.13s-.24-.44-.42-.53q-.255-.15-.6-.15c-.39 0-.7.16-.92.46q-.33.465-.33 1.32v2.59h-.8v-2.56c0-.49-.05-.87-.16-1.13-.1-.26-.24-.44-.42-.53s-.38-.15-.6-.15c-.39 0-.69.16-.91.46q-.33.465-.33 1.32v2.59h-.8Z" fill="#fffdf0"/>
        <path d="M108.85 26.26V23.7h.8v2.56zm.8 0c0 .49.06.87.17 1.13s.27.44.47.53q.3.15.69.15c.43 0 .77-.16 1.01-.47s.37-.75.37-1.31h.39c0 .53-.08.98-.23 1.36s-.38.67-.67.87-.65.3-1.07.3q-.585 0-1.02-.24c-.29-.16-.52-.41-.68-.75s-.24-.79-.24-1.33v-.24h.8Zm2.76 2.44-.05-.92V23.7h.8v5z" fill="#fffdf0"/>
        <path d="M114.31 28.7v-5h.75l.04.7c.15-.27.35-.47.59-.61q.36-.21.84-.21c.4 0 .74.09 1.03.28.28.19.49.47.61.85.14-.37.35-.65.62-.84s.59-.29.96-.29c.56 0 1 .19 1.33.56.32.37.48.94.48 1.7v2.86h-.8v-2.56c0-.49-.05-.87-.15-1.13s-.24-.44-.42-.53q-.255-.15-.6-.15c-.39 0-.7.16-.92.46q-.33.465-.33 1.32v2.59h-.8v-2.56c0-.49-.05-.87-.16-1.13-.1-.26-.24-.44-.42-.53s-.38-.15-.6-.15c-.39 0-.69.16-.91.46q-.33.465-.33 1.32v2.59h-.8Z" fill="#fffdf0"/>
        <path d="M124.37 24.39v-.69h3.17v.69zm.92 4.31v-5.57c0-.52.12-.91.37-1.17q.36-.39 1.11-.39c.13 0 .28.02.45.07s.34.11.53.2l-.3.63c-.15-.06-.28-.11-.39-.14s-.2-.05-.27-.05c-.23 0-.41.07-.53.22s-.17.38-.17.7v5.51h-.8Z" fill="#fffdf0"/>
        <path d="M130.42 28.82c-.49 0-.93-.11-1.3-.33-.38-.22-.67-.53-.88-.92s-.32-.85-.32-1.36.1-.97.31-1.36.5-.7.88-.92q.57-.33 1.29-.33c.72 0 .92.11 1.29.33.38.22.67.53.88.92s.31.85.31 1.36-.1.97-.31 1.36-.5.7-.88.92c-.37.22-.8.33-1.28.33Zm-.01-.74q.495 0 .87-.24c.25-.16.45-.38.59-.67.14-.28.21-.61.21-.97s-.07-.69-.21-.97-.34-.51-.6-.67c-.25-.16-.55-.24-.88-.24s-.61.08-.86.24-.45.38-.59.66-.21.61-.21.98.07.69.21.97.34.51.6.67.55.24.88.24Z" fill="#fffdf0"/>
        <path d="M133.75 28.7v-5h.8v5zm.44-2.71c0-.54.1-.98.31-1.32s.47-.59.79-.75.67-.24 1.02-.24v.75c-.29 0-.57.05-.84.14-.27.1-.49.25-.67.47-.17.22-.26.52-.26.9l-.36.04Z" fill="#fffdf0"/>
        <path d="M136.88 28.7v-5h.75l.04.7c.15-.27.35-.47.59-.61q.36-.21.84-.21c.4 0 .74.09 1.03.28.28.19.49.47.61.85.14-.37.35-.65.62-.84s.59-.29.96-.29c.56 0 1 .19 1.33.56.32.37.48.94.48 1.7v2.86h-.8v-2.56c0-.49-.05-.87-.15-1.13s-.24-.44-.42-.53q-.255-.15-.6-.15c-.39 0-.7.16-.92.46q-.33.465-.33 1.32v2.59h-.8v-2.56c0-.49-.05-.87-.16-1.13-.1-.26-.24-.44-.42-.53s-.38-.15-.6-.15c-.39 0-.69.16-.91.46q-.33.465-.33 1.32v2.59h-.8Z" fill="#fffdf0"/>
        <path d="M146.72 28.82c-.59 0-1.04-.13-1.38-.41-.33-.27-.5-.64-.5-1.12 0-.51.17-.89.5-1.17.34-.27.81-.41 1.42-.41h1.43v.67h-1.25c-.47 0-.8.08-1 .23s-.29.37-.29.66c0 .26.1.46.29.62.19.15.46.22.81.22q.435 0 .75-.18c.21-.12.38-.3.5-.53s.17-.5.17-.82h.34c0 .68-.15 1.22-.46 1.62s-.75.61-1.34.61Zm1.5-.12-.04-.82v-1.82c0-.39-.04-.72-.13-.98s-.22-.45-.41-.58-.43-.2-.73-.2c-.27 0-.51.06-.71.17s-.36.29-.48.53l-.72-.28c.13-.23.28-.43.46-.6q.27-.255.63-.39c.24-.09.51-.13.82-.13.47 0 .85.09 1.16.28s.53.45.68.81.23.8.22 1.33v2.71h-.75Z" fill="#fffdf0"/>
        <path d="M149.47 24.41v-.71h3.17v.71zm2.4 4.41c-.49 0-.86-.13-1.13-.38s-.4-.61-.4-1.07v-5.23h.8v5.15c0 .25.07.45.21.58s.33.21.58.21c.08 0 .16-.01.24-.04.08-.02.18-.08.3-.17l.31.65c-.17.11-.33.19-.47.23s-.28.07-.43.07Z" fill="#fffdf0"/>
        <path d="M155.71 28.82c-.49 0-.93-.11-1.3-.33-.38-.22-.67-.53-.88-.92s-.32-.85-.32-1.36.1-.97.31-1.36.5-.7.88-.92q.57-.33 1.29-.33c.72 0 .92.11 1.29.33.38.22.67.53.88.92s.31.85.31 1.36-.1.97-.31 1.36-.5.7-.88.92c-.37.22-.8.33-1.28.33Zm-.01-.74q.495 0 .87-.24c.25-.16.45-.38.59-.67.14-.28.21-.61.21-.97s-.07-.69-.21-.97-.34-.51-.6-.67c-.25-.16-.55-.24-.88-.24s-.61.08-.86.24-.45.38-.59.66-.21.61-.21.98.07.69.21.97.34.51.6.67.55.24.88.24Z" fill="#fffdf0"/>
        <path d="M163.45 28.82q-.735 0-1.29-.33c-.37-.22-.67-.53-.88-.92s-.31-.85-.31-1.36.1-.97.31-1.36.5-.7.87-.92.79-.33 1.28-.33.87.12 1.21.34c.34.23.6.55.79.97.19.41.28.9.28 1.46h-4.13l.2-.17c0 .4.07.74.21 1.03s.35.5.61.66c.26.15.56.22.89.22.35 0 .65-.08.9-.25.24-.17.43-.39.56-.66l.69.35c-.13.26-.29.49-.5.68s-.46.34-.74.45-.6.16-.95.16Zm-1.62-2.98-.21-.16h3.45l-.21.17c0-.32-.06-.6-.19-.83q-.195-.345-.51-.54c-.21-.13-.46-.19-.74-.19s-.53.06-.78.19c-.24.13-.44.3-.59.54-.15.23-.23.5-.23.82Z" fill="#fffdf0"/>
        <path d="M168.17 24.41v-.71h3.17v.71zm2.4 4.41c-.49 0-.86-.13-1.13-.38s-.4-.61-.4-1.07v-5.23h.8v5.15c0 .25.07.45.21.58s.33.21.58.21c.08 0 .16-.01.24-.04.08-.02.18-.08.3-.17l.31.65c-.17.11-.33.19-.47.23s-.28.07-.43.07Z" fill="#fffdf0"/>
        <path d="M173.77 28.82c-.59 0-1.04-.13-1.38-.41-.33-.27-.5-.64-.5-1.12 0-.51.17-.89.5-1.17.34-.27.81-.41 1.42-.41h1.43v.67h-1.25c-.47 0-.8.08-1 .23s-.29.37-.29.66c0 .26.1.46.29.62.19.15.46.22.81.22q.435 0 .75-.18c.21-.12.38-.3.5-.53s.17-.5.17-.82h.34c0 .68-.15 1.22-.46 1.62s-.75.61-1.34.61Zm1.5-.12-.04-.82v-1.82c0-.39-.04-.72-.13-.98s-.22-.45-.41-.58-.43-.2-.73-.2c-.27 0-.51.06-.71.17s-.36.29-.48.53l-.72-.28c.13-.23.28-.43.46-.6q.27-.255.63-.39c.24-.09.51-.13.82-.13.47 0 .85.09 1.16.28s.53.45.68.81.23.8.22 1.33v2.71h-.75Z" fill="#fffdf0"/>
        <path d="M177.04 28.7v-5h.75l.04.7c.15-.27.35-.47.59-.61q.36-.21.84-.21c.4 0 .74.09 1.03.28.28.19.49.47.61.85.14-.37.35-.65.62-.84s.59-.29.96-.29c.56 0 1 .19 1.33.56.32.37.48.94.48 1.7v2.86h-.8v-2.56c0-.49-.05-.87-.15-1.13s-.24-.44-.42-.53q-.255-.15-.6-.15c-.39 0-.7.16-.92.46q-.33.465-.33 1.32v2.59h-.8v-2.56c0-.49-.05-.87-.16-1.13-.1-.26-.24-.44-.42-.53s-.38-.15-.6-.15c-.39 0-.69.16-.91.46q-.33.465-.33 1.32v2.59h-.8Z" fill="#fffdf0"/>
        <path d="M186.88 28.82c-.59 0-1.04-.13-1.38-.41-.33-.27-.5-.64-.5-1.12 0-.51.17-.89.5-1.17.34-.27.81-.41 1.42-.41h1.43v.67h-1.25c-.47 0-.8.08-1 .23s-.29.37-.29.66c0 .26.1.46.29.62.19.15.46.22.81.22q.435 0 .75-.18c.21-.12.38-.3.5-.53s.17-.5.17-.82h.34c0 .68-.15 1.22-.46 1.62s-.75.61-1.34.61Zm1.5-.12-.04-.82v-1.82c0-.39-.04-.72-.13-.98s-.22-.45-.41-.58-.43-.2-.73-.2c-.27 0-.51.06-.71.17s-.36.29-.48.53l-.72-.28c.13-.23.28-.43.46-.6q.27-.255.63-.39c.24-.09.51-.13.82-.13.47 0 .85.09 1.16.28s.53.45.68.81.23.8.22 1.33v2.71h-.75Z" fill="#fffdf0"/>
        <path d="M190.15 28.7v-5h.75l.05.92v4.08zm3.51-2.56c0-.49-.06-.87-.17-1.13s-.27-.44-.47-.53c-.2-.1-.43-.15-.68-.15-.44 0-.78.16-1.02.46-.24.31-.37.75-.37 1.32h-.39c0-.53.08-.98.23-1.36s.38-.67.67-.87.65-.3 1.06-.3q.585 0 1.02.24c.29.16.52.4.68.75.16.34.24.79.23 1.34v.24h-.8Zm0 2.56v-2.56h.8v2.56z" fill="#fffdf0"/>
        <path d="M195.48 28.7v-7h.8v7zm3.52-2.56c0-.49-.06-.87-.17-1.13-.12-.26-.28-.44-.47-.53-.2-.1-.43-.15-.68-.15-.44 0-.78.16-1.02.46-.24.31-.37.75-.37 1.32h-.39c0-.53.08-.98.23-1.36.16-.38.38-.67.67-.87s.65-.3 1.06-.3q.585 0 1.02.24c.29.16.52.4.69.75.16.34.24.79.23 1.34v.24h-.8Zm0 2.56v-2.56h.8v2.56z" fill="#fffdf0"/>
        <path d="M203.03 28.82c-.49 0-.93-.11-1.3-.33-.38-.22-.67-.53-.88-.92s-.32-.85-.32-1.36.1-.97.31-1.36.5-.7.88-.92q.57-.33 1.29-.33c.72 0 .92.11 1.29.33.38.22.67.53.88.92s.31.85.31 1.36-.1.97-.31 1.36-.5.7-.88.92c-.37.22-.8.33-1.28.33Zm-.01-.74q.495 0 .87-.24c.25-.16.45-.38.59-.67.14-.28.21-.61.21-.97s-.07-.69-.21-.97-.34-.51-.6-.67c-.25-.16-.55-.24-.88-.24s-.61.08-.86.24-.45.38-.59.66-.21.61-.21.98.07.69.21.97.34.51.6.67.55.24.88.24Z" fill="#fffdf0"/>
        <path d="M209.04 22.54c-.13 0-.25-.05-.35-.15a.485.485 0 0 1 0-.7.485.485 0 0 1 .7 0c.09.1.15.21.15.35s-.05.25-.15.35-.21.15-.35.15m-.41 6.16v-5h.8v5z" fill="#fffdf0"/>
        <path d="M212.62 28.82c-.45 0-.84-.11-1.18-.33s-.61-.53-.79-.92c-.19-.4-.29-.85-.29-1.37s.09-.98.29-1.37c.19-.39.46-.7.79-.92s.73-.33 1.18-.33q.63 0 1.11.33c.32.22.56.53.73.92s.26.85.26 1.37-.09.97-.26 1.37-.42.71-.73.92q-.48.33-1.11.33m.18-.73q.435 0 .78-.24c.23-.16.41-.38.54-.67s.2-.61.2-.98-.07-.69-.2-.98-.31-.51-.54-.67-.49-.24-.79-.24-.59.08-.83.24-.43.38-.58.67c-.14.29-.21.61-.21.98s.07.69.21.98.33.51.58.67q.375.24.84.24m1.55.61-.04-.93V21.7h.8v7z" fill="#fffdf0"/>
        <path d="M218.45 28.82q-.735 0-1.29-.33c-.37-.22-.67-.53-.88-.92s-.31-.85-.31-1.36.1-.97.31-1.36.5-.7.87-.92.79-.33 1.28-.33.87.12 1.21.34c.34.23.6.55.79.97.19.41.28.9.28 1.46h-4.13l.2-.17c0 .4.07.74.21 1.03s.35.5.61.66.56.22.89.22c.35 0 .65-.08.9-.25.24-.17.43-.39.56-.66l.69.35c-.13.26-.29.49-.5.68s-.46.34-.74.45-.6.16-.95.16Zm-1.62-2.98-.21-.16h3.45l-.21.17c0-.32-.06-.6-.19-.83q-.195-.345-.51-.54c-.21-.13-.46-.19-.74-.19s-.53.06-.78.19c-.24.13-.44.3-.59.54-.15.23-.23.5-.23.82Z" fill="#fffdf0"/>
        <path d="M223.05 28.82c-.59 0-1.04-.13-1.38-.41-.33-.27-.5-.64-.5-1.12 0-.51.17-.89.5-1.17.34-.27.81-.41 1.42-.41h1.43v.67h-1.25c-.47 0-.8.08-1 .23s-.29.37-.29.66c0 .26.1.46.29.62.19.15.46.22.81.22q.435 0 .75-.18c.21-.12.38-.3.5-.53s.17-.5.17-.82h.34c0 .68-.15 1.22-.46 1.62s-.75.61-1.34.61Zm1.5-.12-.04-.82v-1.82c0-.39-.04-.72-.13-.98s-.22-.45-.41-.58-.43-.2-.73-.2c-.27 0-.51.06-.71.17s-.36.29-.48.53l-.72-.28c.13-.23.28-.43.46-.6q.27-.255.63-.39c.24-.09.51-.13.82-.13.47 0 .85.09 1.16.28s.53.45.68.81.23.8.22 1.33v2.71h-.75Z" fill="#fffdf0"/>
        <path d="M226.78 22.54c-.13 0-.25-.05-.35-.15a.485.485 0 0 1 0-.7.485.485 0 0 1 .7 0c.09.1.15.21.15.35s-.05.25-.15.35-.21.15-.35.15m-.41 6.16v-5h.8v5z" fill="#fffdf0"/>
        <path d="M230.14 28.82c-.37 0-.69-.05-.96-.17s-.5-.25-.69-.44c-.18-.18-.31-.38-.39-.59l.7-.29c.11.23.28.41.51.55q.345.21.75.21c.31 0 .58-.06.79-.19.21-.12.32-.3.32-.52 0-.21-.08-.37-.24-.5s-.39-.23-.7-.31l-.48-.13c-.45-.12-.81-.3-1.06-.54s-.38-.52-.38-.83c0-.47.16-.84.46-1.1.31-.26.77-.4 1.39-.4.29 0 .56.04.8.13s.45.21.62.37.3.34.38.55l-.7.31a.87.87 0 0 0-.43-.49c-.2-.1-.44-.15-.73-.15-.31 0-.55.07-.72.2s-.26.31-.26.54c0 .13.07.26.21.38s.35.21.63.29l.5.13c.33.08.6.2.82.36s.39.33.5.53.17.41.17.64q0 .45-.24.78c-.16.22-.38.39-.65.5-.27.12-.59.17-.94.17Z" fill="#fffdf0"/>
        <path d="M235.07 30.7v-7h.75l.05.92v6.08zm2.49-1.88q-.63 0-1.11-.33c-.48-.33-.56-.53-.73-.92-.17-.4-.26-.85-.26-1.37s.09-.98.26-1.37.42-.7.73-.92.69-.33 1.11-.33c.45 0 .84.11 1.18.33s.61.53.79.92c.19.39.29.85.29 1.37s-.09.97-.29 1.37c-.19.4-.46.71-.79.92s-.73.33-1.18.33m-.18-.73c.31 0 .59-.08.83-.24s.44-.38.58-.67c.14-.28.22-.61.22-.99s-.07-.69-.21-.98-.33-.51-.57-.67-.53-.24-.84-.24c-.29 0-.56.08-.79.24s-.41.38-.54.67c-.13.28-.2.61-.2.99s.07.69.2.98.31.51.54.67q.345.24.78.24" fill="#fffdf0"/>
        <path d="M242.26 28.82c-.59 0-1.04-.13-1.38-.41-.33-.27-.5-.64-.5-1.12 0-.51.17-.89.5-1.17.34-.27.81-.41 1.42-.41h1.43v.67h-1.25c-.47 0-.8.08-1 .23s-.29.37-.29.66c0 .26.1.46.29.62.19.15.46.22.81.22q.435 0 .75-.18c.21-.12.38-.3.5-.53s.17-.5.17-.82h.34c0 .68-.15 1.22-.46 1.62s-.75.61-1.34.61Zm1.5-.12-.04-.82v-1.82c0-.39-.04-.72-.13-.98s-.22-.45-.41-.58-.43-.2-.73-.2c-.27 0-.51.06-.71.17s-.36.29-.48.53l-.72-.28c.13-.23.28-.43.46-.6q.27-.255.63-.39c.24-.09.51-.13.82-.13.47 0 .85.09 1.16.28s.53.45.68.81.23.8.22 1.33v2.71h-.75Z" fill="#fffdf0"/>
        <path d="M245.53 28.7v-5h.8v5zm.44-2.71c0-.54.1-.98.31-1.32s.47-.59.79-.75.67-.24 1.02-.24v.75c-.29 0-.57.05-.84.14-.27.1-.49.25-.67.47-.17.22-.26.52-.26.9l-.36.04Z" fill="#fffdf0"/>
        <path d="M250.24 28.82c-.59 0-1.04-.13-1.38-.41-.33-.27-.5-.64-.5-1.12 0-.51.17-.89.5-1.17.34-.27.81-.41 1.42-.41h1.43v.67h-1.25c-.47 0-.8.08-1 .23s-.29.37-.29.66c0 .26.1.46.29.62.19.15.46.22.81.22q.435 0 .75-.18c.21-.12.38-.3.5-.53s.17-.5.17-.82h.34c0 .68-.15 1.22-.46 1.62s-.75.61-1.34.61Zm1.5-.12-.04-.82v-1.82c0-.39-.04-.72-.13-.98s-.22-.45-.41-.58-.43-.2-.73-.2c-.27 0-.51.06-.71.17s-.36.29-.48.53l-.72-.28c.13-.23.28-.43.46-.6q.27-.255.63-.39c.24-.09.51-.13.82-.13.47 0 .85.09 1.16.28s.53.45.68.81.23.8.22 1.33v2.71h-.75Z" fill="#fffdf0"/>
        <path d="M88.21 40.32c-.49 0-.93-.11-1.3-.33-.38-.22-.67-.53-.88-.92s-.32-.85-.32-1.36.1-.97.31-1.36.5-.7.88-.92q.57-.33 1.29-.33c.72 0 .92.11 1.29.33.38.22.67.53.88.92s.31.85.31 1.36-.1.97-.31 1.36-.5.7-.88.92c-.37.22-.8.33-1.28.33Zm-.01-.74q.495 0 .87-.24c.25-.16.45-.38.59-.67.14-.28.21-.61.21-.97s-.07-.69-.21-.97-.34-.51-.6-.67c-.25-.16-.55-.24-.88-.24s-.61.08-.86.24-.45.38-.59.66-.21.61-.21.98.07.69.21.97.34.51.6.67.55.24.88.24Z" fill="#fffdf0"/>
        <path d="M93.29 40.32c-.37 0-.69-.05-.96-.17s-.5-.25-.69-.44c-.18-.18-.31-.38-.39-.59l.7-.29c.11.23.28.41.51.55q.345.21.75.21c.31 0 .58-.06.79-.19.21-.12.32-.3.32-.52 0-.21-.08-.37-.24-.5s-.39-.23-.7-.31l-.48-.13c-.45-.12-.81-.3-1.06-.54s-.38-.52-.38-.83c0-.47.16-.84.46-1.1.31-.26.77-.4 1.39-.4.29 0 .56.04.8.13s.45.21.62.37.3.34.38.55l-.7.31a.87.87 0 0 0-.43-.49c-.2-.1-.44-.15-.73-.15-.31 0-.55.07-.72.2s-.26.31-.26.54c0 .13.07.26.21.38s.35.21.63.29l.5.13c.33.08.6.2.82.36s.39.33.5.53.17.41.17.64q0 .45-.24.78c-.16.22-.38.39-.65.5-.27.12-.59.17-.94.17Z" fill="#fffdf0"/>
        <path d="M98.22 42.2v-7h.75l.05.92v6.08zm2.49-1.88q-.63 0-1.11-.33c-.48-.33-.56-.53-.73-.92-.17-.4-.26-.85-.26-1.37s.09-.98.26-1.37.42-.7.73-.92.69-.33 1.11-.33c.45 0 .84.11 1.18.33s.61.53.79.92c.19.39.29.85.29 1.37s-.09.97-.29 1.37c-.19.4-.46.71-.79.92s-.73.33-1.18.33m-.18-.73c.31 0 .59-.08.83-.24s.44-.38.58-.67c.14-.28.22-.61.22-.99s-.07-.69-.21-.98-.33-.51-.57-.67-.53-.24-.84-.24c-.29 0-.56.08-.79.24s-.41.38-.54.67c-.13.28-.2.61-.2.99s.07.69.2.98.31.51.54.67q.345.24.78.24" fill="#fffdf0"/>
        <path d="M106.02 40.32q-.735 0-1.29-.33c-.37-.22-.67-.53-.88-.92s-.31-.85-.31-1.36.1-.97.31-1.36.5-.7.87-.92.79-.33 1.28-.33.87.12 1.21.34c.34.23.6.55.79.97.19.41.28.9.28 1.46h-4.13l.2-.17c0 .4.07.74.21 1.03s.35.5.61.66.56.22.89.22c.35 0 .65-.08.9-.25.24-.17.43-.39.56-.66l.69.35c-.13.26-.29.49-.5.68s-.46.34-.74.45-.6.16-.95.16Zm-1.62-2.98-.21-.16h3.45l-.21.17c0-.32-.06-.6-.19-.83q-.195-.345-.51-.54c-.21-.13-.46-.19-.74-.19s-.53.06-.78.19c-.24.13-.44.3-.59.54-.15.23-.23.5-.23.82Z" fill="#fffdf0"/>
        <path d="M111.01 40.32c-.45 0-.84-.11-1.18-.33s-.61-.53-.79-.92c-.19-.4-.29-.85-.29-1.37s.09-.98.29-1.37c.19-.39.46-.7.79-.92s.73-.33 1.18-.33q.63 0 1.11.33c.32.22.56.53.73.92s.26.85.26 1.37-.09.97-.26 1.37-.42.71-.73.92q-.48.33-1.11.33m.18-.73q.435 0 .78-.24c.23-.16.41-.38.54-.67s.2-.61.2-.98-.07-.69-.2-.98-.31-.51-.54-.67-.49-.24-.79-.24-.59.08-.83.24-.43.38-.58.67c-.14.29-.21.61-.21.98s.07.69.21.98.33.51.58.67q.375.24.84.24m1.51 2.61v-6.07l.04-.93h.76v7z" fill="#fffdf0"/>
        <path d="M114.44 37.76V35.2h.8v2.56zm.8 0c0 .49.06.87.17 1.13s.27.44.47.53q.3.15.69.15c.43 0 .77-.16 1.01-.47s.37-.75.37-1.31h.39c0 .53-.08.98-.23 1.36s-.38.67-.67.87-.65.3-1.07.3q-.585 0-1.02-.24c-.29-.16-.52-.41-.68-.75s-.24-.79-.24-1.33v-.24h.8ZM118 40.2l-.05-.92V35.2h.8v5z" fill="#fffdf0"/>
        <path d="M122.09 40.32q-.735 0-1.29-.33c-.37-.22-.67-.53-.88-.92s-.31-.85-.31-1.36.1-.97.31-1.36.5-.7.87-.92.79-.33 1.28-.33.87.12 1.21.34c.34.23.6.55.79.97.19.41.28.9.28 1.46h-4.13l.2-.17c0 .4.07.74.21 1.03s.35.5.61.66.56.22.89.22c.35 0 .65-.08.9-.25.24-.17.43-.39.56-.66l.69.35c-.13.26-.29.49-.5.68s-.46.34-.74.45-.6.16-.95.16Zm-1.62-2.98-.21-.16h3.45l-.21.17c0-.32-.06-.6-.19-.83q-.195-.345-.51-.54c-.21-.13-.46-.19-.74-.19s-.53.06-.78.19c-.24.13-.44.3-.59.54-.15.23-.23.5-.23.82Z" fill="#fffdf0"/>
        <path d="M125.11 40.2v-5h.75l.05.92v4.08zm3.51-2.56c0-.49-.06-.87-.17-1.13s-.27-.44-.47-.53c-.2-.1-.43-.15-.68-.15-.44 0-.78.16-1.02.46-.24.31-.37.75-.37 1.32h-.39c0-.53.08-.98.23-1.36s.38-.67.67-.87.65-.3 1.06-.3q.585 0 1.02.24c.29.16.52.4.68.75.16.34.24.79.23 1.34v.24h-.8Zm0 2.56v-2.56h.8v2.56z" fill="#fffdf0"/>
        <path d="M132.66 40.32c-.49 0-.93-.11-1.3-.33-.38-.22-.67-.53-.88-.92s-.32-.85-.32-1.36.1-.97.31-1.36.5-.7.88-.92q.57-.33 1.29-.33c.72 0 .92.11 1.29.33.38.22.67.53.88.92s.31.85.31 1.36-.1.97-.31 1.36-.5.7-.88.92c-.37.22-.8.33-1.28.33Zm-.01-.74q.495 0 .87-.24c.25-.16.45-.38.59-.67.14-.28.21-.61.21-.97s-.07-.69-.21-.97-.34-.51-.6-.67c-.25-.16-.55-.24-.88-.24s-.61.08-.86.24-.45.38-.59.66-.21.61-.21.98.07.69.21.97.34.51.6.67.55.24.88.24Z" fill="#fffdf0"/>
        <path d="M137.74 40.32c-.37 0-.69-.05-.96-.17s-.5-.25-.69-.44c-.18-.18-.31-.38-.39-.59l.7-.29c.11.23.28.41.51.55q.345.21.75.21c.31 0 .58-.06.79-.19.21-.12.32-.3.32-.52 0-.21-.08-.37-.24-.5s-.39-.23-.7-.31l-.48-.13c-.45-.12-.81-.3-1.06-.54s-.38-.52-.38-.83c0-.47.16-.84.46-1.1.31-.26.77-.4 1.39-.4.29 0 .56.04.8.13s.45.21.62.37.3.34.38.55l-.7.31a.87.87 0 0 0-.43-.49c-.2-.1-.44-.15-.73-.15-.31 0-.55.07-.72.2s-.26.31-.26.54c0 .13.07.26.21.38s.35.21.63.29l.5.13c.33.08.6.2.82.36s.39.33.5.53.17.41.17.64q0 .45-.24.78c-.16.22-.38.39-.65.5-.27.12-.59.17-.94.17Z" fill="#fffdf0"/>
        <path d="m140.1 41.35.57-2.11h.9l-.78 2.11z" fill="#fffdf0"/>
        <path d="M144.63 40.2v-5h.75l.05.92v4.08zm3.51-2.56c0-.49-.06-.87-.17-1.13s-.27-.44-.47-.53c-.2-.1-.43-.15-.68-.15-.44 0-.78.16-1.02.46-.24.31-.37.75-.37 1.32h-.39c0-.53.08-.98.23-1.36s.38-.67.67-.87.65-.3 1.06-.3q.585 0 1.02.24c.29.16.52.4.68.75.16.34.24.79.23 1.34v.24h-.8Zm0 2.56v-2.56h.8v2.56z" fill="#fffdf0"/>
        <path d="M152.18 40.32c-.49 0-.93-.11-1.3-.33-.38-.22-.67-.53-.88-.92s-.32-.85-.32-1.36.1-.97.31-1.36.5-.7.88-.92q.57-.33 1.29-.33c.72 0 .92.11 1.29.33.38.22.67.53.88.92s.31.85.31 1.36-.1.97-.31 1.36-.5.7-.88.92c-.37.22-.8.33-1.28.33Zm-.01-.74q.495 0 .87-.24c.25-.16.45-.38.59-.67.14-.28.21-.61.21-.97s-.07-.69-.21-.97-.34-.51-.6-.67c-.25-.16-.55-.24-.88-.24s-.61.08-.86.24-.45.38-.59.66-.21.61-.21.98.07.69.21.97.34.51.6.67.55.24.88.24Z" fill="#fffdf0"/>
        <path d="M157.26 40.32c-.37 0-.69-.05-.96-.17s-.5-.25-.69-.44c-.18-.18-.31-.38-.39-.59l.7-.29c.11.23.28.41.51.55q.345.21.75.21c.31 0 .58-.06.79-.19.21-.12.32-.3.32-.52 0-.21-.08-.37-.24-.5s-.39-.23-.7-.31l-.48-.13c-.45-.12-.81-.3-1.06-.54s-.38-.52-.38-.83c0-.47.16-.84.46-1.1.31-.26.77-.4 1.39-.4.29 0 .56.04.8.13s.45.21.62.37.3.34.38.55l-.7.31a.87.87 0 0 0-.43-.49c-.2-.1-.44-.15-.73-.15-.31 0-.55.07-.72.2s-.26.31-.26.54c0 .13.07.26.21.38s.35.21.63.29l.5.13c.33.08.6.2.82.36s.39.33.5.53.17.41.17.64q0 .45-.24.78c-.16.22-.38.39-.65.5-.27.12-.59.17-.94.17Z" fill="#fffdf0"/>
        <path d="M161.67 40.32c-.37 0-.69-.05-.96-.17s-.5-.25-.69-.44c-.18-.18-.31-.38-.39-.59l.7-.29c.11.23.28.41.51.55q.345.21.75.21c.31 0 .58-.06.79-.19.21-.12.32-.3.32-.52 0-.21-.08-.37-.24-.5s-.39-.23-.7-.31l-.48-.13c-.45-.12-.81-.3-1.06-.54s-.38-.52-.38-.83c0-.47.16-.84.46-1.1.31-.26.77-.4 1.39-.4.29 0 .56.04.8.13s.45.21.62.37.3.34.38.55l-.7.31a.87.87 0 0 0-.43-.49c-.2-.1-.44-.15-.73-.15-.31 0-.55.07-.72.2s-.26.31-.26.54c0 .13.07.26.21.38s.35.21.63.29l.5.13c.33.08.6.2.82.36s.39.33.5.53.17.41.17.64q0 .45-.24.78c-.16.22-.38.39-.65.5-.27.12-.59.17-.94.17Z" fill="#fffdf0"/>
        <path d="M166.55 40.32c-.49 0-.93-.11-1.3-.33-.38-.22-.67-.53-.88-.92s-.32-.85-.32-1.36.1-.97.31-1.36.5-.7.88-.92q.57-.33 1.29-.33c.72 0 .92.11 1.29.33.38.22.67.53.88.92s.31.85.31 1.36-.1.97-.31 1.36-.5.7-.88.92c-.37.22-.8.33-1.28.33Zm-.01-.74q.495 0 .87-.24c.25-.16.45-.38.59-.67.14-.28.21-.61.21-.97s-.07-.69-.21-.97-.34-.51-.6-.67c-.25-.16-.55-.24-.88-.24s-.61.08-.86.24-.45.38-.59.66-.21.61-.21.98.07.69.21.97.34.51.6.67.55.24.88.24Z" fill="#fffdf0"/>
        <path d="M171.63 40.32c-.37 0-.69-.05-.96-.17s-.5-.25-.69-.44c-.18-.18-.31-.38-.39-.59l.7-.29c.11.23.28.41.51.55q.345.21.75.21c.31 0 .58-.06.79-.19.21-.12.32-.3.32-.52 0-.21-.08-.37-.24-.5s-.39-.23-.7-.31l-.48-.13c-.45-.12-.81-.3-1.06-.54s-.38-.52-.38-.83c0-.47.16-.84.46-1.1.31-.26.77-.4 1.39-.4.29 0 .56.04.8.13s.45.21.62.37.3.34.38.55l-.7.31a.87.87 0 0 0-.43-.49c-.2-.1-.44-.15-.73-.15-.31 0-.55.07-.72.2s-.26.31-.26.54c0 .13.07.26.21.38s.35.21.63.29l.5.13c.33.08.6.2.82.36s.39.33.5.53.17.41.17.64q0 .45-.24.78c-.16.22-.38.39-.65.5-.27.12-.59.17-.94.17Z" fill="#fffdf0"/>
        <path d="M178.48 40.16c-.45 0-.84-.11-1.18-.32s-.61-.51-.79-.89c-.19-.38-.29-.82-.29-1.32s.09-.95.29-1.33c.19-.38.46-.68.79-.89.34-.21.73-.32 1.18-.32.42 0 .79.11 1.1.32s.56.51.74.89.26.83.26 1.33-.09.94-.26 1.32-.42.68-.74.89c-.31.21-.68.32-1.1.32m.03 2.16c-.32 0-.61-.03-.88-.09-.26-.06-.49-.13-.67-.21s-.32-.14-.4-.2l.3-.65c.09.05.21.11.37.17q.24.105.57.18c.33.075.45.08.7.08.32 0 .61-.07.86-.2s.46-.33.6-.61.21-.63.21-1.06V35.2h.8v4.52c0 .57-.11 1.05-.32 1.44s-.51.68-.88.87-.8.29-1.27.29Zm.16-2.85q.435 0 .78-.24c.23-.16.4-.38.53-.66s.19-.6.19-.96-.07-.67-.2-.95-.31-.49-.53-.65-.48-.24-.79-.24-.59.08-.83.24-.43.37-.57.65-.21.59-.21.95.07.69.21.96c.14.28.33.5.58.66.24.16.52.24.83.24Z" fill="#fffdf0"/>
        <path d="M182.13 40.2v-5h.8v5zm.44-2.71c0-.54.1-.98.31-1.32s.47-.59.79-.75.67-.24 1.02-.24v.75c-.29 0-.57.05-.84.14-.27.1-.49.25-.67.47-.17.22-.26.52-.26.9l-.36.04Z" fill="#fffdf0"/>
        <path d="M186.84 40.32c-.59 0-1.04-.13-1.38-.41-.33-.27-.5-.64-.5-1.12 0-.51.17-.89.5-1.17.34-.27.81-.41 1.42-.41h1.43v.67h-1.25c-.47 0-.8.08-1 .23s-.29.37-.29.66c0 .26.1.46.29.62.19.15.46.22.81.22q.435 0 .75-.18c.21-.12.38-.3.5-.53s.17-.5.17-.82h.34c0 .68-.15 1.22-.46 1.62s-.75.61-1.34.61Zm1.5-.12-.04-.82v-1.82c0-.39-.04-.72-.13-.98s-.22-.45-.41-.58-.43-.2-.73-.2c-.27 0-.51.06-.71.17s-.36.29-.48.53l-.72-.28c.13-.23.28-.43.46-.6q.27-.255.63-.39c.24-.09.51-.13.82-.13.47 0 .85.09 1.16.28s.53.45.68.81.23.8.22 1.33v2.71h-.75Zm-.44-5.66c-.19 0-.35-.04-.47-.11s-.22-.16-.29-.25c-.08-.09-.15-.18-.21-.25-.07-.07-.14-.11-.23-.11-.11 0-.19.03-.25.08s-.1.16-.13.29h-.65c.02-.18.07-.35.16-.5s.2-.28.35-.38c.15-.09.32-.14.51-.14s.34.04.45.11.21.16.29.25.15.18.22.25.16.11.25.11c.11 0 .2-.03.25-.1s.09-.16.11-.28h.64c-.03.27-.13.5-.3.71s-.4.31-.7.31Z" fill="#fffdf0"/>
        <path d="M192.32 40.32c-.49 0-.93-.11-1.3-.33-.38-.22-.67-.53-.88-.92s-.32-.85-.32-1.36.1-.97.31-1.36.5-.7.88-.92q.57-.33 1.29-.33c.72 0 .92.11 1.29.33.38.22.67.53.88.92s.31.85.31 1.36-.1.97-.31 1.36-.5.7-.88.92c-.37.22-.8.33-1.28.33Zm-.01-.74q.495 0 .87-.24c.25-.16.45-.38.59-.67.14-.28.21-.61.21-.97s-.07-.69-.21-.97-.34-.51-.6-.67c-.25-.16-.55-.24-.88-.24s-.61.08-.86.24-.45.38-.59.66-.21.61-.21.98.07.69.21.97.34.51.6.67.55.24.88.24Z" fill="#fffdf0"/>
        <path d="M197.4 40.32c-.37 0-.69-.05-.96-.17s-.5-.25-.69-.44c-.18-.18-.31-.38-.39-.59l.7-.29c.11.23.28.41.51.55q.345.21.75.21c.31 0 .58-.06.79-.19.21-.12.32-.3.32-.52 0-.21-.08-.37-.24-.5s-.39-.23-.7-.31l-.48-.13c-.45-.12-.81-.3-1.06-.54s-.38-.52-.38-.83c0-.47.16-.84.46-1.1.31-.26.77-.4 1.39-.4.29 0 .56.04.8.13s.45.21.62.37.3.34.38.55l-.7.31a.87.87 0 0 0-.43-.49c-.2-.1-.44-.15-.73-.15-.31 0-.55.07-.72.2s-.26.31-.26.54c0 .13.07.26.21.38s.35.21.63.29l.5.13c.33.08.6.2.82.36s.39.33.5.53.17.41.17.64q0 .45-.24.78c-.16.22-.38.39-.65.5-.27.12-.59.17-.94.17Z" fill="#fffdf0"/>
        <path d="M204.51 40.32c-.49 0-.93-.11-1.31-.33s-.68-.53-.89-.92-.32-.85-.32-1.36.1-.97.31-1.36.51-.7.89-.92.81-.33 1.3-.33.91.11 1.29.33.67.53.87.93l-.73.33c-.13-.27-.33-.47-.58-.62s-.54-.22-.87-.22-.61.08-.86.24-.45.38-.59.67c-.14.28-.21.61-.21.97s.07.69.21.97.34.51.6.67.55.24.88.24.62-.08.88-.25.45-.4.58-.7l.73.33c-.2.43-.49.76-.87 1s-.81.36-1.3.36Z" fill="#fffdf0"/>
        <path d="M209.66 40.32c-.49 0-.93-.11-1.3-.33-.38-.22-.67-.53-.88-.92s-.32-.85-.32-1.36.1-.97.31-1.36.5-.7.88-.92q.57-.33 1.29-.33c.72 0 .92.11 1.29.33.38.22.67.53.88.92s.31.85.31 1.36-.1.97-.31 1.36-.5.7-.88.92c-.37.22-.8.33-1.28.33Zm-.01-.74q.495 0 .87-.24c.25-.16.45-.38.59-.67.14-.28.21-.61.21-.97s-.07-.69-.21-.97-.34-.51-.6-.67c-.25-.16-.55-.24-.88-.24s-.61.08-.86.24-.45.38-.59.66-.21.61-.21.98.07.69.21.97.34.51.6.67.55.24.88.24Z" fill="#fffdf0"/>
        <path d="M212.99 40.2v-7h.8v7z" fill="#fffdf0"/>
        <path d="M216.52 40.32c-.59 0-1.04-.13-1.38-.41-.33-.27-.5-.64-.5-1.12 0-.51.17-.89.5-1.17.34-.27.81-.41 1.42-.41h1.43v.67h-1.25c-.47 0-.8.08-1 .23s-.29.37-.29.66c0 .26.1.46.29.62.19.15.46.22.81.22q.435 0 .75-.18c.21-.12.38-.3.5-.53s.17-.5.17-.82h.34c0 .68-.15 1.22-.46 1.62s-.75.61-1.34.61Zm1.5-.12-.04-.82v-1.82c0-.39-.04-.72-.13-.98s-.22-.45-.41-.58-.43-.2-.73-.2c-.27 0-.51.06-.71.17s-.36.29-.48.53l-.72-.28c.13-.23.28-.43.46-.6q.27-.255.63-.39c.24-.09.51-.13.82-.13.47 0 .85.09 1.16.28s.53.45.68.81.23.8.22 1.33v2.71h-.75Z" fill="#fffdf0"/>
        <path d="M219.79 40.2v-7h.8v6.07l-.04.93zm2.49.12q-.63 0-1.11-.33c-.48-.33-.56-.53-.74-.92-.17-.4-.26-.85-.26-1.37s.09-.98.26-1.37.42-.7.74-.92.68-.33 1.11-.33c.45 0 .84.11 1.18.33s.6.53.79.92.29.85.29 1.37-.09.97-.29 1.37-.46.71-.79.92-.73.33-1.18.33m-.18-.73c.31 0 .59-.08.83-.24s.44-.38.58-.67.21-.61.21-.99-.07-.69-.21-.98-.33-.51-.57-.67-.53-.24-.85-.24q-.435 0-.78.24c-.23.16-.41.38-.54.67-.13.28-.2.61-.2.99s.07.69.2.98.31.51.54.67q.345.24.78.24Z" fill="#fffdf0"/>
        <path d="M227.62 40.32c-.49 0-.93-.11-1.3-.33-.38-.22-.67-.53-.88-.92s-.32-.85-.32-1.36.1-.97.31-1.36.5-.7.88-.92q.57-.33 1.29-.33c.72 0 .92.11 1.29.33.38.22.67.53.88.92s.31.85.31 1.36-.1.97-.31 1.36-.5.7-.88.92c-.37.22-.8.33-1.28.33Zm-.01-.74q.495 0 .87-.24c.25-.16.45-.38.59-.67.14-.28.21-.61.21-.97s-.07-.69-.21-.97-.34-.51-.6-.67c-.25-.16-.55-.24-.88-.24s-.61.08-.86.24-.45.38-.59.66-.21.61-.21.98.07.69.21.97.34.51.6.67.55.24.88.24Z" fill="#fffdf0"/>
        <path d="M230.95 40.2v-5h.8v5zm.44-2.71c0-.54.1-.98.31-1.32s.47-.59.79-.75.67-.24 1.02-.24v.75c-.29 0-.57.05-.84.14-.27.1-.49.25-.67.47-.17.22-.26.52-.26.9l-.36.04Z" fill="#fffdf0"/>
        <path d="M235.66 40.32c-.59 0-1.04-.13-1.38-.41-.33-.27-.5-.64-.5-1.12 0-.51.17-.89.5-1.17.34-.27.81-.41 1.42-.41h1.43v.67h-1.25c-.47 0-.8.08-1 .23s-.29.37-.29.66c0 .26.1.46.29.62.19.15.46.22.81.22q.435 0 .75-.18c.21-.12.38-.3.5-.53s.17-.5.17-.82h.34c0 .68-.15 1.22-.46 1.62s-.75.61-1.34.61Zm1.5-.12-.04-.82v-1.82c0-.39-.04-.72-.13-.98s-.22-.45-.41-.58-.43-.2-.73-.2c-.27 0-.51.06-.71.17s-.36.29-.48.53l-.72-.28c.13-.23.28-.43.46-.6q.27-.255.63-.39c.24-.09.51-.13.82-.13.47 0 .85.09 1.16.28s.53.45.68.81.23.8.22 1.33v2.71h-.75Z" fill="#fffdf0"/>
        <path d="M238.93 40.2v-5h.75l.04.7c.15-.27.35-.47.59-.61q.36-.21.84-.21c.4 0 .74.09 1.03.28.28.19.49.47.61.85.14-.37.35-.65.62-.84s.59-.29.96-.29c.56 0 1 .19 1.33.56.32.37.48.94.48 1.7v2.86h-.8v-2.56c0-.49-.05-.87-.15-1.13s-.24-.44-.42-.53q-.255-.15-.6-.15c-.39 0-.7.16-.92.46q-.33.465-.33 1.32v2.59h-.8v-2.56c0-.49-.05-.87-.16-1.13-.1-.26-.24-.44-.42-.53s-.38-.15-.6-.15c-.39 0-.69.16-.91.46q-.33.465-.33 1.32v2.59h-.8Z" fill="#fffdf0"/>
        <path d="M86.04 53.7v-7h.75l.05.92v6.08zm2.49-1.88q-.63 0-1.11-.33c-.48-.33-.56-.53-.73-.92-.17-.4-.26-.85-.26-1.37s.09-.98.26-1.37.42-.7.73-.92.69-.33 1.11-.33c.45 0 .84.11 1.18.33s.61.53.79.92c.19.39.29.85.29 1.37s-.09.97-.29 1.37c-.19.4-.46.71-.79.92s-.73.33-1.18.33m-.18-.73c.31 0 .59-.08.83-.24s.44-.38.58-.67c.14-.28.22-.61.22-.99s-.07-.69-.21-.98-.33-.51-.57-.67-.53-.24-.84-.24c-.29 0-.56.08-.79.24s-.41.38-.54.67c-.13.28-.2.61-.2.99s.07.69.2.98.31.51.54.67q.345.24.78.24" fill="#fffdf0"/>
        <path d="M93.23 51.82c-.59 0-1.04-.13-1.38-.41-.33-.27-.5-.64-.5-1.12 0-.51.17-.89.5-1.17.34-.27.81-.41 1.42-.41h1.43v.67h-1.25c-.47 0-.8.08-1 .23s-.29.37-.29.66c0 .26.1.46.29.62.19.15.46.22.81.22q.435 0 .75-.18c.21-.12.38-.3.5-.53s.17-.5.17-.82h.34c0 .68-.15 1.22-.46 1.62s-.75.61-1.34.61Zm1.5-.12-.04-.82v-1.82c0-.39-.04-.72-.13-.98s-.22-.45-.41-.58-.43-.2-.73-.2c-.27 0-.51.06-.71.17s-.36.29-.48.53l-.72-.28c.13-.23.28-.43.46-.6q.27-.255.63-.39c.24-.09.51-.13.82-.13.47 0 .85.09 1.16.28s.53.45.68.81.23.8.22 1.33v2.71h-.75Z" fill="#fffdf0"/>
        <path d="M96.5 51.7v-5h.8v5zm.44-2.71c0-.54.1-.98.31-1.32s.47-.59.79-.75.67-.24 1.02-.24v.75c-.29 0-.57.05-.84.14-.27.1-.49.25-.67.47-.17.22-.26.52-.26.9l-.36.04Z" fill="#fffdf0"/>
        <path d="M101.21 51.82c-.59 0-1.04-.13-1.38-.41-.33-.27-.5-.64-.5-1.12 0-.51.17-.89.5-1.17.34-.27.81-.41 1.42-.41h1.43v.67h-1.25c-.47 0-.8.08-1 .23s-.29.37-.29.66c0 .26.1.46.29.62.19.15.46.22.81.22q.435 0 .75-.18c.21-.12.38-.3.5-.53s.17-.5.17-.82h.34c0 .68-.15 1.22-.46 1.62s-.75.61-1.34.61Zm1.5-.12-.04-.82v-1.82c0-.39-.04-.72-.13-.98s-.22-.45-.41-.58-.43-.2-.73-.2c-.27 0-.51.06-.71.17s-.36.29-.48.53l-.72-.28c.13-.23.28-.43.46-.6q.27-.255.63-.39c.24-.09.51-.13.82-.13.47 0 .85.09 1.16.28s.53.45.68.81.23.8.22 1.33v2.71h-.75Z" fill="#fffdf0"/>
        <path d="M106.18 47.41v-.71h3.17v.71zm2.4 4.41c-.49 0-.86-.13-1.13-.38s-.4-.61-.4-1.07v-5.23h.8v5.15c0 .25.07.45.21.58s.33.21.58.21c.08 0 .16-.01.24-.04.08-.02.18-.08.3-.17l.31.65c-.17.11-.33.19-.47.23s-.28.07-.43.07Z" fill="#fffdf0"/>
        <path d="M112.42 51.82c-.49 0-.93-.11-1.3-.33-.38-.22-.67-.53-.88-.92s-.32-.85-.32-1.36.1-.97.31-1.36.5-.7.88-.92q.57-.33 1.29-.33c.72 0 .92.11 1.29.33.38.22.67.53.88.92s.31.85.31 1.36-.1.97-.31 1.36-.5.7-.88.92c-.37.22-.8.33-1.28.33Zm-.01-.74q.495 0 .87-.24c.25-.16.45-.38.59-.67.14-.28.21-.61.21-.97s-.07-.69-.21-.97-.34-.51-.6-.67c-.25-.16-.55-.24-.88-.24s-.61.08-.86.24-.45.38-.59.66-.21.61-.21.98.07.69.21.97.34.51.6.67.55.24.88.24Z" fill="#fffdf0"/>
        <path d="M115.75 51.7v-5h.8v5zm.44-2.71c0-.54.1-.98.31-1.32s.47-.59.79-.75.67-.24 1.02-.24v.75c-.29 0-.57.05-.84.14-.27.1-.49.25-.67.47-.17.22-.26.52-.26.9l-.36.04Z" fill="#fffdf0"/>
        <path d="M118.88 51.7v-5h.75l.05.92v4.08zm3.51-2.56c0-.49-.06-.87-.17-1.13s-.27-.44-.47-.53c-.2-.1-.43-.15-.68-.15-.44 0-.78.16-1.02.46-.24.31-.37.75-.37 1.32h-.39c0-.53.08-.98.23-1.36s.38-.67.67-.87.65-.3 1.06-.3q.585 0 1.02.24c.29.16.52.4.68.75.16.34.24.79.23 1.34v.24h-.8Zm0 2.56v-2.56h.8v2.56z" fill="#fffdf0"/>
        <path d="M125.79 51.82c-.59 0-1.04-.13-1.38-.41-.33-.27-.5-.64-.5-1.12 0-.51.17-.89.5-1.17.34-.27.81-.41 1.42-.41h1.43v.67h-1.25c-.47 0-.8.08-1 .23s-.29.37-.29.66c0 .26.1.46.29.62.19.15.46.22.81.22q.435 0 .75-.18c.21-.12.38-.3.5-.53s.17-.5.17-.82h.34c0 .68-.15 1.22-.46 1.62s-.75.61-1.34.61Zm1.5-.12-.04-.82v-1.82c0-.39-.04-.72-.13-.98s-.22-.45-.41-.58-.43-.2-.73-.2c-.27 0-.51.06-.71.17s-.36.29-.48.53l-.72-.28c.13-.23.28-.43.46-.6q.27-.255.63-.39c.24-.09.51-.13.82-.13.47 0 .85.09 1.16.28s.53.45.68.81.23.8.22 1.33v2.71h-.75Z" fill="#fffdf0"/>
        <path d="M129.06 51.7v-5h.8v5zm.44-2.71c0-.54.1-.98.31-1.32s.47-.59.79-.75.67-.24 1.02-.24v.75c-.29 0-.57.05-.84.14-.27.1-.49.25-.67.47-.17.22-.26.52-.26.9l-.36.04Z" fill="#fffdf0"/>
        <path d="M135.99 51.82c-.59 0-1.04-.13-1.38-.41-.33-.27-.5-.64-.5-1.12 0-.51.17-.89.5-1.17.34-.27.81-.41 1.42-.41h1.43v.67h-1.25c-.47 0-.8.08-1 .23s-.29.37-.29.66c0 .26.1.46.29.62.19.15.46.22.81.22q.435 0 .75-.18c.21-.12.38-.3.5-.53s.17-.5.17-.82h.34c0 .68-.15 1.22-.46 1.62s-.75.61-1.34.61Zm1.5-.12-.04-.82v-1.82c0-.39-.04-.72-.13-.98s-.22-.45-.41-.58-.43-.2-.73-.2c-.27 0-.51.06-.71.17s-.36.29-.48.53l-.72-.28c.13-.23.28-.43.46-.6q.27-.255.63-.39c.24-.09.51-.13.82-.13.47 0 .85.09 1.16.28s.53.45.68.81.23.8.22 1.33v2.71h-.75Z" fill="#fffdf0"/>
        <path d="M141.48 51.7v-5h.75l.04.7c.15-.27.35-.47.59-.61q.36-.21.84-.21c.4 0 .74.09 1.03.28.28.19.49.47.61.85.14-.37.35-.65.62-.84s.59-.29.96-.29c.56 0 1 .19 1.33.56.32.37.48.94.48 1.7v2.86h-.8v-2.56c0-.49-.05-.87-.15-1.13s-.24-.44-.42-.53q-.255-.15-.6-.15c-.39 0-.7.16-.92.46q-.33.465-.33 1.32v2.59h-.8v-2.56c0-.49-.05-.87-.16-1.13-.1-.26-.24-.44-.42-.53s-.38-.15-.6-.15c-.39 0-.69.16-.91.46q-.33.465-.33 1.32v2.59h-.8Z" fill="#fffdf0"/>
        <path d="M151.32 51.82c-.59 0-1.04-.13-1.38-.41-.33-.27-.5-.64-.5-1.12 0-.51.17-.89.5-1.17.34-.27.81-.41 1.42-.41h1.43v.67h-1.25c-.47 0-.8.08-1 .23s-.29.37-.29.66c0 .26.1.46.29.62.19.15.46.22.81.22q.435 0 .75-.18c.21-.12.38-.3.5-.53s.17-.5.17-.82h.34c0 .68-.15 1.22-.46 1.62s-.75.61-1.34.61Zm1.5-.12-.04-.82v-1.82c0-.39-.04-.72-.13-.98s-.22-.45-.41-.58-.43-.2-.73-.2c-.27 0-.51.06-.71.17s-.36.29-.48.53l-.72-.28c.13-.23.28-.43.46-.6q.27-.255.63-.39c.24-.09.51-.13.82-.13.47 0 .85.09 1.16.28s.53.45.68.81.23.8.22 1.33v2.71h-.75Z" fill="#fffdf0"/>
        <path d="M156.34 51.82c-.37 0-.69-.05-.96-.17s-.5-.25-.69-.44c-.18-.18-.31-.38-.39-.59l.7-.29c.11.23.28.41.51.55q.345.21.75.21c.31 0 .58-.06.79-.19.21-.12.32-.3.32-.52 0-.21-.08-.37-.24-.5s-.39-.23-.7-.31l-.48-.13c-.45-.12-.81-.3-1.06-.54s-.38-.52-.38-.83c0-.47.16-.84.46-1.1.31-.26.77-.4 1.39-.4.29 0 .56.04.8.13s.45.21.62.37.3.34.38.55l-.7.31a.87.87 0 0 0-.43-.49c-.2-.1-.44-.15-.73-.15-.31 0-.55.07-.72.2s-.26.31-.26.54c0 .13.07.26.21.38s.35.21.63.29l.5.13c.33.08.6.2.82.36s.39.33.5.53.17.41.17.64q0 .45-.24.78c-.16.22-.38.39-.65.5-.27.12-.59.17-.94.17Z" fill="#fffdf0"/>
        <path d="M158.48 47.41v-.71h3.17v.71zm2.4 4.41c-.49 0-.86-.13-1.13-.38s-.4-.61-.4-1.07v-5.23h.8v5.15c0 .25.07.45.21.58s.33.21.58.21c.08 0 .16-.01.24-.04.08-.02.18-.08.3-.17l.31.65c-.17.11-.33.19-.47.23s-.28.07-.43.07Z" fill="#fffdf0"/>
        <path d="M162.99 45.54c-.13 0-.25-.05-.35-.15a.485.485 0 0 1 0-.7.485.485 0 0 1 .7 0c.09.1.15.21.15.35s-.05.25-.15.35-.21.15-.35.15m-.41 6.16v-5h.8v5z" fill="#fffdf0"/>
        <path d="M166.57 51.66c-.45 0-.84-.11-1.18-.32s-.61-.51-.79-.89c-.19-.38-.29-.82-.29-1.32s.09-.95.29-1.33c.19-.38.46-.68.79-.89.34-.21.73-.32 1.18-.32.42 0 .79.11 1.1.32s.56.51.74.89.26.83.26 1.33-.09.94-.26 1.32-.42.68-.74.89c-.31.21-.68.32-1.1.32m.03 2.16q-.48 0-.87-.09c-.26-.06-.49-.13-.67-.21s-.32-.14-.4-.2l.3-.65c.09.05.21.11.37.17q.24.105.57.18c.33.075.45.08.7.08.32 0 .61-.07.86-.2s.46-.33.6-.61.21-.63.21-1.06V46.7h.8v4.52c0 .57-.11 1.05-.32 1.44s-.51.68-.88.87-.8.29-1.27.29m.16-2.85q.435 0 .78-.24c.345-.24.4-.38.53-.66s.19-.6.19-.96-.07-.67-.2-.95-.31-.49-.53-.65-.48-.24-.79-.24-.59.08-.83.24-.43.37-.57.65-.21.59-.21.95.07.69.21.96c.14.28.33.5.58.66.24.16.52.24.83.24Z" fill="#fffdf0"/>
        <path d="M171.8 51.82c-.59 0-1.04-.13-1.38-.41-.33-.27-.5-.64-.5-1.12 0-.51.17-.89.5-1.17.34-.27.81-.41 1.42-.41h1.43v.67h-1.25c-.47 0-.8.08-1 .23s-.29.37-.29.66c0 .26.1.46.29.62.19.15.46.22.81.22q.435 0 .75-.18c.21-.12.38-.3.5-.53s.17-.5.17-.82h.34c0 .68-.15 1.22-.46 1.62s-.75.61-1.34.61Zm1.5-.12-.04-.82v-1.82c0-.39-.04-.72-.13-.98s-.22-.45-.41-.58-.43-.2-.73-.2c-.27 0-.51.06-.71.17s-.36.29-.48.53l-.72-.28c.13-.23.28-.43.46-.6q.27-.255.63-.39c.24-.09.51-.13.82-.13.47 0 .85.09 1.16.28s.53.45.68.81.23.8.22 1.33v2.71h-.75Z" fill="#fffdf0"/>
        <path d="M177.3 51.82c-.49 0-.93-.11-1.31-.33s-.68-.53-.89-.92-.32-.85-.32-1.36.1-.97.31-1.36.51-.7.89-.92.81-.33 1.3-.33.91.11 1.29.33.67.53.87.93l-.73.33c-.13-.27-.33-.47-.58-.62s-.54-.22-.87-.22-.61.08-.86.24-.45.38-.59.67c-.14.28-.21.61-.21.97s.07.69.21.97.34.51.6.67.55.24.88.24.62-.08.88-.25.45-.4.58-.7l.73.33c-.2.43-.49.76-.87 1s-.81.36-1.3.36Zm-.31 1.98c-.13 0-.27-.02-.42-.05s-.33-.11-.54-.22l.2-.48c.1.05.21.09.32.14.12.05.22.07.32.07.12 0 .23-.02.33-.07s.14-.14.14-.29a.44.44 0 0 0-.18-.38c-.12-.08-.32-.15-.58-.19l.3-.7.53.12-.11.26c.25.09.42.21.53.36.1.16.16.32.16.5q0 .39-.24.66c-.24.27-.41.26-.75.26Z" fill="#fffdf0"/>
        <path d="M181.81 51.82c-.59 0-1.04-.13-1.38-.41-.33-.27-.5-.64-.5-1.12 0-.51.17-.89.5-1.17.34-.27.81-.41 1.42-.41h1.43v.67h-1.25c-.47 0-.8.08-1 .23s-.29.37-.29.66c0 .26.1.46.29.62.19.15.46.22.81.22q.435 0 .75-.18c.21-.12.38-.3.5-.53s.17-.5.17-.82h.34c0 .68-.15 1.22-.46 1.62s-.75.61-1.34.61Zm1.5-.12-.04-.82v-1.82c0-.39-.04-.72-.13-.98s-.22-.45-.41-.58-.43-.2-.73-.2c-.27 0-.51.06-.71.17s-.36.29-.48.53l-.72-.28c.13-.23.28-.43.46-.6q.27-.255.63-.39c.24-.09.51-.13.82-.13.47 0 .85.09 1.16.28s.53.45.68.81.23.8.22 1.33v2.71h-.75Zm-.44-5.66c-.19 0-.35-.04-.47-.11s-.22-.16-.29-.25c-.08-.09-.15-.18-.21-.25-.07-.07-.14-.11-.23-.11-.11 0-.19.03-.25.08s-.1.16-.13.29h-.65c.02-.18.07-.35.16-.5s.2-.28.35-.38c.15-.09.32-.14.51-.14s.34.04.45.11.21.16.29.25.15.18.22.25.16.11.25.11c.11 0 .2-.03.25-.1s.09-.16.11-.28h.64c-.03.27-.13.5-.3.71s-.4.31-.7.31Z" fill="#fffdf0"/>
        <path d="M187.29 51.82c-.49 0-.93-.11-1.3-.33-.38-.22-.67-.53-.88-.92s-.32-.85-.32-1.36.1-.97.31-1.36.5-.7.88-.92q.57-.33 1.29-.33c.72 0 .92.11 1.29.33.38.22.67.53.88.92s.31.85.31 1.36-.1.97-.31 1.36-.5.7-.88.92c-.37.22-.8.33-1.28.33Zm-.01-.74q.495 0 .87-.24c.25-.16.45-.38.59-.67.14-.28.21-.61.21-.97s-.07-.69-.21-.97-.34-.51-.6-.67c-.25-.16-.55-.24-.88-.24s-.61.08-.86.24-.45.38-.59.66-.21.61-.21.98.07.69.21.97.34.51.6.67.55.24.88.24Z" fill="#fffdf0"/>
        <path d="M192.84 51.7v-5h.75l.04.7c.15-.27.35-.47.59-.61q.36-.21.84-.21c.4 0 .74.09 1.03.28.28.19.49.47.61.85.14-.37.35-.65.62-.84s.59-.29.96-.29c.56 0 1 .19 1.33.56.32.37.48.94.48 1.7v2.86h-.8v-2.56c0-.49-.05-.87-.15-1.13s-.24-.44-.42-.53q-.255-.15-.6-.15c-.39 0-.7.16-.92.46q-.33.465-.33 1.32v2.59h-.8v-2.56c0-.49-.05-.87-.16-1.13-.1-.26-.24-.44-.42-.53s-.38-.15-.6-.15c-.39 0-.69.16-.91.46q-.33.465-.33 1.32v2.59h-.8Z" fill="#fffdf0"/>
        <path d="M202.68 51.82c-.59 0-1.04-.13-1.38-.41-.33-.27-.5-.64-.5-1.12 0-.51.17-.89.5-1.17.34-.27.81-.41 1.42-.41h1.43v.67h-1.25c-.47 0-.8.08-1 .23s-.29.37-.29.66c0 .26.1.46.29.62.19.15.46.22.81.22q.435 0 .75-.18c.21-.12.38-.3.5-.53s.17-.5.17-.82h.34c0 .68-.15 1.22-.46 1.62s-.75.61-1.34.61Zm1.5-.12-.04-.82v-1.82c0-.39-.04-.72-.13-.98s-.22-.45-.41-.58-.43-.2-.73-.2c-.27 0-.51.06-.71.17s-.36.29-.48.53l-.72-.28c.13-.23.28-.43.46-.6q.27-.255.63-.39c.24-.09.51-.13.82-.13.47 0 .85.09 1.16.28s.53.45.68.81.23.8.22 1.33v2.71h-.75Z" fill="#fffdf0"/>
        <path d="M206.41 45.54c-.13 0-.25-.05-.35-.15a.485.485 0 0 1 0-.7.485.485 0 0 1 .7 0c.09.1.15.21.15.35s-.05.25-.15.35-.21.15-.35.15M206 51.7v-5h.8v5z" fill="#fffdf0"/>
        <path d="M209.77 51.82c-.37 0-.69-.05-.96-.17s-.5-.25-.69-.44c-.18-.18-.31-.38-.39-.59l.7-.29c.11.23.28.41.51.55q.345.21.75.21c.31 0 .58-.06.79-.19.21-.12.32-.3.32-.52 0-.21-.08-.37-.24-.5s-.39-.23-.7-.31l-.48-.13c-.45-.12-.81-.3-1.06-.54s-.38-.52-.38-.83c0-.47.16-.84.46-1.1.31-.26.77-.4 1.39-.4.29 0 .56.04.8.13s.45.21.62.37.3.34.38.55l-.7.31a.87.87 0 0 0-.43-.49c-.2-.1-.44-.15-.73-.15-.31 0-.55.07-.72.2s-.26.31-.26.54c0 .13.07.26.21.38s.35.21.63.29l.5.13c.33.08.6.2.82.36s.39.33.5.53.17.41.17.64q0 .45-.24.78c-.16.22-.38.39-.65.5-.27.12-.59.17-.94.17Z" fill="#fffdf0"/>
        <path d="M216.84 51.82q-.735 0-1.29-.33c-.37-.22-.67-.53-.88-.92s-.31-.85-.31-1.36.1-.97.31-1.36.5-.7.87-.92.79-.33 1.28-.33.87.12 1.21.34c.34.23.6.55.79.97.19.41.28.9.28 1.46h-4.13l.2-.17c0 .4.07.74.21 1.03s.35.5.61.66.56.22.89.22c.35 0 .65-.08.9-.25.24-.17.43-.39.56-.66l.69.35c-.13.26-.29.49-.5.68s-.46.34-.74.45-.6.16-.95.16Zm-1.62-2.98-.21-.16h3.45l-.21.17c0-.32-.06-.6-.19-.83q-.195-.345-.51-.54c-.21-.13-.46-.19-.74-.19s-.53.06-.78.19c-.24.13-.44.3-.59.54-.15.23-.23.5-.23.82Z" fill="#fffdf0"/>
        <path d="M219.44 47.39v-.69h3.17v.69zm.92 4.31v-5.57c0-.52.12-.91.37-1.17q.36-.39 1.11-.39c.13 0 .28.02.45.07s.34.11.53.2l-.3.63c-.15-.06-.28-.11-.39-.14s-.2-.05-.27-.05c-.23 0-.41.07-.53.22s-.17.38-.17.7v5.51h-.8Z" fill="#fffdf0"/>
        <path d="M223.76 45.54c-.13 0-.25-.05-.35-.15a.485.485 0 0 1 0-.7.485.485 0 0 1 .7 0c.09.1.15.21.15.35s-.05.25-.15.35-.21.15-.35.15m-.41 6.16v-5h.8v5z" fill="#fffdf0"/>
        <path d="M227.6 51.82c-.49 0-.93-.11-1.31-.33s-.68-.53-.89-.92-.32-.85-.32-1.36.1-.97.31-1.36.51-.7.89-.92.81-.33 1.3-.33.91.11 1.29.33.67.53.87.93l-.73.33c-.13-.27-.33-.47-.58-.62s-.54-.22-.87-.22-.61.08-.86.24-.45.38-.59.67c-.14.28-.21.61-.21.97s.07.69.21.97.34.51.6.67.55.24.88.24.62-.08.88-.25.45-.4.58-.7l.73.33c-.2.43-.49.76-.87 1s-.81.36-1.3.36Z" fill="#fffdf0"/>
        <path d="M230.99 45.54c-.13 0-.25-.05-.35-.15a.485.485 0 0 1 0-.7.485.485 0 0 1 .7 0c.09.1.15.21.15.35s-.05.25-.15.35-.21.15-.35.15m-.41 6.16v-5h.8v5z" fill="#fffdf0"/>
        <path d="M234.79 51.82q-.735 0-1.29-.33c-.37-.22-.67-.53-.88-.92s-.31-.85-.31-1.36.1-.97.31-1.36.5-.7.87-.92.79-.33 1.28-.33.87.12 1.21.34c.34.23.6.55.79.97.19.41.28.9.28 1.46h-4.13l.2-.17c0 .4.07.74.21 1.03s.35.5.61.66.56.22.89.22c.35 0 .65-.08.9-.25.24-.17.43-.39.56-.66l.69.35c-.13.26-.29.49-.5.68s-.46.34-.74.45-.6.16-.95.16Zm-1.62-2.98-.21-.16h3.45l-.21.17c0-.32-.06-.6-.19-.83q-.195-.345-.51-.54c-.21-.13-.46-.19-.74-.19s-.53.06-.78.19c-.24.13-.44.3-.59.54-.15.23-.23.5-.23.82Z" fill="#fffdf0"/>
        <path d="M237.81 51.7v-5h.75l.05.92v4.08zm3.51-2.56c0-.49-.06-.87-.17-1.13s-.27-.44-.47-.53c-.2-.1-.43-.15-.68-.15-.44 0-.78.16-1.02.46-.24.31-.37.75-.37 1.32h-.39c0-.53.08-.98.23-1.36s.38-.67.67-.87.65-.3 1.06-.3q.585 0 1.02.24c.29.16.52.4.68.75.16.34.24.79.23 1.34v.24h-.8Zm0 2.56v-2.56h.8v2.56z" fill="#fffdf0"/>
        <path d="M242.62 47.41v-.71h3.17v.71zm2.4 4.41c-.49 0-.86-.13-1.13-.38s-.4-.61-.4-1.07v-5.23h.8v5.15c0 .25.07.45.21.58s.33.21.58.21c.08 0 .16-.01.24-.04.08-.02.18-.08.3-.17l.31.65c-.17.11-.33.19-.47.23s-.28.07-.43.07Z" fill="#fffdf0"/>
        <path d="M248.83 51.82q-.735 0-1.29-.33c-.37-.22-.67-.53-.88-.92s-.31-.85-.31-1.36.1-.97.31-1.36.5-.7.87-.92.79-.33 1.28-.33.87.12 1.21.34c.34.23.6.55.79.97.19.41.28.9.28 1.46h-4.13l.2-.17c0 .4.07.74.21 1.03s.35.5.61.66.56.22.89.22c.35 0 .65-.08.9-.25.24-.17.43-.39.56-.66l.69.35c-.13.26-.29.49-.5.68s-.46.34-.74.45-.6.16-.95.16Zm-1.62-2.98-.21-.16h3.45l-.21.17c0-.32-.06-.6-.19-.83q-.195-.345-.51-.54c-.21-.13-.46-.19-.74-.19s-.53.06-.78.19c-.24.13-.44.3-.59.54-.15.23-.23.5-.23.82Z" fill="#fffdf0"/>
        <path d="m251.55 52.85.57-2.11h.9l-.78 2.11z" fill="#fffdf0"/>
        <path d="M85.57 58.89v-.69h3.17v.69zm.92 4.31v-5.57c0-.52.12-.91.37-1.17q.36-.39 1.11-.39c.13 0 .28.02.45.07s.34.11.53.2l-.3.63c-.15-.06-.28-.11-.39-.14s-.2-.05-.27-.05c-.23 0-.41.07-.53.22s-.17.38-.17.7v5.51h-.8Z" fill="#fffdf0"/>
        <path d="M90.98 63.32c-.59 0-1.04-.13-1.38-.41-.33-.27-.5-.64-.5-1.12 0-.51.17-.89.5-1.17.34-.27.81-.41 1.42-.41h1.43v.67H91.2c-.47 0-.8.08-1 .23s-.29.37-.29.66c0 .26.1.46.29.62.19.15.46.22.81.22q.435 0 .75-.18c.21-.12.38-.3.5-.53s.17-.5.17-.82h.34c0 .68-.15 1.22-.46 1.62s-.75.61-1.34.61Zm1.5-.12-.04-.82v-1.82c0-.39-.04-.72-.13-.98s-.22-.45-.41-.58-.43-.2-.73-.2c-.27 0-.51.06-.71.17s-.36.29-.48.53l-.72-.28c.13-.23.28-.43.46-.6q.27-.255.63-.39c.24-.09.51-.13.82-.13.47 0 .85.09 1.16.28s.53.45.68.81.23.8.22 1.33v2.71h-.75Z" fill="#fffdf0"/>
        <path d="M96.48 63.32c-.49 0-.93-.11-1.31-.33s-.68-.53-.89-.92-.32-.85-.32-1.36.1-.97.31-1.36.51-.7.89-.92.81-.33 1.3-.33.91.11 1.29.33.67.53.87.93l-.73.33c-.13-.27-.33-.47-.58-.62s-.54-.22-.87-.22-.61.08-.86.24-.45.38-.59.67c-.14.28-.21.61-.21.97s.07.69.21.97.34.51.6.67.55.24.88.24.62-.08.88-.25.45-.4.58-.7l.73.33c-.2.43-.49.76-.87 1s-.81.36-1.3.36Z" fill="#fffdf0"/>
        <path d="M99.87 57.04c-.13 0-.25-.05-.35-.15a.485.485 0 0 1 0-.7.485.485 0 0 1 .7 0c.09.1.15.21.15.35s-.05.25-.15.35-.21.15-.35.15m-.41 6.16v-5h.8v5z" fill="#fffdf0"/>
        <path d="M101.48 63.2v-7h.8v7z" fill="#fffdf0"/>
        <path d="M103.89 57.04c-.13 0-.25-.05-.35-.15a.485.485 0 0 1 0-.7.485.485 0 0 1 .7 0c.09.1.15.21.15.35s-.05.25-.15.35-.21.15-.35.15m-.41 6.16v-5h.8v5z" fill="#fffdf0"/>
        <path d="M104.98 58.91v-.71h3.17v.71zm2.4 4.41c-.49 0-.86-.13-1.13-.38s-.4-.61-.4-1.07v-5.23h.8v5.15c0 .25.07.45.21.58s.33.21.58.21c.08 0 .16-.01.24-.04.08-.02.18-.08.3-.17l.31.65c-.17.11-.33.19-.47.23s-.28.07-.43.07Z" fill="#fffdf0"/>
        <path d="M110.58 63.32c-.59 0-1.04-.13-1.38-.41-.33-.27-.5-.64-.5-1.12 0-.51.17-.89.5-1.17.34-.27.81-.41 1.42-.41h1.43v.67h-1.25c-.47 0-.8.08-1 .23s-.29.37-.29.66c0 .26.1.46.29.62.19.15.46.22.81.22q.435 0 .75-.18c.21-.12.38-.3.5-.53s.17-.5.17-.82h.34c0 .68-.15 1.22-.46 1.62s-.75.61-1.34.61Zm1.5-.12-.04-.82v-1.82c0-.39-.04-.72-.13-.98s-.22-.45-.41-.58-.43-.2-.73-.2c-.27 0-.51.06-.71.17s-.36.29-.48.53l-.72-.28c.13-.23.28-.43.46-.6q.27-.255.63-.39c.24-.09.51-.13.82-.13.47 0 .85.09 1.16.28s.53.45.68.81.23.8.22 1.33v2.71h-.75Z" fill="#fffdf0"/>
        <path d="M113.85 63.2v-5h.75l.05.92v4.08zm3.51-2.56c0-.49-.06-.87-.17-1.13s-.27-.44-.47-.53c-.2-.1-.43-.15-.68-.15-.44 0-.78.16-1.02.46-.24.31-.37.75-.37 1.32h-.39c0-.53.08-.98.23-1.36s.38-.67.67-.87.65-.3 1.06-.3q.585 0 1.02.24c.29.16.52.4.68.75.16.34.24.79.23 1.34v.24h-.8Zm0 2.56v-2.56h.8v2.56z" fill="#fffdf0"/>
        <path d="M121.15 63.32c-.45 0-.84-.11-1.18-.33s-.61-.53-.79-.92c-.19-.4-.29-.85-.29-1.37s.09-.98.29-1.37c.19-.39.46-.7.79-.92s.73-.33 1.18-.33q.63 0 1.11.33c.32.22.56.53.73.92s.26.85.26 1.37-.09.97-.26 1.37-.42.71-.73.92q-.48.33-1.11.33m.18-.73q.435 0 .78-.24c.23-.16.41-.38.54-.67s.2-.61.2-.98-.07-.69-.2-.98-.31-.51-.54-.67-.49-.24-.79-.24-.59.08-.83.24-.43.38-.58.67c-.14.29-.21.61-.21.98s.07.69.21.98.33.51.58.67q.375.24.84.24m1.55.61-.04-.93V56.2h.8v7z" fill="#fffdf0"/>
        <path d="M127.01 63.32c-.49 0-.93-.11-1.3-.33-.38-.22-.67-.53-.88-.92s-.32-.85-.32-1.36.1-.97.31-1.36.5-.7.88-.92q.57-.33 1.29-.33c.72 0 .92.11 1.29.33.38.22.67.53.88.92s.31.85.31 1.36-.1.97-.31 1.36-.5.7-.88.92c-.37.22-.8.33-1.28.33Zm-.01-.74q.495 0 .87-.24c.25-.16.45-.38.59-.67.14-.28.21-.61.21-.97s-.07-.69-.21-.97-.34-.51-.6-.67c-.25-.16-.55-.24-.88-.24s-.61.08-.86.24-.45.38-.59.66-.21.61-.21.98.07.69.21.97.34.51.6.67.55.24.88.24Z" fill="#fffdf0"/>
        <path d="M134.14 63.32c-.59 0-1.04-.13-1.38-.41-.33-.27-.5-.64-.5-1.12 0-.51.17-.89.5-1.17.34-.27.81-.41 1.42-.41h1.43v.67h-1.25c-.47 0-.8.08-1 .23s-.29.37-.29.66c0 .26.1.46.29.62.19.15.46.22.81.22q.435 0 .75-.18c.21-.12.38-.3.5-.53s.17-.5.17-.82h.34c0 .68-.15 1.22-.46 1.62s-.75.61-1.34.61Zm1.5-.12-.04-.82v-1.82c0-.39-.04-.72-.13-.98s-.22-.45-.41-.58-.43-.2-.73-.2c-.27 0-.51.06-.71.17s-.36.29-.48.53l-.72-.28c.13-.23.28-.43.46-.6q.27-.255.63-.39c.24-.09.51-.13.82-.13.47 0 .85.09 1.16.28s.53.45.68.81.23.8.22 1.33v2.71h-.75Z" fill="#fffdf0"/>
        <path d="M141.6 63.32c-.45 0-.84-.11-1.18-.33s-.61-.53-.79-.92c-.19-.4-.29-.85-.29-1.37s.09-.98.29-1.37c.19-.39.46-.7.79-.92s.73-.33 1.18-.33q.63 0 1.11.33c.32.22.56.53.73.92s.26.85.26 1.37-.09.97-.26 1.37-.42.71-.73.92q-.48.33-1.11.33m.18-.73q.435 0 .78-.24c.23-.16.41-.38.54-.67s.2-.61.2-.98-.07-.69-.2-.98-.31-.51-.54-.67-.49-.24-.79-.24-.59.08-.83.24-.43.38-.58.67c-.14.29-.21.61-.21.98s.07.69.21.98.33.51.58.67q.375.24.84.24m1.55.61-.04-.93V56.2h.8v7z" fill="#fffdf0"/>
        <path d="M145.7 57.04c-.13 0-.25-.05-.35-.15a.485.485 0 0 1 0-.7.485.485 0 0 1 .7 0c.09.1.15.21.15.35s-.05.25-.15.35-.21.15-.35.15m-.41 6.16v-5h.8v5z" fill="#fffdf0"/>
        <path d="M149.28 63.16c-.45 0-.84-.11-1.18-.32s-.61-.51-.79-.89c-.19-.38-.29-.82-.29-1.32s.09-.95.29-1.33c.19-.38.46-.68.79-.89.34-.21.73-.32 1.18-.32.42 0 .79.11 1.1.32s.56.51.74.89.26.83.26 1.33-.09.94-.26 1.32-.42.68-.74.89c-.31.21-.68.32-1.1.32m.03 2.16c-.32 0-.61-.03-.88-.09-.26-.06-.49-.13-.67-.21s-.32-.14-.4-.2l.3-.65c.09.05.21.11.37.17q.24.105.57.18c.33.075.45.08.7.08.32 0 .61-.07.86-.2s.46-.33.6-.61.21-.63.21-1.06V58.2h.8v4.52c0 .57-.11 1.05-.32 1.44s-.51.68-.88.87-.8.29-1.27.29Zm.16-2.85q.435 0 .78-.24c.345-.24.4-.38.53-.66s.19-.6.19-.96-.07-.67-.2-.95-.31-.49-.53-.65-.48-.24-.79-.24-.59.08-.83.24-.43.37-.57.65-.21.59-.21.95.07.69.21.96c.14.28.33.5.58.66.24.16.52.24.83.24Z" fill="#fffdf0"/>
        <path d="M155.12 63.32q-.735 0-1.29-.33c-.37-.22-.67-.53-.88-.92s-.31-.85-.31-1.36.1-.97.31-1.36.5-.7.87-.92.79-.33 1.28-.33.87.12 1.21.34c.34.23.6.55.79.97.19.41.28.9.28 1.46h-4.13l.2-.17c0 .4.07.74.21 1.03s.35.5.61.66.56.22.89.22c.35 0 .65-.08.9-.25.24-.17.43-.39.56-.66l.69.35c-.13.26-.29.49-.5.68s-.46.34-.74.45-.6.16-.95.16Zm-1.62-2.98-.21-.16h3.45l-.21.17c0-.32-.06-.6-.19-.83q-.195-.345-.51-.54c-.21-.13-.46-.19-.74-.19s-.53.06-.78.19c-.24.13-.44.3-.59.54-.15.23-.23.5-.23.82Z" fill="#fffdf0"/>
        <path d="M159.89 63.32c-.37 0-.69-.05-.96-.17s-.5-.25-.69-.44c-.18-.18-.31-.38-.39-.59l.7-.29c.11.23.28.41.51.55q.345.21.75.21c.31 0 .58-.06.79-.19.21-.12.32-.3.32-.52 0-.21-.08-.37-.24-.5s-.39-.23-.7-.31l-.48-.13c-.45-.12-.81-.3-1.06-.54s-.38-.52-.38-.83c0-.47.16-.84.46-1.1.31-.26.77-.4 1.39-.4.29 0 .56.04.8.13s.45.21.62.37.3.34.38.55l-.7.31a.87.87 0 0 0-.43-.49c-.2-.1-.44-.15-.73-.15-.31 0-.55.07-.72.2s-.26.31-.26.54c0 .13.07.26.21.38s.35.21.63.29l.5.13c.33.08.6.2.82.36s.39.33.5.53.17.41.17.64q0 .45-.24.78c-.16.22-.38.39-.65.5-.27.12-.59.17-.94.17Z" fill="#fffdf0"/>
        <path d="M162.03 58.91v-.71h3.17v.71zm2.4 4.41c-.49 0-.86-.13-1.13-.38s-.4-.61-.4-1.07v-5.23h.8v5.15c0 .25.07.45.21.58s.33.21.58.21c.08 0 .16-.01.24-.04.08-.02.18-.08.3-.17l.31.65c-.17.11-.33.19-.47.23s-.28.07-.43.07Z" fill="#fffdf0"/>
        <path d="M167.63 63.32c-.59 0-1.04-.13-1.38-.41-.33-.27-.5-.64-.5-1.12 0-.51.17-.89.5-1.17.34-.27.81-.41 1.42-.41h1.43v.67h-1.25c-.47 0-.8.08-1 .23s-.29.37-.29.66c0 .26.1.46.29.62.19.15.46.22.81.22q.435 0 .75-.18c.21-.12.38-.3.5-.53s.17-.5.17-.82h.34c0 .68-.15 1.22-.46 1.62s-.75.61-1.34.61Zm1.5-.12-.04-.82v-1.82c0-.39-.04-.72-.13-.98s-.22-.45-.41-.58-.43-.2-.73-.2c-.27 0-.51.06-.71.17s-.36.29-.48.53l-.72-.28c.13-.23.28-.43.46-.6q.27-.255.63-.39c.24-.09.51-.13.82-.13.47 0 .85.09 1.16.28s.53.45.68.81.23.8.22 1.33v2.71h-.75Zm-.44-5.66c-.19 0-.35-.04-.47-.11s-.22-.16-.29-.25c-.08-.09-.15-.18-.21-.25-.07-.07-.14-.11-.23-.11-.11 0-.19.03-.25.08s-.1.16-.13.29h-.65c.02-.18.07-.35.16-.5s.2-.28.35-.38c.15-.09.32-.14.51-.14s.34.04.45.11.21.16.29.25.15.18.22.25.16.11.25.11c.11 0 .2-.03.25-.1s.09-.16.11-.28h.64c-.03.27-.13.5-.3.71s-.4.31-.7.31Z" fill="#fffdf0"/>
        <path d="M173.11 63.32c-.49 0-.93-.11-1.3-.33-.38-.22-.67-.53-.88-.92s-.32-.85-.32-1.36.1-.97.31-1.36.5-.7.88-.92q.57-.33 1.29-.33c.72 0 .92.11 1.29.33.38.22.67.53.88.92s.31.85.31 1.36-.1.97-.31 1.36-.5.7-.88.92c-.37.22-.8.33-1.28.33Zm-.01-.74q.495 0 .87-.24c.25-.16.45-.38.59-.67.14-.28.21-.61.21-.97s-.07-.69-.21-.97-.34-.51-.6-.67c-.25-.16-.55-.24-.88-.24s-.61.08-.86.24-.45.38-.59.66-.21.61-.21.98.07.69.21.97.34.51.6.67.55.24.88.24Z" fill="#fffdf0"/>
        <path d="M176.78 63.34c-.15 0-.29-.05-.4-.17s-.16-.24-.16-.38.05-.29.16-.39.24-.17.4-.17.28.05.39.17c.11.11.16.24.16.39s-.05.28-.16.38c-.11.11-.24.17-.39.17" fill="#fffdf0"/>
    </g>
</svg>
