<?xml version="1.0" encoding="UTF-8"?>
<svg data-bbox="0.2 0.2 222.68 70.6" viewBox="0 0 222.89 71" xmlns="http://www.w3.org/2000/svg" data-type="ugc">
    <g>
        <path stroke-miterlimit="10" fill="#fffdf0" stroke="#fffdf0" stroke-width=".4" d="M70.8 35.5c0 19.496-15.804 35.3-35.3 35.3S.2 54.996.2 35.5 16.004.2 35.5.2s35.3 15.804 35.3 35.3z"/>
        <path d="M45 32.34h-4.75c-.44 0-.79-.35-.79-.79V26.8c0-.44-.35-.79-.79-.79h-6.33c-.44 0-.79.35-.79.79v4.75c0 .44-.35.79-.79.79h-4.75c-.44 0-.79.35-.79.79v6.33c0 .44.35.79.79.79h4.75c.44 0 .79.35.79.79v4.75c0 .44.35.79.79.79h6.33c.44 0 .79-.35.79-.79v-4.75c0-.44.35-.79.79-.79H45c.44 0 .79-.35.79-.79v-6.33c0-.44-.35-.79-.79-.79Z" fill="none" stroke="#005f21" stroke-miterlimit="10"/>
        <path d="M36.45 11.3c5.48 4.33 13.22 6.54 16.71 7.08.77.12 1.33.79 1.33 1.58v22.56c0 11.13-15.62 16.55-18.53 17.47q-.465.15-.93 0c-2.91-.92-18.53-6.34-18.53-17.47V19.96c0-.79.56-1.46 1.33-1.58 3.49-.53 11.23-2.75 16.71-7.08.56-.44 1.35-.44 1.91 0Z" fill="none" stroke="#005f21" stroke-miterlimit="10"/>
        <path d="m80.5 10.09 2.68-7h1.84l-2.56 7zm1.26-1.12V7.34h4.84v1.63zm4.13 1.12-2.56-7h1.84l2.68 7z" fill="#fffdf0"/>
        <path d="M88.52 10.09v-7h2.9c.53 0 .99.1 1.4.31s.72.49.96.86.35.79.35 1.27-.12.91-.35 1.27q-.345.555-.96.87c-.615.315-.87.31-1.4.31h-1.05v2.1h-1.85Zm1.85-3.8h1c.25 0 .46-.07.62-.21s.23-.32.23-.55-.08-.4-.23-.54c-.16-.14-.36-.21-.62-.21h-1z" fill="#fffdf0"/>
        <path d="M98.17 10.21c-.73 0-1.38-.16-1.95-.47-.56-.31-1-.74-1.32-1.28s-.48-1.17-.48-1.87.16-1.33.48-1.88c.32-.54.76-.97 1.32-1.28s1.2-.46 1.93-.46 1.38.15 1.94.46 1 .74 1.32 1.28.48 1.17.48 1.88-.16 1.32-.47 1.87-.76.97-1.32 1.28-1.2.47-1.93.47m0-1.7c.36 0 .68-.08.95-.25.27-.16.49-.39.64-.67.15-.29.23-.62.23-.99s-.08-.7-.23-.99-.37-.52-.65-.68-.6-.25-.96-.25-.67.08-.95.25c-.28.16-.49.39-.65.68s-.23.62-.23.99.08.7.24.99.38.51.65.67c.28.16.6.25.96.25" fill="#fffdf0"/>
        <path d="M102.74 10.09v-7h1.85v7z" fill="#fffdf0"/>
        <path d="M109.19 10.21c-.73 0-1.38-.16-1.95-.47-.56-.31-1-.74-1.32-1.28s-.48-1.17-.48-1.87.16-1.33.48-1.88c.32-.54.76-.97 1.32-1.28s1.2-.46 1.93-.46 1.38.15 1.94.46 1 .74 1.32 1.28.48 1.17.48 1.88-.16 1.32-.47 1.87-.76.97-1.32 1.28-1.2.47-1.93.47m0-1.7c.36 0 .68-.08.95-.25.27-.16.49-.39.64-.67.15-.29.23-.62.23-.99s-.08-.7-.23-.99-.37-.52-.65-.68-.6-.25-.96-.25-.67.08-.95.25c-.28.16-.49.39-.65.68s-.23.62-.23.99.08.7.24.99.38.51.65.67c.28.16.6.25.96.25" fill="#fffdf0"/>
        <path d="m115.53 10.09 2.68-7h1.84l-2.56 7zm1.26-1.12V7.34h4.84v1.63zm1.84-6.42-1.32-1.47h1.9l1.12 1.47zm2.29 7.54-2.56-7h1.84l2.68 7z" fill="#fffdf0"/>
        <path d="M125.85 10.09v-7h1.85v7z" fill="#fffdf0"/>
        <path d="M128.9 10.09v-7h2.05l1.69 2.5 1.69-2.5h2.05v7h-1.85V5.95l-1.88 2.74-1.9-2.74v4.14z" fill="#fffdf0"/>
        <path d="M140.46 10.21c-.62 0-1.15-.11-1.6-.34s-.79-.55-1.03-.97-.36-.93-.36-1.52V3.09h1.85v4.29c0 .23.05.43.14.6s.22.29.39.38.38.13.62.13.45-.04.62-.13.3-.21.39-.38.13-.37.13-.6V3.09h1.85v4.29c0 .59-.12 1.09-.36 1.52s-.59.75-1.04.97-.99.34-1.62.34Z" fill="#fffdf0"/>
        <path d="M144.58 10.09v-7h1.95l2.73 3.85V3.09h1.85v7h-1.85l-2.83-3.99v3.99z" fill="#fffdf0"/>
        <path d="M152.31 10.09v-7h1.85v7z" fill="#fffdf0"/>
        <path d="M155.36 10.09v-7h2.34c.77 0 1.44.15 2.03.45s1.05.71 1.39 1.23c.33.52.5 1.13.5 1.81s-.17 1.28-.5 1.81-.79.94-1.39 1.24c-.59.3-1.27.45-2.03.45h-2.34Zm1.85-1.75h.49c.29 0 .56-.04.81-.13s.46-.21.64-.36a1.62 1.62 0 0 0 .57-1.26 1.62 1.62 0 0 0-.57-1.26 2.1 2.1 0 0 0-.64-.36c-.25-.09-.52-.13-.81-.13h-.49z" fill="#fffdf0"/>
        <path d="m161.94 10.09 2.68-7h1.84l-2.56 7zm1.26-1.12V7.34h4.84v1.63zm4.13 1.12-2.56-7h1.84l2.68 7z" fill="#fffdf0"/>
        <path d="M169.96 10.09v-7h2.34q1.155 0 2.04.45t1.38 1.23c.495.78.5 1.13.5 1.81s-.17 1.28-.5 1.81-.79.94-1.38 1.24q-.885.45-2.04.45h-2.34Zm1.85-1.75h.49c.29 0 .56-.04.81-.13s.46-.21.64-.36a1.62 1.62 0 0 0 .57-1.26 1.62 1.62 0 0 0-.57-1.26 2.1 2.1 0 0 0-.64-.36c-.25-.09-.52-.13-.81-.13h-.49z" fill="#fffdf0"/>
        <path d="M177.07 10.09v-7h4.69v1.7h-2.84v.97h2.3v1.65h-2.3v.98h2.91v1.7z" fill="#fffdf0"/>
        <path d="M83.94 21.74c-.53 0-.99-.11-1.39-.33s-.72-.53-.95-.93-.34-.85-.34-1.38v-4.51h.85v4.51c0 .37.08.69.24.98.16.28.38.5.65.66s.6.23.96.23.69-.08.97-.23.5-.38.66-.66.23-.61.23-.98v-4.51h.84v4.51c0 .52-.11.98-.34 1.38q-.345.6-.96.93c-.41.22-.89.33-1.43.33Z" fill="#fffdf0"/>
        <path d="M88.2 21.59v-5h.75l.04.7c.15-.27.35-.47.59-.61q.36-.21.84-.21c.4 0 .74.09 1.03.28s.49.47.62.85c.14-.37.35-.65.62-.84s.59-.29.96-.29c.56 0 1 .19 1.32.56s.48.94.48 1.7v2.86h-.8v-2.56c0-.49-.05-.87-.15-1.13q-.15-.39-.42-.54c-.27-.15-.37-.15-.6-.15-.39 0-.7.16-.92.47s-.33.75-.33 1.31v2.59h-.8v-2.56c0-.49-.05-.87-.15-1.13q-.15-.39-.42-.54c-.18-.1-.38-.15-.61-.15-.39 0-.69.16-.91.47s-.33.75-.33 1.31v2.59h-.8Z" fill="#fffdf0"/>
        <path d="M98.29 21.71c-.59 0-1.04-.14-1.38-.41s-.5-.65-.5-1.12q0-.765.51-1.17c.34-.27.81-.4 1.41-.4h1.43v.67h-1.25c-.47 0-.8.08-.99.23s-.29.37-.29.66c0 .26.1.46.29.61s.46.23.81.23c.29 0 .54-.06.75-.19.21-.12.38-.3.5-.53s.17-.5.17-.81h.34c0 .68-.15 1.22-.46 1.62s-.75.6-1.34.6Zm1.5-.12-.04-.82v-1.82c0-.39-.04-.72-.13-.98s-.22-.45-.41-.58-.43-.2-.73-.2c-.27 0-.51.05-.71.17-.2.11-.36.28-.48.52l-.72-.28c.13-.23.28-.43.46-.6q.27-.255.63-.39c.24-.09.51-.14.82-.14.47 0 .85.09 1.15.27q.45.27.69.81c.15.36.23.8.22 1.33v2.71z" fill="#fffdf0"/>
        <path d="M106.51 21.71c-.49 0-.93-.11-1.31-.33a2.3 2.3 0 0 1-.89-.93c-.21-.39-.32-.85-.32-1.36s.1-.97.31-1.36.51-.7.88-.93c.38-.22.81-.33 1.3-.33s.91.11 1.29.33q.57.33.87.93l-.73.33c-.13-.27-.33-.48-.58-.62-.25-.15-.54-.23-.87-.23s-.61.08-.86.24-.45.38-.59.67c-.14.28-.21.61-.21.98s.07.69.21.98c.14.28.34.5.6.67.26.16.55.24.88.24s.62-.08.88-.25.45-.4.58-.7l.73.33c-.2.43-.49.76-.87 1s-.81.36-1.3.36Z" fill="#fffdf0"/>
        <path d="M111.91 21.71c-.49 0-.93-.11-1.3-.33-.38-.22-.67-.53-.88-.93-.21-.39-.32-.85-.32-1.36s.1-.97.31-1.36.5-.7.88-.93q.57-.33 1.29-.33c.72 0 .92.11 1.29.33.38.22.67.53.88.93.21.39.31.85.31 1.36s-.1.97-.31 1.36-.5.7-.88.93c-.37.22-.8.33-1.28.33Zm-.01-.74q.495 0 .87-.24c.25-.16.45-.38.59-.67.14-.28.21-.61.21-.98s-.07-.69-.21-.98c-.14-.28-.34-.5-.6-.67-.25-.16-.55-.24-.88-.24s-.61.08-.86.24-.45.38-.59.66-.21.61-.21.98.07.69.21.98c.14.28.34.5.6.67.26.16.55.24.88.24Z" fill="#fffdf0"/>
        <path d="M115.49 21.59v-5h.75l.04.7c.15-.27.35-.47.59-.61q.36-.21.84-.21c.4 0 .74.09 1.03.28s.49.47.62.85c.14-.37.35-.65.62-.84s.59-.29.96-.29c.56 0 1 .19 1.32.56s.48.94.48 1.7v2.86h-.8v-2.56c0-.49-.05-.87-.15-1.13q-.15-.39-.42-.54c-.27-.15-.37-.15-.6-.15-.39 0-.7.16-.92.47s-.33.75-.33 1.31v2.59h-.8v-2.56c0-.49-.05-.87-.15-1.13q-.15-.39-.42-.54c-.18-.1-.38-.15-.61-.15-.39 0-.69.16-.91.47s-.33.75-.33 1.31v2.59h-.8Z" fill="#fffdf0"/>
        <path d="M124 21.59v-7h.8v6.07l-.04.93zm2.49.12q-.63 0-1.11-.33c-.32-.22-.56-.53-.74-.92-.17-.4-.26-.85-.26-1.37s.09-.98.26-1.37.42-.7.74-.92.68-.33 1.11-.33c.45 0 .84.11 1.18.33s.6.53.79.92.29.85.29 1.37-.1.97-.29 1.37-.46.7-.79.92c-.34.22-.73.33-1.18.33m-.18-.73q.465 0 .84-.24c.24-.16.44-.38.58-.67.14-.28.21-.61.21-.98s-.07-.69-.21-.98-.33-.51-.57-.67-.53-.24-.85-.24q-.435 0-.78.24c-.23.16-.41.38-.54.67-.13.28-.2.61-.2.98s.07.69.2.98.31.51.54.67q.345.24.78.24" fill="#fffdf0"/>
        <path d="M130.32 15.43c-.13 0-.25-.05-.35-.15a.485.485 0 0 1 0-.7.485.485 0 0 1 .7 0 .485.485 0 0 1 0 .7c-.1.1-.21.15-.35.15m-.41 6.16v-5h.8v5z" fill="#fffdf0"/>
        <path d="M132.18 21.59v-5h.75l.05.92v4.08zm3.51-2.56c0-.49-.06-.87-.17-1.13s-.27-.44-.47-.54-.43-.15-.68-.15c-.44 0-.78.16-1.02.47s-.37.75-.37 1.31h-.39c0-.53.08-.98.23-1.36s.38-.67.67-.87.65-.3 1.06-.3q.585 0 1.02.24c.29.16.52.4.68.74s.24.79.23 1.34v.24h-.8Zm0 2.56v-2.56h.8v2.56z" fill="#fffdf0"/>
        <path d="M139.34 21.71c-.59 0-1.04-.14-1.38-.41s-.49-.65-.49-1.12c0-.51.17-.9.5-1.17.34-.27.81-.4 1.42-.4h1.43v.67h-1.25c-.47 0-.8.08-1 .23s-.29.37-.29.66c0 .26.1.46.29.61s.46.23.81.23c.29 0 .54-.06.75-.19.21-.12.38-.3.49-.53s.18-.5.18-.81h.34c0 .68-.15 1.22-.46 1.62s-.75.6-1.34.6Zm1.5-.12-.04-.82v-1.82c0-.39-.04-.72-.13-.98s-.22-.45-.41-.58-.43-.2-.73-.2c-.27 0-.51.05-.71.17-.2.11-.36.28-.48.52l-.72-.28c.13-.23.28-.43.46-.6q.27-.255.63-.39c.24-.09.51-.14.82-.14.47 0 .85.09 1.16.27.3.18.53.45.68.81s.23.8.22 1.33v2.71z" fill="#fffdf0"/>
        <path d="M145.09 21.71c-.49 0-.93-.11-1.31-.33a2.3 2.3 0 0 1-.89-.93c-.21-.39-.32-.85-.32-1.36s.1-.97.31-1.36.51-.7.88-.93c.38-.22.81-.33 1.3-.33s.91.11 1.29.33q.57.33.87.93l-.73.33c-.13-.27-.33-.48-.58-.62-.25-.15-.54-.23-.87-.23s-.61.08-.86.24-.45.38-.59.67c-.14.28-.21.61-.21.98s.07.69.21.98c.14.28.34.5.6.67.26.16.55.24.88.24s.62-.08.88-.25.45-.4.58-.7l.73.33c-.2.43-.49.76-.87 1s-.81.36-1.3.36Zm-.31 1.98c-.13 0-.27-.02-.42-.05s-.33-.11-.54-.22l.2-.48c.1.05.21.09.32.14.12.05.22.07.32.07.12 0 .23-.02.32-.07.1-.05.14-.14.14-.29a.44.44 0 0 0-.18-.38c-.12-.08-.32-.15-.58-.19l.3-.7.53.12-.11.26c.25.09.42.21.53.37s.15.32.15.5c0 .26-.08.48-.23.65s-.41.27-.76.27Z" fill="#fffdf0"/>
        <path d="M149.85 21.71c-.59 0-1.04-.14-1.38-.41s-.49-.65-.49-1.12c0-.51.17-.9.5-1.17.34-.27.81-.4 1.42-.4h1.43v.67h-1.25c-.47 0-.8.08-1 .23s-.29.37-.29.66c0 .26.1.46.29.61s.46.23.81.23c.29 0 .54-.06.75-.19.21-.12.38-.3.49-.53s.18-.5.18-.81h.34c0 .68-.15 1.22-.46 1.62s-.75.6-1.34.6Zm1.5-.12-.04-.82v-1.82c0-.39-.04-.72-.13-.98s-.22-.45-.41-.58-.43-.2-.73-.2c-.27 0-.51.05-.71.17-.2.11-.36.28-.48.52l-.72-.28c.13-.23.28-.43.46-.6q.27-.255.63-.39c.24-.09.51-.14.82-.14.47 0 .85.09 1.16.27.3.18.53.45.68.81s.23.8.22 1.33v2.71zm-.44-5.66c-.19 0-.35-.04-.47-.11s-.22-.16-.29-.25-.15-.18-.21-.25-.14-.11-.23-.11c-.11 0-.19.03-.24.08s-.1.15-.13.29h-.65c.02-.18.07-.35.15-.5.08-.16.2-.28.35-.38.15-.09.32-.14.51-.14s.34.04.45.11.21.16.29.25.15.18.22.25.16.11.26.11c.11 0 .2-.03.25-.1s.09-.16.11-.28h.64c-.03.27-.13.5-.3.71s-.4.31-.7.31Z" fill="#fffdf0"/>
        <path d="M155.58 21.71c-.49 0-.93-.11-1.3-.33-.38-.22-.67-.53-.88-.93-.21-.39-.32-.85-.32-1.36s.1-.97.31-1.36.5-.7.88-.93q.57-.33 1.29-.33c.72 0 .92.11 1.29.33.38.22.67.53.88.93.21.39.31.85.31 1.36s-.1.97-.31 1.36-.5.7-.88.93c-.37.22-.8.33-1.28.33Zm-.01-.74q.495 0 .87-.24c.25-.16.45-.38.59-.67.14-.28.21-.61.21-.98s-.07-.69-.21-.98c-.14-.28-.34-.5-.6-.67-.25-.16-.55-.24-.88-.24s-.61.08-.86.24-.45.38-.59.66-.21.61-.21.98.07.69.21.98c.14.28.34.5.6.67.26.16.55.24.88.24Z" fill="#fffdf0"/>
        <path d="M163.6 21.71c-.45 0-.84-.11-1.18-.33s-.61-.53-.79-.92c-.19-.4-.29-.85-.29-1.37s.09-.98.29-1.37c.19-.39.46-.7.79-.92.34-.22.73-.33 1.18-.33q.63 0 1.11.33c.32.22.56.53.73.92s.26.85.26 1.37-.09.97-.26 1.37-.42.7-.73.92q-.48.33-1.11.33m.18-.73q.435 0 .78-.24c.23-.16.41-.38.54-.67s.2-.61.2-.98-.06-.69-.2-.98c-.13-.29-.31-.51-.54-.67s-.49-.24-.79-.24q-.465 0-.84.24c-.24.16-.43.38-.57.67s-.21.61-.21.98.07.69.21.98.33.51.58.67q.375.24.84.24m1.55.61-.04-.93v-6.07h.8v7z" fill="#fffdf0"/>
        <path d="M169.68 21.71q-.735 0-1.29-.33c-.37-.22-.66-.53-.88-.93-.21-.39-.31-.85-.31-1.36s.11-.97.31-1.36q.315-.585.87-.93c.37-.22.79-.33 1.28-.33s.87.12 1.21.35.6.55.79.96.28.9.28 1.46h-4.13l.2-.17c0 .4.07.74.21 1.03s.35.51.61.66.56.23.89.23c.35 0 .65-.08.9-.25.24-.17.43-.39.56-.66l.69.35c-.13.26-.29.49-.5.68s-.46.34-.74.45-.6.16-.95.16Zm-1.62-2.98-.21-.16h3.45l-.21.17c0-.32-.06-.6-.19-.83q-.195-.345-.51-.54c-.21-.13-.46-.19-.74-.19s-.53.06-.78.19c-.24.13-.44.31-.59.54s-.23.5-.23.83Z" fill="#fffdf0"/>
        <path d="m176.9 21.59-2.09-5h.83l2.04 5zm.05 0 2.04-5h.84l-2.09 5z" fill="#fffdf0"/>
        <path d="M181.08 15.43c-.13 0-.25-.05-.35-.15a.485.485 0 0 1 0-.7.485.485 0 0 1 .7 0 .485.485 0 0 1 0 .7c-.1.1-.21.15-.35.15m-.41 6.16v-5h.8v5z" fill="#fffdf0"/>
        <path d="M182.42 17.3v-.71h3.17v.71zm2.4 4.41c-.49 0-.86-.13-1.13-.38s-.4-.61-.4-1.07v-5.23h.8v5.15c0 .25.07.45.21.58q.21.21.57.21.12 0 .24-.03t.3-.18l.31.65c-.17.11-.33.19-.47.24-.14.04-.28.06-.43.06" fill="#fffdf0"/>
        <path d="M188.27 21.71c-.59 0-1.04-.14-1.38-.41s-.49-.65-.49-1.12c0-.51.17-.9.5-1.17.34-.27.81-.4 1.42-.4h1.43v.67h-1.25c-.47 0-.8.08-1 .23s-.29.37-.29.66c0 .26.1.46.29.61s.46.23.81.23c.29 0 .54-.06.75-.19.21-.12.38-.3.49-.53q.18-.345.18-.81h.34c0 .68-.15 1.22-.46 1.62s-.75.6-1.34.6Zm1.5-.12-.04-.82v-1.82c0-.39-.04-.72-.13-.98s-.22-.45-.41-.58-.43-.2-.73-.2c-.27 0-.51.05-.71.17-.2.11-.36.28-.48.52l-.72-.28c.13-.23.28-.43.46-.6q.27-.255.63-.39c.24-.09.51-.14.82-.14.47 0 .85.09 1.16.27.3.18.53.45.68.81s.23.8.22 1.33v2.71z" fill="#fffdf0"/>
        <path d="M191.79 21.59v-5h.75l.04.7c.15-.27.35-.47.59-.61q.36-.21.84-.21c.4 0 .74.09 1.03.28.28.19.49.47.61.85.14-.37.35-.65.62-.84s.59-.29.96-.29c.56 0 1 .19 1.33.56.32.37.48.94.47 1.7v2.86h-.8v-2.56c0-.49-.05-.87-.15-1.13s-.24-.44-.41-.54-.38-.15-.6-.15c-.39 0-.7.16-.92.47s-.33.75-.33 1.31v2.59h-.8v-2.56c0-.49-.05-.87-.16-1.13q-.15-.39-.42-.54t-.6-.15c-.39 0-.69.16-.91.47s-.33.75-.33 1.31v2.59h-.8Z" fill="#fffdf0"/>
        <path d="M200.76 15.43c-.13 0-.25-.05-.35-.15a.485.485 0 0 1 0-.7.485.485 0 0 1 .7 0 .485.485 0 0 1 0 .7c-.1.1-.21.15-.35.15m-.41 6.16v-5h.8v5z" fill="#fffdf0"/>
        <path d="M202.62 21.59v-5h.75l.05.92v4.08zm3.51-2.56c0-.49-.06-.87-.17-1.13s-.27-.44-.47-.54-.43-.15-.68-.15c-.44 0-.78.16-1.02.47s-.37.75-.37 1.31h-.39c0-.53.08-.98.23-1.36s.38-.67.67-.87.65-.3 1.06-.3q.585 0 1.02.24c.29.16.52.4.68.74s.24.79.23 1.34v.24h-.8Zm0 2.56v-2.56h.8v2.56z" fill="#fffdf0"/>
        <path d="M209.78 21.71c-.59 0-1.04-.14-1.38-.41s-.49-.65-.49-1.12c0-.51.17-.9.5-1.17.34-.27.81-.4 1.42-.4h1.43v.67h-1.25c-.47 0-.8.08-1 .23s-.29.37-.29.66c0 .26.1.46.29.61s.46.23.81.23c.29 0 .54-.06.75-.19.21-.12.38-.3.49-.53s.18-.5.18-.81h.34c0 .68-.15 1.22-.46 1.62s-.75.6-1.34.6Zm1.5-.12-.04-.82v-1.82c0-.39-.04-.72-.13-.98s-.22-.45-.41-.58-.43-.2-.73-.2c-.27 0-.51.05-.71.17-.2.11-.36.28-.48.52l-.72-.28c.13-.23.28-.43.46-.6q.27-.255.63-.39c.24-.09.51-.14.82-.14.47 0 .85.09 1.16.27.3.18.53.45.68.81s.23.8.22 1.33v2.71z" fill="#fffdf0"/>
        <path d="M215.05 21.71c-.37 0-.69-.06-.96-.17s-.5-.25-.69-.44-.31-.38-.39-.59l.7-.29c.11.23.28.41.51.55s.48.21.75.21c.31 0 .58-.06.79-.19.21-.12.32-.3.32-.52 0-.21-.08-.37-.24-.5s-.39-.23-.7-.31l-.48-.13c-.46-.12-.81-.3-1.06-.54s-.38-.52-.38-.83c0-.47.16-.84.46-1.1.31-.26.77-.4 1.39-.4.29 0 .56.04.8.13s.45.21.62.37.3.34.38.56l-.7.31a.87.87 0 0 0-.43-.49c-.2-.1-.44-.15-.73-.15-.31 0-.55.06-.72.19s-.26.31-.26.54c0 .13.07.26.21.38s.36.21.63.29l.5.13c.33.08.6.2.82.35.22.16.39.33.5.54s.17.41.17.64q0 .45-.24.78c-.16.22-.38.39-.65.5-.27.12-.59.18-.94.18Z" fill="#fffdf0"/>
        <path d="m217.66 22.74.57-2.11h.9l-.78 2.11z" fill="#fffdf0"/>
        <path d="M81.13 33.09v-5h.75l.04.7c.15-.27.35-.47.59-.61q.36-.21.84-.21c.4 0 .74.09 1.03.28s.49.47.62.85c.14-.37.35-.65.62-.84s.59-.29.96-.29c.56 0 1 .19 1.32.56s.48.94.48 1.7v2.86h-.8v-2.56c0-.49-.05-.87-.15-1.13q-.15-.39-.42-.54c-.27-.15-.37-.15-.6-.15-.39 0-.7.16-.92.47s-.33.75-.33 1.31v2.59h-.8v-2.56c0-.49-.05-.87-.15-1.13q-.15-.39-.42-.54c-.18-.1-.38-.15-.61-.15-.39 0-.69.16-.91.47s-.33.75-.33 1.31v2.59h-.8Z" fill="#fffdf0"/>
        <path d="M90.1 26.93c-.13 0-.25-.05-.35-.15a.485.485 0 0 1 0-.7.49.49 0 0 1 .71 0c.1.1.14.22.14.35s-.05.25-.14.35c-.1.1-.21.15-.36.15m-.41 6.16v-5h.8v5z" fill="#fffdf0"/>
        <path d="M91.96 33.09v-5h.75l.05.92v4.08zm3.51-2.56c0-.49-.06-.87-.17-1.13s-.27-.44-.47-.54-.43-.15-.68-.15c-.44 0-.78.16-1.03.47-.24.31-.37.75-.37 1.31h-.39c0-.53.08-.98.23-1.36s.38-.67.67-.87.65-.3 1.06-.3c.39 0 .73.08 1.03.24.29.16.52.4.68.74s.24.79.23 1.34v.24h-.8Zm0 2.56v-2.56h.8v2.56z" fill="#fffdf0"/>
        <path d="M99.73 33.21q-.735 0-1.29-.33c-.37-.22-.66-.53-.88-.93-.21-.39-.31-.85-.31-1.36s.11-.97.31-1.36q.315-.585.87-.93c.37-.22.79-.33 1.28-.33s.87.12 1.21.35.6.55.79.96.28.9.28 1.46h-4.13l.2-.17c0 .4.07.74.21 1.03s.35.51.61.66.56.23.89.23c.35 0 .65-.08.9-.25.24-.17.43-.39.56-.66l.69.35c-.13.26-.29.49-.5.68s-.46.34-.74.45-.6.16-.95.16Zm-1.62-2.98-.21-.16h3.45l-.21.17c0-.32-.06-.6-.19-.83q-.195-.345-.51-.54c-.21-.13-.46-.19-.74-.19s-.53.06-.78.19c-.24.13-.44.31-.59.54s-.23.5-.23.83Z" fill="#fffdf0"/>
        <path d="M103 33.09v-5h.8v5zm.44-2.71c0-.54.1-.98.31-1.31s.47-.59.79-.75.67-.25 1.03-.25v.75c-.29 0-.57.05-.85.15-.27.1-.49.25-.66.48-.17.22-.26.52-.26.9l-.36.04Z" fill="#fffdf0"/>
        <path d="M107.96 33.21c-.59 0-1.04-.14-1.38-.41s-.5-.65-.5-1.12q0-.765.51-1.17c.34-.27.81-.4 1.41-.4h1.43v.67h-1.25c-.47 0-.8.08-.99.23s-.29.37-.29.66c0 .26.1.46.29.61s.46.23.81.23c.29 0 .54-.06.75-.19.21-.12.38-.3.5-.53s.17-.5.17-.81h.34c0 .68-.15 1.22-.46 1.62s-.75.6-1.34.6Zm1.5-.12-.04-.82v-1.82c0-.39-.04-.72-.13-.98s-.22-.45-.41-.58-.43-.2-.73-.2c-.27 0-.51.05-.71.17-.2.11-.36.28-.48.52l-.72-.28c.13-.23.28-.43.46-.6q.27-.255.63-.39c.24-.09.51-.14.82-.14.47 0 .85.09 1.15.27q.45.27.69.81c.15.36.23.8.22 1.33v2.71z" fill="#fffdf0"/>
        <path d="M111.94 26.93c-.13 0-.25-.05-.35-.15a.485.485 0 0 1 0-.7.49.49 0 0 1 .71 0c.1.1.14.22.14.35s-.05.25-.14.35c-.1.1-.21.15-.36.15m-.41 6.16v-5h.8v5z" fill="#fffdf0"/>
        <path d="M115.55 33.21c-.37 0-.69-.06-.96-.17s-.5-.25-.69-.44-.31-.38-.39-.59l.7-.29c.11.23.28.41.51.55s.48.21.75.21c.31 0 .58-.06.79-.19.21-.12.32-.3.32-.52 0-.21-.08-.37-.23-.5-.16-.13-.39-.23-.7-.31l-.48-.13c-.45-.12-.81-.3-1.06-.54s-.38-.52-.38-.83c0-.47.15-.84.46-1.1s.77-.4 1.38-.4c.29 0 .56.04.8.13s.45.21.62.37.3.34.38.56l-.7.31c-.09-.23-.23-.39-.43-.49s-.44-.15-.73-.15c-.31 0-.55.06-.72.19s-.26.31-.26.54c0 .13.07.26.21.38s.35.21.63.29l.5.13c.33.08.6.2.82.35.22.16.38.33.5.54.11.2.17.41.17.64q0 .45-.24.78c-.16.22-.38.39-.65.5-.27.12-.59.18-.94.18Z" fill="#fffdf0"/>
        <path d="m118.16 34.24.57-2.11h.9l-.78 2.11z" fill="#fffdf0"/>
        <path d="M123.42 33.09v-7h4.14v.77h-3.29v2.26h3v.76h-3v2.44h3.31v.77z" fill="#fffdf0"/>
        <path d="M129.34 33.09v-7h2.28c.45 0 .86.09 1.21.28s.62.45.82.78.29.72.29 1.16-.09.81-.27 1.14-.43.6-.74.79-.68.29-1.09.29h-1.65v2.57h-.85Zm.85-3.34h1.65c.37 0 .67-.13.9-.4.24-.27.36-.61.36-1.04s-.14-.78-.42-1.05-.64-.4-1.07-.4h-1.42z" fill="#fffdf0"/>
        <path d="m134.29 33.09 2.85-7h.86l-2.81 7zm1.35-1.99v-.76h3.89v.76zm4.34 1.99-2.81-7h.85l2.85 7z" fill="#fffdf0"/>
        <path d="m141.37 34.24.57-2.11h.9l-.78 2.11z" fill="#fffdf0"/>
        <path d="M146.63 33.09v-7h2.13c.66 0 1.24.15 1.75.44.5.3.9.71 1.19 1.24s.43 1.13.43 1.82-.14 1.28-.43 1.81-.68.94-1.19 1.24c-.5.3-1.09.45-1.75.45zm.85-.78h1.28c.35 0 .68-.07.98-.21s.57-.33.79-.58c.23-.25.41-.55.54-.88s.2-.68.2-1.06-.07-.73-.2-1.06a3 3 0 0 0-.54-.88c-.23-.25-.49-.45-.79-.58a2.3 2.3 0 0 0-.98-.21h-1.28v5.44Z" fill="#fffdf0"/>
        <path d="M153.51 33.09v-7h.85v7zm.75-3.22v-.77h4.24v.77zm4.06 3.22v-7h.84v7z" fill="#fffdf0"/>
        <path d="m160.18 33.09 2.85-7h.86l-2.81 7zm1.35-1.99v-.76h3.89v.76zm4.34 1.99-2.81-7h.85l2.85 7z" fill="#fffdf0"/>
        <path d="M172.22 33.21q-.735 0-1.29-.33c-.37-.22-.67-.53-.88-.93-.21-.39-.31-.85-.31-1.36s.1-.97.31-1.36q.315-.585.87-.93c.37-.22.79-.33 1.28-.33s.87.12 1.21.35.6.55.79.96.28.9.28 1.46h-4.13l.2-.17c0 .4.07.74.21 1.03s.35.51.61.66.56.23.89.23c.35 0 .65-.08.89-.25s.43-.39.56-.66l.69.35c-.13.26-.29.49-.51.68-.21.19-.46.34-.74.45s-.6.16-.95.16Zm-1.62-2.98-.21-.16h3.45l-.21.17c0-.32-.06-.6-.19-.83q-.195-.345-.51-.54c-.21-.13-.46-.19-.74-.19s-.53.06-.78.19c-.24.13-.44.31-.59.54s-.22.5-.22.83Z" fill="#fffdf0"/>
        <path d="M178.01 35.09v-7h.75l.05.92v6.08zm2.49-1.88q-.63 0-1.11-.33c-.32-.22-.56-.53-.73-.92-.17-.4-.26-.85-.26-1.37s.09-.98.26-1.37.42-.7.73-.92q.48-.33 1.11-.33c.45 0 .84.11 1.18.33s.61.53.79.92c.19.39.29.85.29 1.37s-.1.97-.29 1.37-.46.7-.79.92c-.34.22-.73.33-1.18.33m-.18-.73q.465 0 .84-.24c.24-.16.44-.38.58-.67.14-.28.21-.61.21-.98s-.07-.69-.21-.98-.33-.51-.57-.67-.53-.24-.84-.24c-.29 0-.56.08-.79.24s-.41.38-.54.67c-.13.28-.2.61-.2.98s.07.69.2.98.31.51.54.67q.345.24.78.24" fill="#fffdf0"/>
        <path d="M183.87 33.09v-5h.8v5zm.44-2.71c0-.54.1-.98.31-1.31s.47-.59.79-.75.67-.25 1.03-.25v.75c-.29 0-.57.05-.85.15-.27.1-.49.25-.66.48-.17.22-.26.52-.26.9l-.36.04Z" fill="#fffdf0"/>
        <path d="M189.44 33.21q-.735 0-1.29-.33c-.37-.22-.66-.53-.88-.93-.21-.39-.31-.85-.31-1.36s.11-.97.31-1.36q.315-.585.87-.93c.37-.22.79-.33 1.28-.33s.87.12 1.21.35.6.55.79.96.28.9.28 1.46h-4.13l.2-.17c0 .4.07.74.21 1.03s.35.51.61.66.56.23.89.23c.35 0 .65-.08.9-.25.24-.17.43-.39.56-.66l.69.35c-.13.26-.29.49-.5.68s-.46.34-.74.45-.6.16-.95.16Zm-1.62-2.98-.21-.16h3.45l-.21.17c0-.32-.06-.6-.19-.83q-.195-.345-.51-.54c-.21-.13-.46-.19-.74-.19s-.53.06-.78.19c-.24.13-.44.31-.59.54s-.23.5-.23.83Z" fill="#fffdf0"/>
        <path d="M192.71 33.09v-7h.8v6.07l-.04.93zm2.49.12q-.63 0-1.11-.33c-.32-.22-.56-.53-.73-.92-.17-.4-.26-.85-.26-1.37s.09-.98.26-1.37.42-.7.73-.92q.48-.33 1.11-.33c.45 0 .84.11 1.18.33s.61.53.79.92c.19.39.29.85.29 1.37s-.09.97-.29 1.37c-.19.4-.46.7-.79.92-.34.22-.73.33-1.18.33m-.18-.73c.31 0 .59-.08.83-.24s.44-.38.58-.67c.14-.28.21-.61.21-.98s-.07-.69-.21-.98-.33-.51-.57-.67-.53-.24-.85-.24c-.29 0-.55.08-.79.24-.23.16-.41.38-.54.67-.13.28-.2.61-.2.98s.06.69.2.98c.13.29.31.51.54.67q.345.24.78.24Z" fill="#fffdf0"/>
        <path d="M199.03 26.93c-.13 0-.25-.05-.35-.15a.485.485 0 0 1 0-.7.49.49 0 0 1 .71 0c.1.1.14.22.14.35s-.05.25-.14.35c-.1.1-.21.15-.36.15m-.41 6.16v-5h.8v5z" fill="#fffdf0"/>
        <path d="M203.11 33.21c-.49 0-.93-.11-1.3-.33-.38-.22-.67-.53-.88-.93-.21-.39-.32-.85-.32-1.36s.11-.97.31-1.36c.21-.39.5-.7.88-.93q.57-.33 1.29-.33c.72 0 .92.11 1.29.33.38.22.67.53.88.93.21.39.31.85.31 1.36s-.11.97-.31 1.36c-.21.39-.5.7-.88.93-.38.22-.8.33-1.28.33Zm-.01-.74q.495 0 .87-.24c.25-.16.45-.38.59-.67s.21-.61.21-.98-.07-.69-.21-.98c-.14-.28-.34-.5-.6-.67-.25-.16-.54-.24-.88-.24s-.62.08-.87.24-.45.38-.59.66-.21.61-.21.98.07.69.21.98.34.5.6.67c.26.16.55.24.88.24Zm-.7-5.09 1.17-1.29h1.03l-1.29 1.29z" fill="#fffdf0"/>
        <path d="M206.17 28.8v-.71h3.17v.71zm2.4 4.41c-.49 0-.86-.13-1.13-.38s-.4-.61-.4-1.07v-5.23h.8v5.15c0 .25.07.45.21.58q.21.21.57.21.12 0 .24-.03t.3-.18l.31.65c-.17.11-.33.19-.47.24-.14.04-.28.06-.43.06" fill="#fffdf0"/>
        <path d="M210.93 26.93c-.13 0-.25-.05-.35-.15a.485.485 0 0 1 0-.7.49.49 0 0 1 .71 0c.1.1.14.22.14.35s-.05.25-.14.35c-.1.1-.21.15-.36.15m-.41 6.16v-5h.8v5z" fill="#fffdf0"/>
        <path d="M215.02 33.21c-.49 0-.93-.11-1.31-.33a2.3 2.3 0 0 1-.89-.93c-.21-.39-.32-.85-.32-1.36s.11-.97.31-1.36c.21-.39.51-.7.89-.93.38-.22.81-.33 1.3-.33s.91.11 1.29.33q.57.33.87.93l-.73.33c-.13-.27-.33-.48-.58-.62-.25-.15-.54-.23-.87-.23s-.62.08-.87.24-.45.38-.59.67c-.14.28-.21.61-.21.98s.07.69.21.98.34.5.6.67c.26.16.55.24.88.24s.62-.08.88-.25.45-.4.59-.7l.73.33c-.2.43-.49.76-.87 1s-.81.36-1.3.36Z" fill="#fffdf0"/>
        <path d="M220.42 33.21c-.49 0-.93-.11-1.3-.33-.38-.22-.67-.53-.88-.93-.21-.39-.32-.85-.32-1.36s.11-.97.31-1.36c.21-.39.5-.7.88-.93q.57-.33 1.29-.33c.72 0 .92.11 1.29.33.38.22.67.53.88.93.21.39.31.85.31 1.36s-.11.97-.31 1.36c-.21.39-.5.7-.88.93-.38.22-.8.33-1.28.33Zm-.01-.74q.495 0 .87-.24c.25-.16.45-.38.59-.67s.21-.61.21-.98-.07-.69-.21-.98c-.14-.28-.34-.5-.6-.67-.25-.16-.54-.24-.88-.24s-.62.08-.87.24-.45.38-.59.66-.21.61-.21.98.07.69.21.98.34.5.6.67c.26.16.55.24.88.24Z" fill="#fffdf0"/>
        <path d="M81.36 44.59v-7h.88l2.42 3.58 2.42-3.58h.87v7h-.84v-5.64l-2.45 3.65-2.45-3.63v5.62z" fill="#fffdf0"/>
        <path d="M92.8 44.71c-.67 0-1.27-.15-1.79-.46s-.93-.73-1.22-1.28-.44-1.17-.44-1.88.15-1.34.44-1.88.69-.97 1.21-1.28 1.11-.46 1.78-.46 1.27.16 1.79.47.92.74 1.21 1.28.43 1.17.43 1.88-.14 1.33-.43 1.88-.69.97-1.2 1.28-1.1.46-1.76.46Zm0-.77c.49 0 .93-.12 1.31-.37.38-.24.68-.58.9-1s.32-.92.32-1.48-.11-1.04-.33-1.48c-.22-.43-.52-.77-.91-1.01s-.83-.37-1.33-.37-.94.12-1.33.37c-.39.24-.69.58-.91 1.01s-.33.92-.33 1.48.11 1.05.33 1.48.53.76.92 1 .84.37 1.35.37Z" fill="#fffdf0"/>
        <path d="M99.82 44.71c-.39 0-.73-.04-1.03-.12s-.56-.2-.78-.35-.4-.32-.54-.5-.24-.38-.31-.58l.81-.28c.1.29.3.55.6.77s.68.33 1.12.33c.54 0 .96-.11 1.27-.32s.46-.5.46-.85c0-.33-.14-.59-.41-.8-.27-.2-.63-.36-1.08-.47l-.77-.2c-.31-.08-.6-.2-.87-.35s-.47-.36-.63-.6-.23-.53-.23-.88c0-.63.21-1.13.62-1.48s1-.54 1.78-.54c.46 0 .86.08 1.19.23s.61.34.81.57q.315.345.45.75l-.8.28c-.13-.33-.34-.6-.64-.79s-.66-.29-1.09-.29c-.45 0-.8.11-1.06.33s-.4.51-.4.88c0 .32.1.56.31.74.21.17.48.29.81.38l.77.19c.68.16 1.2.42 1.56.79s.54.77.54 1.19c0 .37-.09.7-.28 1s-.46.54-.82.72c-.37.18-.82.27-1.36.27Z" fill="#fffdf0"/>
        <path d="M107.93 44.71c-.45 0-.84-.11-1.18-.33s-.61-.53-.79-.92c-.19-.4-.29-.85-.29-1.37s.09-.98.29-1.37c.19-.39.46-.7.79-.92.34-.22.73-.33 1.18-.33q.63 0 1.11.33c.32.22.56.53.73.92s.26.85.26 1.37-.09.97-.26 1.37-.42.7-.73.92q-.48.33-1.11.33m.18-.73q.435 0 .78-.24c.23-.16.41-.38.54-.67s.2-.61.2-.98-.06-.69-.2-.98c-.13-.29-.31-.51-.54-.67s-.49-.24-.79-.24q-.465 0-.84.24c-.24.16-.43.38-.57.67s-.21.61-.21.98.07.69.21.98.33.51.58.67q.375.24.84.24m1.51 2.61v-6.07l.04-.93h.76v7z" fill="#fffdf0"/>
        <path d="M111.61 42.15v-2.56h.8v2.56zm.8 0c0 .49.06.87.17 1.13s.27.44.47.54.43.15.69.15c.43 0 .77-.16 1.01-.47s.37-.75.37-1.31h.39c0 .53-.08.98-.23 1.36s-.38.67-.66.87c-.29.2-.65.3-1.07.3q-.585 0-1.02-.24c-.29-.16-.52-.41-.68-.75s-.24-.79-.24-1.33v-.24h.8Zm2.76 2.44-.05-.92v-4.08h.8v5z" fill="#fffdf0"/>
        <path d="M119.51 44.71q-.735 0-1.29-.33c-.37-.22-.66-.53-.88-.93-.21-.39-.31-.85-.31-1.36s.11-.97.31-1.36q.315-.585.87-.93c.37-.22.79-.33 1.28-.33s.87.12 1.21.35.6.55.79.96.28.9.28 1.46h-4.13l.2-.17c0 .4.07.74.21 1.03s.35.51.61.66.56.23.89.23c.35 0 .65-.08.9-.25.24-.17.43-.39.56-.66l.69.35c-.13.26-.29.49-.5.68s-.46.34-.74.45-.6.16-.95.16Zm-1.62-2.98-.21-.16h3.45l-.21.17c0-.32-.06-.6-.19-.83q-.195-.345-.51-.54c-.21-.13-.46-.19-.74-.19s-.53.06-.78.19c-.24.13-.44.31-.59.54s-.23.5-.23.83Z" fill="#fffdf0"/>
        <path d="M124.96 46.74c-.25 0-.56-.09-.94-.26l.3-.67c.16.06.3.11.41.14s.2.05.27.05c.45 0 .68-.29.68-.87v-5.54h.8v5.56c0 .52-.13.92-.38 1.19s-.63.4-1.13.4Zm1.11-8.32c-.13 0-.25-.05-.35-.15s-.15-.22-.15-.35c0-.15.05-.27.15-.37s.22-.15.35-.15q.21 0 .36.15c.1.1.15.22.15.37 0 .13-.05.25-.15.35q-.15.15-.36.15" fill="#fffdf0"/>
        <path d="M127.81 42.15v-2.56h.8v2.56zm.8 0c0 .49.06.87.17 1.13s.27.44.47.54c.21.1.43.15.69.15.43 0 .77-.16 1.02-.47.24-.31.37-.75.37-1.31h.39c0 .53-.08.98-.23 1.36s-.38.67-.67.87-.64.3-1.06.3q-.585 0-1.02-.24c-.29-.16-.52-.41-.68-.75s-.24-.79-.24-1.33v-.24h.8Zm2.76 2.44-.05-.92v-4.08h.8v5z" fill="#fffdf0"/>
        <path d="M133.52 44.59v-5h.75l.05.92v4.08zm3.51-2.56c0-.49-.06-.87-.17-1.13s-.27-.44-.47-.54-.43-.15-.68-.15c-.44 0-.78.16-1.02.47s-.37.75-.37 1.31h-.39c0-.53.08-.98.23-1.36s.38-.67.67-.87.65-.3 1.06-.3q.585 0 1.02.24c.29.16.52.4.68.74s.24.79.23 1.34v.24h-.8Zm0 2.56v-2.56h.8v2.56z" fill="#fffdf0"/>
        <path d="M138.58 40.3v-.71h3.17v.71zm2.4 4.41c-.49 0-.86-.13-1.13-.38s-.4-.61-.4-1.07v-5.23h.8v5.15c0 .25.07.45.21.58q.21.21.57.21.12 0 .24-.03t.3-.18l.31.65c-.17.11-.33.19-.47.24-.14.04-.28.06-.43.06" fill="#fffdf0"/>
        <path d="M145.07 44.71c-.49 0-.93-.11-1.3-.33-.38-.22-.67-.53-.88-.93-.21-.39-.32-.85-.32-1.36s.1-.97.31-1.36.5-.7.88-.93q.57-.33 1.29-.33c.72 0 .92.11 1.29.33.38.22.67.53.88.93.21.39.31.85.31 1.36s-.1.97-.31 1.36-.5.7-.88.93c-.37.22-.8.33-1.28.33Zm-.01-.74q.495 0 .87-.24c.25-.16.45-.38.59-.67.14-.28.21-.61.21-.98s-.07-.69-.21-.98c-.14-.28-.34-.5-.6-.67-.25-.16-.55-.24-.88-.24s-.61.08-.86.24-.45.38-.59.66-.21.61-.21.98.07.69.21.98c.14.28.34.5.6.67.26.16.55.24.88.24Z" fill="#fffdf0"/>
        <path d="M150.4 44.71c-.37 0-.69-.06-.96-.17s-.5-.25-.69-.44c-.18-.18-.31-.38-.39-.59l.7-.29c.11.23.28.41.51.55s.48.21.75.21c.31 0 .58-.06.79-.19.21-.12.32-.3.32-.52 0-.21-.08-.37-.23-.5-.16-.13-.39-.23-.7-.31l-.48-.13c-.45-.12-.81-.3-1.06-.54s-.38-.52-.38-.83c0-.47.15-.84.46-1.1s.77-.4 1.38-.4c.29 0 .56.04.8.13s.45.21.62.37.3.34.38.56l-.7.31c-.09-.23-.23-.39-.43-.49s-.44-.15-.73-.15c-.31 0-.55.06-.72.19s-.26.31-.26.54c0 .13.07.26.21.38s.35.21.63.29l.5.13c.33.08.6.2.82.35.22.16.38.33.5.54.11.2.17.41.17.64q0 .45-.24.78c-.16.22-.38.39-.65.5-.27.12-.59.18-.94.18Z" fill="#fffdf0"/>
        <path d="M158.01 44.71c-.49 0-.93-.11-1.31-.33a2.3 2.3 0 0 1-.89-.93c-.21-.39-.32-.85-.32-1.36s.1-.97.31-1.36.51-.7.88-.93c.38-.22.81-.33 1.3-.33s.91.11 1.29.33q.57.33.87.93l-.73.33c-.13-.27-.33-.48-.58-.62-.25-.15-.54-.23-.87-.23s-.61.08-.86.24-.45.38-.59.67c-.14.28-.21.61-.21.98s.07.69.21.98c.14.28.34.5.6.67.26.16.55.24.88.24s.62-.08.88-.25.45-.4.58-.7l.73.33c-.2.43-.49.76-.87 1s-.81.36-1.3.36Z" fill="#fffdf0"/>
        <path d="M163.41 44.71c-.49 0-.93-.11-1.3-.33-.38-.22-.67-.53-.88-.93-.21-.39-.32-.85-.32-1.36s.1-.97.31-1.36.5-.7.88-.93q.57-.33 1.29-.33c.72 0 .92.11 1.29.33.38.22.67.53.88.93.21.39.31.85.31 1.36s-.1.97-.31 1.36-.5.7-.88.93c-.37.22-.8.33-1.28.33Zm-.01-.74q.495 0 .87-.24c.25-.16.45-.38.59-.67.14-.28.21-.61.21-.98s-.07-.69-.21-.98c-.14-.28-.34-.5-.6-.67-.25-.16-.55-.24-.88-.24s-.61.08-.86.24-.45.38-.59.66-.21.61-.21.98.07.69.21.98c.14.28.34.5.6.67.26.16.55.24.88.24Z" fill="#fffdf0"/>
        <path d="M166.99 44.59v-5h.75l.05.92v4.08zm3.51-2.56c0-.49-.06-.87-.17-1.13s-.27-.44-.47-.54-.43-.15-.68-.15c-.44 0-.78.16-1.03.47-.24.31-.37.75-.37 1.31h-.39c0-.53.08-.98.23-1.36s.38-.67.67-.87.65-.3 1.06-.3c.39 0 .73.08 1.03.24.29.16.52.4.68.74s.24.79.23 1.34v.24h-.8Zm0 2.56v-2.56h.8v2.56z" fill="#fffdf0"/>
        <path d="M172.05 40.3v-.71h3.17v.71zm2.4 4.41c-.49 0-.86-.13-1.13-.38s-.4-.61-.4-1.07v-5.23h.8v5.15c0 .25.07.45.21.58.14.14.33.21.58.21.08 0 .16-.01.23-.03s.18-.08.3-.18l.31.65c-.17.11-.33.19-.47.24-.14.04-.28.06-.43.06" fill="#fffdf0"/>
        <path d="M176.35 44.59v-5h.8v5zm.44-2.71c0-.54.1-.98.31-1.31s.47-.59.79-.75.67-.25 1.03-.25v.75c-.29 0-.57.05-.85.15-.27.1-.49.25-.66.48-.17.22-.26.52-.26.9l-.36.04Z" fill="#fffdf0"/>
        <path d="M180.19 38.43c-.13 0-.25-.05-.35-.15a.485.485 0 0 1 0-.7.49.49 0 0 1 .71 0c.1.1.14.22.14.35s-.05.25-.14.35c-.1.1-.21.15-.36.15m-.41 6.16v-5h.8v5z" fill="#fffdf0"/>
        <path d="M182.05 44.59v-7h.8v6.07l-.04.93zm2.49.12q-.63 0-1.11-.33c-.32-.22-.56-.53-.74-.92-.17-.4-.26-.85-.26-1.37s.09-.98.26-1.37.42-.7.74-.92.68-.33 1.11-.33c.45 0 .84.11 1.18.33s.6.53.79.92.29.85.29 1.37-.1.97-.29 1.37-.46.7-.79.92c-.34.22-.73.33-1.18.33m-.18-.73q.465 0 .84-.24c.24-.16.44-.38.58-.67.14-.28.21-.61.21-.98s-.07-.69-.21-.98-.33-.51-.57-.67-.53-.24-.85-.24q-.435 0-.78.24c-.23.16-.41.38-.54.67-.13.28-.2.61-.2.98s.07.69.2.98.31.51.54.67q.345.24.78.24" fill="#fffdf0"/>
        <path d="M187.78 42.15v-2.56h.8v2.56zm.8 0c0 .49.06.87.17 1.13s.27.44.47.54c.21.1.43.15.69.15.43 0 .77-.16 1.02-.47.24-.31.37-.75.37-1.31h.39c0 .53-.08.98-.23 1.36s-.38.67-.67.87-.64.3-1.06.3q-.585 0-1.02-.24c-.29-.16-.52-.41-.68-.75s-.24-.79-.24-1.33v-.24h.8Zm2.76 2.44-.05-.92v-4.08h.8v5z" fill="#fffdf0"/>
        <path d="M195.68 44.71q-.735 0-1.29-.33c-.37-.22-.67-.53-.88-.93-.21-.39-.31-.85-.31-1.36s.1-.97.31-1.36q.315-.585.87-.93c.37-.22.79-.33 1.28-.33s.87.12 1.21.35.6.55.79.96.28.9.28 1.46h-4.13l.2-.17c0 .4.07.74.21 1.03s.35.51.61.66.56.23.89.23c.35 0 .65-.08.89-.25s.43-.39.56-.66l.69.35c-.13.26-.29.49-.51.68-.21.19-.46.34-.74.45s-.6.16-.95.16Zm-1.62-2.98-.21-.16h3.45l-.21.17c0-.32-.06-.6-.19-.83q-.195-.345-.51-.54c-.21-.13-.46-.19-.74-.19s-.53.06-.78.19c-.24.13-.44.31-.59.54s-.22.5-.22.83Z" fill="#fffdf0"/>
        <path d="M198.95 44.59v-5h.75l.04.7c.15-.27.35-.47.59-.61q.36-.21.84-.21c.4 0 .74.09 1.03.28s.49.47.62.85c.14-.37.35-.65.62-.84s.59-.29.96-.29c.56 0 1 .19 1.32.56s.48.94.48 1.7v2.86h-.8v-2.56c0-.49-.05-.87-.15-1.13q-.15-.39-.42-.54c-.27-.15-.37-.15-.6-.15-.39 0-.7.16-.92.47s-.33.75-.33 1.31v2.59h-.8v-2.56c0-.49-.05-.87-.15-1.13q-.15-.39-.42-.54c-.18-.1-.38-.15-.61-.15-.39 0-.69.16-.91.47s-.33.75-.33 1.31v2.59h-.8Z" fill="#fffdf0"/>
        <path d="M81.18 58.09v-7h.75l.05.92v6.08zm2.49-1.88q-.63 0-1.11-.33c-.32-.22-.56-.53-.73-.92-.17-.4-.26-.85-.26-1.37s.09-.98.26-1.37.42-.7.73-.92q.48-.33 1.11-.33c.45 0 .84.11 1.18.33s.61.53.79.92c.19.39.29.85.29 1.37s-.09.97-.29 1.37c-.19.4-.46.7-.79.92-.34.22-.73.33-1.18.33m-.18-.73c.31 0 .59-.08.83-.24s.44-.38.58-.67c.14-.28.22-.61.22-.98s-.07-.69-.21-.98-.33-.51-.57-.67-.53-.24-.85-.24c-.29 0-.55.08-.79.24-.23.16-.41.38-.54.67-.13.28-.2.61-.2.98s.06.69.2.98c.13.29.31.51.54.67q.345.24.78.24Z" fill="#fffdf0"/>
        <path d="M88.62 56.21c-.59 0-1.04-.14-1.38-.41s-.5-.65-.5-1.12q0-.765.51-1.17c.34-.27.81-.4 1.41-.4h1.43v.67h-1.25c-.47 0-.8.08-.99.23s-.29.37-.29.66c0 .26.1.46.29.61s.46.23.81.23c.29 0 .54-.06.75-.19.21-.12.38-.3.5-.53s.17-.5.17-.81h.34c0 .68-.15 1.22-.46 1.62s-.75.6-1.34.6Zm1.5-.12-.04-.82v-1.82c0-.39-.04-.72-.13-.98s-.22-.45-.41-.58-.43-.2-.73-.2c-.27 0-.51.05-.71.17-.2.11-.36.28-.48.52l-.72-.28c.13-.23.28-.43.46-.6q.27-.255.63-.39c.24-.09.51-.14.82-.14.47 0 .85.09 1.15.27q.45.27.69.81c.15.36.23.8.22 1.33v2.71z" fill="#fffdf0"/>
        <path d="M92.14 56.09v-5h.8v5zm.44-2.71c0-.54.1-.98.31-1.31.21-.34.47-.59.79-.75s.66-.25 1.02-.25v.75q-.435 0-.84.15c-.405.15-.49.25-.67.48-.17.22-.26.52-.26.9l-.36.04Z" fill="#fffdf0"/>
        <path d="M97.1 56.21c-.59 0-1.04-.14-1.38-.41s-.49-.65-.49-1.12c0-.51.17-.9.5-1.17.34-.27.81-.4 1.42-.4h1.43v.67h-1.25c-.47 0-.8.08-1 .23s-.29.37-.29.66c0 .26.1.46.29.61s.46.23.81.23c.29 0 .54-.06.75-.19.21-.12.38-.3.49-.53s.18-.5.18-.81h.34c0 .68-.15 1.22-.46 1.62s-.75.6-1.34.6Zm1.5-.12-.04-.82v-1.82c0-.39-.04-.72-.13-.98s-.22-.45-.41-.58-.43-.2-.73-.2c-.27 0-.51.05-.71.17-.2.11-.36.28-.48.52l-.72-.28c.13-.23.28-.43.46-.6q.27-.255.63-.39c.24-.09.51-.14.82-.14.47 0 .85.09 1.16.27.3.18.53.45.68.81s.23.8.22 1.33v2.71z" fill="#fffdf0"/>
        <path d="M104.67 56.21c-.59 0-1.04-.14-1.38-.41s-.5-.65-.5-1.12q0-.765.51-1.17c.34-.27.81-.4 1.41-.4h1.43v.67h-1.25c-.47 0-.8.08-.99.23s-.29.37-.29.66c0 .26.1.46.29.61s.46.23.81.23c.29 0 .54-.06.75-.19.21-.12.38-.3.5-.53s.17-.5.17-.81h.34c0 .68-.15 1.22-.46 1.62s-.75.6-1.34.6Zm1.5-.12-.04-.82v-1.82c0-.39-.04-.72-.13-.98s-.22-.45-.41-.58-.43-.2-.73-.2c-.27 0-.51.05-.71.17-.2.11-.36.28-.48.52l-.72-.28c.13-.23.28-.43.46-.6q.27-.255.63-.39c.24-.09.51-.14.82-.14.47 0 .85.09 1.15.27q.45.27.69.81c.15.36.23.8.22 1.33v2.71z" fill="#fffdf0"/>
        <path d="M110.66 56.09v-5h.75l.04.7c.15-.27.35-.47.59-.61q.36-.21.84-.21c.4 0 .74.09 1.03.28.28.19.49.47.61.85.14-.37.35-.65.62-.84s.59-.29.96-.29c.56 0 1 .19 1.33.56.32.37.48.94.47 1.7v2.86h-.8v-2.56c0-.49-.05-.87-.15-1.13s-.24-.44-.41-.54-.38-.15-.6-.15c-.39 0-.7.16-.92.47s-.33.75-.33 1.31v2.59h-.8v-2.56c0-.49-.05-.87-.16-1.13q-.15-.39-.42-.54t-.6-.15c-.39 0-.69.16-.91.47s-.33.75-.33 1.31v2.59h-.8Z" fill="#fffdf0"/>
        <path d="M120.75 56.21c-.59 0-1.04-.14-1.38-.41s-.49-.65-.49-1.12c0-.51.17-.9.5-1.17.34-.27.81-.4 1.42-.4h1.43v.67h-1.25c-.47 0-.8.08-1 .23s-.29.37-.29.66c0 .26.1.46.29.61s.46.23.81.23c.29 0 .54-.06.75-.19.21-.12.38-.3.49-.53s.18-.5.18-.81h.34c0 .68-.15 1.22-.46 1.62s-.75.6-1.34.6Zm1.5-.12-.04-.82v-1.82c0-.39-.04-.72-.13-.98s-.22-.45-.41-.58-.43-.2-.73-.2c-.27 0-.51.05-.71.17-.2.11-.36.28-.48.52l-.72-.28c.13-.23.28-.43.46-.6q.27-.255.63-.39c.24-.09.51-.14.82-.14.47 0 .85.09 1.16.27.3.18.53.45.68.81s.23.8.22 1.33v2.71z" fill="#fffdf0"/>
        <path d="M124.27 56.09v-5h.75l.05.92v4.08zm3.51-2.56c0-.49-.06-.87-.17-1.13s-.27-.44-.47-.54-.43-.15-.68-.15c-.44 0-.78.16-1.02.47s-.37.75-.37 1.31h-.39c0-.53.08-.98.23-1.36s.38-.67.67-.87.65-.3 1.06-.3q.585 0 1.02.24c.29.16.52.4.68.74s.24.79.23 1.34v.24h-.8Zm0 2.56v-2.56h.8v2.56z" fill="#fffdf0"/>
        <path d="M129.72 53.65v-2.56h.8v2.56zm.8 0c0 .49.06.87.17 1.13s.27.44.47.54c.21.1.43.15.69.15.43 0 .77-.16 1.02-.47.24-.31.37-.75.37-1.31h.39c0 .53-.08.98-.23 1.36s-.38.67-.67.87-.64.3-1.06.3q-.585 0-1.02-.24c-.29-.16-.52-.41-.68-.75s-.24-.79-.24-1.33v-.24h.8Zm2.76 2.44-.05-.92v-4.08h.8v5z" fill="#fffdf0"/>
        <path d="M134.91 51.8v-.71h3.17v.71zm2.4 4.41c-.49 0-.86-.13-1.13-.38s-.4-.61-.4-1.07v-5.23h.8v5.15c0 .25.07.45.21.58q.21.21.57.21.12 0 .24-.03t.3-.18l.31.65c-.17.11-.33.19-.47.24-.14.04-.28.06-.43.06" fill="#fffdf0"/>
        <path d="M141.37 56.21q-.735 0-1.29-.33c-.37-.22-.67-.53-.88-.93-.21-.39-.31-.85-.31-1.36s.1-.97.31-1.36q.315-.585.87-.93c.37-.22.79-.33 1.28-.33s.87.12 1.21.35.6.55.79.96.28.9.28 1.46h-4.13l.2-.17c0 .4.07.74.21 1.03s.35.51.61.66.56.23.89.23c.35 0 .65-.08.89-.25s.43-.39.56-.66l.69.35c-.13.26-.29.49-.51.68-.21.19-.46.34-.74.45s-.6.16-.95.16Zm-1.62-2.98-.21-.16h3.45l-.21.17c0-.32-.06-.6-.19-.83q-.195-.345-.51-.54c-.21-.13-.46-.19-.74-.19s-.53.06-.78.19c-.24.13-.44.31-.59.54s-.22.5-.22.83Z" fill="#fffdf0"/>
        <path d="M144.64 56.09v-5h.75l.05.92v4.08zm3.51-2.56c0-.49-.06-.87-.17-1.13s-.27-.44-.47-.54-.43-.15-.68-.15c-.44 0-.78.16-1.03.47-.24.31-.37.75-.37 1.31h-.39c0-.53.08-.98.23-1.36s.38-.67.67-.87.65-.3 1.06-.3c.39 0 .73.08 1.03.24.29.16.52.4.68.74s.24.79.23 1.34v.24h-.8Zm0 2.56v-2.56h.8v2.56z" fill="#fffdf0"/>
        <path d="M152.45 56.21c-.49 0-.93-.11-1.31-.33a2.3 2.3 0 0 1-.89-.93c-.21-.39-.32-.85-.32-1.36s.11-.97.31-1.36c.21-.39.51-.7.89-.93.38-.22.81-.33 1.3-.33s.91.11 1.29.33q.57.33.87.93l-.73.33c-.13-.27-.33-.48-.58-.62-.25-.15-.54-.23-.87-.23s-.62.08-.87.24-.45.38-.59.67c-.14.28-.21.61-.21.98s.07.69.21.98.34.5.6.67c.26.16.55.24.88.24s.62-.08.88-.25.45-.4.59-.7l.73.33c-.2.43-.49.76-.87 1s-.81.36-1.3.36Zm-.31 1.98c-.13 0-.27-.02-.42-.05s-.33-.11-.54-.22l.2-.48c.1.05.21.09.32.14a.8.8 0 0 0 .31.07c.12 0 .23-.02.33-.07s.14-.14.14-.29c0-.17-.06-.29-.19-.38-.12-.08-.31-.15-.57-.19l.3-.7.53.12-.11.26c.25.09.42.21.53.37s.16.32.16.5c0 .26-.08.48-.24.65s-.41.27-.75.27" fill="#fffdf0"/>
        <path d="M157.21 56.21c-.59 0-1.04-.14-1.38-.41s-.5-.65-.5-1.12q0-.765.51-1.17c.34-.27.81-.4 1.41-.4h1.43v.67h-1.25c-.47 0-.8.08-.99.23s-.29.37-.29.66c0 .26.1.46.29.61s.46.23.81.23c.29 0 .54-.06.75-.19.21-.12.38-.3.5-.53s.17-.5.17-.81h.34c0 .68-.15 1.22-.46 1.62s-.75.6-1.34.6Zm1.5-.12-.04-.82v-1.82c0-.39-.04-.72-.13-.98s-.22-.45-.41-.58-.43-.2-.73-.2c-.27 0-.51.05-.71.17-.2.11-.36.28-.48.52l-.72-.28c.13-.23.28-.43.46-.6q.27-.255.63-.39c.24-.09.51-.14.82-.14.47 0 .85.09 1.15.27q.45.27.69.81c.15.36.23.8.22 1.33v2.71zm-.44-5.66c-.19 0-.35-.04-.47-.11s-.22-.16-.29-.25c-.08-.09-.15-.18-.21-.25-.07-.07-.14-.11-.23-.11-.11 0-.19.03-.25.08-.06.06-.1.15-.13.29h-.65c.02-.18.07-.35.16-.5.08-.16.2-.28.35-.38s.32-.14.52-.14.34.04.45.11.21.16.29.25.15.18.22.25.15.11.25.11c.11 0 .2-.03.25-.1s.09-.16.11-.28h.64c-.03.27-.13.5-.3.71s-.4.31-.7.31Z" fill="#fffdf0"/>
        <path d="M162.94 56.21c-.49 0-.93-.11-1.3-.33-.38-.22-.67-.53-.88-.93-.21-.39-.32-.85-.32-1.36s.11-.97.31-1.36c.21-.39.5-.7.88-.93q.57-.33 1.29-.33c.72 0 .92.11 1.29.33.38.22.67.53.88.93.21.39.31.85.31 1.36s-.11.97-.31 1.36c-.21.39-.5.7-.88.93-.38.22-.8.33-1.28.33Zm-.01-.74q.495 0 .87-.24c.25-.16.45-.38.59-.67s.21-.61.21-.98-.07-.69-.21-.98c-.14-.28-.34-.5-.6-.67-.25-.16-.54-.24-.88-.24s-.62.08-.87.24-.45.38-.59.66-.21.61-.21.98.07.69.21.98.34.5.6.67c.26.16.55.24.88.24Z" fill="#fffdf0"/>
        <path d="M170.96 56.21c-.45 0-.84-.11-1.18-.33s-.61-.53-.79-.92c-.19-.4-.29-.85-.29-1.37s.1-.98.29-1.37.46-.7.79-.92c.34-.22.73-.33 1.18-.33q.63 0 1.11.33c.32.22.56.53.73.92s.26.85.26 1.37-.09.97-.26 1.37-.42.7-.73.92q-.48.33-1.11.33m.18-.73q.435 0 .78-.24c.23-.16.4-.38.54-.67.13-.29.2-.61.2-.98s-.07-.69-.2-.98-.31-.51-.54-.67-.49-.24-.79-.24-.59.08-.83.24-.44.38-.58.67-.21.61-.21.98.07.69.21.98.33.51.58.67q.375.24.84.24m1.55.61-.04-.93v-6.07h.8v7z" fill="#fffdf0"/>
        <path d="M177.07 56.21c-.49 0-.93-.11-1.3-.33-.38-.22-.67-.53-.88-.93-.21-.39-.32-.85-.32-1.36s.1-.97.31-1.36.5-.7.88-.93q.57-.33 1.29-.33c.72 0 .92.11 1.29.33.38.22.67.53.88.93.21.39.31.85.31 1.36s-.1.97-.31 1.36-.5.7-.88.93c-.37.22-.8.33-1.28.33Zm-.01-.74q.495 0 .87-.24c.25-.16.45-.38.59-.67.14-.28.21-.61.21-.98s-.07-.69-.21-.98c-.14-.28-.34-.5-.6-.67-.25-.16-.55-.24-.88-.24s-.61.08-.86.24-.45.38-.59.66-.21.61-.21.98.07.69.21.98c.14.28.34.5.6.67.26.16.55.24.88.24Z" fill="#fffdf0"/>
        <path d="M184.87 56.21c-.37 0-.69-.06-.96-.17s-.5-.25-.69-.44-.31-.38-.39-.59l.7-.29c.11.23.28.41.51.55s.48.21.75.21c.31 0 .58-.06.79-.19.21-.12.32-.3.32-.52 0-.21-.08-.37-.24-.5s-.39-.23-.7-.31l-.48-.13c-.46-.12-.81-.3-1.06-.54s-.38-.52-.38-.83c0-.47.16-.84.46-1.1.31-.26.77-.4 1.39-.4.29 0 .56.04.8.13s.45.21.62.37.3.34.38.56l-.7.31a.87.87 0 0 0-.43-.49c-.2-.1-.44-.15-.73-.15-.31 0-.55.06-.72.19s-.26.31-.26.54c0 .13.07.26.21.38s.36.21.63.29l.5.13c.33.08.6.2.82.35.22.16.39.33.5.54s.17.41.17.64q0 .45-.24.78c-.16.22-.38.39-.65.5-.27.12-.59.18-.94.18Z" fill="#fffdf0"/>
        <path d="M188.24 49.93c-.13 0-.25-.05-.35-.15a.485.485 0 0 1 0-.7.485.485 0 0 1 .7 0 .485.485 0 0 1 0 .7c-.1.1-.21.15-.35.15m-.41 6.16v-5h.8v5z" fill="#fffdf0"/>
        <path d="M191.85 56.21c-.37 0-.69-.06-.96-.17s-.5-.25-.69-.44-.31-.38-.39-.59l.7-.29c.11.23.28.41.51.55s.48.21.75.21c.31 0 .58-.06.79-.19.21-.12.32-.3.32-.52 0-.21-.08-.37-.24-.5s-.39-.23-.7-.31l-.48-.13c-.46-.12-.81-.3-1.06-.54s-.38-.52-.38-.83c0-.47.16-.84.46-1.1.31-.26.77-.4 1.39-.4.29 0 .56.04.8.13s.45.21.62.37.3.34.38.56l-.7.31a.87.87 0 0 0-.43-.49c-.2-.1-.44-.15-.73-.15-.31 0-.55.06-.72.19s-.26.31-.26.54c0 .13.07.26.21.38s.36.21.63.29l.5.13c.33.08.6.2.82.35.22.16.39.33.5.54s.17.41.17.64q0 .45-.24.78c-.16.22-.38.39-.65.5-.27.12-.59.18-.94.18Z" fill="#fffdf0"/>
        <path d="M194.24 51.8v-.71h3.17v.71zm2.4 4.41c-.49 0-.86-.13-1.13-.38s-.4-.61-.4-1.07v-5.23h.8v5.15c0 .25.07.45.21.58q.21.21.57.21.12 0 .24-.03t.3-.18l.31.65c-.17.11-.33.19-.47.24-.14.04-.28.06-.43.06" fill="#fffdf0"/>
        <path d="M200.7 56.21q-.735 0-1.29-.33c-.37-.22-.66-.53-.88-.93-.21-.39-.31-.85-.31-1.36s.11-.97.31-1.36q.315-.585.87-.93c.37-.22.79-.33 1.28-.33s.87.12 1.21.35.6.55.79.96.28.9.28 1.46h-4.13l.2-.17c0 .4.07.74.21 1.03s.35.51.61.66.56.23.89.23c.35 0 .65-.08.9-.25.24-.17.43-.39.56-.66l.69.35c-.13.26-.29.49-.5.68s-.46.34-.74.45-.6.16-.95.16Zm-1.62-2.98-.21-.16h3.45l-.21.17c0-.32-.06-.6-.19-.83q-.195-.345-.51-.54c-.21-.13-.46-.19-.74-.19s-.53.06-.78.19c-.24.13-.44.31-.59.54s-.23.5-.23.83Z" fill="#fffdf0"/>
        <path d="M203.97 56.09v-5h.75l.04.7c.15-.27.35-.47.59-.61q.36-.21.84-.21c.4 0 .74.09 1.03.28.28.19.49.47.61.85.14-.37.35-.65.62-.84s.59-.29.96-.29c.56 0 1 .19 1.33.56.32.37.48.94.47 1.7v2.86h-.8v-2.56c0-.49-.05-.87-.15-1.13s-.24-.44-.41-.54-.38-.15-.6-.15c-.39 0-.7.16-.92.47s-.33.75-.33 1.31v2.59h-.8v-2.56c0-.49-.05-.87-.16-1.13q-.15-.39-.42-.54t-.6-.15c-.39 0-.69.16-.91.47s-.33.75-.33 1.31v2.59h-.8Z" fill="#fffdf0"/>
        <path d="M214.06 56.21c-.59 0-1.04-.14-1.38-.41s-.49-.65-.49-1.12c0-.51.17-.9.5-1.17.34-.27.81-.4 1.42-.4h1.43v.67h-1.25c-.47 0-.8.08-1 .23s-.29.37-.29.66c0 .26.1.46.29.61s.46.23.81.23c.29 0 .54-.06.75-.19.21-.12.38-.3.49-.53s.18-.5.18-.81h.34c0 .68-.15 1.22-.46 1.62s-.75.6-1.34.6Zm1.5-.12-.04-.82v-1.82c0-.39-.04-.72-.13-.98s-.22-.45-.41-.58-.43-.2-.73-.2c-.27 0-.51.05-.71.17-.2.11-.36.28-.48.52l-.72-.28c.13-.23.28-.43.46-.6q.27-.255.63-.39c.24-.09.51-.14.82-.14.47 0 .85.09 1.16.27.3.18.53.45.68.81s.23.8.22 1.33v2.71z" fill="#fffdf0"/>
        <path d="M81.59 61.43c-.13 0-.25-.05-.35-.15a.485.485 0 0 1 0-.7.49.49 0 0 1 .71 0c.1.1.14.22.14.35s-.05.25-.14.35c-.1.1-.21.15-.36.15m-.41 6.16v-5h.8v5z" fill="#fffdf0"/>
        <path d="M83.45 67.59v-5h.75l.04.7c.15-.27.35-.47.59-.61q.36-.21.84-.21c.4 0 .74.09 1.03.28s.49.47.62.85c.14-.37.35-.65.62-.84s.59-.29.96-.29c.56 0 1 .19 1.32.56s.48.94.48 1.7v2.86h-.8v-2.56c0-.49-.05-.87-.15-1.13q-.15-.39-.42-.54c-.27-.15-.37-.15-.6-.15-.39 0-.7.16-.92.47s-.33.75-.33 1.31v2.59h-.8v-2.56c0-.49-.05-.87-.15-1.13q-.15-.39-.42-.54c-.18-.1-.38-.15-.61-.15-.39 0-.69.16-.91.47s-.33.75-.33 1.31v2.59h-.8Z" fill="#fffdf0"/>
        <path d="M91.83 65.15v-2.56h.8v2.56zm.8 0c0 .49.06.87.17 1.13s.27.44.47.54.43.15.69.15c.43 0 .77-.16 1.01-.47s.37-.75.37-1.31h.39c0 .53-.08.98-.23 1.36s-.38.67-.66.87c-.29.2-.65.3-1.07.3q-.585 0-1.02-.24c-.29-.16-.52-.41-.68-.75s-.24-.79-.24-1.33v-.24h.8Zm2.76 2.44-.05-.92v-4.08h.8v5z" fill="#fffdf0"/>
        <path d="M97.54 67.59v-5h.75l.05.92v4.08zm3.51-2.56c0-.49-.06-.87-.17-1.13s-.27-.44-.47-.54-.43-.15-.68-.15c-.44 0-.78.16-1.03.47-.24.31-.37.75-.37 1.31h-.39c0-.53.08-.98.23-1.36s.38-.67.67-.87.65-.3 1.06-.3c.39 0 .73.08 1.03.24.29.16.52.4.68.74s.24.79.23 1.34v.24h-.8Zm0 2.56v-2.56h.8v2.56z" fill="#fffdf0"/>
        <path d="M105.34 67.71c-.49 0-.93-.11-1.3-.33-.38-.22-.67-.53-.88-.93-.21-.39-.32-.85-.32-1.36s.11-.97.31-1.36c.21-.39.5-.7.88-.93q.57-.33 1.29-.33c.72 0 .92.11 1.29.33.38.22.67.53.88.93.21.39.31.85.31 1.36s-.11.97-.31 1.36c-.21.39-.5.7-.88.93-.38.22-.8.33-1.28.33Zm-.01-.74q.495 0 .87-.24c.25-.16.45-.38.59-.67s.21-.61.21-.98-.07-.69-.21-.98c-.14-.28-.34-.5-.6-.67-.25-.16-.54-.24-.88-.24s-.62.08-.87.24-.45.38-.59.66-.21.61-.21.98.07.69.21.98.34.5.6.67c.26.16.55.24.88.24Z" fill="#fffdf0"/>
        <path d="M108.92 67.59v-7h.8v7z" fill="#fffdf0"/>
        <path d="M113.34 67.71c-.49 0-.93-.11-1.3-.33-.38-.22-.67-.53-.88-.93-.21-.39-.32-.85-.32-1.36s.11-.97.31-1.36c.21-.39.5-.7.88-.93q.57-.33 1.29-.33c.72 0 .92.11 1.29.33.38.22.67.53.88.93.21.39.31.85.31 1.36s-.11.97-.31 1.36c-.21.39-.5.7-.88.93-.38.22-.8.33-1.28.33Zm-.01-.74q.495 0 .87-.24c.25-.16.45-.38.59-.67s.21-.61.21-.98-.07-.69-.21-.98c-.14-.28-.34-.5-.6-.67-.25-.16-.54-.24-.88-.24s-.62.08-.87.24-.45.38-.59.66-.21.61-.21.98.07.69.21.98.34.5.6.67c.26.16.55.24.88.24Zm-.7-5.09 1.17-1.29h1.03l-1.29 1.29z" fill="#fffdf0"/>
        <path d="M118.89 67.55c-.45 0-.84-.11-1.18-.32s-.61-.51-.79-.9c-.19-.38-.29-.82-.29-1.31s.09-.95.29-1.33c.19-.38.46-.68.79-.9s.73-.32 1.18-.32c.42 0 .79.11 1.1.32s.56.51.73.9c.18.38.27.83.27 1.33s-.09.94-.27 1.32-.42.68-.73.89-.68.32-1.1.32m.03 2.16c-.32 0-.61-.03-.88-.1s-.49-.13-.67-.21-.31-.14-.39-.19l.3-.65c.09.05.21.1.37.17s.35.13.56.18c.22.05.45.07.7.07.32 0 .61-.06.87-.19s.46-.33.6-.61.21-.63.21-1.07v-4.53h.8v4.52c0 .57-.11 1.05-.32 1.44s-.51.68-.88.87-.8.29-1.27.29Zm.16-2.85q.435 0 .78-.24c.23-.16.4-.38.53-.65.13-.28.19-.6.19-.96s-.06-.67-.2-.95c-.13-.28-.31-.49-.53-.65s-.48-.23-.79-.23-.59.08-.84.23c-.24.16-.43.37-.57.65s-.21.59-.21.95.07.69.21.96c.14.28.33.5.58.65.24.16.52.24.83.24Z" fill="#fffdf0"/>
        <path d="M123.25 61.43c-.13 0-.25-.05-.35-.15a.485.485 0 0 1 0-.7.49.49 0 0 1 .71 0c.1.1.14.22.14.35s-.05.25-.14.35c-.1.1-.21.15-.36.15m-.41 6.16v-5h.8v5z" fill="#fffdf0"/>
        <path d="M127.34 67.71c-.49 0-.93-.11-1.31-.33a2.3 2.3 0 0 1-.89-.93c-.21-.39-.32-.85-.32-1.36s.11-.97.31-1.36c.21-.39.51-.7.89-.93.38-.22.81-.33 1.3-.33s.91.11 1.29.33q.57.33.87.93l-.73.33c-.13-.27-.33-.48-.58-.62-.25-.15-.54-.23-.87-.23s-.62.08-.87.24-.45.38-.59.67c-.14.28-.21.61-.21.98s.07.69.21.98.34.5.6.67c.26.16.55.24.88.24s.62-.08.88-.25.45-.4.59-.7l.73.33c-.2.43-.49.76-.87 1s-.81.36-1.3.36Z" fill="#fffdf0"/>
        <path d="M132.74 67.71c-.49 0-.93-.11-1.3-.33-.38-.22-.67-.53-.88-.93-.21-.39-.32-.85-.32-1.36s.11-.97.31-1.36c.21-.39.5-.7.88-.93q.57-.33 1.29-.33c.72 0 .92.11 1.29.33.38.22.67.53.88.93.21.39.31.85.31 1.36s-.11.97-.31 1.36c-.21.39-.5.7-.88.93-.38.22-.8.33-1.28.33Zm-.01-.74q.495 0 .87-.24c.25-.16.45-.38.59-.67s.21-.61.21-.98-.07-.69-.21-.98c-.14-.28-.34-.5-.6-.67-.25-.16-.54-.24-.88-.24s-.62.08-.87.24-.45.38-.59.66-.21.61-.21.98.07.69.21.98.34.5.6.67c.26.16.55.24.88.24Z" fill="#fffdf0"/>
        <path d="M140.76 67.71c-.45 0-.84-.11-1.18-.33s-.61-.53-.79-.92c-.19-.4-.29-.85-.29-1.37s.1-.98.29-1.37.46-.7.79-.92c.34-.22.73-.33 1.18-.33q.63 0 1.11.33c.32.22.56.53.73.92s.26.85.26 1.37-.09.97-.26 1.37-.42.7-.73.92q-.48.33-1.11.33m.18-.73q.435 0 .78-.24c.23-.16.4-.38.54-.67.13-.29.2-.61.2-.98s-.07-.69-.2-.98-.31-.51-.54-.67-.49-.24-.79-.24-.59.08-.83.24-.44.38-.58.67-.21.61-.21.98.07.69.21.98.33.51.58.67q.375.24.84.24m1.55.61-.04-.93v-6.07h.8v7z" fill="#fffdf0"/>
        <path d="M146.87 67.71c-.49 0-.93-.11-1.3-.33-.38-.22-.67-.53-.88-.93-.21-.39-.32-.85-.32-1.36s.1-.97.31-1.36.5-.7.88-.93q.57-.33 1.29-.33c.72 0 .92.11 1.29.33.38.22.67.53.88.93.21.39.31.85.31 1.36s-.1.97-.31 1.36-.5.7-.88.93c-.37.22-.8.33-1.28.33Zm-.01-.74q.495 0 .87-.24c.25-.16.45-.38.59-.67.14-.28.21-.61.21-.98s-.07-.69-.21-.98c-.14-.28-.34-.5-.6-.67-.25-.16-.55-.24-.88-.24s-.61.08-.86.24-.45.38-.59.66-.21.61-.21.98.07.69.21.98c.14.28.34.5.6.67.26.16.55.24.88.24Z" fill="#fffdf0"/>
        <path d="M154.67 67.71c-.37 0-.69-.06-.96-.17s-.5-.25-.69-.44-.31-.38-.39-.59l.7-.29c.11.23.28.41.51.55s.48.21.75.21c.31 0 .58-.06.79-.19.21-.12.32-.3.32-.52 0-.21-.08-.37-.24-.5s-.39-.23-.7-.31l-.48-.13c-.46-.12-.81-.3-1.06-.54s-.38-.52-.38-.83c0-.47.16-.84.46-1.1.31-.26.77-.4 1.39-.4.29 0 .56.04.8.13s.45.21.62.37.3.34.38.56l-.7.31a.87.87 0 0 0-.43-.49c-.2-.1-.44-.15-.73-.15-.31 0-.55.06-.72.19s-.26.31-.26.54c0 .13.07.26.21.38s.36.21.63.29l.5.13c.33.08.6.2.82.35.22.16.39.33.5.54s.17.41.17.64q0 .45-.24.78c-.16.22-.38.39-.65.5-.27.12-.59.18-.94.18Z" fill="#fffdf0"/>
        <path d="M159.77 67.71q-.735 0-1.29-.33c-.37-.22-.67-.53-.88-.93-.21-.39-.31-.85-.31-1.36s.1-.97.31-1.36q.315-.585.87-.93c.37-.22.79-.33 1.28-.33s.87.12 1.21.35.6.55.79.96.28.9.28 1.46h-4.13l.2-.17c0 .4.07.74.21 1.03s.35.51.61.66.56.23.89.23c.35 0 .65-.08.89-.25s.43-.39.56-.66l.69.35c-.13.26-.29.49-.51.68-.21.19-.46.34-.74.45s-.6.16-.95.16Zm-1.62-2.98-.21-.16h3.45l-.21.17c0-.32-.06-.6-.19-.83q-.195-.345-.51-.54c-.21-.13-.46-.19-.74-.19s-.53.06-.78.19c-.24.13-.44.31-.59.54s-.22.5-.22.83Z" fill="#fffdf0"/>
        <path d="M162.91 65.15v-2.56h.8v2.56zm.8 0c0 .49.06.87.17 1.13s.27.44.47.54.43.15.69.15c.43 0 .77-.16 1.01-.47s.37-.75.37-1.31h.39c0 .53-.08.98-.23 1.36s-.38.67-.66.87c-.29.2-.65.3-1.07.3q-.585 0-1.02-.24c-.29-.16-.52-.41-.68-.75s-.24-.79-.24-1.33v-.24h.8Zm2.76 2.44-.05-.92v-4.08h.8v5z" fill="#fffdf0"/>
        <path d="M171.14 69.59v-7h.75l.05.92v6.08zm2.49-1.88q-.63 0-1.11-.33c-.32-.22-.56-.53-.73-.92-.17-.4-.26-.85-.26-1.37s.09-.98.26-1.37.42-.7.73-.92q.48-.33 1.11-.33c.45 0 .84.11 1.18.33s.61.53.79.92c.19.39.29.85.29 1.37s-.1.97-.29 1.37-.46.7-.79.92c-.34.22-.73.33-1.18.33m-.18-.73q.465 0 .84-.24c.24-.16.44-.38.58-.67.14-.28.21-.61.21-.98s-.07-.69-.21-.98-.33-.51-.57-.67-.53-.24-.84-.24c-.29 0-.56.08-.79.24s-.41.38-.54.67c-.13.28-.2.61-.2.98s.07.69.2.98.31.51.54.67q.345.24.78.24" fill="#fffdf0"/>
        <path d="M179.19 67.71q-.735 0-1.29-.33c-.37-.22-.67-.53-.88-.93-.21-.39-.31-.85-.31-1.36s.1-.97.31-1.36q.315-.585.87-.93c.37-.22.79-.33 1.28-.33s.87.12 1.21.35.6.55.79.96.28.9.28 1.46h-4.13l.2-.17c0 .4.07.74.21 1.03s.35.51.61.66.56.23.89.23c.35 0 .65-.08.89-.25s.43-.39.56-.66l.69.35c-.13.26-.29.49-.51.68-.21.19-.46.34-.74.45s-.6.16-.95.16Zm-1.62-2.98-.21-.16h3.45l-.21.17c0-.32-.06-.6-.19-.83q-.195-.345-.51-.54c-.21-.13-.46-.19-.74-.19s-.53.06-.78.19c-.24.13-.44.31-.59.54s-.22.5-.22.83Z" fill="#fffdf0"/>
        <path d="M181.94 63.3v-.71h3.17v.71zm2.4 4.41c-.49 0-.86-.13-1.13-.38s-.4-.61-.4-1.07v-5.23h.8v5.15c0 .25.07.45.21.58.14.14.33.21.58.21.08 0 .16-.01.23-.03s.18-.08.3-.18l.31.65c-.17.11-.33.19-.47.24-.14.04-.28.06-.43.06" fill="#fffdf0"/>
        <path d="M186.58 67.73c-.15 0-.29-.06-.39-.17a.57.57 0 0 1 0-.79c.11-.11.24-.17.39-.17s.28.06.39.17.16.24.16.4-.05.28-.16.39-.24.17-.39.17" fill="#fffdf0"/>
    </g>
</svg>
