<?xml version="1.0" encoding="UTF-8"?>
<svg data-bbox="0.2 0.2 213.02 70.6" viewBox="0 0 213.23 71" xmlns="http://www.w3.org/2000/svg" data-type="ugc">
    <g>
        <path stroke-miterlimit="10" fill="#fffdf0" stroke="#fffdf0" stroke-width=".4" d="M70.8 35.5c0 19.496-15.804 35.3-35.3 35.3S.2 54.996.2 35.5 16.004.2 35.5.2s35.3 15.804 35.3 35.3z"/>
        <path d="M42.31 57.3a6.23 6.23 0 0 0 0-12.46H23.86" fill="none" stroke="#005f21" stroke-miterlimit="10"/>
        <path d="M43.41 51.07H23.82c-3.44 0-6.23-2.78-6.23-6.22a6.23 6.23 0 0 1 6.23-6.23h28.76" fill="none" stroke="#005f21" stroke-miterlimit="10"/>
        <path d="M18.22 32.38h33.85c3.44-.02 6.23 2.77 6.23 6.22a6.23 6.23 0 0 1-6.23 6.23h-9.78" fill="none" stroke="#005f21" stroke-miterlimit="10"/>
        <path d="M24.32 38.61h-5.4c-3.44 0-6.23-2.78-6.23-6.22a6.23 6.23 0 0 1 6.23-6.23h14.51" fill="none" stroke="#005f21" stroke-miterlimit="10"/>
        <path d="M43.4 32.39a6.23 6.23 0 0 0 0-12.46H29.5" fill="none" stroke="#005f21" stroke-miterlimit="10"/>
        <path d="M43.93 26.14H29.79c-3.44.02-6.23-2.77-6.23-6.21a6.23 6.23 0 0 1 6.23-6.23h2.33c.38 0 .69-.31.69-.69V9.25" fill="none" stroke="#005f21" stroke-miterlimit="10"/>
        <path d="M38.66 9.24v4.45c0 2.09.55 6.23-3.29 6.23" fill="none" stroke="#005f21" stroke-miterlimit="10"/>
        <path d="M27.6 44.84h14.7c3.44 0 6.23 2.78 6.23 6.22a6.23 6.23 0 0 1-6.23 6.23h-2.33c-.38 0-.69.31-.69.69v3.76" fill="none" stroke="#005f21" stroke-miterlimit="10"/>
        <path d="M33.43 61.76v-4.45c0-2.09-.55-6.23 3.29-6.23" fill="none" stroke="#005f21" stroke-miterlimit="10"/>
        <path d="M85.47 17.25v-7h4.69v1.7h-2.84v.97h2.3v1.65h-2.3v.98h2.91v1.7z" fill="#fffdf0"/>
        <path d="M94.73 17.37c-.73 0-1.38-.16-1.95-.46-.56-.31-1.01-.74-1.32-1.28-.32-.54-.48-1.17-.48-1.87 0-.53.09-1.02.28-1.46.18-.44.44-.82.77-1.15s.73-.58 1.18-.76.95-.26 1.5-.26c.73 0 1.38.16 1.94.46q.84.465 1.32 1.29c.32.55.48 1.17.48 1.88s-.16 1.32-.47 1.87-.75.97-1.31 1.28-1.2.46-1.93.46Zm0-1.7c.36 0 .68-.08.95-.25.27-.16.49-.39.64-.67.15-.29.23-.62.23-.99s-.08-.71-.24-1-.37-.52-.65-.68-.59-.25-.95-.25-.67.08-.95.25c-.28.16-.49.39-.65.68s-.23.62-.23 1 .08.7.24.99.38.51.66.67.59.25.96.25Zm2.41 2.02-2.65-2.7 1.17-1.11 2.63 2.69z" fill="#fffdf0"/>
        <path d="M102.18 17.37c-.62 0-1.15-.11-1.6-.34a2.4 2.4 0 0 1-1.03-.98c-.24-.42-.36-.93-.36-1.51v-4.29h1.85v4.29c0 .23.05.43.14.6s.22.29.39.38.38.13.62.13.45-.04.62-.13.3-.21.39-.38.13-.37.13-.6v-4.29h1.85v4.29c0 .59-.12 1.09-.36 1.51s-.59.75-1.04.98-.99.34-1.62.34Z" fill="#fffdf0"/>
        <path d="M106.3 17.25v-7h1.85v7z" fill="#fffdf0"/>
        <path d="M109.35 17.25v-7h1.85v5.3h2.88v1.7z" fill="#fffdf0"/>
        <path d="m114.84 9.74 1.1-1.39h1.9l-1.3 1.39zm.04 7.51v-7h1.85v7z" fill="#fffdf0"/>
        <path d="M117.93 17.25v-7h2.52c.49 0 .92.07 1.29.22s.67.37.88.68.32.7.32 1.17q0 .315-.18.63c-.12.21-.29.4-.5.57.31.17.54.39.71.66s.25.6.25 1c0 .45-.1.83-.31 1.13-.21.31-.49.54-.86.71s-.78.24-1.26.24h-2.87Zm1.8-4.35h.59c.21 0 .39-.05.52-.16s.2-.26.2-.45-.07-.34-.2-.45-.31-.16-.52-.16h-.59zm0 2.72h.85c.22 0 .39-.06.53-.18.13-.12.19-.27.19-.46s-.06-.34-.19-.45a.8.8 0 0 0-.53-.17h-.85v1.25Z" fill="#fffdf0"/>
        <path d="M124.07 17.25v-7h2.9c.53 0 .99.1 1.4.3s.72.48.96.84c.23.36.35.77.35 1.24s-.12.88-.35 1.25-.55.65-.96.85-.87.31-1.4.31h-1.05v2.22h-1.85Zm1.85-3.92h.95c.17 0 .31-.03.44-.09a.68.68 0 0 0 .41-.61c0-.2-.08-.37-.23-.5s-.36-.19-.62-.19h-.95zm1.91 3.92-1.56-2.75 1.39-1.04 2.29 3.79z" fill="#fffdf0"/>
        <path d="M130.7 17.25v-7h1.85v7z" fill="#fffdf0"/>
        <path d="M137.15 17.37c-.73 0-1.38-.16-1.95-.46-.56-.31-1-.74-1.32-1.28s-.48-1.17-.48-1.87.16-1.33.48-1.88c.32-.54.76-.97 1.32-1.28s1.2-.47 1.93-.47 1.38.16 1.94.47 1 .74 1.32 1.28.48 1.17.48 1.88-.16 1.32-.47 1.87-.76.97-1.32 1.28-1.2.46-1.93.46m0-1.7c.36 0 .68-.08.95-.25.27-.16.49-.39.64-.67.15-.29.23-.62.23-.99s-.08-.71-.23-1-.37-.52-.65-.68-.6-.25-.96-.25-.67.08-.95.25-.49.39-.65.68-.23.62-.23 1 .08.7.24.99.38.51.65.67c.28.16.6.25.96.25" fill="#fffdf0"/>
        <path d="M144.02 17.25v-7h1.85v7z" fill="#fffdf0"/>
        <path d="M147.07 17.25v-7h1.95l2.73 3.85v-3.85h1.85v7h-1.85l-2.83-3.99v3.99z" fill="#fffdf0"/>
        <path d="M156.35 17.25v-5.3h-1.98v-1.7h5.8v1.7h-1.97v5.3z" fill="#fffdf0"/>
        <path d="M160.94 17.25v-7h4.69v1.7h-2.84v.97h2.3v1.65h-2.3v.98h2.91v1.7z" fill="#fffdf0"/>
        <path d="M169.25 17.37c-.33 0-.65-.04-.96-.13s-.6-.22-.85-.38a2.7 2.7 0 0 1-.64-.54c-.17-.2-.27-.42-.3-.65l1.84-.51c.06.17.16.31.31.42.15.12.34.18.57.2a.8.8 0 0 0 .5-.15q.21-.165.21-.42 0-.165-.12-.33c-.12-.165-.21-.18-.39-.22l-1.05-.27c-.36-.09-.67-.24-.92-.43-.26-.19-.46-.43-.59-.71s-.2-.59-.2-.94c0-.69.23-1.22.68-1.6s1.1-.58 1.93-.58c.44 0 .83.06 1.16.17q.51.165.87.54c.24.24.45.56.61.96l-1.83.53a.9.9 0 0 0-.26-.4c-.14-.13-.32-.2-.55-.2s-.4.05-.53.15a.55.55 0 0 0-.19.44c0 .12.05.23.15.32s.24.16.43.21l1.06.27c.53.13.95.4 1.25.79s.45.83.45 1.33c0 .46-.1.85-.31 1.17s-.51.56-.9.73-.86.25-1.41.25Z" fill="#fffdf0"/>
        <path d="M174.35 17.25v-5.3h-1.98v-1.7h5.8v1.7h-1.97v5.3z" fill="#fffdf0"/>
        <path d="M178.94 17.25v-7h1.85v7z" fill="#fffdf0"/>
        <path d="M181.99 17.25v-7h1.95l2.73 3.85v-3.85h1.85v7h-1.85l-2.83-3.99v3.99z" fill="#fffdf0"/>
        <path d="m189.19 17.25 2.68-7h1.84l-2.56 7zm1.26-1.12V14.5h4.84v1.63zm4.13 1.12-2.56-7h1.84l2.68 7z" fill="#fffdf0"/>
        <path d="M197.21 17.25v-7h1.85v5.3h2.88v1.7z" fill="#fffdf0"/>
        <path d="M88.78 28.87c-.67 0-1.27-.15-1.79-.46s-.93-.73-1.22-1.28-.44-1.17-.44-1.88.14-1.34.43-1.88.69-.97 1.21-1.28c.51-.31 1.11-.46 1.78-.46s1.27.16 1.79.46c.52.31.92.74 1.21 1.28s.43 1.17.43 1.88-.14 1.33-.43 1.88-.69.97-1.2 1.28-1.1.46-1.77.46m0-.77c.49 0 .93-.12 1.31-.36s.68-.58.9-1c.22-.43.33-.92.33-1.48s-.11-1.04-.33-1.47-.52-.77-.91-1.01-.83-.36-1.33-.36-.94.12-1.33.36-.69.58-.91 1.01q-.33.645-.33 1.47c0 .825.11 1.05.33 1.48s.53.76.92 1 .84.36 1.35.36" fill="#fffdf0"/>
        <path d="M95.85 30.75v-7h.75l.05.92v6.08zm2.49-1.88q-.63 0-1.11-.33c-.48-.33-.56-.53-.73-.92-.17-.4-.26-.85-.26-1.37s.09-.98.26-1.37.42-.7.73-.92.69-.33 1.11-.33c.45 0 .84.11 1.18.33s.61.53.79.92.29.85.29 1.37-.1.97-.29 1.37-.46.71-.79.92-.73.33-1.18.33m-.18-.73q.465 0 .84-.24c.24-.16.44-.38.58-.67s.21-.61.21-.99-.07-.69-.21-.98-.33-.51-.57-.67-.53-.24-.84-.24c-.29 0-.56.08-.79.24s-.41.38-.54.67c-.13.28-.2.61-.2.99s.07.69.2.98.31.51.54.67q.345.24.78.24" fill="#fffdf0"/>
        <path d="M101.71 28.75v-5h.8v5zm.44-2.71c0-.54.1-.98.31-1.32s.47-.59.79-.75.67-.24 1.03-.24v.75c-.29 0-.57.05-.85.14-.27.1-.49.25-.66.47s-.26.52-.26.9l-.36.04Z" fill="#fffdf0"/>
        <path d="M107.28 28.87q-.735 0-1.29-.33c-.37-.22-.66-.53-.88-.92-.21-.39-.31-.85-.31-1.36s.11-.97.31-1.36c.21-.39.5-.7.87-.92s.79-.33 1.28-.33.87.12 1.21.34c.34.23.6.55.79.97.19.41.28.9.28 1.46h-4.13l.2-.17c0 .4.07.74.21 1.03s.35.5.61.66.56.22.89.22c.35 0 .65-.08.9-.25.24-.17.43-.39.56-.66l.69.35c-.13.26-.29.49-.5.68s-.46.34-.74.45-.6.16-.95.16Zm-1.62-2.98-.21-.16h3.45l-.21.17c0-.32-.06-.6-.19-.83q-.195-.345-.51-.54c-.21-.13-.46-.19-.74-.19s-.53.06-.78.19c-.24.13-.44.3-.59.54-.15.23-.23.5-.23.82Z" fill="#fffdf0"/>
        <path d="M110.55 28.75v-7h.8v6.07l-.04.93zm2.49.12q-.63 0-1.11-.33c-.48-.33-.56-.53-.73-.92s-.26-.85-.26-1.37.09-.98.26-1.37.42-.7.73-.92.69-.33 1.11-.33c.45 0 .84.11 1.18.33s.61.53.79.92c.19.39.29.85.29 1.37s-.09.97-.29 1.37c-.19.4-.46.71-.79.92s-.73.33-1.18.33m-.18-.73c.31 0 .59-.08.83-.24s.44-.38.58-.67q.21-.42.21-.99c0-.57-.07-.69-.21-.98s-.33-.51-.57-.67-.53-.24-.85-.24c-.29 0-.55.08-.79.24-.23.16-.41.38-.54.67-.13.28-.2.61-.2.99s.06.69.2.98c.13.29.31.51.54.67q.345.24.78.24Z" fill="#fffdf0"/>
        <path d="M116.87 22.59c-.13 0-.25-.05-.35-.15a.485.485 0 0 1 0-.7.49.49 0 0 1 .71 0c.1.1.14.21.14.35s-.05.25-.14.35c-.1.1-.21.15-.36.15m-.41 6.16v-5h.8v5z" fill="#fffdf0"/>
        <path d="M120.95 28.87c-.49 0-.93-.11-1.3-.33-.38-.22-.67-.53-.88-.92s-.32-.85-.32-1.36.11-.97.31-1.36c.21-.39.5-.7.88-.92q.57-.33 1.29-.33c.72 0 .92.11 1.29.33.38.22.67.53.88.92s.31.85.31 1.36-.11.97-.31 1.36c-.21.39-.5.7-.88.92s-.8.33-1.28.33Zm-.01-.74q.495 0 .87-.24c.25-.16.45-.38.59-.67.14-.28.21-.61.21-.97s-.07-.69-.21-.97-.34-.51-.6-.67c-.25-.16-.54-.24-.88-.24s-.62.08-.87.24-.45.38-.59.66-.21.61-.21.98.07.69.21.97.34.51.6.67.55.24.88.24m-.7-5.09 1.17-1.29h1.03l-1.29 1.29z" fill="#fffdf0"/>
        <path d="M124.01 24.46v-.71h3.17v.71zm2.4 4.41c-.49 0-.86-.13-1.13-.38s-.4-.61-.4-1.07v-5.23h.8v5.15c0 .25.07.45.21.58s.33.21.57.21c.08 0 .16-.01.24-.04.08-.02.18-.08.3-.17l.31.65c-.17.11-.33.19-.47.23s-.28.07-.43.07" fill="#fffdf0"/>
        <path d="M128.77 22.59c-.13 0-.25-.05-.35-.15a.485.485 0 0 1 0-.7.49.49 0 0 1 .71 0c.1.1.14.21.14.35s-.05.25-.14.35c-.1.1-.21.15-.36.15m-.41 6.16v-5h.8v5z" fill="#fffdf0"/>
        <path d="M132.86 28.87c-.49 0-.93-.11-1.31-.33s-.68-.53-.89-.92-.32-.85-.32-1.36.11-.97.31-1.36c.21-.39.51-.7.89-.92s.81-.33 1.3-.33.91.11 1.29.33q.57.33.87.93l-.73.33c-.13-.27-.33-.47-.58-.62s-.54-.22-.87-.22-.62.08-.87.24-.45.38-.59.67-.21.61-.21.97.07.69.21.97.34.51.6.67.55.24.88.24.62-.08.88-.25.45-.4.59-.7l.73.33c-.2.43-.49.76-.87 1s-.81.36-1.3.36Z" fill="#fffdf0"/>
        <path d="M138.26 28.87c-.49 0-.93-.11-1.3-.33-.38-.22-.67-.53-.88-.92s-.32-.85-.32-1.36.11-.97.31-1.36c.21-.39.5-.7.88-.92q.57-.33 1.29-.33c.72 0 .92.11 1.29.33.38.22.67.53.88.92s.31.85.31 1.36-.11.97-.31 1.36c-.21.39-.5.7-.88.92s-.8.33-1.28.33Zm-.01-.74q.495 0 .87-.24c.25-.16.45-.38.59-.67.14-.28.21-.61.21-.97s-.07-.69-.21-.97-.34-.51-.6-.67c-.25-.16-.54-.24-.88-.24s-.62.08-.87.24-.45.38-.59.66-.21.61-.21.98.07.69.21.97.34.51.6.67.55.24.88.24" fill="#fffdf0"/>
        <path d="M144.54 28.75v-7h.88l2.42 3.58 2.42-3.58h.87v7h-.84v-5.64l-2.45 3.65-2.45-3.63v5.62z" fill="#fffdf0"/>
        <path d="M155.98 28.87c-.67 0-1.27-.15-1.79-.46s-.93-.73-1.22-1.28-.44-1.17-.44-1.88.15-1.34.44-1.88.69-.97 1.21-1.28 1.11-.46 1.78-.46 1.27.16 1.79.46c.52.31.92.74 1.21 1.28s.43 1.17.43 1.88-.14 1.33-.43 1.88-.69.97-1.2 1.28-1.1.46-1.76.46Zm0-.77c.49 0 .93-.12 1.31-.36s.68-.58.9-1c.22-.43.32-.92.32-1.48s-.11-1.04-.33-1.47-.52-.77-.91-1.01-.83-.36-1.33-.36-.94.12-1.33.36-.69.58-.91 1.01q-.33.645-.33 1.47c0 .825.11 1.05.33 1.48s.53.76.92 1q.585.36 1.35.36Z" fill="#fffdf0"/>
        <path d="M163 28.87c-.39 0-.73-.04-1.03-.12s-.56-.2-.78-.35-.4-.32-.54-.5-.24-.38-.31-.58l.81-.28c.1.29.3.55.6.76.3.22.68.33 1.12.33.54 0 .96-.11 1.27-.32s.46-.5.46-.85c0-.33-.14-.59-.41-.79s-.63-.36-1.08-.48l-.77-.2q-.465-.12-.87-.36c-.405-.24-.47-.36-.63-.6s-.23-.54-.23-.88c0-.63.21-1.13.62-1.49s1-.54 1.78-.54c.46 0 .86.08 1.19.23s.61.34.81.57q.315.345.45.75l-.8.28c-.13-.33-.34-.59-.64-.79s-.66-.29-1.09-.29c-.45 0-.8.11-1.06.33s-.4.51-.4.88c0 .32.1.57.31.74s.48.29.81.38l.77.19c.68.16 1.2.43 1.56.79q.54.555.54 1.2c0 .37-.09.7-.28 1s-.46.54-.82.72c-.37.18-.82.26-1.36.26Z" fill="#fffdf0"/>
        <path d="M171.33 28.87q-.735 0-1.29-.33c-.37-.22-.67-.53-.88-.92s-.31-.85-.31-1.36.1-.97.31-1.36.5-.7.87-.92.79-.33 1.28-.33.87.12 1.21.34c.34.23.6.55.79.97.19.41.28.9.28 1.46h-4.13l.2-.17c0 .4.07.74.21 1.03s.35.5.61.66.56.22.89.22c.35 0 .65-.08.89-.25s.43-.39.56-.66l.69.35c-.13.26-.29.49-.51.68-.21.19-.46.34-.74.45s-.6.16-.95.16Zm-1.62-2.98-.21-.16h3.45l-.21.17c0-.32-.06-.6-.19-.83s-.3-.41-.51-.54-.46-.19-.74-.19-.53.06-.78.19c-.24.13-.44.3-.59.54-.15.23-.22.5-.22.82" fill="#fffdf0"/>
        <path d="M178.65 28.87c-.59 0-1.04-.13-1.38-.41-.33-.27-.49-.64-.49-1.12 0-.51.17-.89.5-1.17.34-.27.81-.41 1.42-.41h1.43v.67h-1.25c-.47 0-.8.08-1 .23s-.29.37-.29.66c0 .26.1.46.29.62.19.15.46.22.81.22q.435 0 .75-.18c.21-.12.38-.3.49-.53.12-.23.18-.5.18-.82h.34c0 .68-.15 1.22-.46 1.62s-.75.61-1.34.61Zm1.5-.12-.04-.82v-1.82c0-.39-.04-.72-.13-.98s-.22-.45-.41-.58-.43-.2-.73-.2c-.27 0-.51.06-.71.17s-.36.29-.48.53l-.72-.28c.13-.23.28-.43.46-.6s.39-.3.63-.39.51-.13.82-.13c.47 0 .85.09 1.16.28.3.18.53.45.68.81s.23.8.22 1.33v2.71h-.75Z" fill="#fffdf0"/>
        <path d="M183.92 28.87c-.37 0-.69-.05-.96-.17s-.5-.25-.69-.44c-.18-.18-.31-.38-.39-.59l.7-.29c.11.23.28.41.51.55q.345.21.75.21c.31 0 .58-.06.79-.19.21-.12.32-.3.32-.52 0-.21-.08-.37-.24-.5s-.39-.23-.7-.31l-.48-.13c-.46-.12-.81-.3-1.06-.54s-.38-.52-.38-.83c0-.47.16-.84.46-1.1.31-.26.77-.4 1.39-.4.29 0 .56.04.8.13s.45.21.62.37.3.34.38.55l-.7.31a.87.87 0 0 0-.43-.49c-.2-.1-.44-.15-.73-.15-.31 0-.55.07-.72.2s-.26.31-.26.54c0 .13.07.26.21.38s.36.21.63.29l.5.13c.33.08.6.2.82.36s.39.33.5.53.17.41.17.64q0 .45-.24.78c-.16.22-.38.39-.65.5-.27.12-.59.17-.94.17Z" fill="#fffdf0"/>
        <path d="M188.88 24.44v-.69h3.17v.69zm.92 4.31v-5.57c0-.52.12-.91.37-1.17q.36-.39 1.11-.39c.13 0 .28.02.45.07s.34.11.53.2l-.3.63c-.15-.06-.29-.11-.39-.14-.11-.03-.2-.05-.27-.05-.23 0-.41.07-.53.22s-.18.38-.18.7v5.51h-.8Z" fill="#fffdf0"/>
        <path d="M193.45 22.59c-.13 0-.25-.05-.35-.15a.485.485 0 0 1 0-.7.49.49 0 0 1 .71 0c.1.1.14.21.14.35s-.05.25-.14.35c-.1.1-.21.15-.36.15m-.41 6.16v-5h.8v5z" fill="#fffdf0"/>
        <path d="M195.31 28.75v-7h.8v6.07l-.04.93zm2.49.12q-.63 0-1.11-.33c-.48-.33-.56-.53-.74-.92-.17-.4-.26-.85-.26-1.37s.09-.98.26-1.37.42-.7.74-.92.68-.33 1.11-.33c.45 0 .84.11 1.18.33s.6.53.79.92.29.85.29 1.37-.1.97-.29 1.37-.46.71-.79.92-.73.33-1.18.33m-.18-.73q.465 0 .84-.24c.24-.16.44-.38.58-.67q.21-.42.21-.99c0-.57-.07-.69-.21-.98s-.33-.51-.57-.67-.53-.24-.85-.24q-.435 0-.78.24c-.23.16-.41.38-.54.67-.13.28-.2.61-.2.99s.07.69.2.98.31.51.54.67q.345.24.78.24" fill="#fffdf0"/>
        <path d="M201.17 28.75v-5h.8v5zm.44-2.71c0-.54.1-.98.31-1.32s.47-.59.79-.75.67-.24 1.03-.24v.75c-.29 0-.57.05-.85.14-.27.1-.49.25-.66.47s-.26.52-.26.9l-.36.04Z" fill="#fffdf0"/>
        <path d="M206.13 28.87c-.59 0-1.04-.13-1.38-.41-.33-.27-.5-.64-.5-1.12 0-.51.17-.89.51-1.17.34-.27.81-.41 1.41-.41h1.43v.67h-1.25c-.47 0-.8.08-.99.23s-.29.37-.29.66c0 .26.1.46.29.62.19.15.46.22.81.22q.435 0 .75-.18c.21-.12.38-.3.5-.53s.17-.5.17-.82h.34c0 .68-.15 1.22-.46 1.62s-.75.61-1.34.61Zm1.5-.12-.04-.82v-1.82c0-.39-.04-.72-.13-.98s-.22-.45-.41-.58-.43-.2-.73-.2c-.27 0-.51.06-.71.17s-.36.29-.48.53l-.72-.28c.13-.23.28-.43.46-.6q.27-.255.63-.39c.24-.09.51-.13.82-.13.47 0 .85.09 1.15.28q.45.27.69.81c.15.36.23.8.22 1.33v2.71h-.75Z" fill="#fffdf0"/>
        <path d="M211.4 28.87c-.37 0-.69-.05-.96-.17s-.5-.25-.69-.44c-.18-.18-.31-.38-.39-.59l.7-.29c.11.23.28.41.51.55q.345.21.75.21c.31 0 .58-.06.79-.19.21-.12.32-.3.32-.52 0-.21-.08-.37-.23-.5-.16-.13-.39-.23-.7-.31l-.48-.13c-.45-.12-.81-.3-1.06-.54s-.38-.52-.38-.83c0-.47.15-.84.46-1.1s.77-.4 1.38-.4c.29 0 .56.04.8.13s.45.21.62.37.3.34.38.55l-.7.31c-.09-.23-.23-.39-.43-.49s-.44-.15-.73-.15c-.31 0-.55.07-.72.2s-.26.31-.26.54c0 .13.07.26.21.38s.35.21.63.29l.5.13c.33.08.6.2.82.36s.38.33.5.53c.11.2.17.41.17.64q0 .45-.24.78c-.16.22-.38.39-.65.5-.27.12-.59.17-.94.17Z" fill="#fffdf0"/>
        <path d="M85.15 35.94v-.69h3.17v.69zm.92 4.31v-5.57c0-.52.12-.91.37-1.17q.36-.39 1.11-.39c.13 0 .28.02.45.07s.34.11.53.2l-.3.63c-.15-.06-.29-.11-.39-.14-.11-.03-.2-.05-.27-.05-.23 0-.41.07-.53.22s-.18.38-.18.7v5.51h-.8Z" fill="#fffdf0"/>
        <path d="M89.13 37.81v-2.56h.8v2.56zm.8 0c0 .49.06.87.17 1.13s.27.44.47.53q.3.15.69.15c.43 0 .77-.16 1.01-.47s.37-.75.37-1.31h.39c0 .53-.08.98-.23 1.36s-.38.67-.66.87c-.29.2-.65.3-1.07.3q-.585 0-1.02-.24c-.29-.16-.52-.41-.68-.75s-.24-.79-.24-1.33v-.24zm2.76 2.44-.05-.92v-4.08h.8v5z" fill="#fffdf0"/>
        <path d="M94.84 40.25v-5h.75l.05.92v4.08zm3.51-2.56c0-.49-.06-.87-.17-1.13s-.27-.44-.47-.53-.43-.15-.68-.15c-.44 0-.78.16-1.03.46-.24.31-.37.75-.37 1.32h-.39c0-.53.08-.98.23-1.36s.38-.67.67-.87.65-.3 1.06-.3c.39 0 .73.08 1.03.24.29.16.52.4.68.75.16.34.24.79.23 1.34v.24h-.8Zm0 2.56v-2.56h.8v2.56z" fill="#fffdf0"/>
        <path d="M102.65 40.37c-.49 0-.93-.11-1.31-.33s-.68-.53-.89-.92-.32-.85-.32-1.36.11-.97.31-1.36c.21-.39.51-.7.89-.92s.81-.33 1.3-.33.91.11 1.29.33q.57.33.87.93l-.73.33c-.13-.27-.33-.47-.58-.62s-.54-.22-.87-.22-.62.08-.87.24-.45.38-.59.67-.21.61-.21.97.07.69.21.97.34.51.6.67.55.24.88.24.62-.08.88-.25.45-.4.59-.7l.73.33c-.2.43-.49.76-.87 1s-.81.36-1.3.36Z" fill="#fffdf0"/>
        <path d="M106.29 34.09c-.13 0-.25-.05-.35-.15a.485.485 0 0 1 0-.7.49.49 0 0 1 .71 0c.1.1.14.21.14.35s-.05.25-.14.35c-.1.1-.21.15-.36.15m-.41 6.16v-5h.8v5z" fill="#fffdf0"/>
        <path d="M110.37 40.37c-.49 0-.93-.11-1.3-.33-.38-.22-.67-.53-.88-.92s-.32-.85-.32-1.36.11-.97.31-1.36c.21-.39.5-.7.88-.92q.57-.33 1.29-.33c.72 0 .92.11 1.29.33.38.22.67.53.88.92s.31.85.31 1.36-.11.97-.31 1.36c-.21.39-.5.7-.88.92s-.8.33-1.28.33Zm-.01-.74q.495 0 .87-.24c.25-.16.45-.38.59-.67.14-.28.21-.61.21-.97s-.07-.69-.21-.97-.34-.51-.6-.67c-.25-.16-.54-.24-.88-.24s-.62.08-.87.24-.45.38-.59.66-.21.61-.21.98.07.69.21.97.34.51.6.67.55.24.88.24" fill="#fffdf0"/>
        <path d="M113.95 40.25v-5h.75l.05.92v4.08zm3.51-2.56c0-.49-.06-.87-.17-1.13s-.27-.44-.47-.53c-.2-.1-.43-.15-.68-.15-.44 0-.78.16-1.02.46-.24.31-.37.75-.37 1.32h-.39c0-.53.08-.98.23-1.36s.38-.67.67-.87.65-.3 1.06-.3q.585 0 1.02.24c.29.16.52.4.68.75.16.34.24.79.23 1.34v.24h-.8Zm0 2.56v-2.56h.8v2.56z" fill="#fffdf0"/>
        <path d="M121.11 40.37c-.59 0-1.04-.13-1.38-.41-.33-.27-.49-.64-.49-1.12 0-.51.17-.89.5-1.17.34-.27.81-.41 1.42-.41h1.43v.67h-1.25c-.47 0-.8.08-1 .23s-.29.37-.29.66c0 .26.1.46.29.62.19.15.46.22.81.22q.435 0 .75-.18c.21-.12.38-.3.49-.53.12-.23.18-.5.18-.82h.34c0 .68-.15 1.22-.46 1.62s-.75.61-1.34.61Zm1.5-.12-.04-.82v-1.82c0-.39-.04-.72-.13-.98s-.22-.45-.41-.58-.43-.2-.73-.2c-.27 0-.51.06-.71.17s-.36.29-.48.53l-.72-.28c.13-.23.28-.43.46-.6s.39-.3.63-.39.51-.13.82-.13c.47 0 .85.09 1.16.28.3.18.53.45.68.81s.23.8.22 1.33v2.71h-.75Z" fill="#fffdf0"/>
        <path d="M125.09 34.09c-.13 0-.25-.05-.35-.15a.485.485 0 0 1 0-.7.485.485 0 0 1 .7 0c.1.1.15.21.15.35s-.05.25-.15.35-.21.15-.35.15m-.41 6.16v-5h.8v5z" fill="#fffdf0"/>
        <path d="M128.7 40.37c-.37 0-.69-.05-.96-.17s-.5-.25-.69-.44c-.18-.18-.31-.38-.39-.59l.7-.29c.11.23.28.41.51.55q.345.21.75.21c.31 0 .58-.06.79-.19.21-.12.32-.3.32-.52 0-.21-.08-.37-.24-.5s-.39-.23-.7-.31l-.48-.13c-.46-.12-.81-.3-1.06-.54s-.38-.52-.38-.83c0-.47.16-.84.46-1.1.31-.26.77-.4 1.39-.4.29 0 .56.04.8.13s.45.21.62.37.3.34.38.55l-.7.31a.87.87 0 0 0-.43-.49c-.2-.1-.44-.15-.73-.15-.31 0-.55.07-.72.2s-.26.31-.26.54c0 .13.07.26.21.38s.36.21.63.29l.5.13c.33.08.6.2.82.36s.39.33.5.53.17.41.17.64q0 .45-.24.78c-.16.22-.38.39-.65.5-.27.12-.59.17-.94.17Z" fill="#fffdf0"/>
        <path d="M135.66 40.37c-.59 0-1.04-.13-1.38-.41-.33-.27-.5-.64-.5-1.12 0-.51.17-.89.51-1.17.34-.27.81-.41 1.41-.41h1.43v.67h-1.25c-.47 0-.8.08-.99.23s-.29.37-.29.66c0 .26.1.46.29.62.19.15.46.22.81.22q.435 0 .75-.18c.21-.12.38-.3.5-.53s.17-.5.17-.82h.34c0 .68-.15 1.22-.46 1.62s-.75.61-1.34.61Zm1.5-.12-.04-.82v-1.82c0-.39-.04-.72-.13-.98s-.22-.45-.41-.58-.43-.2-.73-.2c-.27 0-.51.06-.71.17s-.36.29-.48.53l-.72-.28c.13-.23.28-.43.46-.6q.27-.255.63-.39c.24-.09.51-.13.82-.13.47 0 .85.09 1.15.28q.45.27.69.81c.15.36.23.8.22 1.33v2.71h-.75Z" fill="#fffdf0"/>
        <path d="M138.89 42.4c-.25 0-.56-.09-.94-.26l.3-.67c.16.06.3.11.41.14s.2.05.27.05c.45 0 .68-.29.68-.87v-5.54h.8v5.56c0 .52-.13.92-.38 1.19s-.63.41-1.13.41Zm1.11-8.32c-.13 0-.25-.05-.35-.15s-.15-.22-.15-.35a.497.497 0 0 1 .5-.51c.14 0 .26.05.36.14s.15.22.15.37c0 .13-.05.25-.15.35q-.15.15-.36.15" fill="#fffdf0"/>
        <path d="M141.74 37.81v-2.56h.8v2.56zm.8 0c0 .49.06.87.17 1.13s.27.44.47.53c.21.1.43.15.69.15.43 0 .77-.16 1.02-.47.24-.31.37-.75.37-1.31h.39c0 .53-.08.98-.23 1.36s-.38.67-.67.87-.64.3-1.06.3q-.585 0-1.02-.24c-.29-.16-.52-.41-.68-.75s-.24-.79-.24-1.33v-.24h.8Zm2.76 2.44-.05-.92v-4.08h.8v5z" fill="#fffdf0"/>
        <path d="M149.42 40.37c-.45 0-.84-.11-1.18-.33s-.61-.53-.79-.92c-.19-.4-.29-.85-.29-1.37s.09-.98.29-1.37c.19-.39.46-.7.79-.92s.73-.33 1.18-.33q.63 0 1.11.33c.32.22.56.53.73.92s.26.85.26 1.37-.09.97-.26 1.37-.42.71-.73.92q-.48.33-1.11.33m.18-.73q.435 0 .78-.24c.23-.16.41-.38.54-.67s.2-.61.2-.98-.06-.69-.2-.98c-.13-.29-.31-.51-.54-.67s-.49-.24-.79-.24q-.465 0-.84.24c-.24.16-.43.38-.57.67s-.21.61-.21.98.07.69.21.98.33.51.58.67q.375.24.84.24m1.55.61-.04-.93v-6.07h.8v7z" fill="#fffdf0"/>
        <path d="M154.89 40.37c-.59 0-1.04-.13-1.38-.41-.33-.27-.5-.64-.5-1.12 0-.51.17-.89.51-1.17.34-.27.81-.41 1.41-.41h1.43v.67h-1.25c-.47 0-.8.08-.99.23s-.29.37-.29.66c0 .26.1.46.29.62.19.15.46.22.81.22q.435 0 .75-.18c.21-.12.38-.3.5-.53s.17-.5.17-.82h.34c0 .68-.15 1.22-.46 1.62s-.75.61-1.34.61Zm1.5-.12-.04-.82v-1.82c0-.39-.04-.72-.13-.98s-.22-.45-.41-.58-.43-.2-.73-.2c-.27 0-.51.06-.71.17s-.36.29-.48.53l-.72-.28c.13-.23.28-.43.46-.6q.27-.255.63-.39c.24-.09.51-.13.82-.13.47 0 .85.09 1.15.28q.45.27.69.81c.15.36.23.8.22 1.33v2.71h-.75Z" fill="#fffdf0"/>
        <path d="M158.41 40.25v-5h.75l.04.7c.15-.27.35-.47.59-.61q.36-.21.84-.21c.4 0 .74.09 1.03.28s.49.47.62.85c.14-.37.35-.65.62-.84s.59-.29.96-.29c.56 0 1 .19 1.32.56s.48.94.48 1.7v2.86h-.8v-2.56c0-.49-.05-.87-.15-1.13s-.24-.44-.42-.53-.37-.15-.6-.15c-.39 0-.7.16-.92.46q-.33.465-.33 1.32v2.59h-.8v-2.56c0-.49-.05-.87-.15-1.13s-.24-.44-.42-.53c-.18-.1-.38-.15-.61-.15-.39 0-.69.16-.91.46q-.33.465-.33 1.32v2.59h-.8Z" fill="#fffdf0"/>
        <path d="M170.97 40.37c-.59 0-1.04-.13-1.38-.41-.33-.27-.49-.64-.49-1.12 0-.51.17-.89.5-1.17.34-.27.81-.41 1.42-.41h1.43v.67h-1.25c-.47 0-.8.08-1 .23s-.29.37-.29.66c0 .26.1.46.29.62.19.15.46.22.81.22q.435 0 .75-.18c.21-.12.38-.3.49-.53.12-.23.18-.5.18-.82h.34c0 .68-.15 1.22-.46 1.62s-.75.61-1.34.61Zm1.5-.12-.04-.82v-1.82c0-.39-.04-.72-.13-.98s-.22-.45-.41-.58-.43-.2-.73-.2c-.27 0-.51.06-.71.17s-.36.29-.48.53l-.72-.28c.13-.23.28-.43.46-.6s.39-.3.63-.39.51-.13.82-.13c.47 0 .85.09 1.16.28.3.18.53.45.68.81s.23.8.22 1.33v2.71h-.75Z" fill="#fffdf0"/>
        <path d="M176.96 40.25v-5h.75l.04.7c.15-.27.35-.47.59-.61q.36-.21.84-.21c.4 0 .74.09 1.03.28s.49.47.62.85c.14-.37.35-.65.62-.84s.59-.29.96-.29c.56 0 1 .19 1.32.56s.48.94.48 1.7v2.86h-.8v-2.56c0-.49-.05-.87-.15-1.13s-.24-.44-.42-.53-.37-.15-.6-.15c-.39 0-.7.16-.92.46q-.33.465-.33 1.32v2.59h-.8v-2.56c0-.49-.05-.87-.15-1.13s-.24-.44-.42-.53c-.18-.1-.38-.15-.61-.15-.39 0-.69.16-.91.46q-.33.465-.33 1.32v2.59h-.8Z" fill="#fffdf0"/>
        <path d="M187.05 40.37c-.59 0-1.04-.13-1.38-.41-.33-.27-.5-.64-.5-1.12 0-.51.17-.89.51-1.17.34-.27.81-.41 1.41-.41h1.43v.67h-1.25c-.47 0-.8.08-.99.23s-.29.37-.29.66c0 .26.1.46.29.62.19.15.46.22.81.22q.435 0 .75-.18c.21-.12.38-.3.5-.53s.17-.5.17-.82h.34c0 .68-.15 1.22-.46 1.62s-.75.61-1.34.61Zm1.5-.12-.04-.82v-1.82c0-.39-.04-.72-.13-.98s-.22-.45-.41-.58-.43-.2-.73-.2c-.27 0-.51.06-.71.17s-.36.29-.48.53l-.72-.28c.13-.23.28-.43.46-.6q.27-.255.63-.39c.24-.09.51-.13.82-.13.47 0 .85.09 1.15.28q.45.27.69.81c.15.36.23.8.22 1.33v2.71h-.75Z" fill="#fffdf0"/>
        <path d="M190.57 40.25v-5h.75l.05.92v4.08zm3.51-2.56c0-.49-.06-.87-.17-1.13s-.27-.44-.47-.53-.43-.15-.68-.15c-.44 0-.78.16-1.03.46-.24.31-.37.75-.37 1.32h-.39c0-.53.08-.98.23-1.36s.38-.67.67-.87.65-.3 1.06-.3c.39 0 .73.08 1.03.24.29.16.52.4.68.75.16.34.24.79.23 1.34v.24h-.8Zm0 2.56v-2.56h.8v2.56z" fill="#fffdf0"/>
        <path d="M195.63 35.96v-.71h3.17v.71zm2.4 4.41c-.49 0-.86-.13-1.13-.38s-.4-.61-.4-1.07v-5.23h.8v5.15c0 .25.07.45.21.58s.33.21.58.21c.08 0 .16-.01.23-.04s.18-.08.3-.17l.31.65c-.17.11-.33.19-.47.23s-.28.07-.43.07" fill="#fffdf0"/>
        <path d="M202.09 40.37q-.735 0-1.29-.33c-.37-.22-.66-.53-.88-.92-.21-.39-.31-.85-.31-1.36s.11-.97.31-1.36c.21-.39.5-.7.87-.92s.79-.33 1.28-.33.87.12 1.21.34c.34.23.6.55.79.97.19.41.28.9.28 1.46h-4.13l.2-.17c0 .4.07.74.21 1.03s.35.5.61.66.56.22.89.22c.35 0 .65-.08.9-.25.24-.17.43-.39.56-.66l.69.35c-.13.26-.29.49-.5.68s-.46.34-.74.45-.6.16-.95.16Zm-1.62-2.98-.21-.16h3.45l-.21.17c0-.32-.06-.6-.19-.83q-.195-.345-.51-.54c-.21-.13-.46-.19-.74-.19s-.53.06-.78.19c-.24.13-.44.3-.59.54-.15.23-.23.5-.23.82Z" fill="#fffdf0"/>
        <path d="M205.36 40.25v-5h.8v5zm.44-2.71c0-.54.1-.98.31-1.32s.47-.59.79-.75.67-.24 1.03-.24v.75c-.29 0-.57.05-.85.14-.27.1-.49.25-.66.47s-.26.52-.26.9l-.36.04Z" fill="#fffdf0"/>
        <path d="M87.15 51.87c-.59 0-1.04-.13-1.38-.41-.33-.27-.5-.64-.5-1.12 0-.51.17-.89.51-1.17.34-.27.81-.41 1.41-.41h1.43v.67h-1.25c-.47 0-.8.08-.99.23s-.29.37-.29.66c0 .26.1.46.29.62.19.15.46.22.81.22q.435 0 .75-.18c.21-.12.38-.3.5-.53s.17-.5.17-.82h.34c0 .68-.15 1.22-.46 1.62s-.75.61-1.34.61Zm1.5-.12-.04-.82v-1.82c0-.39-.04-.72-.13-.98s-.22-.45-.41-.58-.43-.2-.73-.2c-.27 0-.51.06-.71.17s-.36.29-.48.53l-.72-.28c.13-.23.28-.43.46-.6q.27-.255.63-.39c.24-.09.51-.13.82-.13.47 0 .85.09 1.15.28q.45.27.69.81c.15.36.23.8.22 1.33v2.71h-.75Z" fill="#fffdf0"/>
        <path d="M92.72 47.44v-.69h3.17v.69zm.92 4.31v-5.57c0-.52.12-.91.37-1.17.24-.26.62-.39 1.12-.39.13 0 .28.02.45.07s.34.11.53.2l-.3.63c-.15-.06-.28-.11-.39-.14s-.2-.05-.27-.05c-.23 0-.41.07-.53.22s-.17.38-.17.7v5.51h-.8Z" fill="#fffdf0"/>
        <path d="M96.83 51.75v-7h.8v7z" fill="#fffdf0"/>
        <path d="M101.25 51.87c-.49 0-.93-.11-1.3-.33-.38-.22-.67-.53-.88-.92s-.32-.85-.32-1.36.11-.97.31-1.36c.21-.39.5-.7.88-.92q.57-.33 1.29-.33c.72 0 .92.11 1.29.33.38.22.67.53.88.92s.31.85.31 1.36-.11.97-.31 1.36c-.21.39-.5.7-.88.92s-.8.33-1.28.33Zm-.01-.74q.495 0 .87-.24c.25-.16.45-.38.59-.67.14-.28.21-.61.21-.97s-.07-.69-.21-.97-.34-.51-.6-.67c-.25-.16-.54-.24-.88-.24s-.62.08-.87.24-.45.38-.59.66-.21.61-.21.98.07.69.21.97.34.51.6.67.55.24.88.24" fill="#fffdf0"/>
        <path d="M104.83 51.75v-5h.8v5zm.44-2.71c0-.54.1-.98.31-1.32s.47-.59.79-.75.67-.24 1.03-.24v.75c-.29 0-.57.05-.85.14-.27.1-.49.25-.66.47s-.26.52-.26.9l-.36.04Z" fill="#fffdf0"/>
        <path d="M109.79 51.87c-.59 0-1.04-.13-1.38-.41-.33-.27-.5-.64-.5-1.12 0-.51.17-.89.51-1.17.34-.27.81-.41 1.41-.41h1.43v.67h-1.25c-.47 0-.8.08-.99.23s-.29.37-.29.66c0 .26.1.46.29.62.19.15.46.22.81.22q.435 0 .75-.18c.21-.12.38-.3.5-.53s.17-.5.17-.82h.34c0 .68-.15 1.22-.46 1.62s-.75.61-1.34.61Zm1.5-.12-.04-.82v-1.82c0-.39-.04-.72-.13-.98s-.22-.45-.41-.58-.43-.2-.73-.2c-.27 0-.51.06-.71.17s-.36.29-.48.53l-.72-.28c.13-.23.28-.43.46-.6q.27-.255.63-.39c.24-.09.51-.13.82-.13.47 0 .85.09 1.15.28q.45.27.69.81c.15.36.23.8.22 1.33v2.71h-.75Z" fill="#fffdf0"/>
        <path d="M116.24 45.59c-.13 0-.25-.05-.35-.15a.485.485 0 0 1 0-.7.485.485 0 0 1 .7 0c.1.1.15.21.15.35s-.05.25-.15.35-.21.15-.35.15m-.41 6.16v-5h.8v5z" fill="#fffdf0"/>
        <path d="M118.1 51.75v-5h.75l.05.92v4.08zm3.51-2.56c0-.49-.06-.87-.17-1.13s-.27-.44-.47-.53c-.2-.1-.43-.15-.68-.15-.44 0-.78.16-1.02.46-.24.31-.37.75-.37 1.32h-.39c0-.53.08-.98.23-1.36s.38-.67.67-.87.65-.3 1.06-.3q.585 0 1.02.24c.29.16.52.4.68.75.16.34.24.79.23 1.34v.24h-.8Zm0 2.56v-2.56h.8v2.56z" fill="#fffdf0"/>
        <path d="M123.16 47.46v-.71h3.17v.71zm2.4 4.41c-.49 0-.86-.13-1.13-.38s-.4-.61-.4-1.07v-5.23h.8v5.15c0 .25.07.45.21.58s.33.21.57.21c.08 0 .16-.01.24-.04.08-.02.18-.08.3-.17l.31.65c-.17.11-.33.19-.47.23s-.28.07-.43.07" fill="#fffdf0"/>
        <path d="M129.62 51.87q-.735 0-1.29-.33c-.37-.22-.67-.53-.88-.92s-.31-.85-.31-1.36.1-.97.31-1.36.5-.7.87-.92.79-.33 1.28-.33.87.12 1.21.34c.34.23.6.55.79.97.19.41.28.9.28 1.46h-4.13l.2-.17c0 .4.07.74.21 1.03s.35.5.61.66.56.22.89.22c.35 0 .65-.08.89-.25s.43-.39.56-.66l.69.35c-.13.26-.29.49-.51.68-.21.19-.46.34-.74.45s-.6.16-.95.16ZM128 48.89l-.21-.16h3.45l-.21.17c0-.32-.06-.6-.19-.83s-.3-.41-.51-.54-.46-.19-.74-.19-.53.06-.78.19c-.24.13-.44.3-.59.54-.15.23-.22.5-.22.82" fill="#fffdf0"/>
        <path d="M134.64 51.87c-.37 0-.69-.05-.96-.17s-.5-.25-.69-.44c-.18-.18-.31-.38-.39-.59l.7-.29c.11.23.28.41.51.55q.345.21.75.21c.31 0 .58-.06.79-.19.21-.12.32-.3.32-.52 0-.21-.08-.37-.23-.5-.16-.13-.39-.23-.7-.31l-.48-.13c-.45-.12-.81-.3-1.06-.54s-.38-.52-.38-.83c0-.47.15-.84.46-1.1s.77-.4 1.38-.4c.29 0 .56.04.8.13s.45.21.62.37.3.34.38.55l-.7.31c-.09-.23-.23-.39-.43-.49s-.44-.15-.73-.15c-.31 0-.55.07-.72.2s-.26.31-.26.54c0 .13.07.26.21.38s.35.21.63.29l.5.13c.33.08.6.2.82.36s.38.33.5.53c.11.2.17.41.17.64q0 .45-.24.78c-.16.22-.38.39-.65.5-.27.12-.59.17-.94.17Z" fill="#fffdf0"/>
        <path d="M137.03 47.46v-.71h3.17v.71zm2.4 4.41c-.49 0-.86-.13-1.13-.38s-.4-.61-.4-1.07v-5.23h.8v5.15c0 .25.07.45.21.58s.33.21.58.21c.08 0 .16-.01.23-.04s.18-.08.3-.17l.31.65c-.17.11-.33.19-.47.23s-.28.07-.43.07" fill="#fffdf0"/>
        <path d="M141.79 45.59c-.13 0-.25-.05-.35-.15a.485.485 0 0 1 0-.7.485.485 0 0 1 .7 0c.1.1.15.21.15.35s-.05.25-.15.35-.21.15-.35.15m-.41 6.16v-5h.8v5z" fill="#fffdf0"/>
        <path d="M143.65 51.75v-5h.75l.05.92v4.08zm3.51-2.56c0-.49-.06-.87-.17-1.13s-.27-.44-.47-.53c-.2-.1-.43-.15-.68-.15-.44 0-.78.16-1.02.46-.24.31-.37.75-.37 1.32h-.39c0-.53.08-.98.23-1.36s.38-.67.67-.87.65-.3 1.06-.3q.585 0 1.02.24c.29.16.52.4.68.75.16.34.24.79.23 1.34v.24h-.8Zm0 2.56v-2.56h.8v2.56z" fill="#fffdf0"/>
        <path d="M150.81 51.87c-.59 0-1.04-.13-1.38-.41-.33-.27-.49-.64-.49-1.12 0-.51.17-.89.5-1.17.34-.27.81-.41 1.42-.41h1.43v.67h-1.25c-.47 0-.8.08-1 .23s-.29.37-.29.66c0 .26.1.46.29.62.19.15.46.22.81.22q.435 0 .75-.18c.21-.12.38-.3.49-.53.12-.23.18-.5.18-.82h.34c0 .68-.15 1.22-.46 1.62s-.75.61-1.34.61Zm1.5-.12-.04-.82v-1.82c0-.39-.04-.72-.13-.98s-.22-.45-.41-.58-.43-.2-.73-.2c-.27 0-.51.06-.71.17s-.36.29-.48.53l-.72-.28c.13-.23.28-.43.46-.6s.39-.3.63-.39.51-.13.82-.13c.47 0 .85.09 1.16.28.3.18.53.45.68.81s.23.8.22 1.33v2.71h-.75Z" fill="#fffdf0"/>
        <path d="M154.33 51.75v-7h.8v7z" fill="#fffdf0"/>
        <path d="M161.19 51.87q-.735 0-1.29-.33c-.37-.22-.67-.53-.88-.92s-.31-.85-.31-1.36.1-.97.31-1.36.5-.7.87-.92.79-.33 1.28-.33.87.12 1.21.34c.34.23.6.55.79.97.19.41.28.9.28 1.46h-4.13l.2-.17c0 .4.07.74.21 1.03s.35.5.61.66.56.22.89.22c.35 0 .65-.08.89-.25s.43-.39.56-.66l.69.35c-.13.26-.29.49-.51.68-.21.19-.46.34-.74.45s-.6.16-.95.16Zm-1.62-2.98-.21-.16h3.45l-.21.17c0-.32-.06-.6-.19-.83s-.3-.41-.51-.54-.46-.19-.74-.19-.53.06-.78.19c-.24.13-.44.3-.59.54-.15.23-.22.5-.22.82" fill="#fffdf0"/>
        <path d="M166.43 51.87c-.45 0-.84-.11-1.18-.33s-.61-.53-.79-.92-.29-.85-.29-1.37.1-.98.29-1.37.46-.7.79-.92.73-.33 1.18-.33q.63 0 1.11.33c.48.33.56.53.73.92s.26.85.26 1.37-.09.97-.26 1.37-.42.71-.73.92-.69.33-1.11.33m.18-.73q.435 0 .78-.24c.23-.16.4-.38.54-.67.13-.29.2-.61.2-.98s-.07-.69-.2-.98-.31-.51-.54-.67-.49-.24-.79-.24-.59.08-.83.24-.44.38-.58.67-.21.61-.21.98.07.69.21.98.33.51.58.67q.375.24.84.24m1.51 2.61v-6.07l.04-.93h.76v7z" fill="#fffdf0"/>
        <path d="M170.11 49.31v-2.56h.8v2.56zm.8 0c0 .49.06.87.17 1.13s.27.44.47.53c.21.1.43.15.69.15.43 0 .77-.16 1.02-.47.24-.31.37-.75.37-1.31h.39c0 .53-.08.98-.23 1.36s-.38.67-.67.87-.64.3-1.06.3q-.585 0-1.02-.24c-.29-.16-.52-.41-.68-.75s-.24-.79-.24-1.33v-.24h.8Zm2.76 2.44-.05-.92v-4.08h.8v5z" fill="#fffdf0"/>
        <path d="M176.28 45.59c-.13 0-.25-.05-.35-.15a.485.485 0 0 1 0-.7.485.485 0 0 1 .7 0c.1.1.15.21.15.35s-.05.25-.15.35-.21.15-.35.15m-.41 6.16v-5h.8v5z" fill="#fffdf0"/>
        <path d="M178.14 51.75v-7h.8v7z" fill="#fffdf0"/>
        <path d="M180.8 45.59c-.13 0-.25-.05-.35-.15a.485.485 0 0 1 0-.7.49.49 0 0 1 .71 0c.1.1.14.21.14.35s-.05.25-.14.35c-.1.1-.21.15-.36.15m-.41 6.16v-5h.8v5z" fill="#fffdf0"/>
        <path d="M182.66 51.75v-7h.8v6.07l-.04.93zm2.49.12q-.63 0-1.11-.33c-.48-.33-.56-.53-.74-.92-.17-.4-.26-.85-.26-1.37s.09-.98.26-1.37.42-.7.74-.92.68-.33 1.11-.33c.45 0 .84.11 1.18.33s.6.53.79.92.29.85.29 1.37-.1.97-.29 1.37-.46.71-.79.92-.73.33-1.18.33m-.18-.73q.465 0 .84-.24c.24-.16.44-.38.58-.67q.21-.42.21-.99c0-.57-.07-.69-.21-.98s-.33-.51-.57-.67-.53-.24-.85-.24q-.435 0-.78.24c-.23.16-.41.38-.54.67-.13.28-.2.61-.2.99s.07.69.2.98.31.51.54.67q.345.24.78.24" fill="#fffdf0"/>
        <path d="M188.52 51.75v-5h.8v5zm.44-2.71c0-.54.1-.98.31-1.32s.47-.59.79-.75.67-.24 1.03-.24v.75c-.29 0-.57.05-.85.14-.27.1-.49.25-.66.47s-.26.52-.26.9l-.36.04Z" fill="#fffdf0"/>
        <path d="M193.48 51.87c-.59 0-1.04-.13-1.38-.41-.33-.27-.5-.64-.5-1.12 0-.51.17-.89.51-1.17.34-.27.81-.41 1.41-.41h1.43v.67h-1.25c-.47 0-.8.08-.99.23s-.29.37-.29.66c0 .26.1.46.29.62.19.15.46.22.81.22q.435 0 .75-.18c.21-.12.38-.3.5-.53s.17-.5.17-.82h.34c0 .68-.15 1.22-.46 1.62s-.75.61-1.34.61Zm1.5-.12-.04-.82v-1.82c0-.39-.04-.72-.13-.98s-.22-.45-.41-.58-.43-.2-.73-.2c-.27 0-.51.06-.71.17s-.36.29-.48.53l-.72-.28c.13-.23.28-.43.46-.6q.27-.255.63-.39c.24-.09.51-.13.82-.13.47 0 .85.09 1.15.28q.45.27.69.81c.15.36.23.8.22 1.33v2.71h-.75Z" fill="#fffdf0"/>
        <path d="M198.97 51.87c-.45 0-.84-.11-1.18-.33s-.61-.53-.79-.92-.29-.85-.29-1.37.1-.98.29-1.37.46-.7.79-.92.73-.33 1.18-.33q.63 0 1.11.33c.48.33.56.53.73.92s.26.85.26 1.37-.09.97-.26 1.37-.42.71-.73.92-.69.33-1.11.33m.18-.73q.435 0 .78-.24c.23-.16.4-.38.54-.67.13-.29.2-.61.2-.98s-.07-.69-.2-.98-.31-.51-.54-.67-.49-.24-.79-.24-.59.08-.83.24-.44.38-.58.67-.21.61-.21.98.07.69.21.98.33.51.58.67q.375.24.84.24m1.55.61-.04-.93v-6.07h.8v7z" fill="#fffdf0"/>
        <path d="M204.44 51.87c-.59 0-1.04-.13-1.38-.41-.33-.27-.49-.64-.49-1.12 0-.51.17-.89.5-1.17.34-.27.81-.41 1.42-.41h1.43v.67h-1.25c-.47 0-.8.08-1 .23s-.29.37-.29.66c0 .26.1.46.29.62.19.15.46.22.81.22q.435 0 .75-.18c.21-.12.38-.3.49-.53.12-.23.18-.5.18-.82h.34c0 .68-.15 1.22-.46 1.62s-.75.61-1.34.61Zm1.5-.12-.04-.82v-1.82c0-.39-.04-.72-.13-.98s-.22-.45-.41-.58-.43-.2-.73-.2c-.27 0-.51.06-.71.17s-.36.29-.48.53l-.72-.28c.13-.23.28-.43.46-.6s.39-.3.63-.39.51-.13.82-.13c.47 0 .85.09 1.16.28.3.18.53.45.68.81s.23.8.22 1.33v2.71h-.75Z" fill="#fffdf0"/>
        <path d="M87.76 63.37q-.735 0-1.29-.33c-.37-.22-.66-.53-.88-.92-.21-.39-.31-.85-.31-1.36s.11-.97.31-1.36c.21-.39.5-.7.87-.92s.79-.33 1.28-.33.87.12 1.21.34c.34.23.6.55.79.97.19.41.28.9.28 1.46h-4.13l.2-.17c0 .4.07.74.21 1.03s.35.5.61.66.56.22.89.22c.35 0 .65-.08.9-.25.24-.17.43-.39.56-.66l.69.35c-.13.26-.29.49-.5.68s-.46.34-.74.45-.6.16-.95.16Zm-1.62-2.98-.21-.16h3.45l-.21.17c0-.32-.06-.6-.19-.83q-.195-.345-.51-.54c-.21-.13-.46-.19-.74-.19s-.53.06-.78.19c-.24.13-.44.3-.59.54-.15.23-.23.5-.23.82Z" fill="#fffdf0"/>
        <path d="M95.25 63.37c-.37 0-.69-.05-.96-.17s-.5-.25-.69-.44c-.18-.18-.31-.38-.39-.59l.7-.29c.11.23.28.41.51.55q.345.21.75.21c.31 0 .58-.06.79-.19.21-.12.32-.3.32-.52 0-.21-.08-.37-.23-.5-.16-.13-.39-.23-.7-.31l-.48-.13c-.45-.12-.81-.3-1.06-.54s-.38-.52-.38-.83c0-.47.15-.84.46-1.1s.77-.4 1.38-.4c.29 0 .56.04.8.13s.45.21.62.37.3.34.38.55l-.7.31c-.09-.23-.23-.39-.43-.49s-.44-.15-.73-.15c-.31 0-.55.07-.72.2s-.26.31-.26.54c0 .13.07.26.21.38s.35.21.63.29l.5.13c.33.08.6.2.82.36s.38.33.5.53c.11.2.17.41.17.64q0 .45-.24.78c-.16.22-.38.39-.65.5-.27.12-.59.17-.94.17Z" fill="#fffdf0"/>
        <path d="M99.74 63.37c-.59 0-1.04-.13-1.38-.41-.33-.27-.5-.64-.5-1.12 0-.51.17-.89.51-1.17.34-.27.81-.41 1.41-.41h1.43v.67h-1.25c-.47 0-.8.08-.99.23s-.29.37-.29.66c0 .26.1.46.29.62.19.15.46.22.81.22q.435 0 .75-.18c.21-.12.38-.3.5-.53s.17-.5.17-.82h.34c0 .68-.15 1.22-.46 1.62s-.75.61-1.34.61Zm1.5-.12-.04-.82v-1.82c0-.39-.04-.72-.13-.98s-.22-.45-.41-.58-.43-.2-.73-.2c-.27 0-.51.06-.71.17s-.36.29-.48.53l-.72-.28c.13-.23.28-.43.46-.6q.27-.255.63-.39c.24-.09.51-.13.82-.13.47 0 .85.09 1.15.28q.45.27.69.81c.15.36.23.8.22 1.33v2.71h-.75Z" fill="#fffdf0"/>
        <path d="M103.13 60.81v-2.56h.8v2.56zm.8 0c0 .49.06.87.17 1.13s.27.44.47.53q.3.15.69.15c.43 0 .77-.16 1.01-.47s.37-.75.37-1.31h.39c0 .53-.08.98-.23 1.36s-.38.67-.66.87c-.29.2-.65.3-1.07.3q-.585 0-1.02-.24c-.29-.16-.52-.41-.68-.75s-.24-.79-.24-1.33v-.24zm2.76 2.44-.05-.92v-4.08h.8v5z" fill="#fffdf0"/>
        <path d="M110.81 63.37c-.45 0-.84-.11-1.18-.33s-.61-.53-.79-.92-.29-.85-.29-1.37.1-.98.29-1.37.46-.7.79-.92.73-.33 1.18-.33q.63 0 1.11.33c.48.33.56.53.73.92s.26.85.26 1.37-.09.97-.26 1.37-.42.71-.73.92-.69.33-1.11.33m.18-.73q.435 0 .78-.24c.23-.16.4-.38.54-.67.13-.29.2-.61.2-.98s-.07-.69-.2-.98-.31-.51-.54-.67-.49-.24-.79-.24-.59.08-.83.24-.44.38-.58.67-.21.61-.21.98.07.69.21.98.33.51.58.67q.375.24.84.24m1.55.61-.04-.93v-6.07h.8v7z" fill="#fffdf0"/>
        <path d="M116.28 63.37c-.59 0-1.04-.13-1.38-.41-.33-.27-.49-.64-.49-1.12 0-.51.17-.89.5-1.17.34-.27.81-.41 1.42-.41h1.43v.67h-1.25c-.47 0-.8.08-1 .23s-.29.37-.29.66c0 .26.1.46.29.62.19.15.46.22.81.22q.435 0 .75-.18c.21-.12.38-.3.49-.53.12-.23.18-.5.18-.82h.34c0 .68-.15 1.22-.46 1.62s-.75.61-1.34.61Zm1.5-.12-.04-.82v-1.82c0-.39-.04-.72-.13-.98s-.22-.45-.41-.58-.43-.2-.73-.2c-.27 0-.51.06-.71.17s-.36.29-.48.53l-.72-.28c.13-.23.28-.43.46-.6s.39-.3.63-.39.51-.13.82-.13c.47 0 .85.09 1.16.28.3.18.53.45.68.81s.23.8.22 1.33v2.71h-.75Zm-1.94-5.71 1.17-1.29h1.03l-1.29 1.29z" fill="#fffdf0"/>
        <path d="m121.19 63.25-2.09-5h.83l2.04 5zm.05 0 2.04-5h.84l-2.09 5z" fill="#fffdf0"/>
        <path d="M126.98 63.37q-.735 0-1.29-.33c-.37-.22-.67-.53-.88-.92s-.31-.85-.31-1.36.1-.97.31-1.36.5-.7.87-.92.79-.33 1.28-.33.87.12 1.21.34c.34.23.6.55.79.97.19.41.28.9.28 1.46h-4.13l.2-.17c0 .4.07.74.21 1.03s.35.5.61.66.56.22.89.22c.35 0 .65-.08.89-.25s.43-.39.56-.66l.69.35c-.13.26-.29.49-.51.68-.21.19-.46.34-.74.45s-.6.16-.95.16Zm-1.62-2.98-.21-.16h3.45l-.21.17c0-.32-.06-.6-.19-.83s-.3-.41-.51-.54-.46-.19-.74-.19-.53.06-.78.19c-.24.13-.44.3-.59.54-.15.23-.22.5-.22.82" fill="#fffdf0"/>
        <path d="M130.25 63.25v-7h.8v7z" fill="#fffdf0"/>
        <path d="M132.79 63.39c-.15 0-.29-.05-.39-.17-.11-.11-.16-.24-.16-.38s.05-.29.16-.39c.11-.11.24-.17.39-.17s.28.05.39.17c.11.11.16.24.16.39s-.05.28-.16.38c-.11.11-.24.17-.39.17" fill="#fffdf0"/>
    </g>
</svg>
