<?xml version="1.0" encoding="UTF-8"?>
<svg data-bbox="0.2 0.2 237.251 70.6" viewBox="0 0 237.45 71" xmlns="http://www.w3.org/2000/svg" data-type="ugc">
    <g>
        <path fill="#fffdf0" stroke="#fffdf0" stroke-miterlimit="10" stroke-width=".4" d="M70.8 35.5c0 19.496-15.804 35.3-35.3 35.3S.2 54.996.2 35.5 16.004.2 35.5.2s35.3 15.804 35.3 35.3z"/>
        <g>
            <path d="M35.5 29.28c-.64 0-1.15.51-1.15 1.15 0 4.17-3.39 7.56-7.56 7.56s-7.56-3.39-7.56-7.56c0-.64-.51-1.15-1.15-1.15s-1.15.51-1.15 1.15c0 5.44 4.42 9.86 9.86 9.86s9.86-4.42 9.86-9.86c0-.64-.51-1.15-1.15-1.15" fill="#005f21"/>
            <path d="M52.92 29.28c-.64 0-1.15.51-1.15 1.15 0 4.17-3.39 7.56-7.56 7.56s-7.56-3.39-7.56-7.56c0-.64-.51-1.15-1.15-1.15s-1.15.51-1.15 1.15c0 5.44 4.42 9.86 9.86 9.86s9.86-4.42 9.86-9.86c0-.64-.51-1.15-1.15-1.15" fill="#005f21"/>
            <path d="M43.16 37.93c-.64 0-1.15.51-1.15 1.15v3.22c0 3.59-2.92 6.51-6.51 6.51s-6.51-2.92-6.51-6.51v-3.22c0-.64-.51-1.15-1.15-1.15s-1.15.51-1.15 1.15v3.22c0 4.86 3.95 8.81 8.81 8.81s8.81-3.95 8.81-8.81v-3.22c0-.64-.51-1.15-1.15-1.15" fill="#005f21"/>
            <path d="M35.5 32.13c-.64 0-1.15.51-1.15 1.15v11.39c0 .64.51 1.15 1.15 1.15s1.15-.51 1.15-1.15V33.28c0-.64-.51-1.15-1.15-1.15" fill="#005f21"/>
            <path d="M40.17 22.51h-9.34c-1.77 0-2.71 2.09-1.54 3.42l4.67 5.29c.82.93 2.27.93 3.08 0l4.67-5.29c1.17-1.33.23-3.42-1.54-3.42" fill="#005f21"/>
        </g>
        <path d="M82.35 15.33v-7h2.9c.53 0 .99.1 1.4.31s.72.49.96.86c.23.37.34.79.34 1.27s-.12.91-.34 1.27q-.345.555-.96.87c-.41.21-.87.31-1.4.31H84.2v2.1h-1.85Zm1.85-3.8h1c.25 0 .46-.07.62-.21s.23-.32.23-.55-.08-.4-.23-.54c-.16-.14-.36-.21-.62-.21h-1z" fill="#fffdf1"/>
        <path d="m88.07 15.33 2.68-7h1.84l-2.56 7zm1.26-1.12v-1.63h4.84v1.63zm4.13 1.12-2.56-7h1.84l2.68 7z" fill="#fffdf1"/>
        <path d="M96.09 15.33v-7h1.85v5.3h2.88v1.7z" fill="#fffdf1"/>
        <path d="m101.09 15.33 2.68-7h1.84l-2.56 7zm1.26-1.12v-1.63h4.84v1.63zm4.13 1.12-2.56-7h1.84l2.68 7z" fill="#fffdf1"/>
        <path d="M109.11 15.33v-7h2.34c.77 0 1.44.15 2.03.45s1.05.71 1.39 1.23c.33.52.5 1.13.5 1.81s-.17 1.28-.5 1.81-.79.94-1.39 1.24c-.59.3-1.27.45-2.03.45h-2.34Zm1.85-1.75h.49c.29 0 .56-.04.81-.13s.46-.21.64-.36a1.62 1.62 0 0 0 .57-1.26 1.62 1.62 0 0 0-.57-1.26 2.1 2.1 0 0 0-.64-.36c-.25-.09-.52-.13-.81-.13h-.49z" fill="#fffdf1"/>
        <path d="m115.7 15.33 2.68-7h1.84l-2.56 7zm1.25-1.12v-1.63h4.84v1.63zm4.13 1.12-2.56-7h1.84l2.68 7z" fill="#fffdf1"/>
        <path d="M123.71 15.33v-7h2.9c.53 0 .99.1 1.4.31s.72.48.96.84c.23.36.34.77.34 1.23s-.12.88-.34 1.25c-.23.36-.55.65-.96.85s-.87.3-1.4.3h-1.05v2.22zm1.86-3.92h.95c.17 0 .31-.03.44-.09a.68.68 0 0 0 .41-.61c0-.2-.08-.36-.24-.5-.16-.13-.36-.19-.61-.19h-.95zm1.91 3.92-1.56-2.75 1.39-1.04 2.29 3.79z" fill="#fffdf1"/>
        <path d="M130.34 15.33v-7h4.69v1.7h-2.84V11h2.3v1.65h-2.3v.98h2.91v1.7z" fill="#fffdf1"/>
        <path d="M138.66 15.45a3.1 3.1 0 0 1-.96-.14c-.31-.09-.6-.21-.85-.38a2.7 2.7 0 0 1-.64-.54c-.17-.2-.27-.42-.3-.65l1.84-.51c.06.17.16.31.31.42s.34.18.57.19a.8.8 0 0 0 .5-.15c.14-.11.22-.25.22-.42q0-.165-.12-.33a.7.7 0 0 0-.4-.22l-1.05-.27c-.36-.09-.67-.24-.92-.43-.26-.19-.45-.43-.59-.71s-.2-.59-.2-.94c0-.69.23-1.22.68-1.6s1.1-.58 1.92-.58c.44 0 .83.06 1.17.17q.51.165.87.54c.24.24.45.56.61.96l-1.83.53a.9.9 0 0 0-.25-.4c-.14-.13-.32-.2-.56-.2s-.4.05-.52.15a.55.55 0 0 0-.19.44c0 .12.05.23.15.31.1.09.24.16.43.21l1.06.27c.53.13.95.4 1.25.78.3.39.45.84.45 1.34 0 .46-.1.85-.31 1.17s-.51.56-.91.73-.86.25-1.41.25Z" fill="#fffdf1"/>
        <path d="M144.5 15.33v-7h4.69v1.7h-2.84V11h2.3v1.65h-2.3v.98h2.91v1.7z" fill="#fffdf1"/>
        <path d="m149.87 15.33 2.72-3.82 2.18-3.18h2.21l-2.64 3.6-2.24 3.4zm4.95 0-2.23-3.4-2.65-3.6h2.21l2.19 3.17 2.71 3.83z" fill="#fffdf1"/>
        <path d="M157.75 15.33v-7h1.85v7z" fill="#fffdf1"/>
        <path d="M164.13 15.45c-.72 0-1.36-.16-1.91-.47s-.99-.74-1.3-1.28-.47-1.17-.47-1.88.16-1.33.47-1.88.75-.97 1.3-1.28 1.19-.47 1.91-.47c.47 0 .89.07 1.25.2s.68.31.95.54.49.5.68.79l-1.54.91c-.09-.15-.21-.28-.35-.39s-.3-.2-.47-.27c-.17-.06-.34-.09-.52-.09-.35 0-.65.08-.92.25-.27.16-.48.39-.63.67s-.23.62-.23 1 .07.71.22 1 .36.52.63.69c.28.17.6.25.98.25.27 0 .5-.05.71-.15s.37-.23.49-.41.18-.38.18-.61l1.76-.33c0 .71-.14 1.3-.41 1.77s-.65.83-1.12 1.06-1.03.35-1.66.35Zm-.13-2.64v-1.4h3.32v1.03l-1.05.37z" fill="#fffdf1"/>
        <path d="M168.07 15.33v-7h4.69v1.7h-2.84V11h2.3v1.65h-2.3v.98h2.91v1.7z" fill="#fffdf1"/>
        <path d="M173.93 15.33v-7h1.95l2.73 3.85V8.33h1.85v7h-1.85l-2.83-3.99v3.99z" fill="#fffdf1"/>
        <path d="M183.21 15.33v-5.3h-1.98v-1.7h5.8v1.7h-1.97v5.3z" fill="#fffdf1"/>
        <path d="M187.8 15.33v-7h4.69v1.7h-2.84V11h2.3v1.65h-2.3v.98h2.91v1.7z" fill="#fffdf1"/>
        <path d="M196.11 15.45a3.1 3.1 0 0 1-.96-.14c-.31-.09-.6-.21-.85-.38a2.7 2.7 0 0 1-.64-.54c-.17-.2-.27-.42-.3-.65l1.84-.51c.06.17.16.31.31.42s.34.18.57.19a.8.8 0 0 0 .5-.15c.14-.11.22-.25.22-.42q0-.165-.12-.33a.7.7 0 0 0-.4-.22l-1.05-.27c-.36-.09-.67-.24-.92-.43-.26-.19-.45-.43-.59-.71s-.2-.59-.2-.94c0-.69.23-1.22.68-1.6s1.1-.58 1.92-.58c.44 0 .83.06 1.17.17q.51.165.87.54c.24.24.45.56.61.96l-1.83.53a.9.9 0 0 0-.25-.4c-.14-.13-.32-.2-.56-.2s-.4.05-.52.15a.55.55 0 0 0-.19.44c0 .12.05.23.15.31.1.09.24.16.43.21l1.06.27c.53.13.95.4 1.25.78.3.39.45.84.45 1.34 0 .46-.1.85-.31 1.17s-.51.56-.91.73-.86.25-1.41.25Z" fill="#fffdf1"/>
        <path d="M85.63 26.95c-.67 0-1.26-.16-1.77-.47s-.92-.74-1.21-1.28-.44-1.17-.44-1.88.15-1.33.43-1.88c.29-.54.69-.97 1.2-1.28s1.1-.47 1.75-.47a3.45 3.45 0 0 1 2.25.86c.31.27.54.58.71.94l-.73.37c-.13-.28-.32-.52-.55-.73s-.49-.37-.78-.48q-.435-.18-.9-.18c-.49 0-.92.12-1.31.37-.39.24-.69.58-.91 1s-.33.92-.33 1.48.11 1.06.33 1.49.53.77.92 1.01.83.37 1.33.37c.32 0 .62-.06.91-.2.29-.13.54-.31.78-.53q.345-.345.54-.78l.74.37c-.17.37-.41.69-.71.98s-.65.51-1.04.67-.79.24-1.21.24Z" fill="#fffdf1"/>
        <path d="M91.88 26.95c-.49 0-.93-.11-1.3-.33-.38-.22-.67-.53-.88-.93-.21-.39-.32-.85-.32-1.36s.1-.97.31-1.36.5-.7.88-.93q.57-.33 1.29-.33c.72 0 .92.11 1.29.33.38.22.67.53.88.93.21.39.31.85.31 1.36s-.1.97-.31 1.36-.5.7-.88.93c-.37.22-.8.33-1.28.33Zm-.01-.74q.495 0 .87-.24c.25-.16.45-.38.59-.67.14-.28.21-.61.21-.98s-.07-.69-.21-.98c-.14-.28-.34-.5-.6-.67-.25-.16-.55-.24-.88-.24s-.61.08-.86.24-.45.38-.59.66-.21.61-.21.98.07.69.21.98c.14.28.34.5.6.67.26.16.55.24.88.24Z" fill="#fffdf1"/>
        <path d="M95.46 26.83v-5h.75l.04.7c.15-.27.35-.47.59-.61q.36-.21.84-.21c.4 0 .74.09 1.03.28.28.19.49.47.61.85.14-.37.35-.65.62-.84s.59-.29.96-.29c.56 0 1 .19 1.33.56.32.37.48.94.48 1.7v2.86h-.8v-2.56c0-.49-.05-.87-.15-1.13q-.15-.39-.42-.54-.255-.15-.6-.15c-.39 0-.7.16-.92.47s-.33.75-.33 1.31v2.59h-.8v-2.56c0-.49-.05-.87-.16-1.13q-.15-.39-.42-.54c-.27-.15-.38-.15-.6-.15-.39 0-.69.16-.91.47s-.33.75-.33 1.31v2.59h-.8Z" fill="#fffdf1"/>
        <path d="M106.31 24.39v-2.56h.8v2.56zm.8 0c0 .49.06.87.17 1.13s.27.44.47.54q.3.15.69.15c.43 0 .77-.16 1.01-.47s.37-.75.37-1.31h.39c0 .53-.08.98-.23 1.36s-.38.67-.67.87-.65.3-1.07.3q-.585 0-1.02-.24c-.29-.16-.52-.41-.68-.75s-.24-.79-.24-1.33v-.24h.8Zm2.76 2.44-.05-.92v-4.08h.8v5z" fill="#fffdf1"/>
        <path d="M112.02 26.83v-5h.75l.04.7c.15-.27.35-.47.59-.61q.36-.21.84-.21c.4 0 .74.09 1.03.28.28.19.49.47.61.85.14-.37.35-.65.62-.84s.59-.29.96-.29c.56 0 1 .19 1.33.56.32.37.48.94.48 1.7v2.86h-.8v-2.56c0-.49-.05-.87-.15-1.13q-.15-.39-.42-.54-.255-.15-.6-.15c-.39 0-.7.16-.92.47s-.33.75-.33 1.31v2.59h-.8v-2.56c0-.49-.05-.87-.16-1.13q-.15-.39-.42-.54c-.27-.15-.38-.15-.6-.15-.39 0-.69.16-.91.47s-.33.75-.33 1.31v2.59h-.8Z" fill="#fffdf1"/>
        <path d="M124.75 26.95c-.37 0-.69-.06-.96-.17s-.5-.25-.69-.44-.31-.38-.39-.59l.7-.29c.11.23.28.41.51.55s.48.21.75.21c.31 0 .58-.06.79-.19.21-.12.32-.3.32-.52 0-.21-.08-.37-.24-.5s-.39-.23-.7-.31l-.48-.13c-.45-.12-.81-.3-1.06-.54s-.38-.52-.38-.83c0-.47.16-.84.46-1.1.31-.26.77-.4 1.39-.4.29 0 .56.04.8.13s.45.21.62.37.3.34.38.56l-.7.31a.87.87 0 0 0-.43-.49c-.2-.1-.44-.15-.73-.15-.31 0-.55.06-.72.19s-.26.31-.26.54c0 .13.07.26.21.38s.35.21.63.29l.5.13c.33.08.6.2.82.35.22.16.39.33.5.54.11.2.17.41.17.64q0 .45-.24.78c-.16.22-.38.39-.65.5-.27.12-.59.18-.94.18Z" fill="#fffdf1"/>
        <path d="M129.24 26.95c-.59 0-1.04-.14-1.38-.41s-.5-.65-.5-1.12c0-.51.17-.9.5-1.17s.81-.4 1.42-.4h1.43v.67h-1.25c-.47 0-.8.08-1 .23s-.29.37-.29.66c0 .26.1.46.29.61s.46.23.81.23c.29 0 .54-.06.75-.19.21-.12.38-.3.5-.53s.17-.5.17-.81h.34c0 .68-.15 1.22-.46 1.62s-.75.6-1.34.6Zm1.5-.12-.04-.82v-1.82c0-.39-.04-.72-.13-.98s-.22-.45-.41-.58-.43-.2-.73-.2c-.27 0-.51.05-.71.17-.2.11-.36.28-.48.52l-.72-.28c.13-.23.28-.43.46-.6q.27-.255.63-.39c.24-.09.51-.14.82-.14.47 0 .85.09 1.16.27.3.18.53.45.68.81s.23.8.22 1.33v2.71z" fill="#fffdf1"/>
        <path d="M132.76 26.83v-7h.8v6.07l-.04.93zm2.49.12q-.63 0-1.11-.33c-.32-.22-.56-.53-.74-.92-.17-.4-.26-.85-.26-1.37s.09-.98.26-1.37.42-.7.74-.92.68-.33 1.11-.33c.45 0 .84.11 1.18.33s.6.53.79.92.29.85.29 1.37-.09.97-.29 1.37c-.19.4-.46.7-.79.92-.34.22-.73.33-1.18.33m-.18-.73c.31 0 .59-.08.83-.24s.44-.38.58-.67c.14-.28.21-.61.21-.98s-.07-.69-.21-.98-.33-.51-.57-.67-.53-.24-.85-.24q-.435 0-.78.24c-.23.16-.41.38-.54.67s-.2.61-.2.98.07.69.2.98.31.51.54.67q.345.24.78.24Z" fill="#fffdf1"/>
        <path d="M140.84 26.95c-.49 0-.93-.11-1.3-.33-.38-.22-.67-.53-.88-.93-.21-.39-.32-.85-.32-1.36s.1-.97.31-1.36.5-.7.88-.93q.57-.33 1.29-.33c.72 0 .92.11 1.29.33.38.22.67.53.88.93.21.39.31.85.31 1.36s-.1.97-.31 1.36-.5.7-.88.93c-.37.22-.8.33-1.28.33Zm-.01-.74q.495 0 .87-.24c.25-.16.45-.38.59-.67.14-.28.21-.61.21-.98s-.07-.69-.21-.98c-.14-.28-.34-.5-.6-.67-.25-.16-.55-.24-.88-.24s-.61.08-.86.24-.45.38-.59.66-.21.61-.21.98.07.69.21.98c.14.28.34.5.6.67.26.16.55.24.88.24Z" fill="#fffdf1"/>
        <path d="M144.42 26.83v-5h.8v5zm.44-2.71c0-.54.1-.98.31-1.31.21-.34.47-.59.79-.75s.67-.25 1.02-.25v.75q-.435 0-.84.15c-.27.1-.49.25-.67.48-.17.22-.26.52-.26.9l-.36.04Z" fill="#fffdf1"/>
        <path d="M150.73 20.67c-.13 0-.25-.05-.35-.15a.485.485 0 0 1 0-.7.485.485 0 0 1 .7 0 .485.485 0 0 1 0 .7c-.1.1-.21.15-.35.15m-.41 6.16v-5h.8v5z" fill="#fffdf1"/>
        <path d="M152.59 26.83v-5h.8v5zm.44-2.71c0-.54.1-.98.31-1.31.21-.34.47-.59.79-.75s.67-.25 1.02-.25v.75q-.435 0-.84.15c-.27.1-.49.25-.67.48-.17.22-.26.52-.26.9l-.36.04Z" fill="#fffdf1"/>
        <path d="M155.97 26.83v-5h.8v5zm.44-2.71c0-.54.1-.98.31-1.31.21-.34.47-.59.79-.75s.67-.25 1.02-.25v.75q-.435 0-.84.15c-.27.1-.49.25-.67.48-.17.22-.26.52-.26.9l-.36.04Z" fill="#fffdf1"/>
        <path d="M161.54 26.95q-.735 0-1.29-.33c-.37-.22-.67-.53-.88-.93-.21-.39-.31-.85-.31-1.36s.1-.97.31-1.36q.315-.585.87-.93c.37-.22.79-.33 1.28-.33s.87.12 1.21.35.6.55.79.96.28.9.28 1.46h-4.13l.2-.17c0 .4.07.74.21 1.03s.35.51.61.66.56.23.89.23c.35 0 .65-.08.9-.25s.43-.39.56-.66l.69.35c-.13.26-.29.49-.5.68s-.46.34-.74.45-.6.16-.95.16Zm-1.62-2.98-.21-.16h3.45l-.21.17c0-.32-.06-.6-.19-.83q-.195-.345-.51-.54c-.21-.13-.46-.19-.74-.19s-.53.06-.78.19c-.24.13-.44.31-.59.54s-.23.5-.23.83Z" fill="#fffdf1"/>
        <path d="M166.56 26.95c-.37 0-.69-.06-.96-.17s-.5-.25-.69-.44-.31-.38-.39-.59l.7-.29c.11.23.28.41.51.55s.48.21.75.21c.31 0 .58-.06.79-.19.21-.12.32-.3.32-.52 0-.21-.08-.37-.24-.5s-.39-.23-.7-.31l-.48-.13c-.45-.12-.81-.3-1.06-.54s-.38-.52-.38-.83c0-.47.16-.84.46-1.1.31-.26.77-.4 1.39-.4.29 0 .56.04.8.13s.45.21.62.37.3.34.38.56l-.7.31a.87.87 0 0 0-.43-.49c-.2-.1-.44-.15-.73-.15-.31 0-.55.06-.72.19s-.26.31-.26.54c0 .13.07.26.21.38s.35.21.63.29l.5.13c.33.08.6.2.82.35.22.16.39.33.5.54.11.2.17.41.17.64q0 .45-.24.78c-.16.22-.38.39-.65.5-.27.12-.59.18-.94.18Z" fill="#fffdf1"/>
        <path d="M169.93 20.67c-.13 0-.25-.05-.35-.15a.485.485 0 0 1 0-.7.485.485 0 0 1 .7 0 .485.485 0 0 1 0 .7c-.1.1-.21.15-.35.15m-.41 6.16v-5h.8v5z" fill="#fffdf1"/>
        <path d="M173.54 26.95c-.37 0-.69-.06-.96-.17s-.5-.25-.69-.44-.31-.38-.39-.59l.7-.29c.11.23.28.41.51.55s.48.21.75.21c.31 0 .58-.06.79-.19.21-.12.32-.3.32-.52 0-.21-.08-.37-.24-.5s-.39-.23-.7-.31l-.48-.13c-.45-.12-.81-.3-1.06-.54s-.38-.52-.38-.83c0-.47.16-.84.46-1.1.31-.26.77-.4 1.39-.4.29 0 .56.04.8.13s.45.21.62.37.3.34.38.56l-.7.31a.87.87 0 0 0-.43-.49c-.2-.1-.44-.15-.73-.15-.31 0-.55.06-.72.19s-.26.31-.26.54c0 .13.07.26.21.38s.35.21.63.29l.5.13c.33.08.6.2.82.35.22.16.39.33.5.54.11.2.17.41.17.64q0 .45-.24.78c-.16.22-.38.39-.65.5-.27.12-.59.18-.94.18Z" fill="#fffdf1"/>
        <path d="M175.93 22.54v-.71h3.17v.71zm2.4 4.41c-.49 0-.86-.13-1.13-.38s-.4-.61-.4-1.07v-5.23h.8v5.15c0 .25.07.45.21.58.14.14.33.21.58.21q.12 0 .24-.03t.3-.18l.31.65c-.17.11-.33.19-.47.24-.14.04-.28.06-.43.06Z" fill="#fffdf1"/>
        <path d="m180.01 21.12 1.17-1.29h1.03l-1.29 1.29zm.27 5.71v-5h.8v5z" fill="#fffdf1"/>
        <path d="m184.03 26.83-2.09-5h.83l2.04 5zm.05 0 2.04-5h.84l-2.09 5z" fill="#fffdf1"/>
        <path d="M189.82 26.95q-.735 0-1.29-.33c-.37-.22-.67-.53-.88-.93-.21-.39-.31-.85-.31-1.36s.1-.97.31-1.36q.315-.585.87-.93c.37-.22.79-.33 1.28-.33s.87.12 1.21.35.6.55.79.96.28.9.28 1.46h-4.13l.2-.17c0 .4.07.74.21 1.03s.35.51.61.66.56.23.89.23c.35 0 .65-.08.9-.25s.43-.39.56-.66l.69.35c-.13.26-.29.49-.5.68s-.46.34-.74.45-.6.16-.95.16Zm-1.62-2.98-.21-.16h3.45l-.21.17c0-.32-.06-.6-.19-.83q-.195-.345-.51-.54c-.21-.13-.46-.19-.74-.19s-.53.06-.78.19c-.24.13-.44.31-.59.54s-.23.5-.23.83Z" fill="#fffdf1"/>
        <path d="M193.09 26.83v-7h.8v7z" fill="#fffdf1"/>
        <path d="M199.73 26.95c-.45 0-.84-.11-1.18-.33s-.61-.53-.79-.92c-.19-.4-.29-.85-.29-1.37s.09-.98.29-1.37c.19-.39.46-.7.79-.92.34-.22.73-.33 1.18-.33q.63 0 1.11.33c.32.22.56.53.73.92s.26.85.26 1.37-.09.97-.26 1.37-.42.7-.73.92q-.48.33-1.11.33m.18-.73q.435 0 .78-.24c.23-.16.41-.38.54-.67s.2-.61.2-.98-.07-.69-.2-.98-.31-.51-.54-.67-.49-.24-.79-.24-.59.08-.83.24-.43.38-.58.67c-.14.29-.21.61-.21.98s.07.69.21.98.33.51.58.67q.375.24.84.24m1.51 2.61v-6.07l.04-.93h.76v7z" fill="#fffdf1"/>
        <path d="M203.41 24.39v-2.56h.8v2.56zm.8 0c0 .49.06.87.17 1.13s.27.44.47.54q.3.15.69.15c.43 0 .77-.16 1.01-.47s.37-.75.37-1.31h.39c0 .53-.08.98-.23 1.36s-.38.67-.67.87-.65.3-1.07.3q-.585 0-1.02-.24c-.29-.16-.52-.41-.68-.75s-.24-.79-.24-1.33v-.24h.8Zm2.76 2.44-.05-.92v-4.08h.8v5z" fill="#fffdf1"/>
        <path d="M211.31 26.95q-.735 0-1.29-.33c-.37-.22-.67-.53-.88-.93-.21-.39-.31-.85-.31-1.36s.1-.97.31-1.36q.315-.585.87-.93c.37-.22.79-.33 1.28-.33s.87.12 1.21.35.6.55.79.96.28.9.28 1.46h-4.13l.2-.17c0 .4.07.74.21 1.03s.35.51.61.66.56.23.89.23c.35 0 .65-.08.9-.25s.43-.39.56-.66l.69.35c-.13.26-.29.49-.5.68s-.46.34-.74.45-.6.16-.95.16Zm-1.62-2.98-.21-.16h3.45l-.21.17c0-.32-.06-.6-.19-.83q-.195-.345-.51-.54c-.21-.13-.46-.19-.74-.19s-.53.06-.78.19c-.24.13-.44.31-.59.54s-.23.5-.23.83Z" fill="#fffdf1"/>
        <path d="M84.03 38.45c-.59 0-1.04-.14-1.38-.41s-.5-.65-.5-1.12c0-.51.17-.9.5-1.17s.81-.4 1.42-.4h1.43v.67h-1.25c-.47 0-.8.08-1 .23s-.29.37-.29.66c0 .26.1.46.29.61s.46.23.81.23c.29 0 .54-.06.75-.19.21-.12.38-.3.5-.53s.17-.5.17-.81h.34c0 .68-.15 1.22-.46 1.62s-.75.6-1.34.6Zm1.5-.12-.04-.82v-1.82c0-.39-.04-.72-.13-.98s-.22-.45-.41-.58-.43-.2-.73-.2c-.27 0-.51.05-.71.17-.2.11-.36.28-.48.52l-.72-.28c.13-.23.28-.43.46-.6q.27-.255.63-.39c.24-.09.51-.14.82-.14.47 0 .85.09 1.16.27.3.18.53.45.68.81s.23.8.22 1.33v2.71z" fill="#fffdf1"/>
        <path d="M89.52 38.29c-.45 0-.84-.11-1.18-.32s-.61-.51-.79-.9c-.19-.38-.29-.82-.29-1.31s.09-.95.29-1.33c.19-.38.46-.68.79-.9s.73-.32 1.18-.32c.42 0 .79.11 1.1.32s.56.51.74.9.26.83.26 1.33-.09.94-.26 1.32-.42.68-.74.89c-.31.21-.68.32-1.1.32m.03 2.16c-.32 0-.61-.03-.88-.1-.26-.06-.49-.13-.67-.21s-.32-.14-.4-.19l.3-.65c.09.05.21.1.37.17a3.2 3.2 0 0 0 1.27.25c.32 0 .61-.06.86-.19s.46-.33.6-.61.21-.63.21-1.07v-4.53h.8v4.52c0 .57-.11 1.05-.32 1.44s-.51.68-.88.87-.8.29-1.27.29Zm.16-2.85q.435 0 .78-.24c.23-.16.4-.38.53-.65.13-.28.19-.6.19-.96s-.07-.67-.2-.95-.31-.49-.53-.65-.48-.23-.79-.23-.59.08-.83.23-.43.37-.57.65-.21.59-.21.95.07.69.21.96c.14.28.33.5.58.65.24.16.52.24.83.24Z" fill="#fffdf1"/>
        <path d="M93.42 38.33v-5h.8v5zm.44-2.71c0-.54.1-.98.31-1.31.21-.34.47-.59.79-.75s.67-.25 1.02-.25v.75q-.435 0-.84.15c-.27.1-.49.25-.67.48-.17.22-.26.52-.26.9l-.36.04Z" fill="#fffdf1"/>
        <path d="M98.38 38.45c-.59 0-1.04-.14-1.38-.41s-.5-.65-.5-1.12c0-.51.17-.9.5-1.17s.81-.4 1.42-.4h1.43v.67H98.6c-.47 0-.8.08-1 .23s-.29.37-.29.66c0 .26.1.46.29.61s.46.23.81.23c.29 0 .54-.06.75-.19.21-.12.38-.3.5-.53s.17-.5.17-.81h.34c0 .68-.15 1.22-.46 1.62s-.75.6-1.34.6Zm1.5-.12-.04-.82v-1.82c0-.39-.04-.72-.13-.98s-.22-.45-.41-.58-.43-.2-.73-.2c-.27 0-.51.05-.71.17-.2.11-.36.28-.48.52l-.72-.28c.13-.23.28-.43.46-.6q.27-.255.63-.39c.24-.09.51-.14.82-.14.47 0 .85.09 1.16.27.3.18.53.45.68.81s.23.8.22 1.33v2.71z" fill="#fffdf1"/>
        <path d="M103.87 38.45c-.45 0-.84-.11-1.18-.33s-.61-.53-.79-.92c-.19-.4-.29-.85-.29-1.37s.09-.98.29-1.37c.19-.39.46-.7.79-.92.34-.22.73-.33 1.18-.33q.63 0 1.11.33c.32.22.56.53.73.92s.26.85.26 1.37-.09.97-.26 1.37-.42.7-.73.92q-.48.33-1.11.33m.18-.73q.435 0 .78-.24c.23-.16.41-.38.54-.67s.2-.61.2-.98-.07-.69-.2-.98-.31-.51-.54-.67-.49-.24-.79-.24-.59.08-.83.24-.43.38-.58.67c-.14.29-.21.61-.21.98s.07.69.21.98.33.51.58.67q.375.24.84.24m1.55.61-.04-.93v-6.07h.8v7z" fill="#fffdf1"/>
        <path d="M109.34 38.45c-.59 0-1.04-.14-1.38-.41s-.5-.65-.5-1.12c0-.51.17-.9.5-1.17s.81-.4 1.42-.4h1.43v.67h-1.25c-.47 0-.8.08-1 .23s-.29.37-.29.66c0 .26.1.46.29.61s.46.23.81.23c.29 0 .54-.06.75-.19.21-.12.38-.3.5-.53s.17-.5.17-.81h.34c0 .68-.15 1.22-.46 1.62s-.75.6-1.34.6Zm1.5-.12-.04-.82v-1.82c0-.39-.04-.72-.13-.98s-.22-.45-.41-.58-.43-.2-.73-.2c-.27 0-.51.05-.71.17-.2.11-.36.28-.48.52l-.72-.28c.13-.23.28-.43.46-.6q.27-.255.63-.39c.24-.09.51-.14.82-.14.47 0 .85.09 1.16.27.3.18.53.45.68.81s.23.8.22 1.33v2.71z" fill="#fffdf1"/>
        <path d="M116.91 38.45c-.59 0-1.04-.14-1.38-.41s-.5-.65-.5-1.12c0-.51.17-.9.5-1.17s.81-.4 1.42-.4h1.43v.67h-1.25c-.47 0-.8.08-1 .23s-.29.37-.29.66c0 .26.1.46.29.61s.46.23.81.23c.29 0 .54-.06.75-.19.21-.12.38-.3.5-.53s.17-.5.17-.81h.34c0 .68-.15 1.22-.46 1.62s-.75.6-1.34.6Zm1.5-.12-.04-.82v-1.82c0-.39-.04-.72-.13-.98s-.22-.45-.41-.58-.43-.2-.73-.2c-.27 0-.51.05-.71.17-.2.11-.36.28-.48.52l-.72-.28c.13-.23.28-.43.46-.6q.27-.255.63-.39c.24-.09.51-.14.82-.14.47 0 .85.09 1.16.27.3.18.53.45.68.81s.23.8.22 1.33v2.71z" fill="#fffdf1"/>
        <path d="M119.91 34.04v-.71h3.17v.71zm2.4 4.41c-.49 0-.86-.13-1.13-.38s-.4-.61-.4-1.07v-5.23h.8v5.15c0 .25.07.45.21.58.14.14.33.21.58.21q.12 0 .24-.03t.3-.18l.31.65c-.17.11-.33.19-.47.24-.14.04-.28.06-.43.06Z" fill="#fffdf1"/>
        <path d="M126.37 38.45q-.735 0-1.29-.33c-.37-.22-.67-.53-.88-.93-.21-.39-.31-.85-.31-1.36s.1-.97.31-1.36q.315-.585.87-.93c.37-.22.79-.33 1.28-.33s.87.12 1.21.35.6.55.79.96.28.9.28 1.46h-4.13l.2-.17c0 .4.07.74.21 1.03s.35.51.61.66.56.23.89.23c.35 0 .65-.08.9-.25s.43-.39.56-.66l.69.35c-.13.26-.29.49-.5.68s-.46.34-.74.45-.6.16-.95.16Zm-1.62-2.98-.21-.16h3.45l-.21.17c0-.32-.06-.6-.19-.83q-.195-.345-.51-.54c-.21-.13-.46-.19-.74-.19s-.53.06-.78.19c-.24.13-.44.31-.59.54s-.23.5-.23.83Zm.93-2.85 1.17-1.29h1.03l-1.29 1.29z" fill="#fffdf1"/>
        <path d="M134.34 38.45c-.49 0-.93-.11-1.3-.33-.38-.22-.67-.53-.88-.93-.21-.39-.32-.85-.32-1.36s.1-.97.31-1.36.5-.7.88-.93q.57-.33 1.29-.33c.72 0 .92.11 1.29.33.38.22.67.53.88.93.21.39.31.85.31 1.36s-.1.97-.31 1.36-.5.7-.88.93c-.37.22-.8.33-1.28.33Zm-.01-.74q.495 0 .87-.24c.25-.16.45-.38.59-.67.14-.28.21-.61.21-.98s-.07-.69-.21-.98c-.14-.28-.34-.5-.6-.67-.25-.16-.55-.24-.88-.24s-.61.08-.86.24-.45.38-.59.66-.21.61-.21.98.07.69.21.98c.14.28.34.5.6.67.26.16.55.24.88.24Z" fill="#fffdf1"/>
        <path d="M139.67 38.45c-.37 0-.69-.06-.96-.17s-.5-.25-.69-.44-.31-.38-.39-.59l.7-.29c.11.23.28.41.51.55s.48.21.75.21c.31 0 .58-.06.79-.19.21-.12.32-.3.32-.52 0-.21-.08-.37-.24-.5s-.39-.23-.7-.31l-.48-.13c-.45-.12-.81-.3-1.06-.54s-.38-.52-.38-.83c0-.47.16-.84.46-1.1.31-.26.77-.4 1.39-.4.29 0 .56.04.8.13s.45.21.62.37.3.34.38.56l-.7.31a.87.87 0 0 0-.43-.49c-.2-.1-.44-.15-.73-.15-.31 0-.55.06-.72.19s-.26.31-.26.54c0 .13.07.26.21.38s.35.21.63.29l.5.13c.33.08.6.2.82.35.22.16.39.33.5.54.11.2.17.41.17.64q0 .45-.24.78c-.16.22-.38.39-.65.5-.27.12-.59.18-.94.18Z" fill="#fffdf1"/>
        <path d="M145.1 40.33v-7h.75l.05.92v6.08zm2.49-1.88q-.63 0-1.11-.33c-.32-.22-.56-.53-.73-.92-.17-.4-.26-.85-.26-1.37s.09-.98.26-1.37.42-.7.73-.92q.48-.33 1.11-.33c.45 0 .84.11 1.18.33s.61.53.79.92c.19.39.29.85.29 1.37s-.09.97-.29 1.37c-.19.4-.46.7-.79.92-.34.22-.73.33-1.18.33m-.18-.73c.31 0 .59-.08.83-.24s.44-.38.58-.67c.14-.28.22-.61.22-.98s-.07-.69-.21-.98-.33-.51-.57-.67-.53-.24-.84-.24c-.29 0-.56.08-.79.24s-.41.38-.54.67-.2.61-.2.98.07.69.2.98.31.51.54.67q.345.24.78.24" fill="#fffdf1"/>
        <path d="M153.15 38.45q-.735 0-1.29-.33c-.37-.22-.67-.53-.88-.93-.21-.39-.31-.85-.31-1.36s.1-.97.31-1.36q.315-.585.87-.93c.37-.22.79-.33 1.28-.33s.87.12 1.21.35.6.55.79.96.28.9.28 1.46h-4.13l.2-.17c0 .4.07.74.21 1.03s.35.51.61.66.56.23.89.23c.35 0 .65-.08.9-.25s.43-.39.56-.66l.69.35c-.13.26-.29.49-.5.68s-.46.34-.74.45-.6.16-.95.16Zm-1.62-2.98-.21-.16h3.45l-.21.17c0-.32-.06-.6-.19-.83q-.195-.345-.51-.54c-.21-.13-.46-.19-.74-.19s-.53.06-.78.19c-.24.13-.44.31-.59.54s-.23.5-.23.83Z" fill="#fffdf1"/>
        <path d="M155.9 34.04v-.71h3.17v.71zm2.4 4.41c-.49 0-.86-.13-1.13-.38s-.4-.61-.4-1.07v-5.23h.8v5.15c0 .25.07.45.21.58.14.14.33.21.58.21q.12 0 .24-.03t.3-.18l.31.65c-.17.11-.33.19-.47.24-.14.04-.28.06-.43.06Z" fill="#fffdf1"/>
        <path d="M161.95 38.45c-.37 0-.69-.06-.96-.17s-.5-.25-.69-.44-.31-.38-.39-.59l.7-.29c.11.23.28.41.51.55s.48.21.75.21c.31 0 .58-.06.79-.19.21-.12.32-.3.32-.52 0-.21-.08-.37-.24-.5s-.39-.23-.7-.31l-.48-.13c-.45-.12-.81-.3-1.06-.54s-.38-.52-.38-.83c0-.47.16-.84.46-1.1.31-.26.77-.4 1.39-.4.29 0 .56.04.8.13s.45.21.62.37.3.34.38.56l-.7.31a.87.87 0 0 0-.43-.49c-.2-.1-.44-.15-.73-.15-.31 0-.55.06-.72.19s-.26.31-.26.54c0 .13.07.26.21.38s.35.21.63.29l.5.13c.33.08.6.2.82.35.22.16.39.33.5.54.11.2.17.41.17.64q0 .45-.24.78c-.16.22-.38.39-.65.5-.27.12-.59.18-.94.18Z" fill="#fffdf1"/>
        <path d="M167.33 38.33v-5h.75l.04.7c.15-.27.35-.47.59-.61q.36-.21.84-.21c.4 0 .74.09 1.03.28.28.19.49.47.61.85.14-.37.35-.65.62-.84s.59-.29.96-.29c.56 0 1 .19 1.33.56.32.37.48.94.48 1.7v2.86h-.8v-2.56c0-.49-.05-.87-.15-1.13q-.15-.39-.42-.54-.255-.15-.6-.15c-.39 0-.7.16-.92.47s-.33.75-.33 1.31v2.59h-.8v-2.56c0-.49-.05-.87-.16-1.13q-.15-.39-.42-.54c-.27-.15-.38-.15-.6-.15-.39 0-.69.16-.91.47s-.33.75-.33 1.31v2.59h-.8Z" fill="#fffdf1"/>
        <path d="M177.42 38.45c-.59 0-1.04-.14-1.38-.41s-.5-.65-.5-1.12c0-.51.17-.9.5-1.17s.81-.4 1.42-.4h1.43v.67h-1.25c-.47 0-.8.08-1 .23s-.29.37-.29.66c0 .26.1.46.29.61s.46.23.81.23c.29 0 .54-.06.75-.19.21-.12.38-.3.5-.53s.17-.5.17-.81h.34c0 .68-.15 1.22-.46 1.62s-.75.6-1.34.6Zm1.5-.12-.04-.82v-1.82c0-.39-.04-.72-.13-.98s-.22-.45-.41-.58-.43-.2-.73-.2c-.27 0-.51.05-.71.17-.2.11-.36.28-.48.52l-.72-.28c.13-.23.28-.43.46-.6q.27-.255.63-.39c.24-.09.51-.14.82-.14.47 0 .85.09 1.16.27.3.18.53.45.68.81s.23.8.22 1.33v2.71z" fill="#fffdf1"/>
        <path d="M181.4 32.17c-.13 0-.25-.05-.35-.15a.485.485 0 0 1 0-.7.485.485 0 0 1 .7 0 .485.485 0 0 1 0 .7c-.1.1-.21.15-.35.15m-.41 6.16v-5h.8v5z" fill="#fffdf1"/>
        <path d="M185.01 38.45c-.37 0-.69-.06-.96-.17s-.5-.25-.69-.44-.31-.38-.39-.59l.7-.29c.11.23.28.41.51.55s.48.21.75.21c.31 0 .58-.06.79-.19.21-.12.32-.3.32-.52 0-.21-.08-.37-.24-.5s-.39-.23-.7-.31l-.48-.13c-.45-.12-.81-.3-1.06-.54s-.38-.52-.38-.83c0-.47.16-.84.46-1.1.31-.26.77-.4 1.39-.4.29 0 .56.04.8.13s.45.21.62.37.3.34.38.56l-.7.31a.87.87 0 0 0-.43-.49c-.2-.1-.44-.15-.73-.15-.31 0-.55.06-.72.19s-.26.31-.26.54c0 .13.07.26.21.38s.35.21.63.29l.5.13c.33.08.6.2.82.35.22.16.39.33.5.54.11.2.17.41.17.64q0 .45-.24.78c-.16.22-.38.39-.65.5-.27.12-.59.18-.94.18Z" fill="#fffdf1"/>
        <path d="M192.58 38.45q-.735 0-1.29-.33c-.37-.22-.67-.53-.88-.93-.21-.39-.31-.85-.31-1.36s.1-.97.31-1.36q.315-.585.87-.93c.37-.22.79-.33 1.28-.33s.87.12 1.21.35.6.55.79.96.28.9.28 1.46h-4.13l.2-.17c0 .4.07.74.21 1.03s.35.51.61.66.56.23.89.23c.35 0 .65-.08.9-.25s.43-.39.56-.66l.69.35c-.13.26-.29.49-.5.68s-.46.34-.74.45-.6.16-.95.16Zm-1.62-2.98-.21-.16h3.45l-.21.17c0-.32-.06-.6-.19-.83q-.195-.345-.51-.54c-.21-.13-.46-.19-.74-.19s-.53.06-.78.19c-.24.13-.44.31-.59.54s-.23.5-.23.83Z" fill="#fffdf1"/>
        <path d="m195.2 38.33 2.04-2.87 1.44-2.13h.95l-1.9 2.7-1.56 2.3zm3.59 0-1.54-2.3-1.92-2.7h.95l1.45 2.13 2.02 2.87z" fill="#fffdf1"/>
        <path d="M201.01 32.17c-.13 0-.25-.05-.35-.15a.485.485 0 0 1 0-.7.485.485 0 0 1 .7 0 .485.485 0 0 1 0 .7c-.1.1-.21.15-.35.15m-.41 6.16v-5h.8v5z" fill="#fffdf1"/>
        <path d="M204.84 38.29c-.45 0-.84-.11-1.18-.32s-.61-.51-.79-.9c-.19-.38-.29-.82-.29-1.31s.09-.95.29-1.33c.19-.38.46-.68.79-.9s.73-.32 1.18-.32c.42 0 .79.11 1.1.32s.56.51.74.9.26.83.26 1.33-.09.94-.26 1.32-.42.68-.74.89c-.31.21-.68.32-1.1.32m.03 2.16c-.32 0-.61-.03-.88-.1-.26-.06-.49-.13-.67-.21s-.32-.14-.4-.19l.3-.65c.09.05.21.1.37.17a3.2 3.2 0 0 0 1.27.25c.32 0 .61-.06.86-.19s.46-.33.6-.61.21-.63.21-1.07v-4.53h.8v4.52c0 .57-.11 1.05-.32 1.44s-.51.68-.88.87-.8.29-1.27.29Zm.16-2.85q.435 0 .78-.24c.23-.16.4-.38.53-.65.13-.28.19-.6.19-.96s-.07-.67-.2-.95-.31-.49-.53-.65-.48-.23-.79-.23-.59.08-.83.23-.43.37-.57.65-.21.59-.21.95.07.69.21.96c.14.28.33.5.58.65.24.16.52.24.83.24Z" fill="#fffdf1"/>
        <path d="M210.93 38.45q-.735 0-1.29-.33c-.37-.22-.67-.53-.88-.93-.21-.39-.31-.85-.31-1.36s.1-.97.31-1.36q.315-.585.87-.93c.37-.22.79-.33 1.28-.33s.87.12 1.21.35.6.55.79.96.28.9.28 1.46h-4.13l.2-.17c0 .4.07.74.21 1.03s.35.51.61.66.56.23.89.23c.35 0 .65-.08.9-.25s.43-.39.56-.66l.69.35c-.13.26-.29.49-.5.68s-.46.34-.74.45-.6.16-.95.16Zm-1.62-2.98-.21-.16h3.45l-.21.17c0-.32-.06-.6-.19-.83q-.195-.345-.51-.54c-.21-.13-.46-.19-.74-.19s-.53.06-.78.19c-.24.13-.44.31-.59.54s-.23.5-.23.83Z" fill="#fffdf1"/>
        <path d="M214.2 38.33v-5h.75l.05.92v4.08zm3.51-2.56c0-.49-.06-.87-.17-1.13s-.27-.44-.47-.54-.43-.15-.68-.15c-.44 0-.78.16-1.02.47s-.37.75-.37 1.31h-.39c0-.53.08-.98.23-1.36s.38-.67.67-.87.65-.3 1.06-.3q.585 0 1.02.24c.29.16.52.4.68.74s.24.79.23 1.34v.24h-.8Zm0 2.56v-2.56h.8v2.56z" fill="#fffdf1"/>
        <path d="M219.26 34.04v-.71h3.17v.71zm2.4 4.41c-.49 0-.86-.13-1.13-.38s-.4-.61-.4-1.07v-5.23h.8v5.15c0 .25.07.45.21.58.14.14.33.21.58.21q.12 0 .24-.03t.3-.18l.31.65c-.17.11-.33.19-.47.24-.14.04-.28.06-.43.06Z" fill="#fffdf1"/>
        <path d="M225.72 38.45q-.735 0-1.29-.33c-.37-.22-.67-.53-.88-.93-.21-.39-.31-.85-.31-1.36s.1-.97.31-1.36q.315-.585.87-.93c.37-.22.79-.33 1.28-.33s.87.12 1.21.35.6.55.79.96.28.9.28 1.46h-4.13l.2-.17c0 .4.07.74.21 1.03s.35.51.61.66.56.23.89.23c.35 0 .65-.08.9-.25s.43-.39.56-.66l.69.35c-.13.26-.29.49-.5.68s-.46.34-.74.45-.6.16-.95.16Zm-1.62-2.98-.21-.16h3.45l-.21.17c0-.32-.06-.6-.19-.83q-.195-.345-.51-.54c-.21-.13-.46-.19-.74-.19s-.53.06-.78.19c-.24.13-.44.31-.59.54s-.23.5-.23.83Z" fill="#fffdf1"/>
        <path d="M230.74 38.45c-.37 0-.69-.06-.96-.17s-.5-.25-.69-.44-.31-.38-.39-.59l.7-.29c.11.23.28.41.51.55s.48.21.75.21c.31 0 .58-.06.79-.19.21-.12.32-.3.32-.52 0-.21-.08-.37-.24-.5s-.39-.23-.7-.31l-.48-.13c-.45-.12-.81-.3-1.06-.54s-.38-.52-.38-.83c0-.47.16-.84.46-1.1.31-.26.77-.4 1.39-.4.29 0 .56.04.8.13s.45.21.62.37.3.34.38.56l-.7.31a.87.87 0 0 0-.43-.49c-.2-.1-.44-.15-.73-.15-.31 0-.55.06-.72.19s-.26.31-.26.54c0 .13.07.26.21.38s.35.21.63.29l.5.13c.33.08.6.2.82.35.22.16.39.33.5.54.11.2.17.41.17.64q0 .45-.24.78c-.16.22-.38.39-.65.5-.27.12-.59.18-.94.18Z" fill="#fffdf1"/>
        <path d="m233.35 39.48.57-2.11h.9l-.78 2.11z" fill="#fffdf1"/>
        <path d="M84.68 49.95c-.49 0-.93-.11-1.31-.33a2.3 2.3 0 0 1-.89-.93c-.21-.39-.32-.85-.32-1.36s.1-.97.31-1.36.51-.7.89-.93c.38-.22.81-.33 1.3-.33s.91.11 1.29.33q.57.33.87.93l-.73.33c-.13-.27-.33-.48-.58-.62-.25-.15-.54-.23-.87-.23s-.61.08-.86.24-.45.38-.59.67c-.14.28-.21.61-.21.98s.07.69.21.98c.14.28.34.5.6.67.26.16.55.24.88.24s.62-.08.88-.25.45-.4.58-.7l.73.33c-.2.43-.49.76-.87 1s-.81.36-1.3.36Z" fill="#fffdf1"/>
        <path d="M89.88 49.95c-.49 0-.93-.11-1.3-.33-.38-.22-.67-.53-.88-.93-.21-.39-.32-.85-.32-1.36s.1-.97.31-1.36.5-.7.88-.93q.57-.33 1.29-.33c.72 0 .92.11 1.29.33.38.22.67.53.88.93.21.39.31.85.31 1.36s-.1.97-.31 1.36-.5.7-.88.93c-.37.22-.8.33-1.28.33Zm-.01-.74q.495 0 .87-.24c.25-.16.45-.38.59-.67.14-.28.21-.61.21-.98s-.07-.69-.21-.98c-.14-.28-.34-.5-.6-.67-.25-.16-.55-.24-.88-.24s-.61.08-.86.24-.45.38-.59.66-.21.61-.21.98.07.69.21.98c.14.28.34.5.6.67.26.16.55.24.88.24Z" fill="#fffdf1"/>
        <path d="M93.26 49.83v-7h.8v7z" fill="#fffdf1"/>
        <path d="M96.84 49.95c-.59 0-1.04-.14-1.38-.41s-.5-.65-.5-1.12c0-.51.17-.9.5-1.17s.81-.4 1.42-.4h1.43v.67h-1.25c-.47 0-.8.08-1 .23s-.29.37-.29.66c0 .26.1.46.29.61s.46.23.81.23c.29 0 .54-.06.75-.19.21-.12.38-.3.5-.53s.17-.5.17-.81h.34c0 .68-.15 1.22-.46 1.62s-.75.6-1.34.6Zm1.5-.12-.04-.82v-1.82c0-.39-.04-.72-.13-.98s-.22-.45-.41-.58-.43-.2-.73-.2c-.27 0-.51.05-.71.17-.2.11-.36.28-.48.52l-.72-.28c.13-.23.28-.43.46-.6q.27-.255.63-.39c.24-.09.51-.14.82-.14.47 0 .85.09 1.16.27.3.18.53.45.68.81s.23.8.22 1.33v2.71z" fill="#fffdf1"/>
        <path d="M100.16 49.83v-7h.8v6.07l-.04.93zm2.49.12q-.63 0-1.11-.33c-.32-.22-.56-.53-.74-.92-.17-.4-.26-.85-.26-1.37s.09-.98.26-1.37.42-.7.74-.92.68-.33 1.11-.33c.45 0 .84.11 1.18.33s.6.53.79.92.29.85.29 1.37-.09.97-.29 1.37c-.19.4-.46.7-.79.92-.34.22-.73.33-1.18.33m-.18-.73c.31 0 .59-.08.83-.24s.44-.38.58-.67c.14-.28.21-.61.21-.98s-.07-.69-.21-.98-.33-.51-.57-.67-.53-.24-.85-.24q-.435 0-.78.24c-.23.16-.41.38-.54.67s-.2.61-.2.98.07.69.2.98.31.51.54.67q.345.24.78.24Z" fill="#fffdf1"/>
        <path d="M108.04 49.95c-.49 0-.93-.11-1.3-.33-.38-.22-.67-.53-.88-.93-.21-.39-.32-.85-.32-1.36s.1-.97.31-1.36.5-.7.88-.93q.57-.33 1.29-.33c.72 0 .92.11 1.29.33.38.22.67.53.88.93.21.39.31.85.31 1.36s-.1.97-.31 1.36-.5.7-.88.93c-.37.22-.8.33-1.28.33Zm-.01-.74q.495 0 .87-.24c.25-.16.45-.38.59-.67.14-.28.21-.61.21-.98s-.07-.69-.21-.98c-.14-.28-.34-.5-.6-.67-.25-.16-.55-.24-.88-.24s-.61.08-.86.24-.45.38-.59.66-.21.61-.21.98.07.69.21.98c.14.28.34.5.6.67.26.16.55.24.88.24Z" fill="#fffdf1"/>
        <path d="M111.42 49.83v-5h.8v5zm.44-2.71c0-.54.1-.98.31-1.31.21-.34.47-.59.79-.75s.67-.25 1.02-.25v.75q-.435 0-.84.15c-.27.1-.49.25-.67.48-.17.22-.26.52-.26.9l-.36.04Z" fill="#fffdf1"/>
        <path d="M116.18 49.95c-.59 0-1.04-.14-1.38-.41s-.5-.65-.5-1.12c0-.51.17-.9.5-1.17s.81-.4 1.42-.4h1.43v.67h-1.25c-.47 0-.8.08-1 .23s-.29.37-.29.66c0 .26.1.46.29.61s.46.23.81.23c.29 0 .54-.06.75-.19.21-.12.38-.3.5-.53s.17-.5.17-.81h.34c0 .68-.15 1.22-.46 1.62s-.75.6-1.34.6Zm1.5-.12-.04-.82v-1.82c0-.39-.04-.72-.13-.98s-.22-.45-.41-.58-.43-.2-.73-.2c-.27 0-.51.05-.71.17-.2.11-.36.28-.48.52l-.72-.28c.13-.23.28-.43.46-.6q.27-.255.63-.39c.24-.09.51-.14.82-.14.47 0 .85.09 1.16.27.3.18.53.45.68.81s.23.8.22 1.33v2.71z" fill="#fffdf1"/>
        <path d="M121.82 51.83v-7h.75l.05.92v6.08zm2.49-1.88q-.63 0-1.11-.33c-.32-.22-.56-.53-.73-.92-.17-.4-.26-.85-.26-1.37s.09-.98.26-1.37.42-.7.73-.92q.48-.33 1.11-.33c.45 0 .84.11 1.18.33s.61.53.79.92c.19.39.29.85.29 1.37s-.09.97-.29 1.37c-.19.4-.46.7-.79.92-.34.22-.73.33-1.18.33m-.18-.73c.31 0 .59-.08.83-.24s.44-.38.58-.67c.14-.28.22-.61.22-.98s-.07-.69-.21-.98-.33-.51-.57-.67-.53-.24-.84-.24c-.29 0-.56.08-.79.24s-.41.38-.54.67-.2.61-.2.98.07.69.2.98.31.51.54.67q.345.24.78.24" fill="#fffdf1"/>
        <path d="M129.06 49.95c-.59 0-1.04-.14-1.38-.41s-.5-.65-.5-1.12c0-.51.17-.9.5-1.17s.81-.4 1.42-.4h1.43v.67h-1.25c-.47 0-.8.08-1 .23s-.29.37-.29.66c0 .26.1.46.29.61s.46.23.81.23c.29 0 .54-.06.75-.19.21-.12.38-.3.5-.53s.17-.5.17-.81h.34c0 .68-.15 1.22-.46 1.62s-.75.6-1.34.6Zm1.5-.12-.04-.82v-1.82c0-.39-.04-.72-.13-.98s-.22-.45-.41-.58-.43-.2-.73-.2c-.27 0-.51.05-.71.17-.2.11-.36.28-.48.52l-.72-.28c.13-.23.28-.43.46-.6q.27-.255.63-.39c.24-.09.51-.14.82-.14.47 0 .85.09 1.16.27.3.18.53.45.68.81s.23.8.22 1.33v2.71z" fill="#fffdf1"/>
        <path d="M132.38 49.83v-5h.8v5zm.44-2.71c0-.54.1-.98.31-1.31.21-.34.47-.59.79-.75s.67-.25 1.02-.25v.75q-.435 0-.84.15c-.27.1-.49.25-.67.48-.17.22-.26.52-.26.9l-.36.04Z" fill="#fffdf1"/>
        <path d="M137.14 49.95c-.59 0-1.04-.14-1.38-.41s-.5-.65-.5-1.12c0-.51.17-.9.5-1.17s.81-.4 1.42-.4h1.43v.67h-1.25c-.47 0-.8.08-1 .23s-.29.37-.29.66c0 .26.1.46.29.61s.46.23.81.23c.29 0 .54-.06.75-.19.21-.12.38-.3.5-.53s.17-.5.17-.81h.34c0 .68-.15 1.22-.46 1.62s-.75.6-1.34.6Zm1.5-.12-.04-.82v-1.82c0-.39-.04-.72-.13-.98s-.22-.45-.41-.58-.43-.2-.73-.2c-.27 0-.51.05-.71.17-.2.11-.36.28-.48.52l-.72-.28c.13-.23.28-.43.46-.6q.27-.255.63-.39c.24-.09.51-.14.82-.14.47 0 .85.09 1.16.27.3.18.53.45.68.81s.23.8.22 1.33v2.71z" fill="#fffdf1"/>
        <path d="M144.7 49.95c-.45 0-.84-.11-1.18-.33s-.61-.53-.79-.92c-.19-.4-.29-.85-.29-1.37s.09-.98.29-1.37c.19-.39.46-.7.79-.92.34-.22.73-.33 1.18-.33q.63 0 1.11.33c.32.22.56.53.73.92s.26.85.26 1.37-.09.97-.26 1.37-.42.7-.73.92q-.48.33-1.11.33m.18-.73q.435 0 .78-.24c.23-.16.41-.38.54-.67s.2-.61.2-.98-.07-.69-.2-.98-.31-.51-.54-.67-.49-.24-.79-.24-.59.08-.83.24-.43.38-.58.67c-.14.29-.21.61-.21.98s.07.69.21.98.33.51.58.67q.375.24.84.24m1.51 2.61v-6.07l.04-.93h.76v7z" fill="#fffdf1"/>
        <path d="M148.18 47.39v-2.56h.8v2.56zm.8 0c0 .49.06.87.17 1.13s.27.44.47.54q.3.15.69.15c.43 0 .77-.16 1.01-.47s.37-.75.37-1.31h.39c0 .53-.08.98-.23 1.36s-.38.67-.67.87-.65.3-1.07.3q-.585 0-1.02-.24c-.29-.16-.52-.41-.68-.75s-.24-.79-.24-1.33v-.24h.8Zm2.76 2.44-.05-.92v-4.08h.8v5z" fill="#fffdf1"/>
        <path d="M155.88 49.95q-.735 0-1.29-.33c-.37-.22-.67-.53-.88-.93-.21-.39-.31-.85-.31-1.36s.1-.97.31-1.36q.315-.585.87-.93c.37-.22.79-.33 1.28-.33s.87.12 1.21.35.6.55.79.96.28.9.28 1.46h-4.13l.2-.17c0 .4.07.74.21 1.03s.35.51.61.66.56.23.89.23c.35 0 .65-.08.9-.25s.43-.39.56-.66l.69.35c-.13.26-.29.49-.5.68s-.46.34-.74.45-.6.16-.95.16Zm-1.62-2.98-.21-.16h3.45l-.21.17c0-.32-.06-.6-.19-.83q-.195-.345-.51-.54c-.21-.13-.46-.19-.74-.19s-.53.06-.78.19c-.24.13-.44.31-.59.54s-.23.5-.23.83Z" fill="#fffdf1"/>
        <path d="M163.45 49.95c-.49 0-.93-.11-1.31-.33a2.3 2.3 0 0 1-.89-.93c-.21-.39-.32-.85-.32-1.36s.1-.97.31-1.36.51-.7.89-.93c.38-.22.81-.33 1.3-.33s.91.11 1.29.33q.57.33.87.93l-.73.33c-.13-.27-.33-.48-.58-.62-.25-.15-.54-.23-.87-.23s-.61.08-.86.24-.45.38-.59.67c-.14.28-.21.61-.21.98s.07.69.21.98c.14.28.34.5.6.67.26.16.55.24.88.24s.62-.08.88-.25.45-.4.58-.7l.73.33c-.2.43-.49.76-.87 1s-.81.36-1.3.36Z" fill="#fffdf1"/>
        <path d="M168.01 49.95c-.59 0-1.04-.14-1.38-.41s-.5-.65-.5-1.12c0-.51.17-.9.5-1.17s.81-.4 1.42-.4h1.43v.67h-1.25c-.47 0-.8.08-1 .23s-.29.37-.29.66c0 .26.1.46.29.61s.46.23.81.23c.29 0 .54-.06.75-.19.21-.12.38-.3.5-.53s.17-.5.17-.81h.34c0 .68-.15 1.22-.46 1.62s-.75.6-1.34.6Zm1.5-.12-.04-.82v-1.82c0-.39-.04-.72-.13-.98s-.22-.45-.41-.58-.43-.2-.73-.2c-.27 0-.51.05-.71.17-.2.11-.36.28-.48.52l-.72-.28c.13-.23.28-.43.46-.6q.27-.255.63-.39c.24-.09.51-.14.82-.14.47 0 .85.09 1.16.27.3.18.53.45.68.81s.23.8.22 1.33v2.71z" fill="#fffdf1"/>
        <path d="M173.3 49.95c-.45 0-.84-.11-1.18-.33s-.61-.53-.79-.92c-.19-.4-.29-.85-.29-1.37s.09-.98.29-1.37c.19-.39.46-.7.79-.92.34-.22.73-.33 1.18-.33q.63 0 1.11.33c.32.22.56.53.73.92s.26.85.26 1.37-.09.97-.26 1.37-.42.7-.73.92q-.48.33-1.11.33m.18-.73q.435 0 .78-.24c.23-.16.41-.38.54-.67s.2-.61.2-.98-.07-.69-.2-.98-.31-.51-.54-.67-.49-.24-.79-.24-.59.08-.83.24-.43.38-.58.67c-.14.29-.21.61-.21.98s.07.69.21.98.33.51.58.67q.375.24.84.24m1.55.61-.04-.93v-6.07h.8v7z" fill="#fffdf1"/>
        <path d="M178.57 49.95c-.59 0-1.04-.14-1.38-.41s-.5-.65-.5-1.12c0-.51.17-.9.5-1.17s.81-.4 1.42-.4h1.43v.67h-1.25c-.47 0-.8.08-1 .23s-.29.37-.29.66c0 .26.1.46.29.61s.46.23.81.23c.29 0 .54-.06.75-.19.21-.12.38-.3.5-.53s.17-.5.17-.81h.34c0 .68-.15 1.22-.46 1.62s-.75.6-1.34.6Zm1.5-.12-.04-.82v-1.82c0-.39-.04-.72-.13-.98s-.22-.45-.41-.58-.43-.2-.73-.2c-.27 0-.51.05-.71.17-.2.11-.36.28-.48.52l-.72-.28c.13-.23.28-.43.46-.6q.27-.255.63-.39c.24-.09.51-.14.82-.14.47 0 .85.09 1.16.27.3.18.53.45.68.81s.23.8.22 1.33v2.71z" fill="#fffdf1"/>
        <path d="M184.16 49.83v-5h.8v5zm.44-2.71c0-.54.1-.98.31-1.31.21-.34.47-.59.79-.75s.67-.25 1.02-.25v.75q-.435 0-.84.15c-.27.1-.49.25-.67.48-.17.22-.26.52-.26.9l-.36.04Z" fill="#fffdf1"/>
        <path d="M189.53 49.95q-.735 0-1.29-.33c-.37-.22-.67-.53-.88-.93-.21-.39-.31-.85-.31-1.36s.1-.97.31-1.36q.315-.585.87-.93c.37-.22.79-.33 1.28-.33s.87.12 1.21.35.6.55.79.96.28.9.28 1.46h-4.13l.2-.17c0 .4.07.74.21 1.03s.35.51.61.66.56.23.89.23c.35 0 .65-.08.9-.25s.43-.39.56-.66l.69.35c-.13.26-.29.49-.5.68s-.46.34-.74.45-.6.16-.95.16Zm-1.62-2.98-.21-.16h3.45l-.21.17c0-.32-.06-.6-.19-.83q-.195-.345-.51-.54c-.21-.13-.46-.19-.74-.19s-.53.06-.78.19c-.24.13-.44.31-.59.54s-.23.5-.23.83Z" fill="#fffdf1"/>
        <path d="M192.18 45.52v-.69h3.17v.69zm.92 4.31v-5.57c0-.52.12-.91.37-1.18.24-.26.61-.4 1.11-.4.13 0 .28.02.45.07s.34.11.53.2l-.3.63c-.15-.06-.28-.11-.39-.14s-.2-.05-.27-.05c-.23 0-.41.08-.53.23s-.17.38-.17.7v5.51z" fill="#fffdf1"/>
        <path d="M198.25 49.95q-.735 0-1.29-.33c-.37-.22-.67-.53-.88-.93-.21-.39-.31-.85-.31-1.36s.1-.97.31-1.36q.315-.585.87-.93c.37-.22.79-.33 1.28-.33s.87.12 1.21.35.6.55.79.96.28.9.28 1.46h-4.13l.2-.17c0 .4.07.74.21 1.03s.35.51.61.66.56.23.89.23c.35 0 .65-.08.9-.25s.43-.39.56-.66l.69.35c-.13.26-.29.49-.5.68s-.46.34-.74.45-.6.16-.95.16Zm-1.62-2.98-.21-.16h3.45l-.21.17c0-.32-.06-.6-.19-.83q-.195-.345-.51-.54c-.21-.13-.46-.19-.74-.19s-.53.06-.78.19c-.24.13-.44.31-.59.54s-.23.5-.23.83Z" fill="#fffdf1"/>
        <path d="M201.78 43.67c-.13 0-.25-.05-.35-.15a.485.485 0 0 1 0-.7.485.485 0 0 1 .7 0 .485.485 0 0 1 0 .7c-.1.1-.21.15-.35.15m-.41 6.16v-5h.8v5z" fill="#fffdf1"/>
        <path d="M205.67 49.95c-.49 0-.93-.11-1.31-.33a2.3 2.3 0 0 1-.89-.93c-.21-.39-.32-.85-.32-1.36s.1-.97.31-1.36.51-.7.89-.93c.38-.22.81-.33 1.3-.33s.91.11 1.29.33q.57.33.87.93l-.73.33c-.13-.27-.33-.48-.58-.62-.25-.15-.54-.23-.87-.23s-.61.08-.86.24-.45.38-.59.67c-.14.28-.21.61-.21.98s.07.69.21.98c.14.28.34.5.6.67.26.16.55.24.88.24s.62-.08.88-.25.45-.4.58-.7l.73.33c-.2.43-.49.76-.87 1s-.81.36-1.3.36Zm-.31 1.98c-.13 0-.27-.02-.42-.05s-.33-.11-.54-.22l.2-.48c.1.05.21.09.32.14.12.05.22.07.32.07.12 0 .23-.02.33-.07s.14-.14.14-.29a.44.44 0 0 0-.18-.38c-.12-.08-.32-.15-.58-.19l.3-.7.53.12-.11.26c.25.09.42.21.53.37s.16.32.16.5c0 .26-.08.48-.24.65s-.41.27-.75.27Z" fill="#fffdf1"/>
        <path d="M210.23 49.95c-.59 0-1.04-.14-1.38-.41s-.5-.65-.5-1.12c0-.51.17-.9.5-1.17s.81-.4 1.42-.4h1.43v.67h-1.25c-.47 0-.8.08-1 .23s-.29.37-.29.66c0 .26.1.46.29.61s.46.23.81.23c.29 0 .54-.06.75-.19.21-.12.38-.3.5-.53s.17-.5.17-.81h.34c0 .68-.15 1.22-.46 1.62s-.75.6-1.34.6Zm1.5-.12-.04-.82v-1.82c0-.39-.04-.72-.13-.98s-.22-.45-.41-.58-.43-.2-.73-.2c-.27 0-.51.05-.71.17-.2.11-.36.28-.48.52l-.72-.28c.13-.23.28-.43.46-.6q.27-.255.63-.39c.24-.09.51-.14.82-.14.47 0 .85.09 1.16.27.3.18.53.45.68.81s.23.8.22 1.33v2.71zm-.44-5.66c-.19 0-.35-.04-.47-.11s-.22-.16-.29-.25c-.08-.09-.15-.18-.21-.25-.07-.07-.14-.11-.23-.11-.11 0-.19.03-.25.08-.06.06-.1.15-.13.29h-.65c.02-.18.07-.35.16-.5s.2-.28.35-.38c.15-.09.32-.14.51-.14s.34.04.45.11.21.16.29.25.15.18.22.25.16.11.25.11c.11 0 .2-.03.25-.1s.09-.16.11-.28h.64c-.03.27-.13.5-.3.71s-.4.31-.7.31Z" fill="#fffdf1"/>
        <path d="M215.76 49.95c-.49 0-.93-.11-1.3-.33-.38-.22-.67-.53-.88-.93-.21-.39-.32-.85-.32-1.36s.1-.97.31-1.36.5-.7.88-.93q.57-.33 1.29-.33c.72 0 .92.11 1.29.33.38.22.67.53.88.93.21.39.31.85.31 1.36s-.1.97-.31 1.36-.5.7-.88.93c-.37.22-.8.33-1.28.33Zm-.01-.74q.495 0 .87-.24c.25-.16.45-.38.59-.67.14-.28.21-.61.21-.98s-.07-.69-.21-.98c-.14-.28-.34-.5-.6-.67-.25-.16-.55-.24-.88-.24s-.61.08-.86.24-.45.38-.59.66-.21.61-.21.98.07.69.21.98c.14.28.34.5.6.67.26.16.55.24.88.24Z" fill="#fffdf1"/>
        <path d="M223.16 49.95c-.37 0-.69-.06-.96-.17s-.5-.25-.69-.44-.31-.38-.39-.59l.7-.29c.11.23.28.41.51.55s.48.21.75.21c.31 0 .58-.06.79-.19.21-.12.32-.3.32-.52 0-.21-.08-.37-.24-.5s-.39-.23-.7-.31l-.48-.13c-.45-.12-.81-.3-1.06-.54s-.38-.52-.38-.83c0-.47.16-.84.46-1.1.31-.26.77-.4 1.39-.4.29 0 .56.04.8.13s.45.21.62.37.3.34.38.56l-.7.31a.87.87 0 0 0-.43-.49c-.2-.1-.44-.15-.73-.15-.31 0-.55.06-.72.19s-.26.31-.26.54c0 .13.07.26.21.38s.35.21.63.29l.5.13c.33.08.6.2.82.35.22.16.39.33.5.54.11.2.17.41.17.64q0 .45-.24.78c-.16.22-.38.39-.65.5-.27.12-.59.18-.94.18Z" fill="#fffdf1"/>
        <path d="M228.06 49.95q-.735 0-1.29-.33c-.37-.22-.67-.53-.88-.93-.21-.39-.31-.85-.31-1.36s.1-.97.31-1.36q.315-.585.87-.93c.37-.22.79-.33 1.28-.33s.87.12 1.21.35.6.55.79.96.28.9.28 1.46h-4.13l.2-.17c0 .4.07.74.21 1.03s.35.51.61.66.56.23.89.23c.35 0 .65-.08.9-.25s.43-.39.56-.66l.69.35c-.13.26-.29.49-.5.68s-.46.34-.74.45-.6.16-.95.16Zm-1.62-2.98-.21-.16h3.45l-.21.17c0-.32-.06-.6-.19-.83q-.195-.345-.51-.54c-.21-.13-.46-.19-.74-.19s-.53.06-.78.19c-.24.13-.44.31-.59.54s-.23.5-.23.83Z" fill="#fffdf1"/>
        <path d="M230.84 51.98c-.25 0-.56-.09-.94-.26l.3-.67c.16.06.3.11.41.14s.2.05.27.05c.45 0 .68-.29.68-.87v-5.54h.8v5.56c0 .52-.13.92-.38 1.19s-.63.4-1.13.4Zm1.11-8.32c-.13 0-.25-.05-.35-.15s-.15-.22-.15-.35c0-.15.05-.27.15-.37s.22-.15.35-.15q.21 0 .36.15c.1.1.15.22.15.37 0 .13-.05.25-.15.35q-.15.15-.36.15" fill="#fffdf1"/>
        <path d="M235.2 49.95c-.59 0-1.04-.14-1.38-.41s-.5-.65-.5-1.12c0-.51.17-.9.5-1.17s.81-.4 1.42-.4h1.43v.67h-1.25c-.47 0-.8.08-1 .23s-.29.37-.29.66c0 .26.1.46.29.61s.46.23.81.23c.29 0 .54-.06.75-.19.21-.12.38-.3.5-.53s.17-.5.17-.81h.34c0 .68-.15 1.22-.46 1.62s-.75.6-1.34.6Zm1.5-.12-.04-.82v-1.82c0-.39-.04-.72-.13-.98s-.22-.45-.41-.58-.43-.2-.73-.2c-.27 0-.51.05-.71.17-.2.11-.36.28-.48.52l-.72-.28c.13-.23.28-.43.46-.6q.27-.255.63-.39c.24-.09.51-.14.82-.14.47 0 .85.09 1.16.27.3.18.53.45.68.81s.23.8.22 1.33v2.71z" fill="#fffdf1"/>
        <path d="M82.32 58.89v-2.56h.8v2.56zm.8 0c0 .49.06.87.17 1.13s.27.44.47.54q.3.15.69.15c.43 0 .77-.16 1.01-.47s.37-.75.37-1.31h.39c0 .53-.08.98-.23 1.36s-.38.67-.67.87-.65.3-1.07.3q-.585 0-1.02-.24c-.29-.16-.52-.41-.68-.75s-.24-.79-.24-1.33v-.24h.8Zm2.76 2.44-.05-.92v-4.08h.8v5z" fill="#fffdf1"/>
        <path d="M88.03 61.33v-5h.75l.04.7c.15-.27.35-.47.59-.61q.36-.21.84-.21c.4 0 .74.09 1.03.28.28.19.49.47.61.85.14-.37.35-.65.62-.84s.59-.29.96-.29c.56 0 1 .19 1.33.56.32.37.48.94.48 1.7v2.86h-.8v-2.56c0-.49-.05-.87-.15-1.13q-.15-.39-.42-.54-.255-.15-.6-.15c-.39 0-.7.16-.92.47s-.33.75-.33 1.31v2.59h-.8v-2.56c0-.49-.05-.87-.16-1.13q-.15-.39-.42-.54c-.27-.15-.38-.15-.6-.15-.39 0-.69.16-.91.47s-.33.75-.33 1.31v2.59h-.8Z" fill="#fffdf1"/>
        <path d="M98.12 61.45c-.59 0-1.04-.14-1.38-.41s-.5-.65-.5-1.12c0-.51.17-.9.5-1.17s.81-.4 1.42-.4h1.43v.67h-1.25c-.47 0-.8.08-1 .23s-.29.37-.29.66c0 .26.1.46.29.61s.46.23.81.23c.29 0 .54-.06.75-.19.21-.12.38-.3.5-.53s.17-.5.17-.81h.34c0 .68-.15 1.22-.46 1.62s-.75.6-1.34.6Zm1.5-.12-.04-.82v-1.82c0-.39-.04-.72-.13-.98s-.22-.45-.41-.58-.43-.2-.73-.2c-.27 0-.51.05-.71.17-.2.11-.36.28-.48.52l-.72-.28c.13-.23.28-.43.46-.6q.27-.255.63-.39c.24-.09.51-.14.82-.14.47 0 .85.09 1.16.27.3.18.53.45.68.81s.23.8.22 1.33v2.71z" fill="#fffdf1"/>
        <path d="M106.3 61.45q-.735 0-1.29-.33c-.37-.22-.67-.53-.88-.93-.21-.39-.31-.85-.31-1.36s.1-.97.31-1.36q.315-.585.87-.93c.37-.22.79-.33 1.28-.33s.87.12 1.21.35.6.55.79.96.28.9.28 1.46h-4.13l.2-.17c0 .4.07.74.21 1.03s.35.51.61.66.56.23.89.23c.35 0 .65-.08.9-.25s.43-.39.56-.66l.69.35c-.13.26-.29.49-.5.68s-.46.34-.74.45-.6.16-.95.16Zm-1.62-2.98-.21-.16h3.45l-.21.17c0-.32-.06-.6-.19-.83q-.195-.345-.51-.54c-.21-.13-.46-.19-.74-.19s-.53.06-.78.19c-.24.13-.44.31-.59.54s-.23.5-.23.83Z" fill="#fffdf1"/>
        <path d="m108.92 61.33 2.04-2.87 1.44-2.13h.95l-1.9 2.7-1.56 2.3zm3.59 0-1.54-2.3-1.92-2.7h.95l1.45 2.13 2.02 2.87z" fill="#fffdf1"/>
        <path d="M114.32 63.33v-7h.75l.05.92v6.08zm2.49-1.88q-.63 0-1.11-.33c-.32-.22-.56-.53-.73-.92-.17-.4-.26-.85-.26-1.37s.09-.98.26-1.37.42-.7.73-.92q.48-.33 1.11-.33c.45 0 .84.11 1.18.33s.61.53.79.92c.19.39.29.85.29 1.37s-.09.97-.29 1.37c-.19.4-.46.7-.79.92-.34.22-.73.33-1.18.33m-.18-.73c.31 0 .59-.08.83-.24s.44-.38.58-.67c.14-.28.22-.61.22-.98s-.07-.69-.21-.98-.33-.51-.57-.67-.53-.24-.84-.24c-.29 0-.56.08-.79.24s-.41.38-.54.67-.2.61-.2.98.07.69.2.98.31.51.54.67q.345.24.78.24" fill="#fffdf1"/>
        <path d="M122.37 61.45q-.735 0-1.29-.33c-.37-.22-.67-.53-.88-.93-.21-.39-.31-.85-.31-1.36s.1-.97.31-1.36q.315-.585.87-.93c.37-.22.79-.33 1.28-.33s.87.12 1.21.35.6.55.79.96.28.9.28 1.46h-4.13l.2-.17c0 .4.07.74.21 1.03s.35.51.61.66.56.23.89.23c.35 0 .65-.08.9-.25s.43-.39.56-.66l.69.35c-.13.26-.29.49-.5.68s-.46.34-.74.45-.6.16-.95.16Zm-1.62-2.98-.21-.16h3.45l-.21.17c0-.32-.06-.6-.19-.83q-.195-.345-.51-.54c-.21-.13-.46-.19-.74-.19s-.53.06-.78.19c-.24.13-.44.31-.59.54s-.23.5-.23.83Z" fill="#fffdf1"/>
        <path d="M125.64 61.33v-5h.8v5zm.44-2.71c0-.54.1-.98.31-1.31.21-.34.47-.59.79-.75s.67-.25 1.02-.25v.75q-.435 0-.84.15c-.27.1-.49.25-.67.48-.17.22-.26.52-.26.9l-.36.04Z" fill="#fffdf1"/>
        <path d="M129.48 55.17c-.13 0-.25-.05-.35-.15a.485.485 0 0 1 0-.7.485.485 0 0 1 .7 0 .485.485 0 0 1 0 .7c-.1.1-.21.15-.35.15m-.41 6.16v-5h.8v5z" fill="#fffdf1"/>
        <path d="M133.53 61.45q-.735 0-1.29-.33c-.37-.22-.67-.53-.88-.93-.21-.39-.31-.85-.31-1.36s.1-.97.31-1.36q.315-.585.87-.93c.37-.22.79-.33 1.28-.33s.87.12 1.21.35.6.55.79.96.28.9.28 1.46h-4.13l.2-.17c0 .4.07.74.21 1.03s.35.51.61.66.56.23.89.23c.35 0 .65-.08.9-.25s.43-.39.56-.66l.69.35c-.13.26-.29.49-.5.68s-.46.34-.74.45-.6.16-.95.16Zm-1.62-2.98-.21-.16h3.45l-.21.17c0-.32-.06-.6-.19-.83q-.195-.345-.51-.54c-.21-.13-.46-.19-.74-.19s-.53.06-.78.19c-.24.13-.44.31-.59.54s-.23.5-.23.83Zm-.11-2.96 1.21-1.3h.98v.03l-1.31 1.27zm2.53 0-1.31-1.27v-.03h.98l1.21 1.3z" fill="#fffdf1"/>
        <path d="M136.81 61.33v-5h.75l.05.92v4.08zm3.51-2.56c0-.49-.06-.87-.17-1.13s-.27-.44-.47-.54-.43-.15-.68-.15c-.44 0-.78.16-1.02.47s-.37.75-.37 1.31h-.39c0-.53.08-.98.23-1.36s.38-.67.67-.87.65-.3 1.06-.3q.585 0 1.02.24c.29.16.52.4.68.74s.24.79.23 1.34v.24h-.8Zm0 2.56v-2.56h.8v2.56z" fill="#fffdf1"/>
        <path d="M144.62 61.45c-.49 0-.93-.11-1.31-.33a2.3 2.3 0 0 1-.89-.93c-.21-.39-.32-.85-.32-1.36s.1-.97.31-1.36.51-.7.89-.93c.38-.22.81-.33 1.3-.33s.91.11 1.29.33q.57.33.87.93l-.73.33c-.13-.27-.33-.48-.58-.62-.25-.15-.54-.23-.87-.23s-.61.08-.86.24-.45.38-.59.67c-.14.28-.21.61-.21.98s.07.69.21.98c.14.28.34.5.6.67.26.16.55.24.88.24s.62-.08.88-.25.45-.4.58-.7l.73.33c-.2.43-.49.76-.87 1s-.81.36-1.3.36Z" fill="#fffdf1"/>
        <path d="M148.26 55.17c-.13 0-.25-.05-.35-.15a.485.485 0 0 1 0-.7.485.485 0 0 1 .7 0 .485.485 0 0 1 0 .7c-.1.1-.21.15-.35.15m-.41 6.16v-5h.8v5z" fill="#fffdf1"/>
        <path d="M151.7 61.45c-.59 0-1.04-.14-1.38-.41s-.5-.65-.5-1.12c0-.51.17-.9.5-1.17s.81-.4 1.42-.4h1.43v.67h-1.25c-.47 0-.8.08-1 .23s-.29.37-.29.66c0 .26.1.46.29.61s.46.23.81.23c.29 0 .54-.06.75-.19.21-.12.38-.3.5-.53s.17-.5.17-.81h.34c0 .68-.15 1.22-.46 1.62s-.75.6-1.34.6Zm1.5-.12-.04-.82v-1.82c0-.39-.04-.72-.13-.98s-.22-.45-.41-.58-.43-.2-.73-.2c-.27 0-.51.05-.71.17-.2.11-.36.28-.48.52l-.72-.28c.13-.23.28-.43.46-.6q.27-.255.63-.39c.24-.09.51-.14.82-.14.47 0 .85.09 1.16.27.3.18.53.45.68.81s.23.8.22 1.33v2.71z" fill="#fffdf1"/>
        <path d="M159.66 61.45c-.45 0-.84-.11-1.18-.33s-.61-.53-.79-.92c-.19-.4-.29-.85-.29-1.37s.09-.98.29-1.37c.19-.39.46-.7.79-.92.34-.22.73-.33 1.18-.33q.63 0 1.11.33c.32.22.56.53.73.92s.26.85.26 1.37-.09.97-.26 1.37-.42.7-.73.92q-.48.33-1.11.33m.18-.73q.435 0 .78-.24c.23-.16.41-.38.54-.67s.2-.61.2-.98-.07-.69-.2-.98-.31-.51-.54-.67-.49-.24-.79-.24-.59.08-.83.24-.43.38-.58.67c-.14.29-.21.61-.21.98s.07.69.21.98.33.51.58.67q.375.24.84.24m1.55.61-.04-.93v-6.07h.8v7z" fill="#fffdf1"/>
        <path d="M165.74 61.45q-.735 0-1.29-.33c-.37-.22-.67-.53-.88-.93-.21-.39-.31-.85-.31-1.36s.1-.97.31-1.36q.315-.585.87-.93c.37-.22.79-.33 1.28-.33s.87.12 1.21.35.6.55.79.96.28.9.28 1.46h-4.13l.2-.17c0 .4.07.74.21 1.03s.35.51.61.66.56.23.89.23c.35 0 .65-.08.9-.25s.43-.39.56-.66l.69.35c-.13.26-.29.49-.5.68s-.46.34-.74.45-.6.16-.95.16Zm-1.62-2.98-.21-.16h3.45l-.21.17c0-.32-.06-.6-.19-.83q-.195-.345-.51-.54c-.21-.13-.46-.19-.74-.19s-.53.06-.78.19c-.24.13-.44.31-.59.54s-.23.5-.23.83Z" fill="#fffdf1"/>
        <path d="M173.06 61.45c-.59 0-1.04-.14-1.38-.41s-.5-.65-.5-1.12c0-.51.17-.9.5-1.17s.81-.4 1.42-.4h1.43v.67h-1.25c-.47 0-.8.08-1 .23s-.29.37-.29.66c0 .26.1.46.29.61s.46.23.81.23c.29 0 .54-.06.75-.19.21-.12.38-.3.5-.53s.17-.5.17-.81h.34c0 .68-.15 1.22-.46 1.62s-.75.6-1.34.6Zm1.5-.12-.04-.82v-1.82c0-.39-.04-.72-.13-.98s-.22-.45-.41-.58-.43-.2-.73-.2c-.27 0-.51.05-.71.17-.2.11-.36.28-.48.52l-.72-.28c.13-.23.28-.43.46-.6q.27-.255.63-.39c.24-.09.51-.14.82-.14.47 0 .85.09 1.16.27.3.18.53.45.68.81s.23.8.22 1.33v2.71z" fill="#fffdf1"/>
        <path d="M176.58 61.33v-5h.75l.04.7c.15-.27.35-.47.59-.61q.36-.21.84-.21c.4 0 .74.09 1.03.28.28.19.49.47.61.85.14-.37.35-.65.62-.84s.59-.29.96-.29c.56 0 1 .19 1.33.56.32.37.48.94.48 1.7v2.86h-.8v-2.56c0-.49-.05-.87-.15-1.13q-.15-.39-.42-.54-.255-.15-.6-.15c-.39 0-.7.16-.92.47s-.33.75-.33 1.31v2.59h-.8v-2.56c0-.49-.05-.87-.16-1.13q-.15-.39-.42-.54c-.27-.15-.38-.15-.6-.15-.39 0-.69.16-.91.47s-.33.75-.33 1.31v2.59h-.8Z" fill="#fffdf1"/>
        <path d="M187.31 61.45c-.49 0-.93-.11-1.3-.33-.38-.22-.67-.53-.88-.93-.21-.39-.32-.85-.32-1.36s.1-.97.31-1.36.5-.7.88-.93q.57-.33 1.29-.33c.72 0 .92.11 1.29.33.38.22.67.53.88.93.21.39.31.85.31 1.36s-.1.97-.31 1.36-.5.7-.88.93c-.37.22-.8.33-1.28.33Zm-.01-.74q.495 0 .87-.24c.25-.16.45-.38.59-.67.14-.28.21-.61.21-.98s-.07-.69-.21-.98c-.14-.28-.34-.5-.6-.67-.25-.16-.55-.24-.88-.24s-.61.08-.86.24-.45.38-.59.66-.21.61-.21.98.07.69.21.98c.14.28.34.5.6.67.26.16.55.24.88.24Z" fill="#fffdf1"/>
        <path d="M190.89 61.33v-5h.8v5zm.44-2.71c0-.54.1-.98.31-1.31.21-.34.47-.59.79-.75s.67-.25 1.02-.25v.75q-.435 0-.84.15c-.27.1-.49.25-.67.48-.17.22-.26.52-.26.9l-.36.04Z" fill="#fffdf1"/>
        <path d="M198.93 61.45q-.735 0-1.29-.33c-.37-.22-.67-.53-.88-.93-.21-.39-.31-.85-.31-1.36s.1-.97.31-1.36q.315-.585.87-.93c.37-.22.79-.33 1.28-.33s.87.12 1.21.35.6.55.79.96.28.9.28 1.46h-4.13l.2-.17c0 .4.07.74.21 1.03s.35.51.61.66.56.23.89.23c.35 0 .65-.08.9-.25s.43-.39.56-.66l.69.35c-.13.26-.29.49-.5.68s-.46.34-.74.45-.6.16-.95.16Zm-1.62-2.98-.21-.16h3.45l-.21.17c0-.32-.06-.6-.19-.83q-.195-.345-.51-.54c-.21-.13-.46-.19-.74-.19s-.53.06-.78.19c-.24.13-.44.31-.59.54s-.23.5-.23.83Z" fill="#fffdf1"/>
        <path d="M206.25 61.45c-.59 0-1.04-.14-1.38-.41s-.5-.65-.5-1.12c0-.51.17-.9.5-1.17s.81-.4 1.42-.4h1.43v.67h-1.25c-.47 0-.8.08-1 .23s-.29.37-.29.66c0 .26.1.46.29.61s.46.23.81.23c.29 0 .54-.06.75-.19.21-.12.38-.3.5-.53s.17-.5.17-.81h.34c0 .68-.15 1.22-.46 1.62s-.75.6-1.34.6Zm1.5-.12-.04-.82v-1.82c0-.39-.04-.72-.13-.98s-.22-.45-.41-.58-.43-.2-.73-.2c-.27 0-.51.05-.71.17-.2.11-.36.28-.48.52l-.72-.28c.13-.23.28-.43.46-.6q.27-.255.63-.39c.24-.09.51-.14.82-.14.47 0 .85.09 1.16.27.3.18.53.45.68.81s.23.8.22 1.33v2.71z" fill="#fffdf1"/>
        <path d="M209.77 61.33v-7h.8v7z" fill="#fffdf1"/>
        <path d="M214.16 61.45q-.735 0-1.29-.33c-.37-.22-.67-.53-.88-.93-.21-.39-.31-.85-.31-1.36s.1-.97.31-1.36q.315-.585.87-.93c.37-.22.79-.33 1.28-.33s.87.12 1.21.35.6.55.79.96.28.9.28 1.46h-4.13l.2-.17c0 .4.07.74.21 1.03s.35.51.61.66.56.23.89.23c.35 0 .65-.08.9-.25s.43-.39.56-.66l.69.35c-.13.26-.29.49-.5.68s-.46.34-.74.45-.6.16-.95.16Zm-1.62-2.98-.21-.16h3.45l-.21.17c0-.32-.06-.6-.19-.83q-.195-.345-.51-.54c-.21-.13-.46-.19-.74-.19s-.53.06-.78.19c-.24.13-.44.31-.59.54s-.23.5-.23.83Z" fill="#fffdf1"/>
        <path d="M219.4 61.29c-.45 0-.84-.11-1.18-.32s-.61-.51-.79-.9c-.19-.38-.29-.82-.29-1.31s.09-.95.29-1.33c.19-.38.46-.68.79-.9s.73-.32 1.18-.32c.42 0 .79.11 1.1.32s.56.51.74.9.26.83.26 1.33-.09.94-.26 1.32-.42.68-.74.89c-.31.21-.68.32-1.1.32m.03 2.16c-.32 0-.61-.03-.88-.1-.26-.06-.49-.13-.67-.21s-.32-.14-.4-.19l.3-.65c.09.05.21.1.37.17a3.2 3.2 0 0 0 1.27.25c.32 0 .61-.06.86-.19s.46-.33.6-.61.21-.63.21-1.07v-4.53h.8v4.52c0 .57-.11 1.05-.32 1.44s-.51.68-.88.87-.8.29-1.27.29Zm.16-2.85q.435 0 .78-.24c.23-.16.4-.38.53-.65.13-.28.19-.6.19-.96s-.07-.67-.2-.95-.31-.49-.53-.65-.48-.23-.79-.23-.59.08-.83.23-.43.37-.57.65-.21.59-.21.95.07.69.21.96c.14.28.33.5.58.65.24.16.52.24.83.24Z" fill="#fffdf1"/>
        <path d="M223.3 61.33v-5h.8v5zm.44-2.71c0-.54.1-.98.31-1.31.21-.34.47-.59.79-.75s.67-.25 1.02-.25v.75q-.435 0-.84.15c-.27.1-.49.25-.67.48-.17.22-.26.52-.26.9l-.36.04Z" fill="#fffdf1"/>
        <path d="M227.14 55.17c-.13 0-.25-.05-.35-.15a.485.485 0 0 1 0-.7.485.485 0 0 1 .7 0 .485.485 0 0 1 0 .7c-.1.1-.21.15-.35.15m-.41 6.16v-5h.8v5z" fill="#fffdf1"/>
        <path d="M230.58 61.45c-.59 0-1.04-.14-1.38-.41s-.5-.65-.5-1.12c0-.51.17-.9.5-1.17s.81-.4 1.42-.4h1.43v.67h-1.25c-.47 0-.8.08-1 .23s-.29.37-.29.66c0 .26.1.46.29.61s.46.23.81.23c.29 0 .54-.06.75-.19.21-.12.38-.3.5-.53s.17-.5.17-.81h.34c0 .68-.15 1.22-.46 1.62s-.75.6-1.34.6Zm1.5-.12-.04-.82v-1.82c0-.39-.04-.72-.13-.98s-.22-.45-.41-.58-.43-.2-.73-.2c-.27 0-.51.05-.71.17-.2.11-.36.28-.48.52l-.72-.28c.13-.23.28-.43.46-.6q.27-.255.63-.39c.24-.09.51-.14.82-.14.47 0 .85.09 1.16.27.3.18.53.45.68.81s.23.8.22 1.33v2.71z" fill="#fffdf1"/>
        <path d="M234.44 61.47a.56.56 0 0 1-.4-.17.53.53 0 0 1-.16-.39.567.567 0 0 1 .56-.57c.16 0 .28.06.39.17s.16.24.16.4-.05.28-.16.39-.24.17-.39.17" fill="#fffdf1"/>
    </g>
</svg>
