<?xml version="1.0" encoding="UTF-8"?>
<svg data-bbox="0 0 240.22 70.6" viewBox="0 0 240.23 70.6" xmlns="http://www.w3.org/2000/svg" data-type="color">
    <g>
        <path fill="#fffdf1" d="M70.6 35.3c0 19.496-15.804 35.3-35.3 35.3S0 54.796 0 35.3 15.804 0 35.3 0s35.3 15.804 35.3 35.3" data-color="1"/>
        <path d="M45.79 20.32v30.75c0 .31.25.57.57.57h8.28c.31 0 .57-.25.57-.57V20.32a.57.57 0 0 0-.57-.57h-8.28a.57.57 0 0 0-.57.57m1.14 27.48v2.71h7.14V20.89h-7.14v2.71h2.98c.31 0 .57.26.57.57s-.26.57-.57.57h-2.98v2.71h1.8a.57.57 0 1 1 0 1.14h-1.8v2.71h2.98a.57.57 0 1 1 0 1.14h-2.98v2.71h1.8a.57.57 0 1 1 0 1.14h-1.8V39h2.98a.57.57 0 1 1 0 1.14h-2.98v2.71h1.8a.57.57 0 1 1 0 1.14h-1.8v2.71h2.98a.57.57 0 1 1 0 1.14h-2.98z" fill="#275e29" fill-rule="evenodd" data-color="2"/>
        <path d="M41.39 25.03c.48 0 .88.38.88.85 0 .3-.16.57-.4.72-.07 3.78-.38 4.98-5 5.24-2.51.14-4.85.79-3.71 4 1.75 4.86 3.51 9.72 5.26 14.57H35.3c-1.79 0-2.05-.63-2.67-2.19-.84-2.11-1.27-3.2-2.11-5.32-3.31 1.25-5.46.83-5.07 4l2.73.19c1.73.18 3.2 3.41-.1 3.41H17.6c-1.04-.64-3.3-3.73-4.72-5.61l-.07-.1c-3.97-1.76-4.93-6.75-2.06-7.7 2.77-.92 4 .4 4.22.48.18.97-.56 1.22-1.69 1.25-2.63.06-1.56 3.19 1.07 4.21 1.24.48 11.34-10.36 12.95-11.94-.02-2.71.2-4.57.81-5.78-.22-.89-.61-2.28-.59-2.41.17-.87 1.06-5.35 1.46-4.06.1.02 2.36 3.03 2.69 4.52.94-.03 2.06.07 3.38.28 2.64 2.35 2.74 2.06 5.53 1.9.13-.31.44-.52.81-.52Z" fill="#275e29" data-color="2"/>
        <path d="M84.45 15.7v-7h2.34c.77 0 1.44.15 2.03.45s1.05.71 1.39 1.23c.33.52.5 1.13.5 1.82s-.17 1.28-.5 1.81-.79.94-1.39 1.24c-.59.3-1.27.45-2.03.45zm1.86-1.75h.49c.29 0 .56-.04.81-.13s.46-.21.64-.36a1.62 1.62 0 0 0 .57-1.26 1.62 1.62 0 0 0-.57-1.26 2.1 2.1 0 0 0-.64-.36c-.25-.09-.52-.13-.81-.13h-.49z" fill="#fffdf0" data-color="3"/>
        <path d="M91.57 15.7v-7h4.69v1.7h-2.84v.97h2.3v1.65h-2.3V14h2.91v1.7z" fill="#fffdf0" data-color="3"/>
        <path d="M99.88 15.82c-.33 0-.65-.04-.96-.13s-.6-.22-.85-.38a2.7 2.7 0 0 1-.64-.54c-.17-.2-.27-.42-.3-.65l1.84-.51c.06.17.16.31.31.42.15.12.34.18.57.2.19 0 .35-.04.5-.15s.22-.25.22-.42q0-.165-.12-.33a.7.7 0 0 0-.4-.22L99 12.84c-.36-.09-.67-.24-.92-.43-.26-.19-.45-.43-.59-.71s-.2-.59-.2-.94c0-.69.23-1.22.68-1.6s1.1-.58 1.92-.58c.44 0 .83.06 1.17.17s.63.29.87.54.45.56.61.96l-1.83.53a.9.9 0 0 0-.25-.4c-.14-.13-.32-.2-.56-.2s-.4.05-.52.15a.55.55 0 0 0-.19.44c0 .12.05.23.15.32s.24.16.43.21l1.06.27c.53.13.95.4 1.25.79s.45.83.45 1.33c0 .46-.1.85-.31 1.17s-.51.56-.91.73c-.39.17-.86.25-1.41.25Z" fill="#fffdf0" data-color="3"/>
        <path d="M103.43 15.7v-7h4.69v1.7h-2.84v.97h2.3v1.65h-2.3V14h2.91v1.7z" fill="#fffdf0" data-color="3"/>
        <path d="M109.29 15.7v-7h1.95l2.73 3.85V8.7h1.85v7h-1.85l-2.83-3.99v3.99z" fill="#fffdf0" data-color="3"/>
        <path d="m119.18 15.7-2.69-7h2l2.48 7zm.21 0 2.46-7h2l-2.67 7z" fill="#fffdf0" data-color="3"/>
        <path d="M127.72 15.82c-.73 0-1.38-.16-1.95-.46-.56-.31-1-.74-1.32-1.28s-.48-1.17-.48-1.87.16-1.33.48-1.88c.32-.54.76-.97 1.32-1.28s1.2-.47 1.93-.47 1.38.16 1.94.47 1 .74 1.32 1.28.48 1.17.48 1.88-.16 1.32-.47 1.87-.75.97-1.32 1.28c-.56.31-1.2.46-1.93.46m0-1.7c.36 0 .68-.08.95-.25.27-.16.49-.39.64-.67.15-.29.23-.62.23-.99s-.08-.71-.24-1-.37-.52-.65-.68-.59-.25-.95-.25-.67.08-.95.25c-.28.16-.49.39-.65.68s-.23.62-.23 1 .08.7.24.99.38.51.66.67.59.25.96.25Z" fill="#fffdf0" data-color="3"/>
        <path d="M132.28 15.7v-7h1.85V14h2.88v1.7z" fill="#fffdf0" data-color="3"/>
        <path d="m139.98 15.7-2.69-7h2l2.48 7zm.21 0 2.46-7h2l-2.67 7z" fill="#fffdf0" data-color="3"/>
        <path d="M145.32 15.7v-7h1.85v7z" fill="#fffdf0" data-color="3"/>
        <path d="M148.37 15.7v-7h2.05l1.69 2.5 1.69-2.5h2.05v7H154v-4.14l-1.88 2.74-1.9-2.74v4.14z" fill="#fffdf0" data-color="3"/>
        <path d="M157.04 15.7v-7h4.69v1.7h-2.84v.97h2.3v1.65h-2.3V14h2.91v1.7z" fill="#fffdf0" data-color="3"/>
        <path d="M162.91 15.7v-7h1.95l2.73 3.85V8.7h1.85v7h-1.85l-2.83-3.99v3.99z" fill="#fffdf0" data-color="3"/>
        <path d="M172.19 15.7v-5.3h-1.98V8.7h5.8v1.7h-1.97v5.3z" fill="#fffdf0" data-color="3"/>
        <path d="M180.17 15.82c-.73 0-1.38-.16-1.95-.46-.56-.31-1-.74-1.32-1.28s-.48-1.17-.48-1.87.16-1.33.48-1.88c.32-.54.76-.97 1.32-1.28s1.2-.47 1.93-.47 1.38.16 1.94.47 1 .74 1.32 1.28.48 1.17.48 1.88-.16 1.32-.47 1.87-.75.97-1.32 1.28c-.56.31-1.2.46-1.93.46m0-1.7c.36 0 .68-.08.95-.25.27-.16.49-.39.64-.67.15-.29.23-.62.23-.99s-.08-.71-.24-1-.37-.52-.65-.68-.59-.25-.95-.25-.67.08-.95.25c-.28.16-.49.39-.65.68s-.23.62-.23 1 .08.7.24.99.38.51.66.67.59.25.96.25Z" fill="#fffdf0" data-color="3"/>
        <path d="M189.49 15.82c-.33 0-.65-.04-.96-.13s-.6-.22-.85-.38a2.7 2.7 0 0 1-.64-.54c-.17-.2-.27-.42-.3-.65l1.84-.51c.06.17.16.31.31.42.15.12.34.18.57.2.19 0 .35-.04.5-.15s.22-.25.22-.42q0-.165-.12-.33a.7.7 0 0 0-.4-.22l-1.05-.27c-.36-.09-.67-.24-.92-.43-.26-.19-.45-.43-.59-.71s-.2-.59-.2-.94c0-.69.23-1.22.68-1.6s1.1-.58 1.92-.58c.44 0 .83.06 1.17.17s.63.29.87.54.45.56.61.96l-1.83.53a.9.9 0 0 0-.25-.4c-.14-.13-.32-.2-.56-.2s-.4.05-.52.15a.55.55 0 0 0-.19.44c0 .12.05.23.15.32s.24.16.43.21l1.06.27c.53.13.95.4 1.25.79s.45.83.45 1.33c0 .46-.1.85-.31 1.17s-.51.56-.91.73c-.39.17-.86.25-1.41.25Z" fill="#fffdf0" data-color="3"/>
        <path d="m192.51 15.7 2.68-7h1.84l-2.56 7zm1.26-1.12v-1.63h4.84v1.63zm4.13 1.12-2.56-7h1.84l2.68 7z" fill="#fffdf0" data-color="3"/>
        <path d="M203.41 15.82c-.62 0-1.15-.11-1.6-.34s-.79-.55-1.02-.98c-.24-.42-.36-.93-.36-1.51V8.7h1.85v4.29c0 .23.05.43.14.6s.22.29.39.38.38.13.62.13.45-.04.62-.13.3-.21.39-.38.14-.37.14-.6V8.7h1.85v4.29c0 .59-.12 1.09-.36 1.51s-.58.75-1.03.98-.99.34-1.62.34Z" fill="#fffdf0" data-color="3"/>
        <path d="M207.53 15.7v-7h2.34c.77 0 1.44.15 2.03.45s1.05.71 1.39 1.23c.33.52.5 1.13.5 1.82s-.17 1.28-.5 1.81-.79.94-1.39 1.24c-.59.3-1.27.45-2.03.45zm1.85-1.75h.49c.29 0 .56-.04.81-.13s.46-.21.64-.36a1.62 1.62 0 0 0 .57-1.26 1.62 1.62 0 0 0-.57-1.26 2.1 2.1 0 0 0-.64-.36c-.25-.09-.52-.13-.81-.13h-.49z" fill="#fffdf0" data-color="3"/>
        <path d="m214.12 15.7 2.68-7h1.84l-2.56 7zm1.25-1.12v-1.63h4.84v1.63zm1.43-6.39 1.1-1.39h1.9l-1.3 1.39zm2.7 7.51-2.56-7h1.84l2.68 7z" fill="#fffdf0" data-color="3"/>
        <path d="m224.29 15.7-2.69-7h2l2.48 7zm.21 0 2.46-7h2l-2.67 7z" fill="#fffdf0" data-color="3"/>
        <path d="M229.63 15.7v-7h4.69v1.7h-2.84v.97h2.3v1.65h-2.3V14h2.91v1.7z" fill="#fffdf0" data-color="3"/>
        <path d="M235.49 15.7v-7h1.85V14h2.88v1.7z" fill="#fffdf0" data-color="3"/>
        <path d="M84.78 27.2v-7h.86l4.17 5.62V20.2h.85v7h-.85l-4.18-5.65v5.65z" fill="#fffdf0" data-color="3"/>
        <path d="M92.17 24.76V22.2h.8v2.56zm.8 0c0 .49.06.87.17 1.13s.27.44.47.53q.3.15.69.15c.43 0 .77-.16 1.01-.47s.37-.75.37-1.31h.39c0 .53-.08.98-.23 1.36s-.38.67-.67.87-.65.3-1.07.3q-.585 0-1.02-.24c-.29-.16-.52-.41-.68-.75s-.24-.79-.24-1.33v-.24h.8Zm2.76 2.44-.05-.92V22.2h.8v5z" fill="#fffdf0" data-color="3"/>
        <path d="M97.36 22.91v-.71h3.17v.71zm2.4 4.41c-.49 0-.86-.13-1.13-.38s-.4-.61-.4-1.07v-5.23h.8v5.15c0 .25.07.45.21.58s.33.21.58.21c.08 0 .16-.01.24-.04.08-.02.18-.08.3-.17l.31.65c-.17.11-.33.19-.47.23s-.28.07-.43.07Z" fill="#fffdf0" data-color="3"/>
        <path d="M101.66 27.2v-5h.8v5zm.44-2.71c0-.54.1-.98.31-1.32s.47-.59.79-.75.67-.24 1.02-.24v.75c-.29 0-.57.05-.84.14-.27.1-.49.25-.67.47-.17.22-.26.52-.26.9l-.36.04Z" fill="#fffdf0" data-color="3"/>
        <path d="M105.5 21.04c-.13 0-.25-.05-.35-.15a.485.485 0 0 1 0-.7.485.485 0 0 1 .7 0c.09.1.15.21.15.35s-.05.25-.15.35-.21.15-.35.15m-.41 6.16v-5h.8v5z" fill="#fffdf0" data-color="3"/>
        <path d="M109.55 27.32q-.735 0-1.29-.33c-.37-.22-.67-.53-.88-.92s-.31-.85-.31-1.36.1-.97.31-1.36.5-.7.87-.92.79-.33 1.28-.33.87.12 1.21.34c.34.23.6.55.79.97.19.41.28.9.28 1.46h-4.13l.2-.17c0 .4.07.74.21 1.03s.35.5.61.66.56.22.89.22c.35 0 .65-.08.9-.25.24-.17.43-.39.56-.66l.69.35c-.13.26-.29.49-.5.68s-.46.34-.74.45-.6.16-.95.16Zm-1.62-2.98-.21-.16h3.45l-.21.17c0-.32-.06-.6-.19-.83q-.195-.345-.51-.54c-.21-.13-.46-.19-.74-.19s-.53.06-.78.19c-.24.13-.44.3-.59.54-.15.23-.23.5-.23.82Z" fill="#fffdf0" data-color="3"/>
        <path d="M112.82 27.2v-5h.75l.05.92v4.08zm3.51-2.56c0-.49-.06-.87-.17-1.13s-.27-.44-.47-.53c-.2-.1-.43-.15-.68-.15-.44 0-.78.16-1.02.46-.24.31-.37.75-.37 1.32h-.39c0-.53.08-.98.23-1.36s.38-.67.67-.87.65-.3 1.06-.3q.585 0 1.02.24c.29.16.52.4.68.75.16.34.24.79.23 1.34v.24h-.8Zm0 2.56v-2.56h.8v2.56z" fill="#fffdf0" data-color="3"/>
        <path d="M117.88 22.91v-.71h3.17v.71zm2.4 4.41c-.49 0-.86-.13-1.13-.38s-.4-.61-.4-1.07v-5.23h.8v5.15c0 .25.07.45.21.58s.33.21.58.21c.08 0 .16-.01.24-.04.08-.02.18-.08.3-.17l.31.65c-.17.11-.33.19-.47.23s-.28.07-.43.07Z" fill="#fffdf0" data-color="3"/>
        <path d="M124.34 27.32q-.735 0-1.29-.33c-.37-.22-.67-.53-.88-.92s-.31-.85-.31-1.36.1-.97.31-1.36.5-.7.87-.92.79-.33 1.28-.33.87.12 1.21.34c.34.23.6.55.79.97.19.41.28.9.28 1.46h-4.13l.2-.17c0 .4.07.74.21 1.03s.35.5.61.66.56.22.89.22c.35 0 .65-.08.9-.25.24-.17.43-.39.56-.66l.69.35c-.13.26-.29.49-.5.68s-.46.34-.74.45-.6.16-.95.16Zm-1.62-2.98-.21-.16h3.45l-.21.17c0-.32-.06-.6-.19-.83q-.195-.345-.51-.54c-.21-.13-.46-.19-.74-.19s-.53.06-.78.19c-.24.13-.44.3-.59.54-.15.23-.23.5-.23.82Z" fill="#fffdf0" data-color="3"/>
        <path d="M129.36 27.32c-.37 0-.69-.05-.96-.17s-.5-.25-.69-.44c-.18-.18-.31-.38-.39-.59l.7-.29c.11.23.28.41.51.55q.345.21.75.21c.31 0 .58-.06.79-.19.21-.12.32-.3.32-.52 0-.21-.08-.37-.24-.5s-.39-.23-.7-.31l-.48-.13c-.45-.12-.81-.3-1.06-.54s-.38-.52-.38-.83c0-.47.16-.84.46-1.1.31-.26.77-.4 1.39-.4.29 0 .56.04.8.13s.45.21.62.37.3.34.38.55l-.7.31a.87.87 0 0 0-.43-.49c-.2-.1-.44-.15-.73-.15-.31 0-.55.07-.72.2s-.26.31-.26.54c0 .13.07.26.21.38s.35.21.63.29l.5.13c.33.08.6.2.82.36s.39.33.5.53.17.41.17.64q0 .45-.24.78c-.16.22-.38.39-.65.5-.27.12-.59.17-.94.17Z" fill="#fffdf0" data-color="3"/>
        <path d="M136.93 27.32q-.735 0-1.29-.33c-.37-.22-.67-.53-.88-.92s-.31-.85-.31-1.36.1-.97.31-1.36.5-.7.87-.92.79-.33 1.28-.33.87.12 1.21.34c.34.23.6.55.79.97.19.41.28.9.28 1.46h-4.13l.2-.17c0 .4.07.74.21 1.03s.35.5.61.66.56.22.89.22c.35 0 .65-.08.9-.25.24-.17.43-.39.56-.66l.69.35c-.13.26-.29.49-.5.68s-.46.34-.74.45-.6.16-.95.16Zm-1.62-2.98-.21-.16h3.45l-.21.17c0-.32-.06-.6-.19-.83q-.195-.345-.51-.54c-.21-.13-.46-.19-.74-.19s-.53.06-.78.19c-.24.13-.44.3-.59.54-.15.23-.23.5-.23.82Z" fill="#fffdf0" data-color="3"/>
        <path d="M142.17 27.32c-.45 0-.84-.11-1.18-.33s-.61-.53-.79-.92c-.19-.4-.29-.85-.29-1.37s.09-.98.29-1.37c.19-.39.46-.7.79-.92s.73-.33 1.18-.33q.63 0 1.11.33c.32.22.56.53.73.92s.26.85.26 1.37-.09.97-.26 1.37-.42.71-.73.92q-.48.33-1.11.33m.18-.73q.435 0 .78-.24c.23-.16.41-.38.54-.67s.2-.61.2-.98-.07-.69-.2-.98-.31-.51-.54-.67-.49-.24-.79-.24-.59.08-.83.24-.43.38-.58.67c-.14.29-.21.61-.21.98s.07.69.21.98.33.51.58.67q.375.24.84.24m1.51 2.61v-6.07l.04-.93h.76v7z" fill="#fffdf0" data-color="3"/>
        <path d="M145.85 24.76V22.2h.8v2.56zm.8 0c0 .49.06.87.17 1.13s.27.44.47.53q.3.15.69.15c.43 0 .77-.16 1.01-.47s.37-.75.37-1.31h.39c0 .53-.08.98-.23 1.36s-.38.67-.67.87-.65.3-1.07.3q-.585 0-1.02-.24c-.29-.16-.52-.41-.68-.75s-.24-.79-.24-1.33v-.24h.8Zm2.76 2.44-.05-.92V22.2h.8v5z" fill="#fffdf0" data-color="3"/>
        <path d="M152.02 21.04c-.13 0-.25-.05-.35-.15a.485.485 0 0 1 0-.7.485.485 0 0 1 .7 0c.09.1.15.21.15.35s-.05.25-.15.35-.21.15-.35.15m-.41 6.16v-5h.8v5z" fill="#fffdf0" data-color="3"/>
        <path d="M153.88 27.2v-7h.8v7z" fill="#fffdf0" data-color="3"/>
        <path d="M156.54 21.04c-.13 0-.25-.05-.35-.15a.485.485 0 0 1 0-.7.485.485 0 0 1 .7 0c.09.1.15.21.15.35s-.05.25-.15.35-.21.15-.35.15m-.41 6.16v-5h.8v5z" fill="#fffdf0" data-color="3"/>
        <path d="M158.4 27.2v-7h.8v6.07l-.04.93zm2.49.12q-.63 0-1.11-.33c-.48-.33-.56-.53-.74-.92-.17-.4-.26-.85-.26-1.37s.09-.98.26-1.37.42-.7.74-.92.68-.33 1.11-.33c.45 0 .84.11 1.18.33s.6.53.79.92.29.85.29 1.37-.09.97-.29 1.37-.46.71-.79.92-.73.33-1.18.33m-.18-.73c.31 0 .59-.08.83-.24s.44-.38.58-.67.21-.61.21-.99-.07-.69-.21-.98-.33-.51-.57-.67-.53-.24-.85-.24q-.435 0-.78.24c-.23.16-.41.38-.54.67-.13.28-.2.61-.2.99s.07.69.2.98.31.51.54.67q.345.24.78.24Z" fill="#fffdf0" data-color="3"/>
        <path d="M164.26 27.2v-5h.8v5zm.44-2.71c0-.54.1-.98.31-1.32s.47-.59.79-.75.67-.24 1.02-.24v.75c-.29 0-.57.05-.84.14-.27.1-.49.25-.67.47-.17.22-.26.52-.26.9l-.36.04Z" fill="#fffdf0" data-color="3"/>
        <path d="M169.22 27.32c-.59 0-1.04-.13-1.38-.41-.33-.27-.5-.64-.5-1.12 0-.51.17-.89.5-1.17.34-.27.81-.41 1.42-.41h1.43v.67h-1.25c-.47 0-.8.08-1 .23s-.29.37-.29.66c0 .26.1.46.29.62.19.15.46.22.81.22q.435 0 .75-.18c.21-.12.38-.3.5-.53s.17-.5.17-.82h.34c0 .68-.15 1.22-.46 1.62s-.75.61-1.34.61Zm1.5-.12-.04-.82v-1.82c0-.39-.04-.72-.13-.98s-.22-.45-.41-.58-.43-.2-.73-.2c-.27 0-.51.06-.71.17s-.36.29-.48.53l-.72-.28c.13-.23.28-.43.46-.6q.27-.255.63-.39c.24-.09.51-.13.82-.13.47 0 .85.09 1.16.28s.53.45.68.81.23.8.22 1.33v2.71h-.75Z" fill="#fffdf0" data-color="3"/>
        <path d="M174.71 27.32c-.45 0-.84-.11-1.18-.33s-.61-.53-.79-.92c-.19-.4-.29-.85-.29-1.37s.09-.98.29-1.37c.19-.39.46-.7.79-.92s.73-.33 1.18-.33q.63 0 1.11.33c.32.22.56.53.73.92s.26.85.26 1.37-.09.97-.26 1.37-.42.71-.73.92q-.48.33-1.11.33m.18-.73q.435 0 .78-.24c.23-.16.41-.38.54-.67s.2-.61.2-.98-.07-.69-.2-.98-.31-.51-.54-.67-.49-.24-.79-.24-.59.08-.83.24-.43.38-.58.67c-.14.29-.21.61-.21.98s.07.69.21.98.33.51.58.67q.375.24.84.24m1.55.61-.04-.93V20.2h.8v7z" fill="#fffdf0" data-color="3"/>
        <path d="M180.82 27.32c-.49 0-.93-.11-1.3-.33-.38-.22-.67-.53-.88-.92s-.32-.85-.32-1.36.1-.97.31-1.36.5-.7.88-.92q.57-.33 1.29-.33c.72 0 .92.11 1.29.33.38.22.67.53.88.92s.31.85.31 1.36-.1.97-.31 1.36-.5.7-.88.92c-.37.22-.8.33-1.28.33Zm-.01-.74q.495 0 .87-.24c.25-.16.45-.38.59-.67.14-.28.21-.61.21-.97s-.07-.69-.21-.97-.34-.51-.6-.67c-.25-.16-.55-.24-.88-.24s-.61.08-.86.24-.45.38-.59.66-.21.61-.21.98.07.69.21.97.34.51.6.67.55.24.88.24Z" fill="#fffdf0" data-color="3"/>
        <path d="M186.15 27.32c-.37 0-.69-.05-.96-.17s-.5-.25-.69-.44c-.18-.18-.31-.38-.39-.59l.7-.29c.11.23.28.41.51.55q.345.21.75.21c.31 0 .58-.06.79-.19.21-.12.32-.3.32-.52 0-.21-.08-.37-.24-.5s-.39-.23-.7-.31l-.48-.13c-.45-.12-.81-.3-1.06-.54s-.38-.52-.38-.83c0-.47.16-.84.46-1.1.31-.26.77-.4 1.39-.4.29 0 .56.04.8.13s.45.21.62.37.3.34.38.55l-.7.31a.87.87 0 0 0-.43-.49c-.2-.1-.44-.15-.73-.15-.31 0-.55.07-.72.2s-.26.31-.26.54c0 .13.07.26.21.38s.35.21.63.29l.5.13c.33.08.6.2.82.36s.39.33.5.53.17.41.17.64q0 .45-.24.78c-.16.22-.38.39-.65.5-.27.12-.59.17-.94.17Z" fill="#fffdf0" data-color="3"/>
        <path d="m188.76 28.35.57-2.11h.9l-.78 2.11z" fill="#fffdf0" data-color="3"/>
        <path d="M193.5 29.35c-.25 0-.56-.09-.94-.26l.3-.67c.16.06.3.11.41.14s.2.05.27.05c.45 0 .68-.29.68-.87V22.2h.8v5.56c0 .52-.13.92-.38 1.19s-.63.41-1.13.41Zm1.11-8.32c-.13 0-.25-.05-.35-.15s-.15-.22-.15-.35a.497.497 0 0 1 .5-.51c.14 0 .26.05.36.14.1.1.15.22.15.37 0 .13-.05.25-.15.35q-.15.15-.36.15" fill="#fffdf0" data-color="3"/>
        <path d="M196.35 24.76V22.2h.8v2.56zm.8 0c0 .49.06.87.17 1.13s.27.44.47.53q.3.15.69.15c.43 0 .77-.16 1.01-.47s.37-.75.37-1.31h.39c0 .53-.08.98-.23 1.36s-.38.67-.67.87-.65.3-1.07.3q-.585 0-1.02-.24c-.29-.16-.52-.41-.68-.75s-.24-.79-.24-1.33v-.24h.8Zm2.76 2.44-.05-.92V22.2h.8v5z" fill="#fffdf0" data-color="3"/>
        <path d="M202.06 27.2v-5h.75l.05.92v4.08zm3.51-2.56c0-.49-.06-.87-.17-1.13s-.27-.44-.47-.53c-.2-.1-.43-.15-.68-.15-.44 0-.78.16-1.02.46-.24.31-.37.75-.37 1.32h-.39c0-.53.08-.98.23-1.36s.38-.67.67-.87.65-.3 1.06-.3q.585 0 1.02.24c.29.16.52.4.68.75.16.34.24.79.23 1.34v.24h-.8Zm0 2.56v-2.56h.8v2.56z" fill="#fffdf0" data-color="3"/>
        <path d="M207.12 22.91v-.71h3.17v.71zm2.4 4.41c-.49 0-.86-.13-1.13-.38s-.4-.61-.4-1.07v-5.23h.8v5.15c0 .25.07.45.21.58s.33.21.58.21c.08 0 .16-.01.24-.04.08-.02.18-.08.3-.17l.31.65c-.17.11-.33.19-.47.23s-.28.07-.43.07Z" fill="#fffdf0" data-color="3"/>
        <path d="M213.61 27.32c-.49 0-.93-.11-1.3-.33-.38-.22-.67-.53-.88-.92s-.32-.85-.32-1.36.1-.97.31-1.36.5-.7.88-.92q.57-.33 1.29-.33c.72 0 .92.11 1.29.33.38.22.67.53.88.92s.31.85.31 1.36-.1.97-.31 1.36-.5.7-.88.92c-.37.22-.8.33-1.28.33Zm-.01-.74q.495 0 .87-.24c.25-.16.45-.38.59-.67.14-.28.21-.61.21-.97s-.07-.69-.21-.97-.34-.51-.6-.67c-.25-.16-.55-.24-.88-.24s-.61.08-.86.24-.45.38-.59.66-.21.61-.21.98.07.69.21.97.34.51.6.67.55.24.88.24Z" fill="#fffdf0" data-color="3"/>
        <path d="M221.89 27.32c-.49 0-.93-.11-1.31-.33s-.68-.53-.89-.92-.32-.85-.32-1.36.1-.97.31-1.36.51-.7.89-.92.81-.33 1.3-.33.91.11 1.29.33.67.53.87.93l-.73.33c-.13-.27-.33-.47-.58-.62s-.54-.22-.87-.22-.61.08-.86.24-.45.38-.59.67c-.14.28-.21.61-.21.97s.07.69.21.97.34.51.6.67.55.24.88.24.62-.08.88-.25.45-.4.58-.7l.73.33c-.2.43-.49.76-.87 1s-.81.36-1.3.36Z" fill="#fffdf0" data-color="3"/>
        <path d="M227.29 27.32c-.49 0-.93-.11-1.3-.33-.38-.22-.67-.53-.88-.92s-.32-.85-.32-1.36.1-.97.31-1.36.5-.7.88-.92q.57-.33 1.29-.33c.72 0 .92.11 1.29.33.38.22.67.53.88.92s.31.85.31 1.36-.1.97-.31 1.36-.5.7-.88.92c-.37.22-.8.33-1.28.33Zm-.01-.74q.495 0 .87-.24c.25-.16.45-.38.59-.67.14-.28.21-.61.21-.97s-.07-.69-.21-.97-.34-.51-.6-.67c-.25-.16-.55-.24-.88-.24s-.61.08-.86.24-.45.38-.59.66-.21.61-.21.98.07.69.21.97.34.51.6.67.55.24.88.24Z" fill="#fffdf0" data-color="3"/>
        <path d="M230.87 27.2v-5h.75l.04.7c.15-.27.35-.47.59-.61q.36-.21.84-.21c.4 0 .74.09 1.03.28.28.19.49.47.61.85.14-.37.35-.65.62-.84s.59-.29.96-.29c.56 0 1 .19 1.33.56.32.37.48.94.48 1.7v2.86h-.8v-2.56c0-.49-.05-.87-.15-1.13s-.24-.44-.42-.53q-.255-.15-.6-.15c-.39 0-.7.16-.92.46q-.33.465-.33 1.32v2.59h-.8v-2.56c0-.49-.05-.87-.16-1.13-.1-.26-.24-.44-.42-.53s-.38-.15-.6-.15c-.39 0-.69.16-.91.46q-.33.465-.33 1.32v2.59h-.8Z" fill="#fffdf0" data-color="3"/>
        <path d="M84.78 38.7v-7h4.14v.77h-3.29v2.26h3v.76h-3v2.44h3.31v.77z" fill="#fffdf0" data-color="3"/>
        <path d="M90.7 38.7v-7h2.28c.45 0 .86.09 1.21.28s.62.45.82.78.29.72.29 1.16-.09.81-.27 1.14-.43.59-.74.78-.68.29-1.09.29h-1.65v2.57zm.86-3.34h1.65c.37 0 .67-.13.91-.4s.36-.61.36-1.04-.14-.78-.42-1.05-.64-.4-1.07-.4h-1.42v2.89Z" fill="#fffdf0" data-color="3"/>
        <path d="m95.66 38.7 2.85-7h.86l-2.81 7zm1.35-1.99v-.76h3.89v.76zm4.34 1.99-2.81-7h.85l2.85 7z" fill="#fffdf0" data-color="3"/>
        <path d="M107.69 38.82q-.735 0-1.29-.33c-.37-.22-.67-.53-.88-.92s-.31-.85-.31-1.36.1-.97.31-1.36.5-.7.87-.92.79-.33 1.28-.33.87.12 1.21.34c.34.23.6.55.79.97.19.41.28.9.28 1.46h-4.13l.2-.17c0 .4.07.74.21 1.03s.35.5.61.66.56.22.89.22c.35 0 .65-.08.9-.25.24-.17.43-.39.56-.66l.69.35c-.13.26-.29.49-.5.68s-.46.34-.74.45-.6.16-.95.16Zm-1.62-2.98-.21-.16h3.45l-.21.17c0-.32-.06-.6-.19-.83q-.195-.345-.51-.54c-.21-.13-.46-.19-.74-.19s-.53.06-.78.19c-.24.13-.44.3-.59.54-.15.23-.23.5-.23.82Z" fill="#fffdf0" data-color="3"/>
        <path d="M113.66 38.7v-7h2.13c.66 0 1.24.15 1.75.45.5.3.9.71 1.19 1.23.29.53.43 1.13.43 1.82s-.14 1.28-.43 1.81-.68.94-1.19 1.24c-.5.3-1.08.45-1.75.45zm.85-.78h1.28c.35 0 .68-.07.98-.21s.57-.33.79-.58c.23-.25.41-.54.54-.88s.2-.68.2-1.05-.07-.72-.2-1.05-.31-.62-.54-.88c-.23-.25-.5-.45-.79-.58s-.63-.21-.98-.21h-1.28z" fill="#fffdf0" data-color="3"/>
        <path d="M120.54 38.7v-7h.85v7zm.75-3.22v-.77h4.24v.77zm4.06 3.22v-7h.84v7z" fill="#fffdf0" data-color="3"/>
        <path d="m127.21 38.7 2.85-7h.86l-2.81 7zm1.35-1.99v-.76h3.89v.76zm4.34 1.99-2.81-7h.85l2.85 7z" fill="#fffdf0" data-color="3"/>
        <path d="m134.29 39.85.57-2.11h.9l-.78 2.11z" fill="#fffdf0" data-color="3"/>
        <path d="M140.9 38.82c-.59 0-1.04-.13-1.38-.41-.33-.27-.5-.64-.5-1.12 0-.51.17-.89.5-1.17.34-.27.81-.41 1.42-.41h1.43v.67h-1.25c-.47 0-.8.08-1 .23s-.29.37-.29.66c0 .26.1.46.29.62.19.15.46.22.81.22q.435 0 .75-.18c.21-.12.38-.3.5-.53s.17-.5.17-.82h.34c0 .68-.15 1.22-.46 1.62s-.75.61-1.34.61Zm1.5-.12-.04-.82v-1.82c0-.39-.04-.72-.13-.98s-.22-.45-.41-.58-.43-.2-.73-.2c-.27 0-.51.06-.71.17s-.36.29-.48.53l-.72-.28c.13-.23.28-.43.46-.6q.27-.255.63-.39c.24-.09.51-.13.82-.13.47 0 .85.09 1.16.28s.53.45.68.81.23.8.22 1.33v2.71h-.75Z" fill="#fffdf0" data-color="3"/>
        <path d="M144.13 40.85c-.25 0-.56-.09-.94-.26l.3-.67c.16.06.3.11.41.14s.2.05.27.05c.45 0 .68-.29.68-.87V33.7h.8v5.56c0 .52-.13.92-.38 1.19s-.63.41-1.13.41Zm1.11-8.32c-.13 0-.25-.05-.35-.15s-.15-.22-.15-.35a.497.497 0 0 1 .5-.51c.14 0 .26.05.36.14.1.1.15.22.15.37 0 .13-.05.25-.15.35q-.15.15-.36.15" fill="#fffdf0" data-color="3"/>
        <path d="M146.98 36.26V33.7h.8v2.56zm.8 0c0 .49.06.87.17 1.13s.27.44.47.53q.3.15.69.15c.43 0 .77-.16 1.01-.47s.37-.75.37-1.31h.39c0 .53-.08.98-.23 1.36s-.38.67-.67.87-.65.3-1.07.3q-.585 0-1.02-.24c-.29-.16-.52-.41-.68-.75s-.24-.79-.24-1.33v-.24h.8Zm2.76 2.44-.05-.92V33.7h.8v5z" fill="#fffdf0" data-color="3"/>
        <path d="M154.66 38.82c-.45 0-.84-.11-1.18-.33s-.61-.53-.79-.92c-.19-.4-.29-.85-.29-1.37s.09-.98.29-1.37c.19-.39.46-.7.79-.92s.73-.33 1.18-.33q.63 0 1.11.33c.32.22.56.53.73.92s.26.85.26 1.37-.09.97-.26 1.37-.42.71-.73.92q-.48.33-1.11.33m.18-.73q.435 0 .78-.24c.23-.16.41-.38.54-.67s.2-.61.2-.98-.07-.69-.2-.98-.31-.51-.54-.67-.49-.24-.79-.24-.59.08-.83.24-.43.38-.58.67c-.14.29-.21.61-.21.98s.07.69.21.98.33.51.58.67q.375.24.84.24m1.55.61-.04-.93V31.7h.8v7z" fill="#fffdf0" data-color="3"/>
        <path d="M160.13 38.82c-.59 0-1.04-.13-1.38-.41-.33-.27-.5-.64-.5-1.12 0-.51.17-.89.5-1.17.34-.27.81-.41 1.42-.41h1.43v.67h-1.25c-.47 0-.8.08-1 .23s-.29.37-.29.66c0 .26.1.46.29.62.19.15.46.22.81.22q.435 0 .75-.18c.21-.12.38-.3.5-.53s.17-.5.17-.82h.34c0 .68-.15 1.22-.46 1.62s-.75.61-1.34.61Zm1.5-.12-.04-.82v-1.82c0-.39-.04-.72-.13-.98s-.22-.45-.41-.58-.43-.2-.73-.2c-.27 0-.51.06-.71.17s-.36.29-.48.53l-.72-.28c.13-.23.28-.43.46-.6q.27-.255.63-.39c.24-.09.51-.13.82-.13.47 0 .85.09 1.16.28s.53.45.68.81.23.8.22 1.33v2.71h-.75Z" fill="#fffdf0" data-color="3"/>
        <path d="M163.65 38.7v-5h.75l.04.7c.15-.27.35-.47.59-.61q.36-.21.84-.21c.4 0 .74.09 1.03.28.28.19.49.47.61.85.14-.37.35-.65.62-.84s.59-.29.96-.29c.56 0 1 .19 1.33.56.32.37.48.94.48 1.7v2.86h-.8v-2.56c0-.49-.05-.87-.15-1.13s-.24-.44-.42-.53q-.255-.15-.6-.15c-.39 0-.7.16-.92.46q-.33.465-.33 1.32v2.59h-.8v-2.56c0-.49-.05-.87-.16-1.13-.1-.26-.24-.44-.42-.53s-.38-.15-.6-.15c-.39 0-.69.16-.91.46q-.33.465-.33 1.32v2.59h-.8Z" fill="#fffdf0" data-color="3"/>
        <path d="M176.38 38.82c-.37 0-.69-.05-.96-.17s-.5-.25-.69-.44c-.18-.18-.31-.38-.39-.59l.7-.29c.11.23.28.41.51.55q.345.21.75.21c.31 0 .58-.06.79-.19.21-.12.32-.3.32-.52 0-.21-.08-.37-.24-.5s-.39-.23-.7-.31l-.48-.13c-.45-.12-.81-.3-1.06-.54s-.38-.52-.38-.83c0-.47.16-.84.46-1.1.31-.26.77-.4 1.39-.4.29 0 .56.04.8.13s.45.21.62.37.3.34.38.55l-.7.31a.87.87 0 0 0-.43-.49c-.2-.1-.44-.15-.73-.15-.31 0-.55.07-.72.2s-.26.31-.26.54c0 .13.07.26.21.38s.35.21.63.29l.5.13c.33.08.6.2.82.36s.39.33.5.53.17.41.17.64q0 .45-.24.78c-.16.22-.38.39-.65.5-.27.12-.59.17-.94.17Z" fill="#fffdf0" data-color="3"/>
        <path d="M181.48 38.82q-.735 0-1.29-.33c-.37-.22-.67-.53-.88-.92s-.31-.85-.31-1.36.1-.97.31-1.36.5-.7.87-.92.79-.33 1.28-.33.87.12 1.21.34c.34.23.6.55.79.97.19.41.28.9.28 1.46h-4.13l.2-.17c0 .4.07.74.21 1.03s.35.5.61.66.56.22.89.22c.35 0 .65-.08.9-.25.24-.17.43-.39.56-.66l.69.35c-.13.26-.29.49-.5.68s-.46.34-.74.45-.6.16-.95.16Zm-1.62-2.98-.21-.16h3.45l-.21.17c0-.32-.06-.6-.19-.83q-.195-.345-.51-.54c-.21-.13-.46-.19-.74-.19s-.53.06-.78.19c-.24.13-.44.3-.59.54-.15.23-.23.5-.23.82Z" fill="#fffdf0" data-color="3"/>
        <path d="M184.62 36.26V33.7h.8v2.56zm.8 0c0 .49.06.87.17 1.13s.27.44.47.53q.3.15.69.15c.43 0 .77-.16 1.01-.47s.37-.75.37-1.31h.39c0 .53-.08.98-.23 1.36s-.38.67-.67.87-.65.3-1.07.3q-.585 0-1.02-.24c-.29-.16-.52-.41-.68-.75s-.24-.79-.24-1.33v-.24h.8Zm2.76 2.44-.05-.92V33.7h.8v5z" fill="#fffdf0" data-color="3"/>
        <path d="M192.38 34.39v-.69h3.17v.69zm.92 4.31v-5.57c0-.52.12-.91.37-1.17q.36-.39 1.11-.39c.13 0 .28.02.45.07s.34.11.53.2l-.3.63c-.15-.06-.28-.11-.39-.14s-.2-.05-.27-.05c-.23 0-.41.07-.53.22s-.17.38-.17.7v5.51h-.8Z" fill="#fffdf0" data-color="3"/>
        <path d="M196.95 32.54c-.13 0-.25-.05-.35-.15a.485.485 0 0 1 0-.7.485.485 0 0 1 .7 0c.09.1.15.21.15.35s-.05.25-.15.35-.21.15-.35.15m-.41 6.16v-5h.8v5z" fill="#fffdf0" data-color="3"/>
        <path d="M198.81 38.7v-7h.8v7z" fill="#fffdf0" data-color="3"/>
        <path d="M201.01 38.7v-7h.8v7zm3.52-2.56c0-.49-.06-.87-.17-1.13-.12-.26-.28-.44-.47-.53-.2-.1-.43-.15-.68-.15-.44 0-.78.16-1.02.46-.24.31-.37.75-.37 1.32h-.39c0-.53.08-.98.23-1.36.16-.38.38-.67.67-.87s.65-.3 1.06-.3q.585 0 1.02.24c.29.16.52.4.69.75.16.34.24.79.23 1.34v.24h-.8Zm0 2.56v-2.56h.8v2.56z" fill="#fffdf0" data-color="3"/>
        <path d="M208.81 38.82c-.49 0-.93-.11-1.3-.33-.38-.22-.67-.53-.88-.92s-.32-.85-.32-1.36.1-.97.31-1.36.5-.7.88-.92q.57-.33 1.29-.33c.72 0 .92.11 1.29.33.38.22.67.53.88.92s.31.85.31 1.36-.1.97-.31 1.36-.5.7-.88.92c-.37.22-.8.33-1.28.33Zm-.01-.74q.495 0 .87-.24c.25-.16.45-.38.59-.67.14-.28.21-.61.21-.97s-.07-.69-.21-.97-.34-.51-.6-.67c-.25-.16-.55-.24-.88-.24s-.61.08-.86.24-.45.38-.59.66-.21.61-.21.98.07.69.21.97.34.51.6.67.55.24.88.24Z" fill="#fffdf0" data-color="3"/>
        <path d="M211.87 34.41v-.71h3.17v.71zm2.4 4.41c-.49 0-.86-.13-1.13-.38s-.4-.61-.4-1.07v-5.23h.8v5.15c0 .25.07.45.21.58s.33.21.58.21c.08 0 .16-.01.24-.04.08-.02.18-.08.3-.17l.31.65c-.17.11-.33.19-.47.23s-.28.07-.43.07Z" fill="#fffdf0" data-color="3"/>
        <path d="M218.33 38.82q-.735 0-1.29-.33c-.37-.22-.67-.53-.88-.92s-.31-.85-.31-1.36.1-.97.31-1.36.5-.7.87-.92.79-.33 1.28-.33.87.12 1.21.34c.34.23.6.55.79.97.19.41.28.9.28 1.46h-4.13l.2-.17c0 .4.07.74.21 1.03s.35.5.61.66.56.22.89.22c.35 0 .65-.08.9-.25.24-.17.43-.39.56-.66l.69.35c-.13.26-.29.49-.5.68s-.46.34-.74.45-.6.16-.95.16Zm-1.62-2.98-.21-.16h3.45l-.21.17c0-.32-.06-.6-.19-.83q-.195-.345-.51-.54c-.21-.13-.46-.19-.74-.19s-.53.06-.78.19c-.24.13-.44.3-.59.54-.15.23-.23.5-.23.82Z" fill="#fffdf0" data-color="3"/>
        <path d="M225.65 38.82c-.59 0-1.04-.13-1.38-.41-.33-.27-.5-.64-.5-1.12 0-.51.17-.89.5-1.17.34-.27.81-.41 1.42-.41h1.43v.67h-1.25c-.47 0-.8.08-1 .23s-.29.37-.29.66c0 .26.1.46.29.62.19.15.46.22.81.22q.435 0 .75-.18c.21-.12.38-.3.5-.53s.17-.5.17-.82h.34c0 .68-.15 1.22-.46 1.62s-.75.61-1.34.61Zm1.5-.12-.04-.82v-1.82c0-.39-.04-.72-.13-.98s-.22-.45-.41-.58-.43-.2-.73-.2c-.27 0-.51.06-.71.17s-.36.29-.48.53l-.72-.28c.13-.23.28-.43.46-.6q.27-.255.63-.39c.24-.09.51-.13.82-.13.47 0 .85.09 1.16.28s.53.45.68.81.23.8.22 1.33v2.71h-.75Z" fill="#fffdf0" data-color="3"/>
        <path d="M86.78 50.32c-.49 0-.93-.11-1.31-.33s-.68-.53-.89-.92-.32-.85-.32-1.36.1-.97.31-1.36.51-.7.89-.92.81-.33 1.3-.33.91.11 1.29.33.67.53.87.93l-.73.33c-.13-.27-.33-.47-.58-.62s-.54-.22-.87-.22-.61.08-.86.24-.45.38-.59.67c-.14.28-.21.61-.21.97s.07.69.21.97.34.51.6.67.55.24.88.24.62-.08.88-.25.45-.4.58-.7l.73.33c-.2.43-.49.76-.87 1s-.81.36-1.3.36Z" fill="#fffdf0" data-color="3"/>
        <path d="M89.77 50.2v-5h.8v5zm.43-2.71c0-.54.1-.98.31-1.32s.47-.59.79-.75.67-.24 1.02-.24v.75c-.29 0-.57.05-.84.14-.27.1-.49.25-.67.47-.17.22-.26.52-.26.9l-.36.04Z" fill="#fffdf0" data-color="3"/>
        <path d="M95.13 50.32q-.735 0-1.29-.33c-.37-.22-.67-.53-.88-.92s-.31-.85-.31-1.36.1-.97.31-1.36.5-.7.87-.92.79-.33 1.28-.33.87.12 1.21.34c.34.23.6.55.79.97.19.41.28.9.28 1.46h-4.13l.2-.17c0 .4.07.74.21 1.03s.35.5.61.66.56.22.89.22c.35 0 .65-.08.9-.25.24-.17.43-.39.56-.66l.69.35c-.13.26-.29.49-.5.68s-.46.34-.74.45-.6.16-.95.16Zm-1.62-2.98-.21-.16h3.45l-.21.17c0-.32-.06-.6-.19-.83q-.195-.345-.51-.54c-.21-.13-.46-.19-.74-.19s-.53.06-.78.19c-.24.13-.44.3-.59.54-.15.23-.23.5-.23.82Z" fill="#fffdf0" data-color="3"/>
        <path d="M99.96 50.32c-.37 0-.69-.05-.96-.17s-.5-.25-.69-.44c-.18-.18-.31-.38-.39-.59l.7-.29c.11.23.28.41.51.55q.345.21.75.21c.31 0 .58-.06.79-.19.21-.12.32-.3.32-.52 0-.21-.08-.37-.24-.5s-.39-.23-.7-.31l-.48-.13c-.45-.12-.81-.3-1.06-.54s-.38-.52-.38-.83c0-.47.16-.84.46-1.1.31-.26.77-.4 1.39-.4.29 0 .56.04.8.13s.45.21.62.37.3.34.38.55l-.7.31a.87.87 0 0 0-.43-.49c-.2-.1-.44-.15-.73-.15-.31 0-.55.07-.72.2s-.26.31-.26.54c0 .13.07.26.21.38s.35.21.63.29l.5.13c.33.08.6.2.82.36s.39.33.5.53.17.41.17.64q0 .45-.24.78c-.16.22-.38.39-.65.5-.27.12-.59.17-.94.17Z" fill="#fffdf0" data-color="3"/>
        <path d="M104.9 50.32c-.49 0-.93-.11-1.31-.33s-.68-.53-.89-.92-.32-.85-.32-1.36.1-.97.31-1.36.51-.7.89-.92.81-.33 1.3-.33.91.11 1.29.33.67.53.87.93l-.73.33c-.13-.27-.33-.47-.58-.62s-.54-.22-.87-.22-.61.08-.86.24-.45.38-.59.67c-.14.28-.21.61-.21.97s.07.69.21.97.34.51.6.67.55.24.88.24.62-.08.88-.25.45-.4.58-.7l.73.33c-.2.43-.49.76-.87 1s-.81.36-1.3.36Z" fill="#fffdf0" data-color="3"/>
        <path d="M110.07 50.32q-.735 0-1.29-.33c-.37-.22-.67-.53-.88-.92s-.31-.85-.31-1.36.1-.97.31-1.36.5-.7.87-.92.79-.33 1.28-.33.87.12 1.21.34c.34.23.6.55.79.97.19.41.28.9.28 1.46h-4.13l.2-.17c0 .4.07.74.21 1.03s.35.5.61.66.56.22.89.22c.35 0 .65-.08.9-.25.24-.17.43-.39.56-.66l.69.35c-.13.26-.29.49-.5.68s-.46.34-.74.45-.6.16-.95.16Zm-1.62-2.98-.21-.16h3.45l-.21.17c0-.32-.06-.6-.19-.83q-.195-.345-.51-.54c-.21-.13-.46-.19-.74-.19s-.53.06-.78.19c-.24.13-.44.3-.59.54-.15.23-.23.5-.23.82Z" fill="#fffdf0" data-color="3"/>
        <path d="M113.14 50.2v-5h.8v5zm.43-2.71c0-.54.1-.98.31-1.32s.47-.59.79-.75.67-.24 1.02-.24v.75c-.29 0-.57.05-.84.14-.27.1-.49.25-.67.47-.17.22-.26.52-.26.9l-.36.04Z" fill="#fffdf0" data-color="3"/>
        <path d="M118.17 45.89v-.69h3.17v.69zm.92 4.31v-5.57c0-.52.12-.91.37-1.17q.36-.39 1.11-.39c.13 0 .28.02.45.07s.34.11.53.2l-.3.63c-.15-.06-.28-.11-.39-.14s-.2-.05-.27-.05c-.23 0-.41.07-.53.22s-.17.38-.17.7v5.51h-.8Z" fill="#fffdf0" data-color="3"/>
        <path d="M124.26 50.32c-.49 0-.93-.11-1.3-.33-.38-.22-.67-.53-.88-.92s-.32-.85-.32-1.36.1-.97.31-1.36.5-.7.88-.92q.57-.33 1.29-.33c.72 0 .92.11 1.29.33.38.22.67.53.88.92s.31.85.31 1.36-.1.97-.31 1.36-.5.7-.88.92c-.37.22-.8.33-1.28.33Zm-.01-.74q.495 0 .87-.24c.25-.16.45-.38.59-.67.14-.28.21-.61.21-.97s-.07-.69-.21-.97-.34-.51-.6-.67c-.25-.16-.55-.24-.88-.24s-.61.08-.86.24-.45.38-.59.66-.21.61-.21.98.07.69.21.97.34.51.6.67.55.24.88.24Z" fill="#fffdf0" data-color="3"/>
        <path d="M127.64 50.2v-5h.8v5zm.44-2.71c0-.54.1-.98.31-1.32s.47-.59.79-.75.67-.24 1.02-.24v.75c-.29 0-.57.05-.84.14-.27.1-.49.25-.67.47-.17.22-.26.52-.26.9l-.36.04Z" fill="#fffdf0" data-color="3"/>
        <path d="M130.3 45.91v-.71h3.17v.71zm2.4 4.41c-.49 0-.86-.13-1.13-.38s-.4-.61-.4-1.07v-5.23h.8v5.15c0 .25.07.45.21.58s.33.21.58.21c.08 0 .16-.01.24-.04.08-.02.18-.08.3-.17l.31.65c-.17.11-.33.19-.47.23s-.28.07-.43.07Z" fill="#fffdf0" data-color="3"/>
        <path d="M136.56 50.32q-.735 0-1.29-.33c-.37-.22-.67-.53-.88-.92s-.31-.85-.31-1.36.1-.97.31-1.36.5-.7.87-.92.79-.33 1.28-.33.87.12 1.21.34c.34.23.6.55.79.97.19.41.28.9.28 1.46h-4.13l.2-.17c0 .4.07.74.21 1.03s.35.5.61.66.56.22.89.22c.35 0 .65-.08.9-.25.24-.17.43-.39.56-.66l.69.35c-.13.26-.29.49-.5.68s-.46.34-.74.45-.6.16-.95.16Zm-1.62-2.98-.21-.16h3.45l-.21.17c0-.32-.06-.6-.19-.83q-.195-.345-.51-.54c-.21-.13-.46-.19-.74-.19s-.53.06-.78.19c-.24.13-.44.3-.59.54-.15.23-.23.5-.23.82Z" fill="#fffdf0" data-color="3"/>
        <path d="M144.09 50.32q-.735 0-1.29-.33c-.37-.22-.67-.53-.88-.92s-.31-.85-.31-1.36.1-.97.31-1.36.5-.7.87-.92.79-.33 1.28-.33.87.12 1.21.34c.34.23.6.55.79.97.19.41.28.9.28 1.46h-4.13l.2-.17c0 .4.07.74.21 1.03s.35.5.61.66.56.22.89.22c.35 0 .65-.08.9-.25.24-.17.43-.39.56-.66l.69.35c-.13.26-.29.49-.5.68s-.46.34-.74.45-.6.16-.95.16Zm-1.62-2.98-.21-.16h3.45l-.21.17c0-.32-.06-.6-.19-.83q-.195-.345-.51-.54c-.21-.13-.46-.19-.74-.19s-.53.06-.78.19c-.24.13-.44.3-.59.54-.15.23-.23.5-.23.82Z" fill="#fffdf0" data-color="3"/>
        <path d="M151.18 50.32c-.37 0-.69-.05-.96-.17s-.5-.25-.69-.44c-.18-.18-.31-.38-.39-.59l.7-.29c.11.23.28.41.51.55q.345.21.75.21c.31 0 .58-.06.79-.19.21-.12.32-.3.32-.52 0-.21-.08-.37-.24-.5s-.39-.23-.7-.31l-.48-.13c-.45-.12-.81-.3-1.06-.54s-.38-.52-.38-.83c0-.47.16-.84.46-1.1.31-.26.77-.4 1.39-.4.29 0 .56.04.8.13s.45.21.62.37.3.34.38.55l-.7.31a.87.87 0 0 0-.43-.49c-.2-.1-.44-.15-.73-.15-.31 0-.55.07-.72.2s-.26.31-.26.54c0 .13.07.26.21.38s.35.21.63.29l.5.13c.33.08.6.2.82.36s.39.33.5.53.17.41.17.64q0 .45-.24.78c-.16.22-.38.39-.65.5-.27.12-.59.17-.94.17Z" fill="#fffdf0" data-color="3"/>
        <path d="M155.47 50.32c-.59 0-1.04-.13-1.38-.41-.33-.27-.5-.64-.5-1.12 0-.51.17-.89.5-1.17.34-.27.81-.41 1.42-.41h1.43v.67h-1.25c-.47 0-.8.08-1 .23s-.29.37-.29.66c0 .26.1.46.29.62.19.15.46.22.81.22q.435 0 .75-.18c.21-.12.38-.3.5-.53s.17-.5.17-.82h.34c0 .68-.15 1.22-.46 1.62s-.75.61-1.34.61Zm1.5-.12-.04-.82v-1.82c0-.39-.04-.72-.13-.98s-.22-.45-.41-.58-.43-.2-.73-.2c-.27 0-.51.06-.71.17s-.36.29-.48.53l-.72-.28c.13-.23.28-.43.46-.6q.27-.255.63-.39c.24-.09.51-.13.82-.13.47 0 .85.09 1.16.28s.53.45.68.81.23.8.22 1.33v2.71h-.75Z" fill="#fffdf0" data-color="3"/>
        <path d="M158.66 47.76V45.2h.8v2.56zm.8 0c0 .49.06.87.17 1.13s.27.44.47.53q.3.15.69.15c.43 0 .77-.16 1.01-.47s.37-.75.37-1.31h.39c0 .53-.08.98-.23 1.36s-.38.67-.67.87-.65.3-1.07.3q-.585 0-1.02-.24c-.29-.16-.52-.41-.68-.75s-.24-.79-.24-1.33v-.24h.8Zm2.76 2.44-.05-.92V45.2h.8v5z" fill="#fffdf0" data-color="3"/>
        <path d="M166.14 50.32c-.45 0-.84-.11-1.18-.33s-.61-.53-.79-.92c-.19-.4-.29-.85-.29-1.37s.09-.98.29-1.37c.19-.39.46-.7.79-.92s.73-.33 1.18-.33q.63 0 1.11.33c.32.22.56.53.73.92s.26.85.26 1.37-.09.97-.26 1.37-.42.71-.73.92q-.48.33-1.11.33m.18-.73q.435 0 .78-.24c.23-.16.41-.38.54-.67s.2-.61.2-.98-.07-.69-.2-.98-.31-.51-.54-.67-.49-.24-.79-.24-.59.08-.83.24-.43.38-.58.67c-.14.29-.21.61-.21.98s.07.69.21.98.33.51.58.67q.375.24.84.24m1.55.61-.04-.93V43.2h.8v7z" fill="#fffdf0" data-color="3"/>
        <path d="M171.41 50.32c-.59 0-1.04-.13-1.38-.41-.33-.27-.5-.64-.5-1.12 0-.51.17-.89.5-1.17.34-.27.81-.41 1.42-.41h1.43v.67h-1.25c-.47 0-.8.08-1 .23s-.29.37-.29.66c0 .26.1.46.29.62.19.15.46.22.81.22q.435 0 .75-.18c.21-.12.38-.3.5-.53s.17-.5.17-.82h.34c0 .68-.15 1.22-.46 1.62s-.75.61-1.34.61Zm1.5-.12-.04-.82v-1.82c0-.39-.04-.72-.13-.98s-.22-.45-.41-.58-.43-.2-.73-.2c-.27 0-.51.06-.71.17s-.36.29-.48.53l-.72-.28c.13-.23.28-.43.46-.6q.27-.255.63-.39c.24-.09.51-.13.82-.13.47 0 .85.09 1.16.28s.53.45.68.81.23.8.22 1.33v2.71h-.75Zm-1.94-5.71 1.17-1.29h1.03l-1.29 1.29z" fill="#fffdf0" data-color="3"/>
        <path d="m176.12 50.2-2.09-5h.83l2.04 5zm.05 0 2.04-5h.84l-2.09 5z" fill="#fffdf0" data-color="3"/>
        <path d="M181.71 50.32q-.735 0-1.29-.33c-.37-.22-.67-.53-.88-.92s-.31-.85-.31-1.36.1-.97.31-1.36.5-.7.87-.92.79-.33 1.28-.33.87.12 1.21.34c.34.23.6.55.79.97.19.41.28.9.28 1.46h-4.13l.2-.17c0 .4.07.74.21 1.03s.35.5.61.66.56.22.89.22c.35 0 .65-.08.9-.25.24-.17.43-.39.56-.66l.69.35c-.13.26-.29.49-.5.68s-.46.34-.74.45-.6.16-.95.16Zm-1.62-2.98-.21-.16h3.45l-.21.17c0-.32-.06-.6-.19-.83q-.195-.345-.51-.54c-.21-.13-.46-.19-.74-.19s-.53.06-.78.19c-.24.13-.44.3-.59.54-.15.23-.23.5-.23.82Z" fill="#fffdf0" data-color="3"/>
        <path d="M184.78 50.2v-7h.8v7z" fill="#fffdf0" data-color="3"/>
        <path d="m186.49 51.35.57-2.11h.9l-.78 2.11z" fill="#fffdf0" data-color="3"/>
        <path d="M191.16 52.2v-7h.75l.05.92v6.08zm2.49-1.88q-.63 0-1.11-.33c-.48-.33-.56-.53-.73-.92-.17-.4-.26-.85-.26-1.37s.09-.98.26-1.37.42-.7.73-.92.69-.33 1.11-.33c.45 0 .84.11 1.18.33s.61.53.79.92c.19.39.29.85.29 1.37s-.09.97-.29 1.37c-.19.4-.46.71-.79.92s-.73.33-1.18.33m-.18-.73c.31 0 .59-.08.83-.24s.44-.38.58-.67c.14-.28.22-.61.22-.99s-.07-.69-.21-.98-.33-.51-.57-.67-.53-.24-.84-.24c-.29 0-.56.08-.79.24s-.41.38-.54.67c-.13.28-.2.61-.2.99s.07.69.2.98.31.51.54.67q.345.24.78.24" fill="#fffdf0" data-color="3"/>
        <path d="M196.82 50.2v-5h.8v5zm.44-2.71c0-.54.1-.98.31-1.32s.47-.59.79-.75.67-.24 1.02-.24v.75c-.29 0-.57.05-.84.14-.27.1-.49.25-.67.47-.17.22-.26.52-.26.9l-.36.04Z" fill="#fffdf0" data-color="3"/>
        <path d="M202.22 50.32c-.49 0-.93-.11-1.3-.33-.38-.22-.67-.53-.88-.92s-.32-.85-.32-1.36.1-.97.31-1.36.5-.7.88-.92q.57-.33 1.29-.33c.72 0 .92.11 1.29.33.38.22.67.53.88.92s.31.85.31 1.36-.1.97-.31 1.36-.5.7-.88.92c-.37.22-.8.33-1.28.33Zm-.01-.74q.495 0 .87-.24c.25-.16.45-.38.59-.67.14-.28.21-.61.21-.97s-.07-.69-.21-.97-.34-.51-.6-.67c-.25-.16-.55-.24-.88-.24s-.61.08-.86.24-.45.38-.59.66-.21.61-.21.98.07.69.21.97.34.51.6.67.55.24.88.24Z" fill="#fffdf0" data-color="3"/>
        <path d="M205.6 50.2v-5h.75l.05.92v4.08zm3.51-2.56c0-.49-.06-.87-.17-1.13s-.27-.44-.47-.53c-.2-.1-.43-.15-.68-.15-.44 0-.78.16-1.02.46-.24.31-.37.75-.37 1.32h-.39c0-.53.08-.98.23-1.36s.38-.67.67-.87.65-.3 1.06-.3q.585 0 1.02.24c.29.16.52.4.68.75.16.34.24.79.23 1.34v.24h-.8Zm0 2.56v-2.56h.8v2.56z" fill="#fffdf0" data-color="3"/>
        <path d="M210.46 45.91v-.71h3.17v.71zm2.4 4.41c-.49 0-.86-.13-1.13-.38s-.4-.61-.4-1.07v-5.23h.8v5.15c0 .25.07.45.21.58s.33.21.58.21c.08 0 .16-.01.24-.04.08-.02.18-.08.3-.17l.31.65c-.17.11-.33.19-.47.23s-.28.07-.43.07Z" fill="#fffdf0" data-color="3"/>
        <path d="M216.75 50.32c-.49 0-.93-.11-1.3-.33-.38-.22-.67-.53-.88-.92s-.32-.85-.32-1.36.1-.97.31-1.36.5-.7.88-.92q.57-.33 1.29-.33c.72 0 .92.11 1.29.33.38.22.67.53.88.92s.31.85.31 1.36-.1.97-.31 1.36-.5.7-.88.92c-.37.22-.8.33-1.28.33Zm-.01-.74q.495 0 .87-.24c.25-.16.45-.38.59-.67.14-.28.21-.61.21-.97s-.07-.69-.21-.97-.34-.51-.6-.67c-.25-.16-.55-.24-.88-.24s-.61.08-.86.24-.45.38-.59.66-.21.61-.21.98.07.69.21.97.34.51.6.67.55.24.88.24Z" fill="#fffdf0" data-color="3"/>
        <path d="M222.45 52.2v-7h.75l.05.92v6.08zm2.49-1.88q-.63 0-1.11-.33c-.48-.33-.56-.53-.73-.92-.17-.4-.26-.85-.26-1.37s.09-.98.26-1.37.42-.7.73-.92.69-.33 1.11-.33c.45 0 .84.11 1.18.33s.61.53.79.92c.19.39.29.85.29 1.37s-.09.97-.29 1.37c-.19.4-.46.71-.79.92s-.73.33-1.18.33m-.18-.73c.31 0 .59-.08.83-.24s.44-.38.58-.67c.14-.28.22-.61.22-.99s-.07-.69-.21-.98-.33-.51-.57-.67-.53-.24-.84-.24c-.29 0-.56.08-.79.24s-.41.38-.54.67c-.13.28-.2.61-.2.99s.07.69.2.98.31.51.54.67q.345.24.78.24" fill="#fffdf0" data-color="3"/>
        <path d="M229.69 50.32c-.59 0-1.04-.13-1.38-.41-.33-.27-.5-.64-.5-1.12 0-.51.17-.89.5-1.17.34-.27.81-.41 1.42-.41h1.43v.67h-1.25c-.47 0-.8.08-1 .23s-.29.37-.29.66c0 .26.1.46.29.62.19.15.46.22.81.22q.435 0 .75-.18c.21-.12.38-.3.5-.53s.17-.5.17-.82h.34c0 .68-.15 1.22-.46 1.62s-.75.61-1.34.61Zm1.5-.12-.04-.82v-1.82c0-.39-.04-.72-.13-.98s-.22-.45-.41-.58-.43-.2-.73-.2c-.27 0-.51.06-.71.17s-.36.29-.48.53l-.72-.28c.13-.23.28-.43.46-.6q.27-.255.63-.39c.24-.09.51-.13.82-.13.47 0 .85.09 1.16.28s.53.45.68.81.23.8.22 1.33v2.71h-.75Z" fill="#fffdf0" data-color="3"/>
        <path d="M233.01 50.2v-5h.8v5zm.44-2.71c0-.54.1-.98.31-1.32s.47-.59.79-.75.67-.24 1.02-.24v.75c-.29 0-.57.05-.84.14-.27.1-.49.25-.67.47-.17.22-.26.52-.26.9l-.36.04Z" fill="#fffdf0" data-color="3"/>
        <path d="M237.77 50.32c-.59 0-1.04-.13-1.38-.41-.33-.27-.5-.64-.5-1.12 0-.51.17-.89.5-1.17.34-.27.81-.41 1.42-.41h1.43v.67h-1.25c-.47 0-.8.08-1 .23s-.29.37-.29.66c0 .26.1.46.29.62.19.15.46.22.81.22q.435 0 .75-.18c.21-.12.38-.3.5-.53s.17-.5.17-.82h.34c0 .68-.15 1.22-.46 1.62s-.75.61-1.34.61Zm1.5-.12-.04-.82v-1.82c0-.39-.04-.72-.13-.98s-.22-.45-.41-.58-.43-.2-.73-.2c-.27 0-.51.06-.71.17s-.36.29-.48.53l-.72-.28c.13-.23.28-.43.46-.6q.27-.255.63-.39c.24-.09.51-.13.82-.13.47 0 .85.09 1.16.28s.53.45.68.81.23.8.22 1.33v2.71h-.75Z" fill="#fffdf0" data-color="3"/>
        <path d="m86.03 61.7-2.09-5h.83l2.04 5zm.06 0 2.04-5h.84l-2.09 5z" fill="#fffdf0" data-color="3"/>
        <path d="M90.22 55.54c-.13 0-.25-.05-.35-.15a.485.485 0 0 1 0-.7.485.485 0 0 1 .7 0c.09.1.15.21.15.35s-.05.25-.15.35-.21.15-.35.15m-.41 6.16v-5h.8v5z" fill="#fffdf0" data-color="3"/>
        <path d="m93.56 61.7-2.09-5h.83l2.04 5zm.05 0 2.04-5h.84l-2.09 5z" fill="#fffdf0" data-color="3"/>
        <path d="M99.35 61.82q-.735 0-1.29-.33c-.37-.22-.67-.53-.88-.92s-.31-.85-.31-1.36.1-.97.31-1.36.5-.7.87-.92.79-.33 1.28-.33.87.12 1.21.34c.34.23.6.55.79.97.19.41.28.9.28 1.46h-4.13l.2-.17c0 .4.07.74.21 1.03s.35.5.61.66.56.22.89.22c.35 0 .65-.08.9-.25.24-.17.43-.39.56-.66l.69.35c-.13.26-.29.49-.5.68s-.46.34-.74.45-.6.16-.95.16Zm-1.62-2.98-.21-.16h3.45l-.21.17c0-.32-.06-.6-.19-.83q-.195-.345-.51-.54c-.21-.13-.46-.19-.74-.19s-.53.06-.78.19c-.24.13-.44.3-.59.54-.15.23-.23.5-.23.82Z" fill="#fffdf0" data-color="3"/>
        <path d="M102.62 61.7v-5h.8v5zm.44-2.71c0-.54.1-.98.31-1.32s.47-.59.79-.75.67-.24 1.02-.24v.75c-.29 0-.57.05-.84.14-.27.1-.49.25-.67.47-.17.22-.26.52-.26.9l-.36.04Z" fill="#fffdf0" data-color="3"/>
        <path d="M108.47 61.7v-5h.75l.04.7c.15-.27.35-.47.59-.61q.36-.21.84-.21c.4 0 .74.09 1.03.28.28.19.49.47.61.85.14-.37.35-.65.62-.84s.59-.29.96-.29c.56 0 1 .19 1.33.56.32.37.48.94.48 1.7v2.86h-.8v-2.56c0-.49-.05-.87-.15-1.13s-.24-.44-.42-.53q-.255-.15-.6-.15c-.39 0-.7.16-.92.46q-.33.465-.33 1.32v2.59h-.8v-2.56c0-.49-.05-.87-.16-1.13-.1-.26-.24-.44-.42-.53s-.38-.15-.6-.15c-.39 0-.69.16-.91.46q-.33.465-.33 1.32v2.59h-.8Z" fill="#fffdf0" data-color="3"/>
        <path d="M116.85 59.26V56.7h.8v2.56zm.8 0c0 .49.06.87.17 1.13s.27.44.47.53q.3.15.69.15c.43 0 .77-.16 1.01-.47s.37-.75.37-1.31h.39c0 .53-.08.98-.23 1.36s-.38.67-.67.87-.65.3-1.07.3q-.585 0-1.02-.24c-.29-.16-.52-.41-.68-.75s-.24-.79-.24-1.33v-.24h.8Zm2.76 2.44-.05-.92V56.7h.8v5z" fill="#fffdf0" data-color="3"/>
        <path d="M123.02 55.54c-.13 0-.25-.05-.35-.15a.485.485 0 0 1 0-.7.485.485 0 0 1 .7 0c.09.1.15.21.15.35s-.05.25-.15.35-.21.15-.35.15m-.41 6.16v-5h.8v5z" fill="#fffdf0" data-color="3"/>
        <path d="M124.36 57.41v-.71h3.17v.71zm2.4 4.41c-.49 0-.86-.13-1.13-.38s-.4-.61-.4-1.07v-5.23h.8v5.15c0 .25.07.45.21.58s.33.21.58.21c.08 0 .16-.01.24-.04.08-.02.18-.08.3-.17l.31.65c-.17.11-.33.19-.47.23s-.28.07-.43.07Z" fill="#fffdf0" data-color="3"/>
        <path d="M130.21 61.82c-.59 0-1.04-.13-1.38-.41-.33-.27-.5-.64-.5-1.12 0-.51.17-.89.5-1.17.34-.27.81-.41 1.42-.41h1.43v.67h-1.25c-.47 0-.8.08-1 .23s-.29.37-.29.66c0 .26.1.46.29.62.19.15.46.22.81.22q.435 0 .75-.18c.21-.12.38-.3.5-.53s.17-.5.17-.82h.34c0 .68-.15 1.22-.46 1.62s-.75.61-1.34.61Zm1.5-.12-.04-.82v-1.82c0-.39-.04-.72-.13-.98s-.22-.45-.41-.58-.43-.2-.73-.2c-.27 0-.51.06-.71.17s-.36.29-.48.53l-.72-.28c.13-.23.28-.43.46-.6q.27-.255.63-.39c.24-.09.51-.13.82-.13.47 0 .85.09 1.16.28s.53.45.68.81.23.8.22 1.33v2.71h-.75Z" fill="#fffdf0" data-color="3"/>
        <path d="M135.48 61.82c-.37 0-.69-.05-.96-.17s-.5-.25-.69-.44c-.18-.18-.31-.38-.39-.59l.7-.29c.11.23.28.41.51.55q.345.21.75.21c.31 0 .58-.06.79-.19.21-.12.32-.3.32-.52 0-.21-.08-.37-.24-.5s-.39-.23-.7-.31l-.48-.13c-.45-.12-.81-.3-1.06-.54s-.38-.52-.38-.83c0-.47.16-.84.46-1.1.31-.26.77-.4 1.39-.4.29 0 .56.04.8.13s.45.21.62.37.3.34.38.55l-.7.31a.87.87 0 0 0-.43-.49c-.2-.1-.44-.15-.73-.15-.31 0-.55.07-.72.2s-.26.31-.26.54c0 .13.07.26.21.38s.35.21.63.29l.5.13c.33.08.6.2.82.36s.39.33.5.53.17.41.17.64q0 .45-.24.78c-.16.22-.38.39-.65.5-.27.12-.59.17-.94.17Z" fill="#fffdf0" data-color="3"/>
        <path d="M142.44 61.82c-.59 0-1.04-.13-1.38-.41-.33-.27-.5-.64-.5-1.12 0-.51.17-.89.5-1.17.34-.27.81-.41 1.42-.41h1.43v.67h-1.25c-.47 0-.8.08-1 .23s-.29.37-.29.66c0 .26.1.46.29.62.19.15.46.22.81.22q.435 0 .75-.18c.21-.12.38-.3.5-.53s.17-.5.17-.82h.34c0 .68-.15 1.22-.46 1.62s-.75.61-1.34.61Zm1.5-.12-.04-.82v-1.82c0-.39-.04-.72-.13-.98s-.22-.45-.41-.58-.43-.2-.73-.2c-.27 0-.51.06-.71.17s-.36.29-.48.53l-.72-.28c.13-.23.28-.43.46-.6q.27-.255.63-.39c.24-.09.51-.13.82-.13.47 0 .85.09 1.16.28s.53.45.68.81.23.8.22 1.33v2.71h-.75Z" fill="#fffdf0" data-color="3"/>
        <path d="m147.36 61.7-2.09-5h.83l2.04 5zm.05 0 2.04-5h.84l-2.09 5z" fill="#fffdf0" data-color="3"/>
        <path d="M153.15 61.82q-.735 0-1.29-.33c-.37-.22-.67-.53-.88-.92s-.31-.85-.31-1.36.1-.97.31-1.36.5-.7.87-.92.79-.33 1.28-.33.87.12 1.21.34c.34.23.6.55.79.97.19.41.28.9.28 1.46h-4.13l.2-.17c0 .4.07.74.21 1.03s.35.5.61.66.56.22.89.22c.35 0 .65-.08.9-.25.24-.17.43-.39.56-.66l.69.35c-.13.26-.29.49-.5.68s-.46.34-.74.45-.6.16-.95.16Zm-1.62-2.98-.21-.16h3.45l-.21.17c0-.32-.06-.6-.19-.83q-.195-.345-.51-.54c-.21-.13-.46-.19-.74-.19s-.53.06-.78.19c-.24.13-.44.3-.59.54-.15.23-.23.5-.23.82Z" fill="#fffdf0" data-color="3"/>
        <path d="M156.42 61.7v-5h.75l.05.92v4.08zm3.51-2.56c0-.49-.06-.87-.17-1.13s-.27-.44-.47-.53c-.2-.1-.43-.15-.68-.15-.44 0-.78.16-1.02.46-.24.31-.37.75-.37 1.32h-.39c0-.53.08-.98.23-1.36s.38-.67.67-.87.65-.3 1.06-.3q.585 0 1.02.24c.29.16.52.4.68.75.16.34.24.79.23 1.34v.24h-.8Zm0 2.56v-2.56h.8v2.56z" fill="#fffdf0" data-color="3"/>
        <path d="M161.48 57.41v-.71h3.17v.71zm2.4 4.41c-.49 0-.86-.13-1.13-.38s-.4-.61-.4-1.07v-5.23h.8v5.15c0 .25.07.45.21.58s.33.21.58.21c.08 0 .16-.01.24-.04.08-.02.18-.08.3-.17l.31.65c-.17.11-.33.19-.47.23s-.28.07-.43.07Z" fill="#fffdf0" data-color="3"/>
        <path d="M165.65 59.26V56.7h.8v2.56zm.8 0c0 .49.06.87.17 1.13s.27.44.47.53q.3.15.69.15c.43 0 .77-.16 1.01-.47s.37-.75.37-1.31h.39c0 .53-.08.98-.23 1.36s-.38.67-.67.87-.65.3-1.07.3q-.585 0-1.02-.24c-.29-.16-.52-.41-.68-.75s-.24-.79-.24-1.33v-.24h.8Zm2.76 2.44-.05-.92V56.7h.8v5z" fill="#fffdf0" data-color="3"/>
        <path d="M171.36 61.7v-5h.8v5zm.44-2.71c0-.54.1-.98.31-1.32s.47-.59.79-.75.67-.24 1.02-.24v.75c-.29 0-.57.05-.84.14-.27.1-.49.25-.67.47-.17.22-.26.52-.26.9l-.36.04Z" fill="#fffdf0" data-color="3"/>
        <path d="M176.32 61.82c-.59 0-1.04-.13-1.38-.41-.33-.27-.5-.64-.5-1.12 0-.51.17-.89.5-1.17.34-.27.81-.41 1.42-.41h1.43v.67h-1.25c-.47 0-.8.08-1 .23s-.29.37-.29.66c0 .26.1.46.29.62.19.15.46.22.81.22q.435 0 .75-.18c.21-.12.38-.3.5-.53s.17-.5.17-.82h.34c0 .68-.15 1.22-.46 1.62s-.75.61-1.34.61Zm1.5-.12-.04-.82v-1.82c0-.39-.04-.72-.13-.98s-.22-.45-.41-.58-.43-.2-.73-.2c-.27 0-.51.06-.71.17s-.36.29-.48.53l-.72-.28c.13-.23.28-.43.46-.6q.27-.255.63-.39c.24-.09.51-.13.82-.13.47 0 .85.09 1.16.28s.53.45.68.81.23.8.22 1.33v2.71h-.75Z" fill="#fffdf0" data-color="3"/>
        <path d="M181.59 61.82c-.37 0-.69-.05-.96-.17s-.5-.25-.69-.44c-.18-.18-.31-.38-.39-.59l.7-.29c.11.23.28.41.51.55q.345.21.75.21c.31 0 .58-.06.79-.19.21-.12.32-.3.32-.52 0-.21-.08-.37-.24-.5s-.39-.23-.7-.31l-.48-.13c-.45-.12-.81-.3-1.06-.54s-.38-.52-.38-.83c0-.47.16-.84.46-1.1.31-.26.77-.4 1.39-.4.29 0 .56.04.8.13s.45.21.62.37.3.34.38.55l-.7.31a.87.87 0 0 0-.43-.49c-.2-.1-.44-.15-.73-.15-.31 0-.55.07-.72.2s-.26.31-.26.54c0 .13.07.26.21.38s.35.21.63.29l.5.13c.33.08.6.2.82.36s.39.33.5.53.17.41.17.64q0 .45-.24.78c-.16.22-.38.39-.65.5-.27.12-.59.17-.94.17Z" fill="#fffdf0" data-color="3"/>
        <path d="M189.2 61.82c-.49 0-.93-.11-1.31-.33s-.68-.53-.89-.92-.32-.85-.32-1.36.1-.97.31-1.36.51-.7.89-.92.81-.33 1.3-.33.91.11 1.29.33.67.53.87.93l-.73.33c-.13-.27-.33-.47-.58-.62s-.54-.22-.87-.22-.61.08-.86.24-.45.38-.59.67c-.14.28-.21.61-.21.97s.07.69.21.97.34.51.6.67.55.24.88.24.62-.08.88-.25.45-.4.58-.7l.73.33c-.2.43-.49.76-.87 1s-.81.36-1.3.36Z" fill="#fffdf0" data-color="3"/>
        <path d="M194.6 61.82c-.49 0-.93-.11-1.3-.33-.38-.22-.67-.53-.88-.92s-.32-.85-.32-1.36.1-.97.31-1.36.5-.7.88-.92q.57-.33 1.29-.33c.72 0 .92.11 1.29.33.38.22.67.53.88.92s.31.85.31 1.36-.1.97-.31 1.36-.5.7-.88.92c-.37.22-.8.33-1.28.33Zm-.01-.74q.495 0 .87-.24c.25-.16.45-.38.59-.67.14-.28.21-.61.21-.97s-.07-.69-.21-.97-.34-.51-.6-.67c-.25-.16-.55-.24-.88-.24s-.61.08-.86.24-.45.38-.59.66-.21.61-.21.98.07.69.21.97.34.51.6.67.55.24.88.24Z" fill="#fffdf0" data-color="3"/>
        <path d="M198.18 61.7v-5h.75l.04.7c.15-.27.35-.47.59-.61q.36-.21.84-.21c.4 0 .74.09 1.03.28.28.19.49.47.61.85.14-.37.35-.65.62-.84s.59-.29.96-.29c.56 0 1 .19 1.33.56.32.37.48.94.48 1.7v2.86h-.8v-2.56c0-.49-.05-.87-.15-1.13s-.24-.44-.42-.53q-.255-.15-.6-.15c-.39 0-.7.16-.92.46q-.33.465-.33 1.32v2.59h-.8v-2.56c0-.49-.05-.87-.16-1.13-.1-.26-.24-.44-.42-.53s-.38-.15-.6-.15c-.39 0-.69.16-.91.46q-.33.465-.33 1.32v2.59h-.8Z" fill="#fffdf0" data-color="3"/>
        <path d="m210.63 61.7-2.09-5h.83l2.04 5zm.06 0 2.04-5h.84l-2.09 5z" fill="#fffdf0" data-color="3"/>
        <path d="M216.45 61.82c-.49 0-.93-.11-1.3-.33-.38-.22-.67-.53-.88-.92s-.32-.85-.32-1.36.1-.97.31-1.36.5-.7.88-.92q.57-.33 1.29-.33c.72 0 .92.11 1.29.33.38.22.67.53.88.92s.31.85.31 1.36-.1.97-.31 1.36-.5.7-.88.92c-.37.22-.8.33-1.28.33Zm0-.74q.495 0 .87-.24c.25-.16.45-.38.59-.67.14-.28.21-.61.21-.97s-.07-.69-.21-.97-.34-.51-.6-.67c-.25-.16-.55-.24-.88-.24s-.61.08-.86.24-.45.38-.59.66-.21.61-.21.98.07.69.21.97.34.51.6.67.55.24.88.24Z" fill="#fffdf0" data-color="3"/>
        <path d="M222.26 61.82c-.49 0-.93-.11-1.31-.33s-.68-.53-.89-.92-.32-.85-.32-1.36.1-.97.31-1.36.51-.7.89-.92.81-.33 1.3-.33.91.11 1.29.33.67.53.87.93l-.73.33c-.13-.27-.33-.47-.58-.62s-.54-.22-.87-.22-.61.08-.86.24-.45.38-.59.67c-.14.28-.21.61-.21.97s.07.69.21.97.34.51.6.67.55.24.88.24.62-.08.88-.25.45-.4.58-.7l.73.33c-.2.43-.49.76-.87 1s-.81.36-1.3.36Z" fill="#fffdf0" data-color="3"/>
        <path d="M227.63 61.82q-.735 0-1.29-.33c-.37-.22-.67-.53-.88-.92s-.31-.85-.31-1.36.1-.97.31-1.36.5-.7.87-.92.79-.33 1.28-.33.87.12 1.21.34c.34.23.6.55.79.97.19.41.28.9.28 1.46h-4.13l.2-.17c0 .4.07.74.21 1.03s.35.5.61.66.56.22.89.22c.35 0 .65-.08.9-.25.24-.17.43-.39.56-.66l.69.35c-.13.26-.29.49-.5.68s-.46.34-.74.45-.6.16-.95.16Zm-1.62-2.98-.21-.16h3.45l-.21.17c0-.32-.06-.6-.19-.83q-.195-.345-.51-.54c-.21-.13-.46-.19-.74-.19s-.53.06-.78.19c-.24.13-.44.3-.59.54-.15.23-.23.5-.23.82Zm-.1-2.96 1.21-1.3h.98v.03l-1.31 1.27zm2.53 0-1.31-1.27v-.03h.98l1.21 1.3z" fill="#fffdf0" data-color="3"/>
        <path d="M231.25 61.84c-.15 0-.29-.05-.4-.17s-.16-.24-.16-.38.05-.29.16-.39.24-.17.4-.17.28.05.39.17c.11.11.16.24.16.39s-.05.28-.16.38c-.11.11-.24.17-.39.17" fill="#fffdf0" data-color="3"/>
    </g>
</svg>
