<?xml version="1.0" encoding="UTF-8"?>
<svg data-bbox="0.2 0.2 220.37 70.6" viewBox="0 0 220.58 71" xmlns="http://www.w3.org/2000/svg" data-type="ugc">
    <g>
        <path fill="#fffdf0" stroke="#fffdf0" stroke-miterlimit="10" stroke-width=".4" d="M70.8 35.5c0 19.496-15.804 35.3-35.3 35.3S.2 54.996.2 35.5 16.004.2 35.5.2s35.3 15.804 35.3 35.3z"/>
        <path d="M35.04 45.58c-.09 0-.18-.03-.26-.09L17.55 31.32c-.5-.41-.81-1.02-.84-1.67s.21-1.29.67-1.75l10.09-10.15c.46-.46 1.09-.7 1.74-.67s1.25.34 1.66.85l14.08 17.33a.4.4 0 0 1-.03.54l-9.61 9.67a.4.4 0 0 1-.29.12h.02ZM18.07 30.7l16.94 13.94 9.1-9.15-13.86-17.05c-.27-.33-.65-.53-1.08-.55-.42-.02-.82.13-1.13.44L17.95 28.48a1.506 1.506 0 0 0 .11 2.23h.01Z" fill="#005f21"/>
        <path d="M36.13 48.3c-.53 0-1.02-.21-1.4-.58-.77-.77-.77-2.03 0-2.81l9.65-9.7c.37-.38.87-.58 1.4-.58s1.02.21 1.4.58c.77.77.77 2.03 0 2.81l-9.65 9.7c-.37.38-.87.58-1.4.58m9.65-12.87c-.31 0-.6.12-.82.34l-9.65 9.7c-.46.46-.46 1.21 0 1.67s1.21.44 1.65 0l9.65-9.7c.46-.46.46-1.21 0-1.67a1.15 1.15 0 0 0-.82-.34z" fill="#005f21"/>
        <path d="M42.16 49.46c-1.8 0-3.5-.71-4.77-1.99-.16-.16-.16-.41 0-.57s.41-.16.57 0c1.12 1.13 2.61 1.75 4.2 1.75s3.08-.62 4.2-1.75a6 6 0 0 0 0-8.45c-.16-.16-.16-.41 0-.57s.41-.16.57 0c2.63 2.64 2.63 6.95 0 9.59a6.7 6.7 0 0 1-4.77 1.99" fill="#005f21"/>
        <path d="M36.48 33.25c-2.2 0-4.16-.47-6.09-.94-3.3-.8-6.71-1.62-11.37-.04a.402.402 0 0 1-.26-.76c4.88-1.65 8.41-.81 11.82.02 3.38.81 6.58 1.58 11 0 .21-.08.44.03.52.24s-.03.44-.24.52c-1.98.72-3.74.97-5.38.97Z" fill="#005f21"/>
        <path fill="#005f21" d="M47.12 44.02a.4.4 0 1 1-.8 0 .4.4 0 0 1 .8 0"/>
        <path fill="#005f21" d="M50.57 53.53a.4.4 0 1 1-.8 0 .4.4 0 0 1 .8 0"/>
        <path fill="#005f21" d="M52.89 52.89a.4.4 0 1 1-.8 0 .4.4 0 0 1 .8 0"/>
        <path fill="#005f21" d="M54.29 50.91a.4.4 0 1 1-.8 0 .4.4 0 0 1 .8 0"/>
        <path fill="#005f21" d="M53.29 48.92a.4.4 0 1 1-.8 0 .4.4 0 0 1 .8 0"/>
        <path fill="#005f21" d="M51.67 51.13a.4.4 0 1 1-.8 0 .4.4 0 0 1 .8 0"/>
        <path fill="#005f21" d="M48.45 52.92a.4.4 0 1 1-.8 0 .4.4 0 0 1 .8 0"/>
        <path fill="#005f21" d="M49.63 50.66a.4.4 0 1 1-.8 0 .4.4 0 0 1 .8 0"/>
        <path fill="#005f21" d="M51.03 48.69a.4.4 0 1 1-.8 0 .4.4 0 0 1 .8 0"/>
        <path fill="#005f21" d="M50.57 46.66a.4.4 0 1 1-.8 0 .4.4 0 0 1 .8 0"/>
        <path fill="#005f21" d="M48.63 48.71a.4.4 0 1 1-.8 0 .4.4 0 0 1 .8 0"/>
        <path fill="#005f21" d="M47.06 50.75a.4.4 0 1 1-.8 0 .4.4 0 0 1 .8 0"/>
        <path fill="#005f21" d="M43.85 47.21a.4.4 0 1 1-.8 0 .4.4 0 0 1 .8 0"/>
        <path fill="#005f21" d="M46.03 46.17a.4.4 0 1 1-.8 0 .4.4 0 0 1 .8 0"/>
        <path fill="#005f21" d="M44.52 44.65a.4.4 0 1 1-.8 0 .4.4 0 0 1 .8 0"/>
        <path d="M88.58 21.33c-.33 0-.65-.04-.96-.13s-.6-.22-.85-.38a2.7 2.7 0 0 1-.64-.54c-.17-.2-.27-.42-.3-.65l1.84-.51c.06.17.16.31.31.42.15.12.34.18.57.2a.8.8 0 0 0 .5-.15q.21-.165.21-.42 0-.165-.12-.33c-.12-.165-.21-.18-.39-.22l-1.05-.27c-.36-.09-.67-.24-.92-.43-.26-.19-.46-.43-.59-.71s-.2-.59-.2-.94c0-.69.23-1.22.68-1.6s1.1-.58 1.93-.58c.44 0 .83.06 1.16.17q.51.165.87.54c.24.24.45.56.61.96l-1.83.53a.9.9 0 0 0-.26-.4c-.14-.13-.32-.2-.55-.2s-.4.05-.53.15a.55.55 0 0 0-.19.44c0 .12.05.23.15.32s.24.16.43.21l1.06.27c.53.13.95.4 1.25.79s.45.83.45 1.33c0 .46-.1.85-.31 1.17s-.51.56-.9.73-.86.25-1.41.25Z" fill="#fffdf0"/>
        <path d="M95.53 21.33c-.73 0-1.38-.16-1.95-.46-.56-.31-1-.74-1.32-1.28s-.48-1.17-.48-1.87.16-1.33.48-1.88c.32-.54.76-.97 1.32-1.28s1.2-.47 1.93-.47 1.38.16 1.94.47 1 .74 1.32 1.28.48 1.17.48 1.88-.16 1.32-.47 1.87-.76.97-1.32 1.28-1.2.46-1.93.46m0-1.7c.36 0 .68-.08.95-.25.27-.16.49-.39.64-.67.15-.29.23-.62.23-.99s-.08-.71-.23-1-.37-.52-.65-.68-.6-.25-.96-.25-.67.08-.95.25-.49.39-.65.68-.23.62-.23 1 .08.7.24.99.38.51.65.67c.28.16.6.25.96.25m-1-5.93 1.1-1.39h1.9l-1.3 1.39z" fill="#fffdf0"/>
        <path d="M100.1 21.21v-7h2.34q1.155 0 2.04.45c.885.45 1.05.71 1.38 1.23s.5 1.13.5 1.82-.17 1.28-.5 1.81-.79.94-1.38 1.24-1.27.45-2.04.45zm1.85-1.75h.49c.29 0 .56-.04.81-.13s.46-.21.64-.36a1.62 1.62 0 0 0 .57-1.26 1.62 1.62 0 0 0-.57-1.26 2.1 2.1 0 0 0-.64-.36c-.25-.09-.52-.13-.81-.13h-.49z" fill="#fffdf0"/>
        <path d="M107.21 21.21v-7h1.85v7z" fill="#fffdf0"/>
        <path d="M113.66 21.33c-.73 0-1.38-.16-1.95-.46-.56-.31-1.01-.74-1.32-1.28-.32-.54-.48-1.17-.48-1.87s.16-1.33.48-1.88c.32-.54.76-.97 1.32-1.28s1.2-.47 1.93-.47 1.38.16 1.94.47 1 .74 1.32 1.28.48 1.17.48 1.88-.16 1.32-.47 1.87-.75.97-1.31 1.28-1.2.46-1.93.46Zm0-1.7c.36 0 .68-.08.95-.25.27-.16.49-.39.64-.67.15-.29.23-.62.23-.99s-.08-.71-.24-1-.37-.52-.65-.68-.59-.25-.95-.25-.67.08-.95.25c-.28.16-.49.39-.65.68s-.23.62-.23 1 .08.7.24.99.38.51.66.67.59.25.96.25Z" fill="#fffdf0"/>
        <path d="M123.76 21.33c-.7 0-1.32-.16-1.86-.46-.54-.31-.96-.74-1.27-1.28s-.46-1.17-.46-1.88.15-1.33.46-1.88.73-.97 1.27-1.28 1.15-.46 1.86-.46c.54 0 1.03.09 1.46.28s.81.45 1.12.78.55.72.72 1.16l-1.76.56c-.09-.22-.21-.41-.36-.58s-.32-.29-.52-.38-.42-.13-.66-.13c-.33 0-.62.08-.87.25-.25.16-.45.39-.59.67-.14.29-.21.62-.21 1s.07.71.22 1 .35.52.61.68.55.25.88.25c.26 0 .48-.04.68-.13.19-.09.35-.22.49-.38.13-.16.25-.36.35-.58l1.76.56c-.16.44-.4.83-.71 1.17s-.69.6-1.13.79-.93.28-1.47.28Z" fill="#fffdf0"/>
        <path d="M131.22 21.33c-.73 0-1.38-.16-1.95-.46-.56-.31-1-.74-1.32-1.28s-.48-1.17-.48-1.87.16-1.33.48-1.88c.32-.54.76-.97 1.32-1.28s1.2-.47 1.93-.47 1.38.16 1.94.47 1 .74 1.32 1.28.48 1.17.48 1.88-.16 1.32-.47 1.87-.76.97-1.32 1.28-1.2.46-1.93.46m0-1.7c.36 0 .68-.08.95-.25.27-.16.49-.39.64-.67.15-.29.23-.62.23-.99s-.08-.71-.23-1-.37-.52-.65-.68-.6-.25-.96-.25-.67.08-.95.25-.49.39-.65.68-.23.62-.23 1 .08.7.24.99.38.51.65.67c.28.16.6.25.96.25" fill="#fffdf0"/>
        <path d="M135.79 21.21v-7h1.95l2.73 3.85v-3.85h1.85v7h-1.85l-2.83-3.99v3.99z" fill="#fffdf0"/>
        <path d="M145.07 21.21v-5.3h-1.98v-1.7h5.8v1.7h-1.97v5.3z" fill="#fffdf0"/>
        <path d="M149.66 21.21v-7h2.9c.53 0 .99.1 1.4.3s.72.48.96.84c.23.36.34.77.34 1.24s-.12.88-.34 1.25c-.23.36-.55.65-.96.85s-.88.31-1.4.31h-1.05v2.22h-1.85Zm1.85-3.92h.95c.17 0 .31-.03.44-.09a.68.68 0 0 0 .41-.61c0-.2-.08-.37-.24-.5s-.36-.19-.61-.19h-.95zm1.91 3.92-1.56-2.75 1.39-1.04 2.29 3.79z" fill="#fffdf0"/>
        <path d="M159.69 21.33c-.73 0-1.38-.16-1.95-.46-.56-.31-1-.74-1.32-1.28s-.48-1.17-.48-1.87.16-1.33.48-1.88c.32-.54.76-.97 1.32-1.28s1.2-.47 1.93-.47 1.38.16 1.94.47 1 .74 1.32 1.28.48 1.17.48 1.88-.16 1.32-.47 1.87-.76.97-1.32 1.28-1.2.46-1.93.46m0-1.7c.36 0 .68-.08.95-.25.27-.16.49-.39.64-.67.15-.29.23-.62.23-.99s-.08-.71-.23-1-.37-.52-.65-.68-.6-.25-.96-.25-.67.08-.95.25-.49.39-.65.68-.23.62-.23 1 .08.7.24.99.38.51.65.67c.28.16.6.25.96.25" fill="#fffdf0"/>
        <path d="M164.26 21.21v-7h1.85v5.3h2.88v1.7z" fill="#fffdf0"/>
        <path d="m169.26 21.21 2.68-7h1.84l-2.56 7zm1.26-1.12v-1.63h4.84v1.63zm4.13 1.12-2.56-7h1.84l2.68 7z" fill="#fffdf0"/>
        <path d="M177.28 21.21v-7h2.34c.77 0 1.44.15 2.03.45s1.05.71 1.39 1.23c.33.52.5 1.13.5 1.82s-.17 1.28-.5 1.81-.79.94-1.39 1.24c-.59.3-1.27.45-2.03.45zm1.85-1.75h.49c.29 0 .56-.04.81-.13s.46-.21.64-.36a1.62 1.62 0 0 0 .57-1.26 1.62 1.62 0 0 0-.57-1.26c-.18-.15-.39-.27-.64-.36s-.52-.13-.81-.13h-.49z" fill="#fffdf0"/>
        <path d="M187.79 21.33c-.73 0-1.38-.16-1.95-.46-.56-.31-1.01-.74-1.32-1.28-.32-.54-.48-1.17-.48-1.87s.16-1.33.48-1.88c.32-.54.76-.97 1.32-1.28s1.2-.47 1.93-.47 1.38.16 1.94.47 1 .74 1.32 1.28.48 1.17.48 1.88-.16 1.32-.47 1.87-.75.97-1.31 1.28-1.2.46-1.93.46Zm0-1.7c.36 0 .68-.08.95-.25.27-.16.49-.39.64-.67.15-.29.23-.62.23-.99s-.08-.71-.24-1-.37-.52-.65-.68-.59-.25-.95-.25-.67.08-.95.25c-.28.16-.49.39-.65.68s-.23.62-.23 1 .08.7.24.99.38.51.66.67.59.25.96.25Z" fill="#fffdf0"/>
        <path d="M86.46 32.71v-7h4.14v.77h-3.29v2.26h3v.76h-3v2.44h3.31v.77z" fill="#fffdf0"/>
        <path d="M91.95 32.71v-5h.75l.04.7c.15-.27.35-.47.59-.61q.36-.21.84-.21c.4 0 .74.09 1.03.28.28.19.49.47.61.85.14-.37.35-.65.62-.84s.59-.29.96-.29c.56 0 1 .19 1.33.56.32.37.48.94.47 1.7v2.86h-.8v-2.56c0-.49-.05-.87-.15-1.13s-.24-.44-.41-.53c-.17-.1-.38-.15-.6-.15-.39 0-.7.16-.92.46q-.33.465-.33 1.32v2.59h-.8v-2.56c0-.49-.05-.87-.16-1.13-.1-.26-.24-.44-.42-.53q-.27-.15-.6-.15c-.39 0-.69.16-.91.46q-.33.465-.33 1.32v2.59h-.8Z" fill="#fffdf0"/>
        <path d="M104.5 32.83c-.45 0-.84-.11-1.18-.33s-.61-.53-.79-.92c-.19-.4-.29-.85-.29-1.37s.09-.98.29-1.37c.19-.39.46-.7.79-.92s.73-.33 1.18-.33q.63 0 1.11.33c.32.22.56.53.73.92s.26.85.26 1.37-.09.97-.26 1.37-.42.71-.73.92q-.48.33-1.11.33m.18-.73q.435 0 .78-.24c.23-.16.41-.38.54-.67s.2-.61.2-.98-.06-.69-.2-.98c-.13-.29-.31-.51-.54-.67s-.49-.24-.79-.24q-.465 0-.84.24c-.24.16-.43.38-.57.67s-.21.61-.21.98.07.69.21.98.33.51.58.67q.375.24.84.24m1.51 2.61v-6.07l.04-.93h.76v7z" fill="#fffdf0"/>
        <path d="M107.98 30.27v-2.56h.8v2.56zm.8 0c0 .49.06.87.17 1.13s.27.44.47.53c.21.1.43.15.69.15.43 0 .77-.16 1.02-.47.24-.31.37-.75.37-1.31h.39c0 .53-.08.98-.23 1.36s-.38.67-.67.87-.64.3-1.06.3q-.585 0-1.02-.24c-.29-.16-.52-.41-.68-.75s-.24-.79-.24-1.33v-.24h.8Zm2.76 2.44-.05-.92v-4.08h.8v5z" fill="#fffdf0"/>
        <path d="M115.07 32.83c-.59 0-1.04-.13-1.38-.41-.33-.27-.5-.64-.5-1.12 0-.51.17-.89.51-1.17.34-.27.81-.41 1.41-.41h1.43v.67h-1.25c-.47 0-.8.08-.99.23s-.29.37-.29.66c0 .26.1.46.29.62.19.15.46.22.81.22q.435 0 .75-.18c.21-.12.38-.3.5-.53s.17-.5.17-.82h.34c0 .68-.15 1.22-.46 1.62s-.75.61-1.34.61Zm1.5-.12-.04-.82v-1.82c0-.39-.04-.72-.13-.98s-.22-.45-.41-.58-.43-.2-.73-.2c-.27 0-.51.06-.71.17s-.36.29-.48.53l-.72-.28c.13-.23.28-.43.46-.6q.27-.255.63-.39c.24-.09.51-.13.82-.13.47 0 .85.09 1.15.28q.45.27.69.81c.15.36.23.8.22 1.33v2.71h-.75Z" fill="#fffdf0"/>
        <path d="M118.39 32.71v-5h.75l.05.92v4.08zm3.51-2.56c0-.49-.06-.87-.17-1.13s-.27-.44-.47-.53c-.2-.1-.43-.15-.68-.15-.44 0-.78.16-1.02.46-.24.31-.37.75-.37 1.32h-.39c0-.53.08-.98.23-1.36s.38-.67.67-.87.65-.3 1.06-.3q.585 0 1.02.24c.29.16.52.4.68.75.16.34.24.79.23 1.34v.24h-.8Zm0 2.56v-2.56h.8v2.56z" fill="#fffdf0"/>
        <path d="M123.25 28.42v-.71h3.17v.71zm2.4 4.41c-.49 0-.86-.13-1.13-.38s-.4-.61-.4-1.07v-5.23h.8v5.15c0 .25.07.45.21.58s.33.21.58.21c.08 0 .16-.01.23-.04s.18-.08.3-.17l.31.65c-.17.11-.33.19-.47.23s-.28.07-.43.07" fill="#fffdf0"/>
        <path d="M127.81 26.55c-.13 0-.25-.05-.35-.15a.485.485 0 0 1 0-.7.485.485 0 0 1 .7 0c.1.1.15.21.15.35s-.05.25-.15.35-.21.15-.35.15m-.41 6.16v-5h.8v5z" fill="#fffdf0"/>
        <path d="M131.44 32.83c-.45 0-.84-.11-1.18-.33s-.61-.53-.79-.92-.29-.85-.29-1.37.1-.98.29-1.37.46-.7.79-.92.73-.33 1.18-.33q.63 0 1.11.33c.48.33.56.53.73.92s.26.85.26 1.37-.09.97-.26 1.37-.42.71-.73.92-.69.33-1.11.33m.18-.73q.435 0 .78-.24c.23-.16.4-.38.54-.67.13-.29.2-.61.2-.98s-.07-.69-.2-.98-.31-.51-.54-.67-.49-.24-.79-.24-.59.08-.83.24-.44.38-.58.67-.21.61-.21.98.07.69.21.98.33.51.58.67q.375.24.84.24m1.55.61-.04-.93v-6.07h.8v7z" fill="#fffdf0"/>
        <path d="M136.71 32.83c-.59 0-1.04-.13-1.38-.41-.33-.27-.5-.64-.5-1.12 0-.51.17-.89.51-1.17.34-.27.81-.41 1.41-.41h1.43v.67h-1.25c-.47 0-.8.08-.99.23s-.29.37-.29.66c0 .26.1.46.29.62.19.15.46.22.81.22q.435 0 .75-.18c.21-.12.38-.3.5-.53s.17-.5.17-.82h.34c0 .68-.15 1.22-.46 1.62s-.75.61-1.34.61Zm1.5-.12-.04-.82v-1.82c0-.39-.04-.72-.13-.98s-.22-.45-.41-.58-.43-.2-.73-.2c-.27 0-.51.06-.71.17s-.36.29-.48.53l-.72-.28c.13-.23.28-.43.46-.6q.27-.255.63-.39c.24-.09.51-.13.82-.13.47 0 .85.09 1.15.28q.45.27.69.81c.15.36.23.8.22 1.33v2.71h-.75Z" fill="#fffdf0"/>
        <path d="M142 32.83c-.45 0-.84-.11-1.18-.33s-.61-.53-.79-.92c-.19-.4-.29-.85-.29-1.37s.09-.98.29-1.37c.19-.39.46-.7.79-.92s.73-.33 1.18-.33q.63 0 1.11.33c.32.22.56.53.73.92s.26.85.26 1.37-.09.97-.26 1.37-.42.71-.73.92q-.48.33-1.11.33m.18-.73q.435 0 .78-.24c.23-.16.41-.38.54-.67s.2-.61.2-.98-.06-.69-.2-.98c-.13-.29-.31-.51-.54-.67s-.49-.24-.79-.24q-.465 0-.84.24c-.24.16-.43.38-.57.67s-.21.61-.21.98.07.69.21.98.33.51.58.67q.375.24.84.24m1.55.61-.04-.93v-6.07h.8v7z" fill="#fffdf0"/>
        <path d="M147.88 32.83q-.735 0-1.29-.33c-.37-.22-.67-.53-.88-.92s-.31-.85-.31-1.36.1-.97.31-1.36.5-.7.87-.92.79-.33 1.28-.33.87.12 1.21.34c.34.23.6.55.79.97.19.41.28.9.28 1.46h-4.13l.2-.17c0 .4.07.74.21 1.03s.35.5.61.66.56.22.89.22c.35 0 .65-.08.89-.25s.43-.39.56-.66l.69.35c-.13.26-.29.49-.51.68-.21.19-.46.34-.74.45s-.6.16-.95.16Zm-1.62-2.98-.21-.16h3.45l-.21.17c0-.32-.06-.6-.19-.83s-.3-.41-.51-.54-.46-.19-.74-.19-.53.06-.78.19c-.24.13-.44.3-.59.54-.15.23-.22.5-.22.82" fill="#fffdf0"/>
        <path d="M152.7 32.83c-.37 0-.69-.05-.96-.17s-.5-.25-.69-.44c-.18-.18-.31-.38-.39-.59l.7-.29c.11.23.28.41.51.55q.345.21.75.21c.31 0 .58-.06.79-.19.21-.12.32-.3.32-.52 0-.21-.08-.37-.23-.5-.16-.13-.39-.23-.7-.31l-.48-.13c-.45-.12-.81-.3-1.06-.54s-.38-.52-.38-.83c0-.47.15-.84.46-1.1s.77-.4 1.38-.4c.29 0 .56.04.8.13s.45.21.62.37.3.34.38.55l-.7.31c-.09-.23-.23-.39-.43-.49s-.44-.15-.73-.15c-.31 0-.55.07-.72.2s-.26.31-.26.54c0 .13.07.26.21.38s.35.21.63.29l.5.13c.33.08.6.2.82.36s.38.33.5.53c.11.2.17.41.17.64q0 .45-.24.78c-.16.22-.38.39-.65.5-.27.12-.59.17-.94.17Z" fill="#fffdf0"/>
        <path d="M157.68 32.71v-5h.8v5zm.44-2.71c0-.54.1-.98.31-1.32s.47-.59.79-.75.67-.24 1.03-.24v.75c-.29 0-.57.05-.85.14-.27.1-.49.25-.66.47s-.26.52-.26.9l-.36.04Z" fill="#fffdf0"/>
        <path d="M163.05 32.83q-.735 0-1.29-.33c-.37-.22-.67-.53-.88-.92s-.31-.85-.31-1.36.1-.97.31-1.36.5-.7.87-.92.79-.33 1.28-.33.87.12 1.21.34c.34.23.6.55.79.97.19.41.28.9.28 1.46h-4.13l.2-.17c0 .4.07.74.21 1.03s.35.5.61.66.56.22.89.22c.35 0 .65-.08.89-.25s.43-.39.56-.66l.69.35c-.13.26-.29.49-.51.68-.21.19-.46.34-.74.45s-.6.16-.95.16Zm-1.62-2.98-.21-.16h3.45l-.21.17c0-.32-.06-.6-.19-.83s-.3-.41-.51-.54-.46-.19-.74-.19-.53.06-.78.19c-.24.13-.44.3-.59.54-.15.23-.22.5-.22.82" fill="#fffdf0"/>
        <path d="M168.35 32.83c-.49 0-.93-.11-1.31-.33s-.68-.53-.89-.92-.32-.85-.32-1.36.1-.97.31-1.36.51-.7.88-.92c.38-.22.81-.33 1.3-.33s.91.11 1.29.33q.57.33.87.93l-.73.33c-.13-.27-.33-.47-.58-.62s-.54-.22-.87-.22-.61.08-.86.24-.45.38-.59.67c-.14.28-.21.61-.21.97s.07.69.21.97.34.51.6.67.55.24.88.24.62-.08.88-.25.45-.4.58-.7l.73.33c-.2.43-.49.76-.87 1s-.81.36-1.3.36Z" fill="#fffdf0"/>
        <path d="M173.55 32.83c-.49 0-.93-.11-1.3-.33-.38-.22-.67-.53-.88-.92s-.32-.85-.32-1.36.1-.97.31-1.36.5-.7.88-.92q.57-.33 1.29-.33c.72 0 .92.11 1.29.33.38.22.67.53.88.92s.31.85.31 1.36-.1.97-.31 1.36-.5.7-.88.92c-.37.22-.8.33-1.28.33Zm-.01-.74q.495 0 .87-.24c.25-.16.45-.38.59-.67.14-.28.21-.61.21-.97s-.07-.69-.21-.97-.34-.51-.6-.67c-.25-.16-.55-.24-.88-.24s-.61.08-.86.24-.45.38-.59.66-.21.61-.21.98.07.69.21.97.34.51.6.67.55.24.88.24Z" fill="#fffdf0"/>
        <path d="M176.93 32.71v-5h.75l.04.7c.15-.27.35-.47.59-.61q.36-.21.84-.21c.4 0 .74.09 1.03.28.28.19.49.47.61.85.14-.37.35-.65.62-.84s.59-.29.96-.29c.56 0 1 .19 1.33.56.32.37.48.94.47 1.7v2.86h-.8v-2.56c0-.49-.05-.87-.15-1.13s-.24-.44-.41-.53c-.17-.1-.38-.15-.6-.15-.39 0-.7.16-.92.46q-.33.465-.33 1.32v2.59h-.8v-2.56c0-.49-.05-.87-.16-1.13-.1-.26-.24-.44-.42-.53q-.27-.15-.6-.15c-.39 0-.69.16-.91.46q-.33.465-.33 1.32v2.59h-.8Z" fill="#fffdf0"/>
        <path d="M187.43 32.83q-.735 0-1.29-.33c-.37-.22-.66-.53-.88-.92-.21-.39-.31-.85-.31-1.36s.11-.97.31-1.36c.21-.39.5-.7.87-.92s.79-.33 1.28-.33.87.12 1.21.34c.34.23.6.55.79.97.19.41.28.9.28 1.46h-4.13l.2-.17c0 .4.07.74.21 1.03s.35.5.61.66.56.22.89.22c.35 0 .65-.08.9-.25.24-.17.43-.39.56-.66l.69.35c-.13.26-.29.49-.5.68s-.46.34-.74.45-.6.16-.95.16Zm-1.62-2.98-.21-.16h3.45l-.21.17c0-.32-.06-.6-.19-.83q-.195-.345-.51-.54c-.21-.13-.46-.19-.74-.19s-.53.06-.78.19c-.24.13-.44.3-.59.54-.15.23-.23.5-.23.82Z" fill="#fffdf0"/>
        <path d="M190.5 32.71v-5h.75l.05.92v4.08zm3.51-2.56c0-.49-.06-.87-.17-1.13s-.27-.44-.47-.53-.43-.15-.68-.15c-.44 0-.78.16-1.03.46-.24.31-.37.75-.37 1.32h-.39c0-.53.08-.98.23-1.36s.38-.67.67-.87.65-.3 1.06-.3c.39 0 .73.08 1.03.24.29.16.52.4.68.75.16.34.24.79.23 1.34v.24h-.8Zm0 2.56v-2.56h.8v2.56z" fill="#fffdf0"/>
        <path d="M197.85 32.83c-.45 0-.84-.11-1.18-.33s-.61-.53-.79-.92c-.19-.4-.29-.85-.29-1.37s.09-.98.29-1.37c.19-.39.46-.7.79-.92s.73-.33 1.18-.33q.63 0 1.11.33c.32.22.56.53.73.92s.26.85.26 1.37-.09.97-.26 1.37-.42.71-.73.92q-.48.33-1.11.33m.18-.73q.435 0 .78-.24c.23-.16.41-.38.54-.67s.2-.61.2-.98-.06-.69-.2-.98c-.13-.29-.31-.51-.54-.67s-.49-.24-.79-.24q-.465 0-.84.24c-.24.16-.43.38-.57.67s-.21.61-.21.98.07.69.21.98.33.51.58.67q.375.24.84.24m1.55.61-.04-.93v-6.07h.8v7z" fill="#fffdf0"/>
        <path d="M203.12 32.83c-.59 0-1.04-.13-1.38-.41-.33-.27-.5-.64-.5-1.12 0-.51.17-.89.51-1.17.34-.27.81-.41 1.41-.41h1.43v.67h-1.25c-.47 0-.8.08-.99.23s-.29.37-.29.66c0 .26.1.46.29.62.19.15.46.22.81.22q.435 0 .75-.18c.21-.12.38-.3.5-.53s.17-.5.17-.82h.34c0 .68-.15 1.22-.46 1.62s-.75.61-1.34.61Zm1.5-.12-.04-.82v-1.82c0-.39-.04-.72-.13-.98s-.22-.45-.41-.58-.43-.2-.73-.2c-.27 0-.51.06-.71.17s-.36.29-.48.53l-.72-.28c.13-.23.28-.43.46-.6q.27-.255.63-.39c.24-.09.51-.13.82-.13.47 0 .85.09 1.15.28q.45.27.69.81c.15.36.23.8.22 1.33v2.71h-.75Z" fill="#fffdf0"/>
        <path d="M208.41 32.83c-.45 0-.84-.11-1.18-.33s-.61-.53-.79-.92c-.19-.4-.29-.85-.29-1.37s.09-.98.29-1.37c.19-.39.46-.7.79-.92s.73-.33 1.18-.33q.63 0 1.11.33c.32.22.56.53.73.92s.26.85.26 1.37-.09.97-.26 1.37-.42.71-.73.92q-.48.33-1.11.33m.18-.73q.435 0 .78-.24c.23-.16.41-.38.54-.67s.2-.61.2-.98-.06-.69-.2-.98c-.13-.29-.31-.51-.54-.67s-.49-.24-.79-.24q-.465 0-.84.24c-.24.16-.43.38-.57.67s-.21.61-.21.98.07.69.21.98.33.51.58.67q.375.24.84.24m1.55.61-.04-.93v-6.07h.8v7z" fill="#fffdf0"/>
        <path d="M213.68 32.83c-.59 0-1.04-.13-1.38-.41-.33-.27-.49-.64-.49-1.12 0-.51.17-.89.5-1.17.34-.27.81-.41 1.42-.41h1.43v.67h-1.25c-.47 0-.8.08-1 .23s-.29.37-.29.66c0 .26.1.46.29.62.19.15.46.22.81.22q.435 0 .75-.18c.21-.12.38-.3.49-.53.12-.23.18-.5.18-.82h.34c0 .68-.15 1.22-.46 1.62s-.75.61-1.34.61Zm1.5-.12-.04-.82v-1.82c0-.39-.04-.72-.13-.98s-.22-.45-.41-.58-.43-.2-.73-.2c-.27 0-.51.06-.71.17s-.36.29-.48.53l-.72-.28c.13-.23.28-.43.46-.6s.39-.3.63-.39.51-.13.82-.13c.47 0 .85.09 1.16.28.3.18.53.45.68.81s.23.8.22 1.33v2.71h-.75Z" fill="#fffdf0"/>
        <path d="M218.75 32.83c-.37 0-.69-.05-.96-.17s-.5-.25-.69-.44c-.18-.18-.31-.38-.39-.59l.7-.29c.11.23.28.41.51.55q.345.21.75.21c.31 0 .58-.06.79-.19.21-.12.32-.3.32-.52 0-.21-.08-.37-.23-.5-.16-.13-.39-.23-.7-.31l-.48-.13c-.45-.12-.81-.3-1.06-.54s-.38-.52-.38-.83c0-.47.15-.84.46-1.1s.77-.4 1.38-.4c.29 0 .56.04.8.13s.45.21.62.37.3.34.38.55l-.7.31c-.09-.23-.23-.39-.43-.49s-.44-.15-.73-.15c-.31 0-.55.07-.72.2s-.26.31-.26.54c0 .13.07.26.21.38s.35.21.63.29l.5.13c.33.08.6.2.82.36s.38.33.5.53c.11.2.17.41.17.64q0 .45-.24.78c-.16.22-.38.39-.65.5-.27.12-.59.17-.94.17Z" fill="#fffdf0"/>
        <path d="M88.46 44.33c-.49 0-.93-.11-1.31-.33s-.68-.53-.89-.92-.32-.85-.32-1.36.11-.97.31-1.36c.21-.39.51-.7.89-.92s.81-.33 1.3-.33.91.11 1.29.33q.57.33.87.93l-.73.33c-.13-.27-.33-.47-.58-.62s-.54-.22-.87-.22-.62.08-.87.24-.45.38-.59.67-.21.61-.21.97.07.69.21.97.34.51.6.67.55.24.88.24.62-.08.88-.25.45-.4.59-.7l.73.33c-.2.43-.49.76-.87 1s-.81.36-1.3.36Z" fill="#fffdf0"/>
        <path d="M93.86 44.33c-.49 0-.93-.11-1.3-.33-.38-.22-.67-.53-.88-.92s-.32-.85-.32-1.36.11-.97.31-1.36c.21-.39.5-.7.88-.92q.57-.33 1.29-.33c.72 0 .92.11 1.29.33.38.22.67.53.88.92s.31.85.31 1.36-.11.97-.31 1.36c-.21.39-.5.7-.88.92s-.8.33-1.28.33Zm-.01-.74q.495 0 .87-.24c.25-.16.45-.38.59-.67.14-.28.21-.61.21-.97s-.07-.69-.21-.97-.34-.51-.6-.67c-.25-.16-.54-.24-.88-.24s-.62.08-.87.24-.45.38-.59.66-.21.61-.21.98.07.69.21.97.34.51.6.67.55.24.88.24" fill="#fffdf0"/>
        <path d="M97.44 44.21v-5h.75l.05.92v4.08zm3.51-2.56c0-.49-.06-.87-.17-1.13s-.27-.44-.47-.53c-.2-.1-.43-.15-.68-.15-.44 0-.78.16-1.02.46-.24.31-.37.75-.37 1.32h-.39c0-.53.08-.98.23-1.36s.38-.67.67-.87.65-.3 1.06-.3q.585 0 1.02.24c.29.16.52.4.68.75.16.34.24.79.23 1.34v.24h-.8Zm0 2.56v-2.56h.8v2.56z" fill="#fffdf0"/>
        <path d="M102.5 39.92v-.71h3.17v.71zm2.4 4.41c-.49 0-.86-.13-1.13-.38s-.4-.61-.4-1.07v-5.23h.8v5.15c0 .25.07.45.21.58s.33.21.57.21c.08 0 .16-.01.24-.04.08-.02.18-.08.3-.17l.31.65c-.17.11-.33.19-.47.23s-.28.07-.43.07" fill="#fffdf0"/>
        <path d="M106.8 44.21v-5h.8v5zm.44-2.71c0-.54.1-.98.31-1.32s.47-.59.79-.75q.48-.24 1.02-.24v.75c-.29 0-.57.05-.84.14s-.49.25-.67.47c-.17.22-.26.52-.26.9l-.36.04Z" fill="#fffdf0"/>
        <path d="M110.64 38.05c-.13 0-.25-.05-.35-.15a.485.485 0 0 1 0-.7.485.485 0 0 1 .7 0c.1.1.15.21.15.35s-.05.25-.15.35-.21.15-.35.15m-.41 6.16v-5h.8v5z" fill="#fffdf0"/>
        <path d="M112.5 44.21v-7h.8v6.07l-.04.93zm2.49.12q-.63 0-1.11-.33c-.48-.33-.56-.53-.73-.92s-.26-.85-.26-1.37.09-.98.26-1.37.42-.7.73-.92.69-.33 1.11-.33c.45 0 .84.11 1.18.33s.61.53.79.92c.19.39.29.85.29 1.37s-.09.97-.29 1.37c-.19.4-.46.71-.79.92s-.73.33-1.18.33m-.18-.73c.31 0 .59-.08.83-.24s.44-.38.58-.67q.21-.42.21-.99c0-.57-.07-.69-.21-.98s-.33-.51-.57-.67-.53-.24-.85-.24c-.29 0-.55.08-.79.24-.23.16-.41.38-.54.67-.13.28-.2.61-.2.99s.06.69.2.98c.13.29.31.51.54.67q.345.24.78.24Z" fill="#fffdf0"/>
        <path d="M118.23 41.77v-2.56h.8v2.56zm.8 0c0 .49.06.87.17 1.13s.27.44.47.53q.3.15.69.15c.43 0 .77-.16 1.01-.47s.37-.75.37-1.31h.39c0 .53-.08.98-.23 1.36s-.38.67-.66.87c-.29.2-.65.3-1.07.3q-.585 0-1.02-.24c-.29-.16-.52-.41-.68-.75s-.24-.79-.24-1.33v-.24zm2.76 2.44-.05-.92v-4.08h.8v5z" fill="#fffdf0"/>
        <path d="M124.4 38.05c-.13 0-.25-.05-.35-.15a.485.485 0 0 1 0-.7.49.49 0 0 1 .71 0c.1.1.14.21.14.35s-.05.25-.14.35c-.1.1-.21.15-.36.15m-.41 6.16v-5h.8v5z" fill="#fffdf0"/>
        <path d="M128.78 46.21v-7h.75l.05.92v6.08zm2.49-1.88q-.63 0-1.11-.33c-.48-.33-.56-.53-.73-.92-.17-.4-.26-.85-.26-1.37s.09-.98.26-1.37.42-.7.73-.92.69-.33 1.11-.33c.45 0 .84.11 1.18.33s.61.53.79.92.29.85.29 1.37-.1.97-.29 1.37-.46.71-.79.92-.73.33-1.18.33m-.18-.73q.465 0 .84-.24c.24-.16.44-.38.58-.67s.21-.61.21-.99-.07-.69-.21-.98-.33-.51-.57-.67-.53-.24-.84-.24c-.29 0-.56.08-.79.24s-.41.38-.54.67c-.13.28-.2.61-.2.99s.07.69.2.98.31.51.54.67q.345.24.78.24" fill="#fffdf0"/>
        <path d="M136.22 44.33c-.59 0-1.04-.13-1.38-.41-.33-.27-.49-.64-.49-1.12 0-.51.17-.89.5-1.17.34-.27.81-.41 1.42-.41h1.43v.67h-1.25c-.47 0-.8.08-1 .23s-.29.37-.29.66c0 .26.1.46.29.62.19.15.46.22.81.22q.435 0 .75-.18c.21-.12.38-.3.49-.53.12-.23.18-.5.18-.82h.34c0 .68-.15 1.22-.46 1.62s-.75.61-1.34.61Zm1.5-.12-.04-.82v-1.82c0-.39-.04-.72-.13-.98s-.22-.45-.41-.58-.43-.2-.73-.2c-.27 0-.51.06-.71.17s-.36.29-.48.53l-.72-.28c.13-.23.28-.43.46-.6s.39-.3.63-.39.51-.13.82-.13c.47 0 .85.09 1.16.28.3.18.53.45.68.81s.23.8.22 1.33v2.71h-.75Z" fill="#fffdf0"/>
        <path d="M139.74 44.21v-5h.8v5zm.44-2.71c0-.54.1-.98.31-1.32s.47-.59.79-.75.67-.24 1.03-.24v.75c-.29 0-.57.05-.85.14-.27.1-.49.25-.66.47s-.26.52-.26.9l-.36.04Z" fill="#fffdf0"/>
        <path d="M144.7 44.33c-.59 0-1.04-.13-1.38-.41-.33-.27-.5-.64-.5-1.12 0-.51.17-.89.51-1.17.34-.27.81-.41 1.41-.41h1.43v.67h-1.25c-.47 0-.8.08-.99.23s-.29.37-.29.66c0 .26.1.46.29.62.19.15.46.22.81.22q.435 0 .75-.18c.21-.12.38-.3.5-.53s.17-.5.17-.82h.34c0 .68-.15 1.22-.46 1.62s-.75.61-1.34.61Zm1.5-.12-.04-.82v-1.82c0-.39-.04-.72-.13-.98s-.22-.45-.41-.58-.43-.2-.73-.2c-.27 0-.51.06-.71.17s-.36.29-.48.53l-.72-.28c.13-.23.28-.43.46-.6q.27-.255.63-.39c.24-.09.51-.13.82-.13.47 0 .85.09 1.15.28q.45.27.69.81c.15.36.23.8.22 1.33v2.71h-.75Z" fill="#fffdf0"/>
        <path d="M150.56 41.77v-2.56h.8v2.56zm.8 0c0 .49.06.87.17 1.13s.27.44.47.53c.21.1.43.15.69.15.43 0 .77-.16 1.02-.47.24-.31.37-.75.37-1.31h.39c0 .53-.08.98-.23 1.36s-.38.67-.67.87-.64.3-1.06.3q-.585 0-1.02-.24c-.29-.16-.52-.41-.68-.75s-.24-.79-.24-1.33v-.24h.8Zm2.76 2.44-.05-.92v-4.08h.8v5z" fill="#fffdf0"/>
        <path d="M156.27 44.21v-5h.75l.04.7c.15-.27.35-.47.59-.61q.36-.21.84-.21c.4 0 .74.09 1.03.28.28.19.49.47.61.85.14-.37.35-.65.62-.84s.59-.29.96-.29c.56 0 1 .19 1.33.56.32.37.48.94.47 1.7v2.86h-.8v-2.56c0-.49-.05-.87-.15-1.13s-.24-.44-.41-.53c-.17-.1-.38-.15-.6-.15-.39 0-.7.16-.92.46q-.33.465-.33 1.32v2.59h-.8v-2.56c0-.49-.05-.87-.16-1.13-.1-.26-.24-.44-.42-.53q-.27-.15-.6-.15c-.39 0-.69.16-.91.46q-.33.465-.33 1.32v2.59h-.8Z" fill="#fffdf0"/>
        <path d="M166.36 44.33c-.59 0-1.04-.13-1.38-.41-.33-.27-.49-.64-.49-1.12 0-.51.17-.89.5-1.17.34-.27.81-.41 1.42-.41h1.43v.67h-1.25c-.47 0-.8.08-1 .23s-.29.37-.29.66c0 .26.1.46.29.62.19.15.46.22.81.22q.435 0 .75-.18c.21-.12.38-.3.49-.53.12-.23.18-.5.18-.82h.34c0 .68-.15 1.22-.46 1.62s-.75.61-1.34.61Zm1.5-.12-.04-.82v-1.82c0-.39-.04-.72-.13-.98s-.22-.45-.41-.58-.43-.2-.73-.2c-.27 0-.51.06-.71.17s-.36.29-.48.53l-.72-.28c.13-.23.28-.43.46-.6s.39-.3.63-.39.51-.13.82-.13c.47 0 .85.09 1.16.28.3.18.53.45.68.81s.23.8.22 1.33v2.71h-.75Z" fill="#fffdf0"/>
        <path d="m173.83 44.21-2.09-5h.83l2.04 5zm.05 0 2.04-5h.84l-2.09 5z" fill="#fffdf0"/>
        <path d="M178.01 38.05c-.13 0-.25-.05-.35-.15a.485.485 0 0 1 0-.7.485.485 0 0 1 .7 0c.1.1.15.21.15.35s-.05.25-.15.35-.21.15-.35.15m-.41 6.16v-5h.8v5z" fill="#fffdf0"/>
        <path d="M181.84 44.33c-.45 0-.84-.11-1.18-.33s-.61-.53-.79-.92c-.19-.4-.29-.85-.29-1.37s.09-.98.29-1.37c.19-.39.46-.7.79-.92s.73-.33 1.18-.33q.63 0 1.11.33c.32.22.56.53.73.92s.26.85.26 1.37-.09.97-.26 1.37-.42.71-.73.92q-.48.33-1.11.33m.18-.73q.435 0 .78-.24c.23-.16.41-.38.54-.67s.2-.61.2-.98-.06-.69-.2-.98c-.13-.29-.31-.51-.54-.67s-.49-.24-.79-.24q-.465 0-.84.24c-.24.16-.43.38-.57.67s-.21.61-.21.98.07.69.21.98.33.51.58.67q.375.24.84.24m1.55.61-.04-.93v-6.07h.8v7z" fill="#fffdf0"/>
        <path d="M187.31 44.33c-.59 0-1.04-.13-1.38-.41-.33-.27-.5-.64-.5-1.12 0-.51.17-.89.51-1.17.34-.27.81-.41 1.41-.41h1.43v.67h-1.25c-.47 0-.8.08-.99.23s-.29.37-.29.66c0 .26.1.46.29.62.19.15.46.22.81.22q.435 0 .75-.18c.21-.12.38-.3.5-.53s.17-.5.17-.82h.34c0 .68-.15 1.22-.46 1.62s-.75.61-1.34.61Zm1.5-.12-.04-.82v-1.82c0-.39-.04-.72-.13-.98s-.22-.45-.41-.58-.43-.2-.73-.2c-.27 0-.51.06-.71.17s-.36.29-.48.53l-.72-.28c.13-.23.28-.43.46-.6q.27-.255.63-.39c.24-.09.51-.13.82-.13.47 0 .85.09 1.15.28q.45.27.69.81c.15.36.23.8.22 1.33v2.71h-.75Z" fill="#fffdf0"/>
        <path d="M193.3 44.21v-5h.75l.04.7c.15-.27.35-.47.59-.61q.36-.21.84-.21c.4 0 .74.09 1.03.28.28.19.49.47.61.85.14-.37.35-.65.62-.84s.59-.29.96-.29c.56 0 1 .19 1.33.56.32.37.48.94.47 1.7v2.86h-.8v-2.56c0-.49-.05-.87-.15-1.13s-.24-.44-.41-.53c-.17-.1-.38-.15-.6-.15-.39 0-.7.16-.92.46q-.33.465-.33 1.32v2.59h-.8v-2.56c0-.49-.05-.87-.16-1.13-.1-.26-.24-.44-.42-.53q-.27-.15-.6-.15c-.39 0-.69.16-.91.46q-.33.465-.33 1.32v2.59h-.8Z" fill="#fffdf0"/>
        <path d="M203.39 44.33c-.59 0-1.04-.13-1.38-.41-.33-.27-.49-.64-.49-1.12 0-.51.17-.89.5-1.17.34-.27.81-.41 1.42-.41h1.43v.67h-1.25c-.47 0-.8.08-1 .23s-.29.37-.29.66c0 .26.1.46.29.62.19.15.46.22.81.22q.435 0 .75-.18c.21-.12.38-.3.49-.53.12-.23.18-.5.18-.82h.34c0 .68-.15 1.22-.46 1.62s-.75.61-1.34.61Zm1.5-.12-.04-.82v-1.82c0-.39-.04-.72-.13-.98s-.22-.45-.41-.58-.43-.2-.73-.2c-.27 0-.51.06-.71.17s-.36.29-.48.53l-.72-.28c.13-.23.28-.43.46-.6s.39-.3.63-.39.51-.13.82-.13c.47 0 .85.09 1.16.28.3.18.53.45.68.81s.23.8.22 1.33v2.71h-.75Z" fill="#fffdf0"/>
        <path d="M207.37 38.05c-.13 0-.25-.05-.35-.15a.485.485 0 0 1 0-.7.485.485 0 0 1 .7 0c.1.1.15.21.15.35s-.05.25-.15.35-.21.15-.35.15m-.41 6.16v-5h.8v5z" fill="#fffdf0"/>
        <path d="M210.98 44.33c-.37 0-.69-.05-.96-.17s-.5-.25-.69-.44c-.18-.18-.31-.38-.39-.59l.7-.29c.11.23.28.41.51.55q.345.21.75.21c.31 0 .58-.06.79-.19.21-.12.32-.3.32-.52 0-.21-.08-.37-.24-.5s-.39-.23-.7-.31l-.48-.13c-.46-.12-.81-.3-1.06-.54s-.38-.52-.38-.83c0-.47.16-.84.46-1.1.31-.26.77-.4 1.39-.4.29 0 .56.04.8.13s.45.21.62.37.3.34.38.55l-.7.31a.87.87 0 0 0-.43-.49c-.2-.1-.44-.15-.73-.15-.31 0-.55.07-.72.2s-.26.31-.26.54c0 .13.07.26.21.38s.36.21.63.29l.5.13c.33.08.6.2.82.36s.39.33.5.53.17.41.17.64q0 .45-.24.78c-.16.22-.38.39-.65.5-.27.12-.59.17-.94.17Z" fill="#fffdf0"/>
        <path d="M87.98 55.83c-.37 0-.69-.05-.96-.17s-.5-.25-.69-.44c-.18-.18-.31-.38-.39-.59l.7-.29c.11.23.28.41.51.55q.345.21.75.21c.31 0 .58-.06.79-.19.21-.12.32-.3.32-.52 0-.21-.08-.37-.23-.5-.16-.13-.39-.23-.7-.31l-.48-.13c-.45-.12-.81-.3-1.06-.54s-.38-.52-.38-.83c0-.47.15-.84.46-1.1s.77-.4 1.38-.4c.29 0 .56.04.8.13s.45.21.62.37.3.34.38.55l-.7.31c-.09-.23-.23-.39-.43-.49s-.44-.15-.73-.15c-.31 0-.55.07-.72.2s-.26.31-.26.54c0 .13.07.26.21.38s.35.21.63.29l.5.13c.33.08.6.2.82.36s.38.33.5.53c.11.2.17.41.17.64q0 .45-.24.78c-.16.22-.38.39-.65.5-.27.12-.59.17-.94.17Z" fill="#fffdf0"/>
        <path d="M92.47 55.83c-.59 0-1.04-.13-1.38-.41-.33-.27-.5-.64-.5-1.12 0-.51.17-.89.51-1.17.34-.27.81-.41 1.41-.41h1.43v.67h-1.25c-.47 0-.8.08-.99.23s-.29.37-.29.66c0 .26.1.46.29.62.19.15.46.22.81.22q.435 0 .75-.18c.21-.12.38-.3.5-.53s.17-.5.17-.82h.34c0 .68-.15 1.22-.46 1.62s-.75.61-1.34.61Zm1.5-.12-.04-.82v-1.82c0-.39-.04-.72-.13-.98s-.22-.45-.41-.58-.43-.2-.73-.2c-.27 0-.51.06-.71.17s-.36.29-.48.53l-.72-.28c.13-.23.28-.43.46-.6q.27-.255.63-.39c.24-.09.51-.13.82-.13.47 0 .85.09 1.15.28q.45.27.69.81c.15.36.23.8.22 1.33v2.71h-.75Z" fill="#fffdf0"/>
        <path d="M95.86 53.27v-2.56h.8v2.56zm.8 0c0 .49.06.87.17 1.13s.27.44.47.53q.3.15.69.15c.43 0 .77-.16 1.01-.47s.37-.75.37-1.31h.39c0 .53-.08.98-.23 1.36s-.38.67-.66.87c-.29.2-.65.3-1.07.3q-.585 0-1.02-.24c-.29-.16-.52-.41-.68-.75s-.24-.79-.24-1.33v-.24zm2.76 2.44-.05-.92v-4.08h.8v5z" fill="#fffdf0"/>
        <path d="M103.54 55.83c-.45 0-.84-.11-1.18-.33s-.61-.53-.79-.92-.29-.85-.29-1.37.1-.98.29-1.37.46-.7.79-.92.73-.33 1.18-.33q.63 0 1.11.33c.48.33.56.53.73.92s.26.85.26 1.37-.09.97-.26 1.37-.42.71-.73.92-.69.33-1.11.33m.18-.73q.435 0 .78-.24c.23-.16.4-.38.54-.67.13-.29.2-.61.2-.98s-.07-.69-.2-.98-.31-.51-.54-.67-.49-.24-.79-.24-.59.08-.83.24-.44.38-.58.67-.21.61-.21.98.07.69.21.98.33.51.58.67q.375.24.84.24m1.55.61-.04-.93v-6.07h.8v7z" fill="#fffdf0"/>
        <path d="M109.01 55.83c-.59 0-1.04-.13-1.38-.41-.33-.27-.49-.64-.49-1.12 0-.51.17-.89.5-1.17.34-.27.81-.41 1.42-.41h1.43v.67h-1.25c-.47 0-.8.08-1 .23s-.29.37-.29.66c0 .26.1.46.29.62.19.15.46.22.81.22q.435 0 .75-.18c.21-.12.38-.3.49-.53.12-.23.18-.5.18-.82h.34c0 .68-.15 1.22-.46 1.62s-.75.61-1.34.61Zm1.5-.12-.04-.82v-1.82c0-.39-.04-.72-.13-.98s-.22-.45-.41-.58-.43-.2-.73-.2c-.27 0-.51.06-.71.17s-.36.29-.48.53l-.72-.28c.13-.23.28-.43.46-.6s.39-.3.63-.39.51-.13.82-.13c.47 0 .85.09 1.16.28.3.18.53.45.68.81s.23.8.22 1.33v2.71h-.75ZM108.57 50l1.17-1.29h1.03L109.48 50z" fill="#fffdf0"/>
        <path d="m113.92 55.71-2.09-5h.83l2.04 5zm.05 0 2.04-5h.84l-2.09 5z" fill="#fffdf0"/>
        <path d="M119.71 55.83q-.735 0-1.29-.33c-.37-.22-.67-.53-.88-.92s-.31-.85-.31-1.36.1-.97.31-1.36.5-.7.87-.92.79-.33 1.28-.33.87.12 1.21.34c.34.23.6.55.79.97.19.41.28.9.28 1.46h-4.13l.2-.17c0 .4.07.74.21 1.03s.35.5.61.66.56.22.89.22c.35 0 .65-.08.89-.25s.43-.39.56-.66l.69.35c-.13.26-.29.49-.51.68-.21.19-.46.34-.74.45s-.6.16-.95.16Zm-1.62-2.98-.21-.16h3.45l-.21.17c0-.32-.06-.6-.19-.83s-.3-.41-.51-.54-.46-.19-.74-.19-.53.06-.78.19c-.24.13-.44.3-.59.54-.15.23-.22.5-.22.82" fill="#fffdf0"/>
        <path d="M122.98 55.71v-7h.8v7z" fill="#fffdf0"/>
        <path d="M129.84 55.83q-.735 0-1.29-.33c-.37-.22-.66-.53-.88-.92-.21-.39-.31-.85-.31-1.36s.11-.97.31-1.36c.21-.39.5-.7.87-.92s.79-.33 1.28-.33.87.12 1.21.34c.34.23.6.55.79.97.19.41.28.9.28 1.46h-4.13l.2-.17c0 .4.07.74.21 1.03s.35.5.61.66.56.22.89.22c.35 0 .65-.08.9-.25.24-.17.43-.39.56-.66l.69.35c-.13.26-.29.49-.5.68s-.46.34-.74.45-.6.16-.95.16Zm-1.62-2.98-.21-.16h3.45l-.21.17c0-.32-.06-.6-.19-.83q-.195-.345-.51-.54c-.21-.13-.46-.19-.74-.19s-.53.06-.78.19c-.24.13-.44.3-.59.54-.15.23-.23.5-.23.82Z" fill="#fffdf0"/>
        <path d="M137.77 55.83q-.735 0-1.29-.33c-.37-.22-.66-.53-.88-.92-.21-.39-.31-.85-.31-1.36s.11-.97.31-1.36c.21-.39.5-.7.87-.92s.79-.33 1.28-.33.87.12 1.21.34c.34.23.6.55.79.97.19.41.28.9.28 1.46h-4.13l.2-.17c0 .4.07.74.21 1.03s.35.5.61.66.56.22.89.22c.35 0 .65-.08.9-.25.24-.17.43-.39.56-.66l.69.35c-.13.26-.29.49-.5.68s-.46.34-.74.45-.6.16-.95.16Zm-1.62-2.98-.21-.16h3.45l-.21.17c0-.32-.06-.6-.19-.83q-.195-.345-.51-.54c-.21-.13-.46-.19-.74-.19s-.53.06-.78.19c-.24.13-.44.3-.59.54-.15.23-.23.5-.23.82Z" fill="#fffdf0"/>
        <path d="M143.01 55.83c-.45 0-.84-.11-1.18-.33s-.61-.53-.79-.92c-.19-.4-.29-.85-.29-1.37s.09-.98.29-1.37c.19-.39.46-.7.79-.92s.73-.33 1.18-.33q.63 0 1.11.33c.32.22.56.53.73.92s.26.85.26 1.37-.09.97-.26 1.37-.42.71-.73.92q-.48.33-1.11.33m.18-.73q.435 0 .78-.24c.23-.16.41-.38.54-.67s.2-.61.2-.98-.06-.69-.2-.98c-.13-.29-.31-.51-.54-.67s-.49-.24-.79-.24q-.465 0-.84.24c-.24.16-.43.38-.57.67s-.21.61-.21.98.07.69.21.98.33.51.58.67q.375.24.84.24m1.51 2.61v-6.07l.04-.93h.76v7z" fill="#fffdf0"/>
        <path d="M146.69 53.27v-2.56h.8v2.56zm.8 0c0 .49.06.87.17 1.13s.27.44.47.53q.3.15.69.15c.43 0 .77-.16 1.01-.47s.37-.75.37-1.31h.39c0 .53-.08.98-.23 1.36s-.38.67-.66.87c-.29.2-.65.3-1.07.3q-.585 0-1.02-.24c-.29-.16-.52-.41-.68-.75s-.24-.79-.24-1.33v-.24zm2.76 2.44-.05-.92v-4.08h.8v5z" fill="#fffdf0"/>
        <path d="M152.86 49.55c-.13 0-.25-.05-.35-.15a.485.485 0 0 1 0-.7.49.49 0 0 1 .71 0c.1.1.14.21.14.35s-.05.25-.14.35c-.1.1-.21.15-.36.15m-.41 6.16v-5h.8v5z" fill="#fffdf0"/>
        <path d="M154.72 55.71v-7h.8v7z" fill="#fffdf0"/>
        <path d="M157.38 49.55c-.13 0-.25-.05-.35-.15a.485.485 0 0 1 0-.7.485.485 0 0 1 .7 0c.1.1.15.21.15.35s-.05.25-.15.35-.21.15-.35.15m-.41 6.16v-5h.8v5z" fill="#fffdf0"/>
        <path d="M159.24 55.71v-7h.8v6.07l-.04.93zm2.49.12q-.63 0-1.11-.33c-.48-.33-.56-.53-.73-.92s-.26-.85-.26-1.37.09-.98.26-1.37.42-.7.73-.92.69-.33 1.11-.33c.45 0 .84.11 1.18.33s.61.53.79.92c.19.39.29.85.29 1.37s-.09.97-.29 1.37c-.19.4-.46.71-.79.92s-.73.33-1.18.33m-.18-.73c.31 0 .59-.08.83-.24s.44-.38.58-.67q.21-.42.21-.99c0-.57-.07-.69-.21-.98s-.33-.51-.57-.67-.53-.24-.85-.24c-.29 0-.55.08-.79.24-.23.16-.41.38-.54.67-.13.28-.2.61-.2.99s.06.69.2.98c.13.29.31.51.54.67q.345.24.78.24Z" fill="#fffdf0"/>
        <path d="M165.1 55.71v-5h.8v5zm.44-2.71c0-.54.1-.98.31-1.32s.47-.59.79-.75q.48-.24 1.02-.24v.75c-.29 0-.57.05-.84.14s-.49.25-.67.47c-.17.22-.26.52-.26.9l-.36.04Z" fill="#fffdf0"/>
        <path d="M170.06 55.83c-.59 0-1.04-.13-1.38-.41-.33-.27-.49-.64-.49-1.12 0-.51.17-.89.5-1.17.34-.27.81-.41 1.42-.41h1.43v.67h-1.25c-.47 0-.8.08-1 .23s-.29.37-.29.66c0 .26.1.46.29.62.19.15.46.22.81.22q.435 0 .75-.18c.21-.12.38-.3.49-.53.12-.23.18-.5.18-.82h.34c0 .68-.15 1.22-.46 1.62s-.75.61-1.34.61Zm1.5-.12-.04-.82v-1.82c0-.39-.04-.72-.13-.98s-.22-.45-.41-.58-.43-.2-.73-.2c-.27 0-.51.06-.71.17s-.36.29-.48.53l-.72-.28c.13-.23.28-.43.46-.6s.39-.3.63-.39.51-.13.82-.13c.47 0 .85.09 1.16.28.3.18.53.45.68.81s.23.8.22 1.33v2.71h-.75Z" fill="#fffdf0"/>
        <path d="M175.55 55.83c-.45 0-.84-.11-1.18-.33s-.61-.53-.79-.92c-.19-.4-.29-.85-.29-1.37s.09-.98.29-1.37c.19-.39.46-.7.79-.92s.73-.33 1.18-.33q.63 0 1.11.33c.32.22.56.53.73.92s.26.85.26 1.37-.09.97-.26 1.37-.42.71-.73.92q-.48.33-1.11.33m.18-.73q.435 0 .78-.24c.23-.16.41-.38.54-.67s.2-.61.2-.98-.06-.69-.2-.98c-.13-.29-.31-.51-.54-.67s-.49-.24-.79-.24q-.465 0-.84.24c-.24.16-.43.38-.57.67s-.21.61-.21.98.07.69.21.98.33.51.58.67q.375.24.84.24m1.55.61-.04-.93v-6.07h.8v7z" fill="#fffdf0"/>
        <path d="M181.02 55.83c-.59 0-1.04-.13-1.38-.41-.33-.27-.5-.64-.5-1.12 0-.51.17-.89.51-1.17.34-.27.81-.41 1.41-.41h1.43v.67h-1.25c-.47 0-.8.08-.99.23s-.29.37-.29.66c0 .26.1.46.29.62.19.15.46.22.81.22q.435 0 .75-.18c.21-.12.38-.3.5-.53s.17-.5.17-.82h.34c0 .68-.15 1.22-.46 1.62s-.75.61-1.34.61Zm1.5-.12-.04-.82v-1.82c0-.39-.04-.72-.13-.98s-.22-.45-.41-.58-.43-.2-.73-.2c-.27 0-.51.06-.71.17s-.36.29-.48.53l-.72-.28c.13-.23.28-.43.46-.6q.27-.255.63-.39c.24-.09.51-.13.82-.13.47 0 .85.09 1.15.28q.45.27.69.81c.15.36.23.8.22 1.33v2.71h-.75Z" fill="#fffdf0"/>
        <path d="M184.88 55.85c-.15 0-.29-.05-.4-.17-.11-.11-.16-.24-.16-.38s.05-.29.16-.39c.11-.11.24-.17.4-.17s.28.05.39.17c.11.11.16.24.16.39s-.05.28-.16.38c-.11.11-.24.17-.39.17" fill="#fffdf0"/>
    </g>
</svg>
