<?xml version="1.0" encoding="UTF-8"?>
<svg data-bbox="0.2 0.2 279.18 71.31" viewBox="0 0 279.39 71.51" xmlns="http://www.w3.org/2000/svg" data-type="ugc">
    <g>
        <path fill="#fffdf0" stroke="#fffdf0" stroke-miterlimit="10" stroke-width=".4" d="M70.8 35.5c0 19.496-15.804 35.3-35.3 35.3S.2 54.996.2 35.5 16.004.2 35.5.2s35.3 15.804 35.3 35.3z"/>
        <path d="M25.22 22.1c-.11 0-.22-.05-.3-.15-.12-.16-.09-.4.07-.52 1.03-.78 2.15-1.45 3.32-1.98.19-.08.41 0 .49.19s0 .41-.19.49a17.3 17.3 0 0 0-3.18 1.89c-.07.05-.15.08-.22.08Z" fill="#005f21"/>
        <path d="M35.46 52.62c-9.57 0-17.35-7.78-17.35-17.35 0-4.35 1.61-8.5 4.55-11.71.14-.15.37-.16.53-.02.15.14.16.37.02.53a16.56 16.56 0 0 0-4.35 11.21c0 9.16 7.45 16.6 16.6 16.6s16.6-7.45 16.6-16.6-8.21-17.31-17.94-16.55c-.21.03-.38-.14-.4-.34a.37.37 0 0 1 .34-.4c.47-.04.94-.06 1.4-.06 9.57 0 17.35 7.78 17.35 17.35s-7.78 17.35-17.35 17.35Z" fill="#005f21"/>
        <path d="M38.71 57.75c-.59 0-1.17-.19-1.66-.54-.98-.71-2.64-.73-3.64-.04a2.837 2.837 0 0 1-3.97-.74c-.68-1-2.23-1.59-3.4-1.28-.74.2-1.51.09-2.17-.3s-1.12-1.01-1.31-1.75c-.29-1.17-1.56-2.26-2.76-2.37a2.8 2.8 0 0 1-1.93-1.02c-.49-.59-.71-1.33-.63-2.09.13-1.2-.69-2.65-1.78-3.17-.69-.33-1.21-.9-1.47-1.62a2.8 2.8 0 0 1 .13-2.18c.53-1.09.26-2.73-.59-3.59-.54-.54-.83-1.26-.82-2.02 0-.76.32-1.48.87-2.01.87-.84 1.18-2.48.67-3.57a2.82 2.82 0 0 1-.08-2.19c.27-.71.8-1.28 1.5-1.59 1.11-.49 1.95-1.92 1.85-3.13-.06-.76.17-1.5.67-2.08a2.8 2.8 0 0 1 1.95-.98c1.21-.08 2.49-1.14 2.81-2.31.2-.74.68-1.35 1.34-1.72s1.44-.47 2.17-.26c1.16.33 2.73-.22 3.43-1.21.44-.63 1.1-1.04 1.85-1.16s1.51.05 2.13.5c.98.71 2.64.73 3.64.04a2.837 2.837 0 0 1 3.97.74c.68 1 2.24 1.59 3.4 1.28.74-.2 1.51-.09 2.17.3s1.12 1.01 1.31 1.75c.29 1.17 1.56 2.26 2.76 2.37a2.8 2.8 0 0 1 1.93 1.02c.49.59.71 1.33.63 2.09-.13 1.2.69 2.65 1.78 3.17.69.32 1.21.9 1.47 1.62.25.72.21 1.5-.13 2.18-.53 1.09-.26 2.73.59 3.59.54.54.83 1.26.82 2.03 0 .76-.32 1.48-.87 2.01-.87.84-1.18 2.48-.67 3.58.32.69.35 1.47.08 2.19-.27.71-.8 1.28-1.5 1.59-1.11.49-1.95 1.92-1.85 3.13.06.76-.17 1.5-.67 2.08a2.8 2.8 0 0 1-1.95.98c-1.21.08-2.49 1.14-2.81 2.31-.2.74-.68 1.35-1.34 1.72-.67.38-1.44.47-2.17.26-.59-.17-1.32-.12-2 .15-.6.23-1.11.61-1.43 1.06-.44.62-1.1 1.04-1.85 1.16-.16.03-.31.04-.47.04zm-3.51-1.83c.83 0 1.66.23 2.29.69.46.33 1.01.46 1.57.37s1.04-.4 1.36-.86c.4-.57 1.03-1.04 1.76-1.33.83-.32 1.73-.38 2.48-.17.54.15 1.11.09 1.6-.19s.84-.73.99-1.27c.4-1.47 1.96-2.75 3.48-2.86.56-.04 1.07-.3 1.44-.72.37-.43.54-.97.49-1.53-.13-1.52.9-3.25 2.29-3.87.51-.23.91-.65 1.11-1.17.2-.53.18-1.1-.06-1.61-.64-1.38-.27-3.37.83-4.42a2.076 2.076 0 0 0 .03-2.97c-1.07-1.08-1.4-3.07-.73-4.44.25-.51.28-1.08.09-1.61s-.57-.96-1.08-1.19c-1.38-.65-2.37-2.41-2.21-3.92.06-.56-.11-1.11-.46-1.54-.36-.44-.86-.7-1.42-.75-1.52-.14-3.05-1.45-3.42-2.93-.14-.55-.48-1.01-.96-1.29-.48-.29-1.05-.37-1.6-.22-1.47.39-3.36-.32-4.21-1.58-.32-.47-.79-.78-1.35-.89-.55-.1-1.11.02-1.58.34-1.25.87-3.27.85-4.5-.05a2.09 2.09 0 0 0-2.94.49c-.88 1.25-2.78 1.92-4.25 1.49-.54-.16-1.11-.09-1.6.19s-.84.73-.99 1.27c-.4 1.47-1.96 2.75-3.48 2.86-.56.04-1.07.3-1.44.72-.37.43-.54.97-.49 1.53.13 1.52-.9 3.25-2.29 3.87-.51.23-.91.65-1.11 1.17-.2.53-.18 1.1.06 1.61.64 1.38.27 3.37-.83 4.42-.41.39-.63.92-.64 1.48s.21 1.09.61 1.49c1.07 1.08 1.4 3.07.74 4.44-.25.51-.28 1.08-.09 1.61s.57.96 1.08 1.2c1.38.65 2.37 2.41 2.21 3.92-.06.56.11 1.11.46 1.54.36.43.86.7 1.42.75 1.52.14 3.05 1.45 3.42 2.93.14.55.48 1.01.96 1.29.48.29 1.05.37 1.6.22 1.47-.39 3.36.32 4.21 1.58.31.47.79.78 1.35.89.55.1 1.11-.02 1.58-.34.61-.43 1.41-.64 2.21-.64Z" fill="#005f21"/>
        <path d="M25.22 22.1c-.11 0-.22-.05-.3-.15-.12-.16-.09-.4.07-.52 1.03-.78 2.15-1.45 3.32-1.98.19-.08.41 0 .49.19s0 .41-.19.49c-1.12.51-2.19 1.14-3.18 1.89-.07.05-.15.08-.22.08Z" fill="#005f21"/>
        <path d="M35.46 52.62c-9.57 0-17.35-7.78-17.35-17.35 0-4.35 1.61-8.5 4.55-11.71.14-.15.37-.16.53-.02.15.14.16.37.02.53a16.56 16.56 0 0 0-4.35 11.21c0 9.16 7.45 16.6 16.6 16.6s16.6-7.45 16.6-16.6-7.45-16.6-16.6-16.6c-.45 0-.9.02-1.34.05a.37.37 0 1 1-.06-.74c.46-.04.93-.06 1.4-.06 9.57 0 17.35 7.78 17.35 17.35s-7.78 17.35-17.35 17.35Z" fill="#005f21"/>
        <path d="M40.87 46.6h-10.2c-.66 0-1.19-.53-1.19-1.19V44.1c0-.24.19-.43.43-.43h11.72c.24 0 .43.19.43.43v1.31c0 .66-.53 1.19-1.19 1.19m-10.53-2.07v.88c0 .18.15.33.33.33h10.2c.18 0 .33-.15.33-.33v-.88H30.33Z" fill="#005f21"/>
        <path d="M41.64 44.53c-.24 0-.43-.19-.43-.43 0-.16.08-.3.22-.38 0 0 1.25-.72 2.43-2.3 1.51-2.02 2.25-4.47 2.22-7.28h-20.6c-.04 3.52 1.18 5.91 2.24 7.32 1.18 1.57 2.4 2.26 2.41 2.26.21.12.28.38.16.58a.42.42 0 0 1-.58.16c-.06-.03-1.38-.79-2.67-2.5a11.7 11.7 0 0 1-1.75-3.34c-.5-1.51-.72-3.18-.65-4.94 0-.23.2-.41.43-.41h21.44c.23 0 .42.18.43.41.07 1.76-.15 3.42-.65 4.94-.4 1.2-.99 2.33-1.75 3.34-1.29 1.71-2.62 2.47-2.67 2.5-.06.04-.14.05-.21.06h-.02Z" fill="#005f21"/>
        <path d="M46.36 36.86H25.2c-.24 0-.43-.19-.43-.43s.19-.43.43-.43h21.16c.24 0 .43.19.43.43s-.19.43-.43.43" fill="#005f21"/>
        <path d="M26.45 34.15c-.16 0-.31-.09-.39-.24-.49-1-.59-1.97-.6-2.46 0-.05-.02-.09-.05-.12-.63-.76-.89-1.52-.77-2.27.17-1.08 1.08-1.8 1.61-2.13.02 0 .03-.03.03-.05.04-.76.47-1.33 1.17-1.55.02 0 .04-.03.05-.05.41-1 1.29-1.1 1.98-.85h.06c.47-.17.88-.18 1.23 0 .33.15.57.45.71.85 0 .03.03.05.06.05.84.21 1.15.87 1.25 1.24 0 .03.02.05.05.06.4.2.69.58.79.74.02.03.04.06.06.1.37.73.43 1.4.17 1.98-.25.58-.76.94-1.15 1.14.28.63.13 1.12.06 1.28s-.03.07-.04.09c-.08.14-.24.22-.4.21-1.02-.07-1.74.08-2.15.45-.26.24-.4.58-.4 1.01v.09c0 .24-.18.44-.42.44s-.44-.18-.44-.42v-.13c0-.67.25-1.24.68-1.63.53-.48 1.34-.72 2.42-.69 0-.16-.06-.39-.27-.67a.43.43 0 0 1 .09-.6c.04-.03.09-.05.13-.07 0 0 .83-.25 1.09-.87.15-.34.1-.76-.15-1.25-.1-.15-.28-.35-.45-.44a.98.98 0 0 1-.5-.59c-.1-.35-.32-.57-.64-.65a.96.96 0 0 1-.66-.61c-.04-.13-.13-.29-.27-.36-.17-.08-.4-.02-.57.04a.9.9 0 0 1-.65 0c-.65-.23-.84.21-.9.37-.11.26-.32.45-.58.54q-.54.18-.57.78a.94.94 0 0 1-.43.73c-.32.2-1.09.76-1.22 1.54-.08.5.12 1.03.58 1.59.15.18.24.41.25.65.01.34.08 1.23.52 2.11.1.21.01.47-.2.57-.06.03-.12.04-.19.04l.02.02Z" fill="#005f21"/>
        <path d="M28.27 34.15c-.19 0-.36-.13-.41-.32-.07-.25-.12-.51-.17-.76-.11-.57-.15-1.16-.13-1.74.02-.49.08-.77.09-.8v-.02c.61-2.19 1.47-3.37 2.55-3.51.7-.09 1.2.32 1.25.36l-.56.65s-.25-.2-.58-.16c-.67.09-1.33 1.14-1.83 2.88-.04.21-.06.42-.07.63q-.03.795.12 1.56.06.345.15.69c.09.345-.08.46-.3.53h-.11Z" fill="#005f21"/>
        <path d="M27.98 31.78c-.24 0-.43-.19-.43-.43 0-.04 0-.09.02-.13.1-.32.38-.73 1.11-.91.24-.06.5-.09.75-.08.24 0 .42.21.41.44 0 .24-.21.42-.44.41-.18 0-.9.05-1.01.4a.43.43 0 0 1-.41.3" fill="#005f21"/>
        <path d="M28.42 29.98h-.06c-.42-.06-.76-.26-.97-.57-.41-.59-.25-1.37-.23-1.45.05-.23.28-.38.51-.33s.38.28.33.51c-.03.14-.07.55.1.78.05.07.15.17.39.21.23.03.4.25.36.49a.43.43 0 0 1-.42.37h-.01Z" fill="#005f21"/>
        <path d="M30.52 29.05c-.13-.1-.28-.18-.45-.22-.33-.09-.67-.05-.99.15-.2.12-.47.06-.59-.15-.12-.2-.06-.47.15-.59.68-.41 1.31-.35 1.71-.22.26.08.51.21.72.38l-.56.65z" fill="#005f21"/>
        <path d="M34.24 34.15c-.24 0-.42-.21-.42-.44v-.08c-.02-.89-.52-1.38-1.54-1.51a.427.427 0 0 1-.37-.48c.03-.24.25-.4.48-.37.83.11 1.44.42 1.84.94.29.38.44.86.45 1.41v.13c0 .23-.2.42-.43.41Z" fill="#005f21"/>
        <path d="M38.11 31.13c-.24 0-.43-.19-.43-.43 0-.08.03-.17.07-.24.32-.47.43-.93.34-1.36-.16-.74-.89-1.27-1.2-1.47a.94.94 0 0 1-.43-.73q-.03-.6-.57-.78a.92.92 0 0 1-.58-.54c-.07-.17-.25-.6-.9-.37-.21.07-.44.07-.65 0-.17-.06-.4-.12-.57-.04-.14.07-.23.23-.27.36-.1.3-.35.53-.66.6-.09.02-.17.05-.24.1-.21.12-.47.05-.59-.16-.11-.2-.05-.46.15-.58.15-.09.31-.15.47-.19.03 0 .05-.03.06-.05.14-.4.39-.7.71-.85q.525-.24 1.23 0h.06c.69-.24 1.57-.15 1.98.85 0 .02.03.04.05.05.7.23 1.13.79 1.17 1.55 0 .02 0 .04.03.05.5.31 1.37.99 1.59 2.01.14.66-.02 1.34-.47 2.01-.08.12-.21.19-.36.19h.01Z" fill="#005f21"/>
        <path d="M35.33 34.15c-.24 0-.43-.19-.43-.43v-.11q.09-.345.15-.69c.09-.51.13-1.03.12-1.54 0-.22-.03-.43-.07-.64-.11-.38-.22-.72-.34-1.03s-.25-.6-.41-.89a.426.426 0 0 1 .17-.58c.2-.11.45-.04.57.15.18.32.34.66.47 1.01.13.33.25.71.37 1.12v.02s.07.31.09.78c.02.6-.02 1.18-.13 1.76-.04.25-.1.5-.17.76-.05.19-.22.32-.41.32h.01Z" fill="#005f21"/>
        <path d="M33.16 27.85c-.24 0-.43-.19-.43-.43s.19-.43.43-.43.43.19.43.43-.19.43-.43.43" fill="#005f21"/>
        <path d="M35.61 31.78a.43.43 0 0 1-.41-.3c-.11-.36-.84-.41-1.01-.4-.24 0-.44-.18-.44-.41s.18-.44.41-.44c.25 0 .5.02.75.08.73.18 1.01.6 1.11.91.07.23-.05.47-.28.54-.04 0-.09.02-.13.02" fill="#005f21"/>
        <path d="M35.18 29.98c-.24 0-.43-.19-.43-.43 0-.22.16-.4.37-.43.24-.03.34-.13.39-.21.17-.25.12-.68.1-.78-.05-.23.09-.46.33-.51s.46.09.51.33c.02.09.18.87-.23 1.45-.22.31-.55.51-.97.57h-.07Z" fill="#005f21"/>
        <path d="M42.88 34.15c-.24 0-.43-.19-.43-.43 0-.07.02-.13.05-.19.1-.2.4-.8-.49-1.8-.28-.32-.66-.64-1.1-.95-.33-.23-.57-.36-.57-.36-.99-.59-3.09 1.43-4.61 3.55-.14.19-.41.24-.6.1a.43.43 0 0 1-.1-.6c.25-.35 1.15-1.56 2.2-2.55 1.45-1.36 2.64-1.78 3.54-1.26.05.03.31.17.65.41q.75.525 1.26 1.08c1.06 1.19.92 2.16.62 2.76-.07.14-.22.24-.38.24h-.03Z" fill="#005f21"/>
        <path d="M41.15 30.85c-.23 0-.42-.18-.43-.4-.06-.92-.33-2.38-.75-2.74-.3-.25-.43-.65-.34-1.03.09-.4.32-.58.5-.67.35-.17.81-.13 1.4.15s.64.31 1.05.98c.18-.2.42-.38.7-.45.24-.07.6-.09 1.01.19.35.24.59.62.65 1.04.08.5.04 1.48-1.15 2.44-.18.15-.45.12-.6-.06a.43.43 0 0 1 .06-.6c.81-.66.91-1.26.85-1.64a.7.7 0 0 0-.3-.47c-.14-.1-.23-.09-.29-.07-.27.07-.54.51-.63.71-.1.22-.35.31-.57.21a.43.43 0 0 1-.24-.3c-.17-.82-.85-1.17-.9-1.2-.5-.23-.65-.16-.66-.15-.03 0-.04.07-.05.09 0 .07.02.14.07.19.39.34.67.99.86 2 .08.44.14.88.18 1.33.02.24-.16.44-.4.46h-.03.01Z" fill="#005f21"/>
        <path d="M45.78 32.58c-.3 0-.59-.11-.83-.3-.46-.36-1.84-.45-2.6-.42-.24 0-.44-.17-.45-.41 0-.06 0-.11.02-.16a.435.435 0 0 1-.55-.26.36.36 0 0 1 0-.25l.71-2.85c.04-.23.27-.39.5-.34s.39.27.34.5v.05L42.46 30c1.04-.52 1.96-.7 2.75-.52.65.14 1.21.55 1.55 1.11.1.17.16.36.18.55.05.45-.04.8-.27 1.06-.18.2-.44.33-.75.36h-.13v.02ZM42.65 31c.68 0 2.14.07 2.82.61.09.08.22.12.34.11.13 0 .3-.03.25-.48 0-.07-.03-.14-.06-.2-.22-.37-.59-.63-1.01-.72-.68-.15-1.57.08-2.59.68z" fill="#005f21"/>
        <path d="M92.61 12.03q-.69 0-1.2-.24c-.51-.24-.62-.38-.83-.67-.22-.29-.38-.62-.5-1-.11-.38-.17-.8-.17-1.25q0-.72.15-1.44c.1-.48.26-.92.49-1.31.23-.4.53-.71.92-.96.39-.24.88-.36 1.46-.36.39 0 .77.05 1.12.16.36.11.68.26.96.46l-.87 1.36a2.3 2.3 0 0 0-1.24-.37c-.37 0-.67.17-.91.52s-.36.92-.36 1.72l-.37-.19c.15-.33.38-.6.67-.8s.64-.31 1.04-.31q.66 0 1.17.33c.34.22.61.51.8.88s.29.77.29 1.22-.11.81-.32 1.15-.52.61-.91.81-.86.29-1.41.29Zm.01-1.54a.77.77 0 0 0 .68-.4c.07-.12.11-.26.11-.42s-.04-.3-.11-.43a.9.9 0 0 0-.28-.31c-.12-.08-.25-.11-.4-.11s-.28.04-.41.11c-.12.08-.22.18-.29.31s-.11.27-.11.43.04.29.11.42a.8.8 0 0 0 .7.4" fill="#fffdf0"/>
        <path d="M100.9 12.03c-.33 0-.65-.04-.96-.13s-.6-.22-.85-.38a2.7 2.7 0 0 1-.64-.54c-.17-.2-.27-.42-.3-.65l1.84-.51c.06.17.16.31.31.42.15.12.34.18.57.2.19 0 .35-.04.5-.15s.22-.25.22-.42q0-.165-.12-.33a.7.7 0 0 0-.4-.22l-1.05-.27c-.36-.09-.67-.24-.92-.43-.26-.19-.45-.43-.59-.71s-.2-.59-.2-.94c0-.69.23-1.22.68-1.6s1.1-.58 1.92-.58c.44 0 .83.06 1.17.17s.63.29.87.54.45.56.61.96l-1.83.53a.9.9 0 0 0-.25-.4c-.14-.13-.32-.2-.56-.2s-.4.05-.52.15a.55.55 0 0 0-.19.44c0 .12.05.23.15.32s.24.16.43.21l1.06.27c.53.13.95.4 1.25.79s.45.83.45 1.33c0 .46-.1.85-.31 1.17s-.51.56-.91.73c-.39.17-.86.25-1.41.25Z" fill="#fffdf0"/>
        <path d="M107.33 12.03c-.62 0-1.15-.11-1.6-.34s-.79-.55-1.02-.98c-.24-.42-.36-.93-.36-1.51V4.91h1.85V9.2c0 .23.05.43.14.6s.22.29.39.38.38.13.62.13.45-.04.62-.13.3-.21.39-.38.14-.37.14-.6V4.91h1.85V9.2c0 .59-.12 1.09-.36 1.51s-.58.75-1.03.98-.99.34-1.62.34Z" fill="#fffdf0"/>
        <path d="M111.45 11.91v-7h2.9c.53 0 .99.1 1.4.31s.72.49.96.86c.23.37.34.79.34 1.27s-.12.9-.34 1.27q-.345.555-.96.87c-.41.21-.87.32-1.4.32h-1.05v2.1zm1.85-3.8h1c.25 0 .46-.07.62-.21s.23-.32.23-.55-.08-.4-.23-.54c-.16-.14-.36-.21-.62-.21h-1z" fill="#fffdf0"/>
        <path d="M117.7 11.91v-7h4.69v1.7h-2.84v.97h2.3v1.65h-2.3v.98h2.91v1.7z" fill="#fffdf0"/>
        <path d="M123.56 11.91v-7h2.9c.53 0 .99.1 1.4.3s.72.48.96.84c.23.36.34.77.34 1.24s-.12.88-.34 1.25c-.23.36-.55.65-.96.85s-.87.31-1.4.31h-1.05v2.22h-1.85Zm1.85-3.92h.95c.17 0 .31-.03.44-.09a.68.68 0 0 0 .41-.61c0-.2-.08-.37-.24-.5s-.36-.19-.61-.19h-.95zm1.91 3.92-1.56-2.75 1.39-1.04 2.29 3.79z" fill="#fffdf0"/>
        <path d="M130.19 11.91v-7h4.79v1.7h-2.94v1.02h2.3v1.7h-2.3v2.58z" fill="#fffdf0"/>
        <path d="M139.23 12.03c-.73 0-1.38-.16-1.95-.46-.56-.31-1-.74-1.32-1.28s-.48-1.17-.48-1.87.16-1.33.48-1.88c.32-.54.76-.97 1.32-1.28s1.2-.47 1.93-.47 1.38.16 1.94.47 1 .74 1.32 1.28.48 1.17.48 1.88-.16 1.32-.47 1.87-.75.97-1.32 1.28c-.56.31-1.2.46-1.93.46m0-1.7c.36 0 .68-.08.95-.25.27-.16.49-.39.64-.67.15-.29.23-.62.23-.99s-.08-.71-.24-1-.37-.52-.65-.68-.59-.25-.95-.25-.67.08-.95.25c-.28.16-.49.39-.65.68s-.23.62-.23 1 .08.7.24.99.38.51.66.67.59.25.96.25Z" fill="#fffdf0"/>
        <path d="M147.2 12.03c-.73 0-1.38-.16-1.95-.46-.56-.31-1-.74-1.32-1.28s-.48-1.17-.48-1.87.16-1.33.48-1.88c.32-.54.76-.97 1.32-1.28s1.2-.47 1.93-.47 1.38.16 1.94.47 1 .74 1.32 1.28.48 1.17.48 1.88-.16 1.32-.47 1.87-.75.97-1.32 1.28c-.56.31-1.2.46-1.93.46m0-1.7c.36 0 .68-.08.95-.25.27-.16.49-.39.64-.67.15-.29.23-.62.23-.99s-.08-.71-.24-1-.37-.52-.65-.68-.59-.25-.95-.25-.67.08-.95.25c-.28.16-.49.39-.65.68s-.23.62-.23 1 .08.7.24.99.38.51.66.67.59.25.96.25Z" fill="#fffdf0"/>
        <path d="M151.77 11.91v-7h2.34c.77 0 1.44.15 2.03.45s1.05.71 1.39 1.23c.33.52.5 1.13.5 1.82s-.17 1.28-.5 1.81-.79.94-1.39 1.24c-.59.3-1.27.45-2.03.45zm1.85-1.75h.49c.29 0 .56-.04.81-.13s.46-.21.64-.36a1.62 1.62 0 0 0 .57-1.26 1.62 1.62 0 0 0-.57-1.26 2.1 2.1 0 0 0-.64-.36c-.25-.09-.52-.13-.81-.13h-.49z" fill="#fffdf0"/>
        <path d="M161.33 12.03c-.33 0-.65-.04-.96-.13s-.6-.22-.85-.38a2.7 2.7 0 0 1-.64-.54c-.17-.2-.27-.42-.3-.65l1.84-.51c.06.17.16.31.31.42.15.12.34.18.57.2.19 0 .35-.04.5-.15s.22-.25.22-.42q0-.165-.12-.33a.7.7 0 0 0-.4-.22l-1.05-.27c-.36-.09-.67-.24-.92-.43-.26-.19-.45-.43-.59-.71s-.2-.59-.2-.94c0-.69.23-1.22.68-1.6s1.1-.58 1.92-.58c.44 0 .83.06 1.17.17s.63.29.87.54.45.56.61.96l-1.83.53a.9.9 0 0 0-.25-.4c-.14-.13-.32-.2-.56-.2s-.4.05-.52.15a.55.55 0 0 0-.19.44c0 .12.05.23.15.32s.24.16.43.21l1.06.27c.53.13.95.4 1.25.79s.45.83.45 1.33c0 .46-.1.85-.31 1.17s-.51.56-.91.73c-.39.17-.86.25-1.41.25Z" fill="#fffdf0"/>
        <path d="m89.71 23.41 2.85-7h.86l-2.81 7zm1.35-1.99v-.76h3.89v.76zm4.34 1.99-2.81-7h.85l2.85 7z" fill="#fffdf0"/>
        <path d="M100.02 17.25c-.13 0-.25-.05-.35-.15a.485.485 0 0 1 0-.7.485.485 0 0 1 .7 0c.09.1.15.21.15.35s-.05.25-.15.35-.21.15-.35.15m-.41 6.16v-5h.8v5z" fill="#fffdf0"/>
        <path d="M101.88 23.41v-5h.75l.05.92v4.08zm3.51-2.56c0-.49-.06-.87-.17-1.13s-.27-.44-.47-.53c-.2-.1-.43-.15-.68-.15-.44 0-.78.16-1.02.46-.24.31-.37.75-.37 1.32h-.39c0-.53.08-.98.23-1.36s.38-.67.67-.87.65-.3 1.06-.3q.585 0 1.02.24c.29.16.52.4.68.75.16.34.24.79.23 1.34v.24h-.8Zm0 2.56v-2.56h.8v2.56z" fill="#fffdf0"/>
        <path d="M109.69 23.53c-.49 0-.93-.11-1.31-.33s-.68-.53-.89-.92-.32-.85-.32-1.36.1-.97.31-1.36.51-.7.89-.92.81-.33 1.3-.33.91.11 1.29.33.67.53.87.93l-.73.33c-.13-.27-.33-.47-.58-.62s-.54-.22-.87-.22-.61.08-.86.24-.45.38-.59.67c-.14.28-.21.61-.21.97s.07.69.21.97.34.51.6.67.55.24.88.24.62-.08.88-.25.45-.4.58-.7l.73.33c-.2.43-.49.76-.87 1s-.81.36-1.3.36Z" fill="#fffdf0"/>
        <path d="M112.87 23.41v-7h.8v7z" fill="#fffdf0"/>
        <path d="M114.94 20.97v-2.56h.8v2.56zm.8 0c0 .49.06.87.17 1.13s.27.44.47.53q.3.15.69.15c.43 0 .77-.16 1.01-.47s.37-.75.37-1.31h.39c0 .53-.08.98-.23 1.36s-.38.67-.67.87-.65.3-1.07.3q-.585 0-1.02-.24c-.29-.16-.52-.41-.68-.75s-.24-.79-.24-1.33v-.24h.8Zm2.76 2.44-.05-.92v-4.08h.8v5z" fill="#fffdf0"/>
        <path d="M122.4 23.53c-.37 0-.69-.05-.96-.17s-.5-.25-.69-.44c-.18-.18-.31-.38-.39-.59l.7-.29c.11.23.28.41.51.55q.345.21.75.21c.31 0 .58-.06.79-.19.21-.12.32-.3.32-.52 0-.21-.08-.37-.24-.5s-.39-.23-.7-.31l-.48-.13c-.45-.12-.81-.3-1.06-.54s-.38-.52-.38-.83c0-.47.16-.84.46-1.1.31-.26.77-.4 1.39-.4.29 0 .56.04.8.13s.45.21.62.37.3.34.38.55l-.7.31a.87.87 0 0 0-.43-.49c-.2-.1-.44-.15-.73-.15-.31 0-.55.07-.72.2s-.26.31-.26.54c0 .13.07.26.21.38s.35.21.63.29l.5.13c.33.08.6.2.82.36s.39.33.5.53.17.41.17.64q0 .45-.24.78c-.16.22-.38.39-.65.5-.27.12-.59.17-.94.17Z" fill="#fffdf0"/>
        <path d="M126.89 23.53c-.59 0-1.04-.13-1.38-.41-.33-.27-.5-.64-.5-1.12 0-.51.17-.89.5-1.17.34-.27.81-.41 1.42-.41h1.43v.67h-1.25c-.47 0-.8.08-1 .23s-.29.37-.29.66c0 .26.1.46.29.62.19.15.46.22.81.22q.435 0 .75-.18c.21-.12.38-.3.5-.53s.17-.5.17-.82h.34c0 .68-.15 1.22-.46 1.62s-.75.61-1.34.61Zm1.5-.12-.04-.82v-1.82c0-.39-.04-.72-.13-.98s-.22-.45-.41-.58-.43-.2-.73-.2c-.27 0-.51.06-.71.17s-.36.29-.48.53l-.72-.28c.13-.23.28-.43.46-.6q.27-.255.63-.39c.24-.09.51-.13.82-.13.47 0 .85.09 1.16.28s.53.45.68.81.23.8.22 1.33v2.71h-.75Zm-.44-5.66c-.19 0-.35-.04-.47-.11s-.22-.16-.29-.25c-.08-.09-.15-.18-.21-.25-.07-.07-.14-.11-.23-.11-.11 0-.19.03-.25.08s-.1.16-.13.29h-.65c.02-.18.07-.35.16-.5.08-.16.2-.28.35-.38.15-.09.32-.14.51-.14s.34.04.45.11.21.16.29.25.15.18.22.25.16.11.25.11c.11 0 .2-.03.25-.1s.09-.16.11-.28h.64c-.03.27-.13.5-.3.71s-.4.31-.7.31Z" fill="#fffdf0"/>
        <path d="M132.62 23.53c-.49 0-.93-.11-1.3-.33-.38-.22-.67-.53-.88-.92s-.32-.85-.32-1.36.1-.97.31-1.36.5-.7.88-.92q.57-.33 1.29-.33c.72 0 .92.11 1.29.33.38.22.67.53.88.92s.31.85.31 1.36-.1.97-.31 1.36-.5.7-.88.92c-.37.22-.8.33-1.28.33Zm-.01-.74q.495 0 .87-.24c.25-.16.45-.38.59-.67.14-.28.21-.61.21-.97s-.07-.69-.21-.97-.34-.51-.6-.67c-.25-.16-.55-.24-.88-.24s-.61.08-.86.24-.45.38-.59.66-.21.61-.21.98.07.69.21.97.34.51.6.67.55.24.88.24Z" fill="#fffdf0"/>
        <path d="M140.64 23.53c-.45 0-.84-.11-1.18-.33s-.61-.53-.79-.92c-.19-.4-.29-.85-.29-1.37s.09-.98.29-1.37c.19-.39.46-.7.79-.92s.73-.33 1.18-.33q.63 0 1.11.33c.32.22.56.53.73.92s.26.85.26 1.37-.09.97-.26 1.37-.42.71-.73.92q-.48.33-1.11.33m.18-.73q.435 0 .78-.24c.23-.16.41-.38.54-.67s.2-.61.2-.98-.07-.69-.2-.98-.31-.51-.54-.67-.49-.24-.79-.24-.59.08-.83.24-.43.38-.58.67c-.14.29-.21.61-.21.98s.07.69.21.98.33.51.58.67q.375.24.84.24m1.55.61-.04-.93v-6.07h.8v7z" fill="#fffdf0"/>
        <path d="M146.72 23.53q-.735 0-1.29-.33c-.37-.22-.67-.53-.88-.92s-.31-.85-.31-1.36.1-.97.31-1.36.5-.7.87-.92.79-.33 1.28-.33.87.12 1.21.34c.34.23.6.55.79.97.19.41.28.9.28 1.46h-4.13l.2-.17c0 .4.07.74.21 1.03s.35.5.61.66.56.22.89.22c.35 0 .65-.08.9-.25.24-.17.43-.39.56-.66l.69.35c-.13.26-.29.49-.5.68s-.46.34-.74.45-.6.16-.95.16Zm-1.62-2.98-.21-.16h3.45l-.21.17c0-.32-.06-.6-.19-.83q-.195-.345-.51-.54c-.21-.13-.46-.19-.74-.19s-.53.06-.78.19c-.24.13-.44.3-.59.54-.15.23-.23.5-.23.82Z" fill="#fffdf0"/>
        <path d="M152.92 17.25c-.13 0-.25-.05-.35-.15a.485.485 0 0 1 0-.7.485.485 0 0 1 .7 0c.09.1.15.21.15.35s-.05.25-.15.35-.21.15-.35.15m-.41 6.16v-5h.8v5z" fill="#fffdf0"/>
        <path d="M154.78 23.41v-5h.75l.05.92v4.08zm3.51-2.56c0-.49-.06-.87-.17-1.13s-.27-.44-.47-.53c-.2-.1-.43-.15-.68-.15-.44 0-.78.16-1.02.46-.24.31-.37.75-.37 1.32h-.39c0-.53.08-.98.23-1.36s.38-.67.67-.87.65-.3 1.06-.3q.585 0 1.02.24c.29.16.52.4.68.75.16.34.24.79.23 1.34v.24h-.8Zm0 2.56v-2.56h.8v2.56z" fill="#fffdf0"/>
        <path d="M162.33 23.37c-.45 0-.84-.11-1.18-.32s-.61-.51-.79-.89c-.19-.38-.29-.82-.29-1.32s.09-.95.29-1.33c.19-.38.46-.68.79-.89.34-.21.73-.32 1.18-.32.42 0 .79.11 1.1.32s.56.51.74.89.26.83.26 1.33-.09.94-.26 1.32-.42.68-.74.89c-.31.21-.68.32-1.1.32m.03 2.16c-.32 0-.61-.03-.88-.09-.26-.06-.49-.13-.67-.21s-.32-.14-.4-.2l.3-.65c.09.05.21.11.37.17q.24.105.57.18c.33.075.45.08.7.08.32 0 .61-.07.86-.2s.46-.33.6-.61.21-.63.21-1.06v-4.53h.8v4.52c0 .57-.11 1.05-.32 1.44s-.51.68-.88.87-.8.29-1.27.29Zm.16-2.85q.435 0 .78-.24c.23-.16.4-.38.53-.66s.19-.6.19-.96-.07-.67-.2-.95-.31-.49-.53-.65-.48-.24-.79-.24-.59.08-.83.24-.43.37-.57.65-.21.59-.21.95.07.69.21.96c.14.28.33.5.58.66.24.16.52.24.83.24Z" fill="#fffdf0"/>
        <path d="M166.23 23.41v-5h.8v5zm.44-2.71c0-.54.1-.98.31-1.32s.47-.59.79-.75.67-.24 1.02-.24v.75c-.29 0-.57.05-.84.14-.27.1-.49.25-.67.47-.17.22-.26.52-.26.9l-.36.04Z" fill="#fffdf0"/>
        <path d="M171.8 23.53q-.735 0-1.29-.33c-.37-.22-.67-.53-.88-.92s-.31-.85-.31-1.36.1-.97.31-1.36.5-.7.87-.92.79-.33 1.28-.33.87.12 1.21.34c.34.23.6.55.79.97.19.41.28.9.28 1.46h-4.13l.2-.17c0 .4.07.74.21 1.03s.35.5.61.66.56.22.89.22c.35 0 .65-.08.9-.25.24-.17.43-.39.56-.66l.69.35c-.13.26-.29.49-.5.68s-.46.34-.74.45-.6.16-.95.16Zm-1.62-2.98-.21-.16h3.45l-.21.17c0-.32-.06-.6-.19-.83q-.195-.345-.51-.54c-.21-.13-.46-.19-.74-.19s-.53.06-.78.19c-.24.13-.44.3-.59.54-.15.23-.23.5-.23.82Z" fill="#fffdf0"/>
        <path d="M177.04 23.53c-.45 0-.84-.11-1.18-.33s-.61-.53-.79-.92c-.19-.4-.29-.85-.29-1.37s.09-.98.29-1.37c.19-.39.46-.7.79-.92s.73-.33 1.18-.33q.63 0 1.11.33c.32.22.56.53.73.92s.26.85.26 1.37-.09.97-.26 1.37-.42.71-.73.92q-.48.33-1.11.33m.18-.73q.435 0 .78-.24c.23-.16.41-.38.54-.67s.2-.61.2-.98-.07-.69-.2-.98-.31-.51-.54-.67-.49-.24-.79-.24-.59.08-.83.24-.43.38-.58.67c-.14.29-.21.61-.21.98s.07.69.21.98.33.51.58.67q.375.24.84.24m1.55.61-.04-.93v-6.07h.8v7z" fill="#fffdf0"/>
        <path d="M181.39 17.25c-.13 0-.25-.05-.35-.15a.485.485 0 0 1 0-.7.485.485 0 0 1 .7 0c.09.1.15.21.15.35s-.05.25-.15.35-.21.15-.35.15m-.41 6.16v-5h.8v5z" fill="#fffdf0"/>
        <path d="M185.44 23.53q-.735 0-1.29-.33c-.37-.22-.67-.53-.88-.92s-.31-.85-.31-1.36.1-.97.31-1.36.5-.7.87-.92.79-.33 1.28-.33.87.12 1.21.34c.34.23.6.55.79.97.19.41.28.9.28 1.46h-4.13l.2-.17c0 .4.07.74.21 1.03s.35.5.61.66.56.22.89.22c.35 0 .65-.08.9-.25.24-.17.43-.39.56-.66l.69.35c-.13.26-.29.49-.5.68s-.46.34-.74.45-.6.16-.95.16Zm-1.62-2.98-.21-.16h3.45l-.21.17c0-.32-.06-.6-.19-.83q-.195-.345-.51-.54c-.21-.13-.46-.19-.74-.19s-.53.06-.78.19c-.24.13-.44.3-.59.54-.15.23-.23.5-.23.82Z" fill="#fffdf0"/>
        <path d="M188.71 23.41v-5h.75l.05.92v4.08zm3.51-2.56c0-.49-.06-.87-.17-1.13s-.27-.44-.47-.53c-.2-.1-.43-.15-.68-.15-.44 0-.78.16-1.02.46-.24.31-.37.75-.37 1.32h-.39c0-.53.08-.98.23-1.36s.38-.67.67-.87.65-.3 1.06-.3q.585 0 1.02.24c.29.16.52.4.68.75.16.34.24.79.23 1.34v.24h-.8Zm0 2.56v-2.56h.8v2.56z" fill="#fffdf0"/>
        <path d="M193.77 19.12v-.71h3.17v.71zm2.4 4.41c-.49 0-.86-.13-1.13-.38s-.4-.61-.4-1.07v-5.23h.8V22c0 .25.07.45.21.58s.33.21.58.21c.08 0 .16-.01.24-.04.08-.02.18-.08.3-.17l.31.65c-.17.11-.33.19-.47.23s-.28.07-.43.07Z" fill="#fffdf0"/>
        <path d="M200.23 23.53q-.735 0-1.29-.33c-.37-.22-.67-.53-.88-.92s-.31-.85-.31-1.36.1-.97.31-1.36.5-.7.87-.92.79-.33 1.28-.33.87.12 1.21.34c.34.23.6.55.79.97.19.41.28.9.28 1.46h-4.13l.2-.17c0 .4.07.74.21 1.03s.35.5.61.66.56.22.89.22c.35 0 .65-.08.9-.25.24-.17.43-.39.56-.66l.69.35c-.13.26-.29.49-.5.68s-.46.34-.74.45-.6.16-.95.16Zm-1.62-2.98-.21-.16h3.45l-.21.17c0-.32-.06-.6-.19-.83q-.195-.345-.51-.54c-.21-.13-.46-.19-.74-.19s-.53.06-.78.19c-.24.13-.44.3-.59.54-.15.23-.23.5-.23.82Z" fill="#fffdf0"/>
        <path d="M205.25 23.53c-.37 0-.69-.05-.96-.17s-.5-.25-.69-.44c-.18-.18-.31-.38-.39-.59l.7-.29c.11.23.28.41.51.55q.345.21.75.21c.31 0 .58-.06.79-.19.21-.12.32-.3.32-.52 0-.21-.08-.37-.24-.5s-.39-.23-.7-.31l-.48-.13c-.45-.12-.81-.3-1.06-.54s-.38-.52-.38-.83c0-.47.16-.84.46-1.1.31-.26.77-.4 1.39-.4.29 0 .56.04.8.13s.45.21.62.37.3.34.38.55l-.7.31a.87.87 0 0 0-.43-.49c-.2-.1-.44-.15-.73-.15-.31 0-.55.07-.72.2s-.26.31-.26.54c0 .13.07.26.21.38s.35.21.63.29l.5.13c.33.08.6.2.82.36s.39.33.5.53.17.41.17.64q0 .45-.24.78c-.16.22-.38.39-.65.5-.27.12-.59.17-.94.17Z" fill="#fffdf0"/>
        <path d="M210.63 23.41v-5h.75l.05.92v4.08zm3.51-2.56c0-.49-.06-.87-.17-1.13s-.27-.44-.47-.53c-.2-.1-.43-.15-.68-.15-.44 0-.78.16-1.02.46-.24.31-.37.75-.37 1.32h-.39c0-.53.08-.98.23-1.36s.38-.67.67-.87.65-.3 1.06-.3q.585 0 1.02.24c.29.16.52.4.68.75.16.34.24.79.23 1.34v.24h-.8Zm0 2.56v-2.56h.8v2.56z" fill="#fffdf0"/>
        <path d="M217.79 23.53c-.59 0-1.04-.13-1.38-.41-.33-.27-.5-.64-.5-1.12 0-.51.17-.89.5-1.17.34-.27.81-.41 1.42-.41h1.43v.67h-1.25c-.47 0-.8.08-1 .23s-.29.37-.29.66c0 .26.1.46.29.62.19.15.46.22.81.22q.435 0 .75-.18c.21-.12.38-.3.5-.53s.17-.5.17-.82h.34c0 .68-.15 1.22-.46 1.62s-.75.61-1.34.61Zm1.5-.12-.04-.82v-1.82c0-.39-.04-.72-.13-.98s-.22-.45-.41-.58-.43-.2-.73-.2c-.27 0-.51.06-.71.17s-.36.29-.48.53l-.72-.28c.13-.23.28-.43.46-.6q.27-.255.63-.39c.24-.09.51-.13.82-.13.47 0 .85.09 1.16.28s.53.45.68.81.23.8.22 1.33v2.71h-.75Z" fill="#fffdf0"/>
        <path d="M220.79 19.12v-.71h3.17v.71zm2.4 4.41c-.49 0-.86-.13-1.13-.38s-.4-.61-.4-1.07v-5.23h.8V22c0 .25.07.45.21.58s.33.21.58.21c.08 0 .16-.01.24-.04.08-.02.18-.08.3-.17l.31.65c-.17.11-.33.19-.47.23s-.28.07-.43.07Z" fill="#fffdf0"/>
        <path d="M224.96 20.97v-2.56h.8v2.56zm.8 0c0 .49.06.87.17 1.13s.27.44.47.53q.3.15.69.15c.43 0 .77-.16 1.01-.47s.37-.75.37-1.31h.39c0 .53-.08.98-.23 1.36s-.38.67-.67.87-.65.3-1.07.3q-.585 0-1.02-.24c-.29-.16-.52-.41-.68-.75s-.24-.79-.24-1.33v-.24h.8Zm2.76 2.44-.05-.92v-4.08h.8v5z" fill="#fffdf0"/>
        <path d="M230.67 23.41v-5h.8v5zm.44-2.71c0-.54.1-.98.31-1.32s.47-.59.79-.75.67-.24 1.02-.24v.75c-.29 0-.57.05-.84.14-.27.1-.49.25-.67.47-.17.22-.26.52-.26.9l-.36.04Z" fill="#fffdf0"/>
        <path d="M235.63 23.53c-.59 0-1.04-.13-1.38-.41-.33-.27-.5-.64-.5-1.12 0-.51.17-.89.5-1.17.34-.27.81-.41 1.42-.41h1.43v.67h-1.25c-.47 0-.8.08-1 .23s-.29.37-.29.66c0 .26.1.46.29.62.19.15.46.22.81.22q.435 0 .75-.18c.21-.12.38-.3.5-.53s.17-.5.17-.82h.34c0 .68-.15 1.22-.46 1.62s-.75.61-1.34.61Zm1.5-.12-.04-.82v-1.82c0-.39-.04-.72-.13-.98s-.22-.45-.41-.58-.43-.2-.73-.2c-.27 0-.51.06-.71.17s-.36.29-.48.53l-.72-.28c.13-.23.28-.43.46-.6q.27-.255.63-.39c.24-.09.51-.13.82-.13.47 0 .85.09 1.16.28s.53.45.68.81.23.8.22 1.33v2.71h-.75Z" fill="#fffdf0"/>
        <path d="M239.61 17.25c-.13 0-.25-.05-.35-.15a.485.485 0 0 1 0-.7.485.485 0 0 1 .7 0c.09.1.15.21.15.35s-.05.25-.15.35-.21.15-.35.15m-.41 6.16v-5h.8v5z" fill="#fffdf0"/>
        <path d="M243.22 23.53c-.37 0-.69-.05-.96-.17s-.5-.25-.69-.44c-.18-.18-.31-.38-.39-.59l.7-.29c.11.23.28.41.51.55q.345.21.75.21c.31 0 .58-.06.79-.19.21-.12.32-.3.32-.52 0-.21-.08-.37-.24-.5s-.39-.23-.7-.31l-.48-.13c-.45-.12-.81-.3-1.06-.54s-.38-.52-.38-.83c0-.47.16-.84.46-1.1.31-.26.77-.4 1.39-.4.29 0 .56.04.8.13s.45.21.62.37.3.34.38.55l-.7.31a.87.87 0 0 0-.43-.49c-.2-.1-.44-.15-.73-.15-.31 0-.55.07-.72.2s-.26.31-.26.54c0 .13.07.26.21.38s.35.21.63.29l.5.13c.33.08.6.2.82.36s.39.33.5.53.17.41.17.64q0 .45-.24.78c-.16.22-.38.39-.65.5-.27.12-.59.17-.94.17Z" fill="#fffdf0"/>
        <path d="M250.18 23.53c-.59 0-1.04-.13-1.38-.41-.33-.27-.5-.64-.5-1.12 0-.51.17-.89.5-1.17.34-.27.81-.41 1.42-.41h1.43v.67h-1.25c-.47 0-.8.08-1 .23s-.29.37-.29.66c0 .26.1.46.29.62.19.15.46.22.81.22q.435 0 .75-.18c.21-.12.38-.3.5-.53s.17-.5.17-.82h.34c0 .68-.15 1.22-.46 1.62s-.75.61-1.34.61Zm1.5-.12-.04-.82v-1.82c0-.39-.04-.72-.13-.98s-.22-.45-.41-.58-.43-.2-.73-.2c-.27 0-.51.06-.71.17s-.36.29-.48.53l-.72-.28c.13-.23.28-.43.46-.6q.27-.255.63-.39c.24-.09.51-.13.82-.13.47 0 .85.09 1.16.28s.53.45.68.81.23.8.22 1.33v2.71h-.75Z" fill="#fffdf0"/>
        <path d="M253.57 20.97v-2.56h.8v2.56zm.8 0c0 .49.06.87.17 1.13s.27.44.47.53q.3.15.69.15c.43 0 .77-.16 1.01-.47s.37-.75.37-1.31h.39c0 .53-.08.98-.23 1.36s-.38.67-.67.87-.65.3-1.07.3q-.585 0-1.02-.24c-.29-.16-.52-.41-.68-.75s-.24-.79-.24-1.33v-.24h.8Zm2.76 2.44-.05-.92v-4.08h.8v5z" fill="#fffdf0"/>
        <path d="m258.68 23.41 2.04-2.87 1.44-2.13h.95l-1.9 2.7-1.56 2.3zm3.59 0-1.54-2.3-1.92-2.7h.95l1.45 2.13 2.02 2.87z" fill="#fffdf0"/>
        <path d="M264.49 17.25c-.13 0-.25-.05-.35-.15a.485.485 0 0 1 0-.7.485.485 0 0 1 .7 0c.09.1.15.21.15.35s-.05.25-.15.35-.21.15-.35.15m-.41 6.16v-5h.8v5z" fill="#fffdf0"/>
        <path d="M266.35 23.41v-7h.8v7z" fill="#fffdf0"/>
        <path d="M269.01 17.25c-.13 0-.25-.05-.35-.15a.485.485 0 0 1 0-.7.485.485 0 0 1 .7 0c.09.1.15.21.15.35s-.05.25-.15.35-.21.15-.35.15m-.41 6.16v-5h.8v5z" fill="#fffdf0"/>
        <path d="M272.45 23.53c-.59 0-1.04-.13-1.38-.41-.33-.27-.5-.64-.5-1.12 0-.51.17-.89.5-1.17.34-.27.81-.41 1.42-.41h1.43v.67h-1.25c-.47 0-.8.08-1 .23s-.29.37-.29.66c0 .26.1.46.29.62.19.15.46.22.81.22q.435 0 .75-.18c.21-.12.38-.3.5-.53s.17-.5.17-.82h.34c0 .68-.15 1.22-.46 1.62s-.75.61-1.34.61Zm1.5-.12-.04-.82v-1.82c0-.39-.04-.72-.13-.98s-.22-.45-.41-.58-.43-.2-.73-.2c-.27 0-.51.06-.71.17s-.36.29-.48.53l-.72-.28c.13-.23.28-.43.46-.6q.27-.255.63-.39c.24-.09.51-.13.82-.13.47 0 .85.09 1.16.28s.53.45.68.81.23.8.22 1.33v2.71h-.75Z" fill="#fffdf0"/>
        <path d="M90.32 34.91v-5h.75l.05.92v4.08zm3.51-2.56c0-.49-.06-.87-.17-1.13s-.27-.44-.47-.53c-.2-.1-.43-.15-.68-.15-.44 0-.78.16-1.02.46-.24.31-.37.75-.37 1.32h-.39c0-.53.08-.98.23-1.36s.38-.67.67-.87.65-.3 1.06-.3q.585 0 1.02.24c.29.16.52.4.68.75.16.34.24.79.23 1.34v.24h-.8Zm0 2.56v-2.56h.8v2.56z" fill="#fffdf0"/>
        <path d="M97.48 35.03c-.59 0-1.04-.13-1.38-.41-.33-.27-.5-.64-.5-1.12 0-.51.17-.89.5-1.17.34-.27.81-.41 1.42-.41h1.43v.67H97.7c-.47 0-.8.08-1 .23s-.29.37-.29.66c0 .26.1.46.29.62.19.15.46.22.81.22q.435 0 .75-.18c.21-.12.38-.3.5-.53s.17-.5.17-.82h.34c0 .68-.15 1.22-.46 1.62s-.75.61-1.34.61Zm1.5-.12-.04-.82v-1.82c0-.39-.04-.72-.13-.98s-.22-.45-.41-.58-.43-.2-.73-.2c-.27 0-.51.06-.71.17s-.36.29-.48.53l-.72-.28c.13-.23.28-.43.46-.6q.27-.255.63-.39c.24-.09.51-.13.82-.13.47 0 .85.09 1.16.28s.53.45.68.81.23.8.22 1.33v2.71h-.75Z" fill="#fffdf0"/>
        <path d="M105.22 35.03c-.37 0-.69-.05-.96-.17s-.5-.25-.69-.44c-.18-.18-.31-.38-.39-.59l.7-.29c.11.23.28.41.51.55q.345.21.75.21c.31 0 .58-.06.79-.19.21-.12.32-.3.32-.52 0-.21-.08-.37-.24-.5s-.39-.23-.7-.31l-.48-.13c-.45-.12-.81-.3-1.06-.54s-.38-.52-.38-.83c0-.47.16-.84.46-1.1.31-.26.77-.4 1.39-.4.29 0 .56.04.8.13s.45.21.62.37.3.34.38.55l-.7.31a.87.87 0 0 0-.43-.49c-.2-.1-.44-.15-.73-.15-.31 0-.55.07-.72.2s-.26.31-.26.54c0 .13.07.26.21.38s.35.21.63.29l.5.13c.33.08.6.2.82.36s.39.33.5.53.17.41.17.64q0 .45-.24.78c-.16.22-.38.39-.65.5-.27.12-.59.17-.94.17Z" fill="#fffdf0"/>
        <path d="M109.71 35.03c-.59 0-1.04-.13-1.38-.41-.33-.27-.5-.64-.5-1.12 0-.51.17-.89.5-1.17.34-.27.81-.41 1.42-.41h1.43v.67h-1.25c-.47 0-.8.08-1 .23s-.29.37-.29.66c0 .26.1.46.29.62.19.15.46.22.81.22q.435 0 .75-.18c.21-.12.38-.3.5-.53s.17-.5.17-.82h.34c0 .68-.15 1.22-.46 1.62s-.75.61-1.34.61Zm1.5-.12-.04-.82v-1.82c0-.39-.04-.72-.13-.98s-.22-.45-.41-.58-.43-.2-.73-.2c-.27 0-.51.06-.71.17s-.36.29-.48.53l-.72-.28c.13-.23.28-.43.46-.6q.27-.255.63-.39c.24-.09.51-.13.82-.13.47 0 .85.09 1.16.28s.53.45.68.81.23.8.22 1.33v2.71h-.75Z" fill="#fffdf0"/>
        <path d="M113.1 32.47v-2.56h.8v2.56zm.8 0c0 .49.06.87.17 1.13s.27.44.47.53q.3.15.69.15c.43 0 .77-.16 1.01-.47s.37-.75.37-1.31h.39c0 .53-.08.98-.23 1.36s-.38.67-.67.87-.65.3-1.07.3q-.585 0-1.02-.24c-.29-.16-.52-.41-.68-.75s-.24-.79-.24-1.33v-.24h.8Zm.74-3.27 1.17-1.29h1.03l-1.29 1.29zm2.02 5.71-.05-.92v-4.08h.8v5z" fill="#fffdf0"/>
        <path d="M120.78 35.03c-.45 0-.84-.11-1.18-.33s-.61-.53-.79-.92c-.19-.4-.29-.85-.29-1.37s.09-.98.29-1.37c.19-.39.46-.7.79-.92s.73-.33 1.18-.33q.63 0 1.11.33c.32.22.56.53.73.92s.26.85.26 1.37-.09.97-.26 1.37-.42.71-.73.92q-.48.33-1.11.33m.18-.73q.435 0 .78-.24c.23-.16.41-.38.54-.67s.2-.61.2-.98-.07-.69-.2-.98-.31-.51-.54-.67-.49-.24-.79-.24-.59.08-.83.24-.43.38-.58.67c-.14.29-.21.61-.21.98s.07.69.21.98.33.51.58.67q.375.24.84.24m1.55.61-.04-.93v-6.07h.8v7z" fill="#fffdf0"/>
        <path d="M126.86 35.03q-.735 0-1.29-.33c-.37-.22-.67-.53-.88-.92s-.31-.85-.31-1.36.1-.97.31-1.36.5-.7.87-.92.79-.33 1.28-.33.87.12 1.21.34c.34.23.6.55.79.97.19.41.28.9.28 1.46h-4.13l.2-.17c0 .4.07.74.21 1.03s.35.5.61.66.56.22.89.22c.35 0 .65-.08.9-.25.24-.17.43-.39.56-.66l.69.35c-.13.26-.29.49-.5.68s-.46.34-.74.45-.6.16-.95.16Zm-1.62-2.98-.21-.16h3.45l-.21.17c0-.32-.06-.6-.19-.83q-.195-.345-.51-.54c-.21-.13-.46-.19-.74-.19s-.53.06-.78.19c-.24.13-.44.3-.59.54-.15.23-.23.5-.23.82Z" fill="#fffdf0"/>
        <path d="M134.79 35.03q-.735 0-1.29-.33c-.37-.22-.67-.53-.88-.92s-.31-.85-.31-1.36.1-.97.31-1.36.5-.7.87-.92.79-.33 1.28-.33.87.12 1.21.34c.34.23.6.55.79.97.19.41.28.9.28 1.46h-4.13l.2-.17c0 .4.07.74.21 1.03s.35.5.61.66.56.22.89.22c.35 0 .65-.08.9-.25.24-.17.43-.39.56-.66l.69.35c-.13.26-.29.49-.5.68s-.46.34-.74.45-.6.16-.95.16Zm-1.62-2.98-.21-.16h3.45l-.21.17c0-.32-.06-.6-.19-.83q-.195-.345-.51-.54c-.21-.13-.46-.19-.74-.19s-.53.06-.78.19c-.24.13-.44.3-.59.54-.15.23-.23.5-.23.82Z" fill="#fffdf0"/>
        <path d="M140.53 34.91v-7h.8v6.07l-.04.93zm2.49.12q-.63 0-1.11-.33c-.48-.33-.56-.53-.74-.92-.17-.4-.26-.85-.26-1.37s.09-.98.26-1.37.42-.7.74-.92.68-.33 1.11-.33c.45 0 .84.11 1.18.33s.6.53.79.92.29.85.29 1.37-.09.97-.29 1.37-.46.71-.79.92-.73.33-1.18.33m-.18-.73c.31 0 .59-.08.83-.24s.44-.38.58-.67.21-.61.21-.99-.07-.69-.21-.98-.33-.51-.57-.67-.53-.24-.85-.24q-.435 0-.78.24c-.23.16-.41.38-.54.67-.13.28-.2.61-.2.99s.07.69.2.98.31.51.54.67q.345.24.78.24Z" fill="#fffdf0"/>
        <path d="M148.58 35.03q-.735 0-1.29-.33c-.37-.22-.67-.53-.88-.92s-.31-.85-.31-1.36.1-.97.31-1.36.5-.7.87-.92.79-.33 1.28-.33.87.12 1.21.34c.34.23.6.55.79.97.19.41.28.9.28 1.46h-4.13l.2-.17c0 .4.07.74.21 1.03s.35.5.61.66.56.22.89.22c.35 0 .65-.08.9-.25.24-.17.43-.39.56-.66l.69.35c-.13.26-.29.49-.5.68s-.46.34-.74.45-.6.16-.95.16Zm-1.62-2.98-.21-.16h3.45l-.21.17c0-.32-.06-.6-.19-.83q-.195-.345-.51-.54c-.21-.13-.46-.19-.74-.19s-.53.06-.78.19c-.24.13-.44.3-.59.54-.15.23-.23.5-.23.82Z" fill="#fffdf0"/>
        <path d="M151.85 34.91v-5h.75l.04.7c.15-.27.35-.47.59-.61q.36-.21.84-.21c.4 0 .74.09 1.03.28.28.19.49.47.61.85.14-.37.35-.65.62-.84s.59-.29.96-.29c.56 0 1 .19 1.33.56.32.37.48.94.48 1.7v2.86h-.8v-2.56c0-.49-.05-.87-.15-1.13s-.24-.44-.42-.53q-.255-.15-.6-.15c-.39 0-.7.16-.92.46q-.33.465-.33 1.32v2.59h-.8v-2.56c0-.49-.05-.87-.16-1.13-.1-.26-.24-.44-.42-.53s-.38-.15-.6-.15c-.39 0-.69.16-.91.46q-.33.465-.33 1.32v2.59h-.8Z" fill="#fffdf0"/>
        <path d="M160.24 32.3v-.73h3v.73z" fill="#fffdf0"/>
        <path d="M166.72 35.03q-.735 0-1.29-.33c-.37-.22-.67-.53-.88-.92s-.31-.85-.31-1.36.1-.97.31-1.36.5-.7.87-.92.79-.33 1.28-.33.87.12 1.21.34c.34.23.6.55.79.97.19.41.28.9.28 1.46h-4.13l.2-.17c0 .4.07.74.21 1.03s.35.5.61.66.56.22.89.22c.35 0 .65-.08.9-.25.24-.17.43-.39.56-.66l.69.35c-.13.26-.29.49-.5.68s-.46.34-.74.45-.6.16-.95.16Zm-1.62-2.98-.21-.16h3.45l-.21.17c0-.32-.06-.6-.19-.83q-.195-.345-.51-.54c-.21-.13-.46-.19-.74-.19s-.53.06-.78.19c-.24.13-.44.3-.59.54-.15.23-.23.5-.23.82Z" fill="#fffdf0"/>
        <path d="M171.74 35.03c-.37 0-.69-.05-.96-.17s-.5-.25-.69-.44c-.18-.18-.31-.38-.39-.59l.7-.29c.11.23.28.41.51.55q.345.21.75.21c.31 0 .58-.06.79-.19.21-.12.32-.3.32-.52 0-.21-.08-.37-.24-.5s-.39-.23-.7-.31l-.48-.13c-.45-.12-.81-.3-1.06-.54s-.38-.52-.38-.83c0-.47.16-.84.46-1.1.31-.26.77-.4 1.39-.4.29 0 .56.04.8.13s.45.21.62.37.3.34.38.55l-.7.31a.87.87 0 0 0-.43-.49c-.2-.1-.44-.15-.73-.15-.31 0-.55.07-.72.2s-.26.31-.26.54c0 .13.07.26.21.38s.35.21.63.29l.5.13c.33.08.6.2.82.36s.39.33.5.53.17.41.17.64q0 .45-.24.78c-.16.22-.38.39-.65.5-.27.12-.59.17-.94.17Z" fill="#fffdf0"/>
        <path d="M174.13 30.62v-.71h3.17v.71zm2.4 4.41c-.49 0-.86-.13-1.13-.38s-.4-.61-.4-1.07v-5.23h.8v5.15c0 .25.07.45.21.58s.33.21.58.21c.08 0 .16-.01.24-.04.08-.02.18-.08.3-.17l.31.65c-.17.11-.33.19-.47.23s-.28.07-.43.07Z" fill="#fffdf0"/>
        <path d="M179.98 35.03c-.59 0-1.04-.13-1.38-.41-.33-.27-.5-.64-.5-1.12 0-.51.17-.89.5-1.17.34-.27.81-.41 1.42-.41h1.43v.67h-1.25c-.47 0-.8.08-1 .23s-.29.37-.29.66c0 .26.1.46.29.62.19.15.46.22.81.22q.435 0 .75-.18c.21-.12.38-.3.5-.53s.17-.5.17-.82h.34c0 .68-.15 1.22-.46 1.62s-.75.61-1.34.61Zm1.5-.12-.04-.82v-1.82c0-.39-.04-.72-.13-.98s-.22-.45-.41-.58-.43-.2-.73-.2c-.27 0-.51.06-.71.17s-.36.29-.48.53l-.72-.28c.13-.23.28-.43.46-.6q.27-.255.63-.39c.24-.09.51-.13.82-.13.47 0 .85.09 1.16.28s.53.45.68.81.23.8.22 1.33v2.71h-.75Z" fill="#fffdf0"/>
        <path d="M183.5 34.91v-5h.8v5zm.44-2.71c0-.54.1-.98.31-1.32s.47-.59.79-.75.67-.24 1.02-.24v.75c-.29 0-.57.05-.84.14-.27.1-.49.25-.67.47-.17.22-.26.52-.26.9l-.36.04Z" fill="#fffdf0"/>
        <path d="M191.32 35.03c-.45 0-.84-.11-1.18-.33s-.61-.53-.79-.92c-.19-.4-.29-.85-.29-1.37s.09-.98.29-1.37c.19-.39.46-.7.79-.92s.73-.33 1.18-.33q.63 0 1.11.33c.32.22.56.53.73.92s.26.85.26 1.37-.09.97-.26 1.37-.42.71-.73.92q-.48.33-1.11.33m.18-.73q.435 0 .78-.24c.23-.16.41-.38.54-.67s.2-.61.2-.98-.07-.69-.2-.98-.31-.51-.54-.67-.49-.24-.79-.24-.59.08-.83.24-.43.38-.58.67c-.14.29-.21.61-.21.98s.07.69.21.98.33.51.58.67q.375.24.84.24m1.55.61-.04-.93v-6.07h.8v7z" fill="#fffdf0"/>
        <path d="M197.43 35.03c-.49 0-.93-.11-1.3-.33-.38-.22-.67-.53-.88-.92s-.32-.85-.32-1.36.1-.97.31-1.36.5-.7.88-.92q.57-.33 1.29-.33c.72 0 .92.11 1.29.33.38.22.67.53.88.92s.31.85.31 1.36-.1.97-.31 1.36-.5.7-.88.92c-.37.22-.8.33-1.28.33Zm-.01-.74q.495 0 .87-.24c.25-.16.45-.38.59-.67.14-.28.21-.61.21-.97s-.07-.69-.21-.97-.34-.51-.6-.67c-.25-.16-.55-.24-.88-.24s-.61.08-.86.24-.45.38-.59.66-.21.61-.21.98.07.69.21.97.34.51.6.67.55.24.88.24Z" fill="#fffdf0"/>
        <path d="M205.23 35.03c-.37 0-.69-.05-.96-.17s-.5-.25-.69-.44c-.18-.18-.31-.38-.39-.59l.7-.29c.11.23.28.41.51.55q.345.21.75.21c.31 0 .58-.06.79-.19.21-.12.32-.3.32-.52 0-.21-.08-.37-.24-.5s-.39-.23-.7-.31l-.48-.13c-.45-.12-.81-.3-1.06-.54s-.38-.52-.38-.83c0-.47.16-.84.46-1.1.31-.26.77-.4 1.39-.4.29 0 .56.04.8.13s.45.21.62.37.3.34.38.55l-.7.31a.87.87 0 0 0-.43-.49c-.2-.1-.44-.15-.73-.15-.31 0-.55.07-.72.2s-.26.31-.26.54c0 .13.07.26.21.38s.35.21.63.29l.5.13c.33.08.6.2.82.36s.39.33.5.53.17.41.17.64q0 .45-.24.78c-.16.22-.38.39-.65.5-.27.12-.59.17-.94.17Z" fill="#fffdf0"/>
        <path d="M210.33 35.03q-.735 0-1.29-.33c-.37-.22-.67-.53-.88-.92s-.31-.85-.31-1.36.1-.97.31-1.36.5-.7.87-.92.79-.33 1.28-.33.87.12 1.21.34c.34.23.6.55.79.97.19.41.28.9.28 1.46h-4.13l.2-.17c0 .4.07.74.21 1.03s.35.5.61.66.56.22.89.22c.35 0 .65-.08.9-.25.24-.17.43-.39.56-.66l.69.35c-.13.26-.29.49-.5.68s-.46.34-.74.45-.6.16-.95.16Zm-1.62-2.98-.21-.16h3.45l-.21.17c0-.32-.06-.6-.19-.83q-.195-.345-.51-.54c-.21-.13-.46-.19-.74-.19s-.53.06-.78.19c-.24.13-.44.3-.59.54-.15.23-.23.5-.23.82Z" fill="#fffdf0"/>
        <path d="M213.47 32.47v-2.56h.8v2.56zm.8 0c0 .49.06.87.17 1.13s.27.44.47.53q.3.15.69.15c.43 0 .77-.16 1.01-.47s.37-.75.37-1.31h.39c0 .53-.08.98-.23 1.36s-.38.67-.67.87-.65.3-1.07.3q-.585 0-1.02-.24c-.29-.16-.52-.41-.68-.75s-.24-.79-.24-1.33v-.24h.8Zm2.76 2.44-.05-.92v-4.08h.8v5z" fill="#fffdf0"/>
        <path d="M223.88 35.03c-.49 0-.93-.11-1.31-.33s-.68-.53-.89-.92-.32-.85-.32-1.36.1-.97.31-1.36.51-.7.89-.92.81-.33 1.3-.33.91.11 1.29.33.67.53.87.93l-.73.33c-.13-.27-.33-.47-.58-.62s-.54-.22-.87-.22-.61.08-.86.24-.45.38-.59.67c-.14.28-.21.61-.21.97s.07.69.21.97.34.51.6.67.55.24.88.24.62-.08.88-.25.45-.4.58-.7l.73.33c-.2.43-.49.76-.87 1s-.81.36-1.3.36Z" fill="#fffdf0"/>
        <path d="M229.28 35.03c-.49 0-.93-.11-1.3-.33-.38-.22-.67-.53-.88-.92s-.32-.85-.32-1.36.1-.97.31-1.36.5-.7.88-.92q.57-.33 1.29-.33c.72 0 .92.11 1.29.33.38.22.67.53.88.92s.31.85.31 1.36-.1.97-.31 1.36-.5.7-.88.92c-.37.22-.8.33-1.28.33Zm-.01-.74q.495 0 .87-.24c.25-.16.45-.38.59-.67.14-.28.21-.61.21-.97s-.07-.69-.21-.97-.34-.51-.6-.67c-.25-.16-.55-.24-.88-.24s-.61.08-.86.24-.45.38-.59.66-.21.61-.21.98.07.69.21.97.34.51.6.67.55.24.88.24Z" fill="#fffdf0"/>
        <path d="M232.86 34.91v-5h.75l.04.7c.15-.27.35-.47.59-.61q.36-.21.84-.21c.4 0 .74.09 1.03.28.28.19.49.47.61.85.14-.37.35-.65.62-.84s.59-.29.96-.29c.56 0 1 .19 1.33.56.32.37.48.94.48 1.7v2.86h-.8v-2.56c0-.49-.05-.87-.15-1.13s-.24-.44-.42-.53q-.255-.15-.6-.15c-.39 0-.7.16-.92.46q-.33.465-.33 1.32v2.59h-.8v-2.56c0-.49-.05-.87-.16-1.13-.1-.26-.24-.44-.42-.53s-.38-.15-.6-.15c-.39 0-.69.16-.91.46q-.33.465-.33 1.32v2.59h-.8Z" fill="#fffdf0"/>
        <path d="M241.42 36.91v-7h.75l.05.92v6.08zm2.49-1.88q-.63 0-1.11-.33c-.48-.33-.56-.53-.73-.92-.17-.4-.26-.85-.26-1.37s.09-.98.26-1.37.42-.7.73-.92.69-.33 1.11-.33c.45 0 .84.11 1.18.33s.61.53.79.92c.19.39.29.85.29 1.37s-.09.97-.29 1.37c-.19.4-.46.71-.79.92s-.73.33-1.18.33m-.18-.73c.31 0 .59-.08.83-.24s.44-.38.58-.67c.14-.28.22-.61.22-.99s-.07-.69-.21-.98-.33-.51-.57-.67-.53-.24-.84-.24c-.29 0-.56.08-.79.24s-.41.38-.54.67c-.13.28-.2.61-.2.99s.07.69.2.98.31.51.54.67q.345.24.78.24" fill="#fffdf0"/>
        <path d="M248.86 35.03c-.59 0-1.04-.13-1.38-.41-.33-.27-.5-.64-.5-1.12 0-.51.17-.89.5-1.17.34-.27.81-.41 1.42-.41h1.43v.67h-1.25c-.47 0-.8.08-1 .23s-.29.37-.29.66c0 .26.1.46.29.62.19.15.46.22.81.22q.435 0 .75-.18c.21-.12.38-.3.5-.53s.17-.5.17-.82h.34c0 .68-.15 1.22-.46 1.62s-.75.61-1.34.61Zm1.5-.12-.04-.82v-1.82c0-.39-.04-.72-.13-.98s-.22-.45-.41-.58-.43-.2-.73-.2c-.27 0-.51.06-.71.17s-.36.29-.48.53l-.72-.28c.13-.23.28-.43.46-.6q.27-.255.63-.39c.24-.09.51-.13.82-.13.47 0 .85.09 1.16.28s.53.45.68.81.23.8.22 1.33v2.71h-.75Z" fill="#fffdf0"/>
        <path d="M252.38 34.91v-5h.75l.05.92v4.08zm3.51-2.56c0-.49-.06-.87-.17-1.13s-.27-.44-.47-.53c-.2-.1-.43-.15-.68-.15-.44 0-.78.16-1.02.46-.24.31-.37.75-.37 1.32h-.39c0-.53.08-.98.23-1.36s.38-.67.67-.87.65-.3 1.06-.3q.585 0 1.02.24c.29.16.52.4.68.75.16.34.24.79.23 1.34v.24h-.8Zm0 2.56v-2.56h.8v2.56z" fill="#fffdf0"/>
        <path d="M257.96 34.91v-7h.8v7zm3.52-2.56c0-.49-.06-.87-.17-1.13-.12-.26-.28-.44-.47-.53-.2-.1-.43-.15-.68-.15-.44 0-.78.16-1.02.46-.24.31-.37.75-.37 1.32h-.39c0-.53.08-.98.23-1.36.16-.38.38-.67.67-.87s.65-.3 1.06-.3q.585 0 1.02.24c.29.16.52.4.69.75.16.34.24.79.23 1.34v.24h-.8Zm0 2.56v-2.56h.8v2.56z" fill="#fffdf0"/>
        <path d="M265.73 35.03q-.735 0-1.29-.33c-.37-.22-.67-.53-.88-.92s-.31-.85-.31-1.36.1-.97.31-1.36.5-.7.87-.92.79-.33 1.28-.33.87.12 1.21.34c.34.23.6.55.79.97.19.41.28.9.28 1.46h-4.13l.2-.17c0 .4.07.74.21 1.03s.35.5.61.66.56.22.89.22c.35 0 .65-.08.9-.25.24-.17.43-.39.56-.66l.69.35c-.13.26-.29.49-.5.68s-.46.34-.74.45-.6.16-.95.16Zm-1.62-2.98-.21-.16h3.45l-.21.17c0-.32-.06-.6-.19-.83q-.195-.345-.51-.54c-.21-.13-.46-.19-.74-.19s-.53.06-.78.19c-.24.13-.44.3-.59.54-.15.23-.23.5-.23.82Z" fill="#fffdf0"/>
        <path d="M269.46 28.75c-.13 0-.25-.05-.35-.15a.485.485 0 0 1 0-.7.485.485 0 0 1 .7 0c.09.1.15.21.15.35s-.05.25-.15.35-.21.15-.35.15m-.41 6.16v-5h.8v5z" fill="#fffdf0"/>
        <path d="M271.32 34.91v-5h.8v5zm.44-2.71c0-.54.1-.98.31-1.32s.47-.59.79-.75.67-.24 1.02-.24v.75c-.29 0-.57.05-.84.14-.27.1-.49.25-.67.47-.17.22-.26.52-.26.9l-.36.04Z" fill="#fffdf0"/>
        <path d="M276.92 35.03c-.49 0-.93-.11-1.3-.33-.38-.22-.67-.53-.88-.92s-.32-.85-.32-1.36.1-.97.31-1.36.5-.7.88-.92q.57-.33 1.29-.33c.72 0 .92.11 1.29.33.38.22.67.53.88.92s.31.85.31 1.36-.1.97-.31 1.36-.5.7-.87.92-.8.33-1.28.33m-.01-.74q.495 0 .87-.24c.25-.16.45-.38.59-.67.14-.28.21-.61.21-.97s-.07-.69-.21-.97-.34-.51-.6-.67c-.25-.16-.55-.24-.88-.24s-.61.08-.86.24-.45.38-.59.66-.21.61-.21.98.07.69.21.97.34.51.6.67.55.24.88.24Z" fill="#fffdf0"/>
        <path d="M89.9 42.1v-.69h3.17v.69zm.92 4.31v-5.57c0-.52.12-.91.37-1.17q.36-.39 1.11-.39c.13 0 .28.02.45.07s.34.11.53.2l-.3.63c-.15-.06-.28-.11-.39-.14s-.2-.05-.27-.05c-.23 0-.41.07-.53.22s-.17.38-.17.7v5.51h-.8Z" fill="#fffdf0"/>
        <path d="M94.47 40.25c-.13 0-.25-.05-.35-.15a.485.485 0 0 1 0-.7.485.485 0 0 1 .7 0c.09.1.15.21.15.35s-.05.25-.15.35-.21.15-.35.15m-.41 6.16v-5h.8v5z" fill="#fffdf0"/>
        <path d="M98.52 46.53q-.735 0-1.29-.33c-.37-.22-.67-.53-.88-.92s-.31-.85-.31-1.36.1-.97.31-1.36.5-.7.87-.92.79-.33 1.28-.33.87.12 1.21.34c.34.23.6.55.79.97.19.41.28.9.28 1.46h-4.13l.2-.17c0 .4.07.74.21 1.03s.35.5.61.66.56.22.89.22c.35 0 .65-.08.9-.25.24-.17.43-.39.56-.66l.69.35c-.13.26-.29.49-.5.68s-.46.34-.74.45-.6.16-.95.16Zm-1.62-2.98-.21-.16h3.45l-.21.17c0-.32-.06-.6-.19-.83q-.195-.345-.51-.54c-.21-.13-.46-.19-.74-.19s-.53.06-.78.19c-.24.13-.44.3-.59.54-.15.23-.23.5-.23.82Z" fill="#fffdf0"/>
        <path d="M101.79 46.41v-7h.8v7z" fill="#fffdf0"/>
        <path d="M104.33 46.55c-.15 0-.29-.05-.4-.17s-.16-.24-.16-.38.05-.29.16-.39.24-.17.4-.17.28.05.39.17c.11.11.16.24.16.39s-.05.28-.16.38c-.11.11-.24.17-.39.17" fill="#fffdf0"/>
        <path d="m107.93 46.41 2.85-7h.86l-2.81 7zm1.35-1.99v-.76h3.89v.76zm4.34 1.99-2.81-7h.85l2.85 7z" fill="#fffdf0"/>
        <path d="M120.01 46.53c-.49 0-.93-.11-1.31-.33s-.68-.53-.89-.92-.32-.85-.32-1.36.1-.97.31-1.36.51-.7.89-.92.81-.33 1.3-.33.91.11 1.29.33.67.53.87.93l-.73.33c-.13-.27-.33-.47-.58-.62s-.54-.22-.87-.22-.61.08-.86.24-.45.38-.59.67c-.14.28-.21.61-.21.97s.07.69.21.97.34.51.6.67.55.24.88.24.62-.08.88-.25.45-.4.58-.7l.73.33c-.2.43-.49.76-.87 1s-.81.36-1.3.36Z" fill="#fffdf0"/>
        <path d="M125.41 46.53c-.49 0-.93-.11-1.3-.33-.38-.22-.67-.53-.88-.92s-.32-.85-.32-1.36.1-.97.31-1.36.5-.7.88-.92q.57-.33 1.29-.33c.72 0 .92.11 1.29.33.38.22.67.53.88.92s.31.85.31 1.36-.1.97-.31 1.36-.5.7-.88.92c-.37.22-.8.33-1.28.33Zm-.01-.74q.495 0 .87-.24c.25-.16.45-.38.59-.67.14-.28.21-.61.21-.97s-.07-.69-.21-.97-.34-.51-.6-.67c-.25-.16-.55-.24-.88-.24s-.61.08-.86.24-.45.38-.59.66-.21.61-.21.98.07.69.21.97.34.51.6.67.55.24.88.24Z" fill="#fffdf0"/>
        <path d="M128.99 46.41v-5h.75l.04.7c.15-.27.35-.47.59-.61q.36-.21.84-.21c.4 0 .74.09 1.03.28.28.19.49.47.61.85.14-.37.35-.65.62-.84s.59-.29.96-.29c.56 0 1 .19 1.33.56.32.37.48.94.48 1.7v2.86h-.8v-2.56c0-.49-.05-.87-.15-1.13s-.24-.44-.42-.53q-.255-.15-.6-.15c-.39 0-.7.16-.92.46q-.33.465-.33 1.32v2.59h-.8v-2.56c0-.49-.05-.87-.16-1.13-.1-.26-.24-.44-.42-.53s-.38-.15-.6-.15c-.39 0-.69.16-.91.46q-.33.465-.33 1.32v2.59h-.8Z" fill="#fffdf0"/>
        <path d="M137.5 46.41v-7h.8v6.07l-.04.93zm2.49.12q-.63 0-1.11-.33c-.48-.33-.56-.53-.74-.92-.17-.4-.26-.85-.26-1.37s.09-.98.26-1.37.42-.7.74-.92.68-.33 1.11-.33c.45 0 .84.11 1.18.33s.6.53.79.92.29.85.29 1.37-.09.97-.29 1.37-.46.71-.79.92-.73.33-1.18.33m-.18-.73c.31 0 .59-.08.83-.24s.44-.38.58-.67.21-.61.21-.99-.07-.69-.21-.98-.33-.51-.57-.67-.53-.24-.85-.24q-.435 0-.78.24c-.23.16-.41.38-.54.67-.13.28-.2.61-.2.99s.07.69.2.98.31.51.54.67q.345.24.78.24Z" fill="#fffdf0"/>
        <path d="M143.82 40.25c-.13 0-.25-.05-.35-.15a.485.485 0 0 1 0-.7.485.485 0 0 1 .7 0c.09.1.15.21.15.35s-.05.25-.15.35-.21.15-.35.15m-.41 6.16v-5h.8v5z" fill="#fffdf0"/>
        <path d="M145.68 46.41v-5h.75l.05.92v4.08zm3.51-2.56c0-.49-.06-.87-.17-1.13s-.27-.44-.47-.53c-.2-.1-.43-.15-.68-.15-.44 0-.78.16-1.02.46-.24.31-.37.75-.37 1.32h-.39c0-.53.08-.98.23-1.36s.38-.67.67-.87.65-.3 1.06-.3q.585 0 1.02.24c.29.16.52.4.68.75.16.34.24.79.23 1.34v.24h-.8Zm0 2.56v-2.56h.8v2.56z" fill="#fffdf0"/>
        <path d="M152.84 46.53c-.59 0-1.04-.13-1.38-.41-.33-.27-.5-.64-.5-1.12 0-.51.17-.89.5-1.17.34-.27.81-.41 1.42-.41h1.43v.67h-1.25c-.47 0-.8.08-1 .23s-.29.37-.29.66c0 .26.1.46.29.62.19.15.46.22.81.22q.435 0 .75-.18c.21-.12.38-.3.5-.53s.17-.5.17-.82h.34c0 .68-.15 1.22-.46 1.62s-.75.61-1.34.61Zm1.5-.12-.04-.82v-1.82c0-.39-.04-.72-.13-.98s-.22-.45-.41-.58-.43-.2-.73-.2c-.27 0-.51.06-.71.17s-.36.29-.48.53l-.72-.28c.13-.23.28-.43.46-.6q.27-.255.63-.39c.24-.09.51-.13.82-.13.47 0 .85.09 1.16.28s.53.45.68.81.23.8.22 1.33v2.71h-.75Z" fill="#fffdf0"/>
        <path d="M158.59 46.53c-.49 0-.93-.11-1.31-.33s-.68-.53-.89-.92-.32-.85-.32-1.36.1-.97.31-1.36.51-.7.89-.92.81-.33 1.3-.33.91.11 1.29.33.67.53.87.93l-.73.33c-.13-.27-.33-.47-.58-.62s-.54-.22-.87-.22-.61.08-.86.24-.45.38-.59.67c-.14.28-.21.61-.21.97s.07.69.21.97.34.51.6.67.55.24.88.24.62-.08.88-.25.45-.4.58-.7l.73.33c-.2.43-.49.76-.87 1s-.81.36-1.3.36Zm-.31 1.98c-.13 0-.27-.02-.42-.05s-.33-.11-.54-.22l.2-.48c.1.05.21.09.32.14.12.05.22.07.32.07.12 0 .23-.02.33-.07s.14-.14.14-.29a.44.44 0 0 0-.18-.38c-.12-.08-.32-.15-.58-.19l.3-.7.53.12-.11.26c.25.09.42.21.53.36.1.16.16.32.16.5q0 .39-.24.66c-.24.27-.41.26-.75.26Z" fill="#fffdf0"/>
        <path d="M163.35 46.53c-.59 0-1.04-.13-1.38-.41-.33-.27-.5-.64-.5-1.12 0-.51.17-.89.5-1.17.34-.27.81-.41 1.42-.41h1.43v.67h-1.25c-.47 0-.8.08-1 .23s-.29.37-.29.66c0 .26.1.46.29.62.19.15.46.22.81.22q.435 0 .75-.18c.21-.12.38-.3.5-.53s.17-.5.17-.82h.34c0 .68-.15 1.22-.46 1.62s-.75.61-1.34.61Zm1.5-.12-.04-.82v-1.82c0-.39-.04-.72-.13-.98s-.22-.45-.41-.58-.43-.2-.73-.2c-.27 0-.51.06-.71.17s-.36.29-.48.53l-.72-.28c.13-.23.28-.43.46-.6q.27-.255.63-.39c.24-.09.51-.13.82-.13.47 0 .85.09 1.16.28s.53.45.68.81.23.8.22 1.33v2.71h-.75Zm-.44-5.66c-.19 0-.35-.04-.47-.11s-.22-.16-.29-.25c-.08-.09-.15-.18-.21-.25-.07-.07-.14-.11-.23-.11-.11 0-.19.03-.25.08s-.1.16-.13.29h-.65c.02-.18.07-.35.16-.5s.2-.28.35-.38c.15-.09.32-.14.51-.14s.34.04.45.11.21.16.29.25.15.18.22.25.16.11.25.11c.11 0 .2-.03.25-.1s.09-.16.11-.28h.64c-.03.27-.13.5-.3.71s-.4.31-.7.31Z" fill="#fffdf0"/>
        <path d="M169.08 46.53c-.49 0-.93-.11-1.3-.33-.38-.22-.67-.53-.88-.92s-.32-.85-.32-1.36.1-.97.31-1.36.5-.7.88-.92q.57-.33 1.29-.33c.72 0 .92.11 1.29.33.38.22.67.53.88.92s.31.85.31 1.36-.1.97-.31 1.36-.5.7-.88.92c-.37.22-.8.33-1.28.33Zm-.01-.74q.495 0 .87-.24c.25-.16.45-.38.59-.67.14-.28.21-.61.21-.97s-.07-.69-.21-.97-.34-.51-.6-.67c-.25-.16-.55-.24-.88-.24s-.61.08-.86.24-.45.38-.59.66-.21.61-.21.98.07.69.21.97.34.51.6.67.55.24.88.24Z" fill="#fffdf0"/>
        <path d="M177.1 46.53c-.45 0-.84-.11-1.18-.33s-.61-.53-.79-.92c-.19-.4-.29-.85-.29-1.37s.09-.98.29-1.37c.19-.39.46-.7.79-.92s.73-.33 1.18-.33q.63 0 1.11.33c.32.22.56.53.73.92s.26.85.26 1.37-.09.97-.26 1.37-.42.71-.73.92q-.48.33-1.11.33m.18-.73q.435 0 .78-.24c.23-.16.41-.38.54-.67s.2-.61.2-.98-.07-.69-.2-.98-.31-.51-.54-.67-.49-.24-.79-.24-.59.08-.83.24-.43.38-.58.67c-.14.29-.21.61-.21.98s.07.69.21.98.33.51.58.67q.375.24.84.24m1.55.61-.04-.93v-6.07h.8v7z" fill="#fffdf0"/>
        <path d="M183.18 46.53q-.735 0-1.29-.33c-.37-.22-.67-.53-.88-.92s-.31-.85-.31-1.36.1-.97.31-1.36.5-.7.87-.92.79-.33 1.28-.33.87.12 1.21.34c.34.23.6.55.79.97.19.41.28.9.28 1.46h-4.13l.2-.17c0 .4.07.74.21 1.03s.35.5.61.66.56.22.89.22c.35 0 .65-.08.9-.25.24-.17.43-.39.56-.66l.69.35c-.13.26-.29.49-.5.68s-.46.34-.74.45-.6.16-.95.16Zm-1.62-2.98-.21-.16h3.45l-.21.17c0-.32-.06-.6-.19-.83q-.195-.345-.51-.54c-.21-.13-.46-.19-.74-.19s-.53.06-.78.19c-.24.13-.44.3-.59.54-.15.23-.23.5-.23.82Z" fill="#fffdf0"/>
        <path d="M188.97 48.41v-7h.75l.05.92v6.08zm2.49-1.88q-.63 0-1.11-.33c-.48-.33-.56-.53-.73-.92-.17-.4-.26-.85-.26-1.37s.09-.98.26-1.37.42-.7.73-.92.69-.33 1.11-.33c.45 0 .84.11 1.18.33s.61.53.79.92c.19.39.29.85.29 1.37s-.09.97-.29 1.37c-.19.4-.46.71-.79.92s-.73.33-1.18.33m-.18-.73c.31 0 .59-.08.83-.24s.44-.38.58-.67c.14-.28.22-.61.22-.99s-.07-.69-.21-.98-.33-.51-.57-.67-.53-.24-.84-.24c-.29 0-.56.08-.79.24s-.41.38-.54.67c-.13.28-.2.61-.2.99s.07.69.2.98.31.51.54.67q.345.24.78.24" fill="#fffdf0"/>
        <path d="M194.83 46.41v-5h.8v5zm.44-2.71c0-.54.1-.98.31-1.32s.47-.59.79-.75.67-.24 1.02-.24v.75c-.29 0-.57.05-.84.14-.27.1-.49.25-.67.47-.17.22-.26.52-.26.9l-.36.04Z" fill="#fffdf0"/>
        <path d="M200.43 46.53c-.49 0-.93-.11-1.3-.33-.38-.22-.67-.53-.88-.92s-.32-.85-.32-1.36.1-.97.31-1.36.5-.7.88-.92q.57-.33 1.29-.33c.72 0 .92.11 1.29.33.38.22.67.53.88.92s.31.85.31 1.36-.1.97-.31 1.36-.5.7-.88.92c-.37.22-.8.33-1.28.33Zm-.01-.74q.495 0 .87-.24c.25-.16.45-.38.59-.67.14-.28.21-.61.21-.97s-.07-.69-.21-.97-.34-.51-.6-.67c-.25-.16-.55-.24-.88-.24s-.61.08-.86.24-.45.38-.59.66-.21.61-.21.98.07.69.21.97.34.51.6.67.55.24.88.24Z" fill="#fffdf0"/>
        <path d="M203.49 42.12v-.71h3.17v.71zm2.4 4.41c-.49 0-.86-.13-1.13-.38s-.4-.61-.4-1.07v-5.23h.8V45c0 .25.07.45.21.58s.33.21.58.21c.08 0 .16-.01.24-.04.08-.02.18-.08.3-.17l.31.65c-.17.11-.33.19-.47.23s-.28.07-.43.07Z" fill="#fffdf0"/>
        <path d="M209.95 46.53q-.735 0-1.29-.33c-.37-.22-.67-.53-.88-.92s-.31-.85-.31-1.36.1-.97.31-1.36.5-.7.87-.92.79-.33 1.28-.33.87.12 1.21.34c.34.23.6.55.79.97.19.41.28.9.28 1.46h-4.13l.2-.17c0 .4.07.74.21 1.03s.35.5.61.66.56.22.89.22c.35 0 .65-.08.9-.25.24-.17.43-.39.56-.66l.69.35c-.13.26-.29.49-.5.68s-.46.34-.74.45-.6.16-.95.16Zm-1.62-2.98-.21-.16h3.45l-.21.17c0-.32-.06-.6-.19-.83q-.195-.345-.51-.54c-.21-.13-.46-.19-.74-.19s-.53.06-.78.19c-.24.13-.44.3-.59.54-.15.23-.23.5-.23.82Z" fill="#fffdf0"/>
        <path d="m213 40.7 1.17-1.29h1.03l-1.29 1.29zm.27 5.71v-5h.8v5z" fill="#fffdf0"/>
        <path d="M215.54 46.41v-5h.75l.05.92v4.08zm3.51-2.56c0-.49-.06-.87-.17-1.13s-.27-.44-.47-.53c-.2-.1-.43-.15-.68-.15-.44 0-.78.16-1.02.46-.24.31-.37.75-.37 1.32h-.39c0-.53.08-.98.23-1.36s.38-.67.67-.87.65-.3 1.06-.3q.585 0 1.02.24c.29.16.52.4.68.75.16.34.24.79.23 1.34v.24h-.8Zm0 2.56v-2.56h.8v2.56z" fill="#fffdf0"/>
        <path d="M222.7 46.53c-.59 0-1.04-.13-1.38-.41-.33-.27-.5-.64-.5-1.12 0-.51.17-.89.5-1.17.34-.27.81-.41 1.42-.41h1.43v.67h-1.25c-.47 0-.8.08-1 .23s-.29.37-.29.66c0 .26.1.46.29.62.19.15.46.22.81.22q.435 0 .75-.18c.21-.12.38-.3.5-.53s.17-.5.17-.82h.34c0 .68-.15 1.22-.46 1.62s-.75.61-1.34.61Zm1.5-.12-.04-.82v-1.82c0-.39-.04-.72-.13-.98s-.22-.45-.41-.58-.43-.2-.73-.2c-.27 0-.51.06-.71.17s-.36.29-.48.53l-.72-.28c.13-.23.28-.43.46-.6q.27-.255.63-.39c.24-.09.51-.13.82-.13.47 0 .85.09 1.16.28s.53.45.68.81.23.8.22 1.33v2.71h-.75Z" fill="#fffdf0"/>
        <path d="M227.97 46.53c-.37 0-.69-.05-.96-.17s-.5-.25-.69-.44c-.18-.18-.31-.38-.39-.59l.7-.29c.11.23.28.41.51.55q.345.21.75.21c.31 0 .58-.06.79-.19.21-.12.32-.3.32-.52 0-.21-.08-.37-.24-.5s-.39-.23-.7-.31l-.48-.13c-.45-.12-.81-.3-1.06-.54s-.38-.52-.38-.83c0-.47.16-.84.46-1.1.31-.26.77-.4 1.39-.4.29 0 .56.04.8.13s.45.21.62.37.3.34.38.55l-.7.31a.87.87 0 0 0-.43-.49c-.2-.1-.44-.15-.73-.15-.31 0-.55.07-.72.2s-.26.31-.26.54c0 .13.07.26.21.38s.35.21.63.29l.5.13c.33.08.6.2.82.36s.39.33.5.53.17.41.17.64q0 .45-.24.78c-.16.22-.38.39-.65.5-.27.12-.59.17-.94.17Z" fill="#fffdf0"/>
        <path d="m230.58 47.56.57-2.11h.9l-.78 2.11z" fill="#fffdf0"/>
        <path d="M235.19 42.1v-.69h3.17v.69zm.92 4.31v-5.57c0-.52.12-.91.37-1.17q.36-.39 1.11-.39c.13 0 .28.02.45.07s.34.11.53.2l-.3.63c-.15-.06-.28-.11-.39-.14s-.2-.05-.27-.05c-.23 0-.41.07-.53.22s-.17.38-.17.7v5.51h-.8Z" fill="#fffdf0"/>
        <path d="M239.3 46.41v-5h.8v5zm.44-2.71c0-.54.1-.98.31-1.32s.47-.59.79-.75.67-.24 1.02-.24v.75c-.29 0-.57.05-.84.14-.27.1-.49.25-.67.47-.17.22-.26.52-.26.9l-.36.04Z" fill="#fffdf0"/>
        <path d="M242.55 43.97v-2.56h.8v2.56zm.8 0c0 .49.06.87.17 1.13s.27.44.47.53q.3.15.69.15c.43 0 .77-.16 1.01-.47s.37-.75.37-1.31h.39c0 .53-.08.98-.23 1.36s-.38.67-.67.87-.65.3-1.07.3q-.585 0-1.02-.24c-.29-.16-.52-.41-.68-.75s-.24-.79-.24-1.33v-.24h.8Zm2.76 2.44-.05-.92v-4.08h.8v5z" fill="#fffdf0"/>
        <path d="M247.74 42.12v-.71h3.17v.71zm2.4 4.41c-.49 0-.86-.13-1.13-.38s-.4-.61-.4-1.07v-5.23h.8V45c0 .25.07.45.21.58s.33.21.58.21c.08 0 .16-.01.24-.04.08-.02.18-.08.3-.17l.31.65c-.17.11-.33.19-.47.23s-.28.07-.43.07Z" fill="#fffdf0"/>
        <path d="M253.59 46.53c-.59 0-1.04-.13-1.38-.41-.33-.27-.5-.64-.5-1.12 0-.51.17-.89.5-1.17.34-.27.81-.41 1.42-.41h1.43v.67h-1.25c-.47 0-.8.08-1 .23s-.29.37-.29.66c0 .26.1.46.29.62.19.15.46.22.81.22q.435 0 .75-.18c.21-.12.38-.3.5-.53s.17-.5.17-.82h.34c0 .68-.15 1.22-.46 1.62s-.75.61-1.34.61Zm1.5-.12-.04-.82v-1.82c0-.39-.04-.72-.13-.98s-.22-.45-.41-.58-.43-.2-.73-.2c-.27 0-.51.06-.71.17s-.36.29-.48.53l-.72-.28c.13-.23.28-.43.46-.6q.27-.255.63-.39c.24-.09.51-.13.82-.13.47 0 .85.09 1.16.28s.53.45.68.81.23.8.22 1.33v2.71h-.75Z" fill="#fffdf0"/>
        <path d="M258.86 46.53c-.37 0-.69-.05-.96-.17s-.5-.25-.69-.44c-.18-.18-.31-.38-.39-.59l.7-.29c.11.23.28.41.51.55q.345.21.75.21c.31 0 .58-.06.79-.19.21-.12.32-.3.32-.52 0-.21-.08-.37-.24-.5s-.39-.23-.7-.31l-.48-.13c-.45-.12-.81-.3-1.06-.54s-.38-.52-.38-.83c0-.47.16-.84.46-1.1.31-.26.77-.4 1.39-.4.29 0 .56.04.8.13s.45.21.62.37.3.34.38.55l-.7.31a.87.87 0 0 0-.43-.49c-.2-.1-.44-.15-.73-.15-.31 0-.55.07-.72.2s-.26.31-.26.54c0 .13.07.26.21.38s.35.21.63.29l.5.13c.33.08.6.2.82.36s.39.33.5.53.17.41.17.64q0 .45-.24.78c-.16.22-.38.39-.65.5-.27.12-.59.17-.94.17Z" fill="#fffdf0"/>
        <path d="M92.51 58.03q-.735 0-1.29-.33c-.37-.22-.67-.53-.88-.92s-.31-.85-.31-1.36.1-.97.31-1.36.5-.7.87-.92.79-.33 1.28-.33.87.12 1.21.34c.34.23.6.55.79.97.19.41.28.9.28 1.46h-4.13l.2-.17c0 .4.07.74.21 1.03s.35.5.61.66.56.22.89.22c.35 0 .65-.08.9-.25.24-.17.43-.39.56-.66l.69.35c-.13.26-.29.49-.5.68s-.46.34-.74.45-.6.16-.95.16Zm-1.62-2.98-.21-.16h3.45l-.21.17c0-.32-.06-.6-.19-.83q-.195-.345-.51-.54c-.21-.13-.46-.19-.74-.19s-.53.06-.78.19c-.24.13-.44.3-.59.54-.15.23-.23.5-.23.82Z" fill="#fffdf0"/>
        <path d="m99.73 57.91-2.09-5h.83l2.04 5zm.05 0 2.04-5h.84l-2.09 5z" fill="#fffdf0"/>
        <path d="M105.52 58.03q-.735 0-1.29-.33c-.37-.22-.67-.53-.88-.92s-.31-.85-.31-1.36.1-.97.31-1.36.5-.7.87-.92.79-.33 1.28-.33.87.12 1.21.34c.34.23.6.55.79.97.19.41.28.9.28 1.46h-4.13l.2-.17c0 .4.07.74.21 1.03s.35.5.61.66.56.22.89.22c.35 0 .65-.08.9-.25.24-.17.43-.39.56-.66l.69.35c-.13.26-.29.49-.5.68s-.46.34-.74.45-.6.16-.95.16Zm-1.62-2.98-.21-.16h3.45l-.21.17c0-.32-.06-.6-.19-.83q-.195-.345-.51-.54c-.21-.13-.46-.19-.74-.19s-.53.06-.78.19c-.24.13-.44.3-.59.54-.15.23-.23.5-.23.82Z" fill="#fffdf0"/>
        <path d="M110.76 57.87c-.45 0-.84-.11-1.18-.32s-.61-.51-.79-.89c-.19-.38-.29-.82-.29-1.32s.09-.95.29-1.33c.19-.38.46-.68.79-.89.34-.21.73-.32 1.18-.32.42 0 .79.11 1.1.32s.56.51.74.89.26.83.26 1.33-.09.94-.26 1.32-.42.68-.74.89c-.31.21-.68.32-1.1.32m.03 2.16c-.32 0-.61-.03-.88-.09-.26-.06-.49-.13-.67-.21s-.32-.14-.4-.2l.3-.65c.09.05.21.11.37.17q.24.105.57.18c.33.075.45.08.7.08.32 0 .61-.07.86-.2s.46-.33.6-.61.21-.63.21-1.06v-4.53h.8v4.52c0 .57-.11 1.05-.32 1.44s-.51.68-.88.87-.8.29-1.27.29Zm.16-2.85q.435 0 .78-.24c.345-.24.4-.38.53-.66s.19-.6.19-.96-.07-.67-.2-.95-.31-.49-.53-.65-.48-.24-.79-.24-.59.08-.83.24-.43.37-.57.65-.21.59-.21.95.07.69.21.96c.14.28.33.5.58.66.24.16.52.24.83.24Z" fill="#fffdf0"/>
        <path d="M116.85 58.03q-.735 0-1.29-.33c-.37-.22-.67-.53-.88-.92s-.31-.85-.31-1.36.1-.97.31-1.36.5-.7.87-.92.79-.33 1.28-.33.87.12 1.21.34c.34.23.6.55.79.97.19.41.28.9.28 1.46h-4.13l.2-.17c0 .4.07.74.21 1.03s.35.5.61.66.56.22.89.22c.35 0 .65-.08.9-.25.24-.17.43-.39.56-.66l.69.35c-.13.26-.29.49-.5.68s-.46.34-.74.45-.6.16-.95.16Zm-1.62-2.98-.21-.16h3.45l-.21.17c0-.32-.06-.6-.19-.83q-.195-.345-.51-.54c-.21-.13-.46-.19-.74-.19s-.53.06-.78.19c-.24.13-.44.3-.59.54-.15.23-.23.5-.23.82Z" fill="#fffdf0"/>
        <path d="M119.6 53.62v-.71h3.17v.71zm2.4 4.41c-.49 0-.86-.13-1.13-.38s-.4-.61-.4-1.07v-5.23h.8v5.15c0 .25.07.45.21.58s.33.21.58.21c.08 0 .16-.01.24-.04.08-.02.18-.08.3-.17l.31.65c-.17.11-.33.19-.47.23s-.28.07-.43.07Z" fill="#fffdf0"/>
        <path d="M125.45 58.03c-.59 0-1.04-.13-1.38-.41-.33-.27-.5-.64-.5-1.12 0-.51.17-.89.5-1.17.34-.27.81-.41 1.42-.41h1.43v.67h-1.25c-.47 0-.8.08-1 .23s-.29.37-.29.66c0 .26.1.46.29.62.19.15.46.22.81.22q.435 0 .75-.18c.21-.12.38-.3.5-.53s.17-.5.17-.82h.34c0 .68-.15 1.22-.46 1.62s-.75.61-1.34.61Zm1.5-.12-.04-.82v-1.82c0-.39-.04-.72-.13-.98s-.22-.45-.41-.58-.43-.2-.73-.2c-.27 0-.51.06-.71.17s-.36.29-.48.53l-.72-.28c.13-.23.28-.43.46-.6q.27-.255.63-.39c.24-.09.51-.13.82-.13.47 0 .85.09 1.16.28s.53.45.68.81.23.8.22 1.33v2.71h-.75Z" fill="#fffdf0"/>
        <path d="M129.43 51.75c-.13 0-.25-.05-.35-.15a.485.485 0 0 1 0-.7.485.485 0 0 1 .7 0c.09.1.15.21.15.35s-.05.25-.15.35-.21.15-.35.15m-.41 6.16v-5h.8v5z" fill="#fffdf0"/>
        <path d="M133.04 58.03c-.37 0-.69-.05-.96-.17s-.5-.25-.69-.44c-.18-.18-.31-.38-.39-.59l.7-.29c.11.23.28.41.51.55q.345.21.75.21c.31 0 .58-.06.79-.19.21-.12.32-.3.32-.52 0-.21-.08-.37-.24-.5s-.39-.23-.7-.31l-.48-.13c-.45-.12-.81-.3-1.06-.54s-.38-.52-.38-.83c0-.47.16-.84.46-1.1.31-.26.77-.4 1.39-.4.29 0 .56.04.8.13s.45.21.62.37.3.34.38.55l-.7.31a.87.87 0 0 0-.43-.49c-.2-.1-.44-.15-.73-.15-.31 0-.55.07-.72.2s-.26.31-.26.54c0 .13.07.26.21.38s.35.21.63.29l.5.13c.33.08.6.2.82.36s.39.33.5.53.17.41.17.64q0 .45-.24.78c-.16.22-.38.39-.65.5-.27.12-.59.17-.94.17Z" fill="#fffdf0"/>
        <path d="M140.64 58.03c-.49 0-.93-.11-1.3-.33-.38-.22-.67-.53-.88-.92s-.32-.85-.32-1.36.1-.97.31-1.36.5-.7.88-.92q.57-.33 1.29-.33c.72 0 .92.11 1.29.33.38.22.67.53.88.92s.31.85.31 1.36-.1.97-.31 1.36-.5.7-.88.92c-.37.22-.8.33-1.28.33Zm-.01-.74q.495 0 .87-.24c.25-.16.45-.38.59-.67.14-.28.21-.61.21-.97s-.07-.69-.21-.97-.34-.51-.6-.67c-.25-.16-.55-.24-.88-.24s-.61.08-.86.24-.45.38-.59.66-.21.61-.21.98.07.69.21.97.34.51.6.67.55.24.88.24Z" fill="#fffdf0"/>
        <path d="M143.8 53.6v-.69h3.17v.69zm.92 4.31v-5.57c0-.52.12-.91.37-1.17q.36-.39 1.11-.39c.13 0 .28.02.45.07s.34.11.53.2l-.3.63c-.15-.06-.28-.11-.39-.14s-.2-.05-.27-.05c-.23 0-.41.07-.53.22s-.17.38-.17.7v5.51h-.8Z" fill="#fffdf0"/>
        <path d="M150.07 58.03q-.735 0-1.29-.33c-.37-.22-.67-.53-.88-.92s-.31-.85-.31-1.36.1-.97.31-1.36.5-.7.87-.92.79-.33 1.28-.33.87.12 1.21.34c.34.23.6.55.79.97.19.41.28.9.28 1.46h-4.13l.2-.17c0 .4.07.74.21 1.03s.35.5.61.66.56.22.89.22c.35 0 .65-.08.9-.25.24-.17.43-.39.56-.66l.69.35c-.13.26-.29.49-.5.68s-.46.34-.74.45-.6.16-.95.16Zm-1.62-2.98-.21-.16h3.45l-.21.17c0-.32-.06-.6-.19-.83q-.195-.345-.51-.54c-.21-.13-.46-.19-.74-.19s-.53.06-.78.19c-.24.13-.44.3-.59.54-.15.23-.23.5-.23.82Z" fill="#fffdf0"/>
        <path d="M153.34 57.91v-5h.8v5zm.44-2.71c0-.54.1-.98.31-1.32s.47-.59.79-.75.67-.24 1.02-.24v.75c-.29 0-.57.05-.84.14-.27.1-.49.25-.67.47-.17.22-.26.52-.26.9l-.36.04Z" fill="#fffdf0"/>
        <path d="M158.91 58.03q-.735 0-1.29-.33c-.37-.22-.67-.53-.88-.92s-.31-.85-.31-1.36.1-.97.31-1.36.5-.7.87-.92.79-.33 1.28-.33.87.12 1.21.34c.34.23.6.55.79.97.19.41.28.9.28 1.46h-4.13l.2-.17c0 .4.07.74.21 1.03s.35.5.61.66.56.22.89.22c.35 0 .65-.08.9-.25.24-.17.43-.39.56-.66l.69.35c-.13.26-.29.49-.5.68s-.46.34-.74.45-.6.16-.95.16Zm-1.62-2.98-.21-.16h3.45l-.21.17c0-.32-.06-.6-.19-.83q-.195-.345-.51-.54c-.21-.13-.46-.19-.74-.19s-.53.06-.78.19c-.24.13-.44.3-.59.54-.15.23-.23.5-.23.82Z" fill="#fffdf0"/>
        <path d="M164.41 58.03c-.49 0-.93-.11-1.31-.33s-.68-.53-.89-.92-.32-.85-.32-1.36.1-.97.31-1.36.51-.7.89-.92.81-.33 1.3-.33.91.11 1.29.33.67.53.87.93l-.73.33c-.13-.27-.33-.47-.58-.62s-.54-.22-.87-.22-.61.08-.86.24-.45.38-.59.67c-.14.28-.21.61-.21.97s.07.69.21.97.34.51.6.67.55.24.88.24.62-.08.88-.25.45-.4.58-.7l.73.33c-.2.43-.49.76-.87 1s-.81.36-1.3.36Z" fill="#fffdf0"/>
        <path d="M169.78 58.03q-.735 0-1.29-.33c-.37-.22-.67-.53-.88-.92s-.31-.85-.31-1.36.1-.97.31-1.36.5-.7.87-.92.79-.33 1.28-.33.87.12 1.21.34c.34.23.6.55.79.97.19.41.28.9.28 1.46h-4.13l.2-.17c0 .4.07.74.21 1.03s.35.5.61.66.56.22.89.22c.35 0 .65-.08.9-.25.24-.17.43-.39.56-.66l.69.35c-.13.26-.29.49-.5.68s-.46.34-.74.45-.6.16-.95.16Zm-1.62-2.98-.21-.16h3.45l-.21.17c0-.32-.06-.6-.19-.83q-.195-.345-.51-.54c-.21-.13-.46-.19-.74-.19s-.53.06-.78.19c-.24.13-.44.3-.59.54-.15.23-.23.5-.23.82Z" fill="#fffdf0"/>
        <path d="M175.52 57.91v-5h.75l.05.92v4.08zm3.51-2.56c0-.49-.06-.87-.17-1.13s-.27-.44-.47-.53c-.2-.1-.43-.15-.68-.15-.44 0-.78.16-1.02.46-.24.31-.37.75-.37 1.32h-.39c0-.53.08-.98.23-1.36s.38-.67.67-.87.65-.3 1.06-.3q.585 0 1.02.24c.29.16.52.4.68.75.16.34.24.79.23 1.34v.24h-.8Zm0 2.56v-2.56h.8v2.56z" fill="#fffdf0"/>
        <path d="M180.97 55.47v-2.56h.8v2.56zm.8 0c0 .49.06.87.17 1.13s.27.44.47.53q.3.15.69.15c.43 0 .77-.16 1.01-.47s.37-.75.37-1.31h.39c0 .53-.08.98-.23 1.36s-.38.67-.67.87-.65.3-1.07.3q-.585 0-1.02-.24c-.29-.16-.52-.41-.68-.75s-.24-.79-.24-1.33v-.24h.8Zm2.76 2.44-.05-.92v-4.08h.8v5z" fill="#fffdf0"/>
        <path d="M186.16 53.62v-.71h3.17v.71zm2.4 4.41c-.49 0-.86-.13-1.13-.38s-.4-.61-.4-1.07v-5.23h.8v5.15c0 .25.07.45.21.58s.33.21.58.21c.08 0 .16-.01.24-.04.08-.02.18-.08.3-.17l.31.65c-.17.11-.33.19-.47.23s-.28.07-.43.07Z" fill="#fffdf0"/>
        <path d="M190.46 57.91v-5h.8v5zm.44-2.71c0-.54.1-.98.31-1.32s.47-.59.79-.75.67-.24 1.02-.24v.75c-.29 0-.57.05-.84.14-.27.1-.49.25-.67.47-.17.22-.26.52-.26.9l-.36.04Z" fill="#fffdf0"/>
        <path d="M194.3 51.75c-.13 0-.25-.05-.35-.15a.485.485 0 0 1 0-.7.485.485 0 0 1 .7 0c.09.1.15.21.15.35s-.05.25-.15.35-.21.15-.35.15m-.41 6.16v-5h.8v5z" fill="#fffdf0"/>
        <path d="M198.35 58.03q-.735 0-1.29-.33c-.37-.22-.67-.53-.88-.92s-.31-.85-.31-1.36.1-.97.31-1.36.5-.7.87-.92.79-.33 1.28-.33.87.12 1.21.34c.34.23.6.55.79.97.19.41.28.9.28 1.46h-4.13l.2-.17c0 .4.07.74.21 1.03s.35.5.61.66.56.22.89.22c.35 0 .65-.08.9-.25.24-.17.43-.39.56-.66l.69.35c-.13.26-.29.49-.5.68s-.46.34-.74.45-.6.16-.95.16Zm-1.62-2.98-.21-.16h3.45l-.21.17c0-.32-.06-.6-.19-.83q-.195-.345-.51-.54c-.21-.13-.46-.19-.74-.19s-.53.06-.78.19c-.24.13-.44.3-.59.54-.15.23-.23.5-.23.82Z" fill="#fffdf0"/>
        <path d="M201.62 57.91v-5h.75l.05.92v4.08zm3.51-2.56c0-.49-.06-.87-.17-1.13s-.27-.44-.47-.53c-.2-.1-.43-.15-.68-.15-.44 0-.78.16-1.02.46-.24.31-.37.75-.37 1.32h-.39c0-.53.08-.98.23-1.36s.38-.67.67-.87.65-.3 1.06-.3q.585 0 1.02.24c.29.16.52.4.68.75.16.34.24.79.23 1.34v.24h-.8Zm0 2.56v-2.56h.8v2.56z" fill="#fffdf0"/>
        <path d="M206.68 53.62v-.71h3.17v.71zm2.4 4.41c-.49 0-.86-.13-1.13-.38s-.4-.61-.4-1.07v-5.23h.8v5.15c0 .25.07.45.21.58s.33.21.58.21c.08 0 .16-.01.24-.04.08-.02.18-.08.3-.17l.31.65c-.17.11-.33.19-.47.23s-.28.07-.43.07Z" fill="#fffdf0"/>
        <path d="M213.14 58.03q-.735 0-1.29-.33c-.37-.22-.67-.53-.88-.92s-.31-.85-.31-1.36.1-.97.31-1.36.5-.7.87-.92.79-.33 1.28-.33.87.12 1.21.34c.34.23.6.55.79.97.19.41.28.9.28 1.46h-4.13l.2-.17c0 .4.07.74.21 1.03s.35.5.61.66.56.22.89.22c.35 0 .65-.08.9-.25.24-.17.43-.39.56-.66l.69.35c-.13.26-.29.49-.5.68s-.46.34-.74.45-.6.16-.95.16Zm-1.62-2.98-.21-.16h3.45l-.21.17c0-.32-.06-.6-.19-.83q-.195-.345-.51-.54c-.21-.13-.46-.19-.74-.19s-.53.06-.78.19c-.24.13-.44.3-.59.54-.15.23-.23.5-.23.82Z" fill="#fffdf0"/>
        <path d="M218.16 58.03c-.37 0-.69-.05-.96-.17s-.5-.25-.69-.44c-.18-.18-.31-.38-.39-.59l.7-.29c.11.23.28.41.51.55q.345.21.75.21c.31 0 .58-.06.79-.19.21-.12.32-.3.32-.52 0-.21-.08-.37-.24-.5s-.39-.23-.7-.31l-.48-.13c-.45-.12-.81-.3-1.06-.54s-.38-.52-.38-.83c0-.47.16-.84.46-1.1.31-.26.77-.4 1.39-.4.29 0 .56.04.8.13s.45.21.62.37.3.34.38.55l-.7.31a.87.87 0 0 0-.43-.49c-.2-.1-.44-.15-.73-.15-.31 0-.55.07-.72.2s-.26.31-.26.54c0 .13.07.26.21.38s.35.21.63.29l.5.13c.33.08.6.2.82.36s.39.33.5.53.17.41.17.64q0 .45-.24.78c-.16.22-.38.39-.65.5-.27.12-.59.17-.94.17Z" fill="#fffdf0"/>
        <path d="M225.73 58.03q-.735 0-1.29-.33c-.37-.22-.67-.53-.88-.92s-.31-.85-.31-1.36.1-.97.31-1.36.5-.7.87-.92.79-.33 1.28-.33.87.12 1.21.34c.34.23.6.55.79.97.19.41.28.9.28 1.46h-4.13l.2-.17c0 .4.07.74.21 1.03s.35.5.61.66.56.22.89.22c.35 0 .65-.08.9-.25.24-.17.43-.39.56-.66l.69.35c-.13.26-.29.49-.5.68s-.46.34-.74.45-.6.16-.95.16Zm-1.62-2.98-.21-.16h3.45l-.21.17c0-.32-.06-.6-.19-.83q-.195-.345-.51-.54c-.21-.13-.46-.19-.74-.19s-.53.06-.78.19c-.24.13-.44.3-.59.54-.15.23-.23.5-.23.82Z" fill="#fffdf0"/>
        <path d="M230.75 58.03c-.37 0-.69-.05-.96-.17s-.5-.25-.69-.44c-.18-.18-.31-.38-.39-.59l.7-.29c.11.23.28.41.51.55q.345.21.75.21c.31 0 .58-.06.79-.19.21-.12.32-.3.32-.52 0-.21-.08-.37-.24-.5s-.39-.23-.7-.31l-.48-.13c-.45-.12-.81-.3-1.06-.54s-.38-.52-.38-.83c0-.47.16-.84.46-1.1.31-.26.77-.4 1.39-.4.29 0 .56.04.8.13s.45.21.62.37.3.34.38.55l-.7.31a.87.87 0 0 0-.43-.49c-.2-.1-.44-.15-.73-.15-.31 0-.55.07-.72.2s-.26.31-.26.54c0 .13.07.26.21.38s.35.21.63.29l.5.13c.33.08.6.2.82.36s.39.33.5.53.17.41.17.64q0 .45-.24.78c-.16.22-.38.39-.65.5-.27.12-.59.17-.94.17Z" fill="#fffdf0"/>
        <path d="M235.41 58.03c-.37 0-.69-.05-.96-.17s-.5-.25-.69-.44c-.18-.18-.31-.38-.39-.59l.7-.29c.11.23.28.41.51.55q.345.21.75.21c.31 0 .58-.06.79-.19.21-.12.32-.3.32-.52 0-.21-.08-.37-.24-.5s-.39-.23-.7-.31l-.48-.13c-.45-.12-.81-.3-1.06-.54s-.38-.52-.38-.83c0-.47.16-.84.46-1.1.31-.26.77-.4 1.39-.4.29 0 .56.04.8.13s.45.21.62.37.3.34.38.55l-.7.31a.87.87 0 0 0-.43-.49c-.2-.1-.44-.15-.73-.15-.31 0-.55.07-.72.2s-.26.31-.26.54c0 .13.07.26.21.38s.35.21.63.29l.5.13c.33.08.6.2.82.36s.39.33.5.53.17.41.17.64q0 .45-.24.78c-.16.22-.38.39-.65.5-.27.12-.59.17-.94.17Z" fill="#fffdf0"/>
        <path d="M240.51 58.03q-.735 0-1.29-.33c-.37-.22-.67-.53-.88-.92s-.31-.85-.31-1.36.1-.97.31-1.36.5-.7.87-.92.79-.33 1.28-.33.87.12 1.21.34c.34.23.6.55.79.97.19.41.28.9.28 1.46h-4.13l.2-.17c0 .4.07.74.21 1.03s.35.5.61.66.56.22.89.22c.35 0 .65-.08.9-.25.24-.17.43-.39.56-.66l.69.35c-.13.26-.29.49-.5.68s-.46.34-.74.45-.6.16-.95.16Zm-1.62-2.98-.21-.16h3.45l-.21.17c0-.32-.06-.6-.19-.83q-.195-.345-.51-.54c-.21-.13-.46-.19-.74-.19s-.53.06-.78.19c-.24.13-.44.3-.59.54-.15.23-.23.5-.23.82Z" fill="#fffdf0"/>
        <path d="M243.78 57.91v-5h.75l.05.92v4.08zm3.51-2.56c0-.49-.06-.87-.17-1.13s-.27-.44-.47-.53c-.2-.1-.43-.15-.68-.15-.44 0-.78.16-1.02.46-.24.31-.37.75-.37 1.32h-.39c0-.53.08-.98.23-1.36s.38-.67.67-.87.65-.3 1.06-.3q.585 0 1.02.24c.29.16.52.4.68.75.16.34.24.79.23 1.34v.24h-.8Zm0 2.56v-2.56h.8v2.56z" fill="#fffdf0"/>
        <path d="M251.59 58.03c-.49 0-.93-.11-1.31-.33s-.68-.53-.89-.92-.32-.85-.32-1.36.1-.97.31-1.36.51-.7.89-.92.81-.33 1.3-.33.91.11 1.29.33.67.53.87.93l-.73.33c-.13-.27-.33-.47-.58-.62s-.54-.22-.87-.22-.61.08-.86.24-.45.38-.59.67c-.14.28-.21.61-.21.97s.07.69.21.97.34.51.6.67.55.24.88.24.62-.08.88-.25.45-.4.58-.7l.73.33c-.2.43-.49.76-.87 1s-.81.36-1.3.36Z" fill="#fffdf0"/>
        <path d="M255.23 51.75c-.13 0-.25-.05-.35-.15a.485.485 0 0 1 0-.7.485.485 0 0 1 .7 0c.09.1.15.21.15.35s-.05.25-.15.35-.21.15-.35.15m-.41 6.16v-5h.8v5z" fill="#fffdf0"/>
        <path d="M258.67 58.03c-.59 0-1.04-.13-1.38-.41-.33-.27-.5-.64-.5-1.12 0-.51.17-.89.5-1.17.34-.27.81-.41 1.42-.41h1.43v.67h-1.25c-.47 0-.8.08-1 .23s-.29.37-.29.66c0 .26.1.46.29.62.19.15.46.22.81.22q.435 0 .75-.18c.21-.12.38-.3.5-.53s.17-.5.17-.82h.34c0 .68-.15 1.22-.46 1.62s-.75.61-1.34.61Zm1.5-.12-.04-.82v-1.82c0-.39-.04-.72-.13-.98s-.22-.45-.41-.58-.43-.2-.73-.2c-.27 0-.51.06-.71.17s-.36.29-.48.53l-.72-.28c.13-.23.28-.43.46-.6q.27-.255.63-.39c.24-.09.51-.13.82-.13.47 0 .85.09 1.16.28s.53.45.68.81.23.8.22 1.33v2.71h-.75Z" fill="#fffdf0"/>
        <path d="M262.65 51.75c-.13 0-.25-.05-.35-.15a.485.485 0 0 1 0-.7.485.485 0 0 1 .7 0c.09.1.15.21.15.35s-.05.25-.15.35-.21.15-.35.15m-.41 6.16v-5h.8v5z" fill="#fffdf0"/>
        <path d="M266.26 58.03c-.37 0-.69-.05-.96-.17s-.5-.25-.69-.44c-.18-.18-.31-.38-.39-.59l.7-.29c.11.23.28.41.51.55q.345.21.75.21c.31 0 .58-.06.79-.19.21-.12.32-.3.32-.52 0-.21-.08-.37-.24-.5s-.39-.23-.7-.31l-.48-.13c-.45-.12-.81-.3-1.06-.54s-.38-.52-.38-.83c0-.47.16-.84.46-1.1.31-.26.77-.4 1.39-.4.29 0 .56.04.8.13s.45.21.62.37.3.34.38.55l-.7.31a.87.87 0 0 0-.43-.49c-.2-.1-.44-.15-.73-.15-.31 0-.55.07-.72.2s-.26.31-.26.54c0 .13.07.26.21.38s.35.21.63.29l.5.13c.33.08.6.2.82.36s.39.33.5.53.17.41.17.64q0 .45-.24.78c-.16.22-.38.39-.65.5-.27.12-.59.17-.94.17Z" fill="#fffdf0"/>
        <path d="M90.37 71.41v-7h.75l.05.92v6.08zm2.49-1.88q-.63 0-1.11-.33c-.48-.33-.56-.53-.73-.92-.17-.4-.26-.85-.26-1.37s.09-.98.26-1.37.42-.7.73-.92.69-.33 1.11-.33c.45 0 .84.11 1.18.33s.61.53.79.92c.19.39.29.85.29 1.37s-.09.97-.29 1.37c-.19.4-.46.71-.79.92s-.73.33-1.18.33m-.18-.73c.31 0 .59-.08.83-.24s.44-.38.58-.67c.14-.28.22-.61.22-.99s-.07-.69-.21-.98-.33-.51-.57-.67-.53-.24-.84-.24c-.29 0-.56.08-.79.24s-.41.38-.54.67c-.13.28-.2.61-.2.99s.07.69.2.98.31.51.54.67q.345.24.78.24" fill="#fffdf0"/>
        <path d="M97.81 69.53c-.59 0-1.04-.13-1.38-.41-.33-.27-.5-.64-.5-1.12 0-.51.17-.89.5-1.17.34-.27.81-.41 1.42-.41h1.43v.67h-1.25c-.47 0-.8.08-1 .23s-.29.37-.29.66c0 .26.1.46.29.62.19.15.46.22.81.22q.435 0 .75-.18c.21-.12.38-.3.5-.53s.17-.5.17-.82h.34c0 .68-.15 1.22-.46 1.62s-.75.61-1.34.61Zm1.5-.12-.04-.82v-1.82c0-.39-.04-.72-.13-.98s-.22-.45-.41-.58-.43-.2-.73-.2c-.27 0-.51.06-.71.17s-.36.29-.48.53l-.72-.28c.13-.23.28-.43.46-.6q.27-.255.63-.39c.24-.09.51-.13.82-.13.47 0 .85.09 1.16.28s.53.45.68.81.23.8.22 1.33v2.71h-.75Z" fill="#fffdf0"/>
        <path d="M101.33 69.41v-5h.8v5zm.44-2.71c0-.54.1-.98.31-1.32s.47-.59.79-.75.67-.24 1.02-.24v.75c-.29 0-.57.05-.84.14-.27.1-.49.25-.67.47-.17.22-.26.52-.26.9l-.36.04Z" fill="#fffdf0"/>
        <path d="M106.29 69.53c-.59 0-1.04-.13-1.38-.41-.33-.27-.5-.64-.5-1.12 0-.51.17-.89.5-1.17.34-.27.81-.41 1.42-.41h1.43v.67h-1.25c-.47 0-.8.08-1 .23s-.29.37-.29.66c0 .26.1.46.29.62.19.15.46.22.81.22q.435 0 .75-.18c.21-.12.38-.3.5-.53s.17-.5.17-.82h.34c0 .68-.15 1.22-.46 1.62s-.75.61-1.34.61Zm1.5-.12-.04-.82v-1.82c0-.39-.04-.72-.13-.98s-.22-.45-.41-.58-.43-.2-.73-.2c-.27 0-.51.06-.71.17s-.36.29-.48.53l-.72-.28c.13-.23.28-.43.46-.6q.27-.255.63-.39c.24-.09.51-.13.82-.13.47 0 .85.09 1.16.28s.53.45.68.81.23.8.22 1.33v2.71h-.75Z" fill="#fffdf0"/>
        <path d="M112.15 66.97v-2.56h.8v2.56zm.8 0c0 .49.06.87.17 1.13s.27.44.47.53q.3.15.69.15c.43 0 .77-.16 1.01-.47s.37-.75.37-1.31h.39c0 .53-.08.98-.23 1.36s-.38.67-.67.87-.65.3-1.07.3q-.585 0-1.02-.24c-.29-.16-.52-.41-.68-.75s-.24-.79-.24-1.33v-.24h.8Zm2.76 2.44-.05-.92v-4.08h.8v5z" fill="#fffdf0"/>
        <path d="M117.86 69.41v-5h.75l.04.7c.15-.27.35-.47.59-.61q.36-.21.84-.21c.4 0 .74.09 1.03.28.28.19.49.47.61.85.14-.37.35-.65.62-.84s.59-.29.96-.29c.56 0 1 .19 1.33.56.32.37.48.94.48 1.7v2.86h-.8v-2.56c0-.49-.05-.87-.15-1.13s-.24-.44-.42-.53q-.255-.15-.6-.15c-.39 0-.7.16-.92.46q-.33.465-.33 1.32v2.59h-.8v-2.56c0-.49-.05-.87-.16-1.13-.1-.26-.24-.44-.42-.53s-.38-.15-.6-.15c-.39 0-.69.16-.91.46q-.33.465-.33 1.32v2.59h-.8Z" fill="#fffdf0"/>
        <path d="M127.95 69.53c-.59 0-1.04-.13-1.38-.41-.33-.27-.5-.64-.5-1.12 0-.51.17-.89.5-1.17.34-.27.81-.41 1.42-.41h1.43v.67h-1.25c-.47 0-.8.08-1 .23s-.29.37-.29.66c0 .26.1.46.29.62.19.15.46.22.81.22q.435 0 .75-.18c.21-.12.38-.3.5-.53s.17-.5.17-.82h.34c0 .68-.15 1.22-.46 1.62s-.75.61-1.34.61Zm1.5-.12-.04-.82v-1.82c0-.39-.04-.72-.13-.98s-.22-.45-.41-.58-.43-.2-.73-.2c-.27 0-.51.06-.71.17s-.36.29-.48.53l-.72-.28c.13-.23.28-.43.46-.6q.27-.255.63-.39c.24-.09.51-.13.82-.13.47 0 .85.09 1.16.28s.53.45.68.81.23.8.22 1.33v2.71h-.75Z" fill="#fffdf0"/>
        <path d="M133.94 69.41v-5h.75l.05.92v4.08zm3.51-2.56c0-.49-.06-.87-.17-1.13s-.27-.44-.47-.53c-.2-.1-.43-.15-.68-.15-.44 0-.78.16-1.02.46-.24.31-.37.75-.37 1.32h-.39c0-.53.08-.98.23-1.36s.38-.67.67-.87.65-.3 1.06-.3q.585 0 1.02.24c.29.16.52.4.68.75.16.34.24.79.23 1.34v.24h-.8Zm0 2.56v-2.56h.8v2.56z" fill="#fffdf0"/>
        <path d="M139.39 66.97v-2.56h.8v2.56zm.8 0c0 .49.06.87.17 1.13s.27.44.47.53q.3.15.69.15c.43 0 .77-.16 1.01-.47s.37-.75.37-1.31h.39c0 .53-.08.98-.23 1.36s-.38.67-.67.87-.65.3-1.07.3q-.585 0-1.02-.24c-.29-.16-.52-.41-.68-.75s-.24-.79-.24-1.33v-.24h.8Zm2.76 2.44-.05-.92v-4.08h.8v5z" fill="#fffdf0"/>
        <path d="M144.58 65.12v-.71h3.17v.71zm2.4 4.41c-.49 0-.86-.13-1.13-.38s-.4-.61-.4-1.07v-5.23h.8V68c0 .25.07.45.21.58s.33.21.58.21c.08 0 .16-.01.24-.04.08-.02.18-.08.3-.17l.31.65c-.17.11-.33.19-.47.23s-.28.07-.43.07Z" fill="#fffdf0"/>
        <path d="M148.88 69.41v-5h.8v5zm.44-2.71c0-.54.1-.98.31-1.32s.47-.59.79-.75.67-.24 1.02-.24v.75c-.29 0-.57.05-.84.14-.27.1-.49.25-.67.47-.17.22-.26.52-.26.9l-.36.04Z" fill="#fffdf0"/>
        <path d="M152.72 63.25c-.13 0-.25-.05-.35-.15a.485.485 0 0 1 0-.7.485.485 0 0 1 .7 0c.1.1.15.21.15.35s-.05.25-.15.35-.21.15-.35.15m-.41 6.16v-5h.8v5z" fill="#fffdf0"/>
        <path d="M156.81 69.53c-.49 0-.93-.11-1.31-.33s-.68-.53-.89-.92-.32-.85-.32-1.36.1-.97.31-1.36.51-.7.89-.92.81-.33 1.3-.33.91.11 1.29.33.67.53.87.93l-.73.33c-.13-.27-.33-.47-.58-.62s-.54-.22-.87-.22-.61.08-.86.24-.45.38-.59.67c-.14.28-.21.61-.21.97s.07.69.21.97.34.51.6.67.55.24.88.24.62-.08.88-.25.45-.4.58-.7l.73.33c-.2.43-.49.76-.87 1s-.81.36-1.3.36Zm-.31 1.98c-.13 0-.27-.02-.42-.05s-.33-.11-.54-.22l.2-.48c.1.05.21.09.32.14.12.05.22.07.32.07.12 0 .23-.02.33-.07s.14-.14.14-.29a.44.44 0 0 0-.18-.38c-.12-.08-.32-.15-.58-.19l.3-.7.53.12-.11.26c.25.09.42.21.53.36.1.16.16.32.16.5q0 .39-.24.66c-.24.27-.41.26-.75.26Z" fill="#fffdf0"/>
        <path d="M161.57 69.53c-.59 0-1.04-.13-1.38-.41-.33-.27-.5-.64-.5-1.12 0-.51.17-.89.5-1.17.34-.27.81-.41 1.42-.41h1.43v.67h-1.25c-.47 0-.8.08-1 .23s-.29.37-.29.66c0 .26.1.46.29.62.19.15.46.22.81.22q.435 0 .75-.18c.21-.12.38-.3.5-.53s.17-.5.17-.82h.34c0 .68-.15 1.22-.46 1.62s-.75.61-1.34.61Zm1.5-.12-.04-.82v-1.82c0-.39-.04-.72-.13-.98s-.22-.45-.41-.58-.43-.2-.73-.2c-.27 0-.51.06-.71.17s-.36.29-.48.53l-.72-.28c.13-.23.28-.43.46-.6q.27-.255.63-.39c.24-.09.51-.13.82-.13.47 0 .85.09 1.16.28s.53.45.68.81.23.8.22 1.33v2.71h-.75Zm-.44-5.66c-.19 0-.35-.04-.47-.11s-.22-.16-.29-.25c-.08-.09-.15-.18-.21-.25-.07-.07-.14-.11-.23-.11-.11 0-.19.03-.25.08s-.1.16-.13.29h-.65c.02-.18.07-.35.16-.5s.2-.28.35-.38c.15-.09.32-.14.51-.14s.34.04.45.11.21.16.29.25.15.18.22.25.16.11.25.11c.11 0 .2-.03.25-.1s.09-.16.11-.28h.64c-.03.27-.13.5-.3.71s-.4.31-.7.31Z" fill="#fffdf0"/>
        <path d="M167.3 69.53c-.49 0-.93-.11-1.3-.33-.38-.22-.67-.53-.88-.92s-.32-.85-.32-1.36.1-.97.31-1.36.5-.7.88-.92q.57-.33 1.29-.33c.72 0 .92.11 1.29.33.38.22.67.53.88.92s.31.85.31 1.36-.1.97-.31 1.36-.5.7-.88.92c-.37.22-.8.33-1.28.33Zm-.01-.74q.495 0 .87-.24c.25-.16.45-.38.59-.67.14-.28.21-.61.21-.97s-.07-.69-.21-.97-.34-.51-.6-.67c-.25-.16-.55-.24-.88-.24s-.61.08-.86.24-.45.38-.59.66-.21.61-.21.98.07.69.21.97.34.51.6.67.55.24.88.24Z" fill="#fffdf0"/>
        <path d="M175.32 69.53c-.45 0-.84-.11-1.18-.33s-.61-.53-.79-.92c-.19-.4-.29-.85-.29-1.37s.09-.98.29-1.37c.19-.39.46-.7.79-.92s.73-.33 1.18-.33q.63 0 1.11.33c.32.22.56.53.73.92s.26.85.26 1.37-.09.97-.26 1.37-.42.71-.73.92q-.48.33-1.11.33m.18-.73q.435 0 .78-.24c.23-.16.41-.38.54-.67s.2-.61.2-.98-.07-.69-.2-.98-.31-.51-.54-.67-.49-.24-.79-.24-.59.08-.83.24-.43.38-.58.67c-.14.29-.21.61-.21.98s.07.69.21.98.33.51.58.67q.375.24.84.24m1.55.61-.04-.93v-6.07h.8v7z" fill="#fffdf0"/>
        <path d="M181.4 69.53q-.735 0-1.29-.33c-.37-.22-.67-.53-.88-.92s-.31-.85-.31-1.36.1-.97.31-1.36.5-.7.87-.92.79-.33 1.28-.33.87.12 1.21.34c.34.23.6.55.79.97.19.41.28.9.28 1.46h-4.13l.2-.17c0 .4.07.74.21 1.03s.35.5.61.66.56.22.89.22c.35 0 .65-.08.9-.25.24-.17.43-.39.56-.66l.69.35c-.13.26-.29.49-.5.68s-.46.34-.74.45-.6.16-.95.16Zm-1.62-2.98-.21-.16h3.45l-.21.17c0-.32-.06-.6-.19-.83q-.195-.345-.51-.54c-.21-.13-.46-.19-.74-.19s-.53.06-.78.19c-.24.13-.44.3-.59.54-.15.23-.23.5-.23.82Z" fill="#fffdf0"/>
        <path d="m188.62 69.41-2.09-5h.83l2.04 5zm.05 0 2.04-5h.84l-2.09 5z" fill="#fffdf0"/>
        <path d="M194.41 69.53q-.735 0-1.29-.33c-.37-.22-.67-.53-.88-.92s-.31-.85-.31-1.36.1-.97.31-1.36.5-.7.87-.92.79-.33 1.28-.33.87.12 1.21.34c.34.23.6.55.79.97.19.41.28.9.28 1.46h-4.13l.2-.17c0 .4.07.74.21 1.03s.35.5.61.66.56.22.89.22c.35 0 .65-.08.9-.25.24-.17.43-.39.56-.66l.69.35c-.13.26-.29.49-.5.68s-.46.34-.74.45-.6.16-.95.16Zm-1.62-2.98-.21-.16h3.45l-.21.17c0-.32-.06-.6-.19-.83q-.195-.345-.51-.54c-.21-.13-.46-.19-.74-.19s-.53.06-.78.19c-.24.13-.44.3-.59.54-.15.23-.23.5-.23.82Z" fill="#fffdf0"/>
        <path d="M197.68 69.41v-5h.8v5zm.44-2.71c0-.54.1-.98.31-1.32s.47-.59.79-.75.67-.24 1.02-.24v.75c-.29 0-.57.05-.84.14-.27.1-.49.25-.67.47-.17.22-.26.52-.26.9l-.36.04Z" fill="#fffdf0"/>
        <path d="M203.03 69.53c-.45 0-.84-.11-1.18-.33s-.61-.53-.79-.92c-.19-.4-.29-.85-.29-1.37s.09-.98.29-1.37c.19-.39.46-.7.79-.92s.73-.33 1.18-.33q.63 0 1.11.33c.32.22.56.53.73.92s.26.85.26 1.37-.09.97-.26 1.37-.42.71-.73.92q-.48.33-1.11.33m.18-.73q.435 0 .78-.24c.23-.16.41-.38.54-.67s.2-.61.2-.98-.07-.69-.2-.98-.31-.51-.54-.67-.49-.24-.79-.24-.59.08-.83.24-.43.38-.58.67c-.14.29-.21.61-.21.98s.07.69.21.98.33.51.58.67q.375.24.84.24m1.55.61-.04-.93v-6.07h.8v7z" fill="#fffdf0"/>
        <path d="M208.5 69.53c-.59 0-1.04-.13-1.38-.41-.33-.27-.5-.64-.5-1.12 0-.51.17-.89.5-1.17.34-.27.81-.41 1.42-.41h1.43v.67h-1.25c-.47 0-.8.08-1 .23s-.29.37-.29.66c0 .26.1.46.29.62.19.15.46.22.81.22q.435 0 .75-.18c.21-.12.38-.3.5-.53s.17-.5.17-.82h.34c0 .68-.15 1.22-.46 1.62s-.75.61-1.34.61Zm1.5-.12-.04-.82v-1.82c0-.39-.04-.72-.13-.98s-.22-.45-.41-.58-.43-.2-.73-.2c-.27 0-.51.06-.71.17s-.36.29-.48.53l-.72-.28c.13-.23.28-.43.46-.6q.27-.255.63-.39c.24-.09.51-.13.82-.13.47 0 .85.09 1.16.28s.53.45.68.81.23.8.22 1.33v2.71H210Z" fill="#fffdf0"/>
        <path d="M213.99 69.53c-.45 0-.84-.11-1.18-.33s-.61-.53-.79-.92c-.19-.4-.29-.85-.29-1.37s.09-.98.29-1.37c.19-.39.46-.7.79-.92s.73-.33 1.18-.33q.63 0 1.11.33c.32.22.56.53.73.92s.26.85.26 1.37-.09.97-.26 1.37-.42.71-.73.92q-.48.33-1.11.33m.18-.73q.435 0 .78-.24c.23-.16.41-.38.54-.67s.2-.61.2-.98-.07-.69-.2-.98-.31-.51-.54-.67-.49-.24-.79-.24-.59.08-.83.24-.43.38-.58.67c-.14.29-.21.61-.21.98s.07.69.21.98.33.51.58.67q.375.24.84.24m1.55.61-.04-.93v-6.07h.8v7z" fill="#fffdf0"/>
        <path d="M220.07 69.53q-.735 0-1.29-.33c-.37-.22-.67-.53-.88-.92s-.31-.85-.31-1.36.1-.97.31-1.36.5-.7.87-.92.79-.33 1.28-.33.87.12 1.21.34c.34.23.6.55.79.97.19.41.28.9.28 1.46h-4.13l.2-.17c0 .4.07.74.21 1.03s.35.5.61.66.56.22.89.22c.35 0 .65-.08.9-.25.24-.17.43-.39.56-.66l.69.35c-.13.26-.29.49-.5.68s-.46.34-.74.45-.6.16-.95.16Zm-1.62-2.98-.21-.16h3.45l-.21.17c0-.32-.06-.6-.19-.83q-.195-.345-.51-.54c-.21-.13-.46-.19-.74-.19s-.53.06-.78.19c-.24.13-.44.3-.59.54-.15.23-.23.5-.23.82Z" fill="#fffdf0"/>
        <path d="M223.68 69.55c-.15 0-.29-.05-.4-.17s-.16-.24-.16-.38.05-.29.16-.39.24-.17.4-.17.28.05.39.17c.11.11.16.24.16.39s-.05.28-.16.38c-.11.11-.24.17-.39.17" fill="#fffdf0"/>
    </g>
</svg>
