<?xml version="1.0" encoding="UTF-8"?>
<svg data-bbox="1.38 3.57 145.62 145.62" viewBox="0 0 150 150" xmlns="http://www.w3.org/2000/svg" data-type="color">
    <g>
        <path fill="#e2c69b" d="M147 76.38c0 40.212-32.598 72.81-72.81 72.81S1.38 116.592 1.38 76.38 33.978 3.57 74.19 3.57 147 36.168 147 76.38" data-color="1"/>
        <path d="M33.62 88.49c.24 0 .48-.24.7-.73.22-.48.34-1.28.34-2.39V64.21l-5.19 1.04v-6.33c1.42 0 2.95-.11 4.59-.34 1.64-.22 3.22-.5 4.75-.83s2.8-.63 3.84-.91v28.53c0 1.11.12 1.9.36 2.39s.49.73.73.73H33.63Z" fill="#803711" data-color="2"/>
        <path d="M49.96 88.49c.24 0 .48-.24.7-.73.22-.48.34-1.28.34-2.39V64.21l-5.19 1.04v-6.33c1.42 0 2.95-.11 4.59-.34 1.64-.22 3.22-.5 4.75-.83s2.8-.63 3.84-.91v28.53c0 1.11.12 1.9.36 2.39s.49.73.73.73H49.97Z" fill="#803711" data-color="2"/>
        <path d="M75.9 89.01c-4.6 0-8.04-1.37-10.32-4.12s-3.42-6.79-3.42-12.11 1.16-9.14 3.47-11.85 5.74-4.07 10.27-4.07h.57c4.46 0 7.82 1.35 10.09 4.05 2.26 2.7 3.4 6.66 3.4 11.88s-1.13 9.36-3.4 12.11-5.63 4.12-10.09 4.12h-.57Zm0-5.76h.57c1.17 0 2.18-.3 3.01-.91.83-.6 1.47-1.67 1.92-3.19s.67-3.65.67-6.38-.23-4.73-.67-6.2c-.45-1.47-1.09-2.51-1.92-3.11s-1.83-.91-3.01-.91h-.57c-1.18 0-2.21.29-3.09.88s-1.56 1.62-2.05 3.09c-.48 1.47-.72 3.55-.72 6.25s.24 4.91.72 6.43c.49 1.52 1.17 2.58 2.05 3.16s1.91.88 3.09.88Z" fill="#803711" data-color="2"/>
        <path d="M98.87 69.35c-2.53 0-4.37-.61-5.52-1.84q-1.74-1.845-1.74-4.38c0-2.535.58-3.2 1.74-4.41s3-1.81 5.52-1.81 4.32.6 5.5 1.81c1.17 1.21 1.76 2.68 1.76 4.41s-.59 3.16-1.76 4.38c-1.18 1.23-3.01 1.84-5.5 1.84m-6.84 19.09q.315-.045 1.14-.78c.55-.49 1.23-1.26 2.02-2.34.35-.48.99-1.35 1.92-2.59.93-1.25 2.03-2.72 3.29-4.44 1.26-1.71 2.57-3.5 3.91-5.37 1.35-1.87 2.65-3.66 3.89-5.39s2.31-3.22 3.19-4.49c.88-1.26 1.46-2.14 1.74-2.62.66-1.11.97-1.9.93-2.39-.04-.48-.19-.73-.47-.73h7.52c-.24 0-.64.24-1.19.73-.55.48-1.23 1.3-2.02 2.44-.38.55-1.03 1.47-1.94 2.75s-2 2.77-3.24 4.49c-1.24 1.71-2.53 3.48-3.86 5.32-1.33 1.83-2.61 3.6-3.84 5.29-1.23 1.7-2.29 3.16-3.19 4.41-.9 1.24-1.52 2.11-1.87 2.59-.69 1-1.02 1.76-.99 2.26s.21.79.52.86h-7.47Zm6.84-23.24q.885 0 1.32-.36c.29-.24.49-.53.6-.86.1-.33.16-.61.16-.86 0-.28-.05-.57-.16-.88-.1-.31-.3-.59-.6-.83q-.435-.36-1.32-.36c-.62 0-1.08.12-1.37.36s-.49.52-.57.83-.13.6-.13.88c0 .24.04.53.13.86s.28.61.57.86c.29.24.75.36 1.37.36m15.56 23.81c-2.52 0-4.37-.61-5.52-1.84q-1.74-1.845-1.74-4.38c0-2.535.58-3.2 1.74-4.41s3-1.81 5.52-1.81 4.32.6 5.5 1.81c1.17 1.21 1.76 2.68 1.76 4.41s-.59 3.16-1.76 4.38c-1.18 1.23-3.01 1.84-5.5 1.84m0-4.15q.885 0 1.32-.36c.29-.24.49-.53.6-.86s.16-.61.16-.86c0-.28-.05-.57-.16-.88s-.3-.59-.6-.83q-.435-.36-1.32-.36c-.62 0-1.08.12-1.37.36s-.49.52-.57.83c-.09.31-.13.6-.13.88 0 .24.04.53.13.86s.28.61.57.86c.29.24.75.36 1.37.36" fill="#803711" data-color="2"/>
        <path d="M37.5 101.45c-.77 0-1.37-.12-1.81-.37-.43-.25-.74-.58-.91-1.01s-.26-.9-.26-1.43.09-1.02.27-1.44.49-.76.92-1.01 1.03-.38 1.79-.38 1.36.13 1.79.38.74.59.92 1.01.27.91.27 1.44-.09 1.01-.26 1.43-.48.76-.91 1.01-1.04.37-1.81.37m0-1.17q.48 0 .78-.15c.2-.1.34-.26.43-.5s.13-.57.13-.99-.05-.76-.13-1c-.09-.24-.23-.42-.43-.52s-.46-.16-.78-.16-.58.05-.78.16-.34.28-.43.53-.13.58-.13.99.04.73.13.97.23.41.43.51q.3.15.78.15Z" fill="#803711" data-color="2"/>
        <path d="M43.44 101.45q-.675 0-1.14-.24c-.465-.24-.55-.43-.72-.82q-.24-.585-.24-1.62v-2.15c0-.25-.03-.42-.07-.53-.05-.11-.1-.16-.16-.16h2.13c-.05 0-.11.05-.17.16s-.09.28-.09.53v2.31c0 .49.09.83.27 1.04s.39.31.63.31c.34 0 .6-.08.79-.24s.31-.37.39-.62.12-.53.12-.81v-1.99c0-.25-.03-.42-.07-.53-.05-.1-.1-.16-.16-.17h1.87v4.71c0 .25.03.42.08.53s.1.16.16.16h-1.87v-.45l.02-.23-.02-.02c-.08.12-.17.22-.29.32s-.25.19-.39.26a2.35 2.35 0 0 1-1.06.23Z" fill="#803711" data-color="2"/>
        <path d="M53.2 101.45c-.69 0-1.26-.04-1.73-.12s-.79-.15-.97-.23v-.35l-.24-1.13c.2.15.57.29 1.12.44s1.22.22 2.01.22c.24 0 .43-.02.57-.05s.25-.08.31-.15a.4.4 0 0 0 .09-.27q0-.195-.15-.3c-.1-.07-.27-.13-.51-.17s-.6-.09-1.07-.16q-.885-.12-1.41-.33c-.35-.14-.59-.33-.73-.55s-.21-.51-.21-.84c0-.31.07-.59.23-.84.15-.25.41-.45.79-.6.37-.15.9-.23 1.57-.23.63 0 1.19.04 1.66.12.48.08.82.15 1.03.23v.35l.23 1.02c-.18-.12-.52-.24-1.04-.36s-1.17-.18-1.96-.18q-.465 0-.66.09a.33.33 0 0 0-.2.32c0 .08.02.14.06.2s.13.1.25.15.3.09.53.13.54.09.91.13c.65.08 1.15.2 1.48.35s.55.33.67.55.17.48.17.79c0 .39-.1.72-.29.98s-.5.45-.91.58-.94.19-1.58.19Z" fill="#803711" data-color="2"/>
        <path d="M59.56 101.45c-.61 0-1.12-.06-1.52-.19s-.73-.31-.96-.55c-.24-.24-.41-.54-.51-.88s-.15-.74-.15-1.18c0-.87.24-1.56.73-2.07s1.23-.76 2.23-.76c.59 0 1.06.08 1.43.24a2 2 0 0 1 .84.65c.19.27.32.57.4.9s.11.66.11.99v.54s-.11-.05-.32-.07c-.21-.03-.57-.04-1.07-.04h-2.68c0 .42.13.74.39.95s.68.32 1.26.32q.735 0 1.32-.18c.39-.12.67-.23.85-.34v.35l.12.88c-.15.1-.43.2-.84.31-.42.1-.95.16-1.62.16Zm-1.05-3.43h2c0-.17-.04-.34-.11-.5s-.19-.29-.35-.4-.38-.16-.67-.16-.51.04-.69.13c-.17.08-.3.19-.38.31s-.12.25-.12.38c0 .08.02.14.07.17.05.04.13.06.26.06Z" fill="#803711" data-color="2"/>
        <path d="M65.23 101.45q-.675 0-1.14-.24c-.465-.24-.55-.43-.72-.82q-.24-.585-.24-1.62v-2.15c0-.25-.03-.42-.07-.53-.05-.11-.1-.16-.16-.16h2.13c-.05 0-.11.05-.17.16s-.09.28-.09.53v2.31c0 .49.09.83.27 1.04s.39.31.63.31c.34 0 .6-.08.79-.24s.31-.37.39-.62.12-.53.12-.81v-1.99c0-.25-.03-.42-.07-.53-.05-.1-.1-.16-.16-.17h1.87v4.71c0 .25.03.42.08.53s.1.16.16.16h-1.87v-.45l.02-.23-.02-.02c-.08.12-.17.22-.29.32s-.25.19-.39.26a2.35 2.35 0 0 1-1.06.23Z" fill="#803711" data-color="2"/>
        <path d="M74.59 101.45c-.69 0-1.22-.12-1.61-.37s-.66-.58-.82-1.01-.24-.9-.24-1.43.08-1.02.24-1.44.43-.76.82-1.01.93-.38 1.61-.38q.345 0 .63.06c.19.04.36.09.51.16.15.06.28.15.4.25h.02l-.02-.23v-1.99c0-.25-.03-.42-.08-.53-.05-.1-.1-.16-.16-.17h1.87v7.28c0 .25.03.42.07.53.05.11.1.16.16.16h-1.87v-.15l.03-.22h-.03c-.12.09-.25.17-.4.25s-.33.13-.51.17-.39.06-.62.06Zm.2-1.17c.26 0 .47-.04.64-.12q.255-.12.42-.33c.165-.21.18-.32.22-.52s.06-.43.06-.68-.02-.47-.07-.68c-.05-.2-.12-.38-.22-.53a1 1 0 0 0-.41-.35c-.17-.08-.39-.12-.64-.12-.37 0-.67.13-.9.38s-.34.69-.34 1.3c0 .41.05.73.15.97s.24.41.43.51.4.15.66.15Z" fill="#803711" data-color="2"/>
        <path d="M79.79 95.05c-.28 0-.51-.08-.68-.23s-.26-.37-.26-.64.08-.48.25-.63c.16-.16.39-.23.69-.23s.52.08.69.23.25.37.25.63-.08.48-.25.64c-.16.15-.39.23-.69.23m-.93 6.28c.05 0 .11-.05.16-.16s.08-.28.08-.53v-4.02c0-.25-.02-.42-.07-.53s-.1-.16-.16-.16h1.87v4.71c0 .25.02.42.07.53s.1.16.16.16h-2.12Z" fill="#803711" data-color="2"/>
        <path d="M81.78 101.33c.05 0 .11-.05.16-.16s.07-.28.07-.53v-3.9c0-.25-.03-.42-.07-.53-.05-.1-.1-.16-.16-.17.34 0 .69-.03 1.04-.07.35-.05.63-.1.83-.16v.71l-.02.15.02.02c.02-.05.1-.15.22-.29s.3-.27.53-.4.52-.19.85-.19c.72 0 1.26.2 1.65.61q.57.615.57 1.92v2.3c0 .25.03.42.07.53.05.11.1.16.16.16h-2.1c.05 0 .11-.05.16-.16s.07-.28.07-.53v-2.26c0-.36-.04-.64-.12-.85-.08-.2-.18-.35-.32-.43a.9.9 0 0 0-.47-.13c-.22 0-.42.05-.62.16-.2.1-.36.27-.48.49q-.18.33-.18.87v2.16c0 .25.02.42.07.53s.1.16.16.16h-2.1Z" fill="#803711" data-color="2"/>
        <path d="M88.42 101.33c.05 0 .11-.05.16-.16s.07-.28.07-.53v-6.58c0-.25-.03-.42-.07-.53-.05-.1-.1-.16-.16-.17h1.87v3.15l-.02.15.02.02c.02-.05.1-.15.22-.29s.3-.27.53-.4.52-.19.85-.19c.72 0 1.26.2 1.65.61q.57.615.57 1.92v2.3c0 .25.03.42.07.53.05.11.1.16.16.16h-2.1c.05 0 .11-.05.16-.16s.07-.28.07-.53v-2.26c0-.36-.04-.64-.12-.85-.08-.2-.18-.35-.32-.43a.9.9 0 0 0-.47-.13c-.22 0-.42.05-.62.16-.2.1-.36.27-.48.49q-.18.33-.18.87v2.16c0 .25.02.42.07.53s.1.16.16.16h-2.1Z" fill="#803711" data-color="2"/>
        <path d="M98.05 101.45c-.61 0-1.12-.06-1.52-.19s-.73-.31-.96-.55c-.24-.24-.41-.54-.51-.88s-.15-.74-.15-1.18c0-.87.24-1.56.73-2.07s1.23-.76 2.23-.76c.59 0 1.06.08 1.43.24a2 2 0 0 1 .84.65c.19.27.32.57.4.9s.11.66.11.99v.54s-.11-.05-.32-.07c-.21-.03-.57-.04-1.07-.04h-2.68c0 .42.13.74.39.95s.68.32 1.26.32q.735 0 1.32-.18c.39-.12.67-.23.85-.34v.35l.12.88c-.15.1-.43.2-.84.31-.42.1-.95.16-1.62.16Zm-1.06-3.43h2c0-.17-.04-.34-.11-.5s-.19-.29-.35-.4-.38-.16-.67-.16-.51.04-.69.13c-.17.08-.3.19-.38.31s-.12.25-.12.38c0 .08.02.14.07.17.05.04.13.06.26.06Z" fill="#803711" data-color="2"/>
        <path d="M102.31 95.05c-.28 0-.51-.08-.68-.23s-.26-.37-.26-.64.08-.48.25-.63c.16-.16.39-.23.69-.23s.52.08.69.23.25.37.25.63-.08.48-.25.64c-.16.15-.39.23-.69.23m-.94 6.28c.05 0 .11-.05.16-.16s.08-.28.08-.53v-4.02c0-.25-.02-.42-.07-.53s-.1-.16-.16-.16h1.87v4.71c0 .25.02.42.07.53s.1.16.16.16h-2.12Z" fill="#803711" data-color="2"/>
        <path d="M104.29 101.33c.05 0 .11-.05.16-.16s.07-.28.07-.53v-3.9c0-.25-.03-.42-.07-.53-.05-.1-.1-.16-.16-.17.34 0 .69-.03 1.04-.07.35-.05.63-.1.83-.16v.46l-.02.2.02.02c.05-.08.14-.18.26-.28s.27-.2.46-.28q.285-.12.66-.12c.38 0 .71.05 1 .16.29.1.5.21.62.32l-.35 1.55v.35a3.2 3.2 0 0 0-1.12-.93c-.23-.12-.48-.17-.72-.17-.28 0-.49.1-.62.3s-.21.52-.21.95v2.31c0 .25.02.42.07.53s.1.16.16.16h-2.1Z" fill="#803711" data-color="2"/>
        <path d="M112.51 101.45c-.77 0-1.37-.12-1.81-.37-.43-.25-.74-.58-.91-1.01s-.26-.9-.26-1.43.09-1.02.27-1.44.49-.76.92-1.01 1.03-.38 1.79-.38 1.36.13 1.79.38.74.59.92 1.01.27.91.27 1.44-.09 1.01-.26 1.43-.48.76-.91 1.01-1.04.37-1.81.37m0-1.17q.48 0 .78-.15c.2-.1.34-.26.43-.5s.13-.57.13-.99-.05-.76-.13-1c-.09-.24-.23-.42-.43-.52s-.46-.16-.78-.16-.58.05-.78.16-.34.28-.43.53-.13.58-.13.99.04.73.13.97.23.41.43.51q.3.15.78.15Z" fill="#803711" data-color="2"/>
        <path d="M54.3 113c-.69 0-1.22-.12-1.61-.37s-.66-.58-.82-1.01-.24-.9-.24-1.43.08-1.02.24-1.44.43-.76.82-1.01.93-.38 1.61-.38q.345 0 .63.06c.19.04.36.09.51.16.15.06.28.15.4.25h.02l-.02-.23v-1.99c0-.25-.03-.42-.08-.53-.05-.1-.1-.16-.16-.17h1.87v7.28c0 .25.03.42.07.53.05.11.1.16.16.16h-1.87v-.15l.03-.22h-.03c-.12.09-.25.17-.4.25s-.33.13-.51.17-.39.06-.62.06Zm.19-1.16c.26 0 .47-.04.64-.12q.255-.12.42-.33c.165-.21.18-.32.22-.52s.06-.43.06-.68-.02-.47-.07-.68c-.05-.2-.12-.38-.22-.53a1 1 0 0 0-.41-.35c-.17-.08-.39-.12-.64-.12-.37 0-.67.13-.9.38s-.34.69-.34 1.3c0 .41.05.73.15.97s.24.41.43.51.4.15.66.15Z" fill="#803711" data-color="2"/>
        <path d="M61.54 113c-.61 0-1.12-.06-1.52-.19s-.73-.31-.96-.55c-.24-.24-.41-.54-.51-.88s-.15-.74-.15-1.18c0-.87.24-1.56.73-2.07s1.23-.76 2.23-.76c.59 0 1.06.08 1.43.24a2 2 0 0 1 .84.65c.19.27.32.57.4.9s.11.66.11.99v.54s-.11-.05-.32-.07c-.21-.03-.57-.04-1.07-.04h-2.68c0 .42.13.74.39.95s.68.32 1.26.32q.735 0 1.32-.18c.39-.12.67-.23.85-.34v.35l.12.88c-.15.1-.43.2-.84.31-.42.1-.95.16-1.62.16Zm-1.05-3.43h2c0-.17-.04-.34-.11-.5s-.19-.29-.35-.4-.38-.16-.67-.16-.51.04-.69.13c-.17.08-.3.19-.38.31s-.12.25-.12.38c0 .08.02.14.07.17.05.04.13.06.26.06Z" fill="#803711" data-color="2"/>
        <path d="M69.02 112.89c.05 0 .09-.05.11-.16.02-.1-.02-.28-.11-.54-.03-.1-.1-.28-.2-.53-.1-.26-.23-.55-.36-.88s-.28-.67-.42-1.01-.27-.65-.39-.93-.21-.49-.27-.64c-.11-.26-.22-.45-.33-.55-.11-.11-.2-.16-.26-.16h2.35c-.05 0-.09.05-.1.16-.02.11.02.29.1.55.05.13.11.33.2.6s.19.58.31.92c.11.34.23.69.35 1.05.12.35.23.68.33.98h.01l.3-.9c.1-.3.2-.59.3-.89l.3-.89.3-.9c.08-.25.12-.42.1-.53s-.05-.16-.1-.16h2.3c-.05 0-.13.05-.23.16-.1.1-.2.28-.31.52-.05.14-.14.35-.25.62s-.24.58-.39.91c-.14.33-.29.67-.43 1s-.27.63-.38.9-.18.47-.23.6c-.08.26-.12.44-.1.54.01.1.05.15.1.15h-2.59Z" fill="#803711" data-color="2"/>
        <path d="M76.81 113c-.77 0-1.37-.12-1.81-.37-.43-.25-.74-.58-.91-1.01s-.26-.9-.26-1.43.09-1.02.27-1.44.49-.76.92-1.01 1.03-.38 1.79-.38 1.36.13 1.79.38.74.59.92 1.01.27.91.27 1.44-.09 1.01-.26 1.43-.48.76-.91 1.01-1.04.37-1.81.37m0-1.16q.48 0 .78-.15c.2-.1.34-.26.43-.5s.13-.57.13-.99-.05-.76-.13-1c-.09-.24-.23-.42-.43-.52s-.46-.16-.78-.16-.58.05-.78.16-.34.28-.43.53-.13.58-.13.99.04.73.13.97.23.41.43.51q.3.15.78.15Z" fill="#803711" data-color="2"/>
        <path d="M80.49 112.89c.05 0 .11-.05.16-.16s.08-.28.08-.53v-6.58c0-.25-.03-.42-.08-.53s-.1-.16-.16-.16c.51 0 .92-.03 1.24-.08s.53-.1.63-.16v7.51c0 .25.03.42.07.53.05.11.1.16.16.16h-2.11Z" fill="#803711" data-color="2"/>
        <path d="M85.73 113c-.53 0-.92-.11-1.15-.34s-.36-.6-.36-1.11v-2.91h-1.04v-1.15c.35 0 .63-.04.83-.13s.34-.24.43-.47c.08-.22.13-.53.13-.93h1.29v1.54h1.98c-.05.15-.11.35-.16.57-.05.23-.08.42-.08.58h-1.74v2.28c0 .35.03.6.08.73s.18.2.38.2c.13 0 .27-.05.43-.14s.31-.21.46-.34c.15-.14.27-.26.38-.39v.36l.12 1.12c-.09.08-.23.16-.42.25s-.41.16-.68.22-.56.09-.88.09Z" fill="#803711" data-color="2"/>
        <path d="M90.46 113c-.69 0-1.25-.14-1.66-.41s-.62-.71-.62-1.32c0-.42.11-.77.32-1.03s.51-.46.88-.58.8-.19 1.28-.19c.35 0 .66.03.91.09s.45.13.61.2.25.12.3.15c0-.32-.03-.59-.1-.79s-.19-.35-.38-.45-.43-.15-.76-.15c-.47 0-.89.05-1.25.14s-.66.2-.88.32c-.23.12-.38.23-.47.31v-.35l-.12-1.13c.05-.03.2-.08.43-.15s.55-.14.95-.2.88-.1 1.43-.1q1.14 0 1.74.33c.4.22.68.53.83.94s.23.9.23 1.48v2.08c0 .22.02.37.07.47s.1.17.16.23h-1.87v-.24l.02-.22-.02-.02q-.09.105-.27.21a3 3 0 0 1-1.02.33c-.22.03-.47.06-.75.06Zm.54-1.16c.32 0 .59-.03.81-.08s.39-.12.5-.21.17-.19.17-.32c0-.18-.13-.32-.4-.44s-.63-.17-1.08-.17-.75.06-.93.18-.27.28-.27.46c0 .23.1.38.31.46.21.07.5.11.88.11Z" fill="#803711" data-color="2"/>
        <path d="m96.3 108.1-1.14-.83s.06 0 .13-.04.13-.11.22-.24c.05-.06.1-.11.16-.15s.12-.07.17-.1.1-.06.13-.1h-.17c-.07 0-.14.01-.21.01s-.15-.01-.23-.03c-.15-.05-.25-.08-.32-.07-.07 0-.11.02-.12.05l.44-1.33s.02.06.07.1.15.09.3.14c.08.02.14.06.2.1.05.04.11.08.16.13s.09.07.13.1c0-.05-.02-.11-.05-.17-.02-.06-.05-.12-.07-.19a.8.8 0 0 1-.03-.22c0-.15-.01-.26-.04-.33s-.05-.1-.07-.1h1.39s-.05.03-.07.1c-.03.06-.04.17-.04.33 0 .08-.01.15-.04.23-.02.07-.05.14-.07.2s-.04.11-.05.17c.05-.02.09-.06.15-.1.05-.05.1-.09.16-.14s.12-.08.2-.1c.15-.05.26-.09.31-.14s.07-.08.06-.1l.44 1.35s-.05-.04-.12-.05a1 1 0 0 0-.32.06q-.105.03-.21.03c-.07 0-.14 0-.2-.02-.06 0-.12 0-.17.01.04.03.08.06.14.1.05.03.11.07.17.11q.09.06.15.15c.09.12.17.2.23.24s.1.05.12.04l-1.14.82s.02-.06 0-.13-.07-.16-.16-.29a.5.5 0 0 1-.1-.2c-.02-.07-.04-.14-.05-.2-.01-.07-.03-.12-.05-.17-.02.05-.04.1-.06.17-.02.06-.03.13-.05.2s-.05.14-.1.21c-.09.12-.15.22-.16.29-.02.07-.02.11 0 .13Z" fill="#803711" data-color="2"/>
        <path d="M41.44 51.34c-.69 0-1.26-.04-1.73-.12s-.79-.15-.97-.23v-.35l-.24-1.13c.2.15.57.29 1.12.44s1.22.22 2.01.22c.24 0 .43-.02.57-.05s.25-.08.31-.15a.4.4 0 0 0 .09-.27q0-.195-.15-.3c-.1-.07-.27-.13-.51-.17s-.6-.09-1.07-.16q-.885-.12-1.41-.33c-.35-.14-.59-.33-.73-.55s-.21-.51-.21-.84c0-.31.07-.59.23-.84.15-.25.41-.45.79-.6.37-.15.9-.23 1.57-.23.63 0 1.19.04 1.66.12.48.08.82.15 1.03.23v.35l.23 1.02c-.18-.12-.52-.24-1.04-.36s-1.17-.18-1.96-.18q-.465 0-.66.09a.33.33 0 0 0-.2.32c0 .08.02.14.06.2s.13.1.25.15.3.09.53.13.54.09.91.13c.65.08 1.15.2 1.48.35s.55.33.67.55.17.48.17.79c0 .39-.1.72-.29.98s-.5.45-.91.58-.94.19-1.58.19Z" fill="#803711" data-color="2"/>
        <path d="M47.06 51.34c-.69 0-1.25-.14-1.66-.41s-.62-.71-.62-1.32c0-.42.11-.77.32-1.03s.51-.46.88-.58.8-.19 1.28-.19c.35 0 .66.03.91.09s.45.13.61.2.25.12.3.15c0-.32-.03-.59-.1-.79s-.19-.35-.38-.45-.43-.15-.76-.15c-.47 0-.89.05-1.25.14s-.66.2-.88.32c-.23.12-.38.23-.47.31v-.35l-.12-1.13c.05-.03.2-.08.43-.15s.55-.14.95-.2.88-.1 1.43-.1q1.14 0 1.74.33c.4.22.68.53.83.94s.23.9.23 1.48v2.08c0 .22.02.37.07.47s.1.17.16.23h-1.87v-.24l.02-.22-.02-.02q-.09.105-.27.21a3 3 0 0 1-1.02.33c-.22.03-.47.06-.75.06Zm.54-1.17c.32 0 .59-.03.81-.08s.39-.12.5-.21.17-.19.17-.32c0-.18-.13-.32-.4-.44s-.63-.17-1.08-.17-.75.06-.93.18-.27.28-.27.46c0 .23.1.38.31.46.21.07.5.11.88.11Z" fill="#803711" data-color="2"/>
        <path d="M53.95 51.34c-.53 0-.92-.11-1.15-.34s-.36-.6-.36-1.11v-2.91H51.4v-1.15c.35 0 .63-.04.83-.13s.34-.24.43-.47c.08-.22.13-.53.13-.93h1.29v1.54h1.98c-.05.15-.11.35-.16.57-.05.23-.08.42-.08.58h-1.74v2.28c0 .35.03.6.08.73s.18.2.38.2c.13 0 .27-.05.43-.14s.31-.21.46-.34c.15-.14.27-.26.38-.39v.36l.12 1.12c-.09.08-.23.16-.42.25s-.41.16-.68.22-.56.09-.88.09Z" fill="#803711" data-color="2"/>
        <path d="M57.39 44.94c-.28 0-.51-.08-.68-.23s-.26-.37-.26-.64.08-.48.25-.63c.16-.16.39-.23.69-.23s.52.08.69.23.25.37.25.63-.08.48-.25.64c-.16.15-.39.23-.69.23m-.94 6.28c.05 0 .11-.05.16-.16s.08-.28.08-.53v-4.02c0-.25-.02-.42-.07-.53s-.1-.16-.16-.16h1.87v4.71c0 .25.02.42.07.53s.1.16.16.16h-2.12Z" fill="#803711" data-color="2"/>
        <path d="M62.27 51.34c-.69 0-1.26-.04-1.73-.12s-.79-.15-.97-.23v-.35l-.24-1.13c.2.15.57.29 1.12.44s1.22.22 2.01.22c.24 0 .43-.02.57-.05s.25-.08.31-.15a.4.4 0 0 0 .09-.27q0-.195-.15-.3c-.1-.07-.27-.13-.51-.17s-.6-.09-1.07-.16q-.885-.12-1.41-.33c-.35-.14-.59-.33-.73-.55s-.21-.51-.21-.84c0-.31.07-.59.23-.84.15-.25.41-.45.79-.6.37-.15.9-.23 1.57-.23.63 0 1.19.04 1.66.12.48.08.82.15 1.03.23v.35l.23 1.02c-.18-.12-.52-.24-1.04-.36s-1.17-.18-1.96-.18q-.465 0-.66.09a.33.33 0 0 0-.2.32c0 .08.02.14.06.2s.13.1.25.15.3.09.53.13.54.09.91.13c.65.08 1.15.2 1.48.35s.55.33.67.55.17.48.17.79c0 .39-.1.72-.29.98s-.5.45-.91.58-.94.19-1.58.19Z" fill="#803711" data-color="2"/>
        <path d="M65.96 51.22c.05 0 .11-.05.16-.16s.07-.28.07-.53v-3.56h-1.04v-1.15h1.15v-.02s-.06-.17-.13-.39-.1-.48-.1-.78c0-.61.18-1.05.53-1.32s.83-.4 1.44-.4c.49 0 .93.03 1.31.07.38.05.65.1.82.16v.36l.23 1.26c-.14-.1-.32-.2-.54-.31-.22-.1-.45-.19-.7-.27-.25-.07-.49-.11-.74-.11s-.42.06-.52.17c-.1.12-.16.28-.16.51v.72c0 .17.02.27.05.3s.13.05.31.05h1.73c-.05.07-.11.2-.16.4s-.07.45-.07.76h-1.74v3.56c0 .25.03.42.07.53.05.11.1.16.16.16h-2.13Z" fill="#803711" data-color="2"/>
        <path d="M72.56 51.34c-.69 0-1.25-.14-1.66-.41s-.62-.71-.62-1.32c0-.42.11-.77.32-1.03s.51-.46.88-.58.8-.19 1.28-.19c.35 0 .66.03.91.09s.45.13.61.2.25.12.3.15c0-.32-.03-.59-.1-.79s-.19-.35-.38-.45-.43-.15-.76-.15c-.47 0-.89.05-1.25.14s-.66.2-.88.32c-.23.12-.38.23-.47.31v-.35l-.12-1.13c.05-.03.2-.08.43-.15s.55-.14.95-.2.88-.1 1.43-.1q1.14 0 1.74.33c.4.22.68.53.83.94s.23.9.23 1.48v2.08c0 .22.02.37.07.47s.1.17.16.23h-1.87v-.24l.02-.22-.02-.02q-.09.105-.27.21a3 3 0 0 1-1.02.33c-.22.03-.47.06-.75.06Zm.54-1.17c.32 0 .59-.03.81-.08s.39-.12.5-.21.17-.19.17-.32c0-.18-.13-.32-.4-.44s-.63-.17-1.08-.17-.75.06-.93.18-.27.28-.27.46c0 .23.1.38.31.46.21.07.5.11.88.11Z" fill="#803711" data-color="2"/>
        <path d="M80.15 51.34c-.8 0-1.43-.12-1.89-.37s-.78-.58-.96-1.01-.28-.9-.28-1.43c0-.94.26-1.64.77-2.11s1.26-.71 2.25-.71q.78 0 1.41.12c.43.08.74.15.94.22v.35l.23 1.24c-.17-.16-.48-.33-.92-.5s-.97-.26-1.59-.26c-.33 0-.61.06-.83.18s-.38.3-.49.55c-.1.25-.16.56-.16.95s.06.69.17.93.3.41.57.52c.26.11.61.16 1.04.16.55 0 1-.07 1.36-.21s.6-.28.72-.42v.35l.12.93c-.15.12-.43.25-.86.37s-.96.18-1.61.18Zm-.32 2.42c-.32 0-.58-.05-.79-.14q-.315-.135-.42-.27v-.93c.08.08.21.17.4.27.19.09.43.14.71.14.08 0 .16-.02.23-.05s.1-.1.1-.2c0-.11-.08-.19-.23-.24-.16-.05-.37-.08-.64-.08l.23-1.04h.96l-.29.55c.28.04.5.14.68.31q.27.255.27.69c0 .28-.11.51-.32.7-.22.19-.52.28-.9.28Z" fill="#803711" data-color="2"/>
        <path d="M85.59 51.34c-.69 0-1.25-.14-1.66-.41s-.62-.71-.62-1.32c0-.42.11-.77.32-1.03s.51-.46.88-.58.8-.19 1.28-.19c.35 0 .66.03.91.09s.45.13.61.2.25.12.3.15c0-.32-.03-.59-.1-.79s-.19-.35-.38-.45-.43-.15-.76-.15c-.47 0-.89.05-1.25.14s-.66.2-.88.32c-.23.12-.38.23-.47.31v-.35l-.12-1.13c.05-.03.2-.08.43-.15s.55-.14.95-.2.88-.1 1.43-.1q1.14 0 1.74.33c.4.22.68.53.83.94s.23.9.23 1.48v2.08c0 .22.02.37.07.47s.1.17.16.23h-1.87v-.24l.02-.22-.02-.02q-.09.105-.27.21a3 3 0 0 1-1.02.33c-.22.03-.47.06-.75.06Zm-1.21-6.31c0-.32.04-.61.13-.85q.12-.36.39-.57c.17-.14.39-.2.64-.2.27 0 .5.04.68.12s.35.18.49.28.28.2.42.28.29.12.46.12.28-.04.36-.12q.12-.12.12-.33c0-.11-.03-.19-.07-.25a.33.33 0 0 0-.16-.11h.71c0 .35-.04.64-.12.88s-.21.43-.38.55q-.255.18-.66.18c-.25 0-.47-.04-.65-.12a2.3 2.3 0 0 1-.49-.28c-.15-.11-.29-.2-.43-.28q-.21-.12-.45-.12c-.24 0-.3.04-.38.13-.09.09-.13.19-.13.32 0 .1.03.18.08.24s.1.1.16.12h-.7Zm1.75 5.14c.32 0 .59-.03.81-.08s.39-.12.5-.21.17-.19.17-.32c0-.18-.13-.32-.4-.44s-.63-.17-1.08-.17-.75.06-.93.18-.27.28-.27.46c0 .23.1.38.31.46.21.07.5.11.88.11Z" fill="#803711" data-color="2"/>
        <path d="M93.02 51.34c-.77 0-1.37-.12-1.81-.37-.43-.25-.74-.58-.91-1.01s-.26-.9-.26-1.43.09-1.02.27-1.44.49-.76.92-1.01 1.03-.38 1.79-.38 1.36.13 1.79.38.74.59.92 1.01.27.91.27 1.44-.09 1.01-.26 1.43-.48.76-.91 1.01-1.04.37-1.81.37m0-1.17q.48 0 .78-.15c.2-.1.34-.26.43-.5s.13-.57.13-.99-.05-.76-.13-1c-.09-.24-.23-.42-.43-.52s-.46-.16-.78-.16-.58.05-.78.16-.34.28-.43.53-.13.58-.13.99.04.73.13.97.23.41.43.51q.3.15.78.15Z" fill="#803711" data-color="2"/>
        <path d="M101.68 51.34c-.69 0-1.22-.12-1.61-.37s-.66-.58-.82-1.01-.24-.9-.24-1.43.08-1.02.24-1.44.43-.76.82-1.01.93-.38 1.61-.38q.345 0 .63.06c.19.04.36.09.51.16.15.06.28.15.4.25h.02l-.02-.23v-1.99c0-.25-.03-.42-.08-.53-.05-.1-.1-.16-.16-.17h1.87v7.28c0 .25.03.42.07.53.05.11.1.16.16.16h-1.87v-.15l.03-.22h-.03c-.12.09-.25.17-.4.25s-.33.13-.51.17-.39.06-.62.06Zm.19-1.17c.26 0 .47-.04.64-.12q.255-.12.42-.33c.165-.21.18-.32.22-.52s.06-.43.06-.68-.02-.47-.07-.68c-.05-.2-.12-.38-.22-.53a1 1 0 0 0-.41-.35c-.17-.08-.39-.12-.64-.12-.37 0-.67.13-.9.38s-.34.69-.34 1.3c0 .41.05.73.15.97s.24.41.43.51.4.15.66.15Z" fill="#803711" data-color="2"/>
        <path d="M108.92 51.34c-.61 0-1.12-.06-1.52-.19s-.73-.31-.96-.55c-.24-.24-.41-.54-.51-.88s-.15-.74-.15-1.18c0-.87.24-1.56.73-2.07s1.23-.76 2.23-.76c.59 0 1.06.08 1.43.24a2 2 0 0 1 .84.65c.19.27.32.57.4.9s.11.66.11.99v.54s-.11-.05-.32-.07c-.21-.03-.57-.04-1.07-.04h-2.68c0 .42.13.74.39.95s.68.32 1.26.32q.735 0 1.32-.18c.39-.12.67-.23.85-.34v.35l.12.88c-.15.1-.43.2-.84.31-.42.1-.95.16-1.62.16Zm-1.05-3.44h2c0-.17-.04-.34-.11-.5s-.19-.29-.35-.4-.38-.16-.67-.16-.51.04-.69.13c-.17.08-.3.19-.38.31s-.12.25-.12.38c0 .08.02.14.07.17.05.04.13.06.26.06Z" fill="#803711" data-color="2"/>
        <path d="M132.12 94.53c-10.46 38.84-61.36 54.82-93.48 31.78-10.34-7.23-19.03-18.37-22.22-30.25 11.57 29.81 46.28 47.53 76.88 37.1 10.4-3.53 19.47-10.44 26.74-18.53l2.93-3.66c3.76-5.01 6.77-10.58 9.01-16.49l.15.05Z" fill="#d08035" data-color="3"/>
        <path d="M16.27 57.27C26.72 18.43 77.63 2.45 109.75 25.5c10.34 7.23 19.03 18.37 22.22 30.25-11.57-29.81-46.28-47.53-76.88-37.1-10.4 3.53-19.47 10.44-26.74 18.53l-2.93 3.66c-3.76 5.01-6.77 10.58-9.01 16.49l-.15-.05Z" fill="#d08035" data-color="3"/>
    </g>
</svg>
