<?xml version="1.0" encoding="UTF-8"?>
<svg data-bbox="20.879 180.962 1038.254 710.078" viewBox="0 0 1080 1080" xmlns="http://www.w3.org/2000/svg" data-type="color">
    <g>
        <path d="M360.33 718.03v-38.24h4.71l16.09 25.94c.61 1.01 1.02 1.73 1.22 2.11.21.39.32.93.37 1.62h.37V679.8h4.89v38.24h-4.71l-16.09-25.94c-.61-1.06-1.01-1.78-1.2-2.17s-.32-.91-.4-1.55h-.37v29.66h-4.89.01Z" fill="#ffffff" data-color="1"/>
        <path d="m419.78 718.03 11.62-38.24h7.28l11.62 38.24h-4.89l-10.09-33.83h-.55l-10.09 33.83zm5.33-9.06v-4.04h20v4.04z" fill="#ffffff" data-color="1"/>
        <path d="M490 683.83v34.2h-4.89v-34.2h-10.4v-4.04h25.69v4.04z" fill="#ffffff" data-color="1"/>
        <path d="M545.42 718.94c-2.9 0-5.26-.17-7.1-.52-1.83-.35-3.27-.94-4.28-1.81-1.02-.86-1.74-2.06-2.14-3.61-.41-1.55-.61-3.54-.61-5.99v-27.22h4.89v34.99h9.61c2.45 0 4.3-.09 5.57-.28 1.27-.18 2.14-.51 2.63-.98s.74-1.13.74-1.99v-31.75h4.89V707c0 2.45-.21 4.44-.61 5.99s-1.13 2.75-2.14 3.61c-1.02.85-2.46 1.46-4.31 1.81s-4.23.52-7.13.52Z" fill="#ffffff" data-color="1"/>
        <path d="M600.35 704.01v14h-4.89v-38.24h14.81c2.53 0 4.5.39 5.94 1.16 1.43.77 2.45 2.09 3.06 3.95.61 1.85.92 4.37.92 7.56 0 4.15-.68 7.12-2.05 8.89s-3.68 2.66-6.94 2.66h-10.85Zm0-4.04h10.09c1.75 0 2.96-.18 3.61-.55s.98-1.04.98-2.01V686.4c0-.98-.32-1.66-.98-2.01-.66-.37-1.85-.55-3.61-.55h-10.09V700Zm14.07 2.33 7.65 15.72h-5.32l-7.4-15.66zh-.01Z" fill="#ffffff" data-color="1"/>
        <path d="m649.9 718.03 11.62-38.24h7.28l11.62 38.24h-4.89l-10.09-33.83h-.55l-10.09 33.83zm5.33-9.06v-4.04h20v4.04z" fill="#ffffff" data-color="1"/>
        <path d="M711.93 718.03v-38.24h4.89v34.2h14.56v4.04h-19.46z" fill="#ffffff" data-color="1"/>
        <path d="M703.82 270.76c.53-.1 12.54-2.36 16.06-3 45.34-8.35 75.56-10.48 117.52-5.42 59.05 7.12 109.74 33.56 145.98 72.88-42.86-62.09-116.05-98.83-200.34-99.21-42.27-.18-71.81 5.4-115.32 18.93-3.38 1.05-14.9 4.68-15.41 4.83-27.83 8.72-49.98 14.37-73.42 17.59 45.96 4.79 77.14 2.31 124.93-6.6" fill="#e58a24" fill-rule="evenodd" data-color="2"/>
        <path d="M44.81 408.34c6.24-42.7 23.45-81.49 48.27-113.83C48.01 335.44 20 394.25 20.9 462.24c2.17 162.77 149.07 332.32 331.62 403.62C160.54 783.98 19.38 582.52 44.81 408.35Z" fill="#e58a24" fill-rule="evenodd" data-color="2"/>
        <path d="M313.68 199.2c41.95 5.06 70.52 14.26 111.89 33.07 3.22 1.46 14.16 6.49 14.65 6.71 44.79 20.49 74.61 30.24 122.58 36.49-23.36-8.71-44.14-19.58-70.13-35.24-.45-.26-10.61-6.41-13.59-8.19-38.41-23.01-65.47-35.16-106.46-44.62-75.3-17.37-153.42 1.06-211.98 46.16 44.84-27.6 98.33-40.97 153.04-34.38h.01Z" fill="#e58a24" fill-rule="evenodd" data-color="2"/>
        <path d="M1020.65 390.52c19.03 40.22 26.58 87.32 19.22 137.77-24.15 165.41-200.43 318.97-396.98 362.75 186.59-34.9 360.81-160.8 405.51-310.83 21.83-73.25 9.26-139.68-27.73-189.68h-.01Z" fill="#e58a24" fill-rule="evenodd" data-color="2"/>
        <path d="M267.29 513.17h-13.36v81.34h-78.59V373.23l78.59-40.03v133.21h12.58c17.12-41.39 57.5-68.37 102.29-68.37h8.92l-45.58 93.52 47.54 102.95h-82.13z" fill="#ffffff" data-color="1"/>
        <path d="m639.23 398.03 21.61 25.94c7.59-8.11 16.24-14.8 25.94-20.04 9.69-5.24 24.45-8.86 36.23-11.48l.29 73.96-44.77 17.69v110.42h-78.59V398.05h39.29Z" fill="#ffffff" data-color="1"/>
        <path d="M906.75 421.81c-6.42-10.08-16.21-18.97-25.75-22.99-13.23-4.84-14.75-5.8-27.27-8.08-30.72-4.81-56.25-5.91-67.06-5.97-16.44 1.93-32.78 1.52-42.73 4.66l.85 73.39c21.33-8.54 30.96-9.76 43.81-11.32 12.83-1.58 17.75-1.97 29.54-1.97 9.17 0 15.72.53 19.65 1.56l-.21 17.78-11.58-.09c-19.12 0-35.3 1.17-48.53 3.53s-23.91 6.09-32.02 11.2c-8.12 5.11-14.08 11.78-17.88 20.04-3.8 8.25-5.7 18.27-5.7 30.07 0 23.06 5.5 39.95 16.5 50.69s28.42 16.11 52.26 16.11c11.79 0 23.44-2.23 34.97-6.67 11.53-4.45 22.14-10.74 31.83-18.86l19.65 19.65h39.29v-133.6c0-15.97-3.21-29.01-9.63-39.1v-.02Zm-69.73 117.72c-2.05 3.05-4.91 5.34-8.61 6.87-3.69 1.53-8.05 2.29-13.08 2.29s-9.42-.76-13.19-2.29-6.66-3.82-8.71-6.87-3.04-6.88-2.97-11.47c.07-4.6 1.13-8.42 3.18-11.47s4.91-5.34 8.61-6.87c3.69-1.53 8.05-2.29 13.08-2.29s9.42.76 13.19 2.29 6.66 3.82 8.71 6.87 3.04 6.88 2.97 11.47-1.13 8.42-3.18 11.47" fill="#ffffff" data-color="1"/>
        <path d="M575.97 448.96c-4.06-13.09-10.36-23.9-18.86-32.41-8.51-8.51-19.32-14.8-32.41-18.86-13.11-4.06-28.69-6.09-46.76-6.09s-33.28 2.04-46.37 6.09c-13.11 4.06-23.91 10.36-32.41 18.86s-14.87 19.32-19.05 32.41c-4.19 13.11-6.28 28.69-6.28 46.76s2.09 33.28 6.28 46.37c4.19 13.11 10.54 23.91 19.05 32.43 8.51 8.51 19.32 14.87 32.41 19.05 13.09 4.19 28.55 6.28 46.37 6.28s33.66-2.11 46.76-6.28c13.09-4.19 23.9-10.54 32.41-19.05s14.8-19.32 18.86-32.43c4.06-13.09 6.09-28.55 6.09-46.37s-2.04-33.66-6.09-46.76m-69.83 67.03q-3.525 8.67-10.56 13.38c-7.035 4.71-10.57 4.67-17.64 4.57-7.06-.1-12.94-1.73-17.64-4.88-4.69-3.14-8.22-7.56-10.56-13.23-2.35-5.67-3.52-12.38-3.52-20.11s1.17-14.5 3.52-20.27 5.87-10.24 10.56-13.38c4.69-3.15 10.57-4.67 17.64-4.57 7.06.1 12.94 1.73 17.64 4.88 4.69 3.14 8.22 7.56 10.56 13.23 2.35 5.67 3.52 12.38 3.52 20.11s-1.17 14.5-3.52 20.27" fill="#ffffff" data-color="1"/>
        <path d="M267.01 513.17h-13.36v81.34h-78.59V373.23l78.59-40.03v133.21h12.58c17.12-41.39 57.5-68.37 102.29-68.37h8.92l-45.58 93.52 47.54 102.95h-82.13z" fill="#ffffff" data-color="1"/>
        <path d="m638.96 398.03 21.61 25.94c7.59-8.11 16.24-14.8 25.94-20.04 9.69-5.24 24.45-8.86 36.23-11.48l.29 73.96-44.77 17.69v110.42h-78.59V398.05h39.29Z" fill="#ffffff" data-color="1"/>
        <path d="M906.46 421.81c-6.42-10.08-16.21-18.97-25.75-22.99-13.23-4.84-14.75-5.8-27.27-8.08-30.72-4.81-56.25-5.91-67.06-5.97-16.44 1.93-32.78 1.52-42.73 4.66l.85 73.39c21.33-8.54 30.96-9.76 43.81-11.32 12.83-1.58 17.75-1.97 29.54-1.97 9.17 0 15.72.53 19.65 1.56l-.21 17.78-11.58-.09c-19.12 0-35.3 1.17-48.53 3.53s-23.91 6.09-32.02 11.2c-8.12 5.11-14.08 11.78-17.88 20.04-3.8 8.25-5.7 18.27-5.7 30.07 0 23.06 5.5 39.95 16.5 50.69q16.5 16.11 52.26 16.11c11.79 0 23.44-2.23 34.97-6.67 11.53-4.45 22.14-10.74 31.83-18.86l19.65 19.65h39.29v-133.6c0-15.97-3.21-29.01-9.63-39.1v-.02Zm-69.72 117.72c-2.05 3.05-4.91 5.34-8.61 6.87-3.69 1.53-8.05 2.29-13.08 2.29s-9.42-.76-13.19-2.29-6.66-3.82-8.71-6.87-3.04-6.88-2.97-11.47c.07-4.6 1.13-8.42 3.18-11.47s4.91-5.34 8.61-6.87c3.69-1.53 8.05-2.29 13.08-2.29s9.42.76 13.19 2.29 6.66 3.82 8.71 6.87 3.04 6.88 2.97 11.47-1.13 8.42-3.18 11.47" fill="#ffffff" data-color="1"/>
        <path d="M575.69 448.96c-4.06-13.09-10.36-23.9-18.86-32.41-8.51-8.51-19.32-14.8-32.41-18.86-13.11-4.06-28.69-6.09-46.76-6.09s-33.28 2.04-46.37 6.09c-13.11 4.06-23.91 10.36-32.41 18.86s-14.87 19.32-19.05 32.41c-4.19 13.11-6.28 28.69-6.28 46.76s2.09 33.28 6.28 46.37c4.19 13.11 10.54 23.91 19.05 32.43 8.51 8.51 19.32 14.87 32.41 19.05 13.09 4.19 28.55 6.28 46.37 6.28s33.66-2.11 46.76-6.28c13.09-4.19 23.9-10.54 32.41-19.05s14.8-19.32 18.86-32.43c4.06-13.09 6.09-28.55 6.09-46.37s-2.04-33.66-6.09-46.76m-69.84 67.03q-3.525 8.67-10.56 13.38c-7.035 4.71-10.57 4.67-17.64 4.57-7.06-.1-12.94-1.73-17.64-4.88-4.69-3.14-8.22-7.56-10.56-13.23-2.35-5.67-3.52-12.38-3.52-20.11s1.17-14.5 3.52-20.27 5.87-10.24 10.56-13.38c4.69-3.15 10.57-4.67 17.64-4.57 7.06.1 12.94 1.73 17.64 4.88 4.69 3.14 8.22 7.56 10.56 13.23 2.35 5.67 3.52 12.38 3.52 20.11s-1.17 14.5-3.52 20.27" fill="#ffffff" data-color="1"/>
    </g>
</svg>
