<?xml version="1.0" encoding="UTF-8"?>
<svg data-bbox="-0.001 0.009 525.978 359.741" viewBox="0 0 525.99 359.74" xmlns="http://www.w3.org/2000/svg" data-type="color">
    <g>
        <path d="M171.97 272.09v-19.37h2.39l8.15 13.14c.31.52.52.87.62 1.07s.17.47.19.82h.19v-15.03h2.48v19.37h-2.39l-8.15-13.14c-.31-.54-.51-.9-.6-1.1s-.16-.46-.2-.79h-.19v15.03h-2.48Z" fill="#006e42" data-color="1"/>
        <path d="m202.09 272.09 5.89-19.37h3.69l5.89 19.37h-2.48l-5.11-17.14h-.28l-5.11 17.14h-2.48Zm2.7-4.59v-2.05h10.13v2.05z" fill="#006e42" data-color="1"/>
        <path d="M237.67 254.76v17.32h-2.48v-17.32h-5.27v-2.04h13.02v2.04z" fill="#006e42" data-color="1"/>
        <path d="M265.74 272.55c-1.47 0-2.66-.09-3.59-.26-.93-.18-1.65-.48-2.17-.91q-.78-.645-1.08-1.83c-.21-.79-.31-1.8-.31-3.04v-13.79h2.48v17.73h4.87c1.24 0 2.18-.05 2.82-.14s1.09-.26 1.33-.5c.25-.24.37-.57.37-1.01v-16.08h2.48v13.79c0 1.24-.1 2.25-.31 3.04s-.57 1.39-1.08 1.83c-.52.43-1.25.74-2.19.91-.94.18-2.14.26-3.61.26Z" fill="#006e42" data-color="1"/>
        <path d="M293.57 264.99v7.1h-2.48v-19.37h7.5c1.28 0 2.28.2 3.01.59s1.24 1.06 1.55 2 .46 2.22.46 3.83c0 2.11-.35 3.61-1.04 4.51s-1.86 1.35-3.52 1.35h-5.48Zm0-2.05h5.11c.89 0 1.5-.09 1.83-.28s.5-.53.5-1.02v-5.58c0-.5-.17-.84-.5-1.02-.33-.19-.94-.28-1.83-.28h-5.11zm7.13 1.18 3.87 7.96h-2.7l-3.75-7.93 2.57-.03Z" fill="#006e42" data-color="1"/>
        <path d="m318.67 272.09 5.89-19.37h3.69l5.89 19.37h-2.48l-5.11-17.14h-.28l-5.11 17.14h-2.48Zm2.7-4.59v-2.05h10.13v2.05z" fill="#006e42" data-color="1"/>
        <path d="M350.1 272.09v-19.37h2.48v17.32h7.38v2.05h-9.85Z" fill="#006e42" data-color="1"/>
        <path d="M345.98 45.5c.27-.05 6.35-1.19 8.14-1.52 22.97-4.23 38.28-5.31 59.53-2.75 29.91 3.61 55.6 17 73.96 36.92-21.71-31.45-58.8-50.07-101.49-50.26-21.42-.09-36.38 2.74-58.42 9.59-1.71.53-7.55 2.37-7.81 2.45-14.1 4.42-25.32 7.28-37.2 8.91 23.28 2.42 39.08 1.17 63.29-3.34" fill="#e68902" fill-rule="evenodd" data-color="2"/>
        <path d="M12.12 115.2C15.28 93.57 24 73.91 36.57 57.53 13.74 78.27-.45 108.06.01 142.5c1.1 82.46 75.52 168.36 168 204.48C70.76 305.5-.76 203.43 12.12 115.2" fill="#e68902" fill-rule="evenodd" data-color="2"/>
        <path d="M148.34 9.24c21.25 2.56 35.73 7.23 56.69 16.76 1.63.74 7.17 3.29 7.42 3.4 22.69 10.38 37.8 15.32 62.1 18.48-11.83-4.41-22.36-9.92-35.53-17.85-.23-.14-5.37-3.25-6.89-4.15-19.46-11.66-33.17-17.81-53.93-22.6-38.15-8.8-77.72.54-107.4 23.39 22.72-13.99 49.82-20.76 77.53-17.42Z" fill="#e68902" fill-rule="evenodd" data-color="2"/>
        <path d="M506.5 106.17c9.64 20.37 13.47 44.24 9.73 69.8-12.24 83.8-101.54 161.6-201.12 183.78 94.53-17.68 182.79-81.47 205.43-157.48 11.06-37.11 4.69-70.76-14.05-96.1Z" fill="#e68902" fill-rule="evenodd" data-color="2"/>
        <path d="M124.84 168.3h-6.77v41.21H78.25V97.41l39.82-20.28v67.49h6.37c8.68-20.97 29.13-34.64 51.82-34.64h4.52l-23.09 47.38 24.09 52.16h-41.61l-15.33-41.21Z" fill="#006e42" data-color="1"/>
        <path d="m313.27 109.97 10.95 13.14c3.85-4.11 8.23-7.5 13.14-10.15s12.39-4.49 18.36-5.82l.14 37.47-22.68 8.96v55.94h-39.82v-99.54z" fill="#006e42" data-color="1"/>
        <path d="M448.79 122.02c-3.25-5.11-8.21-9.61-13.04-11.65-6.7-2.45-7.47-2.94-13.82-4.09-15.56-2.44-28.5-3-33.97-3.02-8.33.98-16.61.77-21.65 2.36l.43 37.18c10.81-4.32 15.69-4.94 22.19-5.74s8.99-1 14.96-1c4.64 0 7.96.27 9.95.8l-.11 9.01-5.87-.05c-9.69 0-17.89.6-24.59 1.79s-12.11 3.09-16.22 5.67c-4.12 2.59-7.14 5.97-9.06 10.15-1.93 4.18-2.89 9.26-2.89 15.23 0 11.68 2.79 20.24 8.36 25.68s14.4 8.16 26.48 8.16c5.97 0 11.88-1.13 17.72-3.38 5.84-2.26 11.21-5.44 16.13-9.56l9.95 9.95h19.91v-67.69c0-8.09-1.63-14.7-4.88-19.81Zm-35.32 59.64c-1.04 1.55-2.49 2.71-4.36 3.48s-4.08 1.16-6.63 1.16-4.78-.39-6.68-1.16q-2.85-1.155-4.41-3.48c-1.04-1.55-1.54-3.48-1.5-5.81.03-2.33.57-4.27 1.61-5.81 1.04-1.55 2.49-2.71 4.36-3.48s4.08-1.16 6.63-1.16 4.78.39 6.68 1.16q2.85 1.155 4.41 3.48c1.04 1.55 1.54 3.48 1.5 5.81-.03 2.33-.57 4.27-1.61 5.81" fill="#006e42" data-color="1"/>
        <path d="M281.22 135.77c-2.06-6.63-5.24-12.11-9.56-16.42-4.31-4.31-9.79-7.5-16.42-9.56-6.64-2.06-14.53-3.09-23.69-3.09s-16.86 1.03-23.49 3.09c-6.64 2.06-12.11 5.25-16.42 9.56s-7.53 9.79-9.66 16.42c-2.12 6.64-3.19 14.53-3.19 23.69s1.06 16.86 3.19 23.49c2.12 6.64 5.34 12.11 9.66 16.42 4.31 4.31 9.79 7.53 16.42 9.65 6.64 2.12 14.46 3.19 23.49 3.19s17.05-1.06 23.69-3.19c6.63-2.12 12.11-5.34 16.42-9.65s7.5-9.79 9.56-16.42c2.06-6.64 3.09-14.46 3.09-23.49s-1.03-17.05-3.09-23.69m-35.38 33.96c-1.19 2.93-2.97 5.19-5.35 6.78q-3.57 2.385-8.94 2.31c-3.58-.05-6.56-.88-8.94-2.47s-4.16-3.83-5.35-6.7-1.78-6.27-1.78-10.19.59-7.34 1.78-10.27 2.97-5.19 5.35-6.78 5.36-2.37 8.94-2.31c3.58.05 6.56.88 8.94 2.47s4.16 3.83 5.35 6.7 1.78 6.27 1.78 10.19-.59 7.34-1.78 10.27" fill="#006e42" data-color="1"/>
    </g>
</svg>
