<?xml version="1.0" encoding="UTF-8"?>
<svg data-bbox="44.87 22.34 210.98 105.84" viewBox="0 0 300 150" xmlns="http://www.w3.org/2000/svg" data-type="color">
    <g>
        <path d="M97.79 22.34h123.45c19.1 0 34.61 15.51 34.61 34.61v71.23H97.79c-29.21 0-52.92-23.71-52.92-52.92s23.71-52.92 52.92-52.92" fill="#006e42" data-color="1"/>
        <path d="M150.72 60.96v-9.18h6.15v2.23h-3.72v1.27h3.02v2.16h-3.02v1.29h3.82v2.23h-6.24Z" fill="#fffcef" data-color="2"/>
        <path d="M158.41 60.96v-9.18h2.69l2.22 3.28 2.22-3.28h2.69v9.18h-2.43v-5.43l-2.46 3.59-2.49-3.59v5.43h-2.43Z" fill="#fffcef" data-color="2"/>
        <path d="M169.79 60.96v-9.18h3.3c.64 0 1.2.1 1.69.29s.87.49 1.15.89q.42.6.42 1.53c0 .28-.08.56-.24.83q-.24.405-.66.75c.4.22.71.5.93.86.22.35.33.79.33 1.3 0 .59-.14 1.08-.41 1.49s-.64.71-1.12.92-1.03.31-1.65.31h-3.76Zm2.36-5.7h.77c.28 0 .51-.07.68-.21s.26-.34.26-.59-.09-.45-.26-.59c-.18-.14-.4-.21-.68-.21h-.77zm0 3.56h1.11q.435 0 .69-.24c.17-.16.26-.36.26-.6s-.08-.44-.26-.58c-.17-.14-.4-.22-.69-.22h-1.11z" fill="#fffcef" data-color="2"/>
        <path d="m177.15 60.96 3.51-9.18h2.41l-3.36 9.18h-2.57Zm1.65-1.47v-2.14h6.35v2.14zm5.41 1.47-3.36-9.18h2.41l3.51 9.18h-2.57Z" fill="#fffcef" data-color="2"/>
        <path d="M187.66 60.96v-9.18h2.43v6.95h3.78v2.23h-6.2Z" fill="#fffcef" data-color="2"/>
        <path d="m194.22 60.96 3.51-9.18h2.41l-3.36 9.18h-2.57Zm1.65-1.47v-2.14h6.35v2.14zm5.42 1.47-3.36-9.18h2.41l3.51 9.18h-2.57Z" fill="#fffcef" data-color="2"/>
        <path d="M208.45 61.12c-.94 0-1.78-.2-2.5-.61-.73-.41-1.29-.97-1.71-1.68s-.62-1.53-.62-2.46.21-1.75.62-2.46.98-1.27 1.71-1.68 1.56-.61 2.5-.61c.62 0 1.17.09 1.65.26s.89.41 1.24.71.65.65.89 1.04l-2.02 1.19c-.12-.19-.28-.36-.47-.51s-.39-.26-.62-.35c-.22-.08-.45-.12-.67-.12-.46 0-.86.11-1.21.32s-.62.51-.83.89-.3.81-.3 1.31.1.93.29 1.31.47.69.83.9c.36.22.79.33 1.28.33.35 0 .66-.06.93-.19s.49-.31.64-.54.24-.5.24-.81l2.31-.43c0 .93-.18 1.7-.54 2.32s-.85 1.08-1.48 1.39-1.35.46-2.17.46Zm-.17-3.46v-1.84h4.35v1.35l-1.38.49h-2.98Z" fill="#fffcef" data-color="2"/>
        <path d="M213.62 60.96v-9.18h6.15v2.23h-3.72v1.27h3.02v2.16h-3.02v1.29h3.82v2.23h-6.24Z" fill="#fffcef" data-color="2"/>
        <path d="M221.3 60.96v-9.18h2.69l2.22 3.28 2.22-3.28h2.69v9.18h-2.43v-5.43l-2.46 3.59-2.49-3.59v5.43h-2.43Z" fill="#fffcef" data-color="2"/>
        <path d="M150.45 73.65v-5.62c.65.07 1.29-.06 1.92-.37.64-.31 1.25-.72 1.84-1.24.59-.51 1.11-1.02 1.56-1.51l3.95 3.72q-1.305 1.5-2.76 2.73c-.97.82-1.99 1.43-3.06 1.86-1.07.42-2.22.57-3.45.44Zm4.68 14.76V68.29l.64-3.31h5.22v23.43z" fill="#fffcef" data-color="2"/>
        <path d="M173.61 88.81c-1.96 0-3.71-.52-5.24-1.56s-2.72-2.47-3.58-4.29-1.29-3.91-1.29-6.28.43-4.46 1.29-6.28 2.04-3.25 3.55-4.28c1.51-1.04 3.24-1.56 5.2-1.56s3.78.52 5.31 1.56 2.73 2.47 3.6 4.28c.87 1.82 1.31 3.91 1.31 6.28s-.44 4.46-1.31 6.28-2.06 3.25-3.58 4.29q-2.28 1.56-5.25 1.56Zm0-5.62c.8 0 1.51-.28 2.12-.84s1.1-1.32 1.46-2.29q.54-1.455.54-3.36c0-1.905-.18-2.43-.54-3.41q-.54-1.47-1.47-2.31c-.62-.56-1.35-.84-2.18-.84-.78 0-1.47.28-2.08.84s-1.08 1.33-1.42 2.31c-.35.98-.52 2.12-.52 3.41s.17 2.39.52 3.36.83 1.73 1.46 2.29c.62.56 1.33.84 2.11.84" fill="#fffcef" data-color="2"/>
        <path d="M194.53 88.81c-1.96 0-3.71-.52-5.24-1.56s-2.72-2.47-3.58-4.29-1.29-3.91-1.29-6.28.43-4.46 1.29-6.28 2.04-3.25 3.55-4.28c1.51-1.04 3.24-1.56 5.2-1.56s3.78.52 5.31 1.56 2.73 2.47 3.6 4.28c.87 1.82 1.31 3.91 1.31 6.28s-.44 4.46-1.31 6.28-2.06 3.25-3.58 4.29q-2.28 1.56-5.25 1.56Zm0-5.62c.8 0 1.51-.28 2.12-.84s1.1-1.32 1.46-2.29q.54-1.455.54-3.36c0-1.905-.18-2.43-.54-3.41q-.54-1.47-1.47-2.31c-.62-.56-1.35-.84-2.18-.84-.78 0-1.47.28-2.08.84s-1.08 1.33-1.42 2.31c-.35.98-.52 2.12-.52 3.41s.17 2.39.52 3.36.83 1.73 1.46 2.29c.62.56 1.33.84 2.11.84" fill="#fffcef" data-color="2"/>
        <path d="M211.33 76.49c-1.09 0-2.07-.26-2.93-.77s-1.53-1.23-2.01-2.14-.72-1.95-.72-3.11.24-2.23.72-3.13a5.33 5.33 0 0 1 2.01-2.12c.86-.51 1.85-.77 2.96-.77s2.06.26 2.91.77 1.51 1.22 1.99 2.12.72 1.95.72 3.13-.24 2.2-.72 3.11c-.48.92-1.14 1.63-1.99 2.14s-1.83.77-2.95.77Zm-4.05 11.92 16.63-23.43h5.62l-16.74 23.43h-5.52Zm4.05-15.63c.54 0 .96-.22 1.29-.67.32-.45.49-.99.49-1.64s-.16-1.19-.49-1.64c-.32-.45-.75-.67-1.29-.67s-.97.22-1.29.67-.49.99-.49 1.64.16 1.19.49 1.64c.32.45.75.67 1.29.67m14.39 16.13c-1.09 0-2.07-.26-2.93-.77s-1.53-1.23-2.01-2.14-.72-1.95-.72-3.11.24-2.23.72-3.13a5.33 5.33 0 0 1 2.01-2.12c.86-.51 1.85-.77 2.96-.77s2.06.26 2.91.77 1.51 1.22 1.99 2.12.72 1.95.72 3.13-.24 2.2-.72 3.11c-.48.92-1.14 1.63-1.99 2.14s-1.83.77-2.95.77Zm0-3.72c.54 0 .96-.22 1.29-.67.32-.45.49-.99.49-1.64s-.16-1.19-.49-1.64c-.32-.45-.75-.67-1.29-.67s-.97.22-1.29.67-.49.99-.49 1.64.16 1.19.49 1.64c.32.45.75.67 1.29.67" fill="#fffcef" data-color="2"/>
        <path d="M151.03 102.33v-9.18h3.8c.69 0 1.3.13 1.84.4s.95.63 1.25 1.1.45 1.01.45 1.62-.15 1.16-.45 1.63-.72.85-1.25 1.11-1.15.4-1.84.4h-1.38v2.91h-2.43Zm2.42-5.14h1.25c.22 0 .41-.04.58-.12s.3-.19.39-.33c.1-.14.14-.3.14-.47a.8.8 0 0 0-.31-.65c-.21-.17-.47-.26-.81-.26h-1.25v1.82Zm2.51 5.14-2.05-3.61 1.82-1.36 3 4.97h-2.78Z" fill="#fffcef" data-color="2"/>
        <path d="M159.72 102.33v-9.18h6.15v2.23h-3.72v1.27h3.02v2.16h-3.02v1.29h3.82v2.23h-6.24Z" fill="#fffcef" data-color="2"/>
        <path d="M171.64 102.49c-.92 0-1.73-.2-2.43-.61s-1.26-.97-1.66-1.68q-.6-1.065-.6-2.46c0-1.395.2-1.75.6-2.46s.96-1.27 1.66-1.68 1.51-.61 2.43-.61c.71 0 1.35.12 1.92.37q.855.36 1.47 1.02c.615.66.73.94.94 1.52l-2.31.73c-.12-.29-.28-.54-.47-.75s-.42-.38-.68-.49-.55-.17-.87-.17c-.43 0-.81.11-1.14.32s-.59.51-.78.89-.28.81-.28 1.31.1.92.29 1.3.46.68.79.89c.34.21.72.32 1.16.32.34 0 .64-.06.88-.18s.46-.28.64-.5c.18-.21.33-.47.47-.75l2.31.73q-.315.87-.93 1.53c-.615.66-.91.79-1.48 1.03-.58.25-1.22.37-1.93.37Z" fill="#fffcef" data-color="2"/>
        <path d="M176.97 102.33v-9.18h2.43v9.18z" fill="#fffcef" data-color="2"/>
        <path d="M185.2 102.49c-.92 0-1.73-.2-2.43-.61s-1.26-.97-1.66-1.68q-.6-1.065-.6-2.46c0-1.395.2-1.75.6-2.46s.96-1.27 1.66-1.68 1.51-.61 2.43-.61c.71 0 1.35.12 1.92.37q.855.36 1.47 1.02c.615.66.73.94.94 1.52l-2.31.73c-.12-.29-.28-.54-.47-.75s-.42-.38-.68-.49-.55-.17-.87-.17c-.43 0-.81.11-1.14.32s-.59.51-.78.89-.28.81-.28 1.31.1.92.29 1.3.46.68.79.89c.34.21.72.32 1.16.32.34 0 .64-.06.88-.18s.46-.28.64-.5c.18-.21.33-.47.47-.75l2.31.73q-.315.87-.93 1.53c-.615.66-.91.79-1.48 1.03-.58.25-1.22.37-1.93.37Z" fill="#fffcef" data-color="2"/>
        <path d="M190.53 102.33v-9.18h2.43v6.95h3.78v2.23h-6.2Z" fill="#fffcef" data-color="2"/>
        <path d="m197.08 102.33 3.51-9.18H203l-3.36 9.18h-2.57Zm1.66-1.47v-2.14h6.35v2.14zm1.87-8.38 1.44-1.82h2.49l-1.71 1.82h-2.23Zm3.54 9.85-3.36-9.18h2.41l3.51 9.18h-2.57Z" fill="#fffcef" data-color="2"/>
        <path d="m210.43 102.33-3.53-9.18h2.62l3.25 9.18h-2.35Zm.28 0 3.23-9.18h2.62l-3.5 9.18z" fill="#fffcef" data-color="2"/>
        <path d="M217.44 102.33v-9.18h6.15v2.23h-3.72v1.27h3.02v2.16h-3.02v1.29h3.82v2.23h-6.24Z" fill="#fffcef" data-color="2"/>
        <path d="M225.12 102.33v-9.18h2.43v6.95h3.78v2.23h-6.2Z" fill="#fffcef" data-color="2"/>
        <path fill="#fffcef" d="M138.19 75.26c0 22.086-17.904 39.99-39.99 39.99S58.21 97.346 58.21 75.26 76.114 35.27 98.2 35.27s39.99 17.904 39.99 39.99" data-color="2"/>
        <path d="m111.58 67.69 4.92-11.63c.24-.56-.38-1.09-.9-.78l-3.73 2.22-1.78-2.93a5.75 5.75 0 0 0-4.92-2.77h-13.9c-2.02 0-3.9 1.06-4.95 2.78l-4.85 7.99c-.33.54-.15 1.24.39 1.56l8.25 4.9c.54.32 1.23.15 1.55-.39l6.55-10.79 3.46 5.69L97.53 66c-.53.31-.34 1.12.28 1.16l13.15.89c.27.02.52-.13.62-.38Z" fill="#006e42" data-color="1"/>
        <path d="m94.66 85.09-12.62-.1 3.12-5.88 4.23 2.3c.54.29 1.14-.29.86-.84l-5.97-11.75a.63.63 0 0 0-.64-.34l-12.51 1.73c-.6.08-.75.88-.21 1.17l3.81 2.07-1.6 3.03c-.94 1.78-.89 3.91.14 5.64l7.12 11.94a5.8 5.8 0 0 0 4.93 2.83l9.35.08c.63 0 1.14-.51 1.14-1.14l-.02-9.6c0-.62-.5-1.13-1.13-1.13Z" fill="#006e42" data-color="1"/>
        <path d="m122.51 76.41-4.29-8.3c-.29-.56-.98-.78-1.54-.48l-8.48 4.49c-.55.29-.76.97-.48 1.52l5.8 11.21h-6.66l.06-4.83c0-.62-.78-.87-1.14-.37l-7.61 10.76c-.15.22-.15.51 0 .73l7.37 10.26c.35.49 1.13.25 1.14-.36l.05-4.34h3.43c2.01 0 3.88-1.04 4.92-2.75l7.22-11.84s.01-.02.02-.03a5.8 5.8 0 0 0 .2-5.68Z" fill="#006e42" data-color="1"/>
        <path d="M95.8 95.82c0 .63-.51 1.14-1.14 1.14l-9.35-.08a5.81 5.81 0 0 1-4.93-2.83 5.8 5.8 0 0 1-.81-2.82c-.03-1.03.25-1.94.67-2.86l1.8-3.39 12.62.1c.62 0 1.12.51 1.13 1.13l.02 9.6Z" fill="#006e42" data-color="1"/>
        <path d="M122.31 82.09s-.01.02-.02.03c-.24.39-.53.75-.85 1.07a5.85 5.85 0 0 1-4.09 1.68h-3.84l-5.8-11.22c-.29-.55-.07-1.23.48-1.52l8.48-4.49c.56-.3 1.25-.08 1.54.48l4.29 8.3c.93 1.8.85 3.95-.2 5.68Z" fill="#006e42" data-color="1"/>
    </g>
</svg>
